<?xml version="1.0" encoding="utf-8"?>
<!-- Generator: Adobe Illustrator 19.2.1, SVG Export Plug-In . SVG Version: 6.00 Build 0)  -->
<svg version="1.1" id="Слой_1" xmlns="http://www.w3.org/2000/svg" xmlns:xlink="http://www.w3.org/1999/xlink" x="0px" y="0px"
	 viewBox="0 0 417.1 194.3" style="enable-background:new 0 0 417.1 194.3;" xml:space="preserve" width="417.1" height="194.3">
<g>
	<rect x="77.5" y="90.5" transform="matrix(0.499 -0.8666 0.8666 0.499 -48.7794 119.1374)" width="2.4" height="22.5"/>
	<rect x="76.8" y="137.4" transform="matrix(0.5014 -0.8652 0.8652 0.5014 -78.1434 141.6758)" width="14.2" height="2.4"/>
	<rect x="85.7" y="142.6" transform="matrix(0.4996 -0.8662 0.8662 0.4996 -78.1479 152.3836)" width="14.2" height="2.4"/>
	<rect x="119.6" y="128" transform="matrix(0.8672 -0.4979 0.4979 0.8672 -51.7989 78.239)" width="2.4" height="16.5"/>
	<rect x="110.6" y="133.2" transform="matrix(0.8655 -0.5008 0.5008 0.8655 -55.7924 75.0118)" width="2.4" height="16.5"/>
	<polygon points="402.9,114.8 358.8,89.3 358.8,50.2 356.4,50.2 356.4,87.9 354.8,87 354.8,87 352.4,85.6 351.8,86 348.5,87.9 
		348.5,50.2 346.1,50.2 346.1,89.3 318.9,105 320.1,107.1 351.3,89 351.3,89.1 352.4,88.4 401.7,116.9 	"/>
	<path d="M114.3,121.8c0-6.7-5.7-7.8-10.7-8.7c-3.7-0.7-7-1.3-7-4.7c0-2.9,2.6-4.7,6.5-4.7c1.8,0,6.2,0.3,6.7,5h3.8
		c-0.3-4.3-3.4-8.1-10.4-8.1c-6.3,0-10.6,2.8-10.6,8c0,6.4,5.6,7,12,8.4c2.6,0.6,5.6,1.5,5.6,4.9c0,2.7-1.9,5.2-6.9,5.2
		c-5.1,0-8.1-2.8-8-6.6h-3.8c0.4,8.8,7.6,9.7,11.6,9.7C105.6,130.3,114.3,130.2,114.3,121.8z"/>
	<path d="M66.5,86.6c0-11.4-7.2-14.8-13.4-14.8c-7.8,0-13.4,5-13.4,14.8c0,14.7,11.5,14.8,13.4,14.8
		C54.9,101.4,66.5,101.3,66.5,86.6z M53.1,98.3c-8,0-9.4-7.2-9.4-11.7c0-3,0.8-11.6,9.4-11.6c6.4,0,9.4,5,9.4,11.6
		C62.5,97.9,55.1,98.3,53.1,98.3z"/>
	<polygon points="32,84.3 17.9,84.3 17.9,72.6 14.2,72.6 14.2,100.6 17.9,100.6 17.9,87.4 32,87.4 32,100.6 35.8,100.6 35.8,72.6 
		32,72.6 	"/>
	<path d="M74.2,150.5c-7.8,0-13.4,5-13.4,14.8c0,14.6,11.5,14.8,13.4,14.8c1.7,0,13.4-0.2,13.4-14.8
		C87.6,153.9,80.4,150.5,74.2,150.5z M74.2,177c-8,0-9.4-7.2-9.4-11.7c0-3,0.8-11.7,9.4-11.7c6.4,0,9.4,5.1,9.4,11.7
		C83.6,176.6,76.1,177,74.2,177z"/>
	<path d="M131.8,150.5c-7.8,0-13.4,5-13.4,14.8c0,14.6,11.5,14.8,13.4,14.8c1.7,0,13.4-0.2,13.4-14.8
		C145.2,153.9,138,150.5,131.8,150.5z M131.8,177c-8,0-9.4-7.2-9.4-11.7c0-3,0.8-11.7,9.4-11.7c6.4,0,9.4,5.1,9.4,11.7
		C141.2,176.6,133.7,177,131.8,177z"/>
	<polygon points="255,87 253.3,86 253.3,86 253.2,86 252.6,85.6 252,86 203.9,113.8 203.9,113.8 202.8,114.4 201.7,113.8 
		201.7,113.8 153.5,86 153.5,86 152.9,85.6 152.3,86 152.3,86 118.7,105.3 119.9,107.4 151.8,89 151.8,89.1 152.9,88.4 154,89.1 
		154,89 202.2,116.9 202.2,116.9 202.8,117.2 203.4,116.9 203.4,116.9 251.5,89 251.5,89.1 252.7,88.4 285,107.1 286.2,105 255,87 	
		"/>
	<polygon points="310.2,123.2 295.3,101 291.1,101 291.1,129 294.9,129 294.9,106.8 309.8,129 313.9,129 313.9,101 310.2,101 	"/>
	<polygon points="309.6,144.7 295.5,144.7 295.5,133 291.7,133 291.7,161 295.5,161 295.5,147.8 309.6,147.8 309.6,161 313.3,161 
		313.3,133 309.6,133 	"/>
	<path d="M352.4,43.9c1.7,0,13.4-0.2,13.4-14.8c0-11.4-7.2-14.8-13.4-14.8c-7.8,0-13.4,5-13.4,14.8
		C339.1,43.7,350.6,43.9,352.4,43.9z M352.4,17.3c6.4,0,9.4,5.1,9.4,11.7c0,11.3-7.4,11.7-9.4,11.7c-8,0-9.4-7.2-9.4-11.7
		C343.1,26,343.9,17.3,352.4,17.3z"/>
</g>
</svg>
