<?xml version="1.0" encoding="utf-8"?>
<!-- Generator: Adobe Illustrator 18.0.0, SVG Export Plug-In . SVG Version: 6.00 Build 0)  -->
<!DOCTYPE svg PUBLIC "-//W3C//DTD SVG 1.1//EN" "http://www.w3.org/Graphics/SVG/1.1/DTD/svg11.dtd">
<svg version="1.1" id="Слой_1" xmlns="http://www.w3.org/2000/svg" xmlns:xlink="http://www.w3.org/1999/xlink" x="0px" y="0px"
	 viewBox="0 0 470 295.7" enable-background="new 0 0 470 295.7" xml:space="preserve" width="470" height="295.7">
<g>
	<rect x="119.5" y="204" width="2.4" height="45.6"/>
	<rect x="178.7" y="238.2" transform="matrix(-0.4995 -0.8663 0.8663 -0.4995 43.6987 547.2442)" width="2.4" height="45.6"/>
	<rect x="157.1" y="191.4" transform="matrix(-0.866 -0.5 0.5 -0.866 239.4662 449.2792)" width="45.6" height="2.4"/>
	<rect x="278.5" y="238.2" transform="matrix(-0.4995 -0.8663 0.8663 -0.4995 193.3076 633.6731)" width="2.4" height="45.6"/>
	<rect x="278.5" y="169.7" transform="matrix(-0.4995 0.8663 -0.8663 -0.4995 586.2195 46.455)" width="2.4" height="45.6"/>
	<rect x="25.4" y="170.2" transform="matrix(-0.4996 -0.8663 0.8663 -0.4996 -123.6553 306.0009)" width="2.4" height="37"/>
	<polygon points="416,85.1 416,46.2 413.6,46.2 413.6,83.7 411.9,82.7 410.2,81.7 409.6,81.4 409,81.7 405.6,83.7 405.6,46.2 
		403.2,46.2 403.2,85.1 376,100.8 377.2,102.8 409.6,84.2 458.9,112.6 460.1,110.5 	"/>
	<path d="M70.6,158.5c-1.1-1.4-2.6-2.5-4.3-3.3c-1.7-0.8-3.7-1.2-6-1.2c-2.3,0-4.3,0.4-6,1.2c-1.7,0.8-3.1,1.9-4.3,3.3
		c-1.1,1.4-2,3-2.6,4.8c-0.6,1.8-0.9,3.7-0.9,5.6c0,1.9,0.3,3.8,0.9,5.6c0.6,1.8,1.4,3.4,2.6,4.8c1.1,1.4,2.6,2.5,4.3,3.3
		c1.7,0.8,3.7,1.2,6,1.2c2.3,0,4.3-0.4,6-1.2c1.7-0.8,3.1-1.9,4.3-3.3c1.1-1.4,2-3,2.6-4.8c0.6-1.8,0.9-3.7,0.9-5.6
		c0-1.9-0.3-3.8-0.9-5.6C72.6,161.5,71.8,159.9,70.6,158.5z M69.7,173.1c-0.4,1.4-1,2.7-1.8,3.8c-0.8,1.1-1.8,2-3.1,2.7
		c-1.3,0.7-2.7,1-4.5,1c-1.7,0-3.2-0.3-4.5-1c-1.3-0.7-2.3-1.6-3.1-2.7c-0.8-1.1-1.4-2.4-1.8-3.8c-0.4-1.4-0.6-2.8-0.6-4.3
		c0-1.4,0.2-2.9,0.6-4.3c0.4-1.4,1-2.7,1.8-3.8c0.8-1.1,1.8-2,3.1-2.7c1.3-0.7,2.7-1,4.5-1c1.7,0,3.2,0.3,4.5,1
		c1.3,0.7,2.3,1.6,3.1,2.7c0.8,1.1,1.4,2.4,1.8,3.8c0.4,1.4,0.6,2.8,0.6,4.3C70.3,170.3,70.1,171.7,69.7,173.1z"/>
	<path d="M309.8,81.4l-0.6,0.3l-1.7,1l-48.2,27.8l-0.6,0.3v0.7v2v54.9l-48.7,28.1l-47.6-27.5l0,0l-1.7-1l-0.6-0.3l-0.6,0.3l-1.7,1
		l0,0l-47.6,27.5l-31.5-18.2l-1.2,2.1l31.5,18.2v54.9v2l0,0.7l0.6,0.3l49.9,28.8l0.6,0.3l0.6-0.3l49.3-28.5l47.6,27.5l0,0l1.7,1
		l0.6,0.3l0.6-0.3l1.7-1l0,0l48.2-27.8l0.6-0.3v-0.7v-2V200v-2l0-0.7l-0.6-0.3l-1.7-1l-47.6-27.5v-54.9v-1.3l47.6-27.5l1.1-0.7
		l1.1,0.7l31.2,18l1.2-2.1l-33-19L309.8,81.4z M208.9,254.9l-47.6,27.5v0l-1.1,0.7l-1.1-0.7v0l-46.4-26.8l-1.1-0.7v-1.3v-54.9
		l47.6-27.5v0l1.1-0.7l1.1,0.7v0l47.6,27.5V254.9z M307.5,198l1.1,0.7v1.3v53.6v1.3l-1.1,0.7L259.9,283l-48.7-28.1v-56.2l48.7-28.1
		L307.5,198z"/>
	<polygon points="367.5,119.8 367.4,119.8 352.4,96.7 348.3,96.7 348.3,125.2 351.9,125.2 351.9,102.3 352,102.3 366.9,125.2 
		371.1,125.2 371.1,96.7 367.5,96.7 	"/>
	<polygon points="367.2,141.5 352.2,141.5 352.2,129.2 348.4,129.2 348.4,157.8 352.2,157.8 352.2,144.7 367.2,144.7 367.2,157.8 
		371,157.8 371,129.2 367.2,129.2 	"/>
	<path d="M399.3,35.3c1.1,1.4,2.6,2.5,4.3,3.3c1.7,0.8,3.7,1.2,6,1.2c2.3,0,4.3-0.4,6-1.2c1.7-0.8,3.1-1.9,4.3-3.3s2-3,2.6-4.8
		c0.6-1.8,0.9-3.7,0.9-5.6c0-1.9-0.3-3.8-0.9-5.6c-0.6-1.8-1.4-3.4-2.6-4.8c-1.1-1.4-2.6-2.5-4.3-3.3s-3.7-1.2-6-1.2
		c-2.3,0-4.3,0.4-6,1.2s-3.1,1.9-4.3,3.3c-1.1,1.4-2,3-2.6,4.8c-0.6,1.8-0.9,3.7-0.9,5.6c0,1.9,0.3,3.8,0.9,5.6
		C397.3,32.3,398.2,33.9,399.3,35.3z M400.3,20.6c0.4-1.4,1-2.7,1.8-3.8c0.8-1.1,1.8-2,3.1-2.7c1.3-0.7,2.7-1,4.5-1
		c1.7,0,3.2,0.3,4.5,1c1.3,0.7,2.3,1.6,3.1,2.7c0.8,1.1,1.4,2.4,1.8,3.8c0.4,1.4,0.6,2.8,0.6,4.3c0,1.4-0.2,2.9-0.6,4.3
		c-0.4,1.4-1,2.7-1.8,3.8c-0.8,1.1-1.8,2-3.1,2.7c-1.3,0.7-2.7,1-4.5,1c-1.7,0-3.2-0.3-4.5-1c-1.3-0.7-2.3-1.6-3.1-2.7
		c-0.8-1.1-1.4-2.4-1.8-3.8s-0.6-2.8-0.6-4.3C399.7,23.4,399.9,22,400.3,20.6z"/>
</g>
</svg>
