<?xml version="1.0" encoding="utf-8"?>
<!-- Generator: Adobe Illustrator 18.0.0, SVG Export Plug-In . SVG Version: 6.00 Build 0)  -->
<!DOCTYPE svg PUBLIC "-//W3C//DTD SVG 1.1//EN" "http://www.w3.org/Graphics/SVG/1.1/DTD/svg11.dtd">
<svg version="1.1" id="Слой_1" xmlns="http://www.w3.org/2000/svg" xmlns:xlink="http://www.w3.org/1999/xlink" x="0px" y="0px"
	 viewBox="0 0 327.8 414" enable-background="new 0 0 327.8 414" xml:space="preserve" width="327.8" height="414">
<g>
	<rect x="85.2" y="146.7" width="2.4" height="45.6"/>
	<rect x="144.5" y="181" transform="matrix(-0.4995 -0.8663 0.8663 -0.4995 41.9002 431.756)" width="2.4" height="45.6"/>
	<rect x="122.9" y="134.1" transform="matrix(-0.866 -0.5 0.5 -0.866 204.1506 325.3672)" width="45.6" height="2.4"/>
	<rect x="223.9" y="217.9" transform="matrix(-0.9749 0.2225 -0.2225 -0.9749 524.1266 379.1351)" width="33.5" height="2.4"/>
	<path d="M259.6,226.6l-0.5-2.3l-38,8.7L177,197.8v-56.4l28.2-22.5l-1.5-1.9l-28,22.3l-47.4-27.4l0,0l-1.7-1l-0.6-0.3l-0.6,0.3
		l-1.7,1l0,0l-48.2,27.8l-0.6,0.3v0.7v2v54.9l-27.5,15.9l1.2,2.1L76,199.7l49.3,28.5l0.6,0.3l0.6-0.3l1.7-1v0l47.4-27.4l43.8,34.9
		L207,289.5l-52.5,16.2l0,0l-1.9,0.6l-0.7,0.2l-0.2,0.7l-0.4,1.9L139,363.3l-0.2,0.7l0.5,0.5l1.5,1.4l0,0l40.8,37.8l0.5,0.5l0.7-0.2
		l55-17l0.7-0.2l0.2-0.7l0.4-1.9h0l12.4-54.2l0.2-0.7l-0.5-0.5l-1.5-1.4l0,0L209.3,290l12.5-54.7L259.6,226.6z M174.6,197.7
		l-48.7,28.1l-48.7-28.1v-54.9v-1.3l1.1-0.7l46.4-26.8l0,0l1.1-0.7l1.1,0.7l0,0l47.6,27.5V197.7z M175.8,140.8L175.8,140.8
		L175.8,140.8L175.8,140.8z M248.9,330l-0.3,1.3h0l-12.2,53.5l-1.2,0.4v0l-52.5,16.2l-1-0.9l0,0l-40.3-37.3l0.3-1.3l0,0l12.2-53.5
		l53.7-16.6L248.9,330z"/>
	<rect x="155.5" y="315" transform="matrix(-0.975 -0.2221 0.2221 -0.975 234.3972 701.9304)" width="2.4" height="45.6"/>
	<rect x="205.6" y="361.5" transform="matrix(-0.2946 -0.9556 0.9556 -0.2946 -99.493 695.238)" width="2.4" height="45.6"/>
	<rect x="199.3" y="316.4" transform="matrix(-0.7331 -0.6802 0.6802 -0.7331 168.8254 701.4827)" width="45.6" height="2.4"/>
	<rect x="264" y="93.4" transform="matrix(-0.5129 0.8584 -0.8584 -0.5129 502.8239 -96.082)" width="29.3" height="2.4"/>
	<rect x="282.5" y="45.3" transform="matrix(0.6579 0.7531 -0.7531 0.6579 133.4039 -200.6516)" width="10.2" height="2.4"/>
	<rect x="223.9" y="47" transform="matrix(-0.9195 0.393 -0.393 -0.9195 480.2811 -1.9371)" width="32.8" height="2.4"/>
	<path d="M217.7,83.7l2.4-0.2l-3.2-35.2l34.9-14.9l-0.9-2.2l-35.1,15l-48.9-29.2l-1.2,2.1l48.9,29.2L217.7,83.7z M215.7,47.5
		L215.7,47.5L215.7,47.5L215.7,47.5z"/>
	<path d="M31,233.7c-0.4,1-1,1.9-1.7,2.6s-1.5,1.3-2.5,1.7s-2.1,0.6-3.3,0.6c-1.7,0-3.2-0.3-4.4-1s-2.2-1.5-3-2.6s-1.4-2.3-1.7-3.8
		s-0.6-3-0.6-4.6c0-1.5,0.2-2.9,0.6-4.3c0.4-1.4,1-2.6,1.7-3.7c0.8-1.1,1.8-1.9,3-2.6s2.7-1,4.4-1c2,0,3.7,0.5,5.2,1.5
		c1.5,1,2.4,2.5,2.8,4.6h3.8c-0.2-1.5-0.7-2.9-1.4-4c-0.7-1.2-1.6-2.1-2.6-2.9c-1-0.8-2.2-1.4-3.6-1.8c-1.3-0.4-2.7-0.6-4.2-0.6
		c-2.2,0-4.1,0.4-5.8,1.2c-1.7,0.8-3.1,1.9-4.2,3.2c-1.1,1.4-2,3-2.6,4.8c-0.6,1.8-0.9,3.8-0.9,5.9c0,2.1,0.3,4,0.8,5.8
		s1.4,3.4,2.5,4.7c1.1,1.3,2.5,2.4,4.1,3.1c1.7,0.8,3.6,1.1,5.8,1.1c3.7,0,6.5-1,8.6-3s3.3-4.8,3.7-8.4h-3.8
		C31.6,231.5,31.4,232.6,31,233.7z"/>
	<rect x="39" y="212.6" width="3.4" height="28.6"/>
	<polygon points="284.8,229.7 284.7,229.7 269.6,206.5 265.6,206.5 265.6,235.1 269.2,235.1 269.2,212.2 269.3,212.2 284.2,235.1 
		288.4,235.1 288.4,206.5 284.8,206.5 	"/>
	<polygon points="302.2,167.2 278.3,117.7 296.1,88 294.1,86.7 276.4,116.3 238.7,107.7 238.2,110 276.2,118.7 300.6,169.6 
		285.9,200.2 288,201.3 303.1,170.1 303.3,169.6 303.1,169 	"/>
	<polygon points="228.6,113.1 228.5,113.1 213.5,89.9 209.4,89.9 209.4,118.5 213,118.5 213,95.6 213.1,95.6 228,118.5 232.2,118.5 
		232.2,89.9 228.6,89.9 	"/>
	<polygon points="314.3,53.3 314.3,76.5 314.2,76.5 299.2,53.3 295.1,53.3 295.1,81.9 298.7,81.9 298.7,58.9 298.8,58.9 313.7,81.9 
		317.9,81.9 317.9,53.3 	"/>
	<polygon points="260.8,15.6 260.9,15.6 275.8,38.5 280,38.5 280,9.9 276.4,9.9 276.4,33.1 276.3,33.1 261.3,9.9 257.2,9.9 
		257.2,38.5 260.8,38.5 	"/>
</g>
</svg>
