<?xml version="1.0" standalone="no" ?>
<!DOCTYPE svg PUBLIC "-//W3C//DTD SVG 1.1//EN" "http://www.w3.org/Graphics/SVG/1.1/DTD/svg11.dtd">
<svg width="416px" height="95px" viewBox="0 0 416 95" style="" xmlns="http://www.w3.org/2000/svg" xmlns:xlink="http://www.w3.org/1999/xlink" version="1.1" >
<path stroke="none" fill="#000000" transform="matrix(0.0666667 0 0 0.0666667 -86.5333 -341.733)" d="M 2812.09,5784.46 L 2818.09,5781 L 2824.09,5784.46 L 2824.09,6065.54 L 2818.09,6069 L 2812.09,6065.54 L 2812.09,5784.46 Z " />
<path stroke="none" fill="#000000" transform="matrix(0.0666667 0 0 0.0666667 -86.5333 -341.733)" d="M 2863.93,5810.93 L 2875.92,5810.93 L 2875.92,6039.07 L 2863.93,6039.07 L 2863.93,5810.93 Z " />
<path stroke="none" fill="#000000" transform="matrix(0.0666667 0 0 0.0666667 -86.5333 -341.733)" d="M 2818.09,6075.93 L 2818.09,6069 L 2824.09,6065.54 L 3067.5,6206.07 L 3067.5,6219.93 L 2818.09,6075.93 Z " />
<path stroke="none" fill="#000000" transform="matrix(0.0666667 0 0 0.0666667 -86.5333 -341.733)" d="M 3067.5,6219.93 L 3067.5,6206.07 L 3310.92,6065.54 L 3316.92,6069 L 3316.92,6075.93 L 3067.5,6219.93 Z " />
<path stroke="none" fill="#000000" transform="matrix(0.0666667 0 0 0.0666667 -86.5333 -341.733)" d="M 3070.5,6158.34 L 3064.5,6147.94 L 3262.08,6033.87 L 3268.08,6044.27 L 3070.5,6158.34 Z " />
<path stroke="none" fill="#000000" transform="matrix(0.0666667 0 0 0.0666667 -86.5333 -341.733)" d="M 3322.92,6065.54 L 3316.92,6069 L 3310.92,6065.54 L 3310.92,5784.46 L 3316.92,5781 L 3322.92,5784.46 L 3322.92,6065.54 Z " />
<path stroke="none" fill="#000000" transform="matrix(0.0666667 0 0 0.0666667 -86.5333 -341.733)" d="M 3316.92,5774.07 L 3316.92,5781 L 3310.92,5784.46 L 3067.5,5643.93 L 3067.5,5630.07 L 3316.92,5774.07 Z " />
<path stroke="none" fill="#000000" transform="matrix(0.0666667 0 0 0.0666667 -86.5333 -341.733)" d="M 3268.08,5805.73 L 3262.08,5816.13 L 3064.5,5702.06 L 3070.5,5691.66 L 3268.08,5805.73 Z " />
<path stroke="none" fill="#000000" transform="matrix(0.0666667 0 0 0.0666667 -86.5333 -341.733)" d="M 3067.5,5630.07 L 3067.5,5643.93 L 2824.09,5784.46 L 2818.09,5781 L 2818.09,5774.07 L 3067.5,5630.07 Z " />
<text x="0" y="0" stroke="none" fill="#000000" transform="matrix(0.0666667 0 0 0.0666667 146.408 77.6667)" font-style="normal" font-weight="normal" font-size="200px" font-family="Arial" >
NH</text>
<text x="0" y="0" stroke="none" fill="#000000" transform="matrix(0.0666667 0 0 0.0666667 165.665 80.6)" font-style="normal" font-weight="normal" font-size="150px" font-family="Arial" >
2</text>
<path stroke="none" fill="#000000" transform="matrix(0.0666667 0 0 0.0666667 -86.5333 -341.733)" d="M 3316.92,6075.93 L 3316.92,6069 L 3322.92,6065.54 L 3472.47,6151.88 L 3466.47,6162.27 L 3316.92,6075.93 Z " />
<text x="0" y="0" stroke="none" fill="#000000" transform="matrix(0.0666667 0 0 0.0666667 79.5258 77.6667)" font-style="normal" font-weight="normal" font-size="200px" font-family="Arial" >
O</text>
<path stroke="none" fill="#000000" transform="matrix(0.0666667 0 0 0.0666667 -86.5333 -341.733)" d="M 2812.09,6065.54 L 2818.09,6069 L 2818.09,6075.93 L 2657.3,6168.75 L 2651.3,6158.36 L 2812.09,6065.54 Z " />
<path stroke="none" fill="#000000" transform="matrix(0.0666667 0 0 0.0666667 -86.5333 -341.733)" d="M 2562.67,6324.58 L 2574.67,6324.58 L 2574.67,6501 L 2562.67,6501 L 2562.67,6324.58 Z " />
<text x="0" y="0" stroke="none" fill="#000000" transform="matrix(0.0666667 0 0 0.0666667 146.775 39.2667)" font-style="normal" font-weight="normal" font-size="200px" font-family="Arial" >
S</text>
<path stroke="none" fill="#000000" transform="matrix(0.0666667 0 0 0.0666667 -86.5333 -341.733)" d="M 3322.92,5784.46 L 3316.92,5781 L 3316.92,5774.07 L 3472.65,5684.16 L 3478.65,5694.55 L 3322.92,5784.46 Z " />
<path stroke="none" fill="#000000" transform="matrix(0.0666667 0 0 0.0666667 -86.5333 -341.733)" d="M 3654.46,5694.81 L 3660.46,5684.42 L 3815.75,5774.07 L 3815.75,5787.93 L 3654.46,5694.81 Z " />
<path stroke="none" fill="#000000" transform="matrix(0.0666667 0 0 0.0666667 -86.5333 -341.733)" d="M 3815.75,5787.93 L 3815.75,5774.07 L 4062.16,5631.8 L 4068.16,5642.2 L 3815.75,5787.93 Z " />
<text x="0" y="0" stroke="none" fill="#000000" transform="matrix(0.0666667 0 0 0.0666667 136.437 22.639)" font-style="normal" font-weight="normal" font-size="200px" font-family="Arial" >
O</text>
<path stroke="none" fill="#000000" transform="matrix(0.0666667 0 0 0.0666667 -86.5333 -341.733)" d="M 3499.78,5561.57 L 3489.38,5567.57 L 3451.15,5501.35 L 3461.55,5495.35 L 3499.78,5561.57 Z " />
<path stroke="none" fill="#000000" transform="matrix(0.0666667 0 0 0.0666667 -86.5333 -341.733)" d="M 3544.67,5535.65 L 3534.28,5541.65 L 3496.05,5475.43 L 3506.44,5469.43 L 3544.67,5535.65 Z " />
<text x="0" y="0" stroke="none" fill="#000000" transform="matrix(0.0666667 0 0 0.0666667 155.636 22.639)" font-style="normal" font-weight="normal" font-size="200px" font-family="Arial" >
O</text>
<path stroke="none" fill="#000000" transform="matrix(0.0666667 0 0 0.0666667 -86.5333 -341.733)" d="M 3597.78,5542.68 L 3587.39,5536.68 L 3626.51,5468.92 L 3636.9,5474.92 L 3597.78,5542.68 Z " />
<path stroke="none" fill="#000000" transform="matrix(0.0666667 0 0 0.0666667 -86.5333 -341.733)" d="M 3642.68,5568.6 L 3632.28,5562.6 L 3671.41,5494.84 L 3681.8,5500.84 L 3642.68,5568.6 Z " />
<path stroke="none" fill="#000000" transform="matrix(0.0666667 0 0 0.0666667 -86.5333 -341.733)" d="M 2818.09,5774.07 L 2818.09,5781 L 2812.09,5784.46 L 2568.67,5643.93 L 2568.67,5630.07 L 2818.09,5774.07 Z " />
<text x="0" y="0" stroke="none" fill="#000000" transform="matrix(0.0666667 0 0 0.0666667 63.2692 48.8667)" font-style="normal" font-weight="normal" font-size="200px" font-family="Arial" >
N</text>
<text x="0" y="0" stroke="none" fill="#000000" transform="matrix(0.0666667 0 0 0.0666667 63.2692 59.9889)" font-style="normal" font-weight="normal" font-size="200px" font-family="Arial" >
H</text>
<path stroke="none" fill="#000000" transform="matrix(0.0666667 0 0 0.0666667 -86.5333 -341.733)" d="M 2568.67,5630.07 L 2568.67,5643.93 L 2418.79,5730.46 L 2412.79,5720.07 L 2568.67,5630.07 Z " />
<text x="0" y="0" stroke="none" fill="#000000" transform="matrix(0.0666667 0 0 0.0666667 79.5258 20.0667)" font-style="normal" font-weight="normal" font-size="200px" font-family="Arial" >
O</text>
<path stroke="none" fill="#000000" transform="matrix(0.0666667 0 0 0.0666667 -86.5333 -341.733)" d="M 2548.75,5651.97 L 2536.75,5651.97 L 2536.75,5460.58 L 2548.75,5460.58 L 2548.75,5651.97 Z " />
<path stroke="none" fill="#000000" transform="matrix(0.0666667 0 0 0.0666667 -86.5333 -341.733)" d="M 2600.59,5651.97 L 2588.59,5651.97 L 2588.59,5460.58 L 2600.59,5460.58 L 2600.59,5651.97 Z " />
<path stroke="none" fill="#000000" transform="matrix(0.0666667 0 0 0.0666667 -86.5333 -341.733)" d="M 2225.39,5719.88 L 2219.39,5730.27 L 2066.84,5642.2 L 2072.84,5631.8 L 2225.39,5719.88 Z " />
<text x="0" y="0" stroke="none" fill="#000000" transform="matrix(0.0666667 0 0 0.0666667 14.7522 37.7959)" font-style="normal" font-weight="normal" font-size="200px" font-family="Arial" >
N</text>
<path stroke="none" fill="#000000" transform="matrix(0.0666667 0 0 0.0666667 -86.5333 -341.733)" d="M 1443.14,6064.12 L 1451.86,6052.13 L 1731.14,6052.13 L 1739.86,6064.12 L 1443.14,6064.12 Z " />
<path stroke="none" fill="#000000" transform="matrix(0.0666667 0 0 0.0666667 -86.5333 -341.733)" d="M 1739.86,6064.12 L 1731.14,6052.13 L 1817.44,5786.51 L 1831.55,5781.93 L 1739.86,6064.12 Z " />
<path stroke="none" fill="#000000" transform="matrix(0.0666667 0 0 0.0666667 -86.5333 -341.733)" d="M 1831.55,5781.93 L 1817.44,5786.51 L 1686.86,5691.64 L 1693.92,5681.93 L 1831.55,5781.93 Z " />
<path stroke="none" fill="#000000" transform="matrix(0.0666667 0 0 0.0666667 -86.5333 -341.733)" d="M 1488.8,5682.14 L 1495.85,5691.85 L 1365.56,5786.51 L 1351.45,5781.93 L 1488.8,5682.14 Z " />
<path stroke="none" fill="#000000" transform="matrix(0.0666667 0 0 0.0666667 -86.5333 -341.733)" d="M 1351.45,5781.93 L 1365.56,5786.51 L 1451.86,6052.13 L 1443.14,6064.12 L 1351.45,5781.93 Z " />
<path stroke="none" fill="#000000" transform="matrix(0.0666667 0 0 0.0666667 -86.5333 -341.733)" d="M 1870.38,5763.68 L 1864.21,5753.4 L 1873.69,5745.88 L 1881.47,5758.85 L 1870.38,5763.68 Z " />
<path stroke="none" fill="#000000" transform="matrix(0.0666667 0 0 0.0666667 -86.5333 -341.733)" d="M 1924.08,5740.26 L 1910.15,5717.03 L 1919.63,5709.52 L 1935.17,5735.42 L 1924.08,5740.26 Z " />
<path stroke="none" fill="#000000" transform="matrix(0.0666667 0 0 0.0666667 -86.5333 -341.733)" d="M 1977.78,5716.83 L 1956.08,5680.67 L 1965.57,5673.16 L 1988.87,5711.99 L 1977.78,5716.83 Z " />
<path stroke="none" fill="#000000" transform="matrix(0.0666667 0 0 0.0666667 -86.5333 -341.733)" d="M 2031.48,5693.41 L 2002.02,5644.31 L 2011.51,5636.8 L 2042.58,5688.57 L 2031.48,5693.41 Z " />
<path stroke="none" fill="#000000" transform="matrix(0.0666667 0 0 0.0666667 -86.5333 -341.733)" d="M 1597.5,5520.36 L 1585.5,5520.36 L 1585.5,5330.4 L 1597.5,5323.47 L 1597.5,5520.36 Z " />
<path stroke="none" fill="#000000" transform="matrix(0.0666667 0 0 0.0666667 -86.5333 -341.733)" d="M 1597.5,5323.47 L 1585.5,5330.4 L 1339.09,5188.14 L 1345.08,5177.74 L 1597.5,5323.47 Z " />
<path stroke="none" fill="#000000" transform="matrix(0.0666667 0 0 0.0666667 -86.5333 -341.733)" d="M 6235.5,5789.22 L 6241.5,5785.76 L 6247.5,5789.22 L 6247.5,6070.29 L 6241.5,6073.76 L 6235.5,6070.29 L 6235.5,5789.22 Z " />
<path stroke="none" fill="#000000" transform="matrix(0.0666667 0 0 0.0666667 -86.5333 -341.733)" d="M 6287.34,5815.69 L 6299.34,5815.69 L 6299.34,6043.83 L 6287.34,6043.83 L 6287.34,5815.69 Z " />
<path stroke="none" fill="#000000" transform="matrix(0.0666667 0 0 0.0666667 -86.5333 -341.733)" d="M 6241.5,6080.69 L 6241.5,6073.76 L 6247.5,6070.29 L 6490.92,6210.83 L 6490.92,6224.69 L 6241.5,6080.69 Z " />
<path stroke="none" fill="#000000" transform="matrix(0.0666667 0 0 0.0666667 -86.5333 -341.733)" d="M 6490.92,6224.69 L 6490.92,6210.83 L 6734.33,6070.29 L 6740.33,6073.76 L 6740.33,6080.69 L 6490.92,6224.69 Z " />
<path stroke="none" fill="#000000" transform="matrix(0.0666667 0 0 0.0666667 -86.5333 -341.733)" d="M 6493.92,6163.09 L 6487.92,6152.7 L 6685.49,6038.63 L 6691.49,6049.02 L 6493.92,6163.09 Z " />
<path stroke="none" fill="#000000" transform="matrix(0.0666667 0 0 0.0666667 -86.5333 -341.733)" d="M 6746.33,6070.29 L 6740.33,6073.76 L 6734.33,6070.29 L 6734.33,5789.22 L 6740.33,5785.76 L 6746.33,5789.22 L 6746.33,6070.29 Z " />
<path stroke="none" fill="#000000" transform="matrix(0.0666667 0 0 0.0666667 -86.5333 -341.733)" d="M 6740.33,5778.83 L 6740.33,5785.76 L 6734.33,5789.22 L 6490.92,5648.69 L 6490.92,5634.83 L 6740.33,5778.83 Z " />
<path stroke="none" fill="#000000" transform="matrix(0.0666667 0 0 0.0666667 -86.5333 -341.733)" d="M 6691.49,5810.49 L 6685.49,5820.88 L 6487.92,5706.81 L 6493.92,5696.42 L 6691.49,5810.49 Z " />
<path stroke="none" fill="#000000" transform="matrix(0.0666667 0 0 0.0666667 -86.5333 -341.733)" d="M 6490.92,5634.83 L 6490.92,5648.69 L 6247.5,5789.22 L 6241.5,5785.76 L 6241.5,5778.83 L 6490.92,5634.83 Z " />
<text x="0" y="0" stroke="none" fill="#000000" transform="matrix(0.0666667 0 0 0.0666667 374.635 77.9838)" font-style="normal" font-weight="normal" font-size="200px" font-family="Arial" >
NH</text>
<text x="0" y="0" stroke="none" fill="#000000" transform="matrix(0.0666667 0 0 0.0666667 393.893 80.9171)" font-style="normal" font-weight="normal" font-size="150px" font-family="Arial" >
2</text>
<path stroke="none" fill="#000000" transform="matrix(0.0666667 0 0 0.0666667 -86.5333 -341.733)" d="M 6740.33,6080.69 L 6740.33,6073.76 L 6746.33,6070.29 L 6895.88,6156.64 L 6889.88,6167.03 L 6740.33,6080.69 Z " />
<text x="0" y="0" stroke="none" fill="#000000" transform="matrix(0.0666667 0 0 0.0666667 307.753 77.9838)" font-style="normal" font-weight="normal" font-size="200px" font-family="Arial" >
O</text>
<path stroke="none" fill="#000000" transform="matrix(0.0666667 0 0 0.0666667 -86.5333 -341.733)" d="M 6235.5,6070.29 L 6241.5,6073.76 L 6241.5,6080.69 L 6080.72,6173.51 L 6074.72,6163.12 L 6235.5,6070.29 Z " />
<path stroke="none" fill="#000000" transform="matrix(0.0666667 0 0 0.0666667 -86.5333 -341.733)" d="M 5986.09,6329.34 L 5998.08,6329.34 L 5998.08,6505.76 L 5986.09,6505.76 L 5986.09,6329.34 Z " />
<text x="0" y="0" stroke="none" fill="#000000" transform="matrix(0.0666667 0 0 0.0666667 375.003 39.5838)" font-style="normal" font-weight="normal" font-size="200px" font-family="Arial" >
S</text>
<path stroke="none" fill="#000000" transform="matrix(0.0666667 0 0 0.0666667 -86.5333 -341.733)" d="M 6746.33,5789.22 L 6740.33,5785.76 L 6740.33,5778.83 L 6896.07,5688.91 L 6902.07,5699.31 L 6746.33,5789.22 Z " />
<path stroke="none" fill="#000000" transform="matrix(0.0666667 0 0 0.0666667 -86.5333 -341.733)" d="M 7077.87,5699.57 L 7083.87,5689.17 L 7239.16,5778.83 L 7239.16,5792.69 L 7077.87,5699.57 Z " />
<path stroke="none" fill="#000000" transform="matrix(0.0666667 0 0 0.0666667 -86.5333 -341.733)" d="M 7239.16,5792.69 L 7239.16,5778.83 L 7485.58,5636.56 L 7491.58,5646.95 L 7239.16,5792.69 Z " />
<text x="0" y="0" stroke="none" fill="#000000" transform="matrix(0.0666667 0 0 0.0666667 364.664 22.9561)" font-style="normal" font-weight="normal" font-size="200px" font-family="Arial" >
O</text>
<path stroke="none" fill="#000000" transform="matrix(0.0666667 0 0 0.0666667 -86.5333 -341.733)" d="M 6923.19,5566.32 L 6912.8,5572.32 L 6874.57,5506.1 L 6884.96,5500.1 L 6923.19,5566.32 Z " />
<path stroke="none" fill="#000000" transform="matrix(0.0666667 0 0 0.0666667 -86.5333 -341.733)" d="M 6968.09,5540.4 L 6957.69,5546.4 L 6919.46,5480.18 L 6929.86,5474.18 L 6968.09,5540.4 Z " />
<text x="0" y="0" stroke="none" fill="#000000" transform="matrix(0.0666667 0 0 0.0666667 383.864 22.9561)" font-style="normal" font-weight="normal" font-size="200px" font-family="Arial" >
O</text>
<path stroke="none" fill="#000000" transform="matrix(0.0666667 0 0 0.0666667 -86.5333 -341.733)" d="M 7021.2,5547.44 L 7010.81,5541.44 L 7049.93,5473.68 L 7060.32,5479.68 L 7021.2,5547.44 Z " />
<path stroke="none" fill="#000000" transform="matrix(0.0666667 0 0 0.0666667 -86.5333 -341.733)" d="M 7066.09,5573.36 L 7055.7,5567.36 L 7094.82,5499.6 L 7105.21,5505.6 L 7066.09,5573.36 Z " />
<path stroke="none" fill="#000000" transform="matrix(0.0666667 0 0 0.0666667 -86.5333 -341.733)" d="M 6241.5,5778.83 L 6241.5,5785.76 L 6235.5,5789.22 L 5992.09,5648.69 L 5992.09,5634.83 L 6241.5,5778.83 Z " />
<text x="0" y="0" stroke="none" fill="#000000" transform="matrix(0.0666667 0 0 0.0666667 291.497 49.1838)" font-style="normal" font-weight="normal" font-size="200px" font-family="Arial" >
N</text>
<text x="0" y="0" stroke="none" fill="#000000" transform="matrix(0.0666667 0 0 0.0666667 291.497 60.306)" font-style="normal" font-weight="normal" font-size="200px" font-family="Arial" >
H</text>
<path stroke="none" fill="#000000" transform="matrix(0.0666667 0 0 0.0666667 -86.5333 -341.733)" d="M 5992.09,5634.83 L 5992.09,5648.69 L 5842.21,5735.22 L 5836.21,5724.82 L 5992.09,5634.83 Z " />
<text x="0" y="0" stroke="none" fill="#000000" transform="matrix(0.0666667 0 0 0.0666667 307.753 20.3838)" font-style="normal" font-weight="normal" font-size="200px" font-family="Arial" >
O</text>
<path stroke="none" fill="#000000" transform="matrix(0.0666667 0 0 0.0666667 -86.5333 -341.733)" d="M 5972.16,5656.72 L 5960.17,5656.72 L 5960.17,5465.34 L 5972.16,5465.34 L 5972.16,5656.72 Z " />
<path stroke="none" fill="#000000" transform="matrix(0.0666667 0 0 0.0666667 -86.5333 -341.733)" d="M 6024,5656.72 L 6012.01,5656.72 L 6012.01,5465.34 L 6024,5465.34 L 6024,5656.72 Z " />
<path stroke="none" fill="#000000" transform="matrix(0.0666667 0 0 0.0666667 -86.5333 -341.733)" d="M 5648.81,5724.64 L 5642.81,5735.03 L 5518.14,5663.05 L 5470.03,5621.42 L 5648.81,5724.64 Z " />
<text x="0" y="0" stroke="none" fill="#000000" transform="matrix(0.0666667 0 0 0.0666667 242.98 38.1131)" font-style="normal" font-weight="normal" font-size="200px" font-family="Arial" >
N</text>
<path stroke="none" fill="#000000" transform="matrix(0.0666667 0 0 0.0666667 -86.5333 -341.733)" d="M 4866.56,6068.88 L 4875.27,6056.88 L 5154.56,6056.88 L 5163.27,6068.88 L 4866.56,6068.88 Z " />
<path stroke="none" fill="#000000" transform="matrix(0.0666667 0 0 0.0666667 -86.5333 -341.733)" d="M 5163.27,6068.88 L 5154.56,6056.88 L 5240.86,5791.27 L 5247.91,5788.98 L 5252.84,5793.22 L 5163.27,6068.88 Z " />
<path stroke="none" fill="#000000" transform="matrix(0.0666667 0 0 0.0666667 -86.5333 -341.733)" d="M 5247.94,5781.58 L 5247.91,5788.98 L 5240.86,5791.27 L 5110.28,5696.4 L 5117.33,5686.69 L 5247.94,5781.58 Z " />
<path stroke="none" fill="#000000" transform="matrix(0.0666667 0 0 0.0666667 -86.5333 -341.733)" d="M 4912.22,5686.9 L 4919.27,5696.6 L 4788.97,5791.27 L 4774.87,5786.69 L 4912.22,5686.9 Z " />
<path stroke="none" fill="#000000" transform="matrix(0.0666667 0 0 0.0666667 -86.5333 -341.733)" d="M 4774.87,5786.69 L 4788.97,5791.27 L 4875.27,6056.88 L 4866.56,6068.88 L 4774.87,5786.69 Z " />
<path stroke="none" fill="#000000" transform="matrix(0.0666667 0 0 0.0666667 -86.5333 -341.733)" d="M 5252.84,5793.22 L 5247.91,5788.98 L 5247.94,5781.58 L 5470.03,5621.42 L 5518.14,5663.05 L 5252.84,5793.22 Z " />
<path stroke="none" fill="#000000" transform="matrix(0.0666667 0 0 0.0666667 -86.5333 -341.733)" d="M 5020.92,5525.11 L 5008.92,5525.11 L 5008.92,5335.16 L 5020.92,5328.23 L 5020.92,5525.11 Z " />
<path stroke="none" fill="#000000" transform="matrix(0.0666667 0 0 0.0666667 -86.5333 -341.733)" d="M 5020.92,5328.23 L 5008.92,5335.16 L 4762.5,5192.89 L 4768.5,5182.5 L 5020.92,5328.23 Z " />
<text x="0" y="0" stroke="none" fill="#808080" transform="matrix(0.0666667 0 0 0.0666667 26.9667 33.8)" font-style="italic" font-weight="normal" font-size="200px" font-family="Arial" >
(S)</text>
<text x="0" y="0" stroke="none" fill="#808080" transform="matrix(0.0666667 0 0 0.0666667 255.467 34.2)" font-style="italic" font-weight="normal" font-size="200px" font-family="Arial" >
(R)</text>
</svg>
