<?xml version="1.0" encoding="UTF-8"?>
<svg width="564pt" version="1.1" xmlns="http://www.w3.org/2000/svg" height="566.88pt" viewBox="0 0 564 566.88" xmlns:xlink="http://www.w3.org/1999/xlink">
 <defs>
  <clipPath id="Clip0">
   <path d="M0 0 L513.579 0 L513.579 564.959 L0 564.959 L0 0 Z" transform="translate(25.0907, 0.840353)"/>
  </clipPath>
 </defs>
 <g id="Background">
  <g id="Group1" clip-path="url(#Clip0)">
   <path style="fill:#000000; fill-rule:evenodd;stroke:none;" d="M0 44.6861 L0 0 L6.06586 0 L29.5368 35.0844 L29.5368 0 L35.2064 0 L35.2064 44.6861 L29.1405 44.6861 L5.6696 9.57124 L5.6696 44.6861 L0 44.6861 Z" transform="translate(421.708, 449.203)"/>
   <path style="fill:none;stroke:#000000; stroke-width:4.56194; stroke-linecap:round; stroke-linejoin:bevel; stroke-dasharray:none;" d="M0 58.5848 L0 0 " transform="translate(438.667, 504.934)"/>
   <path style="fill:none;stroke:#000000; stroke-width:4.56194; stroke-linecap:round; stroke-linejoin:bevel; stroke-dasharray:none;" d="M0 28.332 L48.9808 0 " transform="translate(467.959, 427.621)"/>
   <path style="fill:none;stroke:#000000; stroke-width:4.56194; stroke-linecap:round; stroke-linejoin:bevel; stroke-dasharray:none;" d="M48.7407 28.0919 L0 0 " transform="translate(360.153, 427.621)"/>
   <path style="fill:none;stroke:#000000; stroke-width:4.56194; stroke-linecap:round; stroke-linejoin:bevel; stroke-dasharray:none;" d="M0 90.5183 L0 0 " transform="translate(360.153, 337.103)"/>
   <path style="fill:none;stroke:#000000; stroke-width:4.56194; stroke-linecap:round; stroke-linejoin:bevel; stroke-dasharray:none;" d="M78.2733 45.1391 L0 0 " transform="translate(281.88, 291.964)"/>
   <path style="fill:none;stroke:#000000; stroke-width:4.56194; stroke-linecap:round; stroke-linejoin:bevel; stroke-dasharray:none;" d="M0 90.5183 L0 0 " transform="translate(281.88, 201.445)"/>
   <path style="fill:none;stroke:#000000; stroke-width:4.56194; stroke-linecap:round; stroke-linejoin:bevel; stroke-dasharray:none;" d="M0 74.9117 L0 0 " transform="translate(298.447, 210.089)"/>
   <path style="fill:none;stroke:#000000; stroke-width:4.56194; stroke-linecap:round; stroke-linejoin:bevel; stroke-dasharray:none;" d="M81.6347 39.1366 L0 0 " transform="translate(200.245, 162.309)"/>
   <path style="fill:none;stroke:#000000; stroke-width:4.56194; stroke-linecap:round; stroke-linejoin:bevel; stroke-dasharray:none;" d="M66.2682 0 L0 61.466 " transform="translate(133.977, 162.309)"/>
   <path style="fill:none;stroke:#000000; stroke-width:4.56194; stroke-linecap:round; stroke-linejoin:bevel; stroke-dasharray:none;" d="M56.1839 0 L0 52.1021 " transform="translate(127.734, 154.866)"/>
   <path style="fill:none;stroke:#000000; stroke-width:4.56194; stroke-linecap:round; stroke-linejoin:bevel; stroke-dasharray:none;" d="M86.4368 26.6513 L0 0 " transform="translate(47.5402, 197.123)"/>
   <path style="fill:none;stroke:#000000; stroke-width:4.56194; stroke-linecap:round; stroke-linejoin:bevel; stroke-dasharray:none;" d="M20.1686 88.3574 L0 0 " transform="translate(27.3716, 108.766)"/>
   <path style="fill:none;stroke:#000000; stroke-width:4.56194; stroke-linecap:round; stroke-linejoin:bevel; stroke-dasharray:none;" d="M17.0473 74.6716 L0 0 " transform="translate(45.1392, 111.887)"/>
   <path style="fill:none;stroke:#000000; stroke-width:4.56194; stroke-linecap:round; stroke-linejoin:bevel; stroke-dasharray:none;" d="M0 61.466 L66.2682 0 " transform="translate(27.3716, 47.3)"/>
   <path style="fill:none;stroke:#000000; stroke-width:4.56194; stroke-linecap:round; stroke-linejoin:bevel; stroke-dasharray:none;" d="M0 0 L86.6769 26.6513 " transform="translate(93.6398, 47.3)"/>
   <path style="fill:none;stroke:#000000; stroke-width:4.56194; stroke-linecap:round; stroke-linejoin:bevel; stroke-dasharray:none;" d="M0 0 L72.9911 22.5696 " transform="translate(95.5607, 65.3076)"/>
   <path style="fill:none;stroke:#000000; stroke-width:4.56194; stroke-linecap:round; stroke-linejoin:bevel; stroke-dasharray:none;" d="M19.9285 88.3574 L0 0 " transform="translate(180.317, 73.9513)"/>
   <path style="fill:none;stroke:#000000; stroke-width:4.56194; stroke-linecap:round; stroke-linejoin:bevel; stroke-dasharray:none;" d="M0 70.83 L56.424 0 " transform="translate(180.317, 3.12132)"/>
   <path style="fill:none;stroke:#000000; stroke-width:4.56194; stroke-linecap:round; stroke-linejoin:bevel; stroke-dasharray:none;" d="M0 0 L90.2784 0 " transform="translate(236.741, 3.12132)"/>
   <path style="fill:none;stroke:#000000; stroke-width:4.56194; stroke-linecap:round; stroke-linejoin:bevel; stroke-dasharray:none;" d="M0 0 L56.424 70.83 " transform="translate(327.019, 3.12132)"/>
   <path style="fill:none;stroke:#000000; stroke-width:4.56194; stroke-linecap:round; stroke-linejoin:bevel; stroke-dasharray:none;" d="M0 26.6513 L86.6769 0 " transform="translate(383.443, 47.3)"/>
   <path style="fill:none;stroke:#000000; stroke-width:4.56194; stroke-linecap:round; stroke-linejoin:bevel; stroke-dasharray:none;" d="M0 22.5696 L73.2312 0 " transform="translate(394.968, 65.3076)"/>
   <path style="fill:none;stroke:#000000; stroke-width:4.56194; stroke-linecap:round; stroke-linejoin:bevel; stroke-dasharray:none;" d="M0 0 L66.2682 61.466 " transform="translate(470.12, 47.3)"/>
   <path style="fill:none;stroke:#000000; stroke-width:4.56194; stroke-linecap:round; stroke-linejoin:bevel; stroke-dasharray:none;" d="M20.1686 0 L0 88.3574 " transform="translate(516.22, 108.766)"/>
   <path style="fill:none;stroke:#000000; stroke-width:4.56194; stroke-linecap:round; stroke-linejoin:bevel; stroke-dasharray:none;" d="M17.0473 0 L0 74.6716 " transform="translate(501.573, 111.887)"/>
   <path style="fill:none;stroke:#000000; stroke-width:4.56194; stroke-linecap:round; stroke-linejoin:bevel; stroke-dasharray:none;" d="M86.4368 0 L0 26.6513 " transform="translate(429.783, 197.123)"/>
   <path style="fill:none;stroke:#000000; stroke-width:4.56194; stroke-linecap:round; stroke-linejoin:bevel; stroke-dasharray:none;" d="M66.2682 61.466 L0 0 " transform="translate(363.515, 162.309)"/>
   <path style="fill:none;stroke:#000000; stroke-width:4.56194; stroke-linecap:round; stroke-linejoin:bevel; stroke-dasharray:none;" d="M56.1839 52.1021 L0 0 " transform="translate(379.842, 154.866)"/>
   <path style="fill:none;stroke:#000000; stroke-width:4.56194; stroke-linecap:round; stroke-linejoin:bevel; stroke-dasharray:none;" d="M0 39.1366 L81.6347 0 " transform="translate(281.88, 162.309)"/>
   <path style="fill:none;stroke:#000000; stroke-width:4.56194; stroke-linecap:round; stroke-linejoin:bevel; stroke-dasharray:none;" d="M19.9285 0 L0 88.3574 " transform="translate(363.515, 73.9513)"/>
  </g>
 </g>
</svg>
