<?xml version="1.0" encoding="iso-8859-1"?>
<!-- Generator: Adobe Illustrator 19.1.0, SVG Export Plug-In . SVG Version: 6.00 Build 0)  -->
<svg version="1.1" id="&#x421;&#x43B;&#x43E;&#x439;_1"
	 xmlns="http://www.w3.org/2000/svg" xmlns:xlink="http://www.w3.org/1999/xlink" x="0px" y="0px" viewBox="0 0 424.517 366.463"
	 style="enable-background:new 0 0 424.517 366.463;" xml:space="preserve" width="424.517" height="366.463">
<g>
	<rect x="166.325" y="219.737" width="33.964" height="2.4"/>
	<path d="M114.06,255.898l0.887-1.112l0,0l19.812-24.843l-1.876-1.497l-20.549,25.767l-54.259-16.737l-0.661-0.205l-0.509,0.473
		L14.68,276.923l-0.507,0.471l0.154,0.675l12.372,54.206h0l0.445,1.95l0.153,0.676l0.664,0.205l1.911,0.59v0l53.13,16.388
		l0.661,0.205l0.509-0.473l1.466-1.36l0,0l40.158-37.261l35.292,16.996l1.043-2.162l-35.51-17.101L114.06,255.898z M84.005,348.696
		l-0.958,0.889l-1.249-0.385l0,0L29.33,333.015l-12.218-53.53l-0.291-1.275l0.959-0.89l0,0l39.292-36.457l0.958-0.889l1.249,0.385
		l52.468,16.184l12.218,53.53h0l0.291,1.275L84.005,348.696z"/>
	<rect x="59.371" y="255.82" transform="matrix(0.9556 0.2948 -0.2948 0.9556 79.4093 -12.8058)" width="45.628" height="2.4"/>
	<rect x="9.2" y="302.373" transform="matrix(-0.2225 -0.9749 0.9749 -0.2225 -256.8248 402.3343)" width="45.628" height="2.4"/>
	<rect x="96.215" y="300.932" transform="matrix(-0.6806 -0.7326 0.7326 -0.6806 -73.4737 615.4631)" width="2.4" height="45.628"/>
	<rect x="234.721" y="322.547" transform="matrix(-0.733 -0.6802 0.6802 -0.733 226.1153 736.2374)" width="45.628" height="2.4"/>
	<rect x="321.736" y="280.759" transform="matrix(0.975 0.2221 -0.2221 0.975 75.4922 -64.1441)" width="2.4" height="45.628"/>
	
		<rect x="271.564" y="234.206" transform="matrix(-0.2947 -0.9556 0.9556 -0.2947 107.5477 593.4182)" width="2.4" height="45.628"/>
	<polygon points="320.089,110.802 291.982,159.485 290.675,159.485 252.725,159.485 252.725,161.885 290.675,161.885 
		292.675,161.885 293.367,161.887 293.714,161.285 294.714,159.553 294.714,159.553 321.514,113.134 322.514,111.402 
		322.86,110.802 322.514,110.203 304.78,79.485 302.701,80.684 	"/>
	<polygon points="222.429,141.182 224.508,139.983 207.66,110.802 235.114,63.251 235.768,62.119 237.075,62.119 275.025,62.119 
		275.025,59.719 237.075,59.719 235.075,59.719 234.382,59.718 234.035,60.32 233.035,62.052 233.035,62.052 205.235,110.203 
		204.889,110.802 205.235,111.402 	"/>
	<path d="M339.761,276.451l-41.716-38.706l-0.507-0.472l-0.664,0.205l-54.259,16.737l-34.893-43.754l0.591-1.024l16.735-28.986
		l-2.079-1.199l-17.388,30.117h-1.307h-37.95v2.4h37.95h1.422l35.192,44.13l-12.56,55.029l-1.282,0.617v0l-32.031,15.425
		l1.043,2.162l32.031-15.425v0l1.064-0.512l0.866,0.803l0,0l40.758,37.818l0.507,0.472l0.664-0.205l53.13-16.388v0l1.911-0.59
		l0.662-0.203l0.154-0.677l0.445-1.95h0l12.218-53.53l1.249-0.385l32.112-9.905l-0.707-2.293L339.761,276.451z M337.838,279.485
		l-12.218,53.53L273.152,349.2v0l-1.249,0.385l-40.249-37.346l-0.959-0.89l12.509-54.805l1.249-0.385l52.468-16.184l0.958,0.889
		l40.251,37.347L337.838,279.485z"/>
	<polygon points="140.901,202.141 141.077,202.141 156.507,224.192 159.925,224.192 159.925,196.008 156.448,196.008 
		156.448,218.137 156.272,218.137 140.843,196.008 137.425,196.008 137.425,224.192 140.901,224.192 	"/>
	<path d="M177.475,321.955c-7.988,0-12.988,5.625-12.988,14.57c0,8.945,5,14.551,12.988,14.551c7.988,0,12.988-5.605,12.988-14.551
		C190.463,327.58,185.463,321.955,177.475,321.955z M177.475,347.833c-5.762,0-9.375-4.375-9.375-11.309
		c0-6.953,3.613-11.328,9.375-11.328c5.762,0,9.375,4.375,9.375,11.328C186.85,343.458,183.236,347.833,177.475,347.833z"/>
	<polygon points="242.672,168.254 227.243,146.125 223.825,146.125 223.825,174.308 227.301,174.308 227.301,152.258 
		227.477,152.258 242.907,174.308 246.325,174.308 246.325,146.125 242.848,146.125 242.848,168.254 	"/>
	<polygon points="284.901,52.492 285.077,52.492 300.507,74.542 303.925,74.542 303.925,46.359 300.448,46.359 300.448,68.488 
		300.272,68.488 284.843,46.359 281.425,46.359 281.425,74.542 284.901,74.542 	"/>
	<polygon points="284.94,29.527 300.409,29.527 300.409,42.359 303.925,42.359 303.925,14.175 300.409,14.175 300.409,26.363 
		284.94,26.363 284.94,14.175 281.425,14.175 281.425,42.359 284.94,42.359 	"/>
	<path d="M391.339,249.652c4.023,0,7.246,2.422,8.145,6.113h3.555c-0.898-5.625-5.566-9.355-11.699-9.355
		c-7.715,0-12.695,5.703-12.695,14.551c0,8.926,4.922,14.57,12.695,14.57c6.23,0,10.41-3.105,11.699-8.672h-3.555
		c-1.016,3.438-3.984,5.43-8.125,5.43c-5.566,0-9.102-4.414-9.102-11.328C382.257,254.105,385.832,249.652,391.339,249.652z"/>
	<rect x="406.945" y="245.648" width="3.398" height="29.414"/>
</g>
</svg>
