<?xml version="1.0" standalone="no" ?>
<!DOCTYPE svg PUBLIC "-//W3C//DTD SVG 1.1//EN" "http://www.w3.org/Graphics/SVG/1.1/DTD/svg11.dtd">
<svg width="410px" height="195px" viewBox="0 0 82 39" style="" xmlns="http://www.w3.org/2000/svg" xmlns:xlink="http://www.w3.org/1999/xlink" version="1.1" >
<text x="0" y="0" stroke="transparent" fill="#000000" transform="matrix(0.05 0 0 0.05 61.36 11.1587)" style="font:normal normal normal 200px 'Arial'" >
NH</text>
<text x="0" y="0" stroke="transparent" fill="#000000" transform="matrix(0.05 0 0 0.05 75.8033 12.7699)" style="font:normal normal normal 150px 'Arial'" >
2</text>
<path stroke="transparent" fill="#000000" transform="matrix(0.05 0 0 0.05 -460 -276)" d="M 9246.34,5814.27 L 9258.34,5821.19 L 9258.34,6102.27 L 9246.34,6109.19 L 9246.34,5814.27 Z " />
<path stroke="transparent" fill="#000000" transform="matrix(0.05 0 0 0.05 -460 -276)" d="M 9298.18,5847.66 L 9310.18,5847.66 L 9310.18,6075.8 L 9298.18,6075.8 L 9298.18,5847.66 Z " />
<path stroke="transparent" fill="#000000" transform="matrix(0.05 0 0 0.05 -460 -276)" d="M 9501.76,5666.8 L 9501.76,5680.66 L 9258.34,5821.19 L 9246.34,5814.27 L 9501.76,5666.8 Z " />
<path stroke="transparent" fill="#000000" transform="matrix(0.05 0 0 0.05 -460 -276)" d="M 9751.17,5810.8 L 9751.17,5817.73 L 9745.17,5821.19 L 9501.76,5680.66 L 9501.76,5666.8 L 9751.17,5810.8 Z " />
<path stroke="transparent" fill="#000000" transform="matrix(0.05 0 0 0.05 -460 -276)" d="M 9702.33,5842.46 L 9696.33,5852.86 L 9498.76,5738.79 L 9504.76,5728.39 L 9702.33,5842.46 Z " />
<path stroke="transparent" fill="#000000" transform="matrix(0.05 0 0 0.05 -460 -276)" d="M 9757.17,6109.19 L 9745.17,6102.27 L 9745.17,5821.19 L 9751.17,5817.73 L 9757.17,5821.19 L 9757.17,6109.19 Z " />
<path stroke="transparent" fill="#000000" transform="matrix(0.05 0 0 0.05 -460 -276)" d="M 9501.76,6256.66 L 9501.76,6242.8 L 9745.17,6102.27 L 9757.17,6109.19 L 9501.76,6256.66 Z " />
<path stroke="transparent" fill="#000000" transform="matrix(0.05 0 0 0.05 -460 -276)" d="M 9504.76,6195.07 L 9498.76,6184.67 L 9696.33,6070.6 L 9702.33,6081 L 9504.76,6195.07 Z " />
<path stroke="transparent" fill="#000000" transform="matrix(0.05 0 0 0.05 -460 -276)" d="M 9501.76,6242.8 L 9501.76,6256.66 L 9246.34,6109.19 L 9258.34,6102.27 L 9501.76,6242.8 Z " />
<path stroke="transparent" fill="#000000" transform="matrix(0.05 0 0 0.05 -460 -276)" d="M 10000.6,5666.8 L 10000.6,5680.66 L 9757.17,5821.19 L 9751.17,5817.73 L 9751.17,5810.8 L 10000.6,5666.8 Z " />
<path stroke="transparent" fill="#000000" transform="matrix(0.05 0 0 0.05 -460 -276)" d="M 10250,5810.8 L 10250,5817.73 L 10243.7,5821.04 L 10000.6,5680.66 L 10000.6,5666.8 L 10250,5810.8 Z " />
<path stroke="transparent" fill="#000000" transform="matrix(0.05 0 0 0.05 -460 -276)" d="M 10395.8,5726.65 L 10401.8,5737.04 L 10256.3,5821.04 L 10250,5817.73 L 10250,5810.8 L 10395.8,5726.65 Z " />
<path stroke="transparent" fill="#000000" transform="matrix(0.05 0 0 0.05 -460 -276)" d="M 10280,6105.73 L 10220,6105.73 L 10243.7,5821.04 L 10250,5817.73 L 10256.3,5821.04 L 10280,6105.73 Z " />
</svg>
