<?xml version="1.0" standalone="no" ?>
<!DOCTYPE svg PUBLIC "-//W3C//DTD SVG 1.1//EN" "http://www.w3.org/Graphics/SVG/1.1/DTD/svg11.dtd">
<svg width="83px" height="39px" viewBox="0 0 83 39" style="" xmlns="http://www.w3.org/2000/svg" xmlns:xlink="http://www.w3.org/1999/xlink" version="1.1" >
<text x="0" y="0" stroke="transparent" fill="#000000" transform="matrix(0.05 0 0 0.05 61.4582 10.9334)" style="font:normal normal normal 200px 'Arial'" >
NH</text>
<text x="0" y="0" stroke="transparent" fill="#000000" transform="matrix(0.05 0 0 0.05 75.9016 12.5445)" style="font:normal normal normal 150px 'Arial'" >
2</text>
<path stroke="transparent" fill="#000000" transform="matrix(0.05 0 0 0.05 -460 -288)" d="M 10246,6056.69 L 10252,6053.22 L 10258,6056.69 L 10258,6341.22 L 10246,6341.22 L 10246,6056.69 Z " />
<path stroke="transparent" fill="#000000" transform="matrix(0.05 0 0 0.05 -460 -288)" d="M 10397.7,5962.14 L 10403.7,5972.53 L 10258,6056.69 L 10252,6053.22 L 10252,6046.3 L 10397.7,5962.14 Z " />
<path stroke="transparent" fill="#000000" transform="matrix(0.05 0 0 0.05 -460 -288)" d="M 10002.6,5916.15 L 10002.6,5902.3 L 10252,6046.3 L 10252,6053.22 L 10246,6056.69 L 10002.6,5916.15 Z " />
<path stroke="transparent" fill="#000000" transform="matrix(0.05 0 0 0.05 -460 -288)" d="M 9759.14,6056.69 L 9753.14,6053.22 L 9753.14,6046.3 L 10002.6,5902.3 L 10002.6,5916.15 L 9759.14,6056.69 Z " />
<path stroke="transparent" fill="#000000" transform="matrix(0.05 0 0 0.05 -460 -288)" d="M 9759.14,6344.69 L 9747.14,6337.76 L 9747.14,6056.69 L 9753.14,6053.22 L 9759.14,6056.69 L 9759.14,6344.69 Z " />
<path stroke="transparent" fill="#000000" transform="matrix(0.05 0 0 0.05 -460 -288)" d="M 9503.72,6492.15 L 9503.72,6478.3 L 9747.14,6337.76 L 9759.14,6344.69 L 9503.72,6492.15 Z " />
<path stroke="transparent" fill="#000000" transform="matrix(0.05 0 0 0.05 -460 -288)" d="M 9506.72,6430.56 L 9500.72,6420.17 L 9698.3,6306.1 L 9704.3,6316.49 L 9506.72,6430.56 Z " />
<path stroke="transparent" fill="#000000" transform="matrix(0.05 0 0 0.05 -460 -288)" d="M 9248.31,6344.69 L 9260.31,6337.76 L 9503.72,6478.3 L 9503.72,6492.15 L 9248.31,6344.69 Z " />
<path stroke="transparent" fill="#000000" transform="matrix(0.05 0 0 0.05 -460 -288)" d="M 9248.31,6049.76 L 9260.31,6056.69 L 9260.31,6337.76 L 9248.31,6344.69 L 9248.31,6049.76 Z " />
<path stroke="transparent" fill="#000000" transform="matrix(0.05 0 0 0.05 -460 -288)" d="M 9300.15,6083.15 L 9312.15,6083.15 L 9312.15,6311.29 L 9300.15,6311.29 L 9300.15,6083.15 Z " />
<path stroke="transparent" fill="#000000" transform="matrix(0.05 0 0 0.05 -460 -288)" d="M 9503.72,5902.3 L 9503.72,5916.15 L 9260.31,6056.69 L 9248.31,6049.76 L 9503.72,5902.3 Z " />
<path stroke="transparent" fill="#000000" transform="matrix(0.05 0 0 0.05 -460 -288)" d="M 9503.72,5916.15 L 9503.72,5902.3 L 9753.14,6046.3 L 9753.14,6053.22 L 9747.14,6056.69 L 9503.72,5916.15 Z " />
<path stroke="transparent" fill="#000000" transform="matrix(0.05 0 0 0.05 -460 -288)" d="M 9500.72,5974.28 L 9506.72,5963.89 L 9704.3,6077.96 L 9698.3,6088.35 L 9500.72,5974.28 Z " />
</svg>
