<?xml version="1.0" standalone="no" ?>
<!DOCTYPE svg PUBLIC "-//W3C//DTD SVG 1.1//EN" "http://www.w3.org/Graphics/SVG/1.1/DTD/svg11.dtd">
<svg width="1145px" height="350px" viewBox="0 0 229 70" style="" xmlns="http://www.w3.org/2000/svg" xmlns:xlink="http://www.w3.org/1999/xlink" version="1.1" >
<text x="0" y="0" stroke="transparent" fill="#000000" transform="matrix(0.05 0 0 0.05 2.27686 41.4671)" style="font:normal normal normal 200px 'Arial'" >
Cl</text>
<text x="0" y="0" stroke="transparent" fill="#000000" transform="matrix(0.05 0 0 0.05 31.9401 27.0671)" style="font:normal normal normal 200px 'Arial'" >
Cl</text>
<text x="0" y="0" stroke="transparent" fill="#000000" transform="matrix(0.05 0 0 0.05 194.06 11.3254)" style="font:normal normal normal 200px 'Arial'" >
H</text>
<text x="0" y="0" stroke="transparent" fill="#000000" transform="matrix(0.05 0 0 0.05 194.06 19.8671)" style="font:normal normal normal 200px 'Arial'" >
N</text>
<text x="0" y="0" stroke="transparent" fill="#000000" transform="matrix(0.05 0 0 0.05 81.8231 27.0671)" style="font:normal normal normal 200px 'Arial'" >
N</text>
<text x="0" y="0" stroke="transparent" fill="#000000" transform="matrix(0.05 0 0 0.05 56.8816 41.4671)" style="font:normal normal normal 200px 'Arial'" >
N</text>
<text x="0" y="0" stroke="transparent" fill="#000000" transform="matrix(0.05 0 0 0.05 218.723 19.8671)" style="font:normal normal normal 200px 'Arial'" >
O</text>
<text x="0" y="0" stroke="transparent" fill="#000000" transform="matrix(0.05 0 0 0.05 143.899 19.8671)" style="font:normal normal normal 200px 'Arial'" >
O</text>
<path stroke="transparent" fill="#000000" transform="matrix(0.05 0 0 0.05 -371 -227)" d="M 9627.51,5018.83 L 9627.51,5004.97 L 9876.92,4860.97 L 9876.92,4874.83 L 9627.51,5018.83 Z " />
<path stroke="transparent" fill="#000000" transform="matrix(0.05 0 0 0.05 -371 -227)" d="M 8131.02,5868.97 L 8131.02,5882.82 L 7875.6,5735.36 L 7887.6,5728.43 L 8131.02,5868.97 Z " />
<path stroke="transparent" fill="#000000" transform="matrix(0.05 0 0 0.05 -371 -227)" d="M 8131.02,5882.82 L 8131.02,5868.97 L 8374.43,5728.43 L 8386.43,5735.36 L 8131.02,5882.82 Z " />
<path stroke="transparent" fill="#000000" transform="matrix(0.05 0 0 0.05 -371 -227)" d="M 8134.02,5821.23 L 8128.02,5810.84 L 8325.59,5696.77 L 8331.59,5707.16 L 8134.02,5821.23 Z " />
<path stroke="transparent" fill="#000000" transform="matrix(0.05 0 0 0.05 -371 -227)" d="M 10874.6,5436.97 L 10874.6,5450.83 L 10619.2,5303.36 L 10631.2,5296.43 L 10874.6,5436.97 Z " />
<path stroke="transparent" fill="#000000" transform="matrix(0.05 0 0 0.05 -371 -227)" d="M 10877.6,5378.84 L 10871.6,5389.23 L 10674,5275.16 L 10680,5264.77 L 10877.6,5378.84 Z " />
<path stroke="transparent" fill="#000000" transform="matrix(0.05 0 0 0.05 -371 -227)" d="M 11373.4,5450.83 L 11373.4,5436.97 L 11616.8,5296.43 L 11628.8,5303.36 L 11373.4,5450.83 Z " />
<path stroke="transparent" fill="#000000" transform="matrix(0.05 0 0 0.05 -371 -227)" d="M 9627.51,5004.97 L 9627.51,5018.83 L 9378.09,4874.83 L 9378.09,4860.97 L 9627.51,5004.97 Z " />
<path stroke="transparent" fill="#000000" transform="matrix(0.05 0 0 0.05 -371 -227)" d="M 9122.68,5296.43 L 9134.68,5303.36 L 8879.26,5450.83 L 8879.26,5436.97 L 9122.68,5296.43 Z " />
<path stroke="transparent" fill="#000000" transform="matrix(0.05 0 0 0.05 -371 -227)" d="M 8879.26,4860.97 L 8879.26,4874.83 L 8635.85,5015.36 L 8623.85,5008.43 L 8879.26,4860.97 Z " />
<path stroke="transparent" fill="#000000" transform="matrix(0.05 0 0 0.05 -371 -227)" d="M 9876.92,4874.83 L 9876.92,4860.97 L 10126.3,5004.97 L 10126.3,5018.83 L 9876.92,4874.83 Z " />
<path stroke="transparent" fill="#000000" transform="matrix(0.05 0 0 0.05 -371 -227)" d="M 10874.6,5450.83 L 10874.6,5436.97 L 11118,5296.43 L 11124,5299.9 L 11124,5306.83 L 10874.6,5450.83 Z " />
<path stroke="transparent" fill="#000000" transform="matrix(0.05 0 0 0.05 -371 -227)" d="M 11373.4,5436.97 L 11373.4,5450.83 L 11124,5306.83 L 11124,5299.9 L 11130,5296.43 L 11373.4,5436.97 Z " />
<path stroke="transparent" fill="#000000" transform="matrix(0.05 0 0 0.05 -371 -227)" d="M 10631.2,5296.43 L 10619.2,5303.36 L 10619.2,5015.36 L 10625.2,5011.9 L 10631.2,5015.36 L 10631.2,5296.43 Z " />
<path stroke="transparent" fill="#000000" transform="matrix(0.05 0 0 0.05 -371 -227)" d="M 10874.6,4860.97 L 10874.6,4874.83 L 10631.2,5015.36 L 10625.2,5011.9 L 10625.2,5004.97 L 10874.6,4860.97 Z " />
<path stroke="transparent" fill="#000000" transform="matrix(0.05 0 0 0.05 -371 -227)" d="M 10871.6,4922.56 L 10877.6,4932.95 L 10680,5047.02 L 10674,5036.63 L 10871.6,4922.56 Z " />
<path stroke="transparent" fill="#000000" transform="matrix(0.05 0 0 0.05 -371 -227)" d="M 7887.6,5728.43 L 7875.6,5735.36 L 7875.6,5447.36 L 7881.6,5443.9 L 7887.6,5447.36 L 7887.6,5728.43 Z " />
<path stroke="transparent" fill="#000000" transform="matrix(0.05 0 0 0.05 -371 -227)" d="M 7939.44,5701.97 L 7927.44,5701.97 L 7927.44,5473.83 L 7939.44,5473.83 L 7939.44,5701.97 Z " />
<path stroke="transparent" fill="#000000" transform="matrix(0.05 0 0 0.05 -371 -227)" d="M 10874.6,4874.83 L 10874.6,4860.97 L 11124,5004.97 L 11124,5011.9 L 11118,5015.36 L 10874.6,4874.83 Z " />
<path stroke="transparent" fill="#000000" transform="matrix(0.05 0 0 0.05 -371 -227)" d="M 11130,5296.43 L 11124,5299.9 L 11118,5296.43 L 11118,5015.36 L 11124,5011.9 L 11130,5015.36 L 11130,5296.43 Z " />
<path stroke="transparent" fill="#000000" transform="matrix(0.05 0 0 0.05 -371 -227)" d="M 11078.2,5269.97 L 11066.2,5269.97 L 11066.2,5041.83 L 11078.2,5041.83 L 11078.2,5269.97 Z " />
<path stroke="transparent" fill="#000000" transform="matrix(0.05 0 0 0.05 -371 -227)" d="M 8386.43,5735.36 L 8374.43,5728.43 L 8374.43,5447.36 L 8380.43,5443.9 L 8386.43,5447.36 L 8386.43,5735.36 Z " />
<path stroke="transparent" fill="#000000" transform="matrix(0.05 0 0 0.05 -371 -227)" d="M 11628.8,5303.36 L 11616.8,5296.43 L 11616.8,5015.36 L 11628.8,5008.43 L 11628.8,5303.36 Z " />
<path stroke="transparent" fill="#000000" transform="matrix(0.05 0 0 0.05 -371 -227)" d="M 7887.6,5447.36 L 7881.6,5443.9 L 7881.6,5436.97 L 8125.02,5296.43 L 8131.02,5299.9 L 8131.02,5306.83 L 7887.6,5447.36 Z " />
<path stroke="transparent" fill="#000000" transform="matrix(0.05 0 0 0.05 -371 -227)" d="M 8380.43,5436.97 L 8380.43,5443.9 L 8374.43,5447.36 L 8131.02,5306.83 L 8131.02,5299.9 L 8137.02,5296.43 L 8380.43,5436.97 Z " />
<path stroke="transparent" fill="#000000" transform="matrix(0.05 0 0 0.05 -371 -227)" d="M 8331.59,5468.63 L 8325.59,5479.02 L 8128.02,5364.95 L 8134.02,5354.56 L 8331.59,5468.63 Z " />
<path stroke="transparent" fill="#000000" transform="matrix(0.05 0 0 0.05 -371 -227)" d="M 7881.6,5436.97 L 7881.6,5443.9 L 7875.6,5447.36 L 7684.21,5336.86 L 7690.21,5326.47 L 7881.6,5436.97 Z " />
<path stroke="transparent" fill="#000000" transform="matrix(0.05 0 0 0.05 -371 -227)" d="M 8137.02,5296.43 L 8131.02,5299.9 L 8125.02,5296.43 L 8125.02,5115.51 L 8137.02,5115.51 L 8137.02,5296.43 Z " />
<path stroke="transparent" fill="#000000" transform="matrix(0.05 0 0 0.05 -371 -227)" d="M 11130,5015.36 L 11124,5011.9 L 11124,5004.97 L 11269.7,4920.85 L 11275.7,4931.25 L 11130,5015.36 Z " />
<path stroke="transparent" fill="#000000" transform="matrix(0.05 0 0 0.05 -371 -227)" d="M 11628.8,5008.43 L 11616.8,5015.36 L 11469.7,4930.44 L 11475.7,4920.05 L 11628.8,5008.43 Z " />
<path stroke="transparent" fill="#000000" transform="matrix(0.05 0 0 0.05 -371 -227)" d="M 9378.09,4860.97 L 9378.09,4874.83 L 9233.01,4958.59 L 9227.01,4948.2 L 9378.09,4860.97 Z " />
<path stroke="transparent" fill="#000000" transform="matrix(0.05 0 0 0.05 -371 -227)" d="M 9134.68,5303.36 L 9122.68,5296.43 L 9122.68,5112.51 L 9134.68,5112.51 L 9134.68,5303.36 Z " />
<path stroke="transparent" fill="#000000" transform="matrix(0.05 0 0 0.05 -371 -227)" d="M 8879.26,4874.83 L 8879.26,4860.97 L 9028.53,4947.15 L 9022.53,4957.54 L 8879.26,4874.83 Z " />
<path stroke="transparent" fill="#000000" transform="matrix(0.05 0 0 0.05 -371 -227)" d="M 8879.26,5436.97 L 8879.26,5450.83 L 8726.11,5362.4 L 8732.11,5352.01 L 8879.26,5436.97 Z " />
<path stroke="transparent" fill="#000000" transform="matrix(0.05 0 0 0.05 -371 -227)" d="M 8623.85,5008.43 L 8635.85,5015.36 L 8635.85,5193.51 L 8623.85,5193.51 L 8623.85,5008.43 Z " />
<path stroke="transparent" fill="#000000" transform="matrix(0.05 0 0 0.05 -371 -227)" d="M 8386.43,5447.36 L 8380.43,5443.9 L 8380.43,5436.97 L 8526.2,5352.81 L 8532.2,5363.2 L 8386.43,5447.36 Z " />
<path stroke="transparent" fill="#000000" transform="matrix(0.05 0 0 0.05 -371 -227)" d="M 11625.8,5047.02 L 11619.8,5036.63 L 11793.3,4936.51 L 11799.3,4946.9 L 11625.8,5047.02 Z " />
<path stroke="transparent" fill="#000000" transform="matrix(0.05 0 0 0.05 -371 -227)" d="M 11599.9,5002.13 L 11593.9,4991.74 L 11767.3,4891.61 L 11773.3,4902 L 11599.9,5002.13 Z " />
<path stroke="transparent" fill="#000000" transform="matrix(0.05 0 0 0.05 -371 -227)" d="M 10126.3,5018.83 L 10126.3,5004.97 L 10283.8,4914.06 L 10289.8,4924.45 L 10126.3,5018.83 Z " />
<path stroke="transparent" fill="#000000" transform="matrix(0.05 0 0 0.05 -371 -227)" d="M 10625.2,5004.97 L 10625.2,5011.9 L 10619.2,5015.36 L 10461.5,4924.34 L 10467.5,4913.95 L 10625.2,5004.97 Z " />
</svg>
