<?xml version="1.0" encoding="utf-8"?>
<!-- Generator: Adobe Illustrator 19.2.1, SVG Export Plug-In . SVG Version: 6.00 Build 0)  -->
<svg version="1.1" id="Слой_1" xmlns="http://www.w3.org/2000/svg" xmlns:xlink="http://www.w3.org/1999/xlink" x="0px" y="0px"
	 viewBox="0 0 433.6 319" style="enable-background:new 0 0 433.6 319;" xml:space="preserve" width="433.6" height="319">
<g>
	<rect x="24.5" y="50.3" width="2.4" height="45.6"/>
	<rect x="83.7" y="16.1" transform="matrix(0.5 -0.866 0.866 0.5 8.7789 93.0211)" width="2.4" height="45.6"/>
	<rect x="62.2" y="106.2" transform="matrix(0.8663 -0.4996 0.4996 0.8663 -42.2789 56.821)" width="45.6" height="2.4"/>
	<rect x="183.5" y="188.9" transform="matrix(0.5 -0.866 0.866 0.5 -90.9575 265.8161)" width="2.4" height="45.6"/>
	<rect x="162" y="279" transform="matrix(0.8663 -0.4996 0.4996 0.8663 -115.2514 129.7883)" width="45.6" height="2.4"/>
	<rect x="124.3" y="223.1" width="2.4" height="45.6"/>
	<rect x="218.9" y="63.2" width="2.4" height="18.8"/>
	<rect x="208.5" y="63.2" width="2.4" height="18.8"/>
	<polygon points="262,121.6 255.5,132.9 257.4,134.4 264.2,122.5 	"/>
	<polygon points="232.8,114.5 234.7,116.1 237,112.1 234.8,111.2 	"/>
	<polygon points="247.9,126.8 249.8,128.3 255.2,119 252.9,118.2 	"/>
	<polygon points="240.4,120.6 242.3,122.2 246.1,115.5 243.8,114.7 	"/>
	<polygon points="321.1,63.2 318.7,63.2 318.7,102.9 315.3,100.9 314.7,100.6 314.1,100.9 312.3,101.9 310.7,102.9 310.7,63.2 
		308.3,63.2 308.3,104.3 264.2,129.7 265.4,131.8 313.5,104 314.7,103.3 315.8,104 347.2,122.1 348.4,120 321.1,104.3 	"/>
	<polygon points="207.3,159.6 222.5,159.6 216.1,121.4 213.7,121.4 	"/>
	<path d="M166.2,187.6v-56.2l33.2-19.2l-1.2-2.1L165,129.4l-48.7-28.1V46.4v-2v-0.7l-0.6-0.3l-1.7-1L67.6,15.5l-1.7-1l-0.6-0.3
		l-0.6,0.3l-1.7,1L14.8,43.3l-0.6,0.3v0.7v55.6v2v0.7l0.6,0.3l1.7,1.1l46.4,26.8l1.7,1l0.6,0.3l0.6-0.3l49.3-28.5l48.7,28.1v56.2
		l-49.3,28.5l-0.6,0.3v0.7v55.6v2v0.7l0.6,0.3l49.9,28.8l0.6,0.3l0.6-0.3l1.7-1l48.2-27.8l0.6-0.3v-0.7v-55.6v-2v-0.7l-0.6-0.3
		L166.2,187.6z M113.8,46.4v54.9l-48.7,28.1l-1.1-0.7l-46.4-26.8l-1.1-0.7V46.3V45l47.6-27.4l1.1-0.7l1.1,0.7l46.4,26.8l1.1,0.7
		V46.4z M213.7,219v53.8v1.3l-1.1,0.7L165,302.2l-47.6-27.5l-1.1-0.7v-54.9v-1.3l1.1-0.7l47.6-27.5l48.7,28.1V219z"/>
	<path d="M215.2,113.1c-4,0-6.9-2-7.2-5.1h-3.5c0.3,5,4.5,8.2,10.4,8.2c6.5,0,10.5-3.2,10.5-8.4c0-4-2.4-6.3-8.2-7.8l-2.9-0.8
		c-3.8-1-5.4-2.3-5.4-4.4c0-2.8,2.5-4.6,6.2-4.6c3.7,0,6.1,1.9,6.4,4.9h3.5c-0.2-4.7-4.2-8-9.8-8c-5.9,0-10,3.3-10,8
		c0,3.8,2.3,6.1,7.5,7.4l3.6,0.9c3.8,1,5.4,2.4,5.4,4.8C221.8,111.1,219,113.1,215.2,113.1z"/>
	<path d="M214.9,29.6c-8,0-13,5.6-13,14.6c0,8.9,5,14.6,13,14.6s13-5.6,13-14.6S222.9,29.6,214.9,29.6z M214.9,55.4
		c-5.8,0-9.4-4.4-9.4-11.3c0-7,3.6-11.3,9.4-11.3s9.4,4.4,9.4,11.3C224.3,51.1,220.7,55.4,214.9,55.4z"/>
	<polygon points="372.3,138.3 372.2,138.3 356.7,116.2 353.3,116.2 353.3,144.4 356.8,144.4 356.8,122.3 357,122.3 372.4,144.4 
		375.8,144.4 375.8,116.2 372.3,116.2 	"/>
	<polygon points="398.8,128.4 383.3,128.4 383.3,116.2 379.8,116.2 379.8,144.4 383.3,144.4 383.3,131.5 398.8,131.5 398.8,144.4 
		402.3,144.4 402.3,116.2 398.8,116.2 	"/>
	<path d="M409.8,148.4l5-5.2c3.3-3.4,4.3-5,4.3-7.2c0-3-2.8-5.4-6.3-5.4c-3.7,0-6.5,2.6-6.5,6h2.4c0-2.2,1.7-3.9,4.1-3.9
		c2.2,0,3.9,1.5,3.9,3.4c0,1.6-0.6,2.7-3.3,5.5l-6.9,7.3v1.7h13v-2.2H409.8z"/>
	<path d="M314.7,58.7c8,0,13-5.6,13-14.6c0-8.9-5-14.6-13-14.6s-13,5.6-13,14.6S306.7,58.7,314.7,58.7z M314.7,32.8
		c5.8,0,9.4,4.4,9.4,11.3s-3.6,11.3-9.4,11.3s-9.4-4.4-9.4-11.3C305.3,37.2,308.9,32.8,314.7,32.8z"/>
	<circle cx="206.9" cy="169.6" r="4"/>
	<circle cx="222.9" cy="169.6" r="4"/>
</g>
</svg>
