<?xml version="1.0" encoding="UTF-8"?>
<!-- Converted by misc2svg (http://www.network-science.de/tools/misc2svg/) -->
<svg xmlns="http://www.w3.org/2000/svg" xmlns:xlink="http://www.w3.org/1999/xlink" width="760pt" height="275pt" viewBox="0 0 760 275" version="1.1">
<defs>
<clipPath id="clip1">
  <path d="M 0 275 L 760 275 L 760 0 L 0 0 L 0 275 Z M 0 275 "/>
</clipPath>
</defs>
<g id="misc2svg">
<g clip-path="url(#clip1)" clip-rule="nonzero">
<path style=" stroke:none;fill-rule:nonzero;fill:rgb(0%,0%,0%);fill-opacity:1;" d="M 540.445312 18.59375 C 540.445312 15.039062 541.402344 12.257812 543.316406 10.234375 C 545.230469 8.21875 547.703125 7.207031 550.738281 7.207031 C 552.714844 7.207031 554.5 7.6875 556.089844 8.632812 C 557.691406 9.570312 558.90625 10.894531 559.742188 12.597656 C 560.570312 14.292969 560.992188 16.210938 560.992188 18.359375 C 560.992188 20.539062 560.546875 22.480469 559.664062 24.199219 C 558.789062 25.917969 557.546875 27.222656 555.933594 28.105469 C 554.316406 28.992188 552.578125 29.433594 550.71875 29.433594 C 548.695312 29.433594 546.890625 28.945312 545.289062 27.96875 C 543.695312 26.992188 542.496094 25.660156 541.675781 23.964844 C 540.855469 22.273438 540.445312 20.484375 540.445312 18.59375 Z M 543.375 18.652344 C 543.375 21.230469 544.070312 23.273438 545.464844 24.765625 C 546.855469 26.25 548.601562 26.992188 550.699219 26.992188 C 552.847656 26.992188 554.609375 26.246094 555.992188 24.746094 C 557.367188 23.238281 558.0625 21.101562 558.0625 18.339844 C 558.0625 16.597656 557.757812 15.074219 557.164062 13.769531 C 556.578125 12.457031 555.710938 11.441406 554.566406 10.722656 C 553.433594 10.007812 552.164062 9.648438 550.757812 9.648438 C 548.734375 9.648438 547 10.34375 545.542969 11.71875 C 544.097656 13.101562 543.375 15.410156 543.375 18.652344 Z M 543.375 18.652344 "/>
<path style=" stroke:none;fill-rule:nonzero;fill:rgb(0%,0%,0%);fill-opacity:1;" d="M 507.1875 41.0625 L 506.25 40.3125 L 506.4375 39.0625 L 538.0625 23.1875 L 539 25.125 L 507.1875 41.0625 Z M 507.1875 41.0625 "/>
<path style=" stroke:none;fill-rule:nonzero;fill:rgb(0%,0%,0%);fill-opacity:1;" d="M 497.0625 88.5625 L 495.9375 88.8125 L 495 88 L 505.0625 40.6875 L 506.25 40.3125 L 507.1875 41.0625 L 497.0625 88.5625 Z M 497.0625 88.5625 "/>
<path style=" stroke:none;fill-rule:nonzero;fill:rgb(0%,0%,0%);fill-opacity:1;" d="M 527.9375 126.125 L 527.4375 127.1875 L 525.4375 126.4375 L 495.5625 90.0625 L 495.9375 88.8125 L 497.0625 88.5625 L 527.9375 126.125 Z M 527.9375 126.125 "/>
<path style=" stroke:none;fill-rule:nonzero;fill:rgb(0%,0%,0%);fill-opacity:1;" d="M 576.5 126.125 L 577.0625 127.1875 L 576.25 128.25 L 528.1875 128.25 L 527.4375 127.1875 L 527.9375 126.125 L 576.5 126.125 Z M 576.5 126.125 "/>
<path style=" stroke:none;fill-rule:nonzero;fill:rgb(0%,0%,0%);fill-opacity:1;" d="M 606.25 88.5625 L 607.375 88.8125 L 607.8125 90.0625 L 578.25 127.375 L 577.0625 127.1875 L 576.5 126.125 L 606.25 88.5625 Z M 606.25 88.5625 "/>
<path style=" stroke:none;fill-rule:nonzero;fill:rgb(0%,0%,0%);fill-opacity:1;" d="M 594.75 41.0625 L 595.625 40.3125 L 596.8125 40.6875 L 608.3125 88 L 607.375 88.8125 L 606.25 88.5625 L 594.75 41.0625 Z M 594.75 41.0625 "/>
<path style=" stroke:none;fill-rule:nonzero;fill:rgb(0%,0%,0%);fill-opacity:1;" d="M 602.875 43 L 605 42.5 L 614.6875 82.625 L 612.625 83.125 L 602.875 43 Z M 602.875 43 "/>
<path style=" stroke:none;fill-rule:nonzero;fill:rgb(0%,0%,0%);fill-opacity:1;" d="M 562.375 25.0625 L 563.3125 23.1875 L 595.4375 39.0625 L 595.625 40.3125 L 594.75 41.0625 L 562.375 25.0625 Z M 562.375 25.0625 "/>
<path style=" stroke:none;fill-rule:nonzero;fill:rgb(0%,0%,0%);fill-opacity:1;" d="M 655 101.75 L 655.5625 104.125 L 607.8125 90.0625 L 607.375 88.8125 L 608.3125 88 L 655 101.75 Z M 655 101.75 "/>
<path style=" stroke:none;fill-rule:nonzero;fill:rgb(0%,0%,0%);fill-opacity:1;" d="M 690.25 68.125 L 691.4375 68.5 L 691.75 69.6875 L 655.5625 104.125 L 655 101.75 L 690.25 68.125 Z M 690.25 68.125 "/>
<path style=" stroke:none;fill-rule:nonzero;fill:rgb(0%,0%,0%);fill-opacity:1;" d="M 682.4375 65.25 L 683.875 66.8125 L 654 95.3125 L 652.5 93.75 L 682.4375 65.25 Z M 682.4375 65.25 "/>
<path style=" stroke:none;fill-rule:nonzero;fill:rgb(0%,0%,0%);fill-opacity:1;" d="M 678.8125 20.8125 L 680.5625 19.125 L 692.3125 67.625 L 691.4375 68.5 L 690.25 68.125 L 678.8125 20.8125 Z M 678.8125 20.8125 "/>
<path style=" stroke:none;fill-rule:nonzero;fill:rgb(0%,0%,0%);fill-opacity:1;" d="M 632.0625 7.0625 L 631.5 4.6875 L 680.5625 19.125 L 678.8125 20.8125 L 632.0625 7.0625 Z M 632.0625 7.0625 "/>
<path style=" stroke:none;fill-rule:nonzero;fill:rgb(0%,0%,0%);fill-opacity:1;" d="M 633.5 15.3125 L 634.125 13.25 L 673.75 24.875 L 673.125 26.9375 L 633.5 15.3125 Z M 633.5 15.3125 "/>
<path style=" stroke:none;fill-rule:nonzero;fill:rgb(0%,0%,0%);fill-opacity:1;" d="M 596.8125 40.6875 L 595.625 40.3125 L 595.4375 39.0625 L 631.5 4.6875 L 632.0625 7.0625 L 596.8125 40.6875 Z M 596.8125 40.6875 "/>
<path style=" stroke:none;fill-rule:nonzero;fill:rgb(0%,0%,0%);fill-opacity:1;" d="M 469.375 8 L 469.9375 5.625 L 506.4375 39.0625 L 506.25 40.3125 L 505.0625 40.6875 L 469.375 8 Z M 469.375 8 "/>
<path style=" stroke:none;fill-rule:nonzero;fill:rgb(0%,0%,0%);fill-opacity:1;" d="M 467.0625 16 L 468.5 14.4375 L 498.8125 42.125 L 497.375 43.6875 L 467.0625 16 Z M 467.0625 16 "/>
<path style=" stroke:none;fill-rule:nonzero;fill:rgb(0%,0%,0%);fill-opacity:1;" d="M 423.25 22.5625 L 421.4375 20.9375 L 469.9375 5.625 L 469.375 8 L 423.25 22.5625 Z M 423.25 22.5625 "/>
<path style=" stroke:none;fill-rule:nonzero;fill:rgb(0%,0%,0%);fill-opacity:1;" d="M 412.8125 69.8125 L 410.4375 70.5625 L 421.4375 20.9375 L 423.25 22.5625 L 412.8125 69.8125 Z M 412.8125 69.8125 "/>
<path style=" stroke:none;fill-rule:nonzero;fill:rgb(0%,0%,0%);fill-opacity:1;" d="M 420.875 67.8125 L 418.8125 67.375 L 427.625 27.3125 L 429.75 27.8125 L 420.875 67.8125 Z M 420.875 67.8125 "/>
<path style=" stroke:none;fill-rule:nonzero;fill:rgb(0%,0%,0%);fill-opacity:1;" d="M 448.5 102.5 L 447.9375 104.875 L 410.4375 70.5625 L 412.8125 69.8125 L 448.5 102.5 Z M 448.5 102.5 "/>
<path style=" stroke:none;fill-rule:nonzero;fill:rgb(0%,0%,0%);fill-opacity:1;" d="M 495 88 L 495.9375 88.8125 L 495.5625 90.0625 L 447.9375 104.875 L 448.5 102.5 L 495 88 Z M 495 88 "/>
<path style=" stroke:none;fill-rule:nonzero;fill:rgb(0%,0%,0%);fill-opacity:1;" d="M 489.1875 82 L 489.8125 84 L 450.4375 96.25 L 449.8125 94.25 L 489.1875 82 Z M 489.1875 82 "/>
<path style=" stroke:none;fill-rule:nonzero;fill:rgb(0%,0%,0%);fill-opacity:1;" d="M 543.722656 214.25 L 543.722656 192.765625 L 546.632812 192.765625 L 557.921875 209.640625 L 557.921875 192.765625 L 560.636719 192.765625 L 560.636719 214.25 L 557.726562 214.25 L 546.457031 197.375 L 546.457031 214.25 L 543.722656 214.25 Z M 543.722656 214.25 "/>
<path style=" stroke:none;fill-rule:nonzero;fill:rgb(0%,0%,0%);fill-opacity:1;" d="M 513.375 173.9375 L 510.875 174.75 L 525.75 128.9375 L 527.4375 127.1875 L 528.1875 128.25 L 513.375 173.9375 Z M 513.375 173.9375 "/>
<path style=" stroke:none;fill-rule:nonzero;fill:rgb(0%,0%,0%);fill-opacity:1;" d="M 539.9375 193.25 L 538.6875 195 L 510.875 174.75 L 513.375 173.9375 L 539.9375 193.25 Z M 539.9375 193.25 "/>
<path style=" stroke:none;fill-rule:nonzero;fill:rgb(0%,0%,0%);fill-opacity:1;" d="M 591.125 173.9375 L 593.625 174.75 L 565.75 195 L 564.5 193.3125 L 591.125 173.9375 Z M 591.125 173.9375 "/>
<path style=" stroke:none;fill-rule:nonzero;fill:rgb(0%,0%,0%);fill-opacity:1;" d="M 576.25 128.25 L 577.0625 127.1875 L 578.25 127.375 L 593.625 174.75 L 591.125 173.9375 L 576.25 128.25 Z M 576.25 128.25 "/>
<path style=" stroke:none;fill-rule:nonzero;fill:rgb(0%,0%,0%);fill-opacity:1;" d="M 746.011719 84.710938 L 748.863281 85.433594 C 748.261719 87.765625 747.1875 89.550781 745.640625 90.785156 C 744.085938 92.011719 742.195312 92.621094 739.957031 92.621094 C 737.652344 92.621094 735.765625 92.152344 734.3125 91.214844 C 732.867188 90.265625 731.765625 88.898438 731.011719 87.113281 C 730.253906 85.316406 729.878906 83.398438 729.878906 81.351562 C 729.878906 79.117188 730.296875 77.164062 731.148438 75.492188 C 732.007812 73.828125 733.222656 72.5625 734.800781 71.703125 C 736.375 70.84375 738.109375 70.414062 740.015625 70.414062 C 742.164062 70.414062 743.964844 70.960938 745.425781 72.054688 C 746.894531 73.148438 747.914062 74.6875 748.492188 76.664062 L 745.699219 77.328125 C 745.191406 75.765625 744.460938 74.628906 743.511719 73.910156 C 742.574219 73.195312 741.386719 72.835938 739.957031 72.835938 C 738.300781 72.835938 736.921875 73.234375 735.816406 74.027344 C 734.707031 74.824219 733.925781 75.882812 733.472656 77.210938 C 733.027344 78.539062 732.808594 79.914062 732.808594 81.332031 C 732.808594 83.15625 733.066406 84.75 733.589844 86.117188 C 734.121094 87.484375 734.945312 88.507812 736.070312 89.183594 C 737.203125 89.847656 738.417969 90.179688 739.722656 90.179688 C 741.324219 90.179688 742.671875 89.726562 743.765625 88.8125 C 744.867188 87.890625 745.621094 86.523438 746.011719 84.710938 Z M 746.011719 84.710938 "/>
<path style=" stroke:none;fill-rule:nonzero;fill:rgb(0%,0%,0%);fill-opacity:1;" d="M 751.949219 92.25 L 751.949219 70.765625 L 754.585938 70.765625 L 754.585938 92.25 L 751.949219 92.25 Z M 751.949219 92.25 "/>
<path style=" stroke:none;fill-rule:nonzero;fill:rgb(0%,0%,0%);fill-opacity:1;" d="M 727.5 77.0625 L 727 79.125 L 691.75 69.6875 L 691.4375 68.5 L 692.3125 67.625 L 727.5 77.0625 Z M 727.5 77.0625 "/>
<path style=" stroke:none;fill-rule:nonzero;fill:rgb(0%,0%,0%);fill-opacity:1;" d="M 558.886719 256.523438 L 561.738281 257.246094 C 561.136719 259.578125 560.0625 261.363281 558.515625 262.597656 C 556.960938 263.824219 555.070312 264.433594 552.832031 264.433594 C 550.527344 264.433594 548.640625 263.964844 547.1875 263.027344 C 545.742188 262.078125 544.640625 260.710938 543.886719 258.925781 C 543.128906 257.128906 542.753906 255.210938 542.753906 253.164062 C 542.753906 250.929688 543.171875 248.976562 544.023438 247.304688 C 544.882812 245.640625 546.097656 244.375 547.675781 243.515625 C 549.25 242.65625 550.984375 242.226562 552.890625 242.226562 C 555.039062 242.226562 556.839844 242.773438 558.300781 243.867188 C 559.769531 244.960938 560.789062 246.5 561.367188 248.476562 L 558.574219 249.140625 C 558.066406 247.578125 557.335938 246.441406 556.386719 245.722656 C 555.449219 245.007812 554.261719 244.648438 552.832031 244.648438 C 551.175781 244.648438 549.796875 245.046875 548.691406 245.839844 C 547.582031 246.636719 546.800781 247.695312 546.347656 249.023438 C 545.902344 250.351562 545.683594 251.726562 545.683594 253.144531 C 545.683594 254.96875 545.941406 256.5625 546.464844 257.929688 C 546.996094 259.296875 547.820312 260.320312 548.945312 260.996094 C 550.078125 261.660156 551.292969 261.992188 552.597656 261.992188 C 554.199219 261.992188 555.546875 261.539062 556.640625 260.625 C 557.742188 259.703125 558.496094 258.335938 558.886719 256.523438 Z M 558.886719 256.523438 "/>
<path style=" stroke:none;fill-rule:nonzero;fill:rgb(0%,0%,0%);fill-opacity:1;" d="M 565.3125 264.0625 L 565.3125 242.578125 L 568.164062 242.578125 L 568.164062 251.40625 L 579.316406 251.40625 L 579.316406 242.578125 L 582.167969 242.578125 L 582.167969 264.0625 L 579.316406 264.0625 L 579.316406 253.945312 L 568.164062 253.945312 L 568.164062 264.0625 L 565.3125 264.0625 Z M 565.3125 264.0625 "/>
<path style=" stroke:none;fill-rule:nonzero;fill:rgb(0%,0%,0%);fill-opacity:1;" d="M 585.582031 266.164062 L 587.574219 265.910156 C 587.792969 267.03125 588.179688 267.835938 588.726562 268.332031 C 589.273438 268.828125 589.9375 269.074219 590.71875 269.074219 C 591.65625 269.074219 592.441406 268.753906 593.082031 268.117188 C 593.714844 267.464844 594.039062 266.664062 594.039062 265.714844 C 594.039062 264.804688 593.734375 264.054688 593.140625 263.46875 C 592.554688 262.871094 591.800781 262.570312 590.894531 262.570312 C 590.511719 262.570312 590.042969 262.648438 589.488281 262.804688 L 589.703125 261.066406 C 589.828125 261.078125 589.941406 261.085938 590.035156 261.085938 C 590.863281 261.085938 591.621094 260.863281 592.300781 260.421875 C 592.972656 259.980469 593.316406 259.300781 593.316406 258.390625 C 593.316406 257.660156 593.066406 257.0625 592.574219 256.59375 C 592.074219 256.113281 591.445312 255.871094 590.679688 255.871094 C 589.90625 255.871094 589.261719 256.113281 588.746094 256.59375 C 588.238281 257.074219 587.910156 257.804688 587.769531 258.78125 L 585.796875 258.429688 C 586.03125 257.101562 586.578125 256.074219 587.4375 255.34375 C 588.296875 254.613281 589.359375 254.25 590.640625 254.25 C 591.507812 254.25 592.320312 254.4375 593.0625 254.816406 C 593.804688 255.195312 594.371094 255.707031 594.761719 256.359375 C 595.152344 257.011719 595.347656 257.699219 595.347656 258.429688 C 595.347656 259.132812 595.15625 259.769531 594.78125 260.34375 C 594.414062 260.902344 593.863281 261.351562 593.121094 261.691406 C 594.066406 261.914062 594.804688 262.375 595.328125 263.078125 C 595.859375 263.769531 596.128906 264.628906 596.128906 265.65625 C 596.128906 267.0625 595.609375 268.261719 594.585938 269.25 C 593.570312 270.226562 592.28125 270.714844 590.71875 270.714844 C 589.296875 270.714844 588.121094 270.292969 587.183594 269.445312 C 586.253906 268.597656 585.722656 267.503906 585.582031 266.164062 Z M 585.582031 266.164062 "/>
<path style=" stroke:none;fill-rule:nonzero;fill:rgb(0%,0%,0%);fill-opacity:1;" d="M 551.1875 239.375 L 553.3125 239.375 L 553.3125 217.0625 L 551.1875 217.0625 L 551.1875 239.375 Z M 551.1875 239.375 "/>
<path style=" stroke:none;fill-rule:nonzero;fill:rgb(0%,0%,0%);fill-opacity:1;" d="M 471.089844 150.75 L 471.089844 129.265625 L 473.941406 129.265625 L 473.941406 138.09375 L 485.09375 138.09375 L 485.09375 129.265625 L 487.945312 129.265625 L 487.945312 150.75 L 485.09375 150.75 L 485.09375 140.632812 L 473.941406 140.632812 L 473.941406 150.75 L 471.089844 150.75 Z M 471.089844 150.75 "/>
<path style=" stroke:none;fill-rule:nonzero;fill:rgb(0%,0%,0%);fill-opacity:1;" d="M 493.8125 141.125 L 491.3125 131.875 L 525.4375 126.4375 L 527.4375 127.1875 L 525.75 128.9375 L 493.8125 141.125 Z M 493.8125 141.125 "/>
<path style=" stroke:none;fill-rule:nonzero;fill:rgb(0%,0%,0%);fill-opacity:1;" d="M 616.527344 150.75 L 616.527344 129.265625 L 619.378906 129.265625 L 619.378906 138.09375 L 630.53125 138.09375 L 630.53125 129.265625 L 633.382812 129.265625 L 633.382812 150.75 L 630.53125 150.75 L 630.53125 140.632812 L 619.378906 140.632812 L 619.378906 150.75 L 616.527344 150.75 Z M 616.527344 150.75 "/>
<path style=" stroke:none;fill-rule:nonzero;fill:rgb(0%,0%,0%);fill-opacity:1;" d="M 613 131.875 L 610.5625 141.0625 L 607.9375 140.0625 L 610.25 131.4375 L 613 131.875 Z M 613 131.875 "/>
<path style=" stroke:none;fill-rule:nonzero;fill:rgb(0%,0%,0%);fill-opacity:1;" d="M 607.5 131.0625 L 605.375 139 L 602.75 137.9375 L 604.6875 130.6875 L 607.5 131.0625 Z M 607.5 131.0625 "/>
<path style=" stroke:none;fill-rule:nonzero;fill:rgb(0%,0%,0%);fill-opacity:1;" d="M 601.9375 130.25 L 600.125 136.875 L 597.5 135.875 L 599.125 129.875 L 601.9375 130.25 Z M 601.9375 130.25 "/>
<path style=" stroke:none;fill-rule:nonzero;fill:rgb(0%,0%,0%);fill-opacity:1;" d="M 596.375 129.5 L 594.9375 134.8125 L 592.3125 133.75 L 593.5625 129.0625 L 596.375 129.5 Z M 596.375 129.5 "/>
<path style=" stroke:none;fill-rule:nonzero;fill:rgb(0%,0%,0%);fill-opacity:1;" d="M 590.8125 128.6875 L 589.6875 132.6875 L 587.125 131.6875 L 588 128.3125 L 590.8125 128.6875 Z M 590.8125 128.6875 "/>
<path style=" stroke:none;fill-rule:nonzero;fill:rgb(0%,0%,0%);fill-opacity:1;" d="M 585.25 127.9375 L 584.5 130.625 L 581.875 129.5625 L 582.4375 127.5 L 585.25 127.9375 Z M 585.25 127.9375 "/>
<path style=" stroke:none;fill-rule:nonzero;fill:rgb(0%,0%,0%);fill-opacity:1;" d="M 206.445312 19.21875 C 206.445312 15.664062 207.402344 12.882812 209.316406 10.859375 C 211.230469 8.84375 213.703125 7.832031 216.738281 7.832031 C 218.714844 7.832031 220.5 8.3125 222.089844 9.257812 C 223.691406 10.195312 224.90625 11.519531 225.742188 13.222656 C 226.570312 14.917969 226.992188 16.835938 226.992188 18.984375 C 226.992188 21.164062 226.546875 23.105469 225.664062 24.824219 C 224.789062 26.542969 223.546875 27.847656 221.933594 28.730469 C 220.316406 29.617188 218.578125 30.058594 216.71875 30.058594 C 214.695312 30.058594 212.890625 29.570312 211.289062 28.59375 C 209.695312 27.617188 208.496094 26.285156 207.675781 24.589844 C 206.855469 22.898438 206.445312 21.109375 206.445312 19.21875 Z M 209.375 19.277344 C 209.375 21.855469 210.070312 23.898438 211.464844 25.390625 C 212.855469 26.875 214.601562 27.617188 216.699219 27.617188 C 218.847656 27.617188 220.609375 26.871094 221.992188 25.371094 C 223.367188 23.863281 224.0625 21.726562 224.0625 18.964844 C 224.0625 17.222656 223.757812 15.699219 223.164062 14.394531 C 222.578125 13.082031 221.710938 12.066406 220.566406 11.347656 C 219.433594 10.632812 218.164062 10.273438 216.757812 10.273438 C 214.734375 10.273438 213 10.96875 211.542969 12.34375 C 210.097656 13.726562 209.375 16.035156 209.375 19.277344 Z M 209.375 19.277344 "/>
<path style=" stroke:none;fill-rule:nonzero;fill:rgb(0%,0%,0%);fill-opacity:1;" d="M 260.8125 39.625 L 261 40.9375 L 260.0625 41.625 L 228.3125 25.75 L 229.25 23.875 L 260.8125 39.625 Z M 260.8125 39.625 "/>
<path style=" stroke:none;fill-rule:nonzero;fill:rgb(0%,0%,0%);fill-opacity:1;" d="M 272.25 88.625 L 271.3125 89.4375 L 270.1875 89.1875 L 260.0625 41.625 L 261 40.9375 L 262.1875 41.3125 L 272.25 88.625 Z M 272.25 88.625 "/>
<path style=" stroke:none;fill-rule:nonzero;fill:rgb(0%,0%,0%);fill-opacity:1;" d="M 241.8125 127.0625 L 239.8125 127.8125 L 239.3125 126.75 L 270.1875 89.1875 L 271.3125 89.4375 L 271.6875 90.6875 L 241.8125 127.0625 Z M 241.8125 127.0625 "/>
<path style=" stroke:none;fill-rule:nonzero;fill:rgb(0%,0%,0%);fill-opacity:1;" d="M 191 128.875 L 190.1875 127.8125 L 190.75 126.75 L 239.3125 126.75 L 239.8125 127.8125 L 239.0625 128.875 L 191 128.875 Z M 191 128.875 "/>
<path style=" stroke:none;fill-rule:nonzero;fill:rgb(0%,0%,0%);fill-opacity:1;" d="M 159.4375 90.6875 L 159.875 89.4375 L 161 89.1875 L 190.75 126.75 L 190.1875 127.8125 L 189 128 L 159.4375 90.6875 Z M 159.4375 90.6875 "/>
<path style=" stroke:none;fill-rule:nonzero;fill:rgb(0%,0%,0%);fill-opacity:1;" d="M 170.4375 41.25 L 171.625 40.9375 L 172.5 41.6875 L 161 89.1875 L 159.875 89.4375 L 158.9375 88.625 L 170.4375 41.25 Z M 170.4375 41.25 "/>
<path style=" stroke:none;fill-rule:nonzero;fill:rgb(0%,0%,0%);fill-opacity:1;" d="M 162.25 43.125 L 164.375 43.625 L 154.625 83.75 L 152.5625 83.25 L 162.25 43.125 Z M 162.25 43.125 "/>
<path style=" stroke:none;fill-rule:nonzero;fill:rgb(0%,0%,0%);fill-opacity:1;" d="M 204.0625 23.75 L 205 25.6875 L 172.5 41.6875 L 171.625 40.9375 L 171.8125 39.625 L 204.0625 23.75 Z M 204.0625 23.75 "/>
<path style=" stroke:none;fill-rule:nonzero;fill:rgb(0%,0%,0%);fill-opacity:1;" d="M 111.6875 104.75 L 112.25 102.375 L 158.9375 88.625 L 159.875 89.4375 L 159.4375 90.6875 L 111.6875 104.75 Z M 111.6875 104.75 "/>
<path style=" stroke:none;fill-rule:nonzero;fill:rgb(0%,0%,0%);fill-opacity:1;" d="M 75.5 70.25 L 75.8125 69.125 L 77 68.75 L 112.25 102.375 L 111.6875 104.75 L 75.5 70.25 Z M 75.5 70.25 "/>
<path style=" stroke:none;fill-rule:nonzero;fill:rgb(0%,0%,0%);fill-opacity:1;" d="M 83.375 67.4375 L 84.8125 65.875 L 114.75 94.375 L 113.25 95.875 L 83.375 67.4375 Z M 83.375 67.4375 "/>
<path style=" stroke:none;fill-rule:nonzero;fill:rgb(0%,0%,0%);fill-opacity:1;" d="M 86.6875 19.75 L 88.4375 21.4375 L 77 68.75 L 75.8125 69.125 L 74.9375 68.25 L 86.6875 19.75 Z M 86.6875 19.75 "/>
<path style=" stroke:none;fill-rule:nonzero;fill:rgb(0%,0%,0%);fill-opacity:1;" d="M 135.75 5.3125 L 135.1875 7.6875 L 88.4375 21.4375 L 86.6875 19.75 L 135.75 5.3125 Z M 135.75 5.3125 "/>
<path style=" stroke:none;fill-rule:nonzero;fill:rgb(0%,0%,0%);fill-opacity:1;" d="M 133.125 13.875 L 133.75 15.9375 L 94.125 27.5625 L 93.5 25.5 L 133.125 13.875 Z M 133.125 13.875 "/>
<path style=" stroke:none;fill-rule:nonzero;fill:rgb(0%,0%,0%);fill-opacity:1;" d="M 171.8125 39.625 L 171.625 40.9375 L 170.4375 41.25 L 135.1875 7.6875 L 135.75 5.3125 L 171.8125 39.625 Z M 171.8125 39.625 "/>
<path style=" stroke:none;fill-rule:nonzero;fill:rgb(0%,0%,0%);fill-opacity:1;" d="M 297.3125 6.25 L 297.875 8.625 L 262.1875 41.3125 L 261 40.9375 L 260.8125 39.625 L 297.3125 6.25 Z M 297.3125 6.25 "/>
<path style=" stroke:none;fill-rule:nonzero;fill:rgb(0%,0%,0%);fill-opacity:1;" d="M 298.75 15.0625 L 300.1875 16.625 L 269.875 44.3125 L 268.4375 42.75 L 298.75 15.0625 Z M 298.75 15.0625 "/>
<path style=" stroke:none;fill-rule:nonzero;fill:rgb(0%,0%,0%);fill-opacity:1;" d="M 345.8125 21.5625 L 344 23.1875 L 297.875 8.625 L 297.3125 6.25 L 345.8125 21.5625 Z M 345.8125 21.5625 "/>
<path style=" stroke:none;fill-rule:nonzero;fill:rgb(0%,0%,0%);fill-opacity:1;" d="M 356.8125 71.1875 L 354.4375 70.4375 L 344 23.1875 L 345.8125 21.5625 L 356.8125 71.1875 Z M 356.8125 71.1875 "/>
<path style=" stroke:none;fill-rule:nonzero;fill:rgb(0%,0%,0%);fill-opacity:1;" d="M 348.4375 68 L 346.375 68.4375 L 337.5 28.4375 L 339.625 27.9375 L 348.4375 68 Z M 348.4375 68 "/>
<path style=" stroke:none;fill-rule:nonzero;fill:rgb(0%,0%,0%);fill-opacity:1;" d="M 319.3125 105.5 L 318.75 103.125 L 354.4375 70.4375 L 356.8125 71.1875 L 319.3125 105.5 Z M 319.3125 105.5 "/>
<path style=" stroke:none;fill-rule:nonzero;fill:rgb(0%,0%,0%);fill-opacity:1;" d="M 271.6875 90.6875 L 271.3125 89.4375 L 272.25 88.625 L 318.75 103.125 L 319.3125 105.5 L 271.6875 90.6875 Z M 271.6875 90.6875 "/>
<path style=" stroke:none;fill-rule:nonzero;fill:rgb(0%,0%,0%);fill-opacity:1;" d="M 277.4375 84.625 L 278.0625 82.5625 L 317.4375 94.875 L 316.8125 96.875 L 277.4375 84.625 Z M 277.4375 84.625 "/>
<path style=" stroke:none;fill-rule:nonzero;fill:rgb(0%,0%,0%);fill-opacity:1;" d="M 206.535156 214.875 L 206.535156 193.390625 L 209.445312 193.390625 L 220.734375 210.265625 L 220.734375 193.390625 L 223.449219 193.390625 L 223.449219 214.875 L 220.539062 214.875 L 209.269531 198 L 209.269531 214.875 L 206.535156 214.875 Z M 206.535156 214.875 "/>
<path style=" stroke:none;fill-rule:nonzero;fill:rgb(0%,0%,0%);fill-opacity:1;" d="M 256.375 175.375 L 253.875 174.5625 L 239.0625 128.875 L 239.8125 127.8125 L 241.5 129.5625 L 256.375 175.375 Z M 256.375 175.375 "/>
<path style=" stroke:none;fill-rule:nonzero;fill:rgb(0%,0%,0%);fill-opacity:1;" d="M 228.5 195.625 L 227.25 193.875 L 253.875 174.5625 L 256.375 175.375 L 228.5 195.625 Z M 228.5 195.625 "/>
<path style=" stroke:none;fill-rule:nonzero;fill:rgb(0%,0%,0%);fill-opacity:1;" d="M 173.625 175.375 L 176.125 174.5625 L 202.6875 193.875 L 201.4375 195.5625 L 173.625 175.375 Z M 173.625 175.375 "/>
<path style=" stroke:none;fill-rule:nonzero;fill:rgb(0%,0%,0%);fill-opacity:1;" d="M 189 128 L 190.1875 127.8125 L 191 128.875 L 176.125 174.5625 L 173.625 175.375 L 189 128 Z M 189 128 "/>
<path style=" stroke:none;fill-rule:nonzero;fill:rgb(0%,0%,0%);fill-opacity:1;" d="M 20.574219 85.335938 L 23.425781 86.058594 C 22.824219 88.390625 21.75 90.175781 20.203125 91.410156 C 18.652344 92.636719 16.757812 93.246094 14.519531 93.246094 C 12.214844 93.246094 10.332031 92.777344 8.875 91.839844 C 7.429688 90.890625 6.328125 89.523438 5.574219 87.738281 C 4.816406 85.941406 4.441406 84.023438 4.441406 81.976562 C 4.441406 79.742188 4.863281 77.789062 5.710938 76.117188 C 6.570312 74.453125 7.785156 73.1875 9.363281 72.328125 C 10.9375 71.46875 12.675781 71.039062 14.578125 71.039062 C 16.726562 71.039062 18.527344 71.585938 19.988281 72.679688 C 21.457031 73.773438 22.480469 75.3125 23.054688 77.289062 L 20.261719 77.953125 C 19.753906 76.390625 19.023438 75.253906 18.074219 74.535156 C 17.136719 73.820312 15.949219 73.460938 14.519531 73.460938 C 12.863281 73.460938 11.484375 73.859375 10.378906 74.652344 C 9.269531 75.449219 8.488281 76.507812 8.035156 77.835938 C 7.589844 79.164062 7.371094 80.539062 7.371094 81.957031 C 7.371094 83.78125 7.628906 85.375 8.152344 86.742188 C 8.683594 88.109375 9.511719 89.132812 10.632812 89.808594 C 11.765625 90.472656 12.980469 90.804688 14.285156 90.804688 C 15.886719 90.804688 17.234375 90.351562 18.328125 89.4375 C 19.433594 88.515625 20.183594 87.148438 20.574219 85.335938 Z M 20.574219 85.335938 "/>
<path style=" stroke:none;fill-rule:nonzero;fill:rgb(0%,0%,0%);fill-opacity:1;" d="M 26.511719 92.875 L 26.511719 71.390625 L 29.148438 71.390625 L 29.148438 92.875 L 26.511719 92.875 Z M 26.511719 92.875 "/>
<path style=" stroke:none;fill-rule:nonzero;fill:rgb(0%,0%,0%);fill-opacity:1;" d="M 33.125 81.625 L 32.5625 79.5625 L 74.9375 68.25 L 75.8125 69.125 L 75.5 70.25 L 33.125 81.625 Z M 33.125 81.625 "/>
<path style=" stroke:none;fill-rule:nonzero;fill:rgb(0%,0%,0%);fill-opacity:1;" d="M 221.636719 257.148438 L 224.488281 257.871094 C 223.886719 260.203125 222.8125 261.988281 221.265625 263.222656 C 219.710938 264.449219 217.820312 265.058594 215.582031 265.058594 C 213.277344 265.058594 211.390625 264.589844 209.9375 263.652344 C 208.492188 262.703125 207.390625 261.335938 206.636719 259.550781 C 205.878906 257.753906 205.503906 255.835938 205.503906 253.789062 C 205.503906 251.554688 205.921875 249.601562 206.773438 247.929688 C 207.632812 246.265625 208.847656 245 210.425781 244.140625 C 212 243.28125 213.734375 242.851562 215.640625 242.851562 C 217.789062 242.851562 219.589844 243.398438 221.050781 244.492188 C 222.519531 245.585938 223.539062 247.125 224.117188 249.101562 L 221.324219 249.765625 C 220.816406 248.203125 220.085938 247.066406 219.136719 246.347656 C 218.199219 245.632812 217.011719 245.273438 215.582031 245.273438 C 213.925781 245.273438 212.546875 245.671875 211.441406 246.464844 C 210.332031 247.261719 209.550781 248.320312 209.097656 249.648438 C 208.652344 250.976562 208.433594 252.351562 208.433594 253.769531 C 208.433594 255.59375 208.691406 257.1875 209.214844 258.554688 C 209.746094 259.921875 210.570312 260.945312 211.695312 261.621094 C 212.828125 262.285156 214.042969 262.617188 215.347656 262.617188 C 216.949219 262.617188 218.296875 262.164062 219.390625 261.25 C 220.492188 260.328125 221.246094 258.960938 221.636719 257.148438 Z M 221.636719 257.148438 "/>
<path style=" stroke:none;fill-rule:nonzero;fill:rgb(0%,0%,0%);fill-opacity:1;" d="M 228.0625 264.6875 L 228.0625 243.203125 L 230.914062 243.203125 L 230.914062 252.03125 L 242.066406 252.03125 L 242.066406 243.203125 L 244.917969 243.203125 L 244.917969 264.6875 L 242.066406 264.6875 L 242.066406 254.570312 L 230.914062 254.570312 L 230.914062 264.6875 L 228.0625 264.6875 Z M 228.0625 264.6875 "/>
<path style=" stroke:none;fill-rule:nonzero;fill:rgb(0%,0%,0%);fill-opacity:1;" d="M 248.332031 266.789062 L 250.324219 266.535156 C 250.542969 267.65625 250.929688 268.460938 251.476562 268.957031 C 252.023438 269.453125 252.6875 269.699219 253.46875 269.699219 C 254.40625 269.699219 255.191406 269.378906 255.832031 268.742188 C 256.464844 268.089844 256.789062 267.289062 256.789062 266.339844 C 256.789062 265.429688 256.484375 264.679688 255.890625 264.09375 C 255.304688 263.496094 254.550781 263.195312 253.644531 263.195312 C 253.261719 263.195312 252.792969 263.273438 252.238281 263.429688 L 252.453125 261.691406 C 252.578125 261.703125 252.691406 261.710938 252.785156 261.710938 C 253.613281 261.710938 254.371094 261.488281 255.050781 261.046875 C 255.722656 260.605469 256.066406 259.925781 256.066406 259.015625 C 256.066406 258.285156 255.816406 257.6875 255.324219 257.21875 C 254.824219 256.738281 254.195312 256.496094 253.429688 256.496094 C 252.65625 256.496094 252.011719 256.738281 251.496094 257.21875 C 250.988281 257.699219 250.660156 258.429688 250.519531 259.40625 L 248.546875 259.054688 C 248.78125 257.726562 249.328125 256.699219 250.1875 255.96875 C 251.046875 255.238281 252.109375 254.875 253.390625 254.875 C 254.257812 254.875 255.070312 255.0625 255.8125 255.441406 C 256.554688 255.820312 257.121094 256.332031 257.511719 256.984375 C 257.902344 257.636719 258.097656 258.324219 258.097656 259.054688 C 258.097656 259.757812 257.90625 260.394531 257.53125 260.96875 C 257.164062 261.527344 256.613281 261.976562 255.871094 262.316406 C 256.816406 262.539062 257.554688 263 258.078125 263.703125 C 258.609375 264.394531 258.878906 265.253906 258.878906 266.28125 C 258.878906 267.6875 258.359375 268.886719 257.335938 269.875 C 256.320312 270.851562 255.03125 271.339844 253.46875 271.339844 C 252.046875 271.339844 250.871094 270.917969 249.933594 270.070312 C 249.003906 269.222656 248.472656 268.128906 248.332031 266.789062 Z M 248.332031 266.789062 "/>
<path style=" stroke:none;fill-rule:nonzero;fill:rgb(0%,0%,0%);fill-opacity:1;" d="M 213.9375 240 L 216.0625 240 L 216.0625 217.6875 L 213.9375 217.6875 L 213.9375 240 Z M 213.9375 240 "/>
<path style=" stroke:none;fill-rule:nonzero;fill:rgb(0%,0%,0%);fill-opacity:1;" d="M 279.277344 151.375 L 279.277344 129.890625 L 282.128906 129.890625 L 282.128906 138.71875 L 293.28125 138.71875 L 293.28125 129.890625 L 296.132812 129.890625 L 296.132812 151.375 L 293.28125 151.375 L 293.28125 141.257812 L 282.128906 141.257812 L 282.128906 151.375 L 279.277344 151.375 Z M 279.277344 151.375 "/>
<path style=" stroke:none;fill-rule:nonzero;fill:rgb(0%,0%,0%);fill-opacity:1;" d="M 275.8125 132.5 L 273.3125 141.6875 L 241.5 129.5625 L 239.8125 127.8125 L 241.8125 127.0625 L 275.8125 132.5 Z M 275.8125 132.5 "/>
<path style=" stroke:none;fill-rule:nonzero;fill:rgb(0%,0%,0%);fill-opacity:1;" d="M 133.839844 151.375 L 133.839844 129.890625 L 136.691406 129.890625 L 136.691406 138.71875 L 147.84375 138.71875 L 147.84375 129.890625 L 150.695312 129.890625 L 150.695312 151.375 L 147.84375 151.375 L 147.84375 141.257812 L 136.691406 141.257812 L 136.691406 151.375 L 133.839844 151.375 Z M 133.839844 151.375 "/>
<path style=" stroke:none;fill-rule:nonzero;fill:rgb(0%,0%,0%);fill-opacity:1;" d="M 156.5625 141.75 L 154.0625 132.5 L 156.875 132.125 L 159.1875 140.6875 L 156.5625 141.75 Z M 156.5625 141.75 "/>
<path style=" stroke:none;fill-rule:nonzero;fill:rgb(0%,0%,0%);fill-opacity:1;" d="M 161.8125 139.625 L 159.6875 131.6875 L 162.4375 131.3125 L 164.4375 138.625 L 161.8125 139.625 Z M 161.8125 139.625 "/>
<path style=" stroke:none;fill-rule:nonzero;fill:rgb(0%,0%,0%);fill-opacity:1;" d="M 167 137.5625 L 165.25 130.9375 L 168.0625 130.5 L 169.625 136.5 L 167 137.5625 Z M 167 137.5625 "/>
<path style=" stroke:none;fill-rule:nonzero;fill:rgb(0%,0%,0%);fill-opacity:1;" d="M 172.25 135.4375 L 170.8125 130.125 L 173.625 129.75 L 174.875 134.375 L 172.25 135.4375 Z M 172.25 135.4375 "/>
<path style=" stroke:none;fill-rule:nonzero;fill:rgb(0%,0%,0%);fill-opacity:1;" d="M 177.5 133.3125 L 176.4375 129.3125 L 179.1875 128.9375 L 180.125 132.3125 L 177.5 133.3125 Z M 177.5 133.3125 "/>
<path style=" stroke:none;fill-rule:nonzero;fill:rgb(0%,0%,0%);fill-opacity:1;" d="M 182.75 131.25 L 182 128.5 L 184.8125 128.125 L 185.375 130.1875 L 182.75 131.25 Z M 182.75 131.25 "/>
</g>
</g>
</svg>
