<?xml version="1.0" encoding="utf-8"?>
<!-- Generator: Adobe Illustrator 18.0.0, SVG Export Plug-In . SVG Version: 6.00 Build 0)  -->
<!DOCTYPE svg PUBLIC "-//W3C//DTD SVG 1.1//EN" "http://www.w3.org/Graphics/SVG/1.1/DTD/svg11.dtd">
<svg version="1.1" id="Слой_1" xmlns="http://www.w3.org/2000/svg" xmlns:xlink="http://www.w3.org/1999/xlink" x="0px" y="0px"
	 viewBox="0 0 420.7 272.4" enable-background="new 0 0 420.7 272.4" xml:space="preserve" width="420.7" height="272.4">
<g>
	<rect x="25.8" y="67.8" transform="matrix(-0.4996 -0.8663 0.8663 -0.4996 -34.705 153.574)" width="2.4" height="38.1"/>
	<rect x="319" y="102.3" width="2.4" height="45.6"/>
	<rect x="378.3" y="136.5" transform="matrix(-0.4996 -0.8663 0.8663 -0.4996 430.9932 567.6733)" width="2.4" height="45.6"/>
	<rect x="356.7" y="89.7" transform="matrix(-0.866 -0.5 0.5 -0.866 662.6388 359.3639)" width="45.6" height="2.4"/>
	<rect x="169.3" y="180.7" width="2.4" height="45.6"/>
	<rect x="228.6" y="214.9" transform="matrix(-0.4996 -0.8663 0.8663 -0.4996 138.6686 555.6014)" width="2.4" height="45.6"/>
	<rect x="207" y="168.1" transform="matrix(-0.866 -0.5 0.5 -0.866 344.1904 430.8354)" width="45.6" height="2.4"/>
	<polygon points="68.2,75.8 68.1,75.8 53.1,52.6 49,52.6 49,81.2 52.6,81.2 52.6,58.2 52.7,58.2 67.6,81.2 71.8,81.2 71.8,52.6 
		68.2,52.6 	"/>
	<polygon points="52.9,35.5 67.9,35.5 67.9,48.6 71.7,48.6 71.7,20 67.9,20 67.9,32.3 52.9,32.3 52.9,20 49.1,20 49.1,48.6 
		52.9,48.6 	"/>
	<path d="M270.2,56.8c-1.1-1.4-2.6-2.5-4.3-3.3c-1.7-0.8-3.7-1.2-6-1.2c-2.3,0-4.3,0.4-6,1.2s-3.1,1.9-4.3,3.3c-1.1,1.4-2,3-2.6,4.8
		c-0.6,1.8-0.9,3.7-0.9,5.6c0,1.9,0.3,3.8,0.9,5.6c0.6,1.8,1.4,3.4,2.6,4.8c1.1,1.4,2.6,2.5,4.3,3.3c1.7,0.8,3.7,1.2,6,1.2
		c2.3,0,4.3-0.4,6-1.2c1.7-0.8,3.1-1.9,4.3-3.3c1.1-1.4,2-3,2.6-4.8c0.6-1.8,0.9-3.7,0.9-5.6c0-1.9-0.3-3.8-0.9-5.6
		C272.2,59.8,271.3,58.2,270.2,56.8z M269.3,71.5c-0.4,1.4-1,2.7-1.8,3.8c-0.8,1.1-1.8,2-3.1,2.7c-1.3,0.7-2.7,1-4.5,1
		c-1.7,0-3.2-0.3-4.5-1c-1.3-0.7-2.3-1.6-3.1-2.7c-0.8-1.1-1.4-2.4-1.8-3.8s-0.6-2.8-0.6-4.3c0-1.4,0.2-2.9,0.6-4.3
		c0.4-1.4,1-2.7,1.8-3.8c0.8-1.1,1.8-2,3.1-2.7c1.3-0.7,2.7-1,4.5-1c1.7,0,3.2,0.3,4.5,1c1.3,0.7,2.3,1.6,3.1,2.7
		c0.8,1.1,1.4,2.4,1.8,3.8c0.4,1.4,0.6,2.8,0.6,4.3C269.8,68.7,269.6,70.1,269.3,71.5z"/>
	<path d="M410.2,95.3l-49.3-28.5V9.9h-2.4v56.9l-48.7,28.1l-31.5-18.2l-1.2,2.1L308.6,97v54.9v2l0,0.7l0.6,0.3l48.2,27.8l1.7,1
		l0.6,0.3l0.6-0.3l1.7-1l48.2-27.8l0.6-0.3v-0.7v-2V98.3v-2l0-0.7L410.2,95.3z M408.4,98.3v53.6v1.3l-48.7,28.1L311,153.2v-1.3V97
		l48.7-28.1l47.6,27.5l0,0l1.1,0.7V98.3z"/>
	<path d="M258.8,172.7l-41.3-23.9L211.3,97l31.4-18.1l-1.2-2.1l-31.5,18.2l-47.6-27.5l0,0l-1.7-1l-0.6-0.3l-0.6,0.3l-1.7,1v0
		l-47.6,27.5l-1.1-0.7l-31.2-18l-1.2,2.1l31.2,18l1.7,1l0.6,0.3l0.6-0.3l1.7-1l47.6-27.5l1.1,0.7L208.8,97l-6.1,51.9l-41.3,23.9
		l-1.7,1L159,174v0.7v2v53.6v2l0,0.7l0.6,0.3l1.7,1l0,0l48.2,27.8l0.6,0.3l0.6-0.3l48.2-27.8l0,0l1.7-1l0.6-0.3v-0.7v-2v-53.6v-2
		l0-0.7l-0.6-0.3L258.8,172.7z M258.7,176.7v53.6v1.3l-1.1,0.7l-46.4,26.8l-1.1,0.7l-1.1-0.7l-46.4-26.8v0l-1.1-0.7v-1.3v-53.6v-1.3
		l1.1-0.7l0,0l47.6-27.5l47.6,27.5l1.1,0.7V176.7z"/>
</g>
</svg>
