<?xml version="1.0" encoding="UTF-8" standalone="no"?>
<svg
   xmlns:dc="http://purl.org/dc/elements/1.1/"
   xmlns:cc="http://creativecommons.org/ns#"
   xmlns:rdf="http://www.w3.org/1999/02/22-rdf-syntax-ns#"
   xmlns:svg="http://www.w3.org/2000/svg"
   xmlns="http://www.w3.org/2000/svg"
   xmlns:sodipodi="http://sodipodi.sourceforge.net/DTD/sodipodi-0.dtd"
   xmlns:inkscape="http://www.inkscape.org/namespaces/inkscape"
   viewBox="313.74 99.09 84.21 100.49"
   preserveAspectRatio="xMidYMid"
   width="100%"
   height="100%"
   id="svg2"
   version="1.1"
   inkscape:version="0.48.1 "
   sodipodi:docname="benzatropine.svg">
  <metadata
     id="metadata145">
    <rdf:RDF>
      <cc:Work
         rdf:about="">
        <dc:format>image/svg+xml</dc:format>
        <dc:type
           rdf:resource="http://purl.org/dc/dcmitype/StillImage" />
      </cc:Work>
    </rdf:RDF>
  </metadata>
  <defs
     id="defs143" />
  <sodipodi:namedview
     pagecolor="#ffffff"
     bordercolor="#666666"
     borderopacity="1"
     objecttolerance="10"
     gridtolerance="10"
     guidetolerance="10"
     inkscape:pageopacity="0"
     inkscape:pageshadow="2"
     inkscape:window-width="640"
     inkscape:window-height="480"
     id="namedview141"
     showgrid="false"
     inkscape:zoom="2.5674196"
     inkscape:cx="42.105"
     inkscape:cy="50.245"
     inkscape:window-x="0"
     inkscape:window-y="0"
     inkscape:window-maximized="0"
     inkscape:current-layer="svg2" />
  <clipPath
     id="1035">
    <rect
       x="0.3"
       y="0.3"
       width="539.4"
       height="719.15"
       id="rect5" />
  </clipPath>
  <g
     id="drawing"
     transform="matrix(0.95374705,0,0,0.95374705,16.458881,6.9071841)">
    <path
       style="fill:#ffffff;fill-opacity:0"
       d="m 313.73999,99.089996 84.21,0 0,100.489994 -84.21,0 z"
       id="rect8"
       inkscape:connector-curvature="0" />
    <g
       id="page"
       clip-path="url(#1035)">
      <g
         id="Solid">
        <g
           id="Bond's parts">
          <path
             d="m 329.55,120.8 0,0 0.3,-0.05 0.05,0.2 0,0.4 -0.1,0.3 -0.1,0.4 -0.1,0.4 -0.1,0.4 -0.1,0.3 -0.1,0.4 -0.1,0.4 -0.1,0.4 -0.1,0.3 -0.05,0.2 -0.6,0 0.05,-0.3 0.1,-0.3 0.1,-0.4 0.1,-0.4 0.1,-0.4 0.1,-0.3 0.1,-0.4 0.1,-0.4 0.1,-0.3 0.1,-0.4 0.05,-0.4 z"
             shape-rendering="geometricPrecision"
             id="path13"
             inkscape:connector-curvature="0"
             style="fill:#000000;fill-rule:evenodd;stroke:#000000;stroke-width:0;stroke-linejoin:miter" />
          <path
             d="m 327.25,128.65 0,0 0.67,0.05 -0.02,0.05 -0.1,0.4 -0.1,0.4 -0.1,0.3 -0.1,0.4 -0.1,0.4 -0.1,0.4 -0.1,0.3 -0.1,0.4 -0.1,0.4 -0.1,0.4 -0.1,0.3 -0.1,0.4 -0.1,0.4 -0.1,0.3 -0.1,0.4 -0.05,0.4 -0.2,-0.05 -0.23,-0.1 -0.07,-0.1 -0.05,-0.05 0,-0.2 0.1,-0.3 0.1,-0.4 0.1,-0.4 0.1,-0.4 0.1,-0.3 0.1,-0.4 0.1,-0.4 0.1,-0.3 0.1,-0.4 0.1,-0.4 0.1,-0.4 0.1,-0.3 0.1,-0.4 z"
             shape-rendering="geometricPrecision"
             id="path15"
             inkscape:connector-curvature="0"
             style="fill:#000000;fill-rule:evenodd;stroke:#000000;stroke-width:0;stroke-linejoin:miter" />
        </g>
      </g>
      <g
         id="g17">
        <g
           style="text-anchor:start"
           id="text19">
          <path
             d="m 314.50171,116.65 0,-7.1582 0.97168,0 3.75976,5.62012 0,-5.62012 0.90821,0 0,7.1582 -0.97168,0 -3.75977,-5.625 0,5.625 z"
             style="font-size:10px;fill:#000000;font-family:Arial"
             id="path3124"
             inkscape:connector-curvature="0" />
        </g>
      </g>
      <g
         id="g23">
        <path
           d="m 318.01,116.72 0,0 0.29,-0.07 0.29,-0.08 2.71,10.12 -0.23,0.3 -0.31,0 z"
           shape-rendering="geometricPrecision"
           id="path25"
           inkscape:connector-curvature="0"
           style="fill:#000000;fill-rule:evenodd;stroke:#000000;stroke-width:0;stroke-linejoin:miter" />
      </g>
      <g
         id="g27">
        <path
           d="m 321.3,127.29 0,0 -0.23,-0.3 0.23,-0.3 14.25,0.08 -0.08,0.3 -0.08,0.3 z"
           shape-rendering="geometricPrecision"
           id="path29"
           inkscape:connector-curvature="0"
           style="fill:#000000;fill-rule:evenodd;stroke:#000000;stroke-width:0;stroke-linejoin:miter" />
      </g>
      <g
         id="g31">
        <path
           d="m 335.39,127.37 0,0 0.08,-0.3 0.08,-0.3 11.78,7.07 0.48,0.64 -0.3,0.17 z"
           shape-rendering="geometricPrecision"
           id="path33"
           inkscape:connector-curvature="0"
           style="fill:#000000;fill-rule:evenodd;stroke:#000000;stroke-width:0;stroke-linejoin:miter" />
      </g>
      <g
         id="g35">
        <path
           d="m 348.11,134.44 0,0 -0.3,0.04 -0.48,-0.64 -3.41,-12.74 0.23,-0.3 0.23,-0.3 z"
           shape-rendering="geometricPrecision"
           id="path37"
           inkscape:connector-curvature="0"
           style="fill:#000000;fill-rule:evenodd;stroke:#000000;stroke-width:0;stroke-linejoin:miter" />
      </g>
      <g
         id="g39">
        <path
           d="m 344.38,120.5 0,0 -0.23,0.3 -0.23,0.3 -13.94,-0.08 -0.23,-0.3 0.09,-0.3 z"
           shape-rendering="geometricPrecision"
           id="path41"
           inkscape:connector-curvature="0"
           style="fill:#000000;fill-rule:evenodd;stroke:#000000;stroke-width:0;stroke-linejoin:miter" />
      </g>
      <g
         id="g43">
        <path
           d="m 329.84,120.42 0,0 -0.09,0.3 -0.35,0.14 -7.99,-4.93 0.15,-0.25 0.16,-0.26 z"
           shape-rendering="geometricPrecision"
           id="path45"
           inkscape:connector-curvature="0"
           style="fill:#000000;fill-rule:evenodd;stroke:#000000;stroke-width:0;stroke-linejoin:miter" />
      </g>
      <g
         id="g47">
        <path
           d="m 320.76,126.99 0,0 0.31,0 0.23,0.3 -3.45,12.87 -0.51,0.74 -0.51,0.74 z"
           shape-rendering="geometricPrecision"
           id="path49"
           inkscape:connector-curvature="0"
           style="fill:#000000;fill-rule:evenodd;stroke:#000000;stroke-width:0;stroke-linejoin:miter" />
      </g>
      <g
         id="g51">
        <path
           d="m 325.76,134.45 0,0 0.26,0.18 0.26,0.18 -9.45,6.83 0.51,-0.74 0.51,-0.74 z"
           shape-rendering="geometricPrecision"
           id="path53"
           inkscape:connector-curvature="0"
           style="fill:#000000;fill-rule:evenodd;stroke:#000000;stroke-width:0;stroke-linejoin:miter" />
      </g>
      <g
         id="g55">
        <path
           d="m 319,108.03 0,0 -0.29,-0.08 -0.29,-0.07 2.36,-8.79 0.29,0.08 0.29,0.08 z"
           shape-rendering="geometricPrecision"
           id="path57"
           inkscape:connector-curvature="0"
           style="fill:#000000;fill-rule:evenodd;stroke:#000000;stroke-width:0;stroke-linejoin:miter" />
      </g>
      <g
         id="g59">
        <g
           style="text-anchor:start"
           id="text61">
          <path
             d="m 344.3934,149.06367 c 0,-1.18814 0.31901,-2.11832 0.95703,-2.79052 0.63802,-0.6722 1.46159,-1.0083 2.47071,-1.0083 0.6608,0 1.2565,0.15788 1.78711,0.47363 0.53059,0.31576 0.93505,0.75603 1.21337,1.3208 0.27832,0.56478 0.41748,1.20525 0.41749,1.92139 -10e-6,0.72591 -0.1465,1.37532 -0.43946,1.94824 -0.29297,0.57292 -0.70801,1.00667 -1.24512,1.30127 -0.53711,0.2946 -1.11654,0.44189 -1.73828,0.44189 -0.67383,0 -1.27604,-0.16276 -1.80664,-0.48828 -0.5306,-0.32552 -0.93262,-0.76985 -1.20605,-1.33301 -0.27344,-0.56314 -0.41016,-1.15885 -0.41016,-1.78711 z m 0.97656,0.0146 c 0,0.86264 0.23194,1.54216 0.69581,2.03858 0.46386,0.49642 1.04573,0.74463 1.7456,0.74463 0.71289,0 1.29964,-0.25065 1.76025,-0.75196 0.46061,-0.5013 0.69092,-1.21256 0.69092,-2.13379 0,-0.58267 -0.0985,-1.0913 -0.29541,-1.52587 -0.19694,-0.43457 -0.48503,-0.77148 -0.86426,-1.01075 -0.37923,-0.23925 -0.80485,-0.35888 -1.27685,-0.35888 -0.67058,0 -1.24756,0.23031 -1.73096,0.69091 -0.4834,0.46062 -0.7251,1.22966 -0.7251,2.30713 z"
             style="font-size:10px;fill:#000000;font-family:Arial"
             id="path3127"
             inkscape:connector-curvature="0" />
        </g>
      </g>
      <g
         id="g65">
        <path
           d="m 347.51,134.65 0,0 0.3,-0.17 0.3,-0.04 0,9.26 -0.3,0 -0.3,0 z"
           shape-rendering="geometricPrecision"
           id="path67"
           inkscape:connector-curvature="0"
           style="fill:#000000;fill-rule:evenodd;stroke:#000000;stroke-width:0;stroke-linejoin:miter" />
      </g>
      <g
         id="g69">
        <path
           d="m 352.34,151.84 0,0 0.15,-0.26 0.15,-0.26 7.65,4.41 0,0.35 -0.3,0.17 z"
           shape-rendering="geometricPrecision"
           id="path71"
           inkscape:connector-curvature="0"
           style="fill:#000000;fill-rule:evenodd;stroke:#000000;stroke-width:0;stroke-linejoin:miter" />
      </g>
      <g
         id="g73">
        <path
           d="m 360.59,156.25 0,0 -0.3,-0.17 0,-0.35 12.12,-7 0.3,0.17 0,0.35 z"
           shape-rendering="geometricPrecision"
           id="path75"
           inkscape:connector-curvature="0"
           style="fill:#000000;fill-rule:evenodd;stroke:#000000;stroke-width:0;stroke-linejoin:miter" />
      </g>
      <g
         id="g77">
        <path
           d="m 359.99,156.25 0,0 0.3,-0.17 0.3,0.17 0,14.01 -0.3,0.17 -0.3,-0.17 z"
           shape-rendering="geometricPrecision"
           id="path79"
           inkscape:connector-curvature="0"
           style="fill:#000000;fill-rule:evenodd;stroke:#000000;stroke-width:0;stroke-linejoin:miter" />
      </g>
      <g
         id="g81">
        <path
           d="m 359.99,170.26 0,0 0.3,0.17 0,0.35 -12.18,7.02 -0.3,-0.17 -0.3,-0.17 z"
           shape-rendering="geometricPrecision"
           id="path83"
           inkscape:connector-curvature="0"
           style="fill:#000000;fill-rule:evenodd;stroke:#000000;stroke-width:0;stroke-linejoin:miter" />
        <path
           style="stroke:#000000;stroke-width:0.60000002"
           d="m 360.29001,173.42 -9.89002,5.71"
           id="line85"
           inkscape:connector-curvature="0" />
      </g>
      <g
         id="g87">
        <path
           d="m 347.51,177.46 0,0 0.3,0.17 0.3,0.17 0,14.06 -0.3,0.17 -0.3,0.17 z"
           shape-rendering="geometricPrecision"
           id="path89"
           inkscape:connector-curvature="0"
           style="fill:#000000;fill-rule:evenodd;stroke:#000000;stroke-width:0;stroke-linejoin:miter" />
      </g>
      <g
         id="g91">
        <path
           d="m 347.51,192.2 0,0 0.3,-0.17 0.3,-0.17 12.18,7.02 0,0.35 0,0.35 z"
           shape-rendering="geometricPrecision"
           id="path93"
           inkscape:connector-curvature="0"
           style="fill:#000000;fill-rule:evenodd;stroke:#000000;stroke-width:0;stroke-linejoin:miter" />
        <path
           style="stroke:#000000;stroke-width:0.60000002"
           d="m 350.39999,190.53 9.89002,5.71001"
           id="line95"
           inkscape:connector-curvature="0" />
      </g>
      <g
         id="g97">
        <path
           d="m 360.29,199.58 0,0 0,-0.35 0,-0.35 12.17,-7.02 0.3,0.17 0.3,0.17 z"
           shape-rendering="geometricPrecision"
           id="path99"
           inkscape:connector-curvature="0"
           style="fill:#000000;fill-rule:evenodd;stroke:#000000;stroke-width:0;stroke-linejoin:miter" />
      </g>
      <g
         id="g101">
        <path
           d="m 373.06,192.2 0,0 -0.3,-0.17 -0.3,-0.17 0,-14.06 0.3,-0.17 0.3,-0.17 z"
           shape-rendering="geometricPrecision"
           id="path103"
           inkscape:connector-curvature="0"
           style="fill:#000000;fill-rule:evenodd;stroke:#000000;stroke-width:0;stroke-linejoin:miter" />
        <path
           style="stroke:#000000;stroke-width:0.60000002"
           d="m 370.17001,190.53 0,-11.4"
           id="line105"
           inkscape:connector-curvature="0" />
      </g>
      <g
         id="g107">
        <path
           d="m 373.06,177.46 0,0 -0.3,0.17 -0.3,0.17 -12.17,-7.02 0,-0.35 0.3,-0.17 z"
           shape-rendering="geometricPrecision"
           id="path109"
           inkscape:connector-curvature="0"
           style="fill:#000000;fill-rule:evenodd;stroke:#000000;stroke-width:0;stroke-linejoin:miter" />
      </g>
      <g
         id="g111">
        <path
           d="m 372.71,149.25 0,0 0,-0.35 0.3,-0.17 12.17,7.02 0,0.35 0,0.35 z"
           shape-rendering="geometricPrecision"
           id="path113"
           inkscape:connector-curvature="0"
           style="fill:#000000;fill-rule:evenodd;stroke:#000000;stroke-width:0;stroke-linejoin:miter" />
        <path
           style="stroke:#000000;stroke-width:0.60000002"
           d="m 375.29999,147.39999 9.88,5.71001"
           id="line115"
           inkscape:connector-curvature="0" />
      </g>
      <g
         id="g117">
        <path
           d="m 385.18,156.45 0,0 0,-0.35 0,-0.35 12.17,-7.02 0.3,0.17 0.3,0.17 z"
           shape-rendering="geometricPrecision"
           id="path119"
           inkscape:connector-curvature="0"
           style="fill:#000000;fill-rule:evenodd;stroke:#000000;stroke-width:0;stroke-linejoin:miter" />
      </g>
      <g
         id="g121">
        <path
           d="m 397.95,149.07 0,0 -0.3,-0.17 -0.3,-0.17 0,-14.06 0.3,-0.17 0.3,-0.17 z"
           shape-rendering="geometricPrecision"
           id="path123"
           inkscape:connector-curvature="0"
           style="fill:#000000;fill-rule:evenodd;stroke:#000000;stroke-width:0;stroke-linejoin:miter" />
        <path
           style="stroke:#000000;stroke-width:0.60000002"
           d="M 395.06,147.39999 395.06,136"
           id="line125"
           inkscape:connector-curvature="0" />
      </g>
      <g
         id="g127">
        <path
           d="m 397.95,134.33 0,0 -0.3,0.17 -0.3,0.17 -12.17,-7.02 0,-0.35 0,-0.35 z"
           shape-rendering="geometricPrecision"
           id="path129"
           inkscape:connector-curvature="0"
           style="fill:#000000;fill-rule:evenodd;stroke:#000000;stroke-width:0;stroke-linejoin:miter" />
      </g>
      <g
         id="g131">
        <path
           d="m 385.18,126.95 0,0 0,0.35 0,0.35 -12.17,7.02 -0.3,-0.17 -0.3,-0.17 z"
           shape-rendering="geometricPrecision"
           id="path133"
           inkscape:connector-curvature="0"
           style="fill:#000000;fill-rule:evenodd;stroke:#000000;stroke-width:0;stroke-linejoin:miter" />
        <path
           style="stroke:#000000;stroke-width:0.60000002"
           d="M 385.17999,130.28999 375.29999,136"
           id="line135"
           inkscape:connector-curvature="0" />
      </g>
      <g
         id="g137">
        <path
           d="m 372.41,134.33 0,0 0.3,0.17 0.3,0.17 0,14.06 -0.3,0.17 -0.3,-0.17 z"
           shape-rendering="geometricPrecision"
           id="path139"
           inkscape:connector-curvature="0"
           style="fill:#000000;fill-rule:evenodd;stroke:#000000;stroke-width:0;stroke-linejoin:miter" />
      </g>
    </g>
  </g>
</svg>
