<?xml version="1.0" encoding="iso-8859-1"?>
<!-- Generator: Adobe Illustrator 19.1.0, SVG Export Plug-In . SVG Version: 6.00 Build 0)  -->
<svg version="1.1" id="&#x421;&#x43B;&#x43E;&#x439;_1"
	 xmlns="http://www.w3.org/2000/svg" xmlns:xlink="http://www.w3.org/1999/xlink" x="0px" y="0px" viewBox="0 0 586.205 365.272"
	 style="enable-background:new 0 0 586.205 365.272;" xml:space="preserve" width="586.205" height="365.272">
<g>
	<rect x="273.351" y="184.706" width="2.4" height="31.591"/>
	<rect x="311.01" y="226.504" transform="matrix(-0.866 0.5 -0.5 -0.866 736.7756 257.9898)" width="45.628" height="2.4"/>
	<rect x="311.01" y="158.062" transform="matrix(0.866 0.5 -0.5 0.866 124.355 -145.5751)" width="45.628" height="2.4"/>
	<rect x="423" y="257.069" width="2.4" height="45.628"/>
	<rect x="482.273" y="291.29" transform="matrix(-0.4995 -0.8663 0.8663 -0.4995 452.8706 889.8388)" width="2.4" height="45.628"/>
	<path d="M514.799,253.083v-2l0.001-0.693l-0.602-0.347l-48.151-27.8l-1.732-1l-0.599-0.346l-0.599,0.346l-1.732,1l-47.552,27.454
		l-47.551-27.454l-1.132-0.653v-54.907v-1.079l52.815-14.152v0l1.932-0.518l0.481-0.127l0.249-0.433l1-1.732l26.8-46.419l0,0
		l1-1.732l0.248-0.429l-0.128-0.48l-14.908-55.637l-0.128-0.481l-0.432-0.25l-48.151-27.8l0,0l-1.732-1l-0.429-0.248l-0.48,0.128
		l-1.932,0.518v0l-53.705,14.39l-0.481,0.128l-0.249,0.432l-1,1.732l0,0l-26.8,46.419h0l-1,1.732l-0.248,0.429l0.128,0.48
		l0.518,1.932l13.873,51.774l0.28,1.044l-32.293,18.644l1.199,2.079l32.491-18.759l48.683,28.107v1.307v54.907l-1.132,0.653
		l-47.552,27.454l-1.133-0.654l-47.551-27.453v-1.307v-35.577h-2.4v35.577v1.307l-32.49,18.758l1.199,2.079l32.491-18.759
		l47.552,27.454l1.732,1l0.599,0.346l0.599-0.346l1.732-1l47.552-27.454l47.552,27.454l1.132,0.653v1.307v53.6v2l-0.001,0.693
		l0.602,0.347l1.732,1l46.419,26.8l0,0l1.732,1l0.599,0.346l0.599-0.346l1.732-1l0,0l47.552-27.454l35.186,20.315l1.199-2.079
		l-35.185-20.314V253.083z M316.398,135.843L316.398,135.843l-1.301-0.751l-0.389-1.45h0l-14.262-53.227l0.752-1.302h0l26.8-46.419
		h0l0.751-1.301l53.224-14.261v0l1.453-0.389l1.302,0.752l0,0l47.72,27.551l0.389,1.451l14.262,53.226l-27.552,47.721l-0.751,1.301
		l-1.45,0.389v0l-53.227,14.262L316.398,135.843z M512.399,253.083v54.907l-47.55,27.453l0,0l-1.133,0.654l-1.133-0.654l0,0
		l-46.419-26.8l-1.131-0.653v-1.307v-53.6v-1.307l48.683-28.107l48.683,28.107V253.083z"/>
	
		<rect x="482.273" y="222.848" transform="matrix(-0.4996 0.8663 -0.8663 -0.4996 937.8163 -50.4262)" width="2.4" height="45.628"/>
	<polygon points="115.734,253.083 115.734,251.776 164.417,223.668 196.908,242.427 198.107,240.348 166.749,222.243 
		166.749,222.243 165.017,221.243 164.417,220.897 163.818,221.243 162.086,222.243 113.935,250.043 113.334,250.388 
		113.334,251.083 113.334,253.083 113.334,287.722 115.734,287.722 	"/>
	<polygon points="213.1,306.683 213.1,307.99 211.969,308.643 165.55,335.443 165.55,335.443 164.417,336.097 163.285,335.443 
		163.284,335.443 131.926,317.338 130.727,319.417 162.086,337.522 162.086,337.522 163.818,338.522 164.417,338.868 
		165.017,338.522 166.749,337.522 166.749,337.522 213.168,310.722 214.9,309.722 215.5,309.377 215.5,308.683 215.5,306.683 
		215.5,271.106 213.1,271.106 	"/>
	<polygon points="97.142,317.338 65.784,335.443 65.784,335.443 64.651,336.097 63.518,335.443 63.518,335.443 15.367,307.643 
		14.168,309.722 62.32,337.522 62.32,337.522 64.052,338.522 64.651,338.868 65.25,338.522 66.983,337.522 66.982,337.522 
		98.341,319.417 	"/>
	<polygon points="256.41,156.255 256.586,156.255 272.015,178.306 275.433,178.306 275.433,150.122 271.957,150.122 
		271.957,172.251 271.781,172.251 256.351,150.122 252.933,150.122 252.933,178.306 256.41,178.306 	"/>
	<polygon points="572.036,326.086 572.036,322.922 554.927,322.922 554.927,351.106 558.443,351.106 558.443,338.899 
		570.923,338.899 570.923,335.774 558.443,335.774 558.443,326.086 	"/>
	<polygon points="222.074,258.651 221.898,258.651 206.468,236.522 203.05,236.522 203.05,264.706 206.527,264.706 206.527,242.655 
		206.702,242.655 222.132,264.706 225.55,264.706 225.55,236.522 222.074,236.522 	"/>
	<polygon points="122.307,316.251 122.132,316.251 106.702,294.122 103.284,294.122 103.284,322.306 106.761,322.306 
		106.761,300.255 106.937,300.255 122.366,322.306 125.784,322.306 125.784,294.122 122.307,294.122 	"/>
</g>
</svg>
