<?xml version="1.0" encoding="utf-8"?>
<!-- Generator: Adobe Illustrator 21.0.0, SVG Export Plug-In . SVG Version: 6.00 Build 0)  -->
<svg version="1.1" id="Слой_1" xmlns="http://www.w3.org/2000/svg" xmlns:xlink="http://www.w3.org/1999/xlink" x="0px" y="0px"
	 viewBox="0 0 760.6 955.4" style="enable-background:new 0 0 760.6 955.4;" xml:space="preserve" width="760.6" height="955.4">
<g>
	<path d="M493.7,293.6l35.3-12.8l0,0l1.2-0.4l0.9,0.9l0,0l37.5,36.1l-0.3,1.3l0,0l-10.7,54.3l-0.2,1.1l0.8,0.4v0l49.3,28.5v1.3v54.9
		l-32.8,18.8l1.2,2.1l32.9-18.8l48.3,24.7l5,30.9l2.4-0.4l-5.2-31.8l7.1-5.8l5.9,36.4l2.4-0.4l-6.2-37.8l23.4-19.1l-1.5-1.9l-22,18
		l-58.5-15v-54.7v-2v-0.7l-0.6-0.3l0,0l-0.4-0.2l-1.3-0.8l0,0L561,373.4l0,0l-1-0.6l0.2-1.1l0,0l10.8-54.5l0.1-0.7l-0.5-0.5l0,0
		l-0.2-0.2l-1.2-1.2l0,0l-38-36.5l0,0l-0.5-0.5l-0.8,0.3l-37.1,13.5L493.7,293.6z M608.6,459.8L608.6,459.8L608.6,459.8L608.6,459.8
		z"/>
	<polygon points="455.1,622.9 457.1,622.9 457.8,622.9 459.1,620.6 459.1,620.6 460.1,618.9 478.7,651.1 480.7,649.9 461.5,616.5 
		475.7,591.8 473.7,590.6 456.4,620.5 455.1,620.5 398.3,620.5 397,620.5 379.7,590.6 377.6,591.8 394.2,620.6 394.2,620.6 
		395.6,622.9 396.3,622.9 398.3,622.9 450.4,622.9 469.7,656.3 471.8,655.1 453.2,622.9 	"/>
	<polygon points="214.8,481.7 216,483.8 249.9,464.1 277.6,480 278.8,477.9 247,459.7 247,459.7 245.9,459.1 245.9,457.8 
		245.9,404.2 245.9,402.9 278.7,383.9 277.5,381.9 245.9,400.2 245.9,400.2 243.5,401.5 243.5,402.2 243.5,404.2 243.5,453.1 
		209.6,472.7 210.8,474.8 243.5,455.9 243.5,457.8 243.5,459.8 243.5,460.5 244.2,460.9 247.5,462.8 	"/>
	<polygon points="391.6,626 394.9,627.8 395.8,625.6 393.1,624 	"/>
	<polygon points="374.5,649.3 383.2,654.4 384.2,652.2 375.9,647.4 	"/>
	<polygon points="380.2,641.5 387.1,645.5 388.1,643.3 381.6,639.6 	"/>
	<polygon points="385.9,633.7 391,636.7 391.9,634.5 387.3,631.8 	"/>
	<polygon points="363,664.9 375.5,672.1 376.5,669.9 364.4,662.9 	"/>
	<polygon points="380.3,661 370.1,655.1 368.7,657.1 379.3,663.2 	"/>
	<polygon points="368.5,671 366.4,672.2 394.2,720.3 394.2,720.3 394.9,721.5 394.2,722.6 394.2,722.6 366.5,770.7 366.1,771.3 
		367.4,773.7 367.4,773.7 383.5,801.5 385.5,800.3 368.8,771.4 369.5,770.2 369.5,770.2 397.3,722.1 397.3,722.1 397.6,721.5 
		397.3,720.9 397.3,720.9 	"/>
	<polygon points="385.5,900.1 368.8,871.1 369.5,870 369.5,870 386.1,841.2 384,840 369.7,864.7 327.2,864.7 327.2,867.1 
		368.4,867.1 366.4,870.5 366.4,870.5 366.1,871.1 367.4,873.5 367.4,873.5 368.4,875.1 327.2,875.1 327.2,877.5 369.8,877.5 
		383.5,901.3 	"/>
	<polygon points="145,681.1 147.3,681.8 160.2,638 157.9,637.3 	"/>
	<rect x="177" y="707.9" transform="matrix(0.9718 -0.2357 0.2357 0.9718 -161.4904 67.0729)" width="45.6" height="2.4"/>
	<rect x="217.9" y="620.6" transform="matrix(0.7231 -0.6907 0.6907 0.7231 -383.7517 329.4807)" width="2.4" height="45.6"/>
	<polygon points="209.3,374.7 203.2,385.3 205.4,386.2 211.3,376.1 	"/>
	<polygon points="203.5,370.3 201.6,368.9 194.4,381.4 196.6,382.4 	"/>
	<polygon points="238.6,400.8 240.8,401.7 242.4,399 240.5,397.5 	"/>
	<polygon points="232,397.9 234.7,393.3 232.7,391.8 229.8,396.9 	"/>
	<polygon points="223.1,394 226.9,387.5 224.9,386.1 220.9,393 	"/>
	<polygon points="214.3,390.1 219.1,381.8 217.1,380.4 212.1,389.1 	"/>
	<rect x="74.6" y="446" width="34.2" height="2.4"/>
	<polygon points="145.1,403.6 195.5,374.4 194.3,372.3 144.1,401.3 99.8,369.1 99.8,369.1 97.5,367.4 95.1,369.1 95.1,369.1 
		66.3,390.1 67.7,392 97.5,370.4 97.8,370.6 142.6,403.2 131.9,436.3 134.2,437 	"/>
	<rect x="113.4" y="371.4" transform="matrix(0.5877 -0.8091 0.8091 0.5877 -271.6985 255.2946)" width="2.4" height="45.6"/>
	<polygon points="543.7,598.7 538.5,600.1 538.9,602.5 544.6,600.9 	"/>
	<polygon points="558.1,634.5 544.8,638.3 545.2,640.7 559.1,636.8 	"/>
	<polygon points="554.5,625.6 543.2,628.7 543.6,631.1 555.4,627.8 	"/>
	<polygon points="540.1,589.8 537,590.6 537.3,593 540.9,592 	"/>
	<polygon points="550.9,616.6 541.7,619.2 542.1,621.6 551.8,618.9 	"/>
	<polygon points="547.3,607.7 540.1,609.7 540.5,612.1 548.2,609.9 	"/>
	<polygon points="632.6,721.3 609.8,760.8 611.9,762 634.7,722.5 	"/>
	<rect x="633.6" y="799.7" width="45.6" height="2.4"/>
	<polygon points="703.1,760.8 680.3,721.3 678.2,722.5 701,762 	"/>
	<polygon points="621.5,662.6 658.4,635.8 657,633.9 620.1,660.7 	"/>
	<polygon points="226.4,226.2 254.2,201.2 254.6,203.1 254.6,203.1 255,205 255,205 255,205 255.2,205.7 257.7,206.6 257.7,206.5 
		259.5,207.1 231.7,232.1 233.3,233.9 262.1,208 293.5,218.2 294.2,215.9 257.2,203.9 245.5,148.9 246.5,148 246.5,148 272.1,125 
		270.5,123.2 243.5,147.5 242.9,148 243.4,150.6 243.5,150.6 253.6,198.5 224.8,224.4 	"/>
	<polygon points="241.3,145.8 239.1,144.8 237.9,148.3 240.3,148.9 	"/>
	<polygon points="221.4,144.9 223.7,137.8 221.5,136.8 219,144.4 	"/>
	<polygon points="209.6,142.5 211.9,143 214.9,133.9 212.7,132.9 	"/>
	<polygon points="206.1,129.9 203.9,128.9 200.1,140.5 202.5,141 	"/>
	<polygon points="197.3,125.9 195.1,124.9 190.7,138.6 193,139.1 	"/>
	<polygon points="230.3,140.8 228.5,146.4 230.9,146.9 232.5,141.8 	"/>
	<polygon points="281.4,89.1 283.7,88.6 276.4,54 318.7,16 317.1,14.2 279.3,48.2 241.9,36.1 241.2,38.4 277.2,50.1 275.8,51.4 
		275.8,51.3 273.8,53.2 274.3,55.8 274.3,55.8 274.7,57.6 238.7,45.9 238,48.2 275.3,60.4 	"/>
	<polygon points="49.8,190.7 92.1,152.7 146.2,170.3 146.9,170.5 147.4,170 147.4,170 190.3,131.5 188.7,129.7 147.3,166.9 
		147.3,166.9 146.3,167.8 145.1,167.4 145.1,167.4 94.1,150.8 94.1,150.8 91.6,150 91.1,150.4 91.1,150.4 91,150.5 89.6,151.7 
		89.6,151.7 48.2,188.9 	"/>
	<polygon points="378.4,557 374.8,557 374.8,579.3 374.7,579.3 360.4,557 356.5,557 356.5,585.7 360.1,585.7 360.1,563.3 
		360.1,563.3 374.5,585.7 378.4,585.7 	"/>
	<polygon points="356.6,524.4 356.6,553 360.4,553 360.4,539.5 374.5,539.5 374.5,553 378.3,553 378.3,524.4 374.5,524.4 
		374.5,536.1 360.4,536.1 360.4,524.4 	"/>
	<path d="M307.3,628.9c-3.1-1.8-7-1.8-7-1.8c-3.9,0-7,1.8-7,1.8c-3.2,1.8-4.9,5.2-4.9,5.2c-1.8,3.4-1.8,7.8-1.8,7.8
		c0,4.3,1.8,7.7,1.8,7.7c1.8,3.4,4.9,5.2,4.9,5.2c3.1,1.8,7.1,1.8,7.1,1.8c3.9,0,7-1.8,7-1.8c3.1-1.8,4.9-5.2,4.9-5.2
		c1.8-3.4,1.8-7.8,1.8-7.8c0-4.5-1.8-7.8-1.8-7.8C310.4,630.8,307.3,628.9,307.3,628.9z M308.8,648.2c-1.2,2.6-3.5,4-3.5,4
		c-2.2,1.4-5,1.4-5,1.4c-2.8,0-5.1-1.4-5.1-1.4c-2.2-1.4-3.4-4-3.4-4c-1.3-2.6-1.3-6.1-1.3-6.1c0-3.6,1.2-6.3,1.2-6.3
		c1.2-2.6,3.4-4,3.4-4c2.2-1.4,5.1-1.4,5.1-1.4c2.9,0,5.1,1.4,5.1,1.4c2.2,1.4,3.4,4,3.4,4c1.2,2.6,1.2,6.2,1.2,6.2
		C310,645.6,308.8,648.2,308.8,648.2z"/>
	<polygon points="287.3,479.9 287.4,479.9 301.8,502.3 305.7,502.3 305.7,473.6 302.1,473.6 302.1,496 302,496 287.6,473.6 
		283.7,473.6 283.7,502.3 287.3,502.3 	"/>
	<polygon points="331.3,502.3 331.3,473.6 327.5,473.6 327.5,485.4 313.5,485.4 313.5,473.6 309.7,473.6 309.7,502.3 313.5,502.3 
		313.5,488.8 327.5,488.8 327.5,502.3 	"/>
	<polygon points="478.5,563.3 478.6,563.3 493,585.7 496.9,585.7 496.9,557 493.3,557 493.3,579.3 493.2,579.3 478.8,557 474.9,557 
		474.9,585.7 478.5,585.7 	"/>
	<polygon points="496.7,553 496.7,524.4 492.9,524.4 492.9,536.1 478.9,536.1 478.9,524.4 475.1,524.4 475.1,553 478.9,553 
		478.9,539.5 492.9,539.5 492.9,553 	"/>
	<path d="M492.9,658.3c-3.1-1.8-7-1.8-7-1.8c-3.9,0-7,1.8-7,1.8c-3.2,1.8-4.9,5.2-4.9,5.2c-1.8,3.4-1.8,7.8-1.8,7.8
		c0,4.3,1.8,7.7,1.8,7.7c1.8,3.4,4.9,5.2,4.9,5.2c3.1,1.8,7.1,1.8,7.1,1.8c3.9,0,7-1.8,7-1.8c3.1-1.8,4.9-5.2,4.9-5.2
		c1.8-3.4,1.8-7.8,1.8-7.8c0-4.5-1.8-7.8-1.8-7.8C496,660.2,492.9,658.3,492.9,658.3z M494.4,677.6c-1.2,2.6-3.5,4-3.5,4
		c-2.2,1.4-5,1.4-5,1.4c-2.8,0-5.1-1.4-5.1-1.4c-2.2-1.4-3.4-4-3.4-4c-1.3-2.6-1.3-6.1-1.3-6.1c0-3.6,1.2-6.3,1.2-6.3
		c1.2-2.6,3.4-4,3.4-4c2.2-1.4,5.1-1.4,5.1-1.4c2.9,0,5.1,1.4,5.1,1.4c2.2,1.4,3.4,4,3.4,4c1.2,2.6,1.2,6.2,1.2,6.2
		C495.7,675,494.4,677.6,494.4,677.6z"/>
	<polygon points="537.9,588.1 538.4,587.6 538.4,587.6 538.5,587.5 539.8,586.1 539.8,586.1 570.9,552.2 609,561.5 609.6,559.2 
		572.7,550.2 575.3,547.4 575.3,547.4 575.8,546.9 575.1,544.3 575.1,544.3 574.6,542.5 611.5,551.4 612,549.1 573.9,539.8 
		565.3,508.1 562.9,508.8 573.1,546.2 572.2,547.2 572.2,547.2 537.2,585.4 536,585 536,585 503.3,575.6 502.7,577.9 537.1,587.9 	
		"/>
	<path d="M187.9,501.3c3.2,1.8,7.1,1.8,7.1,1.8c3.9,0,7-1.8,7-1.8c3.1-1.8,4.9-5.2,4.9-5.2c1.8-3.4,1.8-7.8,1.8-7.8
		c0-4.5-1.8-7.8-1.8-7.8c-1.8-3.3-4.9-5.2-4.9-5.2c-3.1-1.8-7-1.8-7-1.8c-3.9,0-7,1.8-7,1.8c-3.2,1.8-4.9,5.2-4.9,5.2
		c-1.8,3.4-1.8,7.8-1.8,7.8c0,4.3,1.8,7.7,1.8,7.7C184.7,499.5,187.9,501.3,187.9,501.3z M186.3,482.2c1.2-2.6,3.4-4,3.4-4
		c2.2-1.4,5.1-1.4,5.1-1.4c2.9,0,5.1,1.4,5.1,1.4c2.2,1.4,3.5,4,3.5,4c1.2,2.6,1.2,6.2,1.2,6.2c0,3.6-1.2,6.2-1.2,6.2
		c-1.2,2.6-3.5,4-3.5,4c-2.2,1.4-5,1.4-5,1.4c-2.8,0-5.1-1.4-5.1-1.4c-2.2-1.4-3.4-4-3.4-4c-1.2-2.6-1.2-6.1-1.2-6.1
		C185.1,484.9,186.3,482.2,186.3,482.2z"/>
	<path d="M246,654.8L246,654.8L208,615.1l14.3-48.9l56.2-18.3l31.8,34.7L300,619.4l2.3,0.6l9.9-35.4l1.3,1.4l0,0l1.9,2l0.7-0.2l0,0
		l3.8-1.1l-9.9,35.4l2.3,0.6l10.3-36.8l28-8.1l-0.7-2.3l-32.6,9.4l0,0l-1.2,0.4l-0.9-0.9l0,0l-35.1-38.3l10.2-37.4l-2.3-0.6
		l-10.2,37.3l-54,7.1l-2.1,7.3l0,0l-16,54.6l-53.3,13v0l-0.2,0.1l-1.7,0.4l0,0l-0.7,0.2l-0.2,0.7l0,0l-15.6,53.4l0,0l-0.5,1.8l0,0.1
		h0l-0.2,0.7l0.6,0.6l39.5,41.4l0.6,0.7l0.7-0.2l0,0l54-13.1l0,0l1.6-0.4l0.3-0.1l0,0l0.7-0.2l0.2-0.7l0,0l0,0l0.6-1.9l0,0
		l15.1-51.5l0,0l0.4-1.5l0.1-0.5l0,0l0.2-0.7L246,654.8z M176,724.3l-1.1,0.3l-0.2,0l-0.9-0.9l0,0l-37-38.8l0,0l-0.9-0.9l15.4-52.7
		l0,0l0.2-0.9l0.1-0.4l54.6-13.3l38.8,40.6l-15.8,54L176,724.3L176,724.3z"/>
	<polygon points="403.6,828.8 403.5,828.8 389.2,806.4 385.3,806.4 385.3,835.1 388.9,835.1 388.9,812.7 388.9,812.7 403.3,835.1 
		407.2,835.1 407.2,806.4 403.6,806.4 	"/>
	<polygon points="429.1,818.2 415,818.2 415,806.4 411.2,806.4 411.2,835.1 415,835.1 415,821.6 429.1,821.6 429.1,835.1 
		432.9,835.1 432.9,806.4 429.1,806.4 	"/>
	<polygon points="287.3,364.8 287.3,364.8 301.7,387.2 305.6,387.2 305.6,358.5 302,358.5 302,380.9 301.9,380.9 287.5,358.5 
		283.7,358.5 283.7,387.2 287.3,387.2 	"/>
	<polygon points="309.6,358.5 309.6,387.2 313.4,387.2 313.4,373.7 327.5,373.7 327.5,387.2 331.3,387.2 331.3,358.5 327.5,358.5 
		327.5,370.3 313.4,370.3 313.4,358.5 	"/>
	<path d="M637.5,546.9c-3.1-1.8-7-1.8-7-1.8c-3.9,0-7,1.8-7,1.8c-3.1,1.8-4.9,5.2-4.9,5.2c-1.8,3.4-1.8,7.8-1.8,7.8
		c0,4.3,1.8,7.7,1.8,7.7c1.8,3.4,4.9,5.2,4.9,5.2c3.1,1.9,7,1.9,7,1.9c3.9,0,7-1.8,7-1.8c3.1-1.8,4.9-5.2,4.9-5.2
		c1.8-3.4,1.8-7.8,1.8-7.8c0-4.5-1.8-7.8-1.8-7.8C640.6,548.7,637.5,546.9,637.5,546.9z M638.9,566.1c-1.2,2.6-3.4,4-3.4,4
		c-2.2,1.4-5.1,1.4-5.1,1.4c-2.8,0-5-1.4-5-1.4c-2.2-1.4-3.5-4-3.5-4c-1.2-2.6-1.2-6.1-1.2-6.1c0-3.6,1.2-6.3,1.2-6.3
		c1.2-2.6,3.4-4,3.4-4c2.2-1.4,5.1-1.4,5.1-1.4c2.9,0,5.1,1.4,5.1,1.4c2.2,1.4,3.4,4,3.4,4c1.2,2.6,1.2,6.2,1.2,6.2
		C640.2,563.5,638.9,566.1,638.9,566.1z"/>
	<polygon points="565.9,496 551.6,473.6 547.7,473.6 547.7,502.3 551.3,502.3 551.3,479.9 551.3,479.9 565.7,502.3 569.6,502.3 
		569.6,473.6 566,473.6 566,496 	"/>
	<polygon points="543.7,502.3 543.7,473.6 539.9,473.6 539.9,485.4 525.8,485.4 525.8,473.6 522,473.6 522,502.3 525.8,502.3 
		525.8,488.8 539.9,488.8 539.9,502.3 	"/>
	<polygon points="403.6,928.5 403.5,928.5 389.2,906.2 385.3,906.2 385.3,934.8 388.9,934.8 388.9,912.5 388.9,912.5 403.3,934.8 
		407.2,934.8 407.2,906.2 403.6,906.2 	"/>
	<polygon points="429.1,917.9 415,917.9 415,906.2 411.2,906.2 411.2,934.8 415,934.8 415,921.3 429.1,921.3 429.1,934.8 
		432.9,934.8 432.9,906.2 429.1,906.2 	"/>
	<path d="M441.4,937.4c0.7-0.6,1.8-1.6,1.8-1.6l1.8-1.6c2.6-2.1,3.8-3.9,3.8-3.9c1.2-1.8,1.2-3.7,1.2-3.7c0-1.5-0.8-2.8-0.8-2.8
		c-0.7-1.3-2.2-2-2.2-2c-1.4-0.7-3.3-0.7-3.3-0.7c-1.8,0-3.2,0.7-3.2,0.7c-1.4,0.7-2.2,2-2.2,2c-0.8,1.3-1,3-1,3l2.6,0.4
		c0.1-2,1.2-3,1.2-3c1-1,2.8-1,2.8-1c1.1,0,1.9,0.5,1.9,0.5c0.9,0.4,1.4,1.2,1.4,1.2c0.5,0.8,0.5,1.8,0.5,1.8c0,1.4-1.1,2.8-1.1,2.8
		c-1,1.5-3.3,3.4-3.3,3.4l-1.6,1.3c-2.4,2-3.6,3.6-3.6,3.6c-1.2,1.7-1.2,3.4-1.2,3.4h13.3v-2.4h-9.9
		C440.8,938.1,441.4,937.4,441.4,937.4z"/>
	<polygon points="317.2,878.7 317.1,878.7 302.8,856.3 298.9,856.3 298.9,884.9 302.5,884.9 302.5,862.6 302.5,862.6 316.9,884.9 
		320.8,884.9 320.8,856.3 317.2,856.3 	"/>
	<polygon points="291.1,868.1 277,868.1 277,856.3 273.2,856.3 273.2,884.9 277,884.9 277,871.5 291.1,871.5 291.1,884.9 
		294.9,884.9 294.9,856.3 291.1,856.3 	"/>
	<polygon points="137.2,471.4 137.2,442.7 133.6,442.7 133.6,465.1 133.5,465.1 119.2,442.7 115.3,442.7 115.3,471.4 118.9,471.4 
		118.9,449 118.9,449 133.3,471.4 	"/>
	<path d="M216.7,291.5c-1.8,3.4-1.8,7.8-1.8,7.8c0,4.3,1.8,7.7,1.8,7.7c1.8,3.4,4.9,5.2,4.9,5.2c3.1,1.8,7,1.8,7,1.8
		c3.9,0,7-1.8,7-1.8c3.1-1.8,4.9-5.2,4.9-5.2c1.8-3.4,1.8-7.8,1.8-7.8c0-4.5-1.8-7.8-1.8-7.8c-1.8-3.3-4.9-5.2-4.9-5.2
		c-3.1-1.8-7-1.8-7-1.8c-3.9,0-7,1.8-7,1.8C218.4,288.2,216.7,291.5,216.7,291.5z M223.5,289.1c2.2-1.4,5.1-1.4,5.1-1.4
		c2.9,0,5.1,1.4,5.1,1.4c2.2,1.4,3.4,4,3.4,4c1.2,2.6,1.2,6.2,1.2,6.2c0,3.6-1.2,6.2-1.2,6.2c-1.2,2.6-3.5,4-3.5,4
		c-2.2,1.4-5.1,1.4-5.1,1.4c-2.8,0-5-1.4-5-1.4c-2.2-1.4-3.4-4-3.4-4c-1.3-2.6-1.3-6.1-1.3-6.1c0-3.6,1.2-6.3,1.2-6.3
		C221.3,290.5,223.5,289.1,223.5,289.1z"/>
	<polygon points="695.7,648.2 695.7,648.2 710.1,670.6 714,670.6 714,641.9 710.4,641.9 710.4,664.3 710.3,664.3 696,641.9 
		692.1,641.9 692.1,670.6 695.7,670.6 	"/>
	<polygon points="735.9,653.7 721.8,653.7 721.8,641.9 718,641.9 718,670.6 721.8,670.6 721.8,657.1 735.9,657.1 735.9,670.6 
		739.7,670.6 739.7,641.9 735.9,641.9 	"/>
	<polygon points="69.5,456.3 58.4,422.3 56.2,423 66.9,456 66.9,456 67.8,458.7 68.7,458.7 70.7,458.7 108.9,458.7 108.9,456.3 
		70.7,456.3 	"/>
	<polygon points="61.8,416.6 61.8,387.9 58.2,387.9 58.2,410.3 58.1,410.3 43.8,387.9 39.9,387.9 39.9,416.6 43.5,416.6 43.5,394.2 
		43.5,394.2 57.9,416.6 	"/>
	<polygon points="32.1,399.7 18,399.7 18,387.9 14.2,387.9 14.2,416.6 18,416.6 18,403.1 32.1,403.1 32.1,416.6 35.9,416.6 
		35.9,387.9 32.1,387.9 	"/>
	<polygon points="303.6,214.1 318,236.4 321.9,236.4 321.9,207.8 318.3,207.8 318.3,230.1 318.3,230.1 303.9,207.8 300,207.8 
		300,236.4 303.5,236.4 303.5,214.1 	"/>
	<polygon points="329.7,223 343.8,223 343.8,236.4 347.6,236.4 347.6,207.8 343.8,207.8 343.8,219.6 329.7,219.6 329.7,207.8 
		325.9,207.8 325.9,236.4 329.7,236.4 	"/>
	<path d="M715.1,760.8L715.1,760.8l-28.5-49.4l11.2-34.4l-2.3-0.7l-11.1,34.1h-55.9l-17.3-53.1l45.2-32.8l29.7,21.6l1.4-1.9
		l-28.8-21l0,0l-0.4-0.3l-1.2-0.9l0,0l-0.7-0.5l-0.7,0.5l0,0l-0.1,0.1l-1.5,1.1l0,0l-44.5,32.3L553.4,641l-0.6,2.3l56.1,14.4
		l17.4,53.7l-28.5,49.4l0,0l-0.3,0.6l0.3,0.6l0,0l27.8,48.2l0,0l1.3,2.3h0.7h2h53.6h2h0.7l1.3-2.3l0,0l27.8-48.2l0,0l0.3-0.6
		L715.1,760.8z M629.7,810.1h-1.3l-27.5-47.6l0,0l-0.7-1.1l0.7-1.1l0,0l27.5-47.6h56.2l27.5,47.6l0,0l0.7,1.1l-0.7,1.1l0,0
		l-27.5,47.6h-1.3H629.7z"/>
	<path d="M720.7,443.4c0-4.5-1.8-7.8-1.8-7.8c-1.8-3.4-4.9-5.2-4.9-5.2c-3.1-1.8-7-1.8-7-1.8c-3.9,0-7,1.8-7,1.8
		c-3.2,1.8-4.9,5.2-4.9,5.2c-1.8,3.4-1.8,7.8-1.8,7.8c0,4.4,1.8,7.7,1.8,7.7c1.8,3.4,4.9,5.2,4.9,5.2c3.2,1.8,7.1,1.8,7.1,1.8
		c3.9,0,7-1.8,7-1.8c3.1-1.8,4.9-5.2,4.9-5.2C720.7,447.9,720.7,443.4,720.7,443.4z M715.6,449.7c-1.2,2.6-3.5,4-3.5,4
		c-2.2,1.4-5,1.4-5,1.4c-2.8,0-5.1-1.4-5.1-1.4c-2.2-1.4-3.4-4-3.4-4c-1.2-2.6-1.2-6.1-1.2-6.1c0-3.6,1.2-6.2,1.2-6.2
		c1.2-2.6,3.5-4,3.5-4c2.2-1.4,5.1-1.4,5.1-1.4c2.9,0,5.1,1.4,5.1,1.4c2.2,1.4,3.5,4,3.5,4c1.2,2.6,1.2,6.2,1.2,6.2
		C716.8,447.1,715.6,449.7,715.6,449.7z"/>
	<polygon points="742.6,429.1 742.6,440.9 728.6,440.9 728.6,429.1 724.7,429.1 724.7,457.7 728.6,457.7 728.6,444.3 742.6,444.3 
		742.6,457.7 746.4,457.7 746.4,429.1 	"/>
	<path d="M678.8,523.7c-3.1-1.8-7-1.8-7-1.8c-3.9,0-7,1.8-7,1.8c-3.1,1.8-4.9,5.2-4.9,5.2c-1.8,3.4-1.8,7.8-1.8,7.8
		c0,4.3,1.8,7.7,1.8,7.7c1.8,3.4,4.9,5.2,4.9,5.2c3.1,1.8,7,1.8,7,1.8c3.9,0,7-1.8,7-1.8c3.1-1.8,4.9-5.2,4.9-5.2
		c1.8-3.4,1.8-7.8,1.8-7.8c0-4.5-1.8-7.8-1.8-7.8C681.9,525.6,678.8,523.7,678.8,523.7z M680.3,543c-1.2,2.6-3.5,4-3.5,4
		c-2.2,1.4-5.1,1.4-5.1,1.4c-2.8,0-5-1.4-5-1.4c-2.2-1.4-3.4-4-3.4-4c-1.3-2.6-1.3-6.1-1.3-6.1c0-3.6,1.2-6.2,1.2-6.2
		c1.2-2.7,3.4-4,3.4-4c2.2-1.4,5.1-1.4,5.1-1.4c2.9,0,5.1,1.4,5.1,1.4c2.2,1.4,3.4,4,3.4,4c1.2,2.6,1.2,6.2,1.2,6.2
		C681.5,540.4,680.3,543,680.3,543z"/>
	<polygon points="426,257.7 426.7,257.1 427.4,257.7 427.4,257.7 459.7,285.8 461.3,284 433.1,259.5 433.1,218.9 430.7,218.9 
		430.7,257.4 428.7,255.7 426.6,253.9 425.8,254.7 422.7,257.4 422.7,218.9 420.3,218.9 420.3,259.4 376.8,297.3 324,278.1 
		322.6,241.1 307.8,244.3 321.5,278.7 287.5,311.4 250.2,299.7 249.5,302 285.5,313.3 284.1,314.6 284.1,314.6 282.8,315.9 
		282.7,316 282.7,316 282.2,316.5 282.3,317.1 282.3,317.1 283.1,320.9 247.1,309.6 246.4,311.9 283.6,323.6 289.3,352.5 291.6,352 
		285.1,318.6 285.1,318.6 284.8,317.3 323.2,280.3 374.7,299.1 374.7,299.1 377.3,300 377.8,299.5 377.8,299.5 378.5,298.9 
		379.3,298.2 379.3,298.2 426,257.7 	"/>
	<path d="M206.3,256c3.1,1.8,7,1.8,7,1.8c3.9,0,7-1.8,7-1.8c3.1-1.8,4.9-5.2,4.9-5.2c1.8-3.4,1.8-7.8,1.8-7.8c0-4.5-1.8-7.8-1.8-7.8
		c-1.8-3.3-4.9-5.2-4.9-5.2c-3.1-1.8-7-1.8-7-1.8c-3.9,0-7,1.8-7,1.8c-3.2,1.8-4.9,5.2-4.9,5.2c-1.8,3.4-1.8,7.8-1.8,7.8
		c0,4.3,1.8,7.7,1.8,7.7C203.2,254.1,206.3,256,206.3,256z M204.8,236.9c1.2-2.6,3.5-4,3.5-4c2.2-1.4,5.1-1.4,5.1-1.4
		c2.9,0,5.1,1.4,5.1,1.4c2.2,1.4,3.4,4,3.4,4c1.2,2.6,1.2,6.2,1.2,6.2c0,3.6-1.2,6.2-1.2,6.2c-1.2,2.6-3.4,4-3.4,4
		c-2.2,1.4-5.1,1.4-5.1,1.4c-2.8,0-5-1.4-5-1.4c-2.2-1.4-3.5-4-3.5-4c-1.2-2.6-1.2-6.1-1.2-6.1C203.6,239.6,204.8,236.9,204.8,236.9
		z"/>
	<polygon points="468.9,290.1 469,290.1 483.4,312.5 487.3,312.5 487.3,283.8 483.7,283.8 483.7,306.1 483.6,306.1 469.3,283.8 
		465.3,283.8 465.3,312.5 468.9,312.5 	"/>
	<polygon points="465.5,316.5 465.5,345.1 469.3,345.1 469.3,331.6 483.3,331.6 483.3,345.1 487.1,345.1 487.1,316.5 483.3,316.5 
		483.3,328.2 469.3,328.2 469.3,316.5 	"/>
	<path d="M419.7,210.6c3.1,1.8,7,1.8,7,1.8c3.9,0,7-1.8,7-1.8c3.1-1.8,4.9-5.2,4.9-5.2c1.8-3.4,1.8-7.8,1.8-7.8
		c0-4.5-1.8-7.8-1.8-7.8c-1.8-3.3-4.9-5.2-4.9-5.2c-3.1-1.8-7-1.8-7-1.8c-3.9,0-7,1.8-7,1.8c-3.1,1.8-4.9,5.2-4.9,5.2
		c-1.8,3.4-1.8,7.8-1.8,7.8c0,4.3,1.8,7.7,1.8,7.7C416.5,208.7,419.7,210.6,419.7,210.6z M418.1,191.5c1.2-2.6,3.4-4,3.4-4
		c2.2-1.4,5.1-1.4,5.1-1.4c2.9,0,5.1,1.4,5.1,1.4c2.2,1.4,3.4,4,3.4,4c1.2,2.6,1.2,6.2,1.2,6.2c0,3.6-1.3,6.2-1.3,6.2
		c-1.2,2.6-3.4,4-3.4,4c-2.2,1.4-5.1,1.4-5.1,1.4c-2.8,0-5-1.4-5-1.4c-2.2-1.4-3.5-4-3.5-4c-1.2-2.6-1.2-6.1-1.2-6.1
		C416.9,194.1,418.1,191.5,418.1,191.5z"/>
	<polygon points="279.7,101.4 294.1,123.7 298,123.7 298,95.1 294.4,95.1 294.4,117.5 294.3,117.5 280,95.1 276.1,95.1 276.1,123.7 
		279.7,123.7 279.7,101.4 	"/>
	<polygon points="305.8,95.1 302,95.1 302,123.7 305.8,123.7 305.8,110.3 319.9,110.3 319.9,123.7 323.7,123.7 323.7,95.1 
		319.9,95.1 319.9,106.9 305.8,106.9 	"/>
	<path d="M213.3,48.5c3.1,1.8,7,1.8,7,1.8c3.9,0,7-1.8,7-1.8c3.1-1.8,4.9-5.2,4.9-5.2c1.8-3.4,1.8-7.8,1.8-7.8
		c0-4.5-1.8-7.8-1.8-7.8c-1.8-3.3-4.9-5.2-4.9-5.2c-3.1-1.8-7-1.8-7-1.8c-3.9,0-7,1.8-7,1.8c-3.1,1.8-4.9,5.2-4.9,5.2
		c-1.8,3.4-1.8,7.8-1.8,7.8c0,4.3,1.8,7.7,1.8,7.7C210.2,46.6,213.3,48.5,213.3,48.5z M211.8,29.3c1.2-2.6,3.4-4,3.4-4
		c2.2-1.4,5.1-1.4,5.1-1.4c2.9,0,5.1,1.4,5.1,1.4c2.2,1.4,3.4,4,3.4,4c1.2,2.6,1.2,6.2,1.2,6.2c0,3.6-1.2,6.2-1.2,6.2
		c-1.2,2.6-3.5,4-3.5,4c-2.2,1.4-5.1,1.4-5.1,1.4c-2.8,0-5-1.4-5-1.4c-2.2-1.4-3.4-4-3.4-4c-1.3-2.6-1.3-6.1-1.3-6.1
		C210.5,32,211.8,29.3,211.8,29.3z"/>
</g>
</svg>
