<?xml version="1.0" encoding="utf-8"?>
<!-- Generator: Adobe Illustrator 27.0.0, SVG Export Plug-In . SVG Version: 6.00 Build 0)  -->
<svg version="1.1" id="Слой_1" xmlns="http://www.w3.org/2000/svg" xmlns:xlink="http://www.w3.org/1999/xlink" x="0px" y="0px"
	 viewBox="0 0 498.05 374.47" style="enable-background:new 0 0 498.05 374.47;" xml:space="preserve" width="498.05" height="374.47">
<style type="text/css">
	.st0{fill:none;}
</style>
<g>
	<path d="M433.84,71.51l50.04-10.63l-0.5-2.35l-49.81,10.59l-25.92-28.78l-1.78,1.61l24.99,27.75l-9,1.91l-21.91-24.33l-1.78,1.61
		l22.47,24.96l-12.16,51.69l-52.43,17.04l4.66-55.9h-12l4.62,55.42l-48.5-28l-51.08,29.49v57.6l-47.3,27.31l4.62-55.42h-12
		l4.62,55.42l-48.5-28l-51.08,29.49v58.99l51.08,29.49l49.88-28.8l49.88,28.8l51.08-29.49v-57.6l48.82-28.19l55.1,17.9l34.88-48.01
		l-33.97-46.76L433.84,71.51z M155.18,315.67l-48.68-28.11v-56.21l48.68-28.11l48.68,28.11v56.21L155.18,315.67z M254.94,315.67
		l-48.68-28.11v-56.21l48.68-28.11l48.68,28.11v56.21L254.94,315.67z M306.32,228.41l4.51-34.64h-12l4.51,34.64l-47.19-27.25v-56.21
		l48.68-28.11l48.68,28.11v56.21L306.32,228.41z M441.86,173.06l-32.83,45.19l-53.12-17.26v-55.86l53.12-17.26L441.86,173.06z"/>
	<path d="M381.59,41.85c2.12,1.3,4.53,1.95,7.23,1.95c2.49,0,4.8-0.59,6.95-1.77s3.81-2.91,4.98-5.21s1.76-4.89,1.76-7.79
		c0-2.87-0.55-5.43-1.67-7.69s-2.73-4.02-4.86-5.28c-2.12-1.26-4.5-1.89-7.15-1.89c-4.04,0-7.33,1.34-9.88,4.03
		c-2.55,2.69-3.83,6.41-3.83,11.16c0,2.51,0.55,4.9,1.64,7.15S379.47,40.55,381.59,41.85z M381.93,20.2
		c1.93-1.84,4.24-2.76,6.92-2.76c1.89,0,3.59,0.48,5.11,1.44c1.52,0.96,2.67,2.3,3.46,4.04c0.79,1.74,1.18,3.77,1.18,6.1
		c0,3.69-0.92,6.53-2.76,8.54c-1.84,2.01-4.19,3.01-7.04,3.01c-2.8,0-5.12-0.99-6.98-2.98s-2.79-4.7-2.79-8.15
		C379.03,25.12,380,22.04,381.93,20.2z"/>
	<polygon points="362.14,257.02 347.26,257.02 347.26,245.27 343.47,245.27 343.47,273.9 347.26,273.9 347.26,260.4 362.14,260.4 
		362.14,273.9 365.93,273.9 365.93,245.27 362.14,245.27 	"/>
	<polygon points="348.71,238.77 360.71,238.77 360.28,236.37 349.14,236.37 	"/>
	<polygon points="350.9,226.53 358.52,226.53 358.1,224.13 351.32,224.13 	"/>
	<polygon points="353.51,211.89 353.08,214.29 356.34,214.29 355.91,211.89 	"/>
	<polygon points="32.84,314.62 17.96,314.62 17.96,302.87 14.17,302.87 14.17,331.5 17.96,331.5 17.96,318 32.84,318 32.84,331.5 
		36.63,331.5 36.63,302.87 32.84,302.87 	"/>
	<path d="M62.65,304.25c-2.12-1.27-4.51-1.89-7.15-1.89c-4.04,0-7.33,1.34-9.88,4.03c-2.55,2.69-3.83,6.41-3.83,11.16
		c0,2.51,0.55,4.89,1.64,7.15c1.09,2.25,2.7,4.03,4.82,5.33c2.12,1.3,4.53,1.95,7.23,1.95c2.49,0,4.8-0.59,6.95-1.77
		c2.15-1.18,3.81-2.91,4.98-5.2c1.17-2.29,1.76-4.89,1.76-7.79c0-2.87-0.56-5.43-1.67-7.69C66.39,307.28,64.77,305.52,62.65,304.25z
		 M62.5,325.74c-1.84,2-4.19,3.01-7.04,3.01c-2.8,0-5.13-0.99-6.98-2.98c-1.86-1.98-2.78-4.7-2.78-8.15c0-4.31,0.97-7.39,2.9-9.23
		c1.93-1.84,4.24-2.76,6.92-2.76c1.89,0,3.59,0.48,5.11,1.43s2.67,2.3,3.46,4.04c0.79,1.74,1.18,3.77,1.18,6.11
		C65.27,320.89,64.34,323.73,62.5,325.74z"/>
	<polygon points="72.38,300.82 78.38,311.21 80.24,309.64 74.67,299.99 	"/>
	<polygon points="84.05,296.6 87.87,303.21 89.73,301.64 86.35,295.77 	"/>
	<polygon points="95.73,292.38 97.36,295.21 99.22,293.63 98.02,291.56 	"/>
	<polygon points="212.49,343.43 197.61,343.43 197.61,331.67 193.82,331.67 193.82,360.3 197.61,360.3 197.61,346.8 212.49,346.8 
		212.49,360.3 216.28,360.3 216.28,331.67 212.49,331.67 	"/>
	<polygon points="199.06,325.17 211.06,325.17 210.63,322.77 199.49,322.77 	"/>
	<polygon points="201.25,312.93 208.87,312.93 208.45,310.53 201.67,310.53 	"/>
	<polygon points="203.86,298.29 203.43,300.69 206.69,300.69 206.26,298.29 	"/>
	<polygon points="262.37,257.02 247.49,257.02 247.49,245.27 243.7,245.27 243.7,273.9 247.49,273.9 247.49,260.4 262.37,260.4 
		262.37,273.9 266.16,273.9 266.16,245.27 262.37,245.27 	"/>
	<polygon points="260.51,236.37 249.37,236.37 248.94,238.77 260.94,238.77 	"/>
	<polygon points="258.33,224.13 251.56,224.13 251.13,226.53 258.76,226.53 	"/>
	<polygon points="256.14,211.89 253.74,211.89 253.31,214.29 256.57,214.29 	"/>
	<polygon points="312.26,170.62 297.38,170.62 297.38,158.87 293.59,158.87 293.59,187.5 297.38,187.5 297.38,174 312.26,174 
		312.26,187.5 316.05,187.5 316.05,158.87 312.26,158.87 	"/>
</g>
</svg>
