<?xml version="1.0" encoding="utf-8"?>
<!-- Generator: Adobe Illustrator 28.0.0, SVG Export Plug-In . SVG Version: 6.00 Build 0)  -->
<svg version="1.1" id="Слой_1" xmlns="http://www.w3.org/2000/svg" xmlns:xlink="http://www.w3.org/1999/xlink" x="0px" y="0px"
	 viewBox="0 0 894.1 278.8" style="enable-background:new 0 0 894.1 278.8;" xml:space="preserve" width="894.1" height="278.8">
<g>
	<rect x="65.1" y="152.2" transform="matrix(0.866 -0.5001 0.5001 0.866 -64.9457 64.5096)" width="45.6" height="2.4"/>
	<rect x="97.1" y="217" transform="matrix(0.5001 -0.866 0.866 0.5001 -158.5427 204.9807)" width="2.4" height="45.6"/>
	<rect x="156.3" y="182.8" width="2.4" height="45.6"/>
	<path d="M200.7,156.5l-32.8,18.9l-48.8-28.2l-11.9-55.8l0,0l-0.2-0.9l-0.9-0.1l0,0l-55.3-5.8l0,0l-1.8-0.2l-0.2,0v0L48,84.4
		l-0.4,0.8l-14.7,33.1l2.2,1L49,88l0,0l0.4-1l54.5,5.7l0,0l1.1,0.1l0.2,1.1l0,0l11.4,53.6l-48.4,27.9l-27-24.3l-1.6,1.8l27.2,24.5
		v55.1v2v0.7l2.3,1.3l0,0l48.2,27.8l0,0l0.6,0.3l0.6-0.3l0,0l48.2-27.8l0,0l2.3-1.3v-0.7v-2v-54.9l32.8-18.9L200.7,156.5z
		 M166.7,233.7l-47.6,27.5l0,0l-1.1,0.7l-1.1-0.7l0,0l-47.6-27.5v-1.3v-54.9l48.7-28.1l48.7,28.1v54.9V233.7z"/>
	<polygon points="316.3,146 316.3,147.3 267.7,175.4 266.5,174.8 266.5,174.8 234.9,156.5 233.7,158.6 267.1,177.9 267.1,177.9 
		267.6,178.2 268.3,177.9 268.3,177.9 268.3,177.8 270,176.9 270,176.8 316.4,150 316.4,150.1 318.7,148.7 318.7,148 318.7,146 
		318.7,110.7 316.3,110.7 	"/>
	<polygon points="219,92.4 219,91.1 266.5,63.6 266.5,63.7 267.7,63 300.4,81.9 301.6,79.9 270,61.6 270,61.6 268.3,60.6 
		268.3,60.6 268.3,60.6 267.6,60.2 267.1,60.6 267.1,60.6 218.9,88.4 218.9,88.4 216.6,89.7 216.6,90.4 216.6,92.4 216.6,126.8 
		219,126.8 	"/>
	<polygon points="548.7,70.8 518.2,88.4 518.2,88.4 517.1,89 467.8,60.6 467.8,60.6 467.2,60.2 466.6,60.6 466.6,60.6 466.6,60.6 
		464.9,61.6 464.9,61.6 417.3,89 416.2,88.4 416.2,88.4 369.8,61.6 369.8,61.6 368,60.6 368,60.6 368,60.6 367.4,60.2 366.8,60.6 
		366.8,60.6 333.5,79.9 334.7,81.9 366.3,63.6 366.3,63.7 367.4,63 416.6,91.4 417.3,91.8 417.9,91.5 417.9,91.5 418,91.4 
		419.6,90.5 419.6,90.4 467.2,63 468.3,63.7 468.3,63.6 514.7,90.4 514.7,90.5 516.4,91.4 516.5,91.5 516.5,91.5 517.1,91.8 
		517.7,91.4 549.9,72.9 	"/>
	<rect x="626.1" y="96.4" width="2.4" height="45.6"/>
	<rect x="663.7" y="152.2" transform="matrix(0.8661 -0.4998 0.4998 0.8661 15.2182 363.6476)" width="45.6" height="2.4"/>
	<rect x="685.3" y="62.2" transform="matrix(0.5 -0.866 0.866 0.5 269.5826 636.9872)" width="2.4" height="45.6"/>
	<rect x="763.4" y="152.2" transform="matrix(0.866 -0.5001 0.5001 0.866 28.667 413.7832)" width="45.6" height="2.4"/>
	<path d="M850.5,75.3l-33,19v-1.9v-2v-0.7l-2.3-1.3l0,0l-1.7-1l33-19l-1.2-2.1L811.2,86l-27.6-15.9l-1.2,2.1l32.8,18.9v1.3V146v1.3
		l-47.6,27.5l0,0l-1.1,0.7l-1.1-0.7l0,0l-47.6-27.5V91.1l32.8-18.9l-1.2-2.1L716.6,89l-49.3-28.5l0,0l-0.6-0.3l-0.6,0.3l0,0
		L616.9,89l-31.6-18.2l-1.2,2.1l31.6,18.2V146v2v0.7l2.3,1.3l0,0l48.2,27.8l0,0l0.6,0.3l0.6-0.3l0,0l49.3-28.5l49.3,28.5l0,0
		l0.6,0.3l0.6-0.3l0,0l48.2-27.8l0,0l2.3-1.3V148v-2V97.1l34.2-19.7L850.5,75.3z M618.1,91.1l47.6-27.5l0,0l1.1-0.7l1.1,0.7l0,0
		l47.6,27.5v56.2l-47.6,27.5l0,0l-1.1,0.7l-1.1-0.7l0,0l-47.6-27.5V146V91.1z"/>
	<rect x="75.1" y="76.2" transform="matrix(0.1044 -0.9945 0.9945 0.1044 -30.1079 164.5542)" width="2.4" height="45.6"/>
	<polygon points="225.2,155.5 225.1,155.5 210.7,133.2 206.8,133.2 206.8,161.9 210.4,161.9 210.4,139.5 210.5,139.5 224.9,161.9 
		228.8,161.9 228.8,133.2 225.2,133.2 	"/>
	<polygon points="324.9,97.9 324.9,97.9 310.5,75.6 306.6,75.6 306.6,104.3 310.2,104.3 310.2,81.9 310.3,81.9 324.7,104.3 
		328.5,104.3 328.5,75.6 324.9,75.6 	"/>
	<path d="M574,48.4c-3.1-1.8-7-1.8-7-1.8c-3.9,0-7,1.8-7,1.8c-3.1,1.8-4.9,5.2-4.9,5.2c-1.8,3.4-1.8,7.8-1.8,7.8
		c0,4.3,1.8,7.7,1.8,7.7c1.8,3.4,4.9,5.2,4.9,5.2c3.1,1.8,7,1.8,7,1.8c3.9,0,7-1.8,7-1.8c3.1-1.8,4.9-5.2,4.9-5.2
		c1.8-3.4,1.8-7.8,1.8-7.8c0-4.5-1.8-7.8-1.8-7.8C577.1,50.2,574,48.4,574,48.4z M575.5,67.6c-1.2,2.6-3.5,4-3.5,4
		c-2.2,1.4-5.1,1.4-5.1,1.4c-2.8,0-5-1.4-5-1.4c-2.2-1.4-3.4-4-3.4-4c-1.3-2.6-1.3-6.1-1.3-6.1c0-3.6,1.2-6.3,1.2-6.3
		c1.2-2.6,3.4-4,3.4-4c2.2-1.4,5.1-1.4,5.1-1.4c2.9,0,5.1,1.4,5.1,1.4c2.2,1.4,3.4,4,3.4,4c1.2,2.6,1.2,6.2,1.2,6.2
		C576.7,65,575.5,67.6,575.5,67.6z"/>
	<polygon points="759.1,53.1 759.2,53.1 773.6,75.5 777.5,75.5 777.5,46.8 773.9,46.8 773.9,69.1 773.8,69.1 759.4,46.8 755.5,46.8 
		755.5,75.5 759.1,75.5 	"/>
	<polygon points="759.5,29.3 773.5,29.3 773.5,42.8 777.3,42.8 777.3,14.2 773.5,14.2 773.5,25.9 759.5,25.9 759.5,14.2 755.7,14.2 
		755.7,42.8 759.5,42.8 	"/>
	<path d="M878.2,53.5c-1.8-3.3-4.9-5.2-4.9-5.2c-3.1-1.8-7-1.8-7-1.8c-3.9,0-7,1.8-7,1.8c-3.2,1.8-4.9,5.2-4.9,5.2
		c-1.8,3.4-1.8,7.8-1.8,7.8c0,4.3,1.8,7.7,1.8,7.7c1.8,3.4,4.9,5.2,4.9,5.2c3.1,1.8,7,1.8,7,1.8c3.9,0,7-1.8,7-1.8
		c3.1-1.8,4.9-5.2,4.9-5.2c1.8-3.4,1.8-7.8,1.8-7.8C880,56.9,878.2,53.5,878.2,53.5z M874.8,67.6c-1.2,2.6-3.4,4-3.4,4
		c-2.2,1.4-5.1,1.4-5.1,1.4c-2.8,0-5-1.4-5-1.4c-2.2-1.4-3.5-4-3.5-4c-1.2-2.6-1.2-6.1-1.2-6.1c0-3.6,1.2-6.3,1.2-6.3
		c1.2-2.6,3.4-4,3.4-4c2.2-1.4,5.1-1.4,5.1-1.4c2.9,0,5.1,1.4,5.1,1.4c2.2,1.4,3.4,4,3.4,4c1.2,2.6,1.2,6.2,1.2,6.2
		C876.1,65,874.8,67.6,874.8,67.6z"/>
	<path d="M32.2,137.5c-2.2-1.1-6.1-1.9-6.1-1.9c-2.8-0.6-4.3-1.2-4.3-1.2c-1.5-0.6-2.2-1.4-2.2-1.4c-0.7-0.8-0.7-2.2-0.7-2.2
		c0-1.3,0.8-2.3,0.8-2.3c0.8-1,2.2-1.6,2.2-1.6c1.4-0.6,3.3-0.6,3.3-0.6c2.8,0,4.5,1.4,4.5,1.4c1.6,1.4,2.3,4.5,2.3,4.5H32l3.6-0.8
		c-0.3-2.6-1.7-4.4-1.7-4.4c-1.4-1.8-3.6-2.8-3.6-2.8c-2.3-1-5.2-1-5.2-1c-2.8,0-5.1,1-5.1,1c-2.2,1-3.5,2.7-3.5,2.7
		c-1.3,1.7-1.3,3.9-1.3,3.9c0,2,0.6,3.4,0.6,3.4c0.7,1.4,2.4,2.6,2.4,2.6c1.6,1.1,4.6,1.9,4.6,1.9c0.7,0.2,2.3,0.6,2.3,0.6
		c2.7,0.6,4.2,1.2,4.2,1.2c1.7,0.6,2.6,1.6,2.6,1.6c0.9,1,0.9,2.8,0.9,2.8c0,1.4-0.9,2.4-0.9,2.4c-0.9,1.1-2.5,1.7-2.5,1.7
		c-1.6,0.6-3.4,0.6-3.4,0.6c-3.6,0-5.6-1.8-5.6-1.8c-2-1.8-2.4-5.3-2.4-5.3l-3.7,0.9c0.6,4.6,3.7,7,3.7,7c3.1,2.4,8.2,2.4,8.2,2.4
		c3,0,5.3-1.1,5.3-1.1c2.4-1.1,3.7-3.1,3.7-3.1c1.4-1.9,1.4-4.4,1.4-4.4c0-2.4-1-4-1-4C34.5,138.6,32.2,137.5,32.2,137.5z"/>
</g>
</svg>
