<?xml version="1.0" standalone="no" ?>
<!DOCTYPE svg PUBLIC "-//W3C//DTD SVG 1.1//EN" "http://www.w3.org/Graphics/SVG/1.1/DTD/svg11.dtd">
<svg width="570px" height="265px" viewBox="0 0 114 53" style="" xmlns="http://www.w3.org/2000/svg" xmlns:xlink="http://www.w3.org/1999/xlink" version="1.1" >
<text x="0" y="0" stroke="transparent" fill="#000000" transform="matrix(0.05 0 0 0.05 57.2021 10.4671)" style="font:normal normal normal 200px 'Arial'" >
O</text>
<text x="0" y="0" stroke="transparent" fill="#000000" transform="matrix(0.05 0 0 0.05 82.4219 16.3254)" style="font:normal normal normal 200px 'Arial'" >
H</text>
<text x="0" y="0" stroke="transparent" fill="#000000" transform="matrix(0.05 0 0 0.05 82.4219 24.8671)" style="font:normal normal normal 200px 'Arial'" >
N</text>
<text x="0" y="0" stroke="transparent" fill="#000000" transform="matrix(0.05 0 0 0.05 2.8757 24.8671)" style="font:normal normal normal 200px 'Arial'" >
Cl</text>
<path stroke="transparent" fill="#000000" transform="matrix(0.05 0 0 0.05 -432 -240)" d="M 9893.75,5242.86 L 9881.75,5242.86 L 9881.75,5043.51 L 9893.75,5043.51 L 9893.75,5242.86 Z " />
<path stroke="transparent" fill="#000000" transform="matrix(0.05 0 0 0.05 -432 -240)" d="M 9841.91,5242.86 L 9829.91,5242.86 L 9829.91,5043.51 L 9841.91,5043.51 L 9841.91,5242.86 Z " />
<path stroke="transparent" fill="#000000" transform="matrix(0.05 0 0 0.05 -432 -240)" d="M 10111.2,5364.97 L 10111.2,5371.9 L 10105.2,5375.36 L 9861.83,5234.83 L 9861.83,5220.97 L 10111.2,5364.97 Z " />
<path stroke="transparent" fill="#000000" transform="matrix(0.05 0 0 0.05 -432 -240)" d="M 10117.2,5659.9 L 10105.2,5659.9 L 10105.2,5375.36 L 10111.2,5371.9 L 10117.2,5375.36 L 10117.2,5659.9 Z " />
<path stroke="transparent" fill="#000000" transform="matrix(0.05 0 0 0.05 -432 -240)" d="M 10256.9,5280.85 L 10262.9,5291.25 L 10117.2,5375.36 L 10111.2,5371.9 L 10111.2,5364.97 L 10256.9,5280.85 Z " />
<path stroke="transparent" fill="#000000" transform="matrix(0.05 0 0 0.05 -432 -240)" d="M 10610.1,5364.97 L 10610.1,5371.9 L 10604.1,5375.36 L 10457,5290.44 L 10463,5280.05 L 10610.1,5364.97 Z " />
<path stroke="transparent" fill="#000000" transform="matrix(0.05 0 0 0.05 -432 -240)" d="M 10856.5,5222.7 L 10862.5,5233.09 L 10622.1,5371.9 L 10610.1,5371.9 L 10610.1,5364.97 L 10856.5,5222.7 Z " />
<path stroke="transparent" fill="#000000" transform="matrix(0.05 0 0 0.05 -432 -240)" d="M 10862.5,5510.7 L 10856.5,5521.09 L 10616.1,5382.29 L 10610.1,5371.9 L 10622.1,5371.9 L 10862.5,5510.7 Z " />
<path stroke="transparent" fill="#000000" transform="matrix(0.05 0 0 0.05 -432 -240)" d="M 10616.1,5659.9 L 10604.1,5659.9 L 10604.1,5375.36 L 10610.1,5371.9 L 10616.1,5382.29 L 10616.1,5659.9 Z " />
<path stroke="transparent" fill="#000000" transform="matrix(0.05 0 0 0.05 -432 -240)" d="M 9618.41,5375.36 L 9612.41,5371.9 L 9612.41,5364.97 L 9861.83,5220.97 L 9861.83,5234.83 L 9618.41,5375.36 Z " />
<path stroke="transparent" fill="#000000" transform="matrix(0.05 0 0 0.05 -432 -240)" d="M 9618.41,5663.36 L 9606.41,5656.43 L 9606.41,5375.36 L 9612.41,5371.9 L 9618.41,5375.36 L 9618.41,5663.36 Z " />
<path stroke="transparent" fill="#000000" transform="matrix(0.05 0 0 0.05 -432 -240)" d="M 9362.99,5810.82 L 9362.99,5796.97 L 9606.41,5656.43 L 9618.41,5663.36 L 9362.99,5810.82 Z " />
<path stroke="transparent" fill="#000000" transform="matrix(0.05 0 0 0.05 -432 -240)" d="M 9365.99,5749.23 L 9359.99,5738.84 L 9557.57,5624.77 L 9563.57,5635.16 L 9365.99,5749.23 Z " />
<path stroke="transparent" fill="#000000" transform="matrix(0.05 0 0 0.05 -432 -240)" d="M 9107.58,5663.36 L 9119.58,5656.43 L 9362.99,5796.97 L 9362.99,5810.82 L 9107.58,5663.36 Z " />
<path stroke="transparent" fill="#000000" transform="matrix(0.05 0 0 0.05 -432 -240)" d="M 9107.58,5375.36 L 9113.58,5371.9 L 9119.58,5375.36 L 9119.58,5656.43 L 9107.58,5663.36 L 9107.58,5375.36 Z " />
<path stroke="transparent" fill="#000000" transform="matrix(0.05 0 0 0.05 -432 -240)" d="M 9159.42,5401.83 L 9171.42,5401.83 L 9171.42,5629.97 L 9159.42,5629.97 L 9159.42,5401.83 Z " />
<path stroke="transparent" fill="#000000" transform="matrix(0.05 0 0 0.05 -432 -240)" d="M 8916.19,5264.86 L 8922.19,5254.47 L 9113.58,5364.97 L 9113.58,5371.9 L 9107.58,5375.36 L 8916.19,5264.86 Z " />
<path stroke="transparent" fill="#000000" transform="matrix(0.05 0 0 0.05 -432 -240)" d="M 9362.99,5220.97 L 9362.99,5234.83 L 9119.58,5375.36 L 9113.58,5371.9 L 9113.58,5364.97 L 9362.99,5220.97 Z " />
<path stroke="transparent" fill="#000000" transform="matrix(0.05 0 0 0.05 -432 -240)" d="M 9362.99,5234.83 L 9362.99,5220.97 L 9612.41,5364.97 L 9612.41,5371.9 L 9606.41,5375.36 L 9362.99,5234.83 Z " />
<path stroke="transparent" fill="#000000" transform="matrix(0.05 0 0 0.05 -432 -240)" d="M 9359.99,5292.95 L 9365.99,5282.56 L 9563.57,5396.63 L 9557.57,5407.02 L 9359.99,5292.95 Z " />
</svg>
