<svg xmlns:rdf="http://www.w3.org/1999/02/22-rdf-syntax-ns#" xmlns="http://www.w3.org/2000/svg" height="170" shape-rendering="geometricPrecision" width="351" version="1.1" xmlns:cc="http://creativecommons.org/ns#" xmlns:dc="http://purl.org/dc/elements/1.1/" preserveAspectRatio="xMidYMid">
<title>8-(4-(4-(pyrimidin-2-yl)piperazin-1-yl)butyl)-8-azaspiro[4.5]decane-7,9-dione</title>
<metadata>
<rdf:RDF>
<cc:Work rdf:about="">
<dc:format>image/svg+xml</dc:format>
<dc:type rdf:resource="http://purl.org/dc/dcmitype/StillImage"/>
<dc:title>8-(4-(4-(pyrimidin-2-yl)piperazin-1-yl)butyl)-8-azaspiro[4.5]decane-7,9-dione</dc:title>
<cc:license rdf:resource="http://creativecommons.org/licenses/publicdomain/"/>
</cc:Work>
<cc:License rdf:about="http://creativecommons.org/licenses/publicdomain/">
<cc:permits rdf:resource="http://creativecommons.org/ns#Reproduction"/>
<cc:permits rdf:resource="http://creativecommons.org/ns#Distribution"/>
<cc:permits rdf:resource="http://creativecommons.org/ns#DerivativeWorks"/>
</cc:License>
</rdf:RDF>
</metadata>
<path d="M322.6875,2.375,305.875,12.09375,306.46875,13.125,322.6875,3.75,347.03125,17.8125,347.03125,45.9375,330.78125,55.3125,331.375,56.34375,348.21875,46.625,348.21875,17.125,322.6875,2.375zm-0.3125,6.15625-13.90625,8.03125,0.59375,1.0625,13.90625-8.03125-0.59375-1.0625zm-30.3125,1.8125,0,14.3125,1.8125,0,0-11.25,7.53125,11.25,1.9375,0,0-14.3125-1.8125,0,0,11.21875-7.5-11.21875-1.96875,0zm49.78125,10.125,0,22.8125,1.1875,0,0-22.8125-1.1875,0zm-44.71875,7.4375,0,18.03125-16.25,9.375,0.59375,1.03125,16.28125-9.375,16.28125,9.40625,0.59375-1.03125-16.28125-9.40625,0-18.03125-1.21875,0zm6.09375,14.84375-0.59375,1.0625,14,8.0625,0.59375-1.03125-14-8.09375zm-55.375,2.84375-25.53125,14.71875,0,18.90625,1.1875,0,0-18.1875,24.34375-14.0625,16.28125,9.40625,0.625-1.03125-16.90625-9.75zm-174.5625,7.8125c-2.01823,0.00002-3.66147,0.65562-4.9375,2-1.27605,1.34441-1.9375,3.21745-1.9375,5.59375,0,1.25651,0.29687,2.4362,0.84375,3.5625,0.54687,1.1263,1.34504,2.03646,2.40625,2.6875,1.06119,0.65104,2.24608,0.96875,3.59375,0.96875,1.24348,0,2.42577-0.2858,3.5-0.875,1.07421-0.58919,1.8828-1.47917,2.46875-2.625,0.58593-1.14583,0.87498-2.42317,0.875-3.875-0.00002-1.43228-0.25588-2.71418-0.8125-3.84375-0.55666-1.12955-1.37631-2.02473-2.4375-2.65625-1.06121-0.6315-2.24089-0.93748-3.5625-0.9375zm193.84375,0.125,0,14.3125,1.8125,0,0-11.25,7.53125,11.25,1.9375,0,0-14.3125-1.8125,0,0,11.25-7.53125-11.25-1.9375,0zm49.875,0,0,14.3125,1.84375,0,0-11.25,7.5,11.25,1.9375,0,0-14.3125-1.8125,0,0,11.25-7.5-11.25-1.96875,0zm-243.71875,1.5c0.944,0.00001,1.80403,0.24025,2.5625,0.71875,0.75845,0.47853,1.32486,1.16212,1.71875,2.03125,0.39387,0.86915,0.59374,1.86589,0.59375,3.03125-0.00001,1.84245-0.45379,3.27865-1.375,4.28125-0.92124,1.00261-2.10548,1.5-3.53125,1.5-1.39975,0-2.57227-0.50716-3.5-1.5-0.92774-0.99283-1.375-2.33723-1.375-4.0625,0-2.15493,0.4707-3.70377,1.4375-4.625,0.9668-0.92122,2.1276-1.37499,3.46875-1.375zm198.90625,16.0625,0,18.03125-24.34375,14.0625-16.15625-9.34375-0.59375,1.03125,16.75,9.6875,25.53125-14.75,0-18.71875-1.1875,0zm-202.125,0.40625,0,19.125-22.34375,12.90625,0,28.21875-25.84375-11.53125-19.875,22.0625,14.84375,25.71875,29.03125-6.1875,2.9375-28.15625,24.4375,14.09375,22.375-12.875,16.3125,9.40625,0.59375-1.03125-15.71875-9.0625,2-1.15625,0-2.3125,15.71875,9.09375,0.59375-1.0625-16.3125-9.40625,0-15.03125-1.21875,0,0,18-24.34375,14.0625-24.34375-14.0625,0-28.09375,24.34375-14.0625,16.28125,9.40625,0.59375-1.03125-13.6875-7.90625,0-19.125-1.1875,0,0,18.4375-2-1.15625-1.96875,1.125,0-18.40625-1.21875,0zm147.1875,10.84375,0,14.3125,1.8125,0,0-11.25,7.53125,11.25,1.9375,0,0-14.3125-1.8125,0,0,11.21875-7.53125-11.21875-1.9375,0zm-94.125,6.4375-16.75,9.6875,0.59375,1.03125,16.15625-9.34375,24.96875,14.40625,24.9375-14.40625,24.9375,14.40625,16.875-9.75-0.59375-1.03125-16.28125,9.40625-24.9375-14.40625-24.9375,14.40625-24.96875-14.40625zm-30.59375,7.9375,0,14.3125,1.84375,0,0-11.25,7.5,11.25,1.9375,0,0-14.3125-1.8125,0,0,11.25-7.5-11.25-1.96875,0zm-70.375,24.96875,25.53125,11.34375-2.9375,27.78125-27.3125,5.8125-13.96875-24.1875,18.6875-20.75zm101,18.125c-2.01824,0.00002-3.66146,0.65561-4.9375,2-1.27604,1.34441-1.9375,3.21746-1.9375,5.59375,0,1.25652,0.29687,2.4362,0.84375,3.5625,0.54687,1.1263,1.34505,2.03646,2.40625,2.6875,1.06119,0.65104,2.27734,0.96875,3.625,0.96875,1.24348,0,2.39452-0.28581,3.46875-0.875,1.07421-0.58919,1.8828-1.47916,2.46875-2.625,0.58592-1.14583,0.90624-2.42318,0.90625-3.875-0.00001-1.43229-0.28712-2.71418-0.84375-3.84375-0.55665-1.12954-1.37632-2.02473-2.4375-2.65625-1.06121-0.6315-2.2409-0.93748-3.5625-0.9375zm0,1.625c0.944,0.00002,1.80403,0.24024,2.5625,0.71875,0.75846,0.47853,1.32486,1.16212,1.71875,2.03125,0.39387,0.86915,0.59374,1.86589,0.59375,3.03125-0.00001,1.84245-0.45378,3.27865-1.375,4.28125-0.92123,1.0026-2.10548,1.50001-3.53125,1.5-1.39975,0.00001-2.54102-0.50716-3.46875-1.5s-1.40625-2.33724-1.40625-4.0625c0-2.15494,0.4707-3.70377,1.4375-4.625,0.96679-0.92121,2.1276-1.37498,3.46875-1.375z" fill="#000"/>
</svg>
