<?xml version="1.0" encoding="UTF-8" standalone="no"?>
<!-- Created with Inkscape (http://www.inkscape.org/) -->
<svg
 xmlns="http://www.w3.org/2000/svg"
 xmlns:xlink="http://www.w3.org/1999/xlink"
 width="2466"
 height="1294">
<path
 d="M 844.8944,88.25705 C 844.8944,76.22707 848.1243,66.80905 854.5843,60.00296 C 861.0442,53.19701 869.3829,49.794 879.6002,49.79392 C 886.2908,49.794 892.3223,51.3925 897.6947,54.58945 C 903.0669,57.78654 907.1621,62.24424 909.9801,67.96256 C 912.798,73.681 914.207,80.16567 914.2071,87.4166 C 914.207,94.76648 912.7239,101.34179 909.7576,107.14255 C 906.7913,112.94334 902.589,117.33513 897.1508,120.31791 C 891.7126,123.30069 885.8459,124.79209 879.5507,124.79209 C 872.7282,124.79209 866.6308,123.14414 861.2585,119.84824 C 855.8862,116.55235 851.8157,112.05345 849.0472,106.35154 C 846.2786,100.64966 844.8944,94.61817 844.8944,88.25705 L 844.8944,88.25705 z M 854.7821,88.40537 C 854.782,97.13953 857.1304,104.01971 861.827,109.04594 C 866.5237,114.07219 872.4151,116.58531 879.5013,116.5853 C 886.7193,116.58531 892.6601,114.04747 897.3239,108.97178 C 901.9875,103.89611 904.3194,96.69458 904.3194,87.36716 C 904.3194,81.46755 903.3223,76.31771 901.3284,71.91764 C 899.3343,67.51767 896.4174,64.10642 892.5778,61.68387 C 888.738,59.26145 884.4286,58.05021 879.6496,58.05015 C 872.86,58.05021 867.0181,60.38206 862.1237,65.04569 C 857.2292,69.70944 854.782,77.49599 854.7821,88.40537 L 854.7821,88.40537 z"
 id="O"
 fill="#000" />
<use
 transform="translate(117.9,204.3)"
 xlink:href="#O" />
<use
 transform="translate(353.7,340.5)"
 xlink:href="#O" />
<use
 transform="translate(589.8,340.5)"
 xlink:href="#O" />
<use
 transform="translate(589.8,204.3)"
 xlink:href="#O" />
<use
 transform="translate(707.7,-2.1921875e-5)"
 xlink:href="#O" />
<path
 d="M 1704.9,1240.4562 L 1704.9,1104.5562 L 1587,1036.4562 L 1587,900.25617 L 1469.1,832.15617 L 1469.1,695.95617 L 1351.2,627.85617 L 1350.9,491.65617 L 1278.5841,450.00994 M 2412.3,287.35617 L 2294.7,219.25617 L 2176.5,287.35617 L 2058.6,219.25617 L 1940.7,287.35617 L 1822.8,219.25617 L 1704.9,287.35617 L 1587,219.25617 L 1511.7204,262.64051 M 1426.3074,262.64051 L 1350.9,219.25617 L 1233,287.35617 M 1233,287.35617 L 1115.1,219.25617 L 1040.3639,262.64051 M 53.7,287.65617 L 171.6,219.25617 L 289.5,287.35617 L 407.4,219.25617 L 525.6,287.35617 L 643.5,219.25617 L 761.4,287.35617 L 879.3,219.25617 L 954.3872,262.63988 M 866.7,136.35617 L 866.7,227.25617 M 892.2,136.35617 L 892.2,227.25617 M 1233,287.35617 L 1233,376.25617 M 1338.0949,484.32228 L 1418.7,437.65617 M 1599.6,227.25617 L 1599.6,136.35617 M 1574.1,227.25617 L 1574.1,136.35617 M 1350.6949,506.52228 L 1431.3,459.85617"
 style="fill:none;stroke:#000;stroke-width:7.5" />
</svg>
