<?xml version="1.0" encoding="utf-8"?>
<!-- Generator: Adobe Illustrator 19.2.1, SVG Export Plug-In . SVG Version: 6.00 Build 0)  -->
<svg version="1.1" id="Слой_1" xmlns="http://www.w3.org/2000/svg" xmlns:xlink="http://www.w3.org/1999/xlink" x="0px" y="0px"
	 viewBox="0 0 355 262.3" style="enable-background:new 0 0 355 262.3;" xml:space="preserve" width="355" height="262.3">
<g>
	<rect x="154.7" y="24.5" width="45.6" height="2.4"/>
	<rect x="81" y="39" transform="matrix(0.2948 -0.9556 0.9556 0.2948 -1.1155 122.1379)" width="2.4" height="45.6"/>
	<rect x="30.8" y="85.6" transform="matrix(0.9749 -0.2225 0.2225 0.9749 -23.3132 9.8413)" width="2.4" height="45.6"/>
	<rect x="74.6" y="127.4" transform="matrix(0.733 -0.6802 0.6802 0.733 -61.4314 100.5775)" width="45.6" height="2.4"/>
	<rect x="256.3" y="105.7" transform="matrix(0.6802 -0.7331 0.7331 0.6802 -11.867 229.902)" width="2.4" height="45.6"/>
	<rect x="300.1" y="107.2" transform="matrix(0.2221 -0.975 0.975 0.2221 145.5378 399.1757)" width="45.6" height="2.4"/>
	<rect x="250" y="60.6" transform="matrix(0.9556 -0.2947 0.2947 0.9556 -6.1071 83.1171)" width="45.6" height="2.4"/>
	<path d="M340.8,82.2l-0.5-0.5l-40.8-37.8l0,0l-1.5-1.4l-0.5-0.5l-0.7,0.2L242.6,59l-35.4-44.4l-0.4-0.5h-0.6h-2h-53.6h-2l-0.6,0
		l-0.4,0.5l-1.2,1.6l0,0L112.3,59L60,42.9v0l-1.9-0.6l-0.7-0.2l-0.5,0.5l-1.5,1.4l0,0L14.7,81.7l-0.5,0.5l0.2,0.7l12.4,54.2l0,0
		l0.4,1.9l0.2,0.7l0.7,0.2l53.1,16.4l0,0l1.9,0.6l0.7,0.2l0.5-0.5l41.6-38.6l34.8,16.7l1-2.2l-35-16.9l-12.6-55l34.3-43l0,0l0.9-1.1
		h1.4h53.6h1.4l0.9,1.1l0,0l34.3,43l-12.6,55l-35,16.9l1,2.2l34.8-16.7l40.2,37.3l0,0l1.5,1.4l0.5,0.5l0.7-0.2l1.9-0.6v0l53.1-16.4
		l0.7-0.2l0.2-0.7l0.4-1.9h0l12.4-54.2L340.8,82.2z M29.3,137.8L17.1,84.3l0,0L16.8,83l40.3-37.3l0,0l1-0.9l1.2,0.4l0,0l52.5,16.2
		l12.5,54.8L84,153.5l0,0l-1,0.9l-1.2-0.4v0L29.3,137.8z M325.9,136.5l-0.3,1.3l-53.7,16.6l-41.2-38.2l12.5-54.8l53.7-16.6
		l40.2,37.3l0,0l1,0.9L325.9,136.5L325.9,136.5z"/>
	<polygon points="170.1,133 170.2,133 184.6,155.4 188.5,155.4 188.5,126.7 184.9,126.7 184.9,149.1 184.8,149.1 170.4,126.7 
		166.5,126.7 166.5,155.4 170.1,155.4 	"/>
	<polygon points="178.7,197.2 178.7,161.4 176.3,161.4 176.3,192.5 142,212.3 143.2,214.3 176.3,195.2 176.3,197.2 176.3,199.2 
		176.3,199.8 176.9,200.2 178.6,201.2 178.6,201.2 180.3,202.1 147.2,221.2 148.4,223.3 182.7,203.5 210.6,219.7 211.8,217.6 
		178.7,198.5 	"/>
	<polygon points="234.7,235.5 234.7,235.5 220.3,213.1 216.4,213.1 216.4,241.8 220,241.8 220,219.4 220.1,219.4 234.5,241.8 
		238.3,241.8 238.3,213.1 234.7,213.1 	"/>
	<polygon points="260.2,224.9 246.1,224.9 246.1,213.1 242.3,213.1 242.3,241.8 246.1,241.8 246.1,228.3 260.2,228.3 260.2,241.8 
		264,241.8 264,213.1 260.2,213.1 	"/>
	<path d="M272.6,244.3c0.4-0.4,1-1,1.7-1.6l1.9-1.5c1.7-1.4,3-2.7,3.8-3.9s1.3-2.5,1.3-3.7c0-1-0.3-1.9-0.8-2.8
		c-0.5-0.8-1.2-1.5-2.2-2s-2-0.7-3.3-0.7c-1.2,0-2.3,0.2-3.3,0.7s-1.7,1.1-2.2,2c-0.6,0.9-0.9,1.9-1,3l2.6,0.4
		c0.1-1.3,0.5-2.3,1.1-3c0.7-0.7,1.6-1,2.8-1c0.7,0,1.4,0.1,1.9,0.4s1,0.7,1.4,1.2s0.5,1.1,0.5,1.8c0,0.9-0.4,1.9-1.1,2.9
		s-1.8,2.1-3.3,3.4l-1.6,1.3c-1.6,1.3-2.8,2.5-3.5,3.6s-1.2,2.2-1.2,3.4h13.3v-2.4h-9.9C271.7,245.3,272.1,244.8,272.6,244.3z"/>
	<path d="M134.6,214.7c-2.1-1.2-4.4-1.8-7-1.8c-2.6,0-5,0.6-7,1.8c-2.1,1.2-3.7,3-4.9,5.2c-1.2,2.3-1.8,4.9-1.8,7.8
		c0,2.9,0.6,5.5,1.8,7.7c1.2,2.2,2.8,4,4.9,5.2c2.1,1.2,4.4,1.9,7.1,1.9c2.6,0,4.9-0.6,7-1.8c2.1-1.2,3.7-2.9,4.9-5.2
		c1.2-2.2,1.8-4.8,1.8-7.8c0-3-0.6-5.6-1.8-7.8C138.3,217.7,136.7,215.9,134.6,214.7z M136.1,233.9c-0.8,1.7-2,3.1-3.5,4
		c-1.5,0.9-3.2,1.4-5.1,1.4c-1.9,0-3.6-0.5-5-1.4c-1.5-0.9-2.6-2.2-3.5-4c-0.8-1.7-1.3-3.8-1.3-6.1c0-2.4,0.4-4.5,1.2-6.3
		c0.8-1.8,2-3.1,3.4-4c1.5-0.9,3.2-1.4,5.1-1.4c1.9,0,3.6,0.5,5.1,1.4c1.5,0.9,2.6,2.3,3.4,4c0.8,1.8,1.2,3.8,1.2,6.2
		C137.4,230.2,137,232.2,136.1,233.9z"/>
</g>
</svg>
