<?xml version="1.0" encoding="iso-8859-1"?>
<!-- Generator: Adobe Illustrator 19.0.0, SVG Export Plug-In . SVG Version: 6.00 Build 0)  -->
<svg version="1.1" id="&#x421;&#x43B;&#x43E;&#x439;_1"
	 xmlns="http://www.w3.org/2000/svg" xmlns:xlink="http://www.w3.org/1999/xlink" x="0px" y="0px" viewBox="0 0 759.94 238.677"
	 style="enable-background:new 0 0 759.94 238.677;" xml:space="preserve" width="759.94" height="238.677">
<g>
	<polygon points="159.27,181.615 161.67,181.23 161.67,171.273 159.27,170.887 	"/>
	<polygon points="178.47,178.53 180.87,178.144 180.87,174.358 178.47,173.973 	"/>
	<polygon points="149.67,183.158 152.07,182.773 152.07,169.73 149.67,169.344 	"/>
	<polygon points="168.87,180.072 171.27,179.687 171.27,172.816 168.87,172.43 	"/>
	<polygon points="103.158,131.552 122.556,97.955 120.477,96.756 101.773,129.152 99.819,125.769 99.474,125.168 98.78,125.168 
		96.78,125.168 94.872,125.168 113.577,92.771 111.498,91.572 92.101,125.168 58.96,125.168 58.96,127.568 96.78,127.568 
		98.087,127.568 98.74,128.7 114.726,156.388 116.805,155.189 	"/>
	<rect x="3.887" y="89.995" transform="matrix(0.5 0.866 -0.866 0.5 89.4139 27.5212)" width="33.972" height="2.4"/>
	<rect x="20.042" y="143.176" transform="matrix(-0.8663 -0.4996 0.4996 -0.8663 -40.7399 310.8959)" width="2.4" height="35.45"/>
	<polygon points="547.465,144.951 530.087,175.051 528.78,175.051 475.18,175.051 473.873,175.051 456.494,144.951 454.415,146.15 
		472.14,176.851 472.485,177.451 473.18,177.451 475.18,177.451 528.78,177.451 530.78,177.451 531.472,177.452 531.819,176.851 
		532.819,175.118 532.819,175.118 549.544,146.15 	"/>
	<polygon points="473.873,77.685 475.18,77.685 528.78,77.685 530.087,77.685 546.726,106.505 548.805,105.306 532.819,77.618 
		532.819,77.618 531.819,75.886 531.474,75.285 530.78,75.285 528.78,75.285 475.18,75.285 473.18,75.285 472.487,75.284 
		472.14,75.886 471.14,77.618 455.154,105.306 457.233,106.505 	"/>
	<rect x="651.966" y="164.683" width="45.628" height="2.4"/>
	<rect x="686.187" y="105.41" transform="matrix(-0.5 -0.866 0.866 -0.5 971.1746 773.9279)" width="45.628" height="2.4"/>
	<rect x="617.745" y="105.411" transform="matrix(0.5 -0.866 0.866 0.5 227.9516 608.0452)" width="45.628" height="2.4"/>
	<polygon points="135.36,184.491 135.28,184.491 120.24,161.331 116.2,161.331 116.2,189.891 119.8,189.891 119.8,166.971 
		119.88,166.971 134.8,189.891 138.96,189.891 138.96,161.331 135.36,161.331 	"/>
	<polygon points="135.1,206.171 120.06,206.171 120.06,193.891 116.26,193.891 116.26,222.451 120.06,222.451 120.06,209.371 
		135.1,209.371 135.1,222.451 138.9,222.451 138.9,193.891 135.1,193.891 	"/>
	<polygon points="48.96,134.608 48.88,134.608 33.84,111.448 29.8,111.448 29.8,140.008 33.4,140.008 33.4,117.088 33.48,117.088 
		48.4,140.008 52.56,140.008 52.56,111.448 48.96,111.448 	"/>
	<path d="M137.82,65.785c-1.147-1.387-2.573-2.493-4.28-3.32s-3.693-1.24-5.96-1.24c-2.267,0-4.253,0.413-5.96,1.24
		s-3.133,1.933-4.28,3.32c-1.147,1.387-2.007,2.98-2.58,4.78s-0.86,3.673-0.86,5.62s0.287,3.82,0.86,5.62
		c0.573,1.8,1.433,3.393,2.58,4.78c1.147,1.387,2.573,2.487,4.28,3.3s3.693,1.22,5.96,1.22c2.267,0,4.253-0.407,5.96-1.22
		s3.133-1.913,4.28-3.3c1.147-1.387,2.007-2.98,2.58-4.78c0.573-1.8,0.86-3.673,0.86-5.62s-0.287-3.82-0.86-5.62
		S138.966,67.172,137.82,65.785z M136.9,80.445c-0.373,1.4-0.96,2.66-1.76,3.78c-0.8,1.12-1.827,2.02-3.08,2.7
		s-2.747,1.02-4.48,1.02c-1.733,0-3.227-0.34-4.48-1.02c-1.253-0.68-2.28-1.58-3.08-2.7c-0.8-1.12-1.387-2.38-1.76-3.78
		s-0.56-2.82-0.56-4.26c0-1.44,0.187-2.86,0.56-4.26s0.96-2.66,1.76-3.78s1.827-2.02,3.08-2.7c1.253-0.68,2.747-1.02,4.48-1.02
		c1.733,0,3.227,0.34,4.48,1.02c1.253,0.68,2.28,1.58,3.08,2.7c0.8,1.12,1.387,2.38,1.76,3.78c0.373,1.4,0.56,2.82,0.56,4.26
		C137.46,77.625,137.273,79.045,136.9,80.445z"/>
	<path d="M386.78,125.168l-0.693-0.001l-0.347,0.601l-25.821,44.723L301.043,175l-28.424-49.232l-0.345-0.6h-0.694h-2h-53.6h-2
		l-0.693-0.001l-0.347,0.601l-27.8,48.151h0l-1,1.732l-0.346,0.6l0.346,0.599l1,1.732l0,0l26.8,46.419l1,1.732l0.345,0.601h0.694h2
		h53.6h2l0.693,0.001l0.347-0.602l1-1.732h0l27.412-47.479l54.187,5.911l7.6-13.163h0l24-41.57l0.653-1.132h1.307h37.82v-2.4h-37.82
		H386.78z M271.54,223.803l-0.653,1.131h-1.307h-53.6h-1.307l-28.107-48.683l28.107-48.683h1.307h53.6h1.307l0.653,1.132
		l27.454,47.551L271.54,223.803z"/>
	<polygon points="455.76,111.448 452.16,111.448 452.16,134.608 452.08,134.608 437.04,111.448 433,111.448 433,140.008 
		436.6,140.008 436.6,117.088 436.68,117.088 451.6,140.008 455.76,140.008 	"/>
	<polygon points="567.36,134.608 567.28,134.608 552.24,111.448 548.2,111.448 548.2,140.008 551.8,140.008 551.8,117.088 
		551.88,117.088 566.8,140.008 570.96,140.008 570.96,111.448 567.36,111.448 	"/>
	<path d="M732.419,124.036L732.419,124.036l-27.454-47.551l17.254-29.884l-2.079-1.199l-17.253,29.883h-56.214l-16.969-29.391
		l-2.079,1.199l16.969,29.392l-28.107,48.683H577.36v2.4h39.127l27.453,47.55h0l1,1.732l0.345,0.601h0.694h2h53.6h2l0.693,0.001
		l0.347-0.602l27.8-48.151h0l1-1.732l0.346-0.599l-0.346-0.6L732.419,124.036z M702.887,175.051h-1.307h-53.6h-1.307l-28.107-48.683
		l28.107-48.683h56.214l28.107,48.683L702.887,175.051z"/>
	<path d="M604.24,36.942c1.093,1.333,2.467,2.38,4.12,3.14c1.653,0.76,3.587,1.14,5.8,1.14c3.653,0,6.533-1,8.64-3
		c2.107-2,3.347-4.8,3.72-8.4h-3.8c-0.08,1.173-0.32,2.267-0.72,3.28c-0.4,1.013-0.953,1.887-1.66,2.62s-1.547,1.307-2.52,1.72
		c-0.973,0.413-2.087,0.62-3.34,0.62c-1.707,0-3.173-0.32-4.4-0.96c-1.227-0.64-2.233-1.5-3.02-2.58
		c-0.787-1.08-1.367-2.347-1.74-3.8c-0.373-1.453-0.56-2.994-0.56-4.62c0-1.493,0.187-2.933,0.56-4.32
		c0.373-1.387,0.953-2.62,1.74-3.7c0.787-1.08,1.787-1.94,3-2.58s2.673-0.96,4.38-0.96c2,0,3.727,0.507,5.18,1.52
		s2.393,2.533,2.82,4.56h3.8c-0.213-1.52-0.667-2.86-1.36-4.02c-0.693-1.16-1.56-2.127-2.6-2.9c-1.04-0.773-2.227-1.36-3.56-1.76
		c-1.333-0.4-2.747-0.6-4.24-0.6c-2.187,0-4.127,0.393-5.82,1.18c-1.693,0.787-3.107,1.86-4.24,3.22
		c-1.133,1.36-1.993,2.953-2.58,4.78c-0.587,1.827-0.88,3.78-0.88,5.86s0.273,4.027,0.82,5.84
		C602.327,34.035,603.147,35.609,604.24,36.942z"/>
	<rect x="630" y="12.022" width="3.4" height="28.56"/>
	<path d="M737.2,33.102c-0.4,1.013-0.953,1.887-1.66,2.62c-0.707,0.733-1.547,1.307-2.52,1.72s-2.087,0.62-3.34,0.62
		c-1.707,0-3.173-0.32-4.4-0.96c-1.227-0.64-2.233-1.5-3.02-2.58c-0.787-1.08-1.367-2.347-1.74-3.8
		c-0.373-1.453-0.56-2.994-0.56-4.62c0-1.493,0.187-2.933,0.56-4.32c0.373-1.387,0.953-2.62,1.74-3.7c0.787-1.08,1.787-1.94,3-2.58
		c1.213-0.64,2.673-0.96,4.38-0.96c2,0,3.727,0.507,5.18,1.52s2.393,2.533,2.82,4.56h3.8c-0.213-1.52-0.667-2.86-1.36-4.02
		s-1.56-2.127-2.6-2.9c-1.04-0.773-2.227-1.36-3.56-1.76c-1.333-0.4-2.747-0.6-4.24-0.6c-2.187,0-4.127,0.393-5.82,1.18
		c-1.693,0.787-3.107,1.86-4.24,3.22c-1.133,1.36-1.993,2.953-2.58,4.78c-0.587,1.827-0.88,3.78-0.88,5.86s0.273,4.027,0.82,5.84
		c0.547,1.813,1.367,3.387,2.46,4.72s2.467,2.38,4.12,3.14c1.653,0.76,3.587,1.14,5.8,1.14c3.653,0,6.533-1,8.64-3
		c2.107-2,3.347-4.8,3.72-8.4h-3.8C737.84,30.995,737.6,32.089,737.2,33.102z"/>
	<rect x="745.2" y="12.022" width="3.4" height="28.56"/>
</g>
</svg>
