<?xml version="1.0" encoding="iso-8859-1"?>
<!-- Generator: Adobe Illustrator 19.1.0, SVG Export Plug-In . SVG Version: 6.00 Build 0)  -->
<svg version="1.1" id="&#x421;&#x43B;&#x43E;&#x439;_1"
	 xmlns="http://www.w3.org/2000/svg" xmlns:xlink="http://www.w3.org/1999/xlink" x="0px" y="0px" viewBox="0 0 388.828 406.318"
	 style="enable-background:new 0 0 388.828 406.318;" xml:space="preserve" width="388.828" height="406.318">
<g>
	<rect x="127.013" y="122.621" transform="matrix(-0.866 -0.5 0.5 -0.866 217.7692 305.5938)" width="45.628" height="2"/>
	<rect x="89.554" y="135.028" width="2" height="45.628"/>
	<rect x="148.827" y="169.25" transform="matrix(-0.4996 -0.8663 0.8663 -0.4996 58.2966 417.8038)" width="2" height="45.628"/>
	<rect x="239.746" y="109.976" transform="matrix(0.9749 0.2225 -0.2225 0.9749 31.1279 -54.3132)" width="33.675" height="2"/>
	<path d="M263.874,214.705l-0.444-1.95l-36.716,8.38l0,0l-1.481,0.338l-44.28-35.312v-1.518v-55.118l1.187-0.947l0,0l27.216-21.704
		l-1.247-1.563l-28.247,22.526l-49.293-28.459l-0.5-0.288l-0.5,0.288l-1.732,1l0,0l-46.419,26.8v0l-1.732,1l-0.5,0.287v0.579v2v53.6
		v1.423l-1.232,0.711v0l-26.48,15.288l0.999,1.733l26.48-15.288l0,0l1.232-0.712l47.651,27.512l1.732,1l0.5,0.288l0.5-0.288
		l48.151-27.8l0,0l1.142-0.659l44.009,35.096l-12.549,54.98l-52.578,16.218l0,0l-1.911,0.59l-0.552,0.169l-0.129,0.564
		l-12.817,56.156l-0.128,0.562l0.422,0.393l42.224,39.178l0.422,0.394l0.553-0.171l53.13-16.388v0l1.911-0.59l0.552-0.169
		l0.129-0.564l0.445-1.95l12.372-54.206l0.128-0.562l-0.423-0.392l-1.466-1.36l-39.292-36.457l-1.043-0.968l12.549-54.98
		L263.874,214.705z M178.952,184.642v1.423l-1.232,0.711l0,0l-46.419,26.8v0l-1.232,0.712l-48.883-28.222v-1.423v-53.6v-1.423
		l1.231-0.711l47.651-27.512l47.652,27.511l0,0l1.232,0.711V184.642z M252.246,317.261L252.246,317.261l1.043,0.968l-12.244,53.644
		l-0.316,1.386l-1.359,0.419l-52.578,16.218l-1.042-0.967l-40.335-37.425l12.56-55.03l1.359-0.419l52.578-16.218l1.042,0.967
		L252.246,317.261z"/>
	<rect x="228.092" y="206.369" transform="matrix(-0.9749 0.2225 -0.2225 -0.9749 529.8618 355.0368)" width="33.675" height="2"/>
	<rect x="203.414" y="304.9" transform="matrix(-0.7331 -0.6802 0.6802 -0.7331 184.0006 684.0158)" width="45.628" height="2"/>
	<rect x="159.827" y="303.26" transform="matrix(-0.975 -0.2221 0.2221 -0.975 245.2144 679.7244)" width="2" height="45.628"/>
	<rect x="209.998" y="349.813" transform="matrix(-0.2947 -0.9556 0.9556 -0.2947 -82.903 684.0635)" width="2" height="45.628"/>
	<rect x="334.704" y="59.913" width="39.95" height="2"/>
	<rect x="299.135" y="226.917" transform="matrix(0.7817 -0.6237 0.6237 0.7817 -80.1383 238.1645)" width="2" height="13.277"/>
	<polygon points="217.212,84.702 217.388,84.702 232.818,106.752 236.236,106.752 236.236,78.569 232.759,78.569 232.759,100.698 
		232.583,100.698 217.154,78.569 213.736,78.569 213.736,106.752 217.212,106.752 	"/>
	<polygon points="278.97,106.476 280.449,106.814 305.023,157.842 290.03,188.977 291.831,189.846 306.166,160.079 306.166,160.079 
		307.034,158.277 307.243,157.842 307.034,157.408 306.166,155.606 306.166,155.606 282.315,106.079 283.17,105.006 302.982,80.163 
		301.418,78.916 280.751,104.832 279.414,104.526 242.697,96.146 242.253,98.096 278.97,106.476 	"/>
	<path d="M26.869,204.271c4.023,0,7.246,2.422,8.145,6.113h3.555c-0.898-5.625-5.566-9.355-11.699-9.355
		c-7.715,0-12.695,5.703-12.695,14.551c0,8.926,4.922,14.57,12.695,14.57c6.23,0,10.41-3.105,11.699-8.672h-3.555
		c-1.016,3.437-3.984,5.43-8.125,5.43c-5.566,0-9.102-4.414-9.102-11.328C17.787,208.724,21.361,204.271,26.869,204.271z"/>
	<rect x="43.033" y="200.267" width="3.398" height="29.414"/>
	<polygon points="288.915,217.307 288.739,217.307 273.309,195.178 269.891,195.178 269.891,223.361 273.368,223.361 
		273.368,201.31 273.544,201.31 288.974,223.361 292.391,223.361 292.391,195.178 288.915,195.178 	"/>
	<polygon points="310.257,191.131 310.257,198.465 303.252,198.465 303.252,201.123 310.257,201.123 310.257,208.637 
		312.915,208.637 312.915,201.123 319.921,201.123 319.921,198.465 312.915,198.465 312.915,191.131 	"/>
	<path d="M298.834,199.884c0,7.043,5.709,12.753,12.753,12.753c7.043,0,12.753-5.709,12.753-12.753s-5.71-12.753-12.753-12.753
		C304.543,187.131,298.834,192.841,298.834,199.884z M322.339,199.884c0,5.938-4.814,10.753-10.753,10.753
		c-5.938,0-10.753-4.814-10.753-10.753s4.814-10.753,10.753-10.753C317.525,189.131,322.339,193.945,322.339,199.884z"/>
	<polygon points="309.281,52.485 309.457,52.485 324.886,74.536 328.304,74.536 328.304,46.353 324.828,46.353 324.828,68.481 
		324.652,68.481 309.222,46.353 305.804,46.353 305.804,74.536 309.281,74.536 	"/>
	<polygon points="309.32,29.521 324.789,29.521 324.789,42.353 328.304,42.353 328.304,14.169 324.789,14.169 324.789,26.356 
		309.32,26.356 309.32,14.169 305.804,14.169 305.804,42.353 309.32,42.353 	"/>
	<path d="M317.054,239.977c-7.988,0-12.988,5.625-12.988,14.57s5,14.551,12.988,14.551c7.988,0,12.988-5.605,12.988-14.551
		S325.043,239.977,317.054,239.977z M317.054,265.856c-5.762,0-9.375-4.375-9.375-11.309c0-6.953,3.613-11.328,9.375-11.328
		c5.762,0,9.375,4.375,9.375,11.328C326.429,261.481,322.816,265.856,317.054,265.856z"/>
	<rect x="336.367" y="237.443" width="16.8" height="2.658"/>
	<path d="M344.767,226.019c-7.043,0-12.753,5.709-12.753,12.753s5.709,12.753,12.753,12.753s12.753-5.71,12.753-12.753
		S351.811,226.019,344.767,226.019z M344.767,249.524c-5.938,0-10.753-4.814-10.753-10.753s4.814-10.753,10.753-10.753
		s10.753,4.814,10.753,10.753S350.706,249.524,344.767,249.524z"/>
</g>
</svg>
