<?xml version="1.0" encoding="iso-8859-1"?>
<!-- Generator: Adobe Illustrator 19.1.0, SVG Export Plug-In . SVG Version: 6.00 Build 0)  -->
<svg version="1.1" id="&#x421;&#x43B;&#x43E;&#x439;_1"
	 xmlns="http://www.w3.org/2000/svg" xmlns:xlink="http://www.w3.org/1999/xlink" x="0px" y="0px" viewBox="0 0 394.583 388.743"
	 style="enable-background:new 0 0 394.583 388.743;" xml:space="preserve" width="394.583" height="388.743">
<g>
	<rect x="126.735" y="51.148" transform="matrix(-0.866 -0.5 0.5 -0.866 252.8874 172.457)" width="45.628" height="2.4"/>
	<rect x="89.076" y="63.755" width="2.4" height="45.628"/>
	<rect x="148.348" y="97.976" transform="matrix(-0.4996 -0.8663 0.8663 -0.4996 119.6282 310.6843)" width="2.4" height="45.628"/>
	<rect x="308.366" y="29.534" transform="matrix(-0.4996 -0.8663 0.8663 -0.4996 418.8722 346.6666)" width="2.4" height="45.628"/>
	<rect x="286.752" y="119.59" transform="matrix(-0.866 -0.5 0.5 -0.866 517.2621 380.1808)" width="45.628" height="2.4"/>
	<rect x="367.638" y="63.755" width="2.4" height="45.628"/>
	<rect x="328.123" y="336.992" width="2.4" height="37.577"/>
	<rect x="361.461" y="278.617" transform="matrix(-0.4996 -0.8663 0.8663 -0.4996 285.9242 760.6174)" width="2.4" height="38.21"/>
	<path d="M180.874,58.462l33.246-19.195l-1.199-2.079l-33.247,19.195L130.391,27.93l-0.599-0.346l-0.6,0.346l-49.883,28.8
		l-0.601,0.345v0.694v2v53.6v1.307l-1.132,0.653v0l-26.759,15.449l1.199,2.079l26.759-15.449l0,0l1.133-0.654l47.551,27.454l1.732,1
		l0.6,0.346l0.599-0.346l1.732-1l46.419-26.8l0,0l1.133-0.654l1.133,0.654l0,0l31.359,18.105l1.199-2.079l-31.359-18.105
		l-1.131-0.653V59.769V58.462z M178.474,59.769v54.907l-1.131,0.653l-47.552,27.454l-48.683-28.107v-1.307v-53.6v-1.307l1.132-0.653
		l46.419-26.8v0l1.133-0.654l1.133,0.654l0,0l46.419,26.8l1.131,0.653V59.769z"/>
	<path d="M229.84,40.131c-4.023,0-6.914-2.012-7.246-5.059h-3.535c0.332,4.98,4.473,8.223,10.449,8.223
		c6.484,0,10.547-3.223,10.547-8.379c0-4.043-2.363-6.289-8.203-7.754l-2.949-0.781c-3.828-0.996-5.391-2.266-5.391-4.395
		c0-2.754,2.539-4.648,6.191-4.648c3.672,0,6.113,1.855,6.426,4.883h3.516c-0.156-4.726-4.219-8.047-9.824-8.047
		c-5.859,0-9.961,3.281-9.961,7.969c0,3.828,2.305,6.113,7.5,7.441l3.613,0.938c3.789,0.977,5.449,2.441,5.449,4.824
		C236.422,38.12,233.649,40.131,229.84,40.131z"/>
	<path d="M26.871,132.997c4.023,0,7.246,2.422,8.145,6.113h3.555c-0.898-5.625-5.566-9.355-11.699-9.355
		c-7.715,0-12.695,5.703-12.695,14.551c0,8.926,4.922,14.57,12.695,14.57c6.23,0,10.41-3.105,11.699-8.672h-3.555
		c-1.016,3.437-3.984,5.43-8.125,5.43c-5.566,0-9.101-4.414-9.101-11.328C17.789,137.45,21.363,132.997,26.871,132.997z"/>
	<rect x="42.476" y="128.993" width="3.398" height="29.414"/>
	<polygon points="240.807,157.792 240.807,129.609 237.331,129.609 237.331,151.738 237.155,151.738 221.725,129.609 
		218.307,129.609 218.307,157.792 221.784,157.792 221.784,135.741 221.96,135.741 237.389,157.792 	"/>
	<path d="M379.806,56.73l-49.883-28.8l-0.599-0.346l-0.599,0.346L279.44,56.383L245.054,36.53l-1.199,2.079l34.385,19.852v1.307
		v54.907l-1.132,0.653l-31.358,18.105l1.199,2.079l31.358-18.105l0,0l1.133-0.654l1.133,0.654l0,0l46.419,26.8l1.732,1l0.599,0.346
		l0.599-0.346l1.732-1l46.419-26.8l0,0l1.732-1l0.601-0.345v-0.695v-2v-53.6v-2l0.001-0.693L379.806,56.73z M378.006,59.769v53.6
		v1.307l-48.683,28.107l-48.683-28.107V59.769v-1.307l47.55-27.453l0,0l1.133-0.654l1.133,0.654l0,0l47.55,27.453V59.769z"/>
	<polygon points="280.64,286.169 280.64,232.569 280.64,230.569 280.641,229.877 280.04,229.529 230.757,201.076 230.757,199.769 
		230.757,164.192 228.357,164.192 228.357,199.769 228.357,201.769 228.356,202.462 228.958,202.809 230.69,203.809 230.69,203.809 
		277.109,230.609 278.24,231.262 278.24,232.569 278.24,286.169 278.24,288.169 278.239,288.862 278.841,289.209 311.931,308.313 
		313.13,306.234 280.64,287.476 	"/>
	<polygon points="337.097,324.537 336.921,324.537 321.491,302.409 318.073,302.409 318.073,330.592 321.55,330.592 321.55,308.541 
		321.726,308.541 337.155,330.592 340.573,330.592 340.573,302.409 337.097,302.409 	"/>
</g>
</svg>
