<?xml version="1.0" standalone="no" ?>
<!DOCTYPE svg PUBLIC "-//W3C//DTD SVG 1.1//EN" "http://www.w3.org/Graphics/SVG/1.1/DTD/svg11.dtd">
<svg width="390px" height="280px" viewBox="0 0 78 56" style="" xmlns="http://www.w3.org/2000/svg" xmlns:xlink="http://www.w3.org/1999/xlink" version="1.1" >
<text x="0" y="0" stroke="transparent" fill="#000000" transform="matrix(0.05 0 0 0.05 11.3637 10.5958)" style="font:normal normal normal 200px 'Arial'" >
Cl</text>
<text x="0" y="0" stroke="transparent" fill="#000000" transform="matrix(0.05 0 0 0.05 36.3053 53.7958)" style="font:normal normal normal 200px 'Arial'" >
Cl</text>
<text x="0" y="0" stroke="transparent" fill="#000000" transform="matrix(0.05 0 0 0.05 61.9311 17.7972)" style="font:normal normal normal 200px 'Arial'" >
H</text>
<text x="0" y="0" stroke="transparent" fill="#000000" transform="matrix(0.05 0 0 0.05 61.9311 26.3388)" style="font:normal normal normal 200px 'Arial'" >
N</text>
<text x="0" y="0" stroke="transparent" fill="#000000" transform="matrix(0.05 0 0 0.05 50.2812 46.5169)" style="font:normal normal normal 200px 'Arial'" >
N</text>
<text x="0" y="0" stroke="transparent" fill="#000000" transform="matrix(0.05 0 0 0.05 36.3053 16.4542)" style="font:normal normal normal 200px 'Arial'" >
H</text>
<text x="0" y="0" stroke="transparent" fill="#000000" transform="matrix(0.05 0 0 0.05 36.3053 24.9958)" style="font:normal normal normal 200px 'Arial'" >
N</text>
<path stroke="transparent" fill="#000000" transform="matrix(0.05 0 0 0.05 -450 -238)" d="M 9056.08,5619.01 L 9044.08,5625.94 L 9044.08,5331.01 L 9056.08,5337.94 L 9056.08,5619.01 Z " />
<path stroke="transparent" fill="#000000" transform="matrix(0.05 0 0 0.05 -450 -238)" d="M 9107.92,5592.54 L 9095.92,5592.54 L 9095.92,5364.4 L 9107.92,5364.4 L 9107.92,5592.54 Z " />
<path stroke="transparent" fill="#000000" transform="matrix(0.05 0 0 0.05 -450 -238)" d="M 9044.08,5625.94 L 9056.08,5619.01 L 9299.49,5759.54 L 9299.49,5773.4 L 9044.08,5625.94 Z " />
<path stroke="transparent" fill="#000000" transform="matrix(0.05 0 0 0.05 -450 -238)" d="M 10496.2,5432.13 L 10510.9,5430.58 L 10362.6,5687.55 L 10356.5,5674 L 10496.2,5432.13 Z " />
<path stroke="transparent" fill="#000000" transform="matrix(0.05 0 0 0.05 -450 -238)" d="M 9056.08,5337.94 L 9044.08,5331.01 L 9293.49,5187.01 L 9299.49,5190.47 L 9299.49,5197.4 L 9056.08,5337.94 Z " />
<path stroke="transparent" fill="#000000" transform="matrix(0.05 0 0 0.05 -450 -238)" d="M 9299.49,5773.4 L 9299.49,5759.54 L 9542.91,5619.01 L 9548.91,5622.47 L 9548.91,5629.4 L 9299.49,5773.4 Z " />
<path stroke="transparent" fill="#000000" transform="matrix(0.05 0 0 0.05 -450 -238)" d="M 9302.49,5711.81 L 9296.49,5701.42 L 9494.07,5587.35 L 9500.07,5597.74 L 9302.49,5711.81 Z " />
<path stroke="transparent" fill="#000000" transform="matrix(0.05 0 0 0.05 -450 -238)" d="M 9299.49,5197.4 L 9299.49,5190.47 L 9305.49,5187.01 L 9548.91,5327.54 L 9548.91,5334.47 L 9542.91,5337.94 L 9299.49,5197.4 Z " />
<path stroke="transparent" fill="#000000" transform="matrix(0.05 0 0 0.05 -450 -238)" d="M 9296.49,5255.53 L 9302.49,5245.14 L 9500.07,5359.21 L 9494.07,5369.6 L 9296.49,5255.53 Z " />
<path stroke="transparent" fill="#000000" transform="matrix(0.05 0 0 0.05 -450 -238)" d="M 9554.91,5619.01 L 9548.91,5622.47 L 9542.91,5619.01 L 9542.91,5337.94 L 9548.91,5334.47 L 9554.91,5337.94 L 9554.91,5619.01 Z " />
<path stroke="transparent" fill="#000000" transform="matrix(0.05 0 0 0.05 -450 -238)" d="M 9305.49,5187.01 L 9299.49,5190.47 L 9293.49,5187.01 L 9293.49,5006.08 L 9305.49,5006.08 L 9305.49,5187.01 Z " />
<path stroke="transparent" fill="#000000" transform="matrix(0.05 0 0 0.05 -450 -238)" d="M 9548.91,5629.4 L 9548.91,5622.47 L 9554.91,5619.01 L 9713.73,5710.7 L 9707.73,5721.09 L 9548.91,5629.4 Z " />
<path stroke="transparent" fill="#000000" transform="matrix(0.05 0 0 0.05 -450 -238)" d="M 10510.9,5430.58 L 10496.2,5432.13 L 10387,5310.85 L 10395.9,5302.82 L 10510.9,5430.58 Z " />
<path stroke="transparent" fill="#000000" transform="matrix(0.05 0 0 0.05 -450 -238)" d="M 10054.2,5338.18 L 10047.7,5334.47 L 10048.1,5327.75 L 10205.8,5257.55 L 10210.6,5268.51 L 10054.2,5338.18 Z " />
<path stroke="transparent" fill="#000000" transform="matrix(0.05 0 0 0.05 -450 -238)" d="M 10356.5,5674 L 10362.6,5687.55 L 10171.6,5646.95 L 10174.1,5635.21 L 10356.5,5674 Z " />
<path stroke="transparent" fill="#000000" transform="matrix(0.05 0 0 0.05 -450 -238)" d="M 10042.1,5338.14 L 10047.7,5334.47 L 10054.2,5338.18 L 10072.7,5514.87 L 10060.8,5516.12 L 10042.1,5338.14 Z " />
<path stroke="transparent" fill="#000000" transform="matrix(0.05 0 0 0.05 -450 -238)" d="M 10097.3,5367.14 L 10109.2,5365.88 L 10124.3,5509.45 L 10112.4,5510.7 L 10097.3,5367.14 Z " />
<path stroke="transparent" fill="#000000" transform="matrix(0.05 0 0 0.05 -450 -238)" d="M 9554.91,5337.94 L 9548.91,5334.47 L 9548.91,5327.54 L 9694.6,5243.43 L 9700.6,5253.82 L 9554.91,5337.94 Z " />
<path stroke="transparent" fill="#000000" transform="matrix(0.05 0 0 0.05 -450 -238)" d="M 10048.1,5327.75 L 10047.7,5334.47 L 10042.1,5338.14 L 9894.65,5253.02 L 9900.65,5242.63 L 10048.1,5327.75 Z " />
</svg>
