<?xml version="1.0" encoding="iso-8859-1"?>
<!-- Generator: Adobe Illustrator 19.1.0, SVG Export Plug-In . SVG Version: 6.00 Build 0)  -->
<svg version="1.1" id="&#x421;&#x43B;&#x43E;&#x439;_1"
	 xmlns="http://www.w3.org/2000/svg" xmlns:xlink="http://www.w3.org/1999/xlink" x="0px" y="0px" viewBox="0 0 418.422 374.372"
	 style="enable-background:new 0 0 418.422 374.372;" xml:space="preserve" width="418.422" height="374.372">
<g>
	<rect x="163.767" y="103.081" width="2" height="45.628"/>
	<rect x="223.039" y="137.302" transform="matrix(-0.4995 -0.8663 0.8663 -0.4995 197.2507 434.183)" width="2" height="45.628"/>
	<rect x="201.225" y="90.674" transform="matrix(-0.866 -0.5 0.5 -0.866 372.2261 283.0845)" width="45.628" height="2"/>
	<rect x="302.305" y="174.421" transform="matrix(-0.9749 0.2225 -0.2225 -0.9749 669.3174 275.4284)" width="33.675" height="2"/>
	<rect x="234.039" y="271.312" transform="matrix(-0.975 -0.222 0.222 -0.975 398.904 633.0988)" width="2" height="45.628"/>
	<rect x="284.211" y="317.865" transform="matrix(-0.2947 -0.9556 0.9556 -0.2947 43.708 713.6182)" width="2" height="45.628"/>
	<rect x="277.627" y="272.953" transform="matrix(-0.7331 -0.6802 0.6802 -0.7331 334.3435 679.126)" width="45.628" height="2"/>
	<path d="M330.221,284.396L330.221,284.396l-1.36,0.419l-40.334-37.424l0,0l-1.043-0.968l12.244-53.644h0l0.305-1.337l38.053-8.685
		l-0.444-1.95l-36.716,8.38v0l-1.481,0.338l-44.281-35.312V97.576l28.403-22.651l-1.247-1.563l-27.216,21.704l-1.03,0.822
		l-49.293-28.459l-0.5-0.288l-0.5,0.288l-49.883,28.8l-0.5,0.288v0.579v2v53.6v1.423l-1.232,0.711l-31.358,18.105l0.999,1.733
		l32.591-18.816l47.652,27.512l0,0l1.732,1l0.5,0.288l0.5-0.288l1.732-1l0,0l47.561-27.459l1.03,0.822l42.979,34.274l-0.305,1.338
		l-12.244,53.643l-54.489,16.808l-0.552,0.169l-0.129,0.564l-0.445,1.95h0l-11.927,52.256h0l-0.445,1.95l-0.128,0.562l0.422,0.393
		l40.758,37.818l1.466,1.36l0.422,0.393l0.553-0.171l1.911-0.589v0l53.13-16.388l0.552-0.169l0.129-0.564l0.445-1.95h0
		l12.244-53.643l1.359-0.419l31.813-9.813l-0.589-1.911L330.221,284.396z M253.165,154.117l-1.232,0.711l-46.419,26.8l0,0
		l-1.232,0.712l-1.233-0.712l0,0l-47.651-27.511v-1.423v-53.6v-1.423l1.232-0.711l47.651-27.512l47.651,27.512l1.232,0.711V154.117z
		 M314.941,341.312l-52.578,16.218l0,0l-1.359,0.419l-1.042-0.967l0,0l-40.335-37.425l0.317-1.387l12.244-53.643l1.359-0.419
		l52.578-16.218l1.042,0.967l0,0l40.335,37.425L314.941,341.312z"/>
	<rect x="68.634" y="167.685" transform="matrix(-0.866 -0.5 0.5 -0.866 62.8195 354.2014)" width="20.46" height="2"/>
	<rect x="98.331" y="203.518" width="2" height="16.382"/>
	<rect x="108.699" y="203.518" width="2" height="16.382"/>
	<polygon points="363.127,185.359 362.952,185.359 347.522,163.23 344.104,163.23 344.104,191.413 347.581,191.413 347.581,169.363 
		347.756,169.363 363.186,191.413 366.604,191.413 366.604,163.23 363.127,163.23 	"/>
	<polygon points="353.182,74.529 354.662,74.867 378.577,124.527 378.577,124.527 379.236,125.895 378.577,127.262 364.242,157.029 
		366.044,157.898 380.379,128.131 381.246,126.329 381.456,125.895 381.246,125.46 359.024,79.315 383.909,48.111 382.345,46.863 
		358.061,77.315 357.122,75.366 357.122,75.366 356.255,73.564 356.046,73.131 355.576,73.024 353.626,72.579 353.626,72.579 
		351.518,72.098 375.803,41.646 374.239,40.399 349.354,71.604 316.91,64.198 316.466,66.148 353.182,74.529 	"/>
	<polygon points="291.425,52.754 291.6,52.754 307.03,74.805 310.448,74.805 310.448,46.621 306.971,46.621 306.971,68.75 
		306.796,68.75 291.366,46.621 287.948,46.621 287.948,74.805 291.425,74.805 	"/>
	<polygon points="291.464,29.789 306.932,29.789 306.932,42.621 310.448,42.621 310.448,14.438 306.932,14.438 306.932,26.625 
		291.464,26.625 291.464,14.438 287.948,14.438 287.948,42.621 291.464,42.621 	"/>
	<path d="M380.212,257.792c4.023,0,7.246,2.422,8.145,6.113h3.555c-0.898-5.625-5.566-9.355-11.699-9.355
		c-7.715,0-12.695,5.703-12.695,14.551c0,8.926,4.922,14.57,12.695,14.57c6.23,0,10.41-3.105,11.699-8.672h-3.555
		c-1.016,3.438-3.984,5.43-8.125,5.43c-5.566,0-9.102-4.414-9.102-11.328C371.13,262.245,374.704,257.792,380.212,257.792z"/>
	<rect x="396.376" y="253.788" width="3.398" height="29.414"/>
	<path d="M391.267,14.17c-7.988,0-12.988,5.625-12.988,14.57c0,8.945,5,14.551,12.988,14.551s12.988-5.605,12.988-14.551
		C404.255,19.795,399.255,14.17,391.267,14.17z M391.267,40.049c-5.762,0-9.375-4.375-9.375-11.309
		c0-6.953,3.613-11.328,9.375-11.328s9.375,4.375,9.375,11.328C400.642,35.674,397.029,40.049,391.267,40.049z"/>
	<polygon points="115.765,197.118 115.765,168.934 112.289,168.934 112.289,191.063 112.113,191.063 96.683,168.934 93.265,168.934 
		93.265,197.118 96.742,197.118 96.742,175.067 96.918,175.067 112.347,197.118 	"/>
	<polygon points="103.187,160.247 105.844,160.247 105.844,152.733 112.85,152.733 112.85,150.075 105.844,150.075 105.844,142.742 
		103.187,142.742 103.187,150.075 96.181,150.075 96.181,152.733 103.187,152.733 	"/>
	<path d="M104.515,164.247c7.043,0,12.753-5.71,12.753-12.753s-5.709-12.753-12.753-12.753c-7.043,0-12.753,5.709-12.753,12.753
		S97.472,164.247,104.515,164.247z M104.515,140.742c5.938,0,10.753,4.814,10.753,10.753s-4.814,10.753-10.753,10.753
		s-10.753-4.814-10.753-10.753S98.577,140.742,104.515,140.742z"/>
	<path d="M54.632,139.9c-7.988,0-12.988,5.625-12.988,14.57c0,8.945,5,14.551,12.988,14.551c7.988,0,12.988-5.605,12.988-14.551
		C67.621,145.525,62.621,139.9,54.632,139.9z M54.632,165.779c-5.762,0-9.375-4.375-9.375-11.309c0-6.953,3.613-11.328,9.375-11.328
		c5.762,0,9.375,4.375,9.375,11.328C64.007,161.404,60.394,165.779,54.632,165.779z"/>
	<rect x="18.519" y="137.366" width="16.8" height="2.658"/>
	<path d="M26.919,125.942c-7.043,0-12.753,5.71-12.753,12.753s5.709,12.753,12.753,12.753c7.043,0,12.753-5.709,12.753-12.753
		S33.963,125.942,26.919,125.942z M26.919,149.447c-5.938,0-10.753-4.814-10.753-10.753s4.814-10.753,10.753-10.753
		s10.753,4.814,10.753,10.753S32.858,149.447,26.919,149.447z"/>
	<path d="M104.515,226.3c-7.988,0-12.988,5.625-12.988,14.57s5,14.551,12.988,14.551c7.988,0,12.988-5.605,12.988-14.551
		S112.504,226.3,104.515,226.3z M104.515,252.179c-5.762,0-9.375-4.375-9.375-11.309c0-6.953,3.613-11.328,9.375-11.328
		c5.762,0,9.375,4.375,9.375,11.328C113.89,247.804,110.277,252.179,104.515,252.179z"/>
</g>
</svg>
