<?xml version="1.0" encoding="iso-8859-1"?>
<!-- Generator: Adobe Illustrator 19.1.0, SVG Export Plug-In . SVG Version: 6.00 Build 0)  -->
<svg version="1.1" id="&#x421;&#x43B;&#x43E;&#x439;_1"
	 xmlns="http://www.w3.org/2000/svg" xmlns:xlink="http://www.w3.org/1999/xlink" x="0px" y="0px" viewBox="0 0 446.202 374.372"
	 style="enable-background:new 0 0 446.202 374.372;" xml:space="preserve" width="446.202" height="374.372">
<g>
	<path d="M263.877,182.757l-0.444-1.95l-38.197,8.718l-44.281-35.312v-1.518V97.576l28.404-22.651l-1.247-1.563l-27.216,21.704
		l-1.03,0.822l-1.142-0.659l0,0l-46.419-26.8l-1.732-1l-0.5-0.288l-0.5,0.288l-48.151,27.8l-1.732,1l-0.5,0.288v0.579v2l0,55.023
		l-27.711,15.999l0.999,1.733l27.712-15.999l47.651,27.511l1.732,1l0.5,0.288l0.5-0.288l48.151-27.8l1.142-0.659l42.937,34.241
		l1.072,0.855l-12.549,54.981l-52.578,16.218v0l-1.911,0.59l-0.552,0.169l-0.129,0.564l-0.445,1.95h0l-12.372,54.206l-0.128,0.562
		l0.422,0.392l1.466,1.36l39.292,36.457l0,0l1.466,1.36l0.422,0.393l0.553-0.171l1.911-0.589l51.219-15.799v0l1.911-0.59
		l0.552-0.169l0.129-0.564l0.445-1.95h0l12.372-54.206l0.128-0.562l-0.422-0.392l-1.466-1.36l0,0l-39.291-36.457l-1.043-0.968
		l12.549-54.98L263.877,182.757z M178.955,152.695v1.423l-48.883,28.223l-48.883-28.223v-1.423l0-55.023l1.232-0.711l47.651-27.511
		l47.651,27.512l1.232,0.711V152.695z M253.292,286.282l-0.317,1.387h0l-12.244,53.643l-52.578,16.218v0l-1.359,0.419
		l-40.334-37.424l0,0l-1.043-0.968l0.317-1.387l12.244-53.643l1.359-0.419l52.578-16.218L253.292,286.282z"/>
	<rect x="228.095" y="174.421" transform="matrix(-0.9749 0.2225 -0.2225 -0.9749 522.7588 291.9421)" width="33.675" height="2"/>
	<rect x="127.016" y="90.674" transform="matrix(-0.866 -0.5 0.5 -0.866 233.7489 245.98)" width="45.628" height="2"/>
	<rect x="89.557" y="103.08" width="2" height="45.628"/>
	<rect x="148.83" y="137.302" transform="matrix(-0.4996 -0.8663 0.8663 -0.4996 85.9767 369.8982)" width="2" height="45.628"/>
	<rect x="159.83" y="271.312" transform="matrix(-0.975 -0.2221 0.2221 -0.975 252.316 616.6272)" width="2" height="45.628"/>
	<rect x="210.002" y="317.865" transform="matrix(-0.2946 -0.9556 0.9556 -0.2946 -52.3875 642.6886)" width="2" height="45.628"/>
	<rect x="203.417" y="272.953" transform="matrix(-0.7331 -0.6802 0.6802 -0.7331 205.7345 628.6504)" width="45.628" height="2"/>
	<polygon points="217.215,52.754 217.391,52.754 232.821,74.805 236.239,74.805 236.239,46.621 232.762,46.621 232.762,68.75 
		232.586,68.75 217.157,46.621 213.739,46.621 213.739,74.805 217.215,74.805 	"/>
	<polygon points="217.254,29.789 232.723,29.789 232.723,42.621 236.239,42.621 236.239,14.438 232.723,14.438 232.723,26.625 
		217.254,26.625 217.254,14.438 213.739,14.438 213.739,42.621 217.254,42.621 	"/>
	<polygon points="288.918,185.359 288.742,185.359 273.313,163.23 269.895,163.23 269.895,191.413 273.371,191.413 273.371,169.363 
		273.547,169.363 288.977,191.413 292.395,191.413 292.395,163.23 288.918,163.23 	"/>
	<path d="M26.872,172.323c4.023,0,7.246,2.422,8.145,6.113h3.555c-0.899-5.625-5.566-9.356-11.699-9.356
		c-7.715,0-12.695,5.703-12.695,14.551c0,8.926,4.922,14.57,12.695,14.57c6.23,0,10.41-3.105,11.699-8.672h-3.555
		c-1.016,3.438-3.984,5.43-8.125,5.43c-5.566,0-9.101-4.414-9.101-11.328C17.79,176.776,21.365,172.323,26.872,172.323z"/>
	<rect x="43.037" y="168.319" width="3.398" height="29.414"/>
	<path d="M317.057,43.291c7.988,0,12.988-5.605,12.988-14.551c0-8.945-5-14.57-12.988-14.57c-7.988,0-12.988,5.625-12.988,14.57
		C304.069,37.686,309.069,43.291,317.057,43.291z M317.057,17.413c5.762,0,9.375,4.375,9.375,11.328
		c0,6.933-3.613,11.309-9.375,11.309c-5.762,0-9.375-4.375-9.375-11.309C307.682,21.788,311.296,17.413,317.057,17.413z"/>
	<polygon points="382.065,155.641 367.884,131.079 388.394,95.554 386.661,94.555 366.729,129.079 365.602,127.127 365.603,127.127 
		364.603,125.395 364.315,124.895 363.736,124.895 361.736,124.895 359.482,124.895 379.415,90.37 377.682,89.371 357.173,124.895 
		306.765,124.895 284.815,79.315 309.699,48.111 308.136,46.863 283.851,77.315 282.913,75.366 282.913,75.366 282.045,73.564 
		281.837,73.131 281.367,73.024 279.417,72.579 279.417,72.579 277.309,72.098 301.593,41.646 300.03,40.399 275.145,71.604 
		242.7,64.198 242.256,66.148 278.973,74.529 278.973,74.529 280.453,74.866 305.026,125.895 290.033,157.029 291.834,157.898 
		306.765,126.895 361.736,126.895 363.159,126.895 363.87,128.126 380.333,156.64 	"/>
	<path d="M392.536,61.217c-7.988,0-12.988,5.625-12.988,14.57c0,8.945,5,14.551,12.988,14.551c7.988,0,12.988-5.605,12.988-14.551
		C405.525,66.842,400.525,61.217,392.536,61.217z M392.536,87.095c-5.762,0-9.375-4.375-9.375-11.309
		c0-6.953,3.613-11.328,9.375-11.328c5.762,0,9.375,4.375,9.375,11.328C401.911,82.72,398.298,87.095,392.536,87.095z"/>
	<path d="M392.536,160.983c-7.988,0-12.988,5.625-12.988,14.57s5,14.551,12.988,14.551c7.988,0,12.988-5.605,12.988-14.551
		S400.525,160.983,392.536,160.983z M392.536,186.862c-5.762,0-9.375-4.375-9.375-11.309c0-6.953,3.613-11.328,9.375-11.328
		c5.762,0,9.375,4.375,9.375,11.328C401.911,182.487,398.298,186.862,392.536,186.862z"/>
	<polygon points="428.509,161.451 428.509,173.639 413.04,173.639 413.04,161.451 409.525,161.451 409.525,189.635 413.04,189.635 
		413.04,176.803 428.509,176.803 428.509,189.635 432.025,189.635 432.025,161.451 	"/>
</g>
</svg>
