<?xml version="1.0" encoding="iso-8859-1"?>
<!-- Generator: Adobe Illustrator 19.1.0, SVG Export Plug-In . SVG Version: 6.00 Build 0)  -->
<svg version="1.1" id="&#x421;&#x43B;&#x43E;&#x439;_1"
	 xmlns="http://www.w3.org/2000/svg" xmlns:xlink="http://www.w3.org/1999/xlink" x="0px" y="0px" viewBox="0 0 354.331 383.754"
	 style="enable-background:new 0 0 354.331 383.754;" xml:space="preserve" width="354.331" height="383.754">
<g>
	<rect x="178.704" y="112.455" width="2" height="45.628"/>
	<rect x="103.937" y="151.475" transform="matrix(-0.5878 -0.809 0.809 -0.5878 77.898 344.6406)" width="45.628" height="2"/>
	<rect x="238.212" y="183.796" transform="matrix(-0.9749 0.2225 -0.2225 -0.9749 544.8246 308.2047)" width="33.675" height="2"/>
	<rect x="213.534" y="282.327" transform="matrix(-0.7331 -0.6802 0.6802 -0.7331 216.8913 651.7784)" width="45.628" height="2"/>
	<rect x="169.947" y="280.687" transform="matrix(-0.975 -0.2221 0.2221 -0.975 270.21 637.3908)" width="2" height="45.628"/>
	<rect x="220.118" y="327.239" transform="matrix(-0.2946 -0.9556 0.9556 -0.2946 -48.2488 664.4929)" width="2" height="45.628"/>
	<path d="M264.769,294.19l-1.043-0.967l0,0l-39.291-36.457l0,0l-1.043-0.968l12.549-54.98l38.053-8.685l-0.444-1.95l-36.716,8.38
		l-1.481,0.338l-44.28-35.313v-1.518v-53.6v-1.518L219.475,84.3l-1.247-1.563l-28.359,22.615l-1.39-0.452v0L151.74,92.963
		l-0.619,1.902l37.951,12.331v1.273v53.6v1.273l-53.399,17.35l-0.749-1.031l0,0l-32.253-44.393l21.352-29.388l-1.617-1.177
		l-20.604,28.358l-0.876,1.206H45.835h-2l-0.577-0.001l-0.289,0.501l-28.8,49.883l1.732,0.999l28.511-49.383h1.423h55.091
		l0.876,1.206l32.681,44.981l0.426,0.588l0.692-0.225l54.269-17.633l44.122,35.186l-0.305,1.338h0l-12.244,53.643l-1.359,0.419v0
		l-53.13,16.388l-0.552,0.169l-0.129,0.564l-0.445,1.95l-12.372,54.206l-0.128,0.562l0.422,0.393l40.758,37.818l0,0l1.466,1.36
		l0.422,0.393l0.553-0.171l53.13-16.388l0,0l1.911-0.59l0.552-0.169l0.129-0.564l0.445-1.95h0l12.244-53.643l33.173-10.232
		l-0.589-1.911L264.769,294.19z M263.092,297.044l-12.244,53.643l-52.578,16.218v0l-1.36,0.419l-41.377-38.393l0.317-1.387
		l12.244-53.643l52.578-16.218v0l1.36-0.419l1.042,0.967l0,0l39.291,36.457l1.043,0.968L263.092,297.044z"/>
	<rect x="208.19" y="31.078" transform="matrix(0.2225 0.9749 -0.9749 0.2225 207.2358 -195.7083)" width="36.265" height="2"/>
	<polygon points="223.855,55.996 223.855,84.179 227.332,84.179 227.332,62.129 227.508,62.129 242.937,84.179 246.355,84.179 
		246.355,55.996 242.879,55.996 242.879,78.125 242.703,78.125 227.273,55.996 	"/>
	<polygon points="289.089,83.904 290.569,84.241 291.228,85.61 291.228,85.61 315.143,135.269 314.484,136.637 300.149,166.404 
		301.951,167.273 316.286,137.506 317.154,135.704 317.363,135.269 317.154,134.835 316.286,133.033 316.286,133.033 294.931,88.69 
		319.816,57.485 318.253,56.238 293.968,86.69 292.162,82.939 291.954,82.506 291.483,82.398 289.533,81.953 287.426,81.472 
		311.71,51.021 310.147,49.774 285.262,80.978 252.817,73.573 252.373,75.523 289.089,83.904 	"/>
	<path d="M135.574,99.832c-4.023,0-6.914-2.012-7.246-5.059h-3.535c0.332,4.98,4.473,8.223,10.449,8.223
		c6.484,0,10.547-3.223,10.547-8.379c0-4.043-2.363-6.289-8.203-7.754l-2.949-0.781c-3.828-0.996-5.391-2.266-5.391-4.395
		c0-2.754,2.539-4.648,6.191-4.648c3.672,0,6.113,1.855,6.426,4.883h3.516c-0.156-4.727-4.219-8.047-9.824-8.047
		c-5.859,0-9.961,3.281-9.961,7.969c0,3.828,2.305,6.113,7.5,7.441l3.613,0.938c3.789,0.977,5.449,2.441,5.449,4.824
		C142.156,97.82,139.383,99.832,135.574,99.832z"/>
	<polygon points="299.035,194.734 298.859,194.734 283.429,172.605 280.011,172.605 280.011,200.788 283.488,200.788 
		283.488,178.737 283.663,178.737 299.093,200.788 302.511,200.788 302.511,172.605 299.035,172.605 	"/>
	<path d="M316.119,267.166c4.023,0,7.246,2.422,8.145,6.113h3.555c-0.898-5.625-5.566-9.355-11.699-9.355
		c-7.715,0-12.695,5.703-12.695,14.551c0,8.926,4.922,14.57,12.695,14.57c6.23,0,10.41-3.105,11.699-8.672h-3.555
		c-1.016,3.438-3.984,5.43-8.125,5.43c-5.566,0-9.102-4.414-9.102-11.328C307.037,271.62,310.611,267.166,316.119,267.166z"/>
	<rect x="332.283" y="263.163" width="3.398" height="29.414"/>
	<path d="M327.174,23.545c-7.988,0-12.988,5.625-12.988,14.57s5,14.551,12.988,14.551s12.988-5.605,12.988-14.551
		S335.162,23.545,327.174,23.545z M327.174,49.424c-5.762,0-9.375-4.375-9.375-11.309c0-6.953,3.613-11.328,9.375-11.328
		s9.375,4.375,9.375,11.328C336.549,45.049,332.936,49.424,327.174,49.424z"/>
</g>
</svg>
