<?xml version="1.0" encoding="iso-8859-1"?>
<!-- Generator: Adobe Illustrator 19.1.0, SVG Export Plug-In . SVG Version: 6.00 Build 0)  -->
<svg version="1.1" id="&#x421;&#x43B;&#x43E;&#x439;_1"
	 xmlns="http://www.w3.org/2000/svg" xmlns:xlink="http://www.w3.org/1999/xlink" x="0px" y="0px" viewBox="0 0 424.517 400.479"
	 style="enable-background:new 0 0 424.517 400.479;" xml:space="preserve" width="424.517" height="400.479">
<g>
	<rect x="235.892" y="223.479" width="33.964" height="2.4"/>
	<path d="M183.944,261.028L183.944,261.028l-0.316-1.387l20.698-25.955l-1.876-1.497l-20.549,25.767l-52.348-16.147v0l-1.911-0.589
		l-0.661-0.205l-0.509,0.473l-1.466,1.36l0,0l-40.249,37.346l-1.249-0.385v0l-31.165-9.613l-0.707,2.293l32.414,9.998l12.218,53.53
		h0l0.445,1.95l0.153,0.676l0.664,0.205l1.911,0.59v0l51.219,15.799v0l1.911,0.589l0.662,0.205l0.509-0.473l1.466-1.36l0,0
		l40.158-37.26l1.064,0.512v0l33.078,15.93l1.043-2.162l-34.36-16.547L183.944,261.028z M153.571,352.439L153.571,352.439
		l-0.958,0.889l-1.249-0.385l0,0l-52.468-16.184l-12.218-53.53l-0.291-1.275l40.25-37.347l0.958-0.889l1.249,0.385l52.468,16.184
		l12.509,54.805L153.571,352.439z"/>
	<rect x="128.938" y="259.563" transform="matrix(0.9556 0.2948 -0.2948 0.9556 83.6033 -33.1448)" width="45.628" height="2.4"/>
	<rect x="78.766" y="306.116" transform="matrix(-0.2225 -0.9749 0.9749 -0.2225 -175.4272 474.732)" width="45.628" height="2.4"/>
	
		<rect x="144.168" y="326.289" transform="matrix(-0.7331 0.6802 -0.6802 -0.7331 512.1376 453.9791)" width="45.628" height="2.4"/>
	
		<rect x="304.287" y="326.289" transform="matrix(-0.7331 -0.6802 0.6802 -0.7331 344.1347 790.0414)" width="45.628" height="2.4"/>
	<rect x="391.303" y="284.502" transform="matrix(-0.975 -0.2221 0.2221 -0.975 706.9423 694.1349)" width="2.4" height="45.628"/>
	
		<rect x="341.131" y="237.949" transform="matrix(-0.2947 -0.9556 0.9556 -0.2947 194.0306 664.7371)" width="2.4" height="45.628"/>
	<rect x="381.245" y="12.476" transform="matrix(0.8663 0.4996 -0.4996 0.8663 65.9633 -187.0883)" width="2.4" height="34.387"/>
	<polygon points="210.468,205.884 210.644,205.884 226.074,227.934 229.492,227.934 229.492,199.751 226.015,199.751 
		226.015,221.88 225.839,221.88 210.41,199.751 206.992,199.751 206.992,227.934 210.468,227.934 	"/>
	<polygon points="254.815,348.061 254.639,348.061 239.21,325.932 235.792,325.932 235.792,354.115 239.268,354.115 
		239.268,332.065 239.444,332.065 254.874,354.115 258.292,354.115 258.292,325.932 254.815,325.932 	"/>
	<polygon points="254.776,370.303 239.307,370.303 239.307,358.115 235.792,358.115 235.792,386.299 239.307,386.299 
		239.307,373.467 254.776,373.467 254.776,386.299 258.292,386.299 258.292,358.115 254.776,358.115 	"/>
	<path d="M26.869,253.395c4.023,0,7.246,2.422,8.145,6.113h3.555c-0.898-5.625-5.566-9.355-11.699-9.355
		c-7.715,0-12.695,5.703-12.695,14.551c0,8.926,4.922,14.57,12.695,14.57c6.231,0,10.41-3.105,11.699-8.672h-3.555
		c-1.016,3.437-3.984,5.43-8.125,5.43c-5.566,0-9.102-4.414-9.102-11.328C17.787,257.848,21.361,253.395,26.869,253.395z"/>
	<rect x="42.474" y="249.391" width="3.398" height="29.414"/>
	<path d="M409.836,280.666l-1.466-1.36l-40.758-37.818l-0.507-0.472l-0.664,0.205l-1.911,0.589l-52.348,16.147l-34.156-42.83
		l-0.737-0.924l17.326-30.009l-2.079-1.199l-17.388,30.117h-1.307h-37.95v2.4h37.95h1.422l35.192,44.13l-0.317,1.387h0
		l-12.243,53.642l-34.359,16.547l1.043,2.162l34.142-16.442l0.866,0.803l0,0l40.758,37.818l0.507,0.472l0.664-0.205l1.911-0.589
		l51.219-15.799v0l1.911-0.59l0.662-0.203l0.154-0.677l0.445-1.95l12.372-54.206l0.154-0.675L409.836,280.666z M407.404,283.228
		l-12.218,53.53l-52.468,16.184v0l-1.249,0.385l-41.208-38.235l0.291-1.275h0l12.218-53.53l1.249-0.385l52.468-16.184l0.958,0.889
		l39.292,36.457l0,0l0.959,0.89L407.404,283.228z"/>
	<polygon points="312.239,171.997 296.81,149.868 293.392,149.868 293.392,178.051 296.868,178.051 296.868,156.001 
		297.044,156.001 312.474,178.051 315.892,178.051 315.892,149.868 312.415,149.868 312.415,171.997 	"/>
	<polygon points="360.242,163.228 322.292,163.228 322.292,165.628 360.242,165.628 362.242,165.628 362.934,165.629 
		363.281,165.028 391.081,116.877 392.081,115.145 392.427,114.545 392.081,113.946 374.346,83.228 372.267,84.427 389.002,113.413 
		389.002,113.413 389.656,114.545 389.002,115.678 389.002,115.678 361.549,163.228 	"/>
	<polygon points="354.468,56.234 354.644,56.234 370.074,78.285 373.492,78.285 373.492,50.102 370.015,50.102 370.015,72.231 
		369.839,72.231 354.41,50.102 350.992,50.102 350.992,78.285 354.468,78.285 	"/>
	<polygon points="275.802,116.877 291.996,144.925 294.075,143.726 277.227,114.545 304.681,66.994 305.335,65.862 306.642,65.862 
		344.592,65.862 344.592,63.462 306.642,63.462 304.642,63.462 303.949,63.461 303.602,64.063 302.602,65.795 302.602,65.795 
		275.802,112.214 274.802,113.946 274.456,114.545 274.802,115.145 	"/>
</g>
</svg>
