<?xml version="1.0" encoding="iso-8859-1"?>
<!-- Generator: Adobe Illustrator 19.1.0, SVG Export Plug-In . SVG Version: 6.00 Build 0)  -->
<svg version="1.1" id="&#x421;&#x43B;&#x43E;&#x439;_1"
	 xmlns="http://www.w3.org/2000/svg" xmlns:xlink="http://www.w3.org/1999/xlink" x="0px" y="0px" viewBox="0 0 439.852 388.743"
	 style="enable-background:new 0 0 439.852 388.743;" xml:space="preserve" width="439.852" height="388.743">
<g>
	<rect x="353.642" y="29.534" transform="matrix(-0.4996 -0.8663 0.8663 -0.4996 486.7607 385.8907)" width="2.4" height="45.628"/>
	<rect x="412.915" y="63.755" width="2.4" height="45.628"/>
	<rect x="332.028" y="119.59" transform="matrix(-0.866 -0.5 0.5 -0.866 601.7498 402.8181)" width="45.628" height="2.4"/>
	<path d="M226.15,59.769v-1.307l33.246-19.195l-1.199-2.079L224.95,56.383l-49.284-28.454l-0.6-0.346l-0.599,0.346l-1.732,1
		l-46.419,26.8v0l-1.732,1l-0.601,0.345v0.694v2v53.6v1.307l-1.131,0.653l-48.151,27.8l-33.09,19.105l1.199,2.079l33.09-19.105
		l49.284-28.454l47.552,27.454l0,0l1.732,1l0.599,0.346l0.6-0.346l1.732-1v0l47.552-27.454l32.491,18.759l1.199-2.079l-32.49-18.758
		v-1.307V59.769z M223.75,59.769v53.6v1.307L176.2,142.13l0,0l-1.133,0.654l-1.133-0.654l0,0l-47.55-27.453v-1.307v-53.6v-1.307
		l48.683-28.107l48.683,28.107V59.769z"/>
	<rect x="193.625" y="29.534" transform="matrix(-0.4996 0.8663 -0.8663 -0.4996 337.5002 -90.2732)" width="2.4" height="45.628"/>
	<rect x="193.625" y="97.976" transform="matrix(-0.4995 -0.8663 0.8663 -0.4995 187.5089 349.9046)" width="2.4" height="45.628"/>
	<rect x="134.352" y="63.755" width="2.4" height="45.628"/>
	<rect x="406.737" y="278.617" transform="matrix(-0.4996 -0.8663 0.8663 -0.4996 353.83 799.8403)" width="2.4" height="38.21"/>
	<rect x="373.4" y="336.992" width="2.4" height="37.577"/>
	<rect x="34.467" y="143.542" transform="matrix(0.866 -0.5 0.5 0.866 -65.1939 46.1777)" width="38.21" height="2.4"/>
	<rect x="62.74" y="143.596" transform="matrix(-0.4996 -0.8663 0.8663 -0.4996 -45.0615 299.3693)" width="2.4" height="38.21"/>
	<path d="M425.082,56.729l-48.151-27.8l-1.732-1l-0.599-0.346L374,27.929l-1.732,1l-47.552,27.454l-1.133-0.654L290.33,36.53
		l-1.199,2.079l34.386,19.852v56.214l-32.49,18.758l1.199,2.079l32.491-18.759l47.552,27.454l0,0l1.732,1l0.599,0.346l0.599-0.346
		l1.732-1l0,0l48.151-27.8l0.6-0.345v-0.694v-2v-53.6v-2l0.001-0.693L425.082,56.729z M423.283,59.769v53.6v1.307l-1.132,0.653
		L374.6,142.783l-1.133-0.654l-46.419-26.8l-1.132-0.653V58.462l1.132-0.653L374.6,30.355l47.552,27.454l1.132,0.653V59.769z"/>
	<path d="M275.117,40.131c-4.023,0-6.914-2.012-7.246-5.059h-3.535c0.332,4.98,4.473,8.223,10.449,8.223
		c6.484,0,10.547-3.223,10.547-8.379c0-4.043-2.363-6.289-8.203-7.754l-2.949-0.781c-3.828-0.996-5.391-2.266-5.391-4.395
		c0-2.754,2.539-4.648,6.191-4.648c3.672,0,6.113,1.855,6.426,4.883h3.516c-0.156-4.727-4.219-8.047-9.824-8.047
		c-5.859,0-9.961,3.281-9.961,7.969c0,3.828,2.305,6.113,7.5,7.441l3.613,0.938c3.789,0.976,5.449,2.441,5.449,4.824
		C281.699,38.119,278.925,40.131,275.117,40.131z"/>
	<polygon points="286.083,157.792 286.083,129.608 282.607,129.608 282.607,151.738 282.431,151.738 267.001,129.608 
		263.583,129.608 263.583,157.792 267.06,157.792 267.06,135.741 267.236,135.741 282.665,157.792 	"/>
	<polygon points="325.917,286.169 325.917,231.262 375.199,202.809 374,200.729 324.716,229.183 276.034,201.076 276.034,199.769 
		276.034,164.192 273.633,164.192 273.633,199.769 273.633,201.769 273.632,202.462 274.234,202.809 323.516,231.262 
		323.516,286.169 323.516,288.169 323.515,288.862 324.117,289.209 325.849,290.209 325.849,290.209 357.208,308.313 
		358.406,306.234 325.917,287.476 	"/>
	<polygon points="382.373,324.537 382.197,324.537 366.768,302.409 363.35,302.409 363.35,330.592 366.826,330.592 366.826,308.541 
		367.002,308.541 382.432,330.592 385.85,330.592 385.85,302.409 382.373,302.409 	"/>
	<polygon points="33.192,180.537 33.016,180.537 17.586,158.409 14.168,158.409 14.168,186.592 17.645,186.592 17.645,164.541 
		17.821,164.541 33.25,186.592 36.668,186.592 36.668,158.409 33.192,158.409 	"/>
</g>
</svg>
