<?xml version="1.0" encoding="utf-8"?>
<!-- Generator: Adobe Illustrator 27.0.0, SVG Export Plug-In . SVG Version: 6.00 Build 0)  -->
<svg version="1.1" id="Слой_1" xmlns="http://www.w3.org/2000/svg" xmlns:xlink="http://www.w3.org/1999/xlink" x="0px" y="0px"
	 viewBox="0 0 615.93 483.49" style="enable-background:new 0 0 615.93 483.49;" xml:space="preserve" width="615.93" height="483.49">
<style type="text/css">
	.st0{fill:none;}
</style>
<path class="st0" d="z"/>
<g>
	<polygon points="359.01,271.17 362.9,271.17 362.9,242.54 359.27,242.54 359.27,265.02 344.23,242.54 340.34,242.54 340.34,271.17 
		343.97,271.17 343.97,248.67 	"/>
	<polygon points="370.32,271.71 396.92,291.04 379.66,344.16 323.81,344.16 306.55,291.04 332.97,271.84 331.56,269.9 
		304.54,289.53 249.95,311.92 227.76,295.79 226.35,297.73 252.92,317.04 242.64,348.7 244.92,349.44 253.05,324.43 304.47,292.41 
		322.06,346.56 381.41,346.56 399.75,290.12 371.73,269.77 	"/>
	<polygon points="244.07,379.65 229.03,357.17 225.14,357.17 225.14,385.81 228.77,385.81 228.77,363.31 243.81,385.81 
		247.7,385.81 247.7,357.17 244.07,357.17 	"/>
	<polygon points="215.17,244.96 200.28,244.96 200.28,233.21 196.5,233.21 196.5,261.84 200.28,261.84 200.28,248.34 215.17,248.34 
		215.17,261.84 218.96,261.84 218.96,233.21 215.17,233.21 	"/>
	<polygon points="215.27,291.02 200.23,268.54 196.34,268.54 196.34,297.17 199.97,297.17 199.97,274.67 215.01,297.17 
		218.9,297.17 218.9,268.54 215.27,268.54 	"/>
	<rect x="224.72" y="332" transform="matrix(0.309 -0.9511 0.9511 0.309 -152.4216 456.6151)" width="26.63" height="2.4"/>
	<path d="M162.55,317.04l26.39-19.17l-1.41-1.94l-26.66,19.37l-56.5-12.01L64.9,347.12l17.8,54.78l-26.73,29.68l1.78,1.61
		l26.73-29.68l54.99,11.69l17.59,54.12l2.28-0.74l-17.58-54.12l37.72-41.89h39.22v-2.4h-38.88L162.55,317.04z M139.97,412.85
		l-54.99-11.69L67.61,347.7l37.62-41.77l54.99,11.69l17.37,53.46L139.97,412.85z"/>
	<rect x="158.97" y="324.36" transform="matrix(0.9511 -0.309 0.309 0.9511 -99.4428 66.4881)" width="2.4" height="45.63"/>
	<rect x="70.42" y="331.74" transform="matrix(0.6691 -0.7431 0.7431 0.6691 -216.5766 179.4382)" width="45.63" height="2.4"/>
	<rect x="113.18" y="375.22" transform="matrix(0.2079 -0.9782 0.9782 0.2079 -298.7402 427.1685)" width="2.4" height="45.63"/>
	<path d="M32.71,454.85c-1.47,1.22-3.27,1.84-5.39,1.84c-1.74,0-3.37-0.45-4.86-1.35s-2.6-2.26-3.31-4.07s-1.06-3.94-1.06-6.38
		c0-1.89,0.3-3.72,0.9-5.5s1.64-3.19,3.12-4.25s3.32-1.58,5.52-1.58c1.91,0,3.5,0.47,4.77,1.43c1.26,0.95,2.23,2.46,2.89,4.55
		l3.73-0.88c-0.77-2.64-2.13-4.7-4.08-6.15c-1.95-1.46-4.36-2.19-7.23-2.19c-2.53,0-4.84,0.57-6.94,1.73s-3.72,2.84-4.86,5.06
		c-1.14,2.22-1.71,4.82-1.71,7.8c0,2.73,0.5,5.29,1.51,7.68s2.48,4.2,4.41,5.46c1.93,1.26,4.44,1.89,7.53,1.89
		c2.98,0,5.5-0.82,7.57-2.45c2.06-1.63,3.49-4.01,4.29-7.12l-3.79-0.96C35.18,451.81,34.18,453.63,32.71,454.85z"/>
	<rect x="43.63" y="430.81" width="3.52" height="28.63"/>
	<path d="M308.87,183.49c2.15-1.18,3.81-2.91,4.98-5.21c1.17-2.29,1.76-4.89,1.76-7.79c0-2.86-0.56-5.43-1.67-7.68
		c-1.11-2.26-2.73-4.02-4.85-5.29c-2.12-1.26-4.51-1.89-7.15-1.89c-4.04,0-7.33,1.34-9.88,4.04c-2.55,2.69-3.83,6.41-3.83,11.16
		c0,2.52,0.55,4.9,1.64,7.15c1.09,2.25,2.7,4.03,4.82,5.33c2.12,1.3,4.53,1.95,7.23,1.95C304.41,185.26,306.73,184.67,308.87,183.49
		z M294.92,179.04c-1.86-1.99-2.78-4.7-2.78-8.16c0-4.31,0.97-7.39,2.9-9.23c1.93-1.84,4.24-2.77,6.92-2.77
		c1.89,0,3.59,0.48,5.11,1.44s2.67,2.3,3.46,4.04s1.18,3.77,1.18,6.1c0,3.69-0.92,6.53-2.76,8.54c-1.84,2.01-4.19,3.01-7.04,3.01
		C299.1,182.01,296.77,181.02,294.92,179.04z"/>
	<rect x="448.44" y="174.55" transform="matrix(0.8659 -0.5002 0.5002 0.8659 -24.7202 259.2697)" width="45.63" height="2.4"/>
	<path d="M502.58,112.03L451.5,82.54l-49.87,28.79l-29.24-17.34l-1.22,2.06l29.26,17.35v56.22l-43.5,25.11l-33.89-19.57l-1.2,2.08
		l32.69,18.87l-3.98,2.3v4.6l-32.69-18.87l-1.2,2.08l33.89,19.57v30.23h2.4v-36.22l48.68-28.11l49.88,28.8l49.87-28.8l31.26,18.04
		l1.2-2.08l-31.26-18.04V112.03z M451.5,197.74l-48.68-28.11v-56.21l48.68-28.11l48.67,28.11v56.21L451.5,197.74z"/>
	<rect x="470.06" y="84.49" transform="matrix(0.5 -0.866 0.866 0.5 142.6985 461.7709)" width="2.4" height="45.63"/>
	<rect x="410.79" y="118.71" width="2.4" height="45.63"/>
	<path d="M558.51,186.32c-2.12-1.26-4.51-1.89-7.15-1.89c-4.04,0-7.33,1.34-9.88,4.04c-2.55,2.69-3.83,6.41-3.83,11.16
		c0,2.52,0.55,4.9,1.64,7.15c1.09,2.25,2.7,4.03,4.82,5.33c2.12,1.3,4.53,1.95,7.23,1.95c2.49,0,4.8-0.59,6.95-1.77
		c2.15-1.18,3.81-2.91,4.98-5.21c1.17-2.29,1.76-4.89,1.76-7.79c0-2.86-0.56-5.43-1.67-7.68
		C562.25,189.35,560.63,187.59,558.51,186.32z M558.36,207.81c-1.84,2.01-4.19,3.01-7.04,3.01c-2.8,0-5.13-0.99-6.98-2.98
		c-1.86-1.99-2.78-4.7-2.78-8.16c0-4.31,0.97-7.39,2.9-9.23c1.93-1.84,4.24-2.77,6.92-2.77c1.89,0,3.59,0.48,5.11,1.44
		s2.67,2.3,3.46,4.04s1.18,3.77,1.18,6.1C561.12,202.96,560.2,205.8,558.36,207.81z"/>
	<rect x="566.75" y="178.34" transform="matrix(0.8661 -0.4999 0.4999 0.8661 -11.3858 316.5839)" width="36.88" height="2.4"/>
	<polygon points="326.17,20.31 341.21,42.81 345.1,42.81 345.1,14.17 341.47,14.17 341.47,36.65 326.43,14.17 322.54,14.17 
		322.54,42.81 326.17,42.81 	"/>
	<polygon points="316.3,102.81 312.67,102.81 312.67,125.29 297.63,102.81 293.74,102.81 293.74,131.44 297.37,131.44 
		297.37,108.94 312.41,131.44 316.3,131.44 	"/>
	<polygon points="340.34,68.96 340.34,97.59 343.97,97.59 343.97,75.09 359.01,97.59 362.9,97.59 362.9,68.96 359.27,68.96 
		359.27,91.44 344.23,68.96 	"/>
	<rect x="283.87" y="37.53" width="32.22" height="2.4"/>
	<polygon points="286.38,101.89 259.95,82.68 277.21,29.56 316.09,29.56 316.09,27.16 275.46,27.16 257.13,83.6 284.97,103.83 	"/>
	<rect x="280.05" y="73.82" transform="matrix(0.5878 -0.809 0.809 0.5878 45.6899 263.3245)" width="2.4" height="26.01"/>
	<rect x="323.48" y="98.94" transform="matrix(0.8091 -0.5877 0.5877 0.8091 3.8373 212.0967)" width="9.71" height="2.4"/>
	<rect x="341.62" y="50.41" transform="matrix(0.9511 -0.3089 0.3089 0.9511 -0.4441 108.6357)" width="2.4" height="10.62"/>
	<polygon points="260.16,254.09 262.03,255.62 270.18,247.48 268.65,245.61 	"/>
	<polygon points="277.35,256.27 275.83,254.4 268.95,261.27 270.82,262.8 	"/>
	<polygon points="279.61,269.98 284.53,265.06 283.01,263.19 277.74,268.45 	"/>
	<polygon points="288.4,277.16 291.71,273.85 290.19,271.98 286.53,275.63 	"/>
	<polygon points="297.19,284.33 298.89,282.64 297.36,280.77 295.32,282.81 	"/>
</g>
<path class="st0" d="z"/>
</svg>
