<svg id="0" version="1.0" viewBox="0 0 937.54742 1026.8951" xmlns="http://www.w3.org/2000/svg" xmlns:svg="http://www.w3.org/2000/svg" width="937.54742" height="1026.8951">
  <g id="1" transform="matrix(3.0185043,0,0,3.0185043,-854.99134,-227.29337)">
    <text fill="#000000" font-family="Arial" font-size="38.40000153px" font-style="normal" font-weight="normal" id="2" style="text-anchor:start;text-align:start;" x="424.79999" xml:space="preserve" y="210.39999">N</text>
    <path d="m464.75,76.4-52.4,0" fill="none" id="3" stroke="#000" stroke-linecap="butt" stroke-linejoin="miter" stroke-miterlimit="4" stroke-width="0.80000001px" style="stroke-dasharray:none;"/>
    <path d="m466.5,75.3-1.1,2.25-53.7,0-1.1-2.25,55.9,0z" fill="#000" fill-rule="evenodd" id="4"/>
    <path d="M498.9,118.05,467.15,77.6" fill="none" id="5" stroke="#000" stroke-linecap="butt" stroke-linejoin="miter" stroke-miterlimit="4" stroke-width="0.80000001px" style="stroke-dasharray:none;"/>
    <path d="m500.5,117.9-0.4,1.35-1.25,0.25-33.45-41.95,1.1-2.25,34,42.6z" fill="#000" fill-rule="evenodd" id="6"/>
    <path d="m487.9,171.45,12.2-51" fill="none" id="7" stroke="#000" stroke-linecap="butt" stroke-linejoin="miter" stroke-miterlimit="4" stroke-width="0.80000001px" style="stroke-dasharray:none;"/>
    <path d="m489.15,172.25-1.25,0.4-1-0.8,11.95-52.35,1.25-0.25,0.95,0.9-11.9,52.1z" fill="#000" fill-rule="evenodd" id="8"/>
    <path d="m498.8,168.1,9.65-39.9" fill="none" id="9" stroke="#000" stroke-linecap="butt" stroke-linejoin="miter" stroke-miterlimit="4" stroke-width="0.80000001px" style="stroke-dasharray:none;"/>
    <path d="m499.9,169.55-2.25-0.5,9.65-42.3,2.25,0.5-9.65,42.3z" fill="#000" fill-rule="evenodd" id="10"/>
    <path d="M458.65,187.3,486.7,172.65" fill="none" id="11" stroke="#000" stroke-linecap="butt" stroke-linejoin="miter" stroke-miterlimit="4" stroke-width="0.80000001px" style="stroke-dasharray:none;"/>
    <path d="m457.95,188.35-1-2.1,29.95-14.4,1,0.8-0.2,1.35-29.75,14.35z" fill="#000" fill-rule="evenodd" id="12"/>
    <path d="m390.4,172.65,27.75,14.5" fill="none" id="13" stroke="#000" stroke-linecap="butt" stroke-linejoin="miter" stroke-miterlimit="4" stroke-width="0.80000001px" style="stroke-dasharray:none;"/>
    <path d="m389.4,174-0.2-1.35,1-0.8,29.65,14.3-1,2.05l-29.45-14.20z" fill="#000" fill-rule="evenodd" id="14"/>
    <path d="m377,120.45,12.2,51" fill="none" id="15" stroke="#000" stroke-linecap="butt" stroke-linejoin="miter" stroke-miterlimit="4" stroke-width="0.80000001px" style="stroke-dasharray:none;"/>
    <path d="m376.05,120.15,0.95-0.9,1.25,0.25,11.95,52.35-1,0.8-1.25-0.4-11.9-52.1z" fill="#000" fill-rule="evenodd" id="16"/>
    <path d="m368.65,128.2,9.7,39.9" fill="none" id="17" stroke="#000" stroke-linecap="butt" stroke-linejoin="miter" stroke-miterlimit="4" stroke-width="0.80000001px" style="stroke-dasharray:none;"/>
    <path d="m367.55,127.25,2.25-0.5,9.65,42.3-2.25,0.5-9.65-42.3z" fill="#000" fill-rule="evenodd" id="18"/>
    <path d="M409.95,77.6,378.2,118.05" fill="none" id="19" stroke="#000" stroke-linecap="butt" stroke-linejoin="miter" stroke-miterlimit="4" stroke-width="0.80000001px" style="stroke-dasharray:none;"/>
    <path d="m410.6,75.3,1.1,2.25-33.45,41.95-1.25-0.25-0.4-1.35,34-42.6z" fill="#000" fill-rule="evenodd" id="20"/>
    <path d="M551.25,103.1,501.3,119.25" fill="none" id="21" stroke="#000" stroke-linecap="butt" stroke-linejoin="miter" stroke-miterlimit="4" stroke-width="0.80000001px" style="stroke-dasharray:none;"/>
    <path d="m552.7,101.8-0.55,2.6-51.1,15.75-0.95-0.9,0.4-1.35,52.2-16.1z" fill="#000" fill-rule="evenodd" id="22"/>
    <path d="M591.4,139.15,553.65,104.3" fill="none" id="23" stroke="#000" stroke-linecap="butt" stroke-linejoin="miter" stroke-miterlimit="4" stroke-width="0.80000001px" style="stroke-dasharray:none;"/>
    <path d="m593.85,139.95-2.55,0.8-39.15-36.35,0.55-2.6,41.15,38.15z" fill="#000" fill-rule="evenodd" id="24"/>
    <path d="M580.5,142.5,551.1,115.4" fill="none" id="25" stroke="#000" stroke-linecap="butt" stroke-linejoin="miter" stroke-miterlimit="4" stroke-width="0.80000001px" style="stroke-dasharray:none;"/>
    <path d="m582.5,142.85-1.55,1.7-31.85-29.5,1.55-1.7,31.85,29.5z" fill="#000" fill-rule="evenodd" id="26"/>
    <path d="m580.4,192.55,12.2-51" fill="none" id="27" stroke="#000" stroke-linecap="butt" stroke-linejoin="miter" stroke-miterlimit="4" stroke-width="0.80000001px" style="stroke-dasharray:none;"/>
    <path d="m581.35,194.65-1.9-1.8,11.85-52.1,2.55-0.8-12.5,54.7z" fill="#000" fill-rule="evenodd" id="28"/>
    <path d="M529.25,209.9,579.2,193.75" fill="none" id="29" stroke="#000" stroke-linecap="butt" stroke-linejoin="miter" stroke-miterlimit="4" stroke-width="0.80000001px" style="stroke-dasharray:none;"/>
    <path d="m527.75,211.2,0.6-2.6,51.1-15.75,1.9,1.8-53.6,16.55z" fill="#000" fill-rule="evenodd" id="30"/>
    <path d="M531.8,198.8,570.85,186" fill="none" id="31" stroke="#000" stroke-linecap="butt" stroke-linejoin="miter" stroke-miterlimit="4" stroke-width="0.80000001px" style="stroke-dasharray:none;"/>
    <path d="m530.9,199.9-0.65-2.2,41.45-12.8,0.7,2.2-41.5,12.8z" fill="#000" fill-rule="evenodd" id="32"/>
    <path d="m489.1,173.85,37.75,34.85" fill="none" id="33" stroke="#000" stroke-linecap="butt" stroke-linejoin="miter" stroke-miterlimit="4" stroke-width="0.80000001px" style="stroke-dasharray:none;"/>
    <path d="m487.7,174,0.2-1.35,1.25-0.4,39.2,36.35-0.6,2.6l-40.05-37.20z" fill="#000" fill-rule="evenodd" id="34"/>
    <path d="M350.25,208.7,388,173.85" fill="none" id="35" stroke="#000" stroke-linecap="butt" stroke-linejoin="miter" stroke-miterlimit="4" stroke-width="0.80000001px" style="stroke-dasharray:none;"/>
    <path d="m349.35,211.2-0.6-2.6,39.2-36.35,1.25,0.4,0.2,1.35-40.05,37.2z" fill="#000" fill-rule="evenodd" id="36"/>
    <path d="m297.9,193.75,49.95,16.15" fill="none" id="37" stroke="#000" stroke-linecap="butt" stroke-linejoin="miter" stroke-miterlimit="4" stroke-width="0.80000001px" style="stroke-dasharray:none;"/>
    <path d="m295.75,194.65,1.95-1.8,51.05,15.75,0.6,2.6-53.6-16.55z" fill="#000" fill-rule="evenodd" id="38"/>
    <path d="m306.25,186,39.05,12.8" fill="none" id="39" stroke="#000" stroke-linecap="butt" stroke-linejoin="miter" stroke-miterlimit="4" stroke-width="0.80000001px" style="stroke-dasharray:none;"/>
    <path d="m304.7,187.1,0.7-2.2,41.45,12.8-0.65,2.2-41.5-12.8z" fill="#000" fill-rule="evenodd" id="40"/>
    <path d="m284.5,141.55,12.2,51" fill="none" id="41" stroke="#000" stroke-linecap="butt" stroke-linejoin="miter" stroke-miterlimit="4" stroke-width="0.80000001px" style="stroke-dasharray:none;"/>
    <path d="m283.25,139.95,2.55,0.8,11.9,52.1-1.95,1.8-12.5-54.7z" fill="#000" fill-rule="evenodd" id="42"/>
    <path d="m323.5,104.3-37.8,34.85" fill="none" id="43" stroke="#000" stroke-linecap="butt" stroke-linejoin="miter" stroke-miterlimit="4" stroke-width="0.80000001px" style="stroke-dasharray:none;"/>
    <path d="m324.4,101.8,0.55,2.6-39.15,36.35-2.55-0.8,41.15-38.15z" fill="#000" fill-rule="evenodd" id="44"/>
    <path d="m326,115.4-29.4,27.1" fill="none" id="45" stroke="#000" stroke-linecap="butt" stroke-linejoin="miter" stroke-miterlimit="4" stroke-width="0.80000001px" style="stroke-dasharray:none;"/>
    <path d="m326.45,113.35,1.55,1.7-31.8,29.5-1.55-1.7,31.8-29.5z" fill="#000" fill-rule="evenodd" id="46"/>
    <path d="M375.8,119.25,325.9,103.1" fill="none" id="47" stroke="#000" stroke-linecap="butt" stroke-linejoin="miter" stroke-miterlimit="4" stroke-width="0.80000001px" style="stroke-dasharray:none;"/>
    <path d="m376.6,117.9,0.4,1.35-0.95,0.9-51.1-15.75-0.55-2.6,52.2,16.1z" fill="#000" fill-rule="evenodd" id="48"/>
    <path d="m438.55,250,0-32.95" fill="none" id="49" stroke="#000" stroke-linecap="butt" stroke-linejoin="miter" stroke-miterlimit="4" stroke-width="0.80000001px" style="stroke-dasharray:none;"/>
    <path d="m439.7,250.5-2.3,1.35,0-36,2.3,0,0,34.65z" fill="#000" fill-rule="evenodd" id="50"/>
    <path d="M484.8,277.35,439.75,252.4" fill="none" id="51" stroke="#000" stroke-linecap="butt" stroke-linejoin="miter" stroke-miterlimit="4" stroke-width="0.80000001px" style="stroke-dasharray:none;"/>
    <path d="m487.15,277.9-2.3,1.35-47.45-27.4,2.3-1.35,47.45,27.4z" fill="#000" fill-rule="evenodd" id="52"/>
    <path d="m486,332.15,0-52.4" fill="none" id="53" stroke="#000" stroke-linecap="butt" stroke-linejoin="miter" stroke-miterlimit="4" stroke-width="0.80000001px" style="stroke-dasharray:none;"/>
    <path d="m487.15,332.7-2.3,1.3,0-54.75,2.3-1.35,0,54.8z" fill="#000" fill-rule="evenodd" id="54"/>
    <text fill="#000000" font-family="Arial" font-size="38.40000153px" font-style="normal" font-weight="normal" id="55" style="text-anchor:start;text-align:start;" x="520" xml:space="preserve" y="374.39999">N</text>
    <text fill="#000000" font-family="Arial" font-size="38.40000153px" font-style="normal" font-weight="normal" id="56" style="text-anchor:start;text-align:start;" x="547.20001" xml:space="preserve" y="374.39999">H</text>
    <path d="m513.4,348.65-26.2-14.1" fill="none" id="57" stroke="#000" stroke-linecap="butt" stroke-linejoin="miter" stroke-miterlimit="4" stroke-width="0.80000001px" style="stroke-dasharray:none;"/>
    <path d="m515.2,348.85-1.15,2-29.2-16.85,2.3-1.3,28.05,16.15z" fill="#000" fill-rule="evenodd" id="58"/>
    <path d="m533.4,414.3,0-32.95" fill="none" id="59" stroke="#000" stroke-linecap="butt" stroke-linejoin="miter" stroke-miterlimit="4" stroke-width="0.80000001px" style="stroke-dasharray:none;"/>
    <path d="m532.3,380.15,0,35.35,2.25,0,0-35.35-2.25,0z" fill="#000" fill-rule="evenodd" id="60"/>
  </g>
</svg>