<?xml version="1.0" encoding="UTF-8" standalone="no"?>
<!-- Created with Inkscape (http://www.inkscape.org/) -->

<svg
   width="444.15274mm"
   height="187.64461mm"
   viewBox="0 0 444.15274 187.6446"
   version="1.1"
   id="svg1"
   inkscape:version="1.4 (86a8ad7, 2024-10-11)"
   sodipodi:docname="Desvenlafaxine stereoisomers labelled ketcher.svg"
   xmlns:inkscape="http://www.inkscape.org/namespaces/inkscape"
   xmlns:sodipodi="http://sodipodi.sourceforge.net/DTD/sodipodi-0.dtd"
   xmlns="http://www.w3.org/2000/svg"
   xmlns:svg="http://www.w3.org/2000/svg">
  <sodipodi:namedview
     id="namedview1"
     pagecolor="#ffffff"
     bordercolor="#000000"
     borderopacity="0.25"
     inkscape:showpageshadow="2"
     inkscape:pageopacity="0.0"
     inkscape:pagecheckerboard="0"
     inkscape:deskcolor="#d1d1d1"
     inkscape:document-units="mm"
     inkscape:zoom="0.35945918"
     inkscape:cx="748.34646"
     inkscape:cy="-319.92506"
     inkscape:window-width="1147"
     inkscape:window-height="1000"
     inkscape:window-x="-7"
     inkscape:window-y="0"
     inkscape:window-maximized="0"
     inkscape:current-layer="layer1" />
  <defs
     id="defs1" />
  <g
     inkscape:label="Layer 1"
     inkscape:groupmode="layer"
     id="layer1"
     transform="translate(246.62387,-4.4348946)">
    <path
       fill="none"
       stroke-width="1.31961"
       stroke-linecap="butt"
       stroke-linejoin="miter"
       stroke="#000000"
       stroke-opacity="1"
       stroke-miterlimit="10"
       d="m -219.88505,106.35671 9.56946,16.57883"
       id="path15" />
    <path
       fill="none"
       stroke-width="1.32336"
       stroke-linecap="butt"
       stroke-linejoin="miter"
       stroke="#000000"
       stroke-opacity="1"
       stroke-miterlimit="10"
       d="M -67.30125,93.682697 H -90.825993"
       id="path16" />
    <path
       fill="none"
       stroke-width="1.35301"
       stroke-linecap="butt"
       stroke-linejoin="miter"
       stroke="#000000"
       stroke-opacity="1"
       stroke-miterlimit="10"
       d="m -200.11906,46.802644 -10.37227,17.964911"
       id="path17" />
    <path
       fill="none"
       stroke-width="1.3548"
       stroke-linecap="butt"
       stroke-linejoin="miter"
       stroke="#000000"
       stroke-opacity="1"
       stroke-miterlimit="10"
       d="M -200.10964,22.423836 -210.30035,4.7736032"
       id="path18" />
    <path
       fill="none"
       stroke-width="1.33253"
       stroke-linecap="butt"
       stroke-linejoin="miter"
       stroke="#000000"
       stroke-opacity="1"
       stroke-miterlimit="10"
       d="m -183.12348,34.303265 h 24.574"
       id="path19" />
    <path
       fill="none"
       stroke-width="1.31961"
       stroke-linecap="butt"
       stroke-linejoin="miter"
       stroke="#000000"
       stroke-opacity="1"
       stroke-miterlimit="10"
       d="m -210.31559,122.93554 17.28782,-29.944435"
       id="path20" />
    <path
       fill="none"
       stroke-width="1.31961"
       stroke-linecap="butt"
       stroke-linejoin="miter"
       stroke="#000000"
       stroke-opacity="1"
       stroke-miterlimit="10"
       d="m -210.31559,122.93554 -29.94031,17.28368"
       id="path21" />
    <path
       fill="none"
       stroke-width="1.31961"
       stroke-linecap="butt"
       stroke-linejoin="miter"
       stroke="#000000"
       stroke-opacity="1"
       stroke-miterlimit="10"
       d="m -210.31559,122.93554 29.94027,17.28368"
       id="path22" />
    <path
       fill="none"
       stroke-width="1.31961"
       stroke-linecap="butt"
       stroke-linejoin="miter"
       stroke="#000000"
       stroke-opacity="1"
       stroke-miterlimit="10"
       d="m -194.06026,90.066043 -1.79421,1.03665 m 0.38032,-4.23644 -2.44532,1.41181 m 1.0325,-4.61265 -3.09749,1.78904 m 1.68361,-4.98883 -3.7486,2.16419 m 2.33475,-5.36504 -4.39975,2.54143 m 2.98693,-5.74125 -5.05189,2.91662 m 3.638,-6.11743 -5.703,3.29385 m 4.28912,-6.49367 -6.35411,3.66904 m 4.94129,-6.86883 -7.00629,4.04522"
       id="path23" />
    <path
       fill="none"
       stroke-width="1.31961"
       stroke-linecap="butt"
       stroke-linejoin="miter"
       stroke="#000000"
       stroke-opacity="1"
       stroke-miterlimit="10"
       d="m -193.59931,93.320805 h 34.95705"
       id="path24" />
    <path
       fill="none"
       stroke-width="1.31961"
       stroke-linecap="butt"
       stroke-linejoin="miter"
       stroke="#000000"
       stroke-opacity="1"
       stroke-miterlimit="10"
       d="M -239.9262,139.64771 V 174.6006"
       id="path25" />
    <path
       fill="none"
       stroke-width="1.31961"
       stroke-linecap="butt"
       stroke-linejoin="miter"
       stroke="#000000"
       stroke-opacity="1"
       stroke-miterlimit="10"
       d="M -180.70501,139.64771 V 174.6006"
       id="path26" />
    <path
       fill="none"
       stroke-width="1.31961"
       stroke-linecap="butt"
       stroke-linejoin="miter"
       stroke="#000000"
       stroke-opacity="1"
       stroke-miterlimit="10"
       d="m -240.2559,174.02905 30.27,17.47906"
       id="path27" />
    <path
       fill="none"
       stroke-width="1.31961"
       stroke-linecap="butt"
       stroke-linejoin="miter"
       stroke="#000000"
       stroke-opacity="1"
       stroke-miterlimit="10"
       d="m -180.37532,174.02905 -30.27,17.47906"
       id="path28" />
    <path
       fill="none"
       stroke-width="1.32336"
       stroke-linecap="butt"
       stroke-linejoin="miter"
       stroke="#000000"
       stroke-opacity="1"
       stroke-miterlimit="10"
       d="m -159.02148,93.682697 17.33391,-30.025465"
       id="path29" />
    <path
       fill="none"
       stroke-width="1.32336"
       stroke-linecap="butt"
       stroke-linejoin="miter"
       stroke="#000000"
       stroke-opacity="1"
       stroke-miterlimit="10"
       d="m -153.31676,93.682697 14.48155,-25.084619"
       id="path30" />
    <path
       fill="none"
       stroke-width="1.32336"
       stroke-linecap="butt"
       stroke-linejoin="miter"
       stroke="#000000"
       stroke-opacity="1"
       stroke-miterlimit="10"
       d="m -159.21218,93.352059 17.52461,30.360251"
       id="path31" />
    <path
       fill="none"
       stroke-width="1.32336"
       stroke-linecap="butt"
       stroke-linejoin="miter"
       stroke="#000000"
       stroke-opacity="1"
       stroke-miterlimit="10"
       d="m -142.26075,63.98786 h 35.0565"
       id="path32" />
    <path
       fill="none"
       stroke-width="1.32336"
       stroke-linecap="butt"
       stroke-linejoin="miter"
       stroke="#000000"
       stroke-opacity="1"
       stroke-miterlimit="10"
       d="m -142.26075,123.38168 h 35.0565"
       id="path33" />
    <path
       fill="none"
       stroke-width="1.32336"
       stroke-linecap="butt"
       stroke-linejoin="miter"
       stroke="#000000"
       stroke-opacity="1"
       stroke-miterlimit="10"
       d="m -139.40839,118.44085 h 29.35072"
       id="path34" />
    <path
       fill="none"
       stroke-width="1.32336"
       stroke-linecap="butt"
       stroke-linejoin="miter"
       stroke="#000000"
       stroke-opacity="1"
       stroke-miterlimit="10"
       d="m -107.77743,63.657232 17.332848,30.025465"
       id="path35" />
    <path
       fill="none"
       stroke-width="1.32336"
       stroke-linecap="butt"
       stroke-linejoin="miter"
       stroke="#000000"
       stroke-opacity="1"
       stroke-miterlimit="10"
       d="m -110.63085,68.598078 14.481548,25.084619"
       id="path36" />
    <path
       fill="none"
       stroke-width="1.32336"
       stroke-linecap="butt"
       stroke-linejoin="miter"
       stroke="#000000"
       stroke-opacity="1"
       stroke-miterlimit="10"
       d="M -107.77743,123.71231 -90.253841,93.352059"
       id="path37" />
    <path
       fill="none"
       stroke-width="1.24277"
       stroke-linecap="butt"
       stroke-linejoin="miter"
       stroke="#000000"
       stroke-opacity="1"
       stroke-miterlimit="10"
       d="m 13.851445,105.55982 9.950502,17.23888"
       id="path38" />
    <path
       fill="none"
       stroke-width="1.24277"
       stroke-linecap="butt"
       stroke-linejoin="miter"
       stroke="#000000"
       stroke-opacity="1"
       stroke-miterlimit="10"
       d="M 166.6898,93.28206 H 142.72024"
       id="path39" />
    <path
       fill="none"
       stroke-width="1.24281"
       stroke-linecap="butt"
       stroke-linejoin="miter"
       stroke="#000000"
       stroke-opacity="1"
       stroke-miterlimit="10"
       d="M 34.089623,46.774746 23.621881,64.901996"
       id="path40" />
    <path
       fill="none"
       stroke-width="1.24282"
       stroke-linecap="butt"
       stroke-linejoin="miter"
       stroke="#000000"
       stroke-opacity="1"
       stroke-miterlimit="10"
       d="M 34.089685,22.562563 23.801969,4.7457317"
       id="path41" />
    <path
       fill="none"
       stroke-width="1.24277"
       stroke-linecap="butt"
       stroke-linejoin="miter"
       stroke="#000000"
       stroke-opacity="1"
       stroke-miterlimit="10"
       d="M 50.34891,34.258481 H 74.922935"
       id="path42" />
    <path
       fill="none"
       stroke-width="1.24819"
       stroke-linecap="butt"
       stroke-linejoin="miter"
       stroke="#000000"
       stroke-opacity="1"
       stroke-miterlimit="10"
       d="M 23.804292,122.93004 41.098763,92.972924"
       id="path43" />
    <path
       fill="none"
       stroke-width="1.24841"
       stroke-linecap="butt"
       stroke-linejoin="miter"
       stroke="#000000"
       stroke-opacity="1"
       stroke-miterlimit="10"
       d="M 23.938797,122.80114 -6.0198928,140.09488"
       id="path44" />
    <path
       fill="none"
       stroke-width="1.24841"
       stroke-linecap="butt"
       stroke-linejoin="miter"
       stroke="#000000"
       stroke-opacity="1"
       stroke-miterlimit="10"
       d="m 23.938797,122.80114 29.957737,17.29374"
       id="path45" />
    <path
       fill-rule="nonzero"
       fill="#000000"
       fill-opacity="1"
       d="M 41.38055,92.97156 26.373519,59.315276 23.621871,63.45977 20.035102,65.531047 40.304034,93.593522"
       id="path46"
       style="stroke-width:0.249176" />
    <path
       fill="none"
       stroke-width="1.24819"
       stroke-linecap="butt"
       stroke-linejoin="miter"
       stroke="#000000"
       stroke-opacity="1"
       stroke-miterlimit="10"
       d="M 40.55815,93.284768 H 75.508802"
       id="path47" />
    <path
       fill="none"
       stroke-width="1.24841"
       stroke-linecap="butt"
       stroke-linejoin="miter"
       stroke="#000000"
       stroke-opacity="1"
       stroke-miterlimit="10"
       d="m -5.7079914,139.55513 v 34.95313"
       id="path48" />
    <path
       fill="none"
       stroke-width="1.24841"
       stroke-linecap="butt"
       stroke-linejoin="miter"
       stroke="#000000"
       stroke-opacity="1"
       stroke-miterlimit="10"
       d="m 53.584595,139.55513 v 34.95313"
       id="path49" />
    <path
       fill="none"
       stroke-width="1.24841"
       stroke-linecap="butt"
       stroke-linejoin="miter"
       stroke="#000000"
       stroke-opacity="1"
       stroke-miterlimit="10"
       d="M -6.0198928,173.96755 24.250708,191.44609"
       id="path50" />
    <path
       fill="none"
       stroke-width="1.24841"
       stroke-linecap="butt"
       stroke-linejoin="miter"
       stroke="#000000"
       stroke-opacity="1"
       stroke-miterlimit="10"
       d="M 53.896534,173.96755 23.625902,191.44609"
       id="path51" />
    <path
       fill="none"
       stroke-width="1.24277"
       stroke-linecap="butt"
       stroke-linejoin="miter"
       stroke="#000000"
       stroke-opacity="1"
       stroke-miterlimit="10"
       d="M 74.922935,93.28206 92.139448,63.45976"
       id="path52" />
    <path
       fill="none"
       stroke-width="1.24277"
       stroke-linecap="butt"
       stroke-linejoin="miter"
       stroke="#000000"
       stroke-opacity="1"
       stroke-miterlimit="10"
       d="M 80.280247,93.283021 94.819081,68.098729"
       id="path53" />
    <path
       fill="none"
       stroke-width="1.24277"
       stroke-linecap="butt"
       stroke-linejoin="miter"
       stroke="#000000"
       stroke-opacity="1"
       stroke-miterlimit="10"
       d="M 74.743849,92.971569 92.139448,123.10919"
       id="path54" />
    <path
       fill="none"
       stroke-width="1.24277"
       stroke-linecap="butt"
       stroke-linejoin="miter"
       stroke="#000000"
       stroke-opacity="1"
       stroke-miterlimit="10"
       d="M 91.601218,63.770252 H 126.40021"
       id="path55" />
    <path
       fill="none"
       stroke-width="1.24277"
       stroke-linecap="butt"
       stroke-linejoin="miter"
       stroke="#000000"
       stroke-opacity="1"
       stroke-miterlimit="10"
       d="M 91.601218,122.7987 H 126.40021"
       id="path56" />
    <path
       fill="none"
       stroke-width="1.24277"
       stroke-linecap="butt"
       stroke-linejoin="miter"
       stroke="#000000"
       stroke-opacity="1"
       stroke-miterlimit="10"
       d="M 94.280823,118.15878 H 123.72154"
       id="path57" />
    <path
       fill="none"
       stroke-width="1.24277"
       stroke-linecap="butt"
       stroke-linejoin="miter"
       stroke="#000000"
       stroke-opacity="1"
       stroke-miterlimit="10"
       d="m 125.86194,63.45976 17.21651,29.8223"
       id="path58" />
    <path
       fill="none"
       stroke-width="1.24277"
       stroke-linecap="butt"
       stroke-linejoin="miter"
       stroke="#000000"
       stroke-opacity="1"
       stroke-miterlimit="10"
       d="m 123.1833,68.098729 14.53788,25.184292"
       id="path59" />
    <path
       fill="none"
       stroke-width="1.24277"
       stroke-linecap="butt"
       stroke-linejoin="miter"
       stroke="#000000"
       stroke-opacity="1"
       stroke-miterlimit="10"
       d="M 125.86194,123.10919 143.25755,92.971569"
       id="path60" />
    <g
       fill="#000000"
       fill-opacity="1"
       id="g60"
       transform="matrix(0.26458333,0,0,0.26458333,-248.76327,-34.770769)">
      <g
         id="use60"
         transform="translate(52.835937,514.88281)">
        <path
           d="m 59.84375,-29.765625 c 0,6.15625 -1.042969,11.523437 -3.125,16.09375 -2.074219,4.574219 -5.132812,8.136719 -9.171875,10.6875 -4.042969,2.542969 -9.058594,3.8125 -15.046875,3.8125 -6.148438,0 -11.257812,-1.269531 -15.328125,-3.8125 C 13.097656,-5.535156 10.0625,-9.109375 8.0625,-13.703125 6.070312,-18.304688 5.078125,-23.6875 5.078125,-29.84375 c 0,-6.09375 0.992187,-11.410156 2.984375,-15.953125 2,-4.550781 5.035156,-8.097656 9.109375,-10.640625 4.070313,-2.550781 9.207031,-3.828125 15.40625,-3.828125 5.9375,0 10.925781,1.261719 14.96875,3.78125 4.039063,2.523437 7.097656,6.070313 9.171875,10.640625 2.082031,4.574219 3.125,9.933594 3.125,16.078125 z m -46.875,0 c 0,7.492187 1.578125,13.382813 4.734375,17.671875 3.15625,4.292969 8.085937,6.4375 14.796875,6.4375 6.757812,0 11.691406,-2.144531 14.796875,-6.4375 3.101563,-4.289062 4.65625,-10.179688 4.65625,-17.671875 0,-7.476563 -1.554687,-13.335937 -4.65625,-17.578125 -3.105469,-4.238281 -8.011719,-6.359375 -14.71875,-6.359375 -6.699219,0 -11.640625,2.121094 -14.828125,6.359375 -3.1875,4.242188 -4.78125,10.101562 -4.78125,17.578125 z m 0,0"
           id="path76" />
      </g>
    </g>
    <g
       fill="#000000"
       fill-opacity="1"
       id="g61"
       transform="matrix(0.26458333,0,0,0.26458333,-248.76327,-34.770769)">
      <g
         id="use61"
         transform="translate(0.0234375,513.96875)">
        <path
           d="M 53.453125,0 H 45.96875 V -27.6875 H 15.546875 V 0 H 8.0625 v -59.34375 h 7.484375 V -34.25 H 45.96875 v -25.09375 h 7.484375 z m 0,0"
           id="path80" />
      </g>
    </g>
    <g
       fill="#000000"
       fill-opacity="1"
       id="g62"
       transform="matrix(0.26458333,0,0,0.26458333,-249.97727,-34.770769)">
      <g
         id="use62"
         transform="translate(698.99609,514.88281)">
        <path
           d="m 59.84375,-29.765625 c 0,6.15625 -1.042969,11.523437 -3.125,16.09375 -2.074219,4.574219 -5.132812,8.136719 -9.171875,10.6875 -4.042969,2.542969 -9.058594,3.8125 -15.046875,3.8125 -6.148438,0 -11.257812,-1.269531 -15.328125,-3.8125 C 13.097656,-5.535156 10.0625,-9.109375 8.0625,-13.703125 6.070312,-18.304688 5.078125,-23.6875 5.078125,-29.84375 c 0,-6.09375 0.992187,-11.410156 2.984375,-15.953125 2,-4.550781 5.035156,-8.097656 9.109375,-10.640625 4.070313,-2.550781 9.207031,-3.828125 15.40625,-3.828125 5.9375,0 10.925781,1.261719 14.96875,3.78125 4.039063,2.523437 7.097656,6.070313 9.171875,10.640625 2.082031,4.574219 3.125,9.933594 3.125,16.078125 z m -46.875,0 c 0,7.492187 1.578125,13.382813 4.734375,17.671875 3.15625,4.292969 8.085937,6.4375 14.796875,6.4375 6.757812,0 11.691406,-2.144531 14.796875,-6.4375 3.101563,-4.289062 4.65625,-10.179688 4.65625,-17.671875 0,-7.476563 -1.554687,-13.335937 -4.65625,-17.578125 -3.105469,-4.238281 -8.011719,-6.359375 -14.71875,-6.359375 -6.699219,0 -11.640625,2.121094 -14.828125,6.359375 -3.1875,4.242188 -4.78125,10.101562 -4.78125,17.578125 z m 0,0"
           id="path77" />
      </g>
    </g>
    <g
       fill="#000000"
       fill-opacity="1"
       id="g63"
       transform="matrix(0.26458333,0,0,0.26458333,-249.97727,-34.770769)">
      <g
         id="use63"
         transform="translate(755.21484,513.96875)">
        <path
           d="M 53.453125,0 H 45.96875 V -27.6875 H 15.546875 V 0 H 8.0625 v -59.34375 h 7.484375 V -34.25 H 45.96875 v -25.09375 h 7.484375 z m 0,0"
           id="path81" />
      </g>
    </g>
    <g
       fill="#000000"
       fill-opacity="1"
       id="g64"
       transform="matrix(0.26458333,0,0,0.26458333,-249.97727,-34.770769)">
      <g
         id="use64"
         transform="translate(182.93359,291.01562)">
        <path
           d="m 55.109375,0 h -8.71875 L 14.625,-49.296875 h -0.328125 c 0.113281,1.9375 0.253906,4.351563 0.421875,7.234375 0.164062,2.886719 0.25,5.851562 0.25,8.890625 V 0 H 8.0625 v -59.34375 h 8.640625 l 31.671875,49.125 h 0.34375 c -0.0625,-0.882812 -0.136719,-2.210938 -0.21875,-3.984375 -0.08594,-1.78125 -0.167969,-3.722656 -0.25,-5.828125 -0.08594,-2.101562 -0.125,-4.046875 -0.125,-5.828125 V -59.34375 h 6.984375 z m 0,0"
           id="path74" />
      </g>
    </g>
    <g
       fill="#000000"
       fill-opacity="1"
       id="g65"
       transform="matrix(0.26458333,0,0,0.26458333,-288.98842,-35.516304)">
      <g
         id="use65"
         transform="translate(1088.4063,517.69922)">
        <path
           d="m 59.84375,-29.765625 c 0,6.15625 -1.042969,11.523437 -3.125,16.09375 -2.074219,4.574219 -5.132812,8.136719 -9.171875,10.6875 -4.042969,2.542969 -9.058594,3.8125 -15.046875,3.8125 -6.148438,0 -11.257812,-1.269531 -15.328125,-3.8125 C 13.097656,-5.535156 10.0625,-9.109375 8.0625,-13.703125 6.070312,-18.304688 5.078125,-23.6875 5.078125,-29.84375 c 0,-6.09375 0.992187,-11.410156 2.984375,-15.953125 2,-4.550781 5.035156,-8.097656 9.109375,-10.640625 4.070313,-2.550781 9.207031,-3.828125 15.40625,-3.828125 5.9375,0 10.925781,1.261719 14.96875,3.78125 4.039063,2.523437 7.097656,6.070313 9.171875,10.640625 2.082031,4.574219 3.125,9.933594 3.125,16.078125 z m -46.875,0 c 0,7.492187 1.578125,13.382813 4.734375,17.671875 3.15625,4.292969 8.085937,6.4375 14.796875,6.4375 6.757812,0 11.691406,-2.144531 14.796875,-6.4375 3.101563,-4.289062 4.65625,-10.179688 4.65625,-17.671875 0,-7.476563 -1.554687,-13.335937 -4.65625,-17.578125 -3.105469,-4.238281 -8.011719,-6.359375 -14.71875,-6.359375 -6.699219,0 -11.640625,2.121094 -14.828125,6.359375 -3.1875,4.242188 -4.78125,10.101562 -4.78125,17.578125 z m 0,0"
           id="path78" />
      </g>
    </g>
    <g
       fill="#000000"
       fill-opacity="1"
       id="g66"
       transform="matrix(0.26458333,0,0,0.26458333,-288.98842,-35.516304)">
      <g
         id="use66"
         transform="translate(1035.5938,516.78516)">
        <path
           d="M 53.453125,0 H 45.96875 V -27.6875 H 15.546875 V 0 H 8.0625 v -59.34375 h 7.484375 V -34.25 H 45.96875 v -25.09375 h 7.484375 z m 0,0"
           id="path82" />
      </g>
    </g>
    <g
       fill="#000000"
       fill-opacity="1"
       id="g67"
       transform="matrix(0.26458333,0,0,0.26458333,-300.3942,-35.516304)">
      <g
         id="use67"
         transform="translate(1772.2422,517.69922)">
        <path
           d="m 59.84375,-29.765625 c 0,6.15625 -1.042969,11.523437 -3.125,16.09375 -2.074219,4.574219 -5.132812,8.136719 -9.171875,10.6875 -4.042969,2.542969 -9.058594,3.8125 -15.046875,3.8125 -6.148438,0 -11.257812,-1.269531 -15.328125,-3.8125 C 13.097656,-5.535156 10.0625,-9.109375 8.0625,-13.703125 6.070312,-18.304688 5.078125,-23.6875 5.078125,-29.84375 c 0,-6.09375 0.992187,-11.410156 2.984375,-15.953125 2,-4.550781 5.035156,-8.097656 9.109375,-10.640625 4.070313,-2.550781 9.207031,-3.828125 15.40625,-3.828125 5.9375,0 10.925781,1.261719 14.96875,3.78125 4.039063,2.523437 7.097656,6.070313 9.171875,10.640625 2.082031,4.574219 3.125,9.933594 3.125,16.078125 z m -46.875,0 c 0,7.492187 1.578125,13.382813 4.734375,17.671875 3.15625,4.292969 8.085937,6.4375 14.796875,6.4375 6.757812,0 11.691406,-2.144531 14.796875,-6.4375 3.101563,-4.289062 4.65625,-10.179688 4.65625,-17.671875 0,-7.476563 -1.554687,-13.335937 -4.65625,-17.578125 -3.105469,-4.238281 -8.011719,-6.359375 -14.71875,-6.359375 -6.699219,0 -11.640625,2.121094 -14.828125,6.359375 -3.1875,4.242188 -4.78125,10.101562 -4.78125,17.578125 z m 0,0"
           id="path79" />
      </g>
    </g>
    <g
       fill="#000000"
       fill-opacity="1"
       id="g68"
       transform="matrix(0.26458333,0,0,0.26458333,-300.3942,-35.516304)">
      <g
         id="use68"
         transform="translate(1828.4609,516.78516)">
        <path
           d="M 53.453125,0 H 45.96875 V -27.6875 H 15.546875 V 0 H 8.0625 v -59.34375 h 7.484375 V -34.25 H 45.96875 v -25.09375 h 7.484375 z m 0,0"
           id="path83" />
      </g>
    </g>
    <g
       fill="#000000"
       fill-opacity="1"
       id="g69"
       transform="matrix(0.26458333,0,0,0.26458333,-290.98158,-32.061637)">
      <g
         id="use69"
         transform="translate(1226.0391,280.77734)">
        <path
           d="m 55.109375,0 h -8.71875 L 14.625,-49.296875 h -0.328125 c 0.113281,1.9375 0.253906,4.351563 0.421875,7.234375 0.164062,2.886719 0.25,5.851562 0.25,8.890625 V 0 H 8.0625 v -59.34375 h 8.640625 l 31.671875,49.125 h 0.34375 c -0.0625,-0.882812 -0.136719,-2.210938 -0.21875,-3.984375 -0.08594,-1.78125 -0.167969,-3.722656 -0.25,-5.828125 -0.08594,-2.101562 -0.125,-4.046875 -0.125,-5.828125 V -59.34375 h 6.984375 z m 0,0"
           id="path75" />
      </g>
    </g>
    <text
       xml:space="preserve"
       style="font-size:21.1667px;font-family:Arial;-inkscape-font-specification:Arial;text-align:start;writing-mode:lr-tb;direction:ltr;text-anchor:start;fill:#99999f;fill-opacity:1;stroke:#000000;stroke-width:0.2"
       x="-193.62758"
       y="85.652832"
       id="text83"><tspan
         sodipodi:role="line"
         id="tspan83"
         style="stroke-width:0.2"
         x="-193.62758"
         y="85.652832">(<tspan
   style="font-style:italic"
   id="tspan84">S</tspan>)</tspan></text>
    <text
       xml:space="preserve"
       style="font-size:21.1667px;font-family:Arial;-inkscape-font-specification:Arial;text-align:start;writing-mode:lr-tb;direction:ltr;text-anchor:start;fill:#99999f;fill-opacity:1;stroke:#000000;stroke-width:0.2"
       x="40.523552"
       y="85.653008"
       id="text83-9"><tspan
         sodipodi:role="line"
         id="tspan83-5"
         style="stroke-width:0.2"
         x="40.523552"
         y="85.653008">(<tspan
   style="font-style:italic"
   id="tspan85">R</tspan>)</tspan></text>
  </g>
</svg>
