<?xml version="1.0" encoding="utf-8"?>
<!-- Generator: Adobe Illustrator 28.0.0, SVG Export Plug-In . SVG Version: 6.00 Build 0)  -->
<svg version="1.1" id="Слой_1" xmlns="http://www.w3.org/2000/svg" xmlns:xlink="http://www.w3.org/1999/xlink" x="0px" y="0px"
	 viewBox="0 0 539.2 852.4" style="enable-background:new 0 0 539.2 852.4;" xml:space="preserve" width="539.2" height="852.4">
<style type="text/css">
	.st0{fill:#808080;}
</style>
<g>
	<rect x="134.6" y="171.3" width="2.4" height="45.6"/>
	<rect x="172.2" y="227.1" transform="matrix(0.8661 -0.4998 0.4998 0.8661 -87.9814 128.0167)" width="45.6" height="2.4"/>
	<path d="M176.1,135.5l-0.8-0.5l-0.7,0.4l-49.1,28.4l-31.6-18.2l-1.2,2.1l31.6,18.2v56.2l-31.4,18.1l1.2,2.1l31.4-18.1l49.1,28.4
		l0.7,0.4l0.8-0.5l49.1-28.3l47.2,27.3l-33.8,14.3l6,10.4l29.3-22.1v53.2v2v0.7l0.6,0.3l0,0l0.1,0.1l1.6,0.9l0,0l42.4,24.5v38.5h2.4
		v-37.1l3.3,1.9l0.7,0.4l0.6-0.3l0,0l0.1-0.1l1.7-0.9l0,0l1.7-1v37.1h2.4v-38.5l43.4-25.1l45.3,31.4l10.4-6l0,0l44.1-25.5l49.3,28.5
		l1.2-2.1l-49.3-28.5v-56.9h-2.4v56.9l-45.4,26.2L376,308.5v-54.9v-2V251l-0.6-0.3l0,0l-0.5-0.3l-1.2-0.7l0,0L342,231.3l-1.2,2.1
		l32.8,18.9v1.3v54.9l-48.7,28.1l-1.1-0.6l0,0l-47.6-27.5v-1.3v-54.9l32.8-18.9l-1.2-2.1L275,250.3l-48.7-28.1v-56.2l47.6-27.5l0,0
		l1.1-0.6l1.1,0.6l0,0l47.6,27.5v1.3v34.4h2.4v-34.4v-2v-0.7l-0.6-0.3l0,0l-0.4-0.2l-1.3-0.8l0,0l-48-27.7l-0.7-0.4l-0.8,0.5
		l-49.1,28.3L176.1,135.5z M176.4,249.6l-1.1,0.6l-1.1-0.6l0,0l-47.6-27.5v-56.2l47.6-27.5l0,0l1.1-0.6l1.1,0.6l0,0l47.6,27.5v56.2
		L176.4,249.6L176.4,249.6z"/>
	<rect x="193.8" y="137.1" transform="matrix(0.5001 -0.866 0.866 0.5001 -40.9518 248.7654)" width="2.4" height="45.6"/>
	<polygon points="74.3,115 76.7,115 76.7,80.1 115.3,80.1 115.3,77.7 77.6,77.7 94.1,48.9 92.1,47.7 75.1,77.2 42.2,58.3 41,60.3 
		74.3,79.5 	"/>
	<polygon points="42.7,329.6 75.1,310.9 91.5,339.4 93.6,338.2 77.6,310.5 115.3,310.5 115.3,308.1 76.7,308.1 76.7,272.6 
		74.3,272.6 74.3,308.6 41.5,327.5 	"/>
	<polygon points="313.9,208.1 313.9,236.7 317.5,236.7 317.5,214.3 317.6,214.3 332,236.7 335.9,236.7 335.9,208.1 332.3,208.1 
		332.3,230.4 332.2,230.4 317.8,208.1 	"/>
	<path d="M338.6,395.4c0-4.5-1.8-7.8-1.8-7.8c-1.8-3.3-4.9-5.2-4.9-5.2c-3.1-1.8-7-1.8-7-1.8c-3.9,0-7,1.8-7,1.8
		c-3.1,1.8-4.9,5.2-4.9,5.2c-1.8,3.4-1.8,7.8-1.8,7.8c0,4.3,1.8,7.7,1.8,7.7c1.8,3.4,4.9,5.2,4.9,5.2c3.1,1.8,7,1.8,7,1.8
		c3.9,0,7-1.8,7-1.8c3.1-1.8,4.9-5.2,4.9-5.2C338.6,399.9,338.6,395.4,338.6,395.4z M333.4,401.7c-1.2,2.6-3.4,4-3.4,4
		c-2.2,1.4-5.1,1.4-5.1,1.4c-2.8,0-5-1.4-5-1.4c-2.2-1.4-3.5-4-3.5-4c-1.2-2.6-1.2-6.1-1.2-6.1c0-3.6,1.2-6.3,1.2-6.3
		c1.2-2.6,3.4-4,3.4-4c2.2-1.4,5.1-1.4,5.1-1.4c2.9,0,5.1,1.4,5.1,1.4c2.2,1.4,3.4,4,3.4,4c1.2,2.6,1.2,6.2,1.2,6.2
		C334.7,399.1,333.4,401.7,333.4,401.7z"/>
	<polygon points="236,294.3 236,265.7 232.2,265.7 232.2,277.4 218.1,277.4 218.1,265.7 214.3,265.7 214.3,294.3 218.1,294.3 
		218.1,280.8 232.2,280.8 232.2,294.3 	"/>
	<path d="M63.6,259.1c1.8,3.4,4.9,5.2,4.9,5.2c3.1,1.8,7.1,1.8,7.1,1.8c3.9,0,7-1.8,7-1.8c3.1-1.8,4.9-5.2,4.9-5.2
		c1.8-3.4,1.8-7.8,1.8-7.8c0-4.5-1.8-7.8-1.8-7.8c-1.8-3.3-4.9-5.2-4.9-5.2c-3.1-1.8-7-1.8-7-1.8c-3.9,0-7,1.8-7,1.8
		c-3.2,1.8-4.9,5.2-4.9,5.2c-1.8,3.4-1.8,7.8-1.8,7.8C61.8,255.8,63.6,259.1,63.6,259.1z M66.9,245.3c1.2-2.6,3.4-4,3.4-4
		c2.2-1.4,5.1-1.4,5.1-1.4c2.9,0,5.1,1.4,5.1,1.4c2.2,1.4,3.4,4,3.4,4c1.2,2.6,1.2,6.2,1.2,6.2c0,3.6-1.2,6.2-1.2,6.2
		c-1.2,2.6-3.5,4-3.5,4c-2.2,1.4-5,1.4-5,1.4c-2.8,0-5.1-1.4-5.1-1.4c-2.2-1.4-3.4-4-3.4-4c-1.3-2.6-1.3-6.1-1.3-6.1
		C65.7,247.9,66.9,245.3,66.9,245.3z"/>
	<path d="M68.5,149.2c3.1,1.8,7.1,1.8,7.1,1.8c3.9,0,7-1.8,7-1.8c3.1-1.8,4.9-5.2,4.9-5.2c1.8-3.4,1.8-7.8,1.8-7.8
		c0-4.5-1.8-7.8-1.8-7.8c-1.8-3.3-4.9-5.2-4.9-5.2c-3.1-1.8-7-1.8-7-1.8c-3.9,0-7,1.8-7,1.8c-3.2,1.8-4.9,5.2-4.9,5.2
		c-1.8,3.4-1.8,7.8-1.8,7.8c0,4.3,1.8,7.7,1.8,7.7C65.3,147.3,68.5,149.2,68.5,149.2z M66.9,130.1c1.2-2.6,3.4-4,3.4-4
		c2.2-1.4,5.1-1.4,5.1-1.4c2.9,0,5.1,1.4,5.1,1.4c2.2,1.4,3.4,4,3.4,4c1.2,2.6,1.2,6.2,1.2,6.2c0,3.6-1.2,6.2-1.2,6.2
		c-1.2,2.6-3.5,4-3.5,4c-2.2,1.4-5,1.4-5,1.4c-2.8,0-5.1-1.4-5.1-1.4c-2.2-1.4-3.4-4-3.4-4c-1.3-2.6-1.3-6.1-1.3-6.1
		C65.7,132.7,66.9,130.1,66.9,130.1z"/>
	<path d="M31.3,324.9c-2.8-1.6-6.6-1.6-6.6-1.6H14.2v28.6h10.1c4,0,6.9-1.7,6.9-1.7c2.8-1.7,4.4-4.9,4.4-4.9
		c1.5-3.2,1.5-7.9,1.5-7.9c0-4.6-1.5-7.8-1.5-7.8C34.1,326.5,31.3,324.9,31.3,324.9z M30.9,345.8c-2.2,2.7-6.8,2.7-6.8,2.7h-6v-21.8
		h6.2c4.4,0,6.7,2.6,6.7,2.6c2.2,2.6,2.2,8.1,2.2,8.1C33.1,343.1,30.9,345.8,30.9,345.8z"/>
	<path d="M31.3,36.9c-2.8-1.6-6.6-1.6-6.6-1.6H14.2v28.6h10.1c4,0,6.9-1.7,6.9-1.7c2.8-1.7,4.4-4.9,4.4-4.9c1.5-3.2,1.5-7.9,1.5-7.9
		c0-4.6-1.5-7.8-1.5-7.8C34.1,38.5,31.3,36.9,31.3,36.9z M30.9,57.8c-2.2,2.7-6.8,2.7-6.8,2.7h-6V38.7h6.2c4.4,0,6.7,2.6,6.7,2.6
		c2.2,2.6,2.2,8.1,2.2,8.1C33.1,55.1,30.9,57.8,30.9,57.8z"/>
	<path d="M138.7,91c2.8-1.7,4.4-4.9,4.4-4.9c1.5-3.2,1.5-7.9,1.5-7.9c0-4.6-1.5-7.8-1.5-7.8c-1.5-3.2-4.3-4.8-4.3-4.8
		c-2.8-1.6-6.6-1.6-6.6-1.6h-10.5v28.6h10.1C135.8,92.7,138.7,91,138.7,91z M125.5,89.3V67.5h6.2c4.4,0,6.7,2.6,6.7,2.6
		c2.3,2.6,2.3,8.1,2.3,8.1c0,5.8-2.3,8.4-2.3,8.4c-2.2,2.7-6.8,2.7-6.8,2.7H125.5z"/>
	<path d="M109.9,41.1c2.8-1.7,4.4-4.9,4.4-4.9c1.5-3.2,1.5-7.9,1.5-7.9c0-4.6-1.5-7.8-1.5-7.8c-1.5-3.2-4.3-4.8-4.3-4.8
		c-2.8-1.6-6.6-1.6-6.6-1.6H92.9v28.6H103C107,42.8,109.9,41.1,109.9,41.1z M96.7,39.4V17.6h6.2c4.4,0,6.7,2.6,6.7,2.6
		c2.3,2.6,2.3,8.1,2.3,8.1c0,5.7-2.3,8.4-2.3,8.4c-2.2,2.7-6.8,2.7-6.8,2.7H96.7z"/>
	<path d="M114.3,350.7c-1.5-3.2-4.3-4.8-4.3-4.8c-2.8-1.6-6.6-1.6-6.6-1.6H92.9V373H103c4,0,6.9-1.7,6.9-1.7
		c2.8-1.7,4.4-4.9,4.4-4.9c1.5-3.2,1.5-7.9,1.5-7.9C115.7,353.9,114.3,350.7,114.3,350.7z M109.5,366.9c-2.2,2.7-6.8,2.7-6.8,2.7h-6
		v-21.8h6.2c4.4,0,6.7,2.6,6.7,2.6c2.3,2.6,2.3,8.1,2.3,8.1C111.8,364.2,109.5,366.9,109.5,366.9z"/>
	<path d="M143.1,300.9c-1.5-3.2-4.3-4.8-4.3-4.8c-2.8-1.6-6.6-1.6-6.6-1.6h-10.5v28.6h10.1c4,0,6.9-1.7,6.9-1.7
		c2.8-1.7,4.4-4.9,4.4-4.9c1.5-3.2,1.5-7.9,1.5-7.9C144.5,304.1,143.1,300.9,143.1,300.9z M138.3,317c-2.2,2.7-6.8,2.7-6.8,2.7h-6
		v-21.8h6.2c4.4,0,6.7,2.6,6.7,2.6c2.3,2.6,2.3,8.1,2.3,8.1C140.6,314.3,138.3,317,138.3,317z"/>
	<rect x="134.6" y="599.3" width="2.4" height="45.6"/>
	<rect x="172.2" y="655.1" transform="matrix(0.8661 -0.4998 0.4998 0.8661 -301.9234 185.318)" width="45.6" height="2.4"/>
	<rect x="193.8" y="565.1" transform="matrix(0.5001 -0.866 0.866 0.5001 -411.6172 462.7376)" width="2.4" height="45.6"/>
	<polygon points="408.8,762.4 410.8,763.8 415.7,755.3 413.5,754.3 	"/>
	<polygon points="385.1,745.9 387.1,747.3 389.5,742.9 387.4,741.9 	"/>
	<polygon points="393,751.4 395,752.8 398.3,747.1 396.1,746 	"/>
	<polygon points="400.9,756.9 402.9,758.3 407,751.2 404.8,750.1 	"/>
	<polygon points="377.2,740.4 379.1,741.8 380.8,738.8 378.7,737.8 	"/>
	<polygon points="422.2,758.3 416.7,767.9 418.7,769.3 424.4,759.4 	"/>
	<polygon points="475.7,679.7 473.3,679.7 473.3,736.6 424.1,765.1 425.3,767.1 474.5,738.7 523.9,767.1 525.1,765.1 475.7,736.6 	
		"/>
	<polygon points="259.8,684.9 263,690.3 264.9,688.9 262.1,683.9 	"/>
	<polygon points="250.9,688.6 255.3,696.1 257.2,694.7 253.1,687.7 	"/>
	<polygon points="242,692.4 247.5,702 249.5,700.5 244.2,691.5 	"/>
	<polygon points="268.7,681.1 270.7,684.5 272.6,683 270.9,680.1 	"/>
	<polygon points="74.3,543.1 76.7,543.1 76.7,508.1 115.3,508.1 115.3,505.7 77.6,505.7 94.1,477 92.1,475.8 75.1,505.3 42.2,486.3 
		41,488.4 74.3,507.6 	"/>
	<polygon points="93.6,766.3 77.6,738.5 115.3,738.5 115.3,736.1 76.7,736.1 76.7,700.7 74.3,700.7 74.3,736.6 41.5,755.6 
		42.7,757.7 75.1,738.9 91.5,767.5 	"/>
	<path d="M87.4,556.5c-1.8-3.4-4.9-5.2-4.9-5.2c-3.1-1.8-7-1.8-7-1.8c-3.9,0-7,1.8-7,1.8c-3.2,1.8-4.9,5.2-4.9,5.2
		c-1.8,3.4-1.8,7.8-1.8,7.8c0,4.4,1.8,7.7,1.8,7.7c1.8,3.4,4.9,5.2,4.9,5.2c3.1,1.8,7.1,1.8,7.1,1.8c3.9,0,7-1.8,7-1.8
		c3.1-1.8,4.9-5.2,4.9-5.2c1.8-3.4,1.8-7.8,1.8-7.8C89.2,559.8,87.4,556.5,87.4,556.5z M84,570.5c-1.2,2.6-3.5,4-3.5,4
		c-2.2,1.4-5,1.4-5,1.4c-2.8,0-5.1-1.4-5.1-1.4c-2.2-1.4-3.4-4-3.4-4c-1.3-2.6-1.3-6.1-1.3-6.1c0-3.6,1.2-6.2,1.2-6.2
		c1.2-2.7,3.4-4,3.4-4c2.2-1.4,5.1-1.4,5.1-1.4c2.9,0,5.1,1.4,5.1,1.4c2.2,1.4,3.4,4,3.4,4c1.2,2.6,1.2,6.2,1.2,6.2
		C85.3,567.9,84,570.5,84,570.5z"/>
	<path d="M82.5,666.5c-3.1-1.8-7-1.8-7-1.8c-3.9,0-7,1.8-7,1.8c-3.2,1.8-4.9,5.2-4.9,5.2c-1.8,3.4-1.8,7.8-1.8,7.8
		c0,4.4,1.8,7.7,1.8,7.7c1.8,3.4,4.9,5.2,4.9,5.2c3.1,1.8,7.1,1.8,7.1,1.8c3.9,0,7-1.8,7-1.8c3.1-1.8,4.9-5.2,4.9-5.2
		c1.8-3.4,1.8-7.8,1.8-7.8c0-4.5-1.8-7.8-1.8-7.8C85.6,668.3,82.5,666.5,82.5,666.5z M84,685.7c-1.2,2.6-3.5,4-3.5,4
		c-2.2,1.4-5,1.4-5,1.4c-2.8,0-5.1-1.4-5.1-1.4c-2.2-1.4-3.4-4-3.4-4c-1.3-2.6-1.3-6.1-1.3-6.1c0-3.6,1.2-6.2,1.2-6.2
		c1.2-2.7,3.4-4,3.4-4c2.2-1.4,5.1-1.4,5.1-1.4c2.9,0,5.1,1.4,5.1,1.4c2.2,1.4,3.4,4,3.4,4c1.2,2.6,1.2,6.2,1.2,6.2
		C85.3,683.1,84,685.7,84,685.7z"/>
	<polygon points="332.3,658.5 332.2,658.5 317.8,636.1 313.9,636.1 313.9,664.7 317.5,664.7 317.5,642.4 317.6,642.4 332,664.7 
		335.9,664.7 335.9,636.1 332.3,636.1 	"/>
	<polygon points="232.2,705.5 218.1,705.5 218.1,693.7 214.3,693.7 214.3,722.3 218.1,722.3 218.1,708.9 232.2,708.9 232.2,722.3 
		236,722.3 236,693.7 232.2,693.7 	"/>
	<path d="M138.8,493.7c-2.8-1.6-6.6-1.6-6.6-1.6h-10.5v28.6h10.1c4,0,6.9-1.7,6.9-1.7c2.8-1.7,4.4-4.9,4.4-4.9
		c1.5-3.2,1.5-7.9,1.5-7.9c0-4.6-1.5-7.7-1.5-7.7C141.5,495.3,138.8,493.7,138.8,493.7z M138.3,514.6c-2.2,2.7-6.8,2.7-6.8,2.7h-6
		v-21.8h6.2c4.4,0,6.7,2.6,6.7,2.6c2.3,2.6,2.3,8.1,2.3,8.1C140.6,511.9,138.3,514.6,138.3,514.6z"/>
	<path d="M109.9,469.2c2.8-1.7,4.4-4.9,4.4-4.9c1.5-3.2,1.5-7.9,1.5-7.9c0-4.6-1.5-7.8-1.5-7.8c-1.5-3.2-4.3-4.8-4.3-4.8
		c-2.8-1.6-6.6-1.6-6.6-1.6H92.9v28.6H103C107,470.9,109.9,469.2,109.9,469.2z M96.7,467.5v-21.8h6.2c4.4,0,6.7,2.6,6.7,2.6
		c2.3,2.6,2.3,8.1,2.3,8.1c0,5.8-2.3,8.4-2.3,8.4c-2.2,2.7-6.8,2.7-6.8,2.7H96.7z"/>
	<path d="M31.3,464.9c-2.8-1.6-6.6-1.6-6.6-1.6H14.2v28.6h10.1c4,0,6.9-1.7,6.9-1.7c2.8-1.7,4.4-4.9,4.4-4.9
		c1.5-3.2,1.5-7.9,1.5-7.9c0-4.6-1.5-7.7-1.5-7.7C34.1,466.5,31.3,464.9,31.3,464.9z M30.9,485.8c-2.2,2.7-6.8,2.7-6.8,2.7h-6v-21.8
		h6.2c4.4,0,6.7,2.6,6.7,2.6c2.2,2.6,2.2,8.1,2.2,8.1C33.1,483.1,30.9,485.8,30.9,485.8z"/>
	<path d="M373.6,677.7L342,659.4l-1.2,2.1l32.8,18.9v1.3v53.6v1.3l-48.7,28.1l-1.1-0.7l0,0l-47.6-27.5v-1.3v-54.9l32.8-18.9
		l-1.2-2.1L275,678.3l-48.7-28.1V594l47.6-27.5l0,0l1.1-0.7l1.1,0.7l0,0l47.6,27.5v1.3v34.4h2.4v-34.4v-2v-0.7l-0.6-0.3l0,0
		l-0.2-0.1l-1.6-0.9l0,0l-48.2-27.8l0,0l-0.6-0.3l-0.6,0.3l0,0l-49.3,28.5l-49.3-28.5l0,0l-0.6-0.3l-0.6,0.3l0,0l-49.3,28.5
		l-31.6-18.2l-1.2,2.1l31.6,18.2v56.2l-31.4,18.1l1.2,2.1l31.4-18.1l49.3,28.5l0,0l0.6,0.3l0.6-0.3l0,0l49.3-28.5l48.7,28.1v54.9v2
		v0.7l2.3,1.3l0,0l42.4,24.5v38.5h2.4v-37.1l3.4,2l0,0l0.6,0.3l0.6-0.3l0,0l0.2-0.1l1.5-0.9l0,0l1.7-1v37.1h2.4v-38.5l42.4-24.5l0,0
		l1.6-0.9l0.2-0.1l0,0l0.6-0.3v-0.7v-2v-53.6v-2V679L373.6,677.7L373.6,677.7z M176.4,677.7l-1.1,0.7l-1.1-0.7l0,0l-47.6-27.5V594
		l47.6-27.5l0,0l1.1-0.7l1.1,0.7l0,0l47.6,27.5v56.2L176.4,677.7L176.4,677.7z"/>
	<path d="M31.3,752.9c-2.8-1.6-6.6-1.6-6.6-1.6H14.2v28.6h10.1c4,0,6.9-1.7,6.9-1.7c2.8-1.7,4.4-4.9,4.4-4.9
		c1.5-3.2,1.5-7.9,1.5-7.9c0-4.6-1.5-7.7-1.5-7.7C34.1,754.5,31.3,752.9,31.3,752.9z M30.9,773.8c-2.2,2.7-6.8,2.7-6.8,2.7h-6v-21.8
		h6.2c4.4,0,6.7,2.6,6.7,2.6c2.2,2.6,2.2,8.1,2.2,8.1C33.1,771.1,30.9,773.8,30.9,773.8z"/>
	<path d="M110,774c-2.8-1.6-6.6-1.6-6.6-1.6H92.9V801H103c4,0,6.9-1.7,6.9-1.7c2.8-1.6,4.4-4.9,4.4-4.9c1.5-3.2,1.5-7.9,1.5-7.9
		c0-4.6-1.5-7.7-1.5-7.7C112.8,775.6,110,774,110,774z M109.5,794.9c-2.2,2.7-6.8,2.7-6.8,2.7h-6v-21.8h6.2c4.4,0,6.7,2.6,6.7,2.6
		c2.3,2.6,2.3,8.1,2.3,8.1C111.8,792.2,109.5,794.9,109.5,794.9z"/>
	<path d="M138.8,724.1c-2.8-1.6-6.6-1.6-6.6-1.6h-10.5v28.6h10.1c4,0,6.9-1.7,6.9-1.7c2.8-1.7,4.4-4.9,4.4-4.9
		c1.5-3.2,1.5-7.9,1.5-7.9c0-4.6-1.5-7.7-1.5-7.7C141.5,725.7,138.8,724.1,138.8,724.1z M138.3,745c-2.2,2.7-6.8,2.7-6.8,2.7h-6
		v-21.8h6.2c4.4,0,6.7,2.6,6.7,2.6c2.3,2.6,2.3,8.1,2.3,8.1C140.6,742.3,138.3,745,138.3,745z"/>
	<path d="M331.9,810.5c-3.1-1.8-7-1.8-7-1.8c-3.9,0-7,1.8-7,1.8c-3.1,1.8-4.9,5.2-4.9,5.2c-1.8,3.4-1.8,7.8-1.8,7.8
		c0,4.4,1.8,7.7,1.8,7.7c1.8,3.4,4.9,5.2,4.9,5.2c3.1,1.8,7,1.8,7,1.8c3.9,0,7-1.8,7-1.8c3.1-1.8,4.9-5.2,4.9-5.2
		c1.8-3.4,1.8-7.8,1.8-7.8c0-4.5-1.8-7.8-1.8-7.8C335.1,812.3,331.9,810.5,331.9,810.5z M333.4,829.7c-1.2,2.6-3.4,4-3.4,4
		c-2.2,1.4-5.1,1.4-5.1,1.4c-2.8,0-5-1.4-5-1.4c-2.2-1.4-3.5-4-3.5-4c-1.2-2.6-1.2-6.1-1.2-6.1c0-3.6,1.2-6.2,1.2-6.2
		c1.2-2.7,3.4-4,3.4-4c2.2-1.4,5.1-1.4,5.1-1.4c2.9,0,5.1,1.4,5.1,1.4c2.2,1.4,3.4,4,3.4,4c1.2,2.6,1.2,6.2,1.2,6.2
		C334.7,827.1,333.4,829.7,333.4,829.7z"/>
</g>
<g>
	<path class="st0" d="M337.1,295.2c0,1.5,0.1,2.9,0.4,4.2s0.7,2.8,1.3,4.2c0.6,1.4,1.4,3,2.4,4.8h-1.9c-1.6-2-2.8-4.2-3.6-6.5
		c-0.8-2.3-1.3-4.5-1.3-6.7c0-2.2,0.4-4.5,1.2-6.7c0.8-2.2,2-4.4,3.6-6.5h1.9c-1.5,2.5-2.6,4.8-3.2,6.8
		C337.4,290.9,337.1,293,337.1,295.2z"/>
	<path class="st0" d="M359,289.3c0,0.9-0.2,1.7-0.6,2.5c-0.4,0.8-1.1,1.5-1.9,2.1c-0.9,0.6-2,1-3.3,1.2l0,0.1
		c0.3,0.1,0.6,0.3,0.8,0.6c0.2,0.3,0.5,0.7,0.7,1.2s0.5,1.3,0.8,2.2l1.5,5.1H354l-1.2-4.3c-0.3-1.2-0.7-2.2-1-2.7
		c-0.3-0.6-0.7-1-1.3-1.2c-0.5-0.2-1.2-0.4-2.2-0.4H346l-1.9,8.7h-2.7l4.3-20.1h7c2.2,0,3.8,0.4,4.8,1.3S359,287.6,359,289.3z
		 M356.2,289.5c0-1-0.3-1.8-0.9-2.2s-1.5-0.7-2.7-0.7h-4.7l-1.4,6.6h4.6c1.1,0,2-0.1,2.7-0.4c0.8-0.3,1.3-0.7,1.7-1.3
		S356.2,290.2,356.2,289.5z"/>
	<path class="st0" d="M366.5,295.2c0,2.2-0.4,4.4-1.3,6.7c-0.8,2.3-2,4.4-3.6,6.5l-1.9,0c1.5-2.5,2.6-4.8,3.2-6.8
		c0.7-2.1,1-4.2,1-6.4c0-2.1-0.3-4.2-1-6.3s-1.7-4.3-3.2-6.8h1.9c1.6,2.1,2.8,4.2,3.6,6.5C366,290.8,366.5,293,366.5,295.2z"/>
</g>
<g>
	<path class="st0" d="M285.9,265.6c0,1.5,0.1,2.9,0.4,4.2s0.7,2.8,1.3,4.2c0.6,1.4,1.4,3,2.4,4.8h-1.9c-1.6-2-2.8-4.2-3.6-6.5
		c-0.8-2.3-1.3-4.5-1.3-6.7c0-2.2,0.4-4.5,1.2-6.7c0.8-2.2,2-4.4,3.6-6.5h1.9c-1.5,2.5-2.6,4.8-3.2,6.8
		C286.3,261.3,285.9,263.5,285.9,265.6z"/>
	<path class="st0" d="M307.9,259.7c0,0.9-0.2,1.7-0.6,2.5c-0.4,0.8-1.1,1.5-1.9,2.1c-0.9,0.6-2,1-3.3,1.2l0,0.1
		c0.3,0.1,0.6,0.3,0.8,0.6c0.2,0.3,0.5,0.7,0.7,1.2s0.5,1.3,0.8,2.2l1.5,5.1h-2.9l-1.2-4.3c-0.3-1.2-0.7-2.2-1-2.7
		c-0.3-0.6-0.7-1-1.3-1.2c-0.5-0.2-1.2-0.4-2.2-0.4h-2.4l-1.9,8.7h-2.7l4.3-20.1h7c2.2,0,3.8,0.4,4.8,1.3S307.9,258,307.9,259.7z
		 M305,259.9c0-1-0.3-1.8-0.9-2.2s-1.5-0.7-2.7-0.7h-4.7l-1.4,6.6h4.6c1.1,0,2-0.1,2.7-0.4c0.8-0.3,1.3-0.7,1.7-1.3
		S305,260.7,305,259.9z"/>
	<path class="st0" d="M315.3,265.7c0,2.2-0.4,4.4-1.3,6.7c-0.8,2.3-2,4.4-3.6,6.5l-1.9,0c1.5-2.5,2.6-4.8,3.2-6.8
		c0.7-2.1,1-4.2,1-6.4c0-2.1-0.3-4.2-1-6.3s-1.7-4.3-3.2-6.8h1.9c1.6,2.1,2.8,4.2,3.6,6.5C314.9,261.2,315.3,263.4,315.3,265.7z"/>
</g>
<g>
	<path class="st0" d="M285.9,693.7c0,1.5,0.1,2.9,0.4,4.2s0.7,2.8,1.3,4.2c0.6,1.4,1.4,3,2.4,4.8h-1.9c-1.6-2-2.8-4.2-3.6-6.5
		c-0.8-2.3-1.3-4.5-1.3-6.7c0-2.2,0.4-4.5,1.2-6.7s2-4.4,3.6-6.5h1.9c-1.5,2.5-2.6,4.8-3.2,6.8S285.9,691.5,285.9,693.7z"/>
	<path class="st0" d="M300.3,684.6c-1,0-1.8,0.2-2.5,0.5s-1.3,0.7-1.7,1.3c-0.4,0.5-0.6,1.2-0.6,1.9c0,0.5,0.1,0.9,0.4,1.2
		c0.3,0.3,0.7,0.6,1.3,0.8c0.5,0.2,1.3,0.4,2.4,0.7c1.7,0.4,3,0.9,3.9,1.5s1.6,1.2,2,1.9s0.6,1.6,0.6,2.6c0,1.4-0.4,2.6-1.2,3.5
		s-1.8,1.6-3,2.1s-2.6,0.7-4,0.7c-2.5,0-4.3-0.6-5.5-1.8c-1.2-1.2-1.9-2.8-2-4.9l2.7-0.6c0.1,1.7,0.5,2.9,1.3,3.7
		c0.8,0.8,2,1.2,3.6,1.2c1.2,0,2.2-0.2,3-0.5s1.4-0.8,1.8-1.3c0.4-0.6,0.6-1.2,0.6-1.9c0-0.7-0.2-1.2-0.5-1.7
		c-0.3-0.4-0.9-0.8-1.6-1.1c-0.8-0.3-1.9-0.6-3.3-1c-1.3-0.3-2.3-0.7-3.1-1.2c-0.7-0.5-1.3-1-1.6-1.7c-0.3-0.6-0.5-1.4-0.5-2.3
		c0-1,0.3-2,0.9-2.9c0.6-0.9,1.5-1.6,2.6-2.2c1.1-0.5,2.5-0.8,4-0.8c2.1,0,3.8,0.5,4.9,1.4c1.1,1,1.8,2.4,1.9,4.4l-2.7,0.6
		c-0.1-1.3-0.5-2.4-1.1-3.1C302.8,684.9,301.7,684.6,300.3,684.6z"/>
	<path class="st0" d="M314.8,693.7c0,2.2-0.4,4.4-1.3,6.7c-0.8,2.3-2,4.4-3.6,6.5l-1.9,0c1.5-2.5,2.6-4.8,3.2-6.8
		c0.7-2.1,1-4.2,1-6.4c0-2.1-0.3-4.2-1-6.3c-0.7-2.1-1.7-4.3-3.2-6.8h1.9c1.6,2.1,2.8,4.2,3.6,6.5S314.8,691.5,314.8,693.7z"/>
</g>
<g>
	<path class="st0" d="M337.6,723c0,1.5,0.1,2.9,0.4,4.2s0.7,2.8,1.3,4.2c0.6,1.4,1.4,3,2.4,4.8h-1.9c-1.6-2-2.8-4.2-3.6-6.5
		c-0.8-2.3-1.3-4.5-1.3-6.7c0-2.2,0.4-4.5,1.2-6.7s2-4.4,3.6-6.5h1.9c-1.5,2.5-2.6,4.8-3.2,6.8S337.6,720.8,337.6,723z"/>
	<path class="st0" d="M351.9,713.9c-1,0-1.8,0.2-2.5,0.5s-1.3,0.7-1.7,1.3c-0.4,0.5-0.6,1.2-0.6,1.9c0,0.5,0.1,0.9,0.4,1.2
		c0.3,0.3,0.7,0.6,1.3,0.8c0.5,0.2,1.3,0.4,2.4,0.7c1.7,0.4,3,0.9,3.9,1.5s1.6,1.2,2,1.9s0.6,1.6,0.6,2.6c0,1.4-0.4,2.6-1.2,3.5
		s-1.8,1.6-3,2.1s-2.6,0.7-4,0.7c-2.5,0-4.3-0.6-5.5-1.8c-1.2-1.2-1.9-2.8-2-4.9l2.7-0.6c0.1,1.7,0.5,2.9,1.3,3.7
		c0.8,0.8,2,1.2,3.6,1.2c1.2,0,2.2-0.2,3-0.5s1.4-0.8,1.8-1.3c0.4-0.6,0.6-1.2,0.6-1.9c0-0.7-0.2-1.2-0.5-1.7
		c-0.3-0.4-0.9-0.8-1.6-1.1c-0.8-0.3-1.9-0.6-3.3-1c-1.3-0.3-2.3-0.7-3.1-1.2c-0.7-0.5-1.3-1-1.6-1.7c-0.3-0.6-0.5-1.4-0.5-2.3
		c0-1,0.3-2,0.9-2.9c0.6-0.9,1.5-1.6,2.6-2.2c1.1-0.5,2.5-0.8,4-0.8c2.1,0,3.8,0.5,4.9,1.4c1.1,1,1.8,2.4,1.9,4.4l-2.7,0.6
		c-0.1-1.3-0.5-2.4-1.1-3.1C354.4,714.2,353.3,713.9,351.9,713.9z"/>
	<path class="st0" d="M366.5,723c0,2.2-0.4,4.4-1.3,6.7c-0.8,2.3-2,4.4-3.6,6.5l-1.9,0c1.5-2.5,2.6-4.8,3.2-6.8c0.7-2.1,1-4.2,1-6.4
		c0-2.1-0.3-4.2-1-6.3c-0.7-2.1-1.7-4.3-3.2-6.8h1.9c1.6,2.1,2.8,4.2,3.6,6.5S366.5,720.8,366.5,723z"/>
</g>
</svg>
