<?xml version="1.0" encoding="utf-8"?>
<!-- Generator: Adobe Illustrator 21.0.0, SVG Export Plug-In . SVG Version: 6.00 Build 0)  -->
<svg version="1.1" id="Слой_1" xmlns="http://www.w3.org/2000/svg" xmlns:xlink="http://www.w3.org/1999/xlink" x="0px" y="0px"
	 viewBox="0 0 408.2 202.5" style="enable-background:new 0 0 408.2 202.5;" xml:space="preserve" width="408.2" height="202.5">
<g>
	<polygon points="311.3,77.7 274.4,104.5 275.8,106.4 312.7,79.6 	"/>
	<rect x="299.3" y="143.8" width="34.2" height="2.4"/>
	<polygon points="339.1,153.1 339,153.1 338.7,154.2 337.6,154.2 299.3,154.2 299.3,156.6 337.6,156.6 339.6,156.6 340.5,156.6 
		340.7,155.7 340.7,155.7 352,120.9 349.8,120.1 	"/>
	<path d="M263.2,101.4l10.9,33.5l2.3-0.7L265.6,101l45.2-32.8l29.7,21.6l1.4-1.9l-28.8-21l0,0l-1.3-1l-0.3-0.2l0,0l-0.7-0.5
		l-0.7,0.5l0,0l-0.4,0.3l-1.2,0.9l0,0l-44.4,32.2l-49.2-28.4l0,0l-0.6-0.4l-0.6,0.4l0,0l-49.3,28.5l-48.7-28.1V14.2h-2.4v56.9
		L64.7,99.2L15.4,70.7l-1.2,2.1l49.3,28.5v54.9v2v0.7l2.3,1.3l0,0l46.4,26.8l0,0l1.7,1l0,0l0,0l0.6,0.3l0.6-0.3l0,0l48.2-27.8l0,0
		l2.3-1.3v-0.7v-2v-54.9l47.6-27.5l0,0l1.1-0.6l1.1,0.6l0,0L263.2,101.4z M163.2,157.5l-47.6,27.5l0,0l-1.1,0.7l-48.7-28.1v-1.3
		v-54.9l48.7-28.1l48.7,28.1v54.9V157.5z"/>
	<polygon points="221.2,20.2 221.5,17.8 207.1,17.8 207.4,20.2 	"/>
	<polygon points="219.4,37 209.2,37 209.5,39.4 219.1,39.4 	"/>
	<polygon points="218.3,46.6 210.3,46.6 210.6,49 218,49 	"/>
	<polygon points="217.2,56.2 211.4,56.2 211.6,58.6 217,58.6 	"/>
	<polygon points="215.9,68.2 216.2,65.8 212.4,65.8 212.7,68.2 	"/>
	<polygon points="220.4,27.4 208.2,27.4 208.4,29.8 220.2,29.8 	"/>
	<rect x="133.1" y="72.4" transform="matrix(0.4997 -0.8662 0.8662 0.4997 -15.258 163.9353)" width="2.4" height="45.6"/>
	<rect x="73.8" y="106.6" width="2.4" height="45.6"/>
	<rect x="111.5" y="162.4" transform="matrix(0.8661 -0.4998 0.4998 0.8661 -63.8004 89.0254)" width="45.6" height="2.4"/>
	<polygon points="289.4,162.9 289.3,162.9 274.9,140.6 271,140.6 271,169.2 274.6,169.2 274.6,146.9 274.7,146.9 289.1,169.2 
		292.9,169.2 292.9,140.6 289.4,140.6 	"/>
	<polygon points="364.8,108.1 364.7,108.1 350.3,85.8 346.4,85.8 346.4,114.4 350,114.4 350,92.1 350.1,92.1 364.5,114.4 
		368.3,114.4 368.3,85.8 364.8,85.8 	"/>
	<polygon points="390.2,85.8 390.2,97.5 376.2,97.5 376.2,85.8 372.3,85.8 372.3,114.4 376.2,114.4 376.2,100.9 390.2,100.9 
		390.2,114.4 394,114.4 394,85.8 	"/>
</g>
</svg>
