<?xml version="1.0" encoding="UTF-8"?>
<svg id="_Слой_1" data-name="Слой_1" xmlns="http://www.w3.org/2000/svg" version="1.1" viewBox="0 0 459.34866 556.60252" width="459.34866" height="556.60252">
  <!-- Generator: Adobe Illustrator 29.3.1, SVG Export Plug-In . SVG Version: 2.1.0 Build 151)  -->
  <path d="M161.45827,115.93615l49.88306,28.80005v56.21436l-49.88306,28.80005v58.9856l51.08325,29.49268,51.08301-29.49268v-57.6001l49.88306-28.7998v-58.9856l-49.88306-28.80005v-57.6001l-51.08301-29.49268-49.88306,28.80005-31.25781-18.04688-1.19995,2.07886,31.25757,18.04639v57.59985ZM212.54152,315.45763l-48.68311-28.10718v-56.21436l48.68311-28.10718,48.68286,28.10718v56.21436l-48.68286,28.10718ZM311.10744,144.7362v56.21436l-48.68286,28.10718-48.68311-28.10718v-56.21436l48.68311-28.10718,48.68286,28.10718ZM212.54152,30.22912l48.68286,28.10718v56.21436l-48.68286,28.10718-48.68311-28.10718v-56.21436l48.68311-28.10718Z"/>
  <rect x="171.82643" y="63.62926" width="2.3999" height="45.62817"/>
  <rect x="209.48489" y="119.46448" width="45.62816" height="2.4" transform="translate(-29.21065 132.30255) rotate(-29.99717)"/>
  <rect x="231.09902" y="29.40836" width="2.3999" height="45.62809" transform="translate(70.92392 227.28834) rotate(-60.00012)"/>
  <path d="M105.61696,41.84923c2.12305,1.30078,4.53125,1.95312,7.22656,1.95312,2.48633,0,4.80469-.58984,6.95312-1.76953,2.14844-1.17578,3.80859-2.91016,4.98047-5.20312s1.75781-4.89062,1.75781-7.79297c0-2.86328-.55664-5.42578-1.66992-7.68359-1.11328-2.26172-2.73047-4.02344-4.85352-5.28516s-4.50586-1.89453-7.14844-1.89453c-4.03711,0-7.33008,1.34375-9.88281,4.03125-2.55273,2.69141-3.82812,6.41016-3.82812,11.16406,0,2.51172.54688,4.89453,1.64062,7.14844s2.70117,4.03125,4.82422,5.33203ZM105.95875,20.19689c1.93359-1.83984,4.24219-2.76172,6.92383-2.76172,1.88867,0,3.58984.48047,5.10742,1.43359,1.51758.96094,2.66992,2.30469,3.45703,4.04688.78711,1.73438,1.18164,3.76953,1.18164,6.10156,0,3.68359-.92188,6.53125-2.76367,8.53516s-4.18945,3.00781-7.04102,3.00781c-2.79883,0-5.12695-.99219-6.98242-2.98047-1.85547-1.98438-2.7832-4.70312-2.7832-8.15234,0-4.30859.9668-7.38672,2.90039-9.23047Z"/>
  <rect x="60.43739" y="47.28186" width="36.64624" height="2.4" transform="translate(-13.68903 45.87573) rotate(-30.00009)"/>
  <polygon points="254.97243 158.42736 251.18336 158.42736 251.18336 187.06017 254.97243 187.06017 254.97243 173.56408 269.85524 173.56408 269.85524 187.06017 273.6443 187.06017 273.6443 158.42736 269.85524 158.42736 269.85524 170.18517 254.97243 170.18517 254.97243 158.42736"/>
  <polygon points="261.22438 222.48131 263.62453 222.48131 264.02223 220.08117 260.82667 220.08117 261.22438 222.48131"/>
  <polygon points="259.75709 213.62975 265.09181 213.62975 265.48976 211.22985 259.35915 211.22985 259.75709 213.62975"/>
  <polygon points="258.28981 204.77843 266.5591 204.77843 266.95705 202.37829 257.89186 202.37829 258.28981 204.77843"/>
  <polygon points="256.82228 195.92687 268.02663 195.92687 268.42457 193.52697 256.42433 193.52697 256.82228 195.92687"/>
  <polygon points="216.19166 208.82091 213.91408 209.57775 214.39406 211.94738 217.2256 211.00622 216.19166 208.82091"/>
  <polygon points="220.18288 217.25548 215.76637 218.7235 216.24635 221.09289 221.21681 219.44079 220.18288 217.25548"/>
  <polygon points="224.17384 225.69005 217.61867 227.86901 218.0984 230.23839 225.20802 227.87536 224.17384 225.69005"/>
  <polygon points="228.16505 234.12462 219.47072 237.01452 219.9507 239.38415 229.19923 236.30993 228.16505 234.12462"/>
  <polygon points="232.15626 242.55919 221.32301 246.16002 221.80299 248.52965 233.19044 244.74474 232.15626 242.55919"/>
  <polygon points="352.2693 270.40978 352.2693 241.77697 348.63649 241.77697 348.63649 264.25744 333.59743 241.77697 329.71071 241.77697 329.71071 270.40978 333.34352 270.40978 333.34352 247.90978 348.38258 270.40978 352.2693 270.40978"/>
  <polygon points="318.56056 210.06554 317.08839 208.12877 314.96608 209.24938 315.73512 211.55724 318.56056 210.06554"/>
  <polygon points="318.57301 220.07555 323.99391 217.21349 322.52174 215.27697 317.80397 217.76769 318.57301 220.07555"/>
  <polygon points="321.4109 228.59386 329.42726 224.36168 327.95509 222.42492 320.64186 226.286 321.4109 228.59386"/>
  <polygon points="324.24879 237.11217 334.86061 231.50963 333.38844 229.57287 323.47975 234.80431 324.24879 237.11217"/>
  <rect x="104.56154" y="460.62951" width="2.40015" height="45.62793"/>
  <rect x="142.22022" y="516.46448" width="45.62794" height="2.4" transform="translate(-236.7224 151.87159) rotate(-30.00009)"/>
  <rect x="163.83425" y="426.40846" width="2.3999" height="45.62788" transform="translate(-306.52087 367.53473) rotate(-59.99997)"/>
  <path d="M32.70875,435.71447c-1.4707,1.22266-3.26758,1.83594-5.39062,1.83594-1.74414,0-3.36523-.44922-4.86328-1.34766s-2.60156-2.25781-3.31055-4.07031c-.70898-1.82031-1.06445-3.94531-1.06445-6.37891,0-1.88672.29883-3.72266.89844-5.49609.59961-1.78125,1.63672-3.19531,3.11523-4.25s3.31641-1.58203,5.51758-1.58203c1.91406,0,3.50195.47656,4.76562,1.42578s2.22656,2.46875,2.89062,4.55078l3.73047-.87891c-.76758-2.64453-2.12891-4.69531-4.08203-6.15234s-4.36133-2.1875-7.22656-2.1875c-2.52539,0-4.83984.57422-6.94336,1.73047-2.10352,1.14844-3.72461,2.83594-4.86328,5.05469-1.13867,2.22266-1.70898,4.82422-1.70898,7.80469,0,2.73438.50391,5.29297,1.51367,7.67578s2.48047,4.20312,4.41406,5.45703c1.93359,1.25781,4.44336,1.88672,7.5293,1.88672,2.98242,0,5.50391-.81641,7.56836-2.44922,2.06445-1.63672,3.49219-4.00781,4.28711-7.12109l-3.78906-.95703c-.52148,2.41016-1.51758,4.22656-2.98828,5.44922Z"/>
  <rect x="43.62672" y="411.6715" width="3.51562" height="28.63281"/>
  <path d="M252.27907,355.46837c-2.12305-1.26172-4.50586-1.89453-7.14844-1.89453-4.03711,0-7.33008,1.34375-9.88281,4.03125-2.55273,2.69141-3.82812,6.41016-3.82812,11.16406,0,2.51172.54688,4.89453,1.64062,7.14844s2.70117,4.03125,4.82422,5.33203,4.53125,1.95312,7.22656,1.95312c2.48633,0,4.80469-.58984,6.95312-1.76953,2.14844-1.17578,3.80859-2.91016,4.98047-5.20312s1.75781-4.89062,1.75781-7.79297c0-2.86328-.55664-5.42578-1.66992-7.68359-1.11328-2.26172-2.73047-4.02344-4.85352-5.28516ZM252.13258,376.95275c-1.8418,2.00391-4.18945,3.00781-7.04102,3.00781-2.79883,0-5.12695-.99219-6.98242-2.98047-1.85547-1.98438-2.7832-4.70312-2.7832-8.15234,0-4.30859.9668-7.38672,2.90039-9.23047,1.93359-1.83984,4.24219-2.76172,6.92383-2.76172,1.88867,0,3.58984.48047,5.10742,1.43359,1.51758.96094,2.66992,2.30469,3.45703,4.04688.78711,1.73438,1.18164,3.76953,1.18164,6.10156,0,3.68359-.92188,6.53125-2.76367,8.53516Z"/>
  <polygon points="352.24 389.78087 337.35719 389.78087 337.35719 378.02306 333.56813 378.02306 333.56813 406.65587 337.35719 406.65587 337.35719 393.15978 352.24 393.15978 352.24 406.65587 356.02907 406.65587 356.02907 378.02306 352.24 378.02306 352.24 389.78087"/>
  <polygon points="352.33766 433.90587 337.2986 411.42541 333.41188 411.42541 333.41188 440.05822 337.04469 440.05822 337.04469 417.55822 352.08375 440.05822 355.97047 440.05822 355.97047 411.42541 352.33766 411.42541 352.33766 433.90587"/>
  <path d="M294.9258,453.25792l-43.49902-25.11426v-38.47046h-2.3999v37.08496l-3.98413-2.30029-3.98389,2.30005v-37.08472h-2.40015v38.47046l-43.49902,25.11426-49.88306-28.80005-49.88306,28.80005-38.5564-22.26074-1.19995,2.07837,38.5564,22.26074v57.59985l51.08301,29.49292,51.08301-29.49292v-57.59985l48.68311-28.10718,48.68311,28.10718v56.90723h2.3999v-56.90723l28.86035-16.6626-1.19995-2.07837-28.86035,16.6626ZM145.27663,539.65783l-48.68286-28.10718v-56.21436l48.68286-28.10718,48.68311,28.10718v56.21436l-48.68311,28.10718Z"/>
  <polygon points="445.17506 426.88268 443.97511 424.80431 394.69191 453.25792 365.53688 436.42516 364.33693 438.50353 393.05275 455.08263 364.8528 503.92663 366.93117 505.12658 394.69191 457.04333 422.45265 505.12658 424.53102 503.92663 396.33107 455.08263 445.17506 426.88268"/>
  <polygon points="229.51686 255.28795 254.82448 266.64293 254.82448 264.01256 230.49928 253.09826 229.51686 255.28795"/>
  <polygon points="291.19093 280.32946 270.02443 270.83239 270.02443 273.463 291.25783 282.9901 320.89186 267.86095 319.8008 265.7235 291.19093 280.32946"/>
  <rect x="377.28576" y="247.30548" width="2.39994" height="37.80627" transform="translate(23.38921 562.89857) rotate(-75.00011)"/>
  <metadata>
    <sfw xmlns="http://ns.adobe.com/SaveForWeb/1.0/">
      <slices/>
      <sliceSourceBounds x="-36.47" y="-672.42" width="431" height="528.26" bottomLeftOrigin="true"/>
    </sfw>
  </metadata>
</svg>