<svg width="220mm" height="240mm" version="1.0" viewBox="0 0 220 240" xmlns="http://www.w3.org/2000/svg" xmlns:xlink="http://www.w3.org/1999/xlink">
 <g fill="none" stroke="#000" stroke-width="2"><path id="a" d="m82 115 27-16m-53-30v31m26-46 27 16m6 34-33 19m33-58v39m0-39-33-19m-33 58 33 19m-33-58v39m0-39 33-19"/><use transform="rotate(15,-335,313)" xlink:href="#a"/><path d="m49 104-19 10m155-61 17-22m-22 17 16-21m-50 101-9 35m9-42 22-6m-53-11 31 24 25-7m-14-78 26 5 16 35-10 21m-46-77-7-25m-21 62 20-15"/></g>
 <g font-family="Arial" font-size="29px"><text x="171" y="128">N</text><text x="136" y="52">N</text><text x="197" y="30">O</text><text x="1" y="132">Cl</text></g></svg>