<?xml version="1.0" encoding="utf-8"?>
<!-- Generator: Adobe Illustrator 27.0.0, SVG Export Plug-In . SVG Version: 6.00 Build 0)  -->
<svg version="1.1" id="Слой_1" xmlns="http://www.w3.org/2000/svg" xmlns:xlink="http://www.w3.org/1999/xlink" x="0px" y="0px"
	 viewBox="0 0 429.21 319.12" style="enable-background:new 0 0 429.21 319.12;" xml:space="preserve" width="429.21" height="319.12">
<style type="text/css">
	.st0{fill:none;}
</style>
<g>
	<rect x="124.31" y="50.34" width="2.4" height="45.63"/>
	<rect x="161.96" y="106.18" transform="matrix(0.866 -0.5 0.5 0.866 -28.9338 106.7867)" width="45.63" height="2.4"/>
	<rect x="183.58" y="16.12" transform="matrix(0.5 -0.866 0.866 0.5 58.6705 179.493)" width="2.4" height="45.63"/>
	<path d="M166.22,131.45l49.88-28.8V43.67l-51.08-29.49l-51.08,29.49v58.99l49.88,28.8v56.21l-48.68,28.11l-49.88-28.8l-51.08,29.49
		v58.99l51.08,29.49l51.08-29.49v-57.6l48.68-28.11l31.25,18.04l1.2-2.08l-31.25-18.04V131.45z M65.25,302.17l-48.68-28.11v-56.21
		l48.68-28.11l48.68,28.11v56.21L65.25,302.17z M116.34,101.26V45.05l48.68-28.11l48.68,28.11v56.21l-48.68,28.11L116.34,101.26z"/>
	<path d="M222.14,204.36c-2.12-1.27-4.51-1.89-7.15-1.89c-4.04,0-7.33,1.34-9.88,4.03c-2.55,2.69-3.83,6.41-3.83,11.16
		c0,2.51,0.55,4.89,1.64,7.15c1.09,2.25,2.7,4.03,4.82,5.33c2.12,1.3,4.53,1.95,7.23,1.95c2.49,0,4.8-0.59,6.96-1.77
		c2.15-1.18,3.81-2.91,4.98-5.2c1.17-2.29,1.76-4.89,1.76-7.79c0-2.87-0.56-5.43-1.67-7.69
		C225.88,207.38,224.26,205.62,222.14,204.36z M221.99,225.84c-1.84,2-4.19,3.01-7.04,3.01c-2.8,0-5.13-0.99-6.98-2.98
		c-1.86-1.98-2.78-4.7-2.78-8.15c0-4.31,0.97-7.39,2.9-9.23c1.93-1.84,4.24-2.76,6.92-2.76c1.89,0,3.59,0.48,5.11,1.43
		c1.52,0.96,2.67,2.3,3.46,4.04c0.79,1.74,1.18,3.77,1.18,6.11C224.76,220.99,223.84,223.83,221.99,225.84z"/>
	<rect x="83.81" y="188.92" transform="matrix(0.5 -0.866 0.866 0.5 -140.8634 179.4941)" width="2.4" height="45.63"/>
	<rect x="24.54" y="223.14" width="2.4" height="45.63"/>
	<rect x="62.2" y="278.98" transform="matrix(0.866 -0.5 0.5 0.866 -128.7104 80.0545)" width="45.63" height="2.4"/>
	<polygon points="372.08,196.65 357.05,174.17 353.16,174.17 353.16,202.8 356.79,202.8 356.79,180.3 371.83,202.8 375.72,202.8 
		375.72,174.17 372.08,174.17 	"/>
	<polygon points="314.67,215.77 264.79,186.97 232.25,205.75 233.46,207.83 264.79,189.74 314.67,218.54 344.83,201.13 
		343.63,199.05 	"/>
	<rect x="398.35" y="191.37" transform="matrix(0.5001 -0.866 0.866 0.5001 19.1276 450.2577)" width="2.4" height="34.39"/>
	<rect x="363.35" y="130.76" width="2.4" height="36.91"/>
</g>
</svg>
