<?xml version="1.0" encoding="UTF-8"?>
<svg id="Layer_1" xmlns="http://www.w3.org/2000/svg" version="1.1" viewBox="0 0 478.51 232.02" width="478.51" height="232.02">
  <!-- Generator: Adobe Illustrator 29.0.1, SVG Export Plug-In . SVG Version: 2.1.0 Build 192)  -->
  <polygon points="65.77 128.38 65.77 128.37 64.65 129.03 63.54 128.37 63.53 128.38 15.37 100.57 14.17 102.65 64.05 131.45 64.05 131.45 64.65 131.8 65.25 131.45 65.25 131.45 98.61 112.17 97.41 110.09 65.77 128.38"/>
  <polygon points="165.53 128.38 165.53 128.37 164.41 129.03 163.3 128.37 163.29 128.38 131.65 110.09 130.45 112.17 158.01 128.1 158.01 166.57 160.41 166.57 160.41 129.49 163.81 131.45 163.81 131.45 164.41 131.8 165.01 131.45 165.01 131.45 168.41 129.49 168.41 166.57 170.81 166.57 170.81 128.1 198.93 111.85 197.73 109.77 165.53 128.38"/>
  <rect x="238.53" y="106.22" width="2.4" height="20.14" transform="translate(19.07 265.64) rotate(-59.97)"/>
  <polygon points="320.45 64.97 318.05 64.97 318.05 102.54 316.4 101.58 316.41 101.57 314.75 100.63 314.66 100.57 314.66 100.57 314.05 100.23 313.4 100.61 310.05 102.53 310.05 64.97 307.66 64.97 307.66 103.92 279.41 120.21 280.62 122.29 312.93 103.65 312.93 103.65 314.06 103 346.81 121.93 348.02 119.85 320.45 103.92 320.45 64.97"/>
  <polygon points="416.16 101.58 416.17 101.57 414.44 100.59 414.41 100.57 414.41 100.57 413.8 100.23 413.21 100.57 413.21 100.57 379.85 119.85 381.05 121.93 412.69 103.65 412.69 103.65 413.81 103 463.13 131.45 464.34 129.37 416.16 101.58"/>
  <polygon points="121.93 109.13 121.85 109.13 107.45 86.81 103.57 86.81 103.57 115.45 107.13 115.45 107.13 93.09 107.21 93.09 121.61 115.45 125.49 115.45 125.49 86.81 121.93 86.81 121.93 109.13"/>
  <polygon points="113.33 46.01 113.33 80.41 115.73 80.41 115.73 46.01 115.73 44.01 115.73 43.32 115.13 42.97 115.13 42.97 115.04 42.92 113.42 41.97 113.41 41.98 65.25 14.17 64.05 16.25 113.33 44.7 113.33 46.01"/>
  <path d="M221.17,100.89c-2.28-1.12-6.12-1.96-6.12-1.96-2.8-.6-4.28-1.12-4.28-1.12-1.52-.56-2.24-1.4-2.24-1.4-.72-.8-.72-2.16-.72-2.16,0-1.36.8-2.36.8-2.36.8-1,2.24-1.52,2.24-1.52,1.44-.56,3.28-.56,3.28-.56,2.84,0,4.48,1.36,4.48,1.36,1.64,1.32,2.28,4.44,2.28,4.44h.08l3.64-.8c-.32-2.6-1.72-4.44-1.72-4.44-1.36-1.84-3.64-2.84-3.64-2.84-2.24-.96-5.2-.96-5.2-.96-2.8,0-5.04.96-5.04.96-2.28,1-3.56,2.76-3.56,2.76-1.28,1.72-1.28,3.88-1.28,3.88,0,1.96.68,3.4.68,3.4.64,1.44,2.32,2.56,2.32,2.56,1.68,1.12,4.64,1.92,4.64,1.92.68.2,2.32.6,2.32.6,2.76.64,4.2,1.12,4.2,1.12,1.72.64,2.6,1.64,2.6,1.64.88,1,.88,2.8.88,2.8,0,1.32-.92,2.44-.92,2.44-.92,1.08-2.52,1.68-2.52,1.68-1.56.6-3.44.6-3.44.6-3.6,0-5.64-1.76-5.64-1.76-2.04-1.76-2.44-5.28-2.44-5.28l-3.72.88c.68,4.6,3.76,7,3.76,7,3.08,2.4,8.2,2.4,8.2,2.4,2.96,0,5.32-1.12,5.32-1.12,2.36-1.12,3.72-3.08,3.72-3.08,1.32-1.96,1.32-4.36,1.32-4.36,0-2.4-1-4.04-1-4.04-1.04-1.6-3.28-2.68-3.28-2.68Z"/>
  <path d="M171.25,187.29c-2.24-1.12-6.08-1.96-6.08-1.96-2.8-.6-4.28-1.12-4.28-1.12-1.52-.56-2.24-1.4-2.24-1.4-.72-.8-.72-2.16-.72-2.16,0-1.36.8-2.36.8-2.36.8-1,2.24-1.52,2.24-1.52,1.44-.56,3.28-.56,3.28-.56,2.84,0,4.48,1.36,4.48,1.36,1.64,1.32,2.28,4.44,2.28,4.44h.08l3.64-.8c-.32-2.6-1.72-4.44-1.72-4.44-1.36-1.84-3.64-2.84-3.64-2.84-2.24-.96-5.2-.96-5.2-.96-2.8,0-5.04.96-5.04.96-2.28,1-3.56,2.76-3.56,2.76-1.28,1.72-1.28,3.88-1.28,3.88,0,1.96.68,3.4.68,3.4.64,1.44,2.32,2.56,2.32,2.56,1.68,1.12,4.64,1.92,4.64,1.92.68.2,2.32.6,2.32.6,2.76.64,4.2,1.12,4.2,1.12,1.72.64,2.6,1.64,2.6,1.64.88,1,.88,2.8.88,2.8,0,1.32-.92,2.44-.92,2.44-.92,1.08-2.52,1.68-2.52,1.68-1.56.6-3.44.6-3.44.6-3.6,0-5.64-1.76-5.64-1.76-2.04-1.76-2.44-5.28-2.44-5.28l-3.72.88c.68,4.6,3.76,7,3.76,7,3.04,2.4,8.2,2.4,8.2,2.4,2.96,0,5.32-1.12,5.32-1.12,2.36-1.12,3.72-3.08,3.72-3.08,1.32-1.96,1.32-4.36,1.32-4.36,0-2.4-1.04-4.04-1.04-4.04-1-1.6-3.28-2.68-3.28-2.68Z"/>
  <path d="M271.05,129.69c-2.28-1.12-6.12-1.96-6.12-1.96-2.8-.6-4.28-1.12-4.28-1.12-1.52-.56-2.24-1.4-2.24-1.4-.72-.8-.72-2.16-.72-2.16,0-1.36.8-2.36.8-2.36.8-1,2.24-1.52,2.24-1.52,1.44-.56,3.28-.56,3.28-.56,2.84,0,4.48,1.36,4.48,1.36,1.64,1.32,2.28,4.44,2.28,4.44h.08l3.64-.8c-.32-2.6-1.68-4.44-1.68-4.44-1.4-1.84-3.68-2.84-3.68-2.84-2.24-.96-5.2-.96-5.2-.96-2.8,0-5.04.96-5.04.96-2.24,1-3.52,2.76-3.52,2.76-1.28,1.72-1.28,3.88-1.28,3.88,0,1.96.64,3.4.64,3.4.64,1.44,2.32,2.56,2.32,2.56,1.68,1.12,4.64,1.92,4.64,1.92.68.2,2.32.6,2.32.6,2.76.64,4.2,1.12,4.2,1.12,1.76.64,2.6,1.64,2.6,1.64.88,1,.88,2.8.88,2.8,0,1.32-.92,2.44-.92,2.44-.92,1.08-2.48,1.68-2.48,1.68-1.6.6-3.48.6-3.48.6-3.6,0-5.64-1.76-5.64-1.76-2.04-1.76-2.44-5.28-2.44-5.28l-3.72.88c.68,4.6,3.76,7,3.76,7,3.08,2.4,8.2,2.4,8.2,2.4,2.96,0,5.32-1.12,5.32-1.12,2.36-1.12,3.72-3.08,3.72-3.08,1.32-1.96,1.32-4.36,1.32-4.36,0-2.4-1-4.04-1-4.04-1.04-1.6-3.28-2.68-3.28-2.68Z"/>
  <polygon points="374.93 144.25 374.93 115.61 371.33 115.61 371.33 137.93 371.25 137.93 356.89 115.61 352.97 115.61 352.97 144.25 356.57 144.25 356.57 121.89 356.65 121.89 371.05 144.25 374.93 144.25"/>
  <path d="M318.17,54.73c-1.6.6-3.48.6-3.48.6-3.6,0-5.64-1.76-5.64-1.76-2.04-1.76-2.4-5.28-2.4-5.28l-3.76.88c.68,4.6,3.76,7,3.76,7,3.08,2.4,8.2,2.4,8.2,2.4,2.96,0,5.32-1.12,5.32-1.12,2.36-1.12,3.72-3.08,3.72-3.08,1.32-1.96,1.32-4.36,1.32-4.36,0-2.4-1-4.04-1-4.04-1.04-1.6-3.28-2.68-3.28-2.68-2.28-1.12-6.12-1.96-6.12-1.96-2.8-.6-4.28-1.12-4.28-1.12-1.48-.56-2.2-1.4-2.2-1.4-.76-.8-.76-2.16-.76-2.16,0-1.36.8-2.36.8-2.36.8-1,2.24-1.52,2.24-1.52,1.44-.56,3.28-.56,3.28-.56,2.84,0,4.48,1.36,4.48,1.36,1.64,1.32,2.28,4.44,2.28,4.44h.08l3.64-.8c-.32-2.6-1.68-4.44-1.68-4.44-1.4-1.84-3.64-2.84-3.64-2.84-2.28-.96-5.24-.96-5.24-.96-2.8,0-5.04.96-5.04.96-2.24,1-3.52,2.76-3.52,2.76-1.28,1.72-1.28,3.88-1.28,3.88,0,1.96.64,3.4.64,3.4.64,1.44,2.32,2.56,2.32,2.56,1.68,1.12,4.68,1.92,4.68,1.92.64.2,2.28.6,2.28.6,2.76.64,4.2,1.12,4.2,1.12,1.76.64,2.64,1.64,2.64,1.64.88,1,.88,2.8.88,2.8,0,1.32-.96,2.44-.96,2.44-.92,1.08-2.48,1.68-2.48,1.68Z"/>
  <polygon points="366.29 187.97 365.13 187.31 365.13 186.01 365.13 150.65 362.73 150.65 362.73 186.01 362.73 188.01 362.73 188.71 363.33 189.05 363.33 189.05 413.21 217.85 414.41 215.77 366.28 187.98 366.29 187.97"/>
</svg>