<?xml version="1.0" encoding="UTF-8"?>
<svg width="490pt" version="1.1" xmlns="http://www.w3.org/2000/svg" height="175pt" viewBox="0 0 490 175" xmlns:xlink="http://www.w3.org/1999/xlink">
 <defs>
  <clipPath id="Clip0">
   <path d="M0 0 L490 0 L490 175 L0 175 L0 0 Z" transform="translate(0, 0)"/>
  </clipPath>
 </defs>
 <g id="Hintergrund">
  <g id="Gruppe1" clip-path="url(#Clip0)">
   <path style="fill:#000000; fill-rule:nonzero;stroke:none;" d="M1.7002 39.65 L0 40.65 L0 0 L1.7002 0.95 L1.7002 39.65 Z" transform="translate(2.5, 106.2)"/>
   <path style="fill:#000000; fill-rule:nonzero;stroke:none;" d="M1.7002 32.8 L0 32.8 L0 0 L1.7002 0 L1.7002 32.8 Z" transform="translate(8.4502, 110.1)"/>
   <path style="fill:#000000; fill-rule:nonzero;stroke:none;" d="M35.2002 19.35 L35.2002 21.35 L0 1 L1.7002 0 L35.2002 19.35 Z" transform="translate(2.5, 145.85)"/>
   <path style="fill:#000000; fill-rule:nonzero;stroke:none;" d="M33.5 0 L35.2002 1 L0 21.35 L0 19.35 L33.5 0 Z" transform="translate(37.7002, 145.85)"/>
   <path style="fill:#000000; fill-rule:nonzero;stroke:none;" d="M28.4004 0 L29.25 1.45 L0.8506 17.85 L0 16.4 L28.4004 0 Z" transform="translate(37.2998, 142.2)"/>
   <path style="fill:#000000; fill-rule:nonzero;stroke:none;" d="M0 0.5 L0.8496 0 L1.7002 0.5 L1.7002 40.2 L0 39.2 L0 0.5 Z" transform="translate(71.2002, 106.65)"/>
   <path style="fill:#000000; fill-rule:nonzero;stroke:none;" d="M0 1.9502 L0 0 L34.3496 19.8504 L34.3496 20.8004 L33.5 21.3004 L0 1.9502 Z" transform="translate(37.7002, 85.8496)"/>
   <path style="fill:#000000; fill-rule:nonzero;stroke:none;" d="M0 1.5 L0.8506 0 L29.25 16.3998 L28.4004 17.8998 L0 1.5 Z" transform="translate(37.2998, 92.9502)"/>
   <path style="fill:#000000; fill-rule:nonzero;stroke:none;" d="M1.7002 21.3004 L0 20.3504 L35.2002 0 L35.2002 1.9502 L1.7002 21.3004 Z" transform="translate(2.5, 85.8496)"/>
   <path style="fill:#000000; fill-rule:nonzero;stroke:none;" d="M34.4002 0 L34.4002 1.9502 L0.8506 21.3004 L0 20.8004 L0 19.8504 L34.4002 0 Z" transform="translate(72.0498, 85.8496)"/>
   <path style="fill:#000000; fill-rule:evenodd;stroke:none;" d="M13.675 0 L11.562 0 L11.562 14.3006 L2.421 0 L0 0 L0 17.4926 L2.109 17.4926 L2.109 3.3126 L11.156 17.4926 L13.675 17.4926 L13.675 0 Z" transform="translate(133.975, 98.6074)"/>
   <path style="fill:#000000; fill-rule:nonzero;stroke:none;" d="M24.45 14.1006 L23.6 15.6004 L0 1.9502 L0 0 L24.45 14.1006 Z" transform="translate(106.45, 85.8496)"/>
   <path style="fill:#000000; fill-rule:nonzero;stroke:none;" d="M1.7 27.55 L0 28.55 L0 0 L1.7 0 L1.7 27.55 Z" transform="translate(139.95, 118.3)"/>
   <path style="fill:#000000; fill-rule:nonzero;stroke:none;" d="M35.2 19.35 L35.2 21.35 L0 1 L1.7 0 L35.2 19.35 Z" transform="translate(139.95, 145.85)"/>
   <path style="fill:#000000; fill-rule:nonzero;stroke:none;" d="M33.55 0 L34.4 0.5 L34.4 1.5 L0 21.35 L0 19.35 L33.55 0 Z" transform="translate(175.15, 145.85)"/>
   <path style="fill:#000000; fill-rule:nonzero;stroke:none;" d="M0 0.95 L1.7 0 L1.7 39.65 L0.85 40.15 L0 39.65 L0 0.95 Z" transform="translate(208.7, 106.2)"/>
   <path style="fill:#000000; fill-rule:nonzero;stroke:none;" d="M0 1.9502 L0 0 L35.25 20.3504 L33.55 21.3004 L0 1.9502 Z" transform="translate(175.15, 85.8496)"/>
   <path style="fill:#000000; fill-rule:nonzero;stroke:none;" d="M0.85 15.6504 L0 14.2004 L24.6 0 L24.6 1.9502 L0.85 15.6504 Z" transform="translate(150.55, 85.8496)"/>
   <path style="fill:#000000; fill-rule:nonzero;stroke:none;" d="M34.35 19.35 L34.35 21.3 L0 1.5 L0 0.5 L0.85 0 L34.35 19.35 Z" transform="translate(209.55, 145.85)"/>
   <path style="fill:#b3b3b3; fill-rule:evenodd;stroke:none;" d="M4.941 0 C1.496 3.965 0 7.285 0 10.945 C0 12.711 0.449 14.625 1.387 16.75 L3.191 16.75 C2.398 14.137 2.144 12.785 2.144 11.125 C2.144 8.727 2.812 6.348 4.164 3.895 C4.797 2.738 5.465 1.746 6.742 0 L4.941 0 Z" transform="translate(271.216, 155.955)"/>
   <path style="fill:#b3b3b3; fill-rule:evenodd;stroke:none;" d="M3.804 7.934 L6.906 7.934 C7.937 7.934 8.441 8.258 8.441 8.926 C8.441 9.141 8.406 9.359 8.222 10.024 C7.883 11.25 7.754 11.938 7.754 12.406 C7.754 12.641 7.793 12.82 7.898 13.145 L10.765 13.145 L10.875 12.656 C10.64 12.477 10.551 12.297 10.551 12.043 C10.551 11.918 10.57 11.758 10.605 11.574 C11.019 9.359 11.109 8.727 11.109 8.277 C11.109 7.59 10.64 7.102 9.703 6.797 C10.66 6.328 11.129 6.02 11.562 5.57 C12.265 4.848 12.715 3.715 12.715 2.703 C12.715 2.02 12.426 1.316 11.941 0.828 C11.363 0.25 10.64 0 9.594 0 L2.797 0 L0 13.145 L2.707 13.145 L3.804 7.934 Z M4.293 5.68 L5.015 2.254 L8.043 2.254 C8.875 2.254 9.289 2.359 9.633 2.633 C9.883 2.867 10.027 3.172 10.027 3.516 C10.027 4.02 9.828 4.578 9.488 4.938 C9.019 5.461 8.461 5.68 7.558 5.68 L4.293 5.68 Z" transform="translate(277.135, 155.955)"/>
   <path style="fill:#b3b3b3; fill-rule:evenodd;stroke:none;" d="M1.804 16.75 C2.832 15.563 3.804 14.297 4.453 13.309 C5.988 10.926 6.8 8.313 6.8 5.824 C6.8 4.039 6.347 2.199 5.355 0 L3.554 0 C4.398 2.668 4.652 3.949 4.652 5.645 C4.652 8.024 3.984 10.402 2.613 12.856 C1.964 14.012 1.39 14.875 0 16.75 L1.804 16.75 Z" transform="translate(288.31, 155.955)"/>
   <path style="fill:#b3b3b3; fill-rule:evenodd;stroke:none;" d="M4.941 0 C1.496 3.965 0 7.285 0 10.945 C0 12.711 0.449 14.625 1.387 16.75 L3.191 16.75 C2.398 14.137 2.144 12.785 2.144 11.125 C2.144 8.727 2.812 6.348 4.164 3.895 C4.797 2.738 5.465 1.746 6.742 0 L4.941 0 Z" transform="translate(271.216, 155.955)"/>
   <path style="fill:#b3b3b3; fill-rule:evenodd;stroke:none;" d="M3.804 7.934 L6.906 7.934 C7.937 7.934 8.441 8.258 8.441 8.926 C8.441 9.141 8.406 9.359 8.222 10.024 C7.883 11.25 7.754 11.938 7.754 12.406 C7.754 12.641 7.793 12.82 7.898 13.145 L10.765 13.145 L10.875 12.656 C10.64 12.477 10.551 12.297 10.551 12.043 C10.551 11.918 10.57 11.758 10.605 11.574 C11.019 9.359 11.109 8.727 11.109 8.277 C11.109 7.59 10.64 7.102 9.703 6.797 C10.66 6.328 11.129 6.02 11.562 5.57 C12.265 4.848 12.715 3.715 12.715 2.703 C12.715 2.02 12.426 1.316 11.941 0.828 C11.363 0.25 10.64 0 9.594 0 L2.797 0 L0 13.145 L2.707 13.145 L3.804 7.934 Z M4.293 5.68 L5.015 2.254 L8.043 2.254 C8.875 2.254 9.289 2.359 9.633 2.633 C9.883 2.867 10.027 3.172 10.027 3.516 C10.027 4.02 9.828 4.578 9.488 4.938 C9.019 5.461 8.461 5.68 7.558 5.68 L4.293 5.68 Z" transform="translate(277.135, 155.955)"/>
   <path style="fill:#b3b3b3; fill-rule:evenodd;stroke:none;" d="M1.804 16.75 C2.832 15.563 3.804 14.297 4.453 13.309 C5.988 10.926 6.8 8.313 6.8 5.824 C6.8 4.039 6.347 2.199 5.355 0 L3.554 0 C4.398 2.668 4.652 3.949 4.652 5.645 C4.652 8.024 3.984 10.402 2.613 12.856 C1.964 14.012 1.39 14.875 0 16.75 L1.804 16.75 Z" transform="translate(288.31, 155.955)"/>
   <path style="fill:#000000; fill-rule:nonzero;stroke:none;" d="M37.45 11.9 L38.1 13.9 L0.1 1.55 L0 0.65 L0.85 0 L37.45 11.9 Z" transform="translate(279.6, 145.4)"/>
   <path style="fill:#000000; fill-rule:nonzero;stroke:none;" d="M22.6 0 L23.65 0 L24.1 0.8 L0.65 33.1 L0 31.1 L22.6 0 Z" transform="translate(317.05, 126.2)"/>
   <path style="fill:#000000; fill-rule:nonzero;stroke:none;" d="M0 1.0996 L0.3 0.0996 L1.3 0 L24.05 31.3 L23.65 32.2 L22.6 32.2 L0 1.0996 Z" transform="translate(317.05, 94)"/>
   <path style="fill:#000000; fill-rule:nonzero;stroke:none;" d="M0 1 L1.4 0 L20.65 26.5504 L19.3 27.5504 L0 1 Z" transform="translate(323.5, 92.8496)"/>
   <path style="fill:#000000; fill-rule:nonzero;stroke:none;" d="M1.7 13.5496 L0 12.3496 L38 0 L38.6 0.6992 L38.3 1.6992 L1.7 13.5496 Z" transform="translate(278.75, 93.4004)"/>
   <path style="fill:#000000; fill-rule:nonzero;stroke:none;" d="M34.85 0 L35.7 0.5 L35.8 1.4 L0 21.6 L0 19.65 L34.85 0 Z" transform="translate(243.9, 145.55)"/>
   <path style="fill:#000000; fill-rule:nonzero;stroke:none;" d="M1.7 39.65 L0.85 40.3 L0 39.8 L0 0 L1.7 1.2 L1.7 39.65 Z" transform="translate(278.75, 105.75)"/>
   <path style="fill:#000000; fill-rule:evenodd;stroke:none;" d="M8.422 0 C3.411 0 0 3.6953 0 9.1679 C0 14.6601 3.383 18.332 8.45 18.332 C10.582 18.332 12.453 17.6835 13.871 16.4843 C15.766 14.8789 16.895 12.1679 16.895 9.3125 C16.895 3.6718 13.559 0 8.422 0 Z M8.422 1.9687 C12.215 1.9687 14.661 4.8242 14.661 9.2617 C14.661 13.4882 12.141 16.3671 8.45 16.3671 C4.703 16.3671 2.235 13.4882 2.235 9.1679 C2.235 4.8476 4.703 1.9687 8.422 1.9687 Z" transform="translate(239.11, 74.7188)"/>
   <path style="fill:#000000; fill-rule:nonzero;stroke:none;" d="M0 1.3496 L1 0 L25.6 17.85 L24.6 19.2 L0 1.3496 Z" transform="translate(254.5, 91.5)"/>
   <path style="fill:#000000; fill-rule:nonzero;stroke:none;" d="M0 1.3994 L1 0 L25.6 17.8996 L24.6 19.2496 L0 1.3994 Z" transform="translate(258, 86.6504)"/>
   <path style="fill:#000000; fill-rule:nonzero;stroke:none;" d="M38.85 0 L40.05 1.6 L0.45 5.75 L0 4.95 L0.4 4.05 L38.85 0 Z" transform="translate(340.7, 121.25)"/>
   <path style="fill:#000000; fill-rule:nonzero;stroke:none;" d="M15.75 0.1006 L16.75 0 L17.3 0.7998 L1.2 37.0502 L0 35.4502 L15.75 0.1006 Z" transform="translate(379.55, 85.7998)"/>
   <path style="fill:#000000; fill-rule:nonzero;stroke:none;" d="M13.35 0 L14.9 0.6992 L1.55 30.6996 L0 29.9996 L13.35 0 Z" transform="translate(375.35, 86.1504)"/>
   <path style="fill:#000000; fill-rule:nonzero;stroke:none;" d="M0 1 L0.4 0.1006 L1.4 0 L24.15 31.3008 L23.75 32.2002 L22.75 32.3008 L0 1 Z" transform="translate(372.55, 53.5996)"/>
   <path style="fill:#000000; fill-rule:nonzero;stroke:none;" d="M1.15 5.75 L0 4.1494 L39.5 0 L40.05 0.7998 L39.65 1.6992 L1.15 5.75 Z" transform="translate(332.9, 52.9004)"/>
   <path style="fill:#000000; fill-rule:nonzero;stroke:none;" d="M0.2 5.1504 L0 3.4502 L32.65 0 L32.8 1.7002 L0.2 5.1504 Z" transform="translate(337.45, 59.0996)"/>
   <path style="fill:#000000; fill-rule:nonzero;stroke:none;" d="M1.6 36.9502 L0.6 37.0498 L0 36.3506 L16.15 0 L17.3 1.6006 L1.6 36.9502 Z" transform="translate(316.75, 57.0498)"/>
   <path style="fill:#000000; fill-rule:evenodd;stroke:none;" d="M11.227 9.527 L11.227 17.492 L13.461 17.492 L13.461 0 L11.227 0 L11.227 7.559 L2.231 7.559 L2.231 0 L0 0 L0 17.492 L2.231 17.492 L2.231 9.527 L11.227 9.527 Z" transform="translate(239.242, 116.208)"/>
   <path style="fill:#000000; fill-rule:nonzero;stroke:none;" d="M0 6.4 L4.15 0 L5.45 1.1 L1.55 7.15 L0 6.4 Z" transform="translate(254.75, 128.1)"/>
   <path style="fill:#000000; fill-rule:nonzero;stroke:none;" d="M0 5.25 L3.45 0 L4.75 1.1 L1.55 6 L0 5.25 Z" transform="translate(259.55, 131.55)"/>
   <path style="fill:#000000; fill-rule:nonzero;stroke:none;" d="M0 4.1 L2.65 0 L3.95 1.1 L1.55 4.85 L0 4.1 Z" transform="translate(264.4, 135)"/>
   <path style="fill:#000000; fill-rule:nonzero;stroke:none;" d="M0 2.95 L1.9 0 L3.25 1.1 L1.55 3.7 L0 2.95 Z" transform="translate(269.2, 138.45)"/>
   <path style="fill:#000000; fill-rule:nonzero;stroke:none;" d="M0 1.8 L1.15 0 L2.45 1.1 L1.55 2.55 L0 1.8 Z" transform="translate(274.05, 141.9)"/>
   <path style="fill:#000000; fill-rule:evenodd;stroke:none;" d="M8.422 0 C3.411 0 0 3.6953 0 9.1679 C0 14.6601 3.383 18.332 8.45 18.332 C10.582 18.332 12.453 17.6836 13.871 16.4843 C15.766 14.8789 16.895 12.1679 16.895 9.3125 C16.895 3.6718 13.559 0 8.422 0 Z M8.422 1.9687 C12.215 1.9687 14.661 4.8242 14.661 9.2617 C14.661 13.4882 12.141 16.3671 8.45 16.3671 C4.703 16.3671 2.235 13.4882 2.235 9.1679 C2.235 4.8476 4.703 1.9687 8.422 1.9687 Z" transform="translate(427.36, 73.3184)"/>
   <path style="fill:#000000; fill-rule:evenodd;stroke:none;" d="M14.73 5.7109 C14.035 1.875 11.828 0 7.988 0 C5.636 0 3.742 0.7461 2.445 2.1836 C0.863 3.914 0 6.4101 0 9.2382 C0 12.1171 0.886 14.5898 2.519 16.2929 C3.886 17.6836 5.613 18.332 7.894 18.332 C12.164 18.332 14.562 16.0312 15.089 11.3984 L12.789 11.3984 C12.597 12.5976 12.355 13.414 11.996 14.1093 C11.277 15.5507 9.789 16.3671 7.918 16.3671 C4.437 16.3671 2.23 13.582 2.23 9.2148 C2.23 4.7304 4.316 1.9687 7.726 1.9687 C9.14 1.9687 10.46 2.3789 11.179 3.0742 C11.828 3.6718 12.187 4.3945 12.453 5.7109 L14.73 5.7109 Z" transform="translate(444.353, 37.0684)"/>
   <path style="fill:#000000; fill-rule:evenodd;stroke:none;" d="M11.226 9.5274 L11.226 17.4922 L13.46 17.4922 L13.46 0 L11.226 0 L11.226 7.5586 L2.23 7.5586 L2.23 0 L0 0 L0 17.4922 L2.23 17.4922 L2.23 9.5274 L11.226 9.5274 Z" transform="translate(462.52, 37.3574)"/>
   <path style="fill:#000000; fill-rule:evenodd;stroke:none;" d="M3.406 6.9257 L3.605 6.9257 L4.273 6.9062 C6.023 6.9062 6.921 7.6992 6.921 9.2343 C6.921 10.8359 5.933 11.7929 4.273 11.7929 C2.543 11.7929 1.695 10.9257 1.586 9.0703 L0 9.0703 C0.07 10.0976 0.25 10.7656 0.558 11.3437 C1.207 12.5703 2.468 13.1992 4.218 13.1992 C6.851 13.1992 8.546 11.6328 8.546 9.2148 C8.546 7.5898 7.914 6.6914 6.382 6.1679 C7.574 5.6796 8.168 4.7968 8.168 3.5156 C8.168 1.3164 6.707 0 4.273 0 C1.695 0 0.324 1.4062 0.269 4.1289 L1.855 4.1289 C1.875 3.3554 1.945 2.9218 2.144 2.5234 C2.504 1.8203 3.3 1.3867 4.289 1.3867 C5.699 1.3867 6.546 2.1992 6.546 3.5703 C6.546 4.4726 6.218 5.0117 5.515 5.3007 C5.086 5.4804 4.523 5.5546 3.406 5.5703 L3.406 6.9257 Z" transform="translate(478.433, 46.5645)"/>
   <path style="fill:#000000; fill-rule:evenodd;stroke:none;" d="M14.73 5.71095 C14.035 1.875 11.828 0 7.988 0 C5.636 0 3.742 0.74609 2.445 2.18359 C0.863 3.91406 0 6.41015 0 9.23825 C0 12.1171 0.886 14.5898 2.519 16.293 C3.886 17.6835 5.613 18.332 7.894 18.332 C12.164 18.332 14.562 16.0312 15.09 11.3984 L12.789 11.3984 C12.597 12.5977 12.355 13.4141 11.996 14.1093 C11.277 15.5508 9.789 16.3671 7.918 16.3671 C4.437 16.3671 2.23 13.582 2.23 9.21485 C2.23 4.73047 4.316 1.96875 7.726 1.96875 C9.14 1.96875 10.461 2.37891 11.179 3.07422 C11.828 3.67188 12.187 4.39453 12.453 5.71095 L14.73 5.71095 Z" transform="translate(421.053, 4.96875)"/>
   <path style="fill:#000000; fill-rule:evenodd;stroke:none;" d="M11.226 9.52739 L11.226 17.4922 L13.461 17.4922 L13.461 0 L11.226 0 L11.226 7.55859 L2.23 7.55859 L2.23 0 L0 0 L0 17.4922 L2.23 17.4922 L2.23 9.52739 L11.226 9.52739 Z" transform="translate(439.22, 5.25781)"/>
   <path style="fill:#000000; fill-rule:evenodd;stroke:none;" d="M3.406 6.9258 L3.605 6.9258 L4.273 6.9063 C6.023 6.9063 6.922 7.6993 6.922 9.2344 C6.922 10.836 5.933 11.793 4.273 11.793 C2.543 11.793 1.695 10.9258 1.586 9.0704 L0 9.0704 C0.07 10.0977 0.25 10.7657 0.558 11.3438 C1.207 12.5704 2.469 13.1993 4.219 13.1993 C6.851 13.1993 8.547 11.6329 8.547 9.2149 C8.547 7.5899 7.914 6.6915 6.383 6.168 C7.574 5.6797 8.168 4.7969 8.168 3.5157 C8.168 1.3165 6.707 0 4.273 0 C1.695 0 0.324 1.4063 0.269 4.129 L1.855 4.129 C1.875 3.3555 1.945 2.9219 2.144 2.5235 C2.504 1.8204 3.301 1.3868 4.289 1.3868 C5.699 1.3868 6.547 2.1993 6.547 3.5704 C6.547 4.4727 6.219 5.0118 5.515 5.3008 C5.086 5.4805 4.523 5.5547 3.406 5.5704 L3.406 6.9258 Z" transform="translate(455.133, 14.4648)"/>
   <path style="fill:#000000; fill-rule:evenodd;stroke:none;" d="M8.422 0 C3.41 0 0 3.69536 0 9.16796 C0 14.6602 3.383 18.3321 8.449 18.3321 C10.582 18.3321 12.453 17.6836 13.871 16.4844 C15.766 14.8789 16.894 12.168 16.894 9.31246 C16.894 3.67186 13.559 0 8.422 0 Z M8.422 1.96876 C12.215 1.96876 14.66 4.82426 14.66 9.26176 C14.66 13.4883 12.141 16.3672 8.449 16.3672 C4.703 16.3672 2.234 13.4883 2.234 9.16796 C2.234 4.84766 4.703 1.96876 8.422 1.96876 Z" transform="translate(380.71, 9.11914)"/>
   <path style="fill:#000000; fill-rule:nonzero;stroke:none;" d="M29.1 0 L29.25 1.6494 L0.55 4.6992 L0 3.8994 L0.4 3 L29.1 0 Z" transform="translate(396.3, 81.9004)"/>
   <path style="fill:#000000; fill-rule:nonzero;stroke:none;" d="M7.15 0 L8.7 0.7002 L1.55 16.7002 L0 16 L7.15 0 Z" transform="translate(439.2, 55.7998)"/>
   <path style="fill:#000000; fill-rule:nonzero;stroke:none;" d="M0.2 3.75 L0 2.0498 L19.45 0 L19.6 1.7002 L0.2 3.75 Z" transform="translate(399.4, 13.4502)"/>
   <path style="fill:#000000; fill-rule:nonzero;stroke:none;" d="M1.55 25.6494 L0.55 25.75 L0 24.9502 L11.1 0 L12.65 0.7002 L1.55 25.6494 Z" transform="translate(372.4, 27.9502)"/>
  </g>
 </g>
</svg>
