<?xml version="1.0" standalone="no" ?>
<!DOCTYPE svg PUBLIC "-//W3C//DTD SVG 1.1//EN" "http://www.w3.org/Graphics/SVG/1.1/DTD/svg11.dtd">
<svg width="86px" height="99px" viewBox="0 0 86 99" style="" xmlns="http://www.w3.org/2000/svg" xmlns:xlink="http://www.w3.org/1999/xlink" version="1.1" >
<text x="0" y="0" stroke="transparent" fill="#000000" transform="matrix(0.05 0 0 0.05 14.3226 85.9546)" style="font:normal normal normal 200px 'Arial'" >
N</text>
<text x="0" y="0" stroke="transparent" fill="#000000" transform="matrix(0.05 0 0 0.05 46.1858 11.2093)" style="font:normal normal normal 200px 'Arial'" >
O</text>
<path stroke="transparent" fill="#000000" transform="matrix(0.05 0 0 0.05 -459 -209)" d="M 9438.52,5764.89 L 9432.52,5775.29 L 9286.25,5690.84 L 9292.25,5680.45 L 9438.52,5764.89 Z " />
<path stroke="transparent" fill="#000000" transform="matrix(0.05 0 0 0.05 -459 -209)" d="M 9544.67,6117.65 L 9532.67,6117.65 L 9532.67,5930.26 L 9544.67,5930.26 L 9544.67,6117.65 Z " />
<path stroke="transparent" fill="#000000" transform="matrix(0.05 0 0 0.05 -459 -209)" d="M 9782.08,5682.18 L 9794.08,5689.11 L 9643,5776.34 L 9637,5765.95 L 9782.08,5682.18 Z " />
<path stroke="transparent" fill="#000000" transform="matrix(0.05 0 0 0.05 -459 -209)" d="M 9782.08,5394.18 L 9794.08,5401.11 L 9794.08,5689.11 L 9782.08,5682.18 L 9782.08,5394.18 Z " />
<path stroke="transparent" fill="#000000" transform="matrix(0.05 0 0 0.05 -459 -209)" d="M 10031.5,5250.18 L 10043.5,5257.11 L 9794.08,5401.11 L 9782.08,5394.18 L 10031.5,5250.18 Z " />
<path stroke="transparent" fill="#000000" transform="matrix(0.05 0 0 0.05 -459 -209)" d="M 10031.5,4969.42 L 10037.5,4965.65 L 10043.5,4969.42 L 10043.5,5257.11 L 10031.5,5250.18 L 10031.5,4969.42 Z " />
<path stroke="transparent" fill="#000000" transform="matrix(0.05 0 0 0.05 -459 -209)" d="M 9979.66,4998.22 L 9991.66,4998.22 L 9991.66,5223.72 L 9979.66,5223.72 L 9979.66,4998.22 Z " />
<path stroke="transparent" fill="#000000" transform="matrix(0.05 0 0 0.05 -459 -209)" d="M 10291.8,4836.54 L 10297,4840.69 L 10295.9,4847.87 L 10043.5,4969.42 L 10037.5,4965.65 L 10037.5,4958.99 L 10291.8,4836.54 Z " />
<path stroke="transparent" fill="#000000" transform="matrix(0.05 0 0 0.05 -459 -209)" d="M 10354.6,4561.39 L 10361.1,4559.91 L 10366.1,4564.62 L 10303.6,4838.65 L 10297,4840.69 L 10291.8,4836.54 L 10354.6,4561.39 Z " />
<path stroke="transparent" fill="#000000" transform="matrix(0.05 0 0 0.05 -459 -209)" d="M 10399.1,4599.29 L 10410.8,4601.96 L 10360,4824.38 L 10348.3,4821.71 L 10399.1,4599.29 Z " />
<path stroke="transparent" fill="#000000" transform="matrix(0.05 0 0 0.05 -459 -209)" d="M 10637.8,4468.27 L 10634.7,4481.77 L 10366.1,4564.62 L 10361.1,4559.91 L 10363.2,4552.97 L 10637.8,4468.27 Z " />
<path stroke="transparent" fill="#000000" transform="matrix(0.05 0 0 0.05 -459 -209)" d="M 10854,4668.87 L 10840.8,4672.95 L 10634.7,4481.77 L 10637.8,4468.27 L 10854,4668.87 Z " />
<path stroke="transparent" fill="#000000" transform="matrix(0.05 0 0 0.05 -459 -209)" d="M 10794.3,4684.16 L 10786.1,4692.95 L 10618.9,4537.78 L 10627,4528.98 L 10794.3,4684.16 Z " />
<path stroke="transparent" fill="#000000" transform="matrix(0.05 0 0 0.05 -459 -209)" d="M 10788.4,4956.4 L 10778.2,4946.98 L 10840.8,4672.95 L 10854,4668.87 L 10788.4,4956.4 Z " />
<path stroke="transparent" fill="#000000" transform="matrix(0.05 0 0 0.05 -459 -209)" d="M 10506.6,5043.33 L 10509.6,5029.82 L 10778.2,4946.98 L 10788.4,4956.4 L 10506.6,5043.33 Z " />
<path stroke="transparent" fill="#000000" transform="matrix(0.05 0 0 0.05 -459 -209)" d="M 10523.2,4983.95 L 10519.6,4972.49 L 10737.7,4905.24 L 10741.2,4916.71 L 10523.2,4983.95 Z " />
<path stroke="transparent" fill="#000000" transform="matrix(0.05 0 0 0.05 -459 -209)" d="M 10509.6,5029.82 L 10506.6,5043.33 L 10295.9,4847.87 L 10297,4840.69 L 10303.6,4838.65 L 10509.6,5029.82 Z " />
<path stroke="transparent" fill="#000000" transform="matrix(0.05 0 0 0.05 -459 -209)" d="M 10241.6,4419.78 L 10251,4412.3 L 10363.2,4552.97 L 10361.1,4559.91 L 10354.6,4561.39 L 10241.6,4419.78 Z " />
<path stroke="transparent" fill="#000000" transform="matrix(0.05 0 0 0.05 -459 -209)" d="M 9896.39,4340.74 L 9890.61,4328.74 L 10080.7,4328.74 L 10080.7,4340.74 L 9896.39,4340.74 Z " />
<path stroke="transparent" fill="#000000" transform="matrix(0.05 0 0 0.05 -459 -209)" d="M 9720.43,4561.39 L 9713.94,4559.91 L 9711.79,4552.97 L 9890.61,4328.74 L 9896.39,4340.74 L 9720.43,4561.39 Z " />
<path stroke="transparent" fill="#000000" transform="matrix(0.05 0 0 0.05 -459 -209)" d="M 9783.23,4836.54 L 9778.02,4840.69 L 9771.4,4838.65 L 9708.86,4564.62 L 9713.94,4559.91 L 9720.43,4561.39 L 9783.23,4836.54 Z " />
<path stroke="transparent" fill="#000000" transform="matrix(0.05 0 0 0.05 -459 -209)" d="M 9726.67,4821.71 L 9714.97,4824.38 L 9664.21,4601.96 L 9675.9,4599.29 L 9726.67,4821.71 Z " />
<path stroke="transparent" fill="#000000" transform="matrix(0.05 0 0 0.05 -459 -209)" d="M 9779.1,4847.87 L 9778.02,4840.69 L 9783.23,4836.54 L 10037.5,4958.99 L 10037.5,4965.65 L 10031.5,4969.42 L 9779.1,4847.87 Z " />
<path stroke="transparent" fill="#000000" transform="matrix(0.05 0 0 0.05 -459 -209)" d="M 9568.44,5043.33 L 9565.36,5029.82 L 9771.4,4838.65 L 9778.02,4840.69 L 9779.1,4847.87 L 9568.44,5043.33 Z " />
<path stroke="transparent" fill="#000000" transform="matrix(0.05 0 0 0.05 -459 -209)" d="M 9286.62,4956.4 L 9296.78,4946.98 L 9565.36,5029.82 L 9568.44,5043.33 L 9286.62,4956.4 Z " />
<path stroke="transparent" fill="#000000" transform="matrix(0.05 0 0 0.05 -459 -209)" d="M 9333.81,4916.71 L 9337.35,4905.24 L 9555.35,4972.49 L 9551.81,4983.95 L 9333.81,4916.71 Z " />
<path stroke="transparent" fill="#000000" transform="matrix(0.05 0 0 0.05 -459 -209)" d="M 9220.99,4668.87 L 9234.23,4672.95 L 9296.78,4946.98 L 9286.62,4956.4 L 9220.99,4668.87 Z " />
<path stroke="transparent" fill="#000000" transform="matrix(0.05 0 0 0.05 -459 -209)" d="M 9437.19,4468.27 L 9440.27,4481.77 L 9234.23,4672.95 L 9220.99,4668.87 L 9437.19,4468.27 Z " />
<path stroke="transparent" fill="#000000" transform="matrix(0.05 0 0 0.05 -459 -209)" d="M 9447.97,4528.98 L 9456.13,4537.78 L 9288.89,4692.95 L 9280.73,4684.16 L 9447.97,4528.98 Z " />
<path stroke="transparent" fill="#000000" transform="matrix(0.05 0 0 0.05 -459 -209)" d="M 9440.27,4481.77 L 9437.19,4468.27 L 9711.79,4552.97 L 9713.94,4559.91 L 9708.86,4564.62 L 9440.27,4481.77 Z " />
</svg>
