<?xml version="1.0" encoding="utf-8"?>
<!-- Generator: Adobe Illustrator 18.0.0, SVG Export Plug-In . SVG Version: 6.00 Build 0)  -->
<!DOCTYPE svg PUBLIC "-//W3C//DTD SVG 1.1//EN" "http://www.w3.org/Graphics/SVG/1.1/DTD/svg11.dtd">
<svg version="1.1" id="Слой_1" xmlns="http://www.w3.org/2000/svg" xmlns:xlink="http://www.w3.org/1999/xlink" x="0px" y="0px"
	 viewBox="0 0 476.2 283.9" enable-background="new 0 0 476.2 283.9" xml:space="preserve" width="476.2" height="283.9">
<g>
	<rect x="359.5" y="188.3" transform="matrix(-0.866 0.5 -0.5 -0.866 808.123 162.5138)" width="45.6" height="2.4"/>
	<rect x="321.8" y="132.5" width="2.4" height="45.6"/>
	<rect x="431" y="80.3" transform="matrix(-0.4995 -0.8663 0.8663 -0.4995 558.7252 529.026)" width="2.4" height="45.6"/>
	<rect x="409.4" y="33.5" transform="matrix(-0.866 -0.5 0.5 -0.866 789.1027 280.8048)" width="45.6" height="2.4"/>
	<rect x="371.7" y="46.1" width="2.4" height="45.6"/>
	<polygon points="208.9,151.7 216.9,151.7 216.6,149.3 209.1,149.3 	"/>
	<polygon points="206.7,170.9 219,170.9 218.7,168.5 207,168.5 	"/>
	<polygon points="205.7,180.5 220.1,180.5 219.8,178.1 205.9,178.1 	"/>
	<polygon points="209.9,142.1 215.8,142.1 215.5,139.7 210.2,139.7 	"/>
	<polygon points="211.3,130.1 211,132.5 214.7,132.5 214.5,130.1 	"/>
	<polygon points="207.8,161.3 217.9,161.3 217.7,158.9 208.1,158.9 	"/>
	<rect x="190.1" y="261.2" width="45.6" height="2.4"/>
	<polygon points="215.2,184.3 213.6,183.1 212.9,182.6 212.2,183.1 181.1,205.7 182.5,207.7 212,186.2 212.9,185.6 258.1,218.4 
		257.7,219.5 240.8,271.5 239.7,271.5 186.1,271.5 185,271.5 174,237.8 171.7,238.5 182.3,271.2 182.9,273.1 183.2,273.9 
		184.1,273.9 186.1,273.9 239.7,273.9 241.7,273.9 242.6,273.9 242.8,273.1 260.6,218.3 260.9,217.5 260.2,217 	"/>
	<rect x="207.3" y="208.2" transform="matrix(0.809 0.5878 -0.5878 0.809 167.0368 -95.2465)" width="45.6" height="2.4"/>
	<polygon points="164.1,99.7 164.1,99.7 210.6,126.5 212.3,127.5 212.9,127.9 213.5,127.5 215.2,126.5 245.6,109 244.4,106.9 
		212.9,125.1 165.3,97.7 165.3,97.7 163.6,96.7 163,96.3 162.4,96.7 160.7,97.7 160.7,97.7 113.1,125.1 80.8,106.4 79.6,108.5 
		110.8,126.5 112.5,127.5 113.1,127.9 113.7,127.5 115.4,126.5 163,99.1 	"/>
	<rect x="28.6" y="98" transform="matrix(-0.4995 -0.8663 0.8663 -0.4995 -56.6186 201.2677)" width="2.4" height="38.1"/>
	<path d="M462.9,39.1l-48.2-27.8l0,0l-1.7-1l-0.6-0.3l-0.6,0.3l-1.7,1l0,0l-46.4,26.8l-1.7,1l-0.6,0.3v0.7v2V97l-48.7,28.1
		l-31.5-18.2L280,109l31.5,18.2v54.9v2l0,0.7l0.6,0.3l48.2,27.8l0,0l1.7,1l0.6,0.3l0.6-0.3l1.7-1l0,0l46.4-26.8l1.7-1l0.6-0.3v-0.7
		v-2v-54.9l49.3-28.5l0.6-0.3v-0.7v-2V42.1v-2l0-0.7L462.9,39.1z M362.5,97.7L362.5,97.7L362.5,97.7L362.5,97.7z M411.2,182.1v1.3
		l-1.1,0.7l-46.4,26.8l0,0l-1.1,0.7l-1.1-0.7l0,0L315,184.1l-1.1-0.7v-1.3v-54.9l48.7-28.1l48.7,28.1V182.1z M461.1,42.1v53.6V97
		l-1.1,0.7l0,0l-47.6,27.5L363.7,97V42.1v-1.3l1.1-0.7l46.4-26.8l1.1-0.7l1.1,0.7L460,40.1l1.1,0.7V42.1z"/>
	<path d="M273,87c-1.1-1.4-2.6-2.5-4.3-3.3c-1.7-0.8-3.7-1.2-6-1.2s-4.3,0.4-6,1.2c-1.7,0.8-3.1,1.9-4.3,3.3c-1.1,1.4-2,3-2.6,4.8
		c-0.6,1.8-0.9,3.7-0.9,5.6c0,1.9,0.3,3.8,0.9,5.6c0.6,1.8,1.4,3.4,2.6,4.8c1.1,1.4,2.6,2.5,4.3,3.3c1.7,0.8,3.7,1.2,6,1.2
		s4.3-0.4,6-1.2c1.7-0.8,3.1-1.9,4.3-3.3c1.1-1.4,2-3,2.6-4.8c0.6-1.8,0.9-3.7,0.9-5.6c0-1.9-0.3-3.8-0.9-5.6
		C275,90,274.2,88.4,273,87z M272.1,101.7c-0.4,1.4-1,2.7-1.8,3.8s-1.8,2-3.1,2.7c-1.3,0.7-2.7,1-4.5,1s-3.2-0.3-4.5-1
		c-1.3-0.7-2.3-1.6-3.1-2.7c-0.8-1.1-1.4-2.4-1.8-3.8c-0.4-1.4-0.6-2.8-0.6-4.3c0-1.4,0.2-2.9,0.6-4.3c0.4-1.4,1-2.7,1.8-3.8
		c0.8-1.1,1.8-2,3.1-2.7c1.3-0.7,2.7-1,4.5-1s3.2,0.3,4.5,1c1.3,0.7,2.3,1.6,3.1,2.7c0.8,1.1,1.4,2.4,1.8,3.8
		c0.4,1.4,0.6,2.8,0.6,4.3C272.6,98.8,272.5,100.3,272.1,101.7z"/>
	<path d="M176.7,228c0.7-1.1,1-2.4,1-3.9c0-1.4-0.3-2.6-0.8-3.5c-0.5-0.9-1.2-1.7-2.1-2.3c-0.9-0.6-1.8-1.1-2.9-1.5
		s-2.2-0.7-3.3-0.9c-1.1-0.3-2.2-0.5-3.3-0.7s-2.1-0.5-2.9-0.9c-0.9-0.3-1.6-0.8-2.1-1.3c-0.5-0.5-0.8-1.3-0.8-2.1
		c0-0.9,0.2-1.7,0.5-2.3c0.4-0.6,0.8-1.1,1.4-1.5c0.6-0.4,1.3-0.6,2.1-0.8c0.8-0.2,1.6-0.2,2.4-0.2c2,0,3.6,0.5,4.9,1.4
		s2,2.4,2.2,4.5h3.6c-0.1-1.6-0.4-2.9-0.9-4.1c-0.5-1.1-1.3-2.1-2.2-2.8c-0.9-0.7-2-1.3-3.3-1.6c-1.3-0.3-2.6-0.5-4.1-0.5
		c-1.3,0-2.6,0.2-3.8,0.5c-1.2,0.3-2.3,0.8-3.3,1.5s-1.8,1.5-2.3,2.6c-0.6,1.1-0.9,2.3-0.9,3.7c0,1.3,0.3,2.4,0.8,3.3
		c0.5,0.9,1.2,1.6,2.1,2.1s1.8,1,2.9,1.3c1.1,0.3,2.2,0.6,3.3,0.9c1.1,0.3,2.2,0.5,3.3,0.7c1.1,0.2,2.1,0.6,2.9,0.9
		c0.9,0.4,1.6,0.9,2.1,1.5c0.5,0.6,0.8,1.4,0.8,2.4c0,1-0.2,1.9-0.6,2.6c-0.4,0.7-1,1.2-1.7,1.6c-0.7,0.4-1.5,0.7-2.3,0.8
		c-0.9,0.2-1.7,0.2-2.6,0.2c-1.1,0-2.1-0.1-3.1-0.4c-1-0.3-1.9-0.7-2.7-1.2c-0.8-0.6-1.4-1.3-1.8-2.1c-0.5-0.9-0.7-1.9-0.7-3.1h-3.6
		c0,1.7,0.3,3.2,0.9,4.5c0.6,1.3,1.5,2.3,2.6,3.1c1.1,0.8,2.3,1.4,3.8,1.8c1.4,0.4,2.9,0.6,4.5,0.6c1.3,0,2.6-0.2,3.9-0.5
		s2.5-0.8,3.6-1.5C175.2,230,176.1,229.1,176.7,228z"/>
	<polygon points="71,105.9 70.9,105.9 55.9,82.8 51.9,82.8 51.9,111.3 55.5,111.3 55.5,88.4 55.5,88.4 70.5,111.3 74.6,111.3 
		74.6,82.8 71,82.8 	"/>
	<polygon points="55.7,65.7 70.8,65.7 70.8,78.8 74.6,78.8 74.6,50.2 70.8,50.2 70.8,62.5 55.7,62.5 55.7,50.2 51.9,50.2 51.9,78.8 
		55.7,78.8 	"/>
</g>
</svg>
