<?xml version="1.0" encoding="utf-8"?>
<!-- Generator: Adobe Illustrator 19.2.1, SVG Export Plug-In . SVG Version: 6.00 Build 0)  -->
<svg version="1.1" id="Слой_1" xmlns="http://www.w3.org/2000/svg" xmlns:xlink="http://www.w3.org/1999/xlink" x="0px" y="0px"
	 viewBox="0 0 543.9 389.1" style="enable-background:new 0 0 543.9 389.1;" xml:space="preserve" width="543.9" height="389.1">
<g>
	<rect x="134.4" y="252" width="2.4" height="45.6"/>
	<rect x="172" y="307.9" transform="matrix(0.8663 -0.4996 0.4996 0.8663 -128.355 138.6595)" width="45.6" height="2.4"/>
	<rect x="193.6" y="217.8" transform="matrix(0.5 -0.866 0.866 0.5 -110.9894 289.0422)" width="2.4" height="45.6"/>
	<rect x="34.5" y="331.8" transform="matrix(0.866 -0.5 0.5 0.866 -159.3411 71.404)" width="38.2" height="2.4"/>
	<rect x="44.8" y="349.8" transform="matrix(0.8663 -0.4996 0.4996 0.8663 -166.7936 78.8774)" width="38.2" height="2.4"/>
	<polygon points="267.7,197.8 266.7,195.6 257.9,200.6 259.4,202.6 	"/>
	<polygon points="271.6,206.6 270.6,204.4 263.7,208.4 265.1,210.4 	"/>
	<polygon points="279.3,224.3 278.3,222.1 275.1,224 276.5,225.9 	"/>
	<polygon points="263.8,188.9 262.8,186.7 252.2,192.9 253.6,194.8 	"/>
	<polygon points="246.5,185.1 247.9,187 259.9,180.1 259,177.9 	"/>
	<polygon points="275.4,215.5 274.5,213.3 269.4,216.2 270.8,218.2 	"/>
	<rect x="255.2" y="85.9" transform="matrix(0.866 -0.5 0.5 0.866 -20.0249 142.7439)" width="2.4" height="45.6"/>
	<rect x="165.1" y="107.5" transform="matrix(0.4996 -0.8663 0.8663 0.4996 -0.1616 217.1982)" width="45.6" height="2.4"/>
	<rect x="199.3" y="166.8" width="45.6" height="2.4"/>
	<path d="M172,39.2l-2.1,1.2l22,38.2l-27.5,47.6l0,0l-1,1.7l-0.3,0.6l0.3,0.6l1,1.7l0,0l27.8,48.2l0.3,0.6h0.7h2h53.6h2l0.7,0
		l0.3-0.6l27.8-48.2l0,0l1-1.7l0.3-0.6l-0.3-0.6l-1-1.7l0,0L252,78l-0.3-0.6h-0.7h-2H194L172,39.2z M193.3,78.6L193.3,78.6
		L193.3,78.6L193.3,78.6z M250.2,79.8l28.1,48.7l-28.1,48.7h-1.3h-53.6H194l-28.1-48.7L194,79.8h54.9H250.2z"/>
	<rect x="493.5" y="207.8" transform="matrix(0.866 -0.5 0.5 0.866 -35.8322 284.3018)" width="38.2" height="2.4"/>
	<rect x="478.1" y="248.3" width="2.4" height="37.6"/>
	<path d="M313.6,260.1c-8,0-13,5.6-13,14.6c0,8.9,5,14.6,13,14.6c8,0,13-5.6,13-14.6C326.6,265.7,321.6,260.1,313.6,260.1z
		 M313.6,285.9c-5.8,0-9.4-4.4-9.4-11.3c0-7,3.6-11.3,9.4-11.3c5.8,0,9.4,4.4,9.4,11.3C323,281.6,319.3,285.9,313.6,285.9z"/>
	<polygon points="33.2,368.8 33,368.8 17.6,346.7 14.2,346.7 14.2,374.9 17.6,374.9 17.6,352.8 17.8,352.8 33.2,374.9 36.7,374.9 
		36.7,346.7 33.2,346.7 	"/>
	<path d="M431.7,199.4l-1.7-1l-0.6-0.3l-0.6,0.3l-1.7,1l0,0l-46.4,26.8l0,0l-1.1,0.7l-1.1-0.7l0,0l-41.6-24l0,0l-13.2-7.6
		l-44.4,32.6l-54.1,17.6l-47.7-27.5l0,0l-1.7-1l-0.6-0.3l-0.6,0.3l-1.7,1l0,0L124.6,245l-0.6,0.3v0.7v2V303l-49.3,28.5l-33.1,19.1
		l1.2,2.1l33.1-19.1l49.3-28.5l47.6,27.5l0,0l1.7,1l0.6,0.3l0.6-0.3l1.7-1l0,0l47.7-27.5l54.3,17.6l0.8,0.3l0.5-0.7l1.2-1.6l0,0
		l21.3-29.3l-1.9-1.4l-22,30.2l-1.1-0.3v0l-52-16.9v-55.9l53.1-17.3l21,28.9l1.9-1.4l-20.6-28.4l52.6-25.2l43,24.8l0,0l1.7,1
		l0.6,0.3l0.6-0.3l1.7-1l0,0l47.6-27.5l1.1,0.7l0,0l31.4,18.1l1.2-2.1L431.7,199.4L431.7,199.4z M126.4,246.8l1.1-0.7l0,0l46.4-26.8
		l0,0l1.1-0.7l1.1,0.7l0,0l47.6,27.5V303l-48.7,28.1L126.4,303v-54.9V246.8z"/>
	<polygon points="487,235.8 486.9,235.8 471.4,213.7 468,213.7 468,241.9 471.5,241.9 471.5,219.8 471.7,219.8 487.1,241.9 
		490.5,241.9 490.5,213.7 487,213.7 	"/>
	<polygon points="159.5,30.1 172,30.1 172,27 159.5,27 159.5,17.3 173.1,17.3 173.1,14.2 156,14.2 156,42.4 159.5,42.4 	"/>
</g>
</svg>
