<?xml version="1.0" encoding="iso-8859-1"?>
<!-- Generator: Adobe Illustrator 19.1.0, SVG Export Plug-In . SVG Version: 6.00 Build 0)  -->
<svg version="1.1" id="&#x421;&#x43B;&#x43E;&#x439;_1"
	 xmlns="http://www.w3.org/2000/svg" xmlns:xlink="http://www.w3.org/1999/xlink" x="0px" y="0px" viewBox="0 0 336.104 421.937"
	 style="enable-background:new 0 0 336.104 421.937;" xml:space="preserve" width="336.104" height="421.937">
<g>
	<rect x="127.01" y="138.234" transform="matrix(-0.866 -0.5 0.5 -0.866 209.9583 334.7265)" width="45.628" height="2"/>
	<rect x="89.552" y="150.641" width="2" height="45.628"/>
	<polygon points="222.103,87.896 224.095,87.718 220.996,53.277 220.996,53.277 220.881,52.008 222.052,51.508 222.052,51.508 
		256.043,36.979 255.258,35.14 221.267,49.668 219.428,50.454 218.76,50.738 218.824,51.463 	"/>
	<rect x="148.824" y="184.862" transform="matrix(-0.4996 -0.8663 0.8663 -0.4996 44.7632 441.2116)" width="2" height="45.628"/>
	<rect x="228.072" y="51.074" transform="matrix(-0.9195 0.393 -0.393 -0.9195 489.9104 3.8388)" width="32.98" height="2"/>
	<rect x="268.162" y="97.508" transform="matrix(-0.5129 0.8584 -0.8584 -0.5129 512.4639 -93.7667)" width="29.345" height="2"/>
	<path d="M263.872,230.318l-0.444-1.95l-36.716,8.38l-1.481,0.338l-1.187-0.947l-43.093-34.366v-56.637l1.187-0.947l0,0
		l27.216-21.704l-1.247-1.563l-27.216,21.704l-1.03,0.822l-47.561-27.459l0,0l-1.732-1l-0.5-0.288l-0.5,0.288l-1.732,1l0,0
		l-48.151,27.8l-0.5,0.287v0.579l0,55.6v1.423l-1.232,0.711l0,0l-26.48,15.288l0.999,1.733l26.479-15.288v0l1.233-0.712
		l49.383,28.512l0.5,0.288l0.5-0.288l48.151-27.8l0,0l1.142-0.659l1.031,0.822l42.979,34.274l-12.232,53.594h0l-0.316,1.387
		l-52.578,16.218v0l-1.911,0.59l-0.552,0.169l-0.129,0.564l-0.445,1.95l-12.372,54.206l-0.128,0.562l0.422,0.393l1.466,1.36
		l39.292,36.457l0,0l1.466,1.36l0.422,0.394l0.553-0.171l53.13-16.388v0l1.911-0.59l0.552-0.169l0.129-0.564l12.372-54.206
		l0.445-1.95l0.128-0.562l-0.422-0.393l-41.801-38.786l0.317-1.387h0l12.232-53.593L263.872,230.318z M178.95,201.678l-1.232,0.711
		v0L130.067,229.9l-48.883-28.223l0-55.023v-1.423l47.65-27.511l0,0l1.233-0.712l1.233,0.712l0,0l47.65,27.511V201.678z
		 M253.286,333.842l-0.317,1.387h0l-11.927,52.256h0l-0.316,1.387l-53.938,16.638l-40.334-37.424l0,0l-1.043-0.968l12.56-55.03
		l53.938-16.638L253.286,333.842z"/>
	<rect x="228.09" y="221.981" transform="matrix(-0.9749 0.2225 -0.2225 -0.9749 533.3314 385.8712)" width="33.675" height="2"/>
	<rect x="286.433" y="49.424" transform="matrix(0.6579 0.7531 -0.7531 0.6579 137.7647 -202.4486)" width="10.602" height="2"/>
	<rect x="203.412" y="320.513" transform="matrix(-0.7331 -0.6802 0.6802 -0.7331 173.3761 711.0717)" width="45.628" height="2"/>
	<rect x="159.825" y="318.873" transform="matrix(-0.975 -0.2222 0.2222 -0.975 241.7153 710.5648)" width="2" height="45.628"/>
	<rect x="209.996" y="365.425" transform="matrix(-0.2946 -0.9556 0.9556 -0.2946 -97.8438 704.2567)" width="2" height="45.628"/>
	<polygon points="217.21,100.314 217.386,100.314 232.815,122.365 236.233,122.365 236.233,94.181 232.757,94.181 232.757,116.31 
		232.581,116.31 217.151,94.181 213.733,94.181 213.733,122.365 217.21,122.365 	"/>
	<path d="M26.867,219.883c4.023,0,7.246,2.422,8.145,6.113h3.555c-0.898-5.625-5.566-9.355-11.699-9.355
		c-7.715,0-12.695,5.703-12.695,14.551c0,8.926,4.922,14.57,12.695,14.57c6.23,0,10.41-3.105,11.699-8.672h-3.555
		c-1.016,3.438-3.984,5.43-8.125,5.43c-5.566,0-9.102-4.414-9.102-11.328C17.785,224.336,21.359,219.883,26.867,219.883z"/>
	<rect x="43.031" y="215.879" width="3.398" height="29.414"/>
	<polygon points="265.012,20.308 265.188,20.308 280.617,42.359 284.035,42.359 284.035,14.175 280.559,14.175 280.559,36.304 
		280.383,36.304 264.953,14.175 261.535,14.175 261.535,42.359 265.012,42.359 	"/>
	<polygon points="306.164,171.219 306.164,171.219 282.908,122.927 282.274,121.61 283.023,120.355 300.119,91.743 298.402,90.717 
		281.306,119.33 280.653,120.423 242.695,111.759 242.251,113.709 280.447,122.427 305.021,173.455 290.027,204.59 291.829,205.459 
		306.164,175.691 307.032,173.89 307.241,173.455 307.032,173.021 	"/>
	<polygon points="318.456,57.552 318.456,79.681 318.28,79.681 302.85,57.552 299.432,57.552 299.432,85.736 302.909,85.736 
		302.909,63.685 303.085,63.685 318.514,85.736 321.932,85.736 321.932,57.552 	"/>
	<polygon points="288.913,232.919 288.737,232.919 273.307,210.79 269.889,210.79 269.889,238.974 273.366,238.974 273.366,216.923 
		273.541,216.923 288.971,238.974 292.389,238.974 292.389,210.79 288.913,210.79 	"/>
</g>
</svg>
