<?xml version="1.0" encoding="iso-8859-1"?>
<!-- Generator: Adobe Illustrator 19.1.0, SVG Export Plug-In . SVG Version: 6.00 Build 0)  -->
<svg version="1.1" id="&#x421;&#x43B;&#x43E;&#x439;_1"
	 xmlns="http://www.w3.org/2000/svg" xmlns:xlink="http://www.w3.org/1999/xlink" x="0px" y="0px" viewBox="0 0 464.003 508.139"
	 style="enable-background:new 0 0 464.003 508.139;" xml:space="preserve" width="464.003" height="508.139">
<g>
	<polygon points="47.766,81.577 16.408,99.681 16.408,99.681 14.676,100.682 14.176,100.969 14.176,101.548 14.176,103.548 
		14.176,157.148 14.176,159.148 14.175,159.725 14.676,160.014 47.766,179.119 48.766,177.386 17.407,159.282 16.175,158.57 
		16.175,157.148 16.175,103.548 16.175,102.125 17.407,101.414 17.407,101.414 48.766,83.309 	"/>
	<rect x="24.544" y="107.534" width="2" height="45.628"/>
	<rect x="74.509" y="160.218" transform="matrix(0.866 -0.5 0.5 0.866 -68.4683 66.9098)" width="32.224" height="2"/>
	<rect x="89.62" y="83.366" transform="matrix(-0.4996 0.8663 -0.8663 -0.4996 222.0666 70.6722)" width="2" height="32.224"/>
	<polygon points="159.12,308.976 161.022,308.357 150.549,276.126 150.11,274.773 174.962,247.172 173.476,245.833 152.629,268.987 
		110.745,260.084 110.327,262.04 151.083,270.703 148.237,273.864 147.85,274.292 148.029,274.843 149.343,278.888 108.589,270.225 
		108.172,272.181 150.057,281.084 	"/>
	<polygon points="129.807,373.712 129.367,372.359 151.99,347.234 150.504,345.895 127.495,371.45 127.108,371.878 127.287,372.428 
		145.086,427.209 145.264,427.758 145.828,427.878 184.66,436.132 185.077,434.176 146.81,426.042 	"/>
	<polygon points="224.072,340.98 223.893,340.432 223.329,340.312 221.373,339.896 221.373,339.896 184.498,332.058 
		184.081,334.014 220.956,341.852 220.956,341.852 222.348,342.148 239.351,394.478 239.791,395.83 217.168,420.956 
		218.654,422.295 240.325,398.226 241.663,396.74 242.05,396.312 241.871,395.761 	"/>
	<rect x="196.042" y="475.121" transform="matrix(-0.309 -0.9511 0.9511 -0.309 -172.06 827.2333)" width="36.876" height="2"/>
	<rect x="295.965" y="168.863" width="45.628" height="2"/>
	<rect x="330.186" y="109.59" transform="matrix(0.5 0.866 -0.866 0.5 272.2742 -250.4119)" width="45.628" height="2"/>
	<rect x="265.78" y="116.581" transform="matrix(-0.5 0.866 -0.866 -0.5 522.6108 -66.5672)" width="29.483" height="2"/>
	<polygon points="57.285,64.32 57.461,64.32 72.891,86.371 76.309,86.371 76.309,58.187 72.832,58.187 72.832,80.316 72.656,80.316 
		57.227,58.187 53.809,58.187 53.809,86.371 57.285,86.371 	"/>
	<polygon points="72.832,195.516 72.656,195.516 57.227,173.387 53.809,173.387 53.809,201.571 57.285,201.571 57.285,179.52 
		57.461,179.52 72.891,201.571 76.309,201.571 76.309,173.387 72.832,173.387 	"/>
	<path d="M112.71,101.414l1.232,0.711v1.423v55.023l-1.232,0.711l-31.358,18.105l0.999,1.732l32.705-18.882l1.478,0.48
		l52.297,16.992l4.678,35.486l14.456-4.697l-17.074-31.458l19.837-27.303l-1.617-1.177l-19.77,27.211l-53.399-17.35v-54.873v-1.273
		l52.188-16.957l1.211-0.393l19.089,26.274l1.617-1.177l-15.449-21.264l13.073-40.234l-1.902-0.619l-12.624,38.853l-2.613-3.597
		l-0.426-0.588l-0.692,0.225l-4.227,1.374l12.624-38.852l-1.902-0.619l-13.073,40.235l-47.779,15.524l-1.347-0.778l0,0
		L82.351,81.577l-0.999,1.732L112.71,101.414L112.71,101.414z M169.722,176.947L169.722,176.947L169.722,176.947L169.722,176.947z"
		/>
	<polygon points="192.329,115.787 192.329,143.971 195.805,143.971 195.805,121.92 195.981,121.92 211.411,143.971 214.829,143.971 
		214.829,115.787 211.352,115.787 211.352,137.916 211.177,137.916 195.747,115.787 	"/>
	<path d="M187.522,43.294c7.988,0,12.988-5.605,12.988-14.551s-5-14.57-12.988-14.57c-7.988,0-12.988,5.625-12.988,14.57
		S179.534,43.294,187.522,43.294z M187.522,17.415c5.762,0,9.375,4.375,9.375,11.328c0,6.934-3.613,11.309-9.375,11.309
		c-5.762,0-9.375-4.375-9.375-11.309C178.147,21.79,181.76,17.415,187.522,17.415z"/>
	<path d="M174.534,231.503c0,8.945,5,14.551,12.988,14.551c7.988,0,12.988-5.605,12.988-14.551c0-8.945-5-14.57-12.988-14.57
		C179.534,216.933,174.534,222.558,174.534,231.503z M196.897,231.503c0,6.933-3.613,11.309-9.375,11.309
		c-5.762,0-9.375-4.375-9.375-11.309c0-6.953,3.613-11.328,9.375-11.328C193.284,220.175,196.897,224.55,196.897,231.503z"/>
	<path d="M92.639,247.763c-7.988,0-12.988,5.625-12.988,14.57c0,8.945,5,14.551,12.988,14.551c7.988,0,12.988-5.606,12.988-14.551
		C105.627,253.388,100.627,247.763,92.639,247.763z M92.639,273.642c-5.762,0-9.375-4.375-9.375-11.309
		c0-6.953,3.613-11.328,9.375-11.328c5.762,0,9.375,4.375,9.375,11.328C102.014,269.267,98.4,273.642,92.639,273.642z"/>
	<polygon points="174.553,336.882 174.377,336.882 158.947,314.753 155.529,314.753 155.529,342.937 159.006,342.937 
		159.006,320.886 159.182,320.886 174.612,342.937 178.029,342.937 178.029,314.753 174.553,314.753 	"/>
	<polygon points="213.628,452.499 213.628,424.315 210.152,424.315 210.152,446.444 209.976,446.444 194.546,424.315 
		191.128,424.315 191.128,452.499 194.605,452.499 194.605,430.448 194.781,430.448 210.21,452.499 	"/>
	<polygon points="376.956,129.348 348.445,79.965 348.158,79.465 347.579,79.465 345.579,79.465 307.629,79.465 307.629,81.465 
		345.579,81.465 347.002,81.465 375.224,130.348 347.002,179.231 345.579,179.231 291.979,179.231 290.556,179.231 262.334,130.348 
		279.78,100.13 278.047,99.131 261.313,128.116 260.602,129.348 259.179,129.348 221.229,129.348 221.229,131.348 259.179,131.348 
		260.602,131.348 289.113,180.73 289.4,181.231 289.979,181.231 291.979,181.231 345.579,181.231 347.579,181.231 348.156,181.232 
		348.445,180.73 376.956,131.348 378.379,131.348 413.652,131.348 413.652,129.348 378.379,129.348 	"/>
	<polygon points="282.205,72.037 282.381,72.037 297.811,94.088 301.229,94.088 301.229,65.904 297.752,65.904 297.752,88.033 
		297.577,88.033 282.147,65.904 278.729,65.904 278.729,94.088 282.205,94.088 	"/>
	<path d="M430.825,119.176c4.023,0,7.246,2.422,8.145,6.113h3.555c-0.898-5.625-5.566-9.355-11.699-9.355
		c-7.715,0-12.695,5.703-12.695,14.551c0,8.926,4.922,14.57,12.695,14.57c6.23,0,10.41-3.105,11.699-8.672h-3.555
		c-1.016,3.437-3.984,5.43-8.125,5.43c-5.566,0-9.102-4.414-9.102-11.328C421.743,123.629,425.317,119.176,430.825,119.176z"/>
	<rect x="446.43" y="115.172" width="3.398" height="29.414"/>
</g>
</svg>
