<?xml version="1.0" encoding="utf-8"?>
<!-- Generator: Adobe Illustrator 27.0.0, SVG Export Plug-In . SVG Version: 6.00 Build 0)  -->
<svg version="1.1" id="Слой_1" xmlns="http://www.w3.org/2000/svg" xmlns:xlink="http://www.w3.org/1999/xlink" x="0px" y="0px"
	 viewBox="0 0 661.08 292.85" style="enable-background:new 0 0 661.08 292.85;" xml:space="preserve" width="661.08" height="292.85">
<style type="text/css">
	.st0{fill:none;}
</style>
<path class="st0" d="z"/>
<g>
	<polygon points="154.46,144.14 139.42,121.66 135.54,121.66 135.54,150.29 139.17,150.29 139.17,127.79 154.21,150.29 
		158.09,150.29 158.09,121.66 154.46,121.66 	"/>
	<polygon points="21.96,107.99 36.84,107.99 36.84,121.49 40.63,121.49 40.63,92.85 36.84,92.85 36.84,104.61 21.96,104.61 
		21.96,92.85 18.17,92.85 18.17,121.49 21.96,121.49 	"/>
	<polygon points="50.53,98.99 65.57,121.49 69.46,121.49 69.46,92.85 65.83,92.85 65.83,115.33 50.79,92.85 46.9,92.85 46.9,121.49 
		50.53,121.49 	"/>
	<path d="M131.44,155.12l-18.82,25.91L59.5,163.77v-36.02h-2.4v36.35l-42.92,38.65l12.26,57.7l56.1,18.23l43.84-39.47l-12.01-56.5
		l19.02-26.18L131.44,155.12z M123.74,238.36l-41.78,37.61L28.5,258.6l-11.69-54.99L58.59,166l53.46,17.37L123.74,238.36z"/>
	<path d="M123.72,47.44c2.12,1.3,4.53,1.95,7.23,1.95c2.49,0,4.8-0.59,6.95-1.77s3.81-2.91,4.98-5.21s1.76-4.89,1.76-7.79
		c0-2.87-0.56-5.43-1.67-7.69s-2.73-4.02-4.85-5.28s-4.51-1.89-7.15-1.89c-4.04,0-7.33,1.34-9.88,4.03s-3.83,6.41-3.83,11.16
		c0,2.51,0.55,4.9,1.64,7.15S121.59,46.14,123.72,47.44z M124.06,25.79c1.93-1.84,4.24-2.76,6.92-2.76c1.89,0,3.59,0.48,5.11,1.44
		s2.67,2.3,3.46,4.04s1.18,3.77,1.18,6.1c0,3.69-0.92,6.53-2.76,8.54s-4.19,3.01-7.04,3.01c-2.8,0-5.13-0.99-6.98-2.98
		s-2.78-4.7-2.78-8.15C121.16,30.71,122.13,27.63,124.06,25.79z"/>
	<polygon points="130.35,56.75 128.07,56.01 116.43,91.82 113.54,87.83 108.85,89.35 120.49,53.54 118.21,52.8 106.03,90.27 
		77.4,99.57 78.14,101.86 112.62,90.65 131.45,116.58 133.4,115.17 118.17,94.22 	"/>
	<rect x="21.02" y="190.42" transform="matrix(0.7432 -0.6691 0.6691 0.7432 -116.9577 78.5457)" width="45.63" height="2.4"/>
	<rect x="56.86" y="235.75" transform="matrix(0.309 -0.9511 0.9511 0.309 -205.7901 233.881)" width="2.4" height="45.63"/>
	<rect x="107.72" y="189.95" transform="matrix(0.9782 -0.2079 0.2079 0.9782 -41.854 27.2939)" width="2.4" height="45.63"/>
	<polygon points="205.23,134.64 164.49,134.64 164.49,137.04 203.84,137.04 232.64,186.93 273.09,186.93 273.09,184.53 
		234.03,184.53 	"/>
	<polygon points="302.09,171.54 298.46,171.54 298.46,194.02 283.42,171.54 279.54,171.54 279.54,200.17 283.17,200.17 
		283.17,177.67 298.21,200.17 302.09,200.17 	"/>
	<polygon points="413.66,194.02 398.62,171.54 394.74,171.54 394.74,200.17 398.37,200.17 398.37,177.67 413.41,200.17 
		417.29,200.17 417.29,171.54 413.66,171.54 	"/>
	<polygon points="376.64,234.41 320.43,234.41 304.16,206.23 302.08,207.43 319.04,236.81 378.03,236.81 394.92,207.56 
		392.84,206.36 	"/>
	<polygon points="320.43,137.04 376.64,137.04 392.85,165.11 394.93,163.91 378.03,134.64 319.04,134.64 302.07,164.04 
		304.15,165.24 	"/>
	<rect x="498.52" y="224.04" width="45.63" height="2.4"/>
	<rect x="554.36" y="143.15" transform="matrix(0.866 -0.5 0.5 0.866 -8.5554 300.006)" width="2.4" height="45.63"/>
	<rect x="464.3" y="164.77" transform="matrix(0.5 -0.866 0.866 0.5 99.8261 504.8388)" width="45.63" height="2.4"/>
	<polygon points="646.91,75.15 646.91,71.77 627.59,71.77 627.59,100.41 631.38,100.41 631.38,87.4 644.82,87.4 644.82,84.02 
		631.38,84.02 631.38,75.15 	"/>
	<polygon points="573.79,29.8 587.22,29.8 587.22,26.42 573.79,26.42 573.79,17.55 589.31,17.55 589.31,14.17 570,14.17 570,42.81 
		573.79,42.81 	"/>
	<polygon points="523.91,58.6 537.34,58.6 537.34,55.22 523.91,55.22 523.91,46.35 539.43,46.35 539.43,42.97 520.12,42.97 
		520.12,71.6 523.91,71.6 	"/>
	<path d="M580.13,49.07h-2.4v34.81L541.9,63.19l-1.2,2.08l36.6,21.13l-27.85,48.24h-57.6l-28.8,49.88h-39.35v2.4h39.35l28.8,49.88
		h58.99l29.49-51.08l-28.8-49.88l28.11-48.68h41.49v-2.4h-40.98V49.07z M577.55,185.73l-28.11,48.68h-56.21l-28.11-48.68
		l28.11-48.68h56.21L577.55,185.73z"/>
</g>
<path class="st0" d="z"/>
</svg>
