<?xml version="1.0" encoding="iso-8859-1"?>
<!-- Generator: Adobe Illustrator 19.1.0, SVG Export Plug-In . SVG Version: 6.00 Build 0)  -->
<svg version="1.1" id="&#x421;&#x43B;&#x43E;&#x439;_1"
	 xmlns="http://www.w3.org/2000/svg" xmlns:xlink="http://www.w3.org/1999/xlink" x="0px" y="0px" viewBox="0 0 490.961 329.556"
	 style="enable-background:new 0 0 490.961 329.556;" xml:space="preserve" width="490.961" height="329.556">
<g>
	<rect x="141.257" y="191.598" transform="matrix(-0.4996 -0.8663 0.8663 -0.4996 27.5933 444.7632)" width="2" height="45.628"/>
	<rect x="81.985" y="157.377" width="2" height="45.628"/>
	<rect x="119.443" y="144.97" transform="matrix(-0.866 -0.5 0.5 -0.866 192.4714 343.5117)" width="45.628" height="2"/>
	<path d="M217.663,243.822l-1.187-0.947l0,0l-41.906-33.419l0,0l-1.187-0.947v-56.637l1.187-0.947l0,0l27.216-21.704l-1.247-1.563
		l-27.216,21.704l0,0l-1.03,0.822l-1.142-0.659l-48.151-27.8l-0.5-0.288l-0.5,0.288l-48.151,27.8l0,0l-1.732,1l-0.5,0.287v0.579v2
		v53.6v1.423l-35.876,20.713l0.999,1.733l35.877-20.714L122,238.657l0.5,0.288l0.5-0.288l49.293-28.459l1.03,0.822l0,0l38.48,30.687
		l-8.736,38.274l1.95,0.444l8.521-37.334l3.254,2.595l0.375,0.3l0.47-0.107l4.058-0.926l-8.521,37.335l1.95,0.444l8.735-38.273
		l32.444-7.405l-0.444-1.95L217.663,243.822z M171.383,208.413L122.5,236.636l-47.651-27.511l-1.232-0.711v-1.423v-53.6v-1.423
		l1.232-0.711l46.419-26.8v0l1.232-0.712l47.652,27.512l0,0l1.232,0.711V208.413z"/>
	<rect x="282.068" y="262.917" transform="matrix(-0.6235 -0.7818 0.7818 -0.6235 279.0144 662.1992)" width="33.776" height="2"/>
	<rect x="220.505" y="57.81" transform="matrix(-0.9195 0.393 -0.393 -0.9195 478.0322 19.7408)" width="32.98" height="2"/>
	<rect x="256.629" y="97.254" transform="matrix(-0.5129 0.8584 -0.8584 -0.5129 507.1151 -91.2402)" width="45.628" height="2"/>
	<polygon points="447.982,128.231 447.694,127.731 447.115,127.731 445.115,127.731 406.952,127.731 406.952,129.731 
		446.538,129.731 475.049,179.113 476.782,178.114 	"/>
	<polygon points="14.179,251.414 17.695,251.414 17.695,239.207 30.175,239.207 30.175,236.082 17.695,236.082 17.695,226.394 
		31.288,226.394 31.288,223.23 14.179,223.23 	"/>
	<polygon points="209.643,107.05 209.819,107.05 225.248,129.101 228.666,129.101 228.666,100.917 225.19,100.917 225.19,123.046 
		225.014,123.046 209.584,100.917 206.166,100.917 206.166,129.101 209.643,129.101 	"/>
	<polygon points="281.346,239.655 281.17,239.655 265.74,217.526 262.322,217.526 262.322,245.71 265.799,245.71 265.799,223.659 
		265.975,223.659 281.404,245.71 284.822,245.71 284.822,217.526 281.346,217.526 	"/>
	<path d="M204.599,286.265c-7.988,0-12.988,5.625-12.988,14.57c0,8.945,5,14.551,12.988,14.551s12.988-5.606,12.988-14.551
		C217.588,291.89,212.588,286.265,204.599,286.265z M204.599,312.144c-5.762,0-9.375-4.375-9.375-11.309
		c0-6.953,3.613-11.328,9.375-11.328s9.375,4.375,9.375,11.328C213.974,307.769,210.361,312.144,204.599,312.144z"/>
	<polygon points="211.436,60.19 211.436,60.19 214.536,94.632 216.528,94.454 213.428,60.013 213.428,60.013 213.314,58.744 
		248.475,43.715 247.69,41.875 213.7,56.404 213.7,56.404 211.861,57.19 211.192,57.474 211.257,58.198 	"/>
	<polygon points="257.445,27.044 257.62,27.044 273.05,49.094 276.468,49.094 276.468,20.911 272.991,20.911 272.991,43.04 
		272.816,43.04 257.386,20.911 253.968,20.911 253.968,49.094 257.445,49.094 	"/>
	<polygon points="379.044,108.595 364.863,84.032 385.373,48.508 383.64,47.509 363.708,82.032 362.581,80.081 362.581,80.081 
		361.581,78.349 361.294,77.848 360.715,77.848 358.715,77.848 356.461,77.848 376.394,43.324 374.661,42.325 354.152,77.848 
		303.569,77.848 281.432,52.51 279.926,53.825 301.884,78.959 301.231,80.052 301.231,80.052 273.087,127.158 235.128,118.494 
		234.684,120.445 272.88,129.163 273.539,130.531 296.796,178.823 297.454,180.191 282.461,211.325 284.262,212.194 
		299.465,180.625 299.674,180.191 299.465,179.756 275.341,129.662 275.341,129.662 274.707,128.346 303.683,79.848 305.115,79.848 
		360.138,79.848 377.312,109.594 	"/>
	<path d="M389.515,113.936c-7.988,0-12.988,5.625-12.988,14.57s5,14.551,12.988,14.551s12.988-5.605,12.988-14.551
		S397.504,113.936,389.515,113.936z M389.515,139.815c-5.762,0-9.375-4.375-9.375-11.309c0-6.953,3.613-11.328,9.375-11.328
		s9.375,4.375,9.375,11.328C398.89,135.44,395.277,139.815,389.515,139.815z"/>
	<path d="M389.515,43.291c7.988,0,12.988-5.605,12.988-14.551s-5-14.57-12.988-14.57c-7.988,0-12.988,5.625-12.988,14.57
		S381.527,43.291,389.515,43.291z M389.515,17.412c5.762,0,9.375,4.375,9.375,11.328c0,6.934-3.613,11.309-9.375,11.309
		c-5.762,0-9.375-4.375-9.375-11.309C380.14,21.787,383.753,17.412,389.515,17.412z"/>
</g>
</svg>
