<?xml version="1.0" encoding="iso-8859-1"?>
<!-- Generator: Adobe Illustrator 19.1.0, SVG Export Plug-In . SVG Version: 6.00 Build 0)  -->
<svg version="1.1" id="&#x421;&#x43B;&#x43E;&#x439;_1"
	 xmlns="http://www.w3.org/2000/svg" xmlns:xlink="http://www.w3.org/1999/xlink" x="0px" y="0px" viewBox="0 0 418.422 383.754"
	 style="enable-background:new 0 0 418.422 383.754;" xml:space="preserve" width="418.422" height="383.754">
<g>
	<rect x="163.766" y="112.455" width="2" height="45.628"/>
	<rect x="223.039" y="146.676" transform="matrix(-0.4995 -0.8663 0.8663 -0.4995 189.1295 448.2408)" width="2" height="45.628"/>
	<rect x="201.225" y="100.048" transform="matrix(-0.866 -0.5 0.5 -0.866 367.5385 300.5781)" width="45.628" height="2"/>
	<rect x="302.305" y="183.796" transform="matrix(-0.9749 0.2225 -0.2225 -0.9749 671.4034 293.9428)" width="33.675" height="2"/>
	<rect x="234.039" y="280.687" transform="matrix(-0.975 -0.2221 0.2221 -0.975 396.8153 651.6174)" width="2" height="45.628"/>
	<rect x="284.211" y="327.24" transform="matrix(-0.2947 -0.9556 0.9556 -0.2947 34.7496 725.7554)" width="2" height="45.628"/>
	<rect x="277.627" y="282.327" transform="matrix(-0.7331 -0.6802 0.6802 -0.7331 327.9679 695.3727)" width="45.628" height="2"/>
	<path d="M330.221,293.771L330.221,293.771l-1.36,0.419l-40.334-37.424l0,0l-1.043-0.968l0.317-1.387l12.232-53.593l38.053-8.685
		l-0.444-1.95l-36.716,8.38l-1.481,0.338l-44.281-35.312v-1.518v-55.118L283.568,84.3l-1.247-1.563l-28.247,22.526l-1.142-0.659
		l-48.151-27.8l-0.5-0.288l-0.5,0.288l-48.151,27.8v0l-1.732,1l-0.501,0.288v0.579v2v53.6v1.423l-32.59,18.816l0.999,1.733
		l32.591-18.816l47.651,27.512l0,0l1.732,1l0.5,0.288l0.5-0.288l1.732-1l0,0l46.419-26.8l1.142-0.659l44.009,35.096l-0.305,1.338
		l-12.244,53.643l-54.489,16.808l-0.552,0.169l-0.129,0.564l-12.817,56.156l-0.128,0.562l0.422,0.393l40.758,37.818l0,0l1.466,1.36
		l0.422,0.393l0.553-0.171l1.911-0.589l53.13-16.388l0.552-0.169l0.129-0.564l0.445-1.95h0l12.244-53.643l1.359-0.419l38.46-11.863
		l-0.589-1.911L330.221,293.771z M253.165,162.069v1.423l-47.651,27.511l0,0l-1.232,0.712l-1.232-0.712l0,0l-47.65-27.511v-1.423
		v-53.6v-1.423l1.232-0.711l47.651-27.512l1.232,0.712l47.651,27.511V162.069z M315.258,349.3L315.258,349.3l-0.317,1.387
		l-52.578,16.218l0,0l-1.359,0.419L220.669,329.9l-1.043-0.968l12.56-55.03l1.359-0.419v0l52.578-16.218l1.042,0.967l0,0
		l39.292,36.457l1.043,0.968L315.258,349.3z"/>
	<rect x="272.283" y="31.078" transform="matrix(0.2225 0.9749 -0.9749 0.2225 257.0661 -258.1941)" width="36.265" height="2"/>
	<rect x="68.634" y="177.059" transform="matrix(-0.866 -0.5 0.5 -0.866 58.1311 371.6947)" width="20.46" height="2"/>
	<rect x="98.331" y="212.892" width="2" height="16.382"/>
	<rect x="108.699" y="212.892" width="2" height="16.382"/>
	<polygon points="363.127,194.734 362.952,194.734 347.522,172.605 344.104,172.605 344.104,200.788 347.581,200.788 
		347.581,178.738 347.756,178.738 363.186,200.788 366.604,200.788 366.604,172.605 363.127,172.605 	"/>
	<polygon points="353.182,83.904 354.662,84.241 355.321,85.61 379.236,135.269 364.242,166.404 366.044,167.273 381.246,135.704 
		381.456,135.269 381.246,134.835 359.024,88.69 383.909,57.485 382.345,56.238 358.061,86.69 356.255,82.939 356.046,82.506 
		355.576,82.399 353.626,81.953 353.626,81.953 351.518,81.472 375.803,51.021 374.239,49.774 349.354,80.978 316.91,73.573 
		316.466,75.523 353.182,83.903 	"/>
	<polygon points="287.948,55.996 287.948,84.179 291.425,84.179 291.425,62.129 291.6,62.129 307.03,84.179 310.448,84.179 
		310.448,55.996 306.972,55.996 306.972,78.125 306.796,78.125 291.366,55.996 	"/>
	<polygon points="375.091,291.961 378.607,291.961 378.607,279.754 391.087,279.754 391.087,276.629 378.607,276.629 
		378.607,266.942 392.2,266.942 392.2,263.778 375.091,263.778 	"/>
	<polygon points="115.765,206.492 115.765,178.309 112.289,178.309 112.289,200.438 112.113,200.438 96.683,178.309 93.265,178.309 
		93.265,206.492 96.742,206.492 96.742,184.442 96.918,184.442 112.347,206.492 	"/>
	<polygon points="103.186,169.622 105.844,169.622 105.844,162.108 112.85,162.108 112.85,159.45 105.844,159.45 105.844,152.117 
		103.186,152.117 103.186,159.45 96.181,159.45 96.181,162.108 103.186,162.108 	"/>
	<path d="M104.515,173.622c7.043,0,12.753-5.71,12.753-12.753s-5.709-12.753-12.753-12.753c-7.043,0-12.753,5.709-12.753,12.753
		S97.472,173.622,104.515,173.622z M104.515,150.117c5.938,0,10.753,4.814,10.753,10.753s-4.814,10.753-10.753,10.753
		s-10.753-4.814-10.753-10.753S98.577,150.117,104.515,150.117z"/>
	<path d="M391.267,23.545c-7.988,0-12.988,5.625-12.988,14.57c0,8.945,5,14.551,12.988,14.551s12.988-5.605,12.988-14.551
		C404.255,29.17,399.255,23.545,391.267,23.545z M391.267,49.424c-5.762,0-9.375-4.375-9.375-11.309
		c0-6.953,3.613-11.328,9.375-11.328s9.375,4.375,9.375,11.328C400.642,45.049,397.029,49.424,391.267,49.424z"/>
	<path d="M54.632,149.275c-7.988,0-12.988,5.625-12.988,14.57c0,8.945,5,14.551,12.988,14.551c7.988,0,12.988-5.605,12.988-14.551
		C67.621,154.9,62.621,149.275,54.632,149.275z M54.632,175.153c-5.762,0-9.375-4.375-9.375-11.309
		c0-6.953,3.613-11.328,9.375-11.328c5.762,0,9.375,4.375,9.375,11.328C64.007,170.778,60.394,175.153,54.632,175.153z"/>
	<rect x="18.52" y="146.74" width="16.8" height="2.658"/>
	<path d="M26.92,135.317c-7.043,0-12.753,5.709-12.753,12.753c0,7.043,5.709,12.753,12.753,12.753
		c7.043,0,12.753-5.709,12.753-12.753C39.672,141.026,33.963,135.317,26.92,135.317z M26.92,158.822
		c-5.938,0-10.753-4.814-10.753-10.753s4.814-10.753,10.753-10.753c5.938,0,10.753,4.814,10.753,10.753
		S32.858,158.822,26.92,158.822z"/>
	<path d="M104.515,235.674c-7.988,0-12.988,5.625-12.988,14.57s5,14.551,12.988,14.551c7.988,0,12.988-5.605,12.988-14.551
		S112.504,235.674,104.515,235.674z M104.515,261.553c-5.762,0-9.375-4.375-9.375-11.309c0-6.953,3.613-11.328,9.375-11.328
		c5.762,0,9.375,4.375,9.375,11.328C113.89,257.178,110.277,261.553,104.515,261.553z"/>
</g>
</svg>
