<?xml version="1.0" encoding="utf-8"?>
<!-- Generator: Adobe Illustrator 19.2.1, SVG Export Plug-In . SVG Version: 6.00 Build 0)  -->
<svg version="1.1" id="Слой_1" xmlns="http://www.w3.org/2000/svg" xmlns:xlink="http://www.w3.org/1999/xlink" x="0px" y="0px"
	 viewBox="0 0 536.3 278.1" style="enable-background:new 0 0 536.3 278.1;" xml:space="preserve" width="536.3" height="278.1">
<g>
	<rect x="173.6" y="182.1" width="2.4" height="45.6"/>
	<rect x="211.3" y="237.9" transform="matrix(0.8662 -0.4996 0.4996 0.8662 -88.1716 148.9331)" width="45.6" height="2.4"/>
	<path d="M215.5,146.6V90.4l31-17.9l-1.2-2.1l-31,17.9L165,59.9l-0.6-0.3l-0.6,0.3l-48.2,27.8l0,0l-1.1,0.7l-1.1-0.7l0,0L82.1,69.6
		l-1.2,2.1l33.1,19.1l0.6,0.3l0.6-0.3l49.3-28.5l48.7,28.1v56.2l-49.3,28.5l-0.6,0.3v0.7v2v53.6v2l0,0.7l0.6,0.3l1.7,1v0l48.2,27.8
		l0.6,0.3l0.6-0.3l48.2-27.8l0,0l1.7-1l0.6-0.3v-0.7v-2v-53.6v-2l0-0.7l-0.6-0.3L215.5,146.6z M214.3,147.3L214.3,147.3L214.3,147.3
		L214.3,147.3z M263,231.7v1.3l-1.1,0.7l0,0l-47.6,27.5l-47.6-27.5l0,0l-1.1-0.7v-1.3v-53.6v-1.3l48.7-28.1l48.7,28.1v1.3V231.7z"/>
	<rect x="232.9" y="147.9" transform="matrix(0.5 -0.866 0.866 0.5 -30.7944 288.0579)" width="2.4" height="45.6"/>
	<rect x="323.2" y="95.7" width="2.4" height="45.6"/>
	<rect x="360.9" y="151.5" transform="matrix(0.8663 -0.4996 0.4996 0.8663 -24.9914 212.1164)" width="45.6" height="2.4"/>
	<rect x="382.5" y="61.5" transform="matrix(0.5 -0.866 0.866 0.5 118.856 374.4592)" width="2.4" height="45.6"/>
	<path d="M482.5,146l-2.1-1.2l-17.1,29.7L415,146.6V91.7v-2l0-0.7l-0.6-0.3l-49.9-28.8l-0.6-0.3l-0.6,0.3l-49.3,28.5l-33.9-19.6
		l-1.2,2.1l33.9,19.6v54.9v2l0,0.7l0.6,0.3l49.9,28.8l0.6,0.3l0.6-0.3l49.3-28.5l48.2,27.9l-16.6,28.7l2.1,1.2l16.6-28.7l34.7,20.1
		l1.2-2.1l-34.7-20.1L482.5,146z M315.3,90.4L362.8,63l0,0l1.1-0.7l1.1,0.7l0,0l46.4,26.8l0,0l1.1,0.7v1.3v54.9l-47.6,27.5l0,0
		l-1.1,0.7l-1.1-0.7l0,0l-46.4-26.8l0,0l-1.1-0.7v-1.3V90.4z"/>
	<rect x="12.2" y="79" transform="matrix(0.8663 -0.4996 0.4996 0.8663 -35.8594 26.3684)" width="38.2" height="2.4"/>
	<path d="M264.2,46.1c-8,0-13,5.6-13,14.6s5,14.6,13,14.6s13-5.6,13-14.6S272.2,46.1,264.2,46.1z M264.2,72c-5.8,0-9.4-4.4-9.4-11.3
		c0-7,3.6-11.3,9.4-11.3s9.4,4.4,9.4,11.3C273.6,67.6,270,72,264.2,72z"/>
	<polygon points="72.4,68.5 72.3,68.5 56.8,46.4 53.4,46.4 53.4,74.5 56.9,74.5 56.9,52.5 57.1,52.5 72.5,74.5 75.9,74.5 75.9,46.4 
		72.4,46.4 	"/>
	<polygon points="72.4,26.4 56.9,26.4 56.9,14.2 53.4,14.2 53.4,42.4 56.9,42.4 56.9,29.5 72.4,29.5 72.4,42.4 75.9,42.4 75.9,14.2 
		72.4,14.2 	"/>
	<polygon points="484,139.9 487.5,139.9 487.5,127.7 500,127.7 500,124.5 487.5,124.5 487.5,114.8 501.1,114.8 501.1,111.7 
		484,111.7 	"/>
	<polygon points="426.4,239.6 429.9,239.6 429.9,227.4 442.4,227.4 442.4,224.3 429.9,224.3 429.9,214.6 443.5,214.6 443.5,211.4 
		426.4,211.4 	"/>
	<polygon points="522.2,193.5 522.2,190.4 505.1,190.4 505.1,218.5 508.6,218.5 508.6,206.3 521.1,206.3 521.1,203.2 508.6,203.2 
		508.6,193.5 	"/>
</g>
</svg>
