<?xml version="1.0" encoding="UTF-8"?>
<svg id="_Слой_1" xmlns="http://www.w3.org/2000/svg" version="1.1" viewBox="0 0 675.4 850.4" width="675.4" height="850.4">
  <!-- Generator: Adobe Illustrator 29.3.1, SVG Export Plug-In . SVG Version: 2.1.0 Build 151)  -->
  <defs>
    <style>
      .st0 {
        fill: gray;
      }
    </style>
  </defs>
  <rect x="132.2" y="64" width="2.4" height="45.6"/>
  <rect x="169.8" y="119.8" width="45.6" height="2.4" transform="translate(-34.7 112.5) rotate(-30)"/>
  <rect x="191.4" y="29.8" width="2.4" height="45.6" transform="translate(50.7 193.1) rotate(-60)"/>
  <rect x="351.5" y="98.2" width="2.4" height="45.6" transform="translate(71.5 365.9) rotate(-60)"/>
  <rect x="410.7" y="64" width="2.4" height="45.6"/>
  <rect x="329.9" y="51.4" width="45.6" height="2.4" transform="translate(20.9 183.3) rotate(-30)"/>
  <path d="M89.1,174.5l2.1-1.2-16.4-28.5,48.2-27.9,49.1,28.4.7.4.8-.5,49.1-28.3,48.7,28.1v57.6l2.3,1.3h0s47.6,27.5,47.6,27.5v57.6l2.3,1.3h0s31.6,18.3,31.6,18.3l1.2-2.1-32.8-18.9v-57.6l-2.3-1.3h0s-47.6-27.5-47.6-27.5v-56.2l48.7-28.1,49.1,28.4.7.4.8-.5,47.9-27.7h0s2.3-1.3,2.3-1.3v-59l-2.3-1.3h0s-47.9-27.7-47.9-27.7l-.8-.5-.7.4-49.1,28.4-32.6-18.8-1.2,2.1,32.6,18.8v56.2l-48.7,28.1-48.7-28.1v-56.2l33.3-19.3-1.2-2.1-33.3,19.3-49.1-28.3-.8-.5-.7.4-48,27.7h0s-1.6.9-1.6.9h0c0,0,0,0,0,0l-.6.3v57.6l-48.7,28.1-38.4-22.2-1.2,2.1,38,21.9-16.5,28.5,2.1,1.2,16-27.7,16,27.7ZM421.1,113.6v1.3l-47.6,27.5h0s-1.1.6-1.1.6l-1.1-.6h0s-47.6-27.5-47.6-27.5v-56.2l47.6-27.5h0s1.1-.6,1.1-.6l1.1.6h0s47.6,27.5,47.6,27.5v54.9ZM124.2,58.7l47.6-27.5h0s1.1-.6,1.1-.6l1.1.6h0s47.6,27.5,47.6,27.5v56.2l-47.6,27.5h0s-1.1.6-1.1.6l-1.1-.6h0s-47.6-27.5-47.6-27.5v-56.2Z"/>
  <rect x="281.9" y="150.4" width="2.4" height="45.6"/>
  <polygon points="455.1 383.3 422.3 402.2 421.2 401.6 421.2 401.6 373.6 374.1 373.6 372.8 373.6 337.5 371.2 337.5 371.2 372.8 371.2 374.8 371.2 375.5 373.5 376.8 373.5 376.8 421.6 404.6 422.3 405 424.6 403.7 424.6 403.6 456.3 385.4 455.1 383.3"/>
  <polygon points="422.3 287 421.5 287.5 388.3 306.7 389.5 308.7 421.2 290.4 421.2 290.4 422.3 289.8 471 317.9 471 319.2 471 353.6 473.4 353.6 473.4 319.2 473.4 317.2 473.4 316.5 471.1 315.2 471.1 315.2 424.6 288.4 424.6 288.4 422.3 287"/>
  <polygon points="111 182.9 111 179.5 92.9 179.5 92.9 208.1 96.7 208.1 96.7 195.2 109.5 195.2 109.5 191.8 96.7 191.8 96.7 182.9 111 182.9"/>
  <path d="M276.7,39.9c-1.6.6-3.4.6-3.4.6-3.6,0-5.6-1.8-5.6-1.8-2-1.8-2.4-5.3-2.4-5.3l-3.7.9c.7,4.6,3.7,7,3.7,7,3.1,2.4,8.2,2.4,8.2,2.4,3,0,5.3-1.1,5.3-1.1,2.4-1.1,3.7-3.1,3.7-3.1,1.3-2,1.3-4.4,1.3-4.4,0-2.4-1-4-1-4-1-1.6-3.3-2.7-3.3-2.7-2.2-1.1-6.1-2-6.1-2-2.8-.6-4.3-1.1-4.3-1.1-1.5-.6-2.2-1.4-2.2-1.4-.7-.8-.7-2.2-.7-2.2,0-1.4.8-2.4.8-2.4.8-1,2.2-1.5,2.2-1.5,1.4-.6,3.3-.6,3.3-.6,2.8,0,4.5,1.4,4.5,1.4,1.6,1.3,2.3,4.4,2.3,4.4h0l3.6-.8c-.3-2.6-1.7-4.4-1.7-4.4-1.4-1.8-3.6-2.8-3.6-2.8-2.2-1-5.2-1-5.2-1-2.8,0-5,1-5,1-2.3,1-3.6,2.8-3.6,2.8-1.3,1.7-1.3,3.9-1.3,3.9,0,2,.7,3.4.7,3.4.6,1.4,2.3,2.6,2.3,2.6,1.7,1.1,4.6,1.9,4.6,1.9.7.2,2.3.6,2.3.6,2.8.6,4.2,1.1,4.2,1.1,1.7.6,2.6,1.6,2.6,1.6.9,1,.9,2.8.9,2.8,0,1.3-.9,2.4-.9,2.4-.9,1.1-2.5,1.7-2.5,1.7Z"/>
  <polygon points="14.2 129.5 18 129.5 18 116.5 30.8 116.5 30.8 113.1 18 113.1 18 104.2 32.3 104.2 32.3 100.8 14.2 100.8 14.2 129.5"/>
  <polygon points="35.3 208.1 39.1 208.1 39.1 195.2 51.9 195.2 51.9 191.8 39.1 191.8 39.1 182.9 53.4 182.9 53.4 179.5 35.3 179.5 35.3 208.1"/>
  <polygon points="383.4 331.1 383.4 302.4 379.8 302.4 379.8 324.7 379.7 324.7 365.3 302.4 361.5 302.4 361.5 331.1 365.1 331.1 365.1 308.7 365.1 308.7 379.5 331.1 383.4 331.1"/>
  <polygon points="461.2 360 461.2 388.7 464.8 388.7 464.8 366.3 464.9 366.3 479.3 388.7 483.2 388.7 483.2 360 479.6 360 479.6 382.3 479.5 382.3 465.1 360 461.2 360"/>
  <polygon points="522 405 524.4 403.7 524.4 403.6 570.8 376.8 570.8 376.8 571.9 376.2 603.3 394.3 604.5 392.2 574.3 374.8 574.3 374.8 571.9 373.4 571.2 373.9 522.1 402.2 520.9 401.6 520.9 401.6 489.3 383.3 488.1 385.4 521.3 404.6 522 405"/>
  <path d="M628.9,390.4c-3.1-1.8-7-1.8-7-1.8-3.9,0-7,1.8-7,1.8-3.1,1.8-4.9,5.2-4.9,5.2-1.8,3.4-1.8,7.8-1.8,7.8,0,4.3,1.8,7.7,1.8,7.7,1.8,3.4,4.9,5.2,4.9,5.2,3.1,1.8,7,1.8,7,1.8,3.9,0,7-1.8,7-1.8,3.1-1.8,4.9-5.2,4.9-5.2,1.8-3.4,1.8-7.8,1.8-7.8,0-4.5-1.8-7.8-1.8-7.8-1.8-3.3-4.9-5.2-4.9-5.2ZM630.4,409.6c-1.3,2.6-3.5,4-3.5,4-2.2,1.4-5.1,1.4-5.1,1.4-2.8,0-5-1.4-5-1.4-2.2-1.4-3.5-4-3.5-4-1.2-2.6-1.2-6.1-1.2-6.1,0-3.6,1.2-6.3,1.2-6.3,1.2-2.6,3.4-4,3.4-4,2.2-1.4,5.1-1.4,5.1-1.4,2.9,0,5.1,1.4,5.1,1.4,2.2,1.4,3.4,4,3.4,4,1.2,2.6,1.2,6.2,1.2,6.2,0,3.6-1.2,6.2-1.2,6.2Z"/>
  <polygon points="657.4 389.1 657.4 400.8 643.3 400.8 643.3 389.1 639.5 389.1 639.5 417.7 643.3 417.7 643.3 404.2 657.4 404.2 657.4 417.7 661.2 417.7 661.2 389.1 657.4 389.1"/>
  <rect x="78.4" y="482.1" width="2.4" height="45.6"/>
  <rect x="116" y="537.9" width="45.6" height="2.4" transform="translate(-250.8 141.6) rotate(-30)"/>
  <rect x="137.6" y="447.9" width="2.4" height="45.6" transform="translate(-338.2 355.5) rotate(-60)"/>
  <rect x="297.7" y="516.3" width="2.4" height="45.6" transform="translate(-317.4 528.3) rotate(-60)"/>
  <rect x="356.9" y="482.1" width="2.4" height="45.6"/>
  <rect x="276.1" y="469.5" width="45.6" height="2.4" transform="translate(-195.2 212.4) rotate(-30)"/>
  <rect x="228.1" y="568.5" width="2.4" height="45.6"/>
  <polygon points="369.6 819.6 369.6 819.6 368.5 820.3 367.4 819.6 367.4 819.6 319.8 792.2 319.8 790.9 319.8 755.5 317.4 755.5 317.4 790.9 317.4 792.9 317.4 793.5 319.7 794.9 319.7 794.9 367.9 822.7 367.9 822.7 368.5 823 369.1 822.7 369.1 822.7 402.5 803.5 401.3 801.4 369.6 819.6"/>
  <polygon points="417.2 771.7 419.6 771.7 419.6 737.3 419.6 735.3 419.6 734.6 417.3 733.2 417.3 733.2 369.1 705.4 369.1 705.4 368.5 705.1 367.9 705.4 367.9 705.4 334.5 724.7 335.7 726.8 367.4 708.5 367.4 708.5 368.5 707.8 369.6 708.5 369.6 708.5 417.2 735.9 417.2 737.3 417.2 771.7"/>
  <path d="M222.9,458c-1.6.6-3.4.6-3.4.6-3.6,0-5.6-1.8-5.6-1.8-2-1.8-2.4-5.3-2.4-5.3l-3.7.9c.6,4.6,3.7,7,3.7,7,3.1,2.4,8.2,2.4,8.2,2.4,3,0,5.3-1.1,5.3-1.1,2.4-1.1,3.7-3.1,3.7-3.1,1.4-2,1.4-4.4,1.4-4.4,0-2.4-1-4-1-4-1-1.6-3.3-2.7-3.3-2.7-2.2-1.1-6.1-2-6.1-2-2.8-.6-4.3-1.1-4.3-1.1-1.5-.6-2.2-1.4-2.2-1.4-.7-.8-.7-2.2-.7-2.2,0-1.3.8-2.4.8-2.4.8-1,2.2-1.5,2.2-1.5,1.4-.6,3.3-.6,3.3-.6,2.8,0,4.5,1.4,4.5,1.4,1.6,1.3,2.3,4.4,2.3,4.4h0l3.6-.8c-.3-2.6-1.7-4.4-1.7-4.4-1.4-1.8-3.6-2.8-3.6-2.8-2.3-1-5.2-1-5.2-1-2.8,0-5.1,1-5.1,1-2.2,1-3.5,2.7-3.5,2.7-1.3,1.7-1.3,3.9-1.3,3.9,0,2,.6,3.4.6,3.4.7,1.4,2.4,2.6,2.4,2.6,1.6,1.2,4.6,2,4.6,2,.7.2,2.3.6,2.3.6,2.7.6,4.2,1.2,4.2,1.2,1.7.6,2.6,1.6,2.6,1.6.9,1,.9,2.8.9,2.8,0,1.4-.9,2.4-.9,2.4-.9,1.1-2.5,1.7-2.5,1.7Z"/>
  <path d="M269.9,704.5v-56.3l-2.3-1.3h0s-47.6-27.5-47.6-27.5v-56.2l48.7-28.1,49.3,28.5h0l.6.3.6-.3h0s49.3-28.5,49.3-28.5l48.2,27.9-16.4,28.5,2.1,1.2,16-27.7,16,27.7,2.1-1.2-16.4-28.5,34.2-19.8-1.2-2.1-34.7,20-48.7-28.1v-57.6l-.6-.3h0s0,0,0,0l-1.6-.9h0s-48-27.7-48-27.7l-.7-.4-.8.5-49.1,28.3-32.6-18.8-1.2,2.1,32.6,18.8v56.2l-48.7,28.1-48.7-28.1v-56.2l33.3-19.2-1.2-2.1-33.3,19.2-49.1-28.3-.8-.5-2.4,1.3h0s-46.4,26.8-46.4,26.8h0s-2.3,1.3-2.3,1.3v59l2.3,1.3h0s46.4,26.8,46.4,26.8h0s1.7,1,1.7,1h0c0,0,0,0,0,0l.6.3.6-.4,49.2-28.4,48.7,28.1v57.6l2.3,1.3h0s47.6,27.5,47.6,27.5v57.6l2.3,1.3h0s31.6,18.3,31.6,18.3l1.2-2.1-32.8-18.9v-1.3ZM367.3,533l-47.6,27.5h0s-1.1.6-1.1.6l-1.1-.7h0s-47.6-27.5-47.6-27.5v-56.2l47.6-27.5h0s1.1-.6,1.1-.6l1.1.6h0s47.6,27.5,47.6,27.5v56.2ZM70.4,478.1v-1.3l48.7-28.1,1.1.6h0s47.6,27.5,47.6,27.5v56.2l-47.6,27.5h0s-1.1.6-1.1.6l-48.7-28.1v-54.9Z"/>
  <polygon points="329.6 749.1 329.6 720.5 326 720.5 326 742.8 325.9 742.8 311.5 720.5 307.7 720.5 307.7 749.1 311.2 749.1 311.2 726.7 311.3 726.7 325.7 749.1 329.6 749.1"/>
  <polygon points="425.8 800.4 425.7 800.4 411.3 778.1 407.4 778.1 407.4 806.7 411 806.7 411 784.3 411.1 784.3 425.5 806.7 429.3 806.7 429.3 778.1 425.8 778.1 425.8 800.4"/>
  <polygon points="520.5 792.8 518.8 791.9 518.7 791.8 518.7 791.8 518.1 791.5 517.5 791.8 517.5 791.8 469.4 819.6 469.4 819.6 468.3 820.3 467.1 819.6 467.1 819.6 435.5 801.4 434.3 803.5 467.7 822.7 467.7 822.7 468.3 823 468.9 822.7 468.9 822.7 517 794.9 517 794.9 518.1 794.2 549.5 812.4 550.7 810.3 520.5 792.8 520.5 792.8"/>
  <path d="M575.1,808.4c-3.1-1.8-7-1.8-7-1.8-3.9,0-7,1.8-7,1.8-3.1,1.8-4.9,5.2-4.9,5.2-1.8,3.4-1.8,7.8-1.8,7.8,0,4.3,1.8,7.7,1.8,7.7,1.8,3.4,4.9,5.2,4.9,5.2,3.1,1.8,7,1.8,7,1.8,3.9,0,7-1.8,7-1.8,3.1-1.8,4.9-5.2,4.9-5.2,1.8-3.4,1.8-7.8,1.8-7.8,0-4.5-1.8-7.8-1.8-7.8-1.8-3.3-4.9-5.2-4.9-5.2ZM576.5,827.7c-1.2,2.6-3.4,4-3.4,4-2.2,1.4-5.1,1.4-5.1,1.4-2.8,0-5-1.4-5-1.4-2.2-1.4-3.5-4-3.5-4-1.2-2.6-1.2-6.1-1.2-6.1,0-3.6,1.2-6.3,1.2-6.3,1.2-2.6,3.4-4,3.4-4,2.2-1.4,5.1-1.4,5.1-1.4,2.9,0,5.1,1.4,5.1,1.4,2.2,1.4,3.4,4,3.4,4,1.2,2.6,1.2,6.2,1.2,6.2,0,3.6-1.3,6.2-1.3,6.2Z"/>
  <polygon points="603.6 818.9 589.5 818.9 589.5 807.1 585.7 807.1 585.7 835.7 589.5 835.7 589.5 822.3 603.6 822.3 603.6 835.7 607.4 835.7 607.4 807.1 603.6 807.1 603.6 818.9"/>
  <polygon points="477.3 522.3 477.3 518.9 459.2 518.9 459.2 547.5 463 547.5 463 534.5 475.9 534.5 475.9 531.1 463 531.1 463 522.3 477.3 522.3"/>
  <polygon points="398.6 600.9 398.6 597.5 380.5 597.5 380.5 626.2 384.3 626.2 384.3 613.2 397.2 613.2 397.2 609.8 384.3 609.8 384.3 600.9 398.6 600.9"/>
  <polygon points="456.2 600.9 456.2 597.5 438.1 597.5 438.1 626.2 441.9 626.2 441.9 613.2 454.8 613.2 454.8 609.8 441.9 609.8 441.9 600.9 456.2 600.9"/>
  <g>
    <path class="st0" d="M227.6,173.2c0,1.4.1,2.8.4,4.1s.7,2.7,1.3,4,1.4,2.9,2.3,4.6h-1.8c-1.5-2-2.7-4-3.5-6.2-.8-2.2-1.2-4.3-1.2-6.4s.4-4.3,1.2-6.5,2-4.2,3.5-6.2h1.8c-1.4,2.4-2.5,4.6-3.1,6.6-.6,2-.9,4-.9,6.1Z"/>
    <path class="st0" d="M238.7,165.3l-1.3,5.9h8.9l-.5,2.3h-8.9l-1.4,6.5h10l-.5,2.3h-12.6l4.1-19.3h12.1l-.5,2.3h-9.6Z"/>
    <path class="st0" d="M256.4,173.2c0,2.1-.4,4.2-1.2,6.4-.8,2.2-2,4.3-3.5,6.2h-1.8c1.4-2.4,2.5-4.6,3.1-6.6.6-2,1-4,1-6.1s-.3-4.1-.9-6.1c-.6-2-1.7-4.2-3.1-6.6h1.8c1.5,2,2.7,4.1,3.5,6.2s1.2,4.3,1.2,6.5Z"/>
  </g>
  <g>
    <path class="st0" d="M173.8,591.2c0,1.4.1,2.8.4,4.1s.7,2.7,1.3,4,1.4,2.9,2.3,4.6h-1.8c-1.5-2-2.7-4-3.5-6.2-.8-2.2-1.2-4.3-1.2-6.4s.4-4.3,1.2-6.5,2-4.2,3.5-6.2h1.8c-1.4,2.4-2.5,4.6-3.1,6.6-.6,2-.9,4-.9,6.1Z"/>
    <path class="st0" d="M181.3,598.1h11.5l-.5,2.3h-14.7l.5-2.4,14.3-14.6h-10.4l.5-2.3h13.6l-.5,2.3-14.3,14.7Z"/>
    <path class="st0" d="M202.6,591.3c0,2.1-.4,4.2-1.2,6.4-.8,2.2-2,4.3-3.5,6.2h-1.8c1.4-2.4,2.5-4.6,3.1-6.6.6-2,1-4,1-6.1s-.3-4.1-.9-6.1c-.6-2-1.7-4.2-3.1-6.6h1.8c1.5,2,2.7,4.1,3.5,6.2s1.2,4.3,1.2,6.5Z"/>
  </g>
</svg>