<?xml version="1.0" encoding="UTF-8"?>
<svg id="_Слой_1" xmlns="http://www.w3.org/2000/svg" version="1.1" viewBox="0 0 675.4 432.3" width="675.4" height="432.3">
  <!-- Generator: Adobe Illustrator 29.3.1, SVG Export Plug-In . SVG Version: 2.1.0 Build 151)  -->
  <rect x="132.2" y="64" width="2.4" height="45.6"/>
  <rect x="169.8" y="119.8" width="45.6" height="2.4" transform="translate(-34.7 112.5) rotate(-30)"/>
  <rect x="191.4" y="29.8" width="2.4" height="45.6" transform="translate(50.7 193.1) rotate(-60)"/>
  <path d="M288.6,133.9l1.2,2.1,32.8-18.9,49.1,28.3.8.5,2.4-1.3h0s46.4-26.8,46.4-26.8h0s2.3-1.3,2.3-1.3v-59l-2.3-1.3h0s-46.4-26.8-46.4-26.8h0s-2.4-1.4-2.4-1.4l-.8.5-49.1,28.3-32.6-18.8-1.2,2.1,32.6,18.8v56.2l-32.8,18.9ZM421.1,113.6v1.3l-48.7,28.1-1.1-.6h0s-47.6-27.5-47.6-27.5v-56.2l47.6-27.5h0s1.1-.6,1.1-.6l48.7,28.1v54.9Z"/>
  <path d="M257.3,39.5l-1.2-2.1-33.3,19.3-49.1-28.3-.8-.5-.8.5-47.9,27.7h0s-2.3,1.3-2.3,1.3v57.6l-48.7,28.1-38.4-22.2-1.2,2.1,37.9,21.9-16.4,28.5,2.1,1.2,16-27.7,16,27.7,2.1-1.2-16.4-28.5,48.2-27.9,49.1,28.3.8.5.8-.5,49.1-28.3,32.8,18.9,1.2-2.1-32.8-18.9v-56.2l33.3-19.3ZM124.2,58.7l47.6-27.5h0s1.1-.6,1.1-.6l1.1.6h0s47.6,27.5,47.6,27.5v56.2l-47.6,27.5h0s-1.1.6-1.1.6l-1.1-.6h0s-47.6-27.5-47.6-27.5v-56.2Z"/>
  <rect x="351.5" y="98.2" width="2.4" height="45.6" transform="translate(71.5 365.9) rotate(-60)"/>
  <rect x="410.7" y="64" width="2.4" height="45.6"/>
  <rect x="329.9" y="51.4" width="45.6" height="2.4" transform="translate(20.9 183.3) rotate(-30)"/>
  <polygon points="455.1 383.3 422.3 402.2 421.2 401.6 421.2 401.6 374.8 374.8 374.8 374.8 373.6 374.1 373.6 372.8 373.6 337.5 371.2 337.5 371.2 372.8 371.2 374.8 371.2 375.5 371.9 375.9 421.7 404.7 421.7 404.6 422.3 405 422.9 404.7 422.9 404.7 422.9 404.6 424.6 403.7 424.6 403.6 456.3 385.4 455.1 383.3"/>
  <polygon points="572.6 373.8 572 373.4 571.4 373.8 571.4 373.8 571.4 373.8 569.6 374.8 569.6 374.8 523.2 401.6 523.2 401.6 522.1 402.2 489.3 383.3 488.1 385.4 519.7 403.6 519.7 403.7 521.5 404.6 521.5 404.7 521.5 404.7 522.1 405 522.7 404.6 522.7 404.7 572 376.2 573.1 376.9 573.1 376.8 603.3 394.3 604.5 392.2 572.6 373.8 572.6 373.8"/>
  <polygon points="422.3 287 421.5 287.5 388.3 306.7 389.5 308.7 421.2 290.4 421.2 290.4 422.3 289.8 471 317.9 471 319.2 471 353.6 473.4 353.6 473.4 319.2 473.4 317.2 473.4 316.5 471.1 315.2 471.1 315.2 424.6 288.4 424.6 288.4 422.3 287"/>
  <polygon points="92.9 208.1 96.7 208.1 96.7 195.2 109.5 195.2 109.5 191.8 96.7 191.8 96.7 182.9 111 182.9 111 179.5 92.9 179.5 92.9 208.1"/>
  <polygon points="283.7 158.3 283.7 129.6 280.1 129.6 280.1 151.9 280 151.9 265.6 129.6 261.7 129.6 261.7 158.3 265.3 158.3 265.3 135.9 265.4 135.9 279.7 158.3 283.7 158.3"/>
  <path d="M276.7,39.9c-1.6.6-3.4.6-3.4.6-3.6,0-5.6-1.8-5.6-1.8-2-1.8-2.4-5.3-2.4-5.3l-3.7.9c.7,4.6,3.8,7,3.8,7,3.1,2.4,8.2,2.4,8.2,2.4,3,0,5.3-1.1,5.3-1.1,2.4-1.1,3.7-3.1,3.7-3.1,1.3-2,1.3-4.4,1.3-4.4,0-2.4-1-4-1-4-1-1.6-3.3-2.7-3.3-2.7-2.3-1.1-6.1-2-6.1-2-2.8-.6-4.3-1.1-4.3-1.1-1.5-.6-2.2-1.4-2.2-1.4-.7-.8-.7-2.2-.7-2.2,0-1.4.8-2.4.8-2.4.8-1,2.2-1.5,2.2-1.5,1.4-.6,3.3-.6,3.3-.6,2.8,0,4.5,1.4,4.5,1.4,1.6,1.3,2.3,4.4,2.3,4.4h0l3.6-.8c-.3-2.6-1.7-4.4-1.7-4.4-1.4-1.8-3.6-2.8-3.6-2.8-2.2-1-5.2-1-5.2-1-2.8,0-5,1-5,1-2.3,1-3.6,2.8-3.6,2.8-1.3,1.7-1.3,3.9-1.3,3.9,0,2,.7,3.4.7,3.4.6,1.4,2.3,2.6,2.3,2.6,1.7,1.1,4.6,1.9,4.6,1.9.7.2,2.3.6,2.3.6,2.8.6,4.2,1.1,4.2,1.1,1.7.6,2.6,1.6,2.6,1.6.9,1,.9,2.8.9,2.8,0,1.3-.9,2.4-.9,2.4-.9,1.1-2.5,1.7-2.5,1.7Z"/>
  <polygon points="14.2 129.5 18 129.5 18 116.5 30.8 116.5 30.8 113.1 18 113.1 18 104.2 32.3 104.2 32.3 100.8 14.2 100.8 14.2 129.5"/>
  <polygon points="35.3 208.1 39.1 208.1 39.1 195.2 51.9 195.2 51.9 191.8 39.1 191.8 39.1 182.9 53.4 182.9 53.4 179.5 35.3 179.5 35.3 208.1"/>
  <polygon points="324.9 288.4 323.7 287.7 323.7 286.4 323.7 232.8 323.7 230.8 323.7 230.1 321.4 228.8 321.4 228.8 273.9 201.3 273.9 200 273.9 164.7 271.5 164.7 271.5 200 271.5 202 271.5 202.7 273.8 204.1 273.8 204 321.3 231.5 321.3 232.8 321.3 286.4 321.3 288.4 321.3 289.1 322 289.5 355.3 308.7 356.5 306.7 324.9 288.4 324.9 288.4"/>
  <polygon points="383.4 331.1 383.4 302.4 379.8 302.4 379.8 324.7 379.7 324.7 365.4 302.4 361.5 302.4 361.5 331.1 365.1 331.1 365.1 308.7 365.1 308.7 379.5 331.1 383.4 331.1"/>
  <polygon points="479.6 382.3 479.5 382.3 465.1 360 461.2 360 461.2 388.7 464.8 388.7 464.8 366.3 464.9 366.3 479.3 388.7 483.2 388.7 483.2 360 479.6 360 479.6 382.3"/>
  <path d="M628.9,390.4c-3.1-1.8-7-1.8-7-1.8-3.9,0-7,1.8-7,1.8-3.1,1.8-4.9,5.2-4.9,5.2-1.8,3.4-1.8,7.8-1.8,7.8,0,4.3,1.8,7.7,1.8,7.7,1.8,3.4,4.9,5.2,4.9,5.2,3.1,1.8,7,1.8,7,1.8,3.9,0,7-1.8,7-1.8,3.1-1.8,4.9-5.2,4.9-5.2,1.8-3.4,1.8-7.8,1.8-7.8,0-4.5-1.8-7.8-1.8-7.8-1.8-3.3-4.9-5.2-4.9-5.2ZM630.4,409.6c-1.2,2.6-3.5,4-3.5,4-2.2,1.4-5.1,1.4-5.1,1.4-2.8,0-5-1.4-5-1.4-2.2-1.4-3.4-4-3.4-4-1.3-2.6-1.3-6.1-1.3-6.1,0-3.6,1.2-6.3,1.2-6.3,1.2-2.6,3.4-4,3.4-4,2.2-1.4,5.1-1.4,5.1-1.4,2.9,0,5.1,1.4,5.1,1.4,2.2,1.4,3.4,4,3.4,4,1.2,2.6,1.2,6.2,1.2,6.2,0,3.6-1.2,6.2-1.2,6.2Z"/>
  <polygon points="657.4 389.1 657.4 400.8 643.3 400.8 643.3 389.1 639.5 389.1 639.5 417.7 643.3 417.7 643.3 404.2 657.4 404.2 657.4 417.7 661.2 417.7 661.2 389.1 657.4 389.1"/>
</svg>