<?xml version="1.0" encoding="iso-8859-1"?>
<!-- Generator: Adobe Illustrator 19.1.0, SVG Export Plug-In . SVG Version: 6.00 Build 0)  -->
<svg version="1.1" id="&#x421;&#x43B;&#x43E;&#x439;_1"
	 xmlns="http://www.w3.org/2000/svg" xmlns:xlink="http://www.w3.org/1999/xlink" x="0px" y="0px" viewBox="0 0 353.31 519.165"
	 style="enable-background:new 0 0 353.31 519.165;" xml:space="preserve" width="353.31" height="519.165">
<g>
	<rect x="127.013" y="235.462" transform="matrix(-0.866 -0.5 0.5 -0.866 161.3508 516.1573)" width="45.628" height="2"/>
	<rect x="89.555" y="247.869" width="2" height="45.628"/>
	<rect x="148.827" y="282.09" transform="matrix(-0.4995 -0.8663 0.8663 -0.4995 -39.4675 587.0068)" width="2" height="45.628"/>
	<polygon points="300.028,185.187 275.143,216.392 242.698,208.987 242.254,210.937 280.45,219.655 281.109,221.023 
		305.024,270.683 290.031,301.817 291.832,302.686 306.167,272.919 307.035,271.117 307.244,270.683 307.035,270.248 
		284.812,224.103 309.697,192.899 308.134,191.651 283.849,222.103 282.911,220.155 282.911,220.155 282.043,218.353 
		281.835,217.919 281.364,217.812 279.415,217.367 279.415,217.367 277.307,216.886 301.591,186.434 	"/>
	<rect x="243.931" y="303.372" transform="matrix(0.2221 0.975 -0.975 0.2221 502.7419 10.2766)" width="2" height="33.675"/>
	<rect x="203.415" y="417.741" transform="matrix(-0.7331 -0.6802 0.6802 -0.7331 107.2521 879.5753)" width="45.628" height="2"/>
	<rect x="159.828" y="416.101" transform="matrix(-0.975 -0.2221 0.2221 -0.975 220.1478 902.5878)" width="2" height="45.628"/>
	<rect x="209.999" y="462.653" transform="matrix(-0.2947 -0.9556 0.9556 -0.2947 -190.7376 830.1502)" width="2" height="45.628"/>
	<path d="M254.65,429.604l-41.377-38.392l0.317-1.387l11.927-52.256h0l0.305-1.337l38.053-8.685l-0.444-1.95l-36.716,8.38v0
		l-1.481,0.338l-44.281-35.312v-1.518v-55.118l1.187-0.947l0,0l27.216-21.704l-1.247-1.563l-27.216,21.704l0,0l-1.03,0.822
		l-47.561-27.459l0,0l-1.732-1l-0.5-0.288l-0.5,0.288l-1.732,1l0,0l-48.151,27.8l-0.5,0.288v0.579v2v53.6v1.423l-27.711,15.999
		l0.999,1.733l27.712-16l49.383,28.511l0.5,0.288l0.499-0.288l1.732-1l0,0l46.419-26.8v0l1.142-0.659l44.009,35.096l-12.549,54.981
		l-52.578,16.218l0,0l-1.911,0.59l-0.552,0.169l-0.129,0.564l-12.817,56.156l-0.128,0.562l0.422,0.393l42.224,39.178l0.422,0.393
		l0.553-0.171l53.13-16.389v0l1.911-0.59l0.552-0.169l0.128-0.564l12.689-55.593l39.819-12.283l-0.589-1.911L254.65,429.604z
		 M178.953,297.483v1.423l-1.232,0.711l0,0l-47.652,27.512l-1.232-0.712v0l-46.419-26.8l-1.232-0.711v-1.423v-53.6v-1.423
		l1.232-0.711l46.419-26.8l0,0l1.232-0.712l1.232,0.712l0,0l46.419,26.8l1.232,0.711V297.483z M252.973,432.457L240.729,486.1
		l-53.938,16.638l-1.042-0.967l-40.335-37.425l0.317-1.387l12.244-53.643l1.359-0.419v0l52.578-16.218l40.334,37.424l1.043,0.968
		L252.973,432.457L252.973,432.457z"/>
	<polygon points="245.134,74.565 252.973,108.908 253.29,110.296 252.246,111.264 252.246,111.264 212.955,147.721 212.955,147.721 
		211.489,149.081 211.066,149.474 211.194,150.036 219.264,185.392 221.214,184.948 213.273,150.154 214.316,149.186 
		255.074,111.369 255.496,110.976 255.368,110.414 247.084,74.121 	"/>
	<polygon points="144.992,77.413 185.749,39.595 185.749,39.595 186.792,38.628 223.915,50.079 224.505,48.168 188.741,37.136 
		186.829,36.547 186.278,36.376 185.854,36.77 184.388,38.13 184.388,38.13 143.63,75.948 	"/>
	<polygon points="286.005,14.936 284.094,14.347 283.543,14.176 283.119,14.57 281.653,15.93 256.837,38.956 258.198,40.421 
		284.057,16.428 338.546,33.236 339.135,31.324 	"/>
	<polygon points="236.237,191.409 232.76,191.409 232.76,213.538 232.584,213.538 217.155,191.409 213.737,191.409 213.737,219.593 
		217.213,219.593 217.213,197.542 217.389,197.542 232.819,219.593 236.237,219.593 	"/>
	<path d="M26.87,317.111c4.023,0,7.246,2.422,8.145,6.113h3.555c-0.898-5.625-5.566-9.355-11.699-9.355
		c-7.715,0-12.695,5.703-12.695,14.551c0,8.926,4.922,14.57,12.695,14.57c6.231,0,10.41-3.105,11.699-8.672h-3.555
		c-1.016,3.437-3.984,5.43-8.125,5.43c-5.566,0-9.102-4.414-9.102-11.328C17.788,321.564,21.362,317.111,26.87,317.111z"/>
	<rect x="43.034" y="313.107" width="3.398" height="29.414"/>
	<path d="M317.055,158.959c-7.988,0-12.988,5.625-12.988,14.57s5,14.551,12.988,14.551c7.988,0,12.988-5.605,12.988-14.551
		S325.044,158.959,317.055,158.959z M317.055,184.837c-5.762,0-9.375-4.375-9.375-11.309c0-6.953,3.613-11.328,9.375-11.328
		c5.762,0,9.375,4.375,9.375,11.328C326.43,180.462,322.817,184.837,317.055,184.837z"/>
	<polygon points="288.916,330.147 288.74,330.147 273.31,308.018 269.892,308.018 269.892,336.202 273.369,336.202 273.369,314.151 
		273.545,314.151 288.974,336.202 292.392,336.202 292.392,308.018 288.916,308.018 	"/>
	<polygon points="300.879,427.375 304.395,427.375 304.395,415.168 316.875,415.168 316.875,412.043 304.395,412.043 
		304.395,402.355 317.989,402.355 317.989,399.191 300.879,399.191 	"/>
	<polygon points="233.802,46.052 233.978,46.052 249.408,68.103 252.826,68.103 252.826,39.92 249.349,39.92 249.349,62.049 
		249.173,62.049 233.744,39.92 230.326,39.92 230.326,68.103 233.802,68.103 	"/>
</g>
</svg>
