<?xml version="1.0" encoding="UTF-8"?>
<svg id="_Слой_1" data-name="Слой_1" xmlns="http://www.w3.org/2000/svg" version="1.1" viewBox="0 0 587.3470866 452.4661417" width="587.3470866" height="452.4661417">
  <!-- Generator: Adobe Illustrator 29.3.1, SVG Export Plug-In . SVG Version: 2.1.0 Build 151)  -->
  <defs>
    <style>
      .st0 {
        fill: gray;
      }
    </style>
  </defs>
  <g>
    <rect x="373.1355794" y="294.1745992" width="2.3984375" height="45.5976562"/>
    <rect x="410.7916729" y="349.9915407" width="45.6448443" height="2.4012733" transform="translate(-117.6069593 264.5176249) rotate(-30.0685828)"/>
    <rect x="432.4134584" y="259.9322552" width="2.4012733" height="45.6448443" transform="translate(-28.1688467 516.694639) rotate(-59.9747452)"/>
    <path d="M548.8972982,355.5730367l-1.203125-2.078125-34.0783691,19.6916504-48.6833496-28.1083984v-57.5949707l-2.3164062-1.3476562-.0031738.0056152-48.1569824-27.8063965-.0007324.0012207-.6008301-.348877-.6008301.348877-.0007324-.0012207-49.2773438,28.4533691-43.4804688-25.104248v-39.6713867h-2.3984375v38.2866211l-3.4023438-1.9643555-.0004883.0009766-.6010742-.3486328-.6008301.348877-.0007324-.0012207-3.3984375,1.9624023v-38.284668h-2.3984375v39.6696777l-42.3596191,24.4599609-.0036621-.0065918-1.1171875.6523438-1.1152344-.6523438-.0043945.0073242-48.159668-27.8081055-.0002441.0002441-.5993652-.3479004-.5996094.3476562h0l-48.1601562,27.807373-.0039062-.0065918-1.1171875.6523438-1.1152344-.6523438-.0043945.0073242-48.159668-27.8081055-.0002441.0002441-.5993652-.3479004-.5996094.3476562h0l-32,18.4375,1.1992188,2.078125,30.2785645-17.4455566.0046387.0080566,1.1171875-.6523438,1.1152344.6523438.0043945-.0073242,48.159668,27.8081055.0002441-.0002441.5993652.3479004.5996094-.3476562h0l48.1601562-27.807373.0039062.0065918,1.1171875-.6523438,1.1152344.6523438.0043945-.0073242,48.159668,27.8081055.0002441-.0002441.5993652.3479004.5996094-.3476562h0l48.1586914-27.8063965.003418.0056152,1.1171875-.6523438,1.1210938.6523438.0024414-.0041504,47.5600586,27.4599609v57.5949707l2.3164062,1.3476562.0031738-.0056152,48.1569824,27.8063965.0007324-.0012207.6008301.348877.6008301-.348877.0007324.0012207,49.2773438-28.4533691,48.2426758,27.8537598-16.4418945,28.4785156,2.078125,1.203125,16.0039062-27.7194824,16,27.7194824,2.078125-1.203125-16.4382324-28.4787598,33.6413574-19.439209ZM365.1746419,288.8684468l47.5593262-27.4611816.0031738.0056152,1.1171875-.6523438,1.1171875.6523438.0031738-.0056152,47.5593262,27.4611816v56.2099609l-47.5593262,27.4611816-.0031738-.0056152-1.1171875.6523438-1.1171875-.6523438-.0031738.0056152-47.5593262-27.4611816v-56.2099609Z"/>
    <rect x="288.4339671" y="178.7897324" width="2.3993185" height="17.6877023" transform="translate(-17.6375526 344.7272556) rotate(-60.0149882)"/>
    <polygon points="213.8318685 87.6677632 215.4500326 88.6101461 215.4534505 88.6042867 263.0144857 116.066689 263.0144857 117.3738179 263.0144857 151.5339742 265.4129232 151.5339742 265.4129232 117.3738179 265.4129232 115.3738179 265.4129232 114.6843648 264.8130697 114.3349996 264.8133138 114.3347554 264.7166341 114.2790914 263.0984701 113.3367086 263.0950521 113.3425679 215.5340169 85.8801656 215.5340169 84.5730367 215.5340169 49.2136617 213.1355794 49.2136617 213.1355794 84.5730367 213.1355794 86.5730367 213.1355794 87.2624898 213.735433 87.611855 213.7351888 87.6120992 213.8318685 87.6677632"/>
    <rect x="29.1732241" y="250.373922" width="2.4012733" height="36.0388544" transform="translate(-217.1805894 160.3454175) rotate(-59.9639473)"/>
    <polygon points="306.4544271 193.0930562 321.4944662 215.6130757 325.374349 215.6130757 325.374349 186.972939 321.7344564 186.972939 321.7344564 209.4529195 306.6944173 186.972939 302.8142904 186.972939 302.8142904 215.6130757 306.4544271 215.6130757 306.4544271 193.0930562"/>
    <path d="M254.3343099,161.9329c-3.8000488,4.0400391-3.8000488,11.1601562-3.8000488,11.1601562,0,3.8000488,1.6401367,7.1599121,1.6401367,7.1599121,1.6398926,3.4001465,4.8000488,5.3200684,4.8000488,5.3200684,3.1999512,1.9599609,7.2399902,1.9599609,7.2399902,1.9599609,3.7199707,0,6.9599609-1.7600098,6.9599609-1.7600098,3.1999512-1.7600098,4.9599609-5.1999512,4.9599609-5.1999512,1.7600098-3.4399414,1.7600098-7.8000488,1.7600098-7.8000488,0-4.2800293-1.6401367-7.6799316-1.6401367-7.6799316-1.6799316-3.4001465-4.8798828-5.2800293-4.8798828-5.2800293-3.1599121-1.880127-7.1201172-1.880127-7.1201172-1.880127-6.079834,0-9.9199219,4-9.9199219,4ZM272.8142904,166.6531148c1.1999512,2.5998535,1.1999512,6.119873,1.1999512,6.119873,0,5.5200195-2.7600098,8.5200195-2.7600098,8.5200195-2.7998047,3-7.0397949,3-7.0397949,3-4.2001953,0-7-2.9599609-7-2.9599609-2.8000488-3-2.8000488-8.1599121-2.8000488-8.1599121,0-6.4802246,2.9199219-9.2402344,2.9199219-9.2402344,2.880127-2.7597656,6.9199219-2.7597656,6.9199219-2.7597656,2.8400879,0,5.1201172,1.4399414,5.1201172,1.4399414,2.2800293,1.4399414,3.4399414,4.0400391,3.4399414,4.0400391Z"/>
    <polygon points="573.1743978 334.3330465 573.1743978 330.972939 553.8543294 330.972939 553.8543294 359.6130757 557.6143392 359.6130757 557.6143392 346.6130757 571.0542806 346.6130757 571.0542806 343.2129293 557.6143392 343.2129293 557.6143392 334.3330465 573.1743978 334.3330465"/>
    <polygon points="532.7742513 438.2930074 536.5342611 438.2930074 536.5342611 425.2930074 549.9744466 425.2930074 549.9744466 421.893105 536.5342611 421.893105 536.5342611 413.0129781 552.0943197 413.0129781 552.0943197 409.6531148 532.7742513 409.6531148 532.7742513 438.2930074"/>
    <polygon points="475.1743978 438.2930074 478.9344076 438.2930074 478.9344076 425.2930074 492.374349 425.2930074 492.374349 421.893105 478.9344076 421.893105 478.9344076 413.0129781 494.4944662 413.0129781 494.4944662 409.6531148 475.1743978 409.6531148 475.1743978 438.2930074"/>
    <polygon points="206.6944173 20.2930074 221.7344564 42.8130269 225.6143392 42.8130269 225.6143392 14.1731343 221.9744466 14.1731343 221.9744466 36.6531148 206.9344076 14.1731343 203.0542806 14.1731343 203.0542806 42.8130269 206.6944173 42.8130269 206.6944173 20.2930074"/>
    <polygon points="233.414388 29.2930074 248.2942708 29.2930074 248.2942708 42.8130269 252.0943197 42.8130269 252.0943197 14.1731343 248.2942708 14.1731343 248.2942708 25.9329 233.414388 25.9329 233.414388 14.1731343 229.6143392 14.1731343 229.6143392 42.8130269 233.414388 42.8130269 233.414388 29.2930074"/>
    <path d="M269.3343099,49.1731343v-2.3601074h-9.8398438c.3999023-.6799316,1.0397949-1.3601074,1.0397949-1.3601074.6401367-.6398926,2.8400879-2.5200195,2.8400879-2.5200195,2.6398926-2.2399902,3.8000488-3.5197754,3.8000488-3.5197754,1.1599121-1.2800293,1.6398926-2.4401855,1.6398926-2.4401855.4799805-1.1599121.4799805-2.3598633.4799805-2.3598633,0-2.3601074-1.6799316-3.9599609-1.6799316-3.9599609-1.6799316-1.6000977-4.5600586-1.6000977-4.5600586-1.6000977-2.8798828,0-4.5598145,1.4799805-4.5598145,1.4799805-1.6801758,1.4799805-1.9602051,4.3200684-1.9602051,4.3200684l2.5200195.2399902c.0400391-1.880127,1.0800781-2.9599609,1.0800781-2.9599609,1.0800781-1.0400391,2.8798828-1.0400391,2.8798828-1.0400391,1.6801758,0,2.7202148,1,2.7202148,1,1.0397949,1,1.0397949,2.4399414,1.0397949,2.4399414,0,1.3999023-1.1599121,2.9599609-1.1599121,2.9599609-1.1599121,1.6000977-4.3999023,4.2800293-4.3999023,4.2800293-2.1201172,1.7199707-3.2399902,3-3.2399902,3-1.1201172,1.3200684-1.6000977,2.6799316-1.6000977,2.6799316-.3200684.8400879-.2800293,1.7202148-.2800293,1.7202148h13.2399902Z"/>
    <path d="M71.8142904,275.0129781c-3.1599121-1.8798828-7.119873-1.8798828-7.119873-1.8798828-6.0800781,0-9.920166,4-9.920166,4-3.7998047,4.0400391-3.7998047,11.1599121-3.7998047,11.1599121,0,3.8000488,1.6398926,7.1599121,1.6398926,7.1599121,1.6398926,3.4001465,4.8000488,5.3200684,4.8000488,5.3200684,3.1999512,1.9599609,7.2399902,1.9599609,7.2399902,1.9599609,3.7199707,0,6.9599609-1.7600098,6.9599609-1.7600098,3.1999512-1.7600098,4.9599609-5.1999512,4.9599609-5.1999512,1.7600098-3.4399414,1.7600098-7.8000488,1.7600098-7.8000488,0-4.2800293-1.6398926-7.6799316-1.6398926-7.6799316-1.6801758-3.3999023-4.880127-5.2800293-4.880127-5.2800293ZM71.6944173,296.4929586c-2.8000488,3-7.0400391,3-7.0400391,3-4.1999512,0-7-2.9599609-7-2.9599609-2.8000488-3-2.8000488-8.1599121-2.8000488-8.1599121,0-6.4799805,2.9199219-9.2399902,2.9199219-9.2399902,2.880127-2.7600098,6.920166-2.7600098,6.920166-2.7600098,2.8398438,0,5.119873,1.4399414,5.119873,1.4399414,2.2800293,1.4399414,3.4399414,4.0400391,3.4399414,4.0400391,1.2001953,2.5998535,1.2001953,6.119873,1.2001953,6.119873,0,5.5200195-2.7600098,8.5200195-2.7600098,8.5200195Z"/>
  </g>
  <g>
    <path class="st0" d="M334.3832741,241.8284078c0,1.3974609.1357422,2.7509766.4082031,4.0605469s.703125,2.6582031,1.2919922,4.046875,1.3710938,2.9140625,2.3466797,4.5751953h-1.8066406c-1.5205078-1.96875-2.6826172-4.0449219-3.4863281-6.2294922-.8046875-2.1835938-1.2070312-4.3261719-1.2070312-6.4267578,0-2.1445312.4003906-4.2954102,1.2001953-6.453125s1.9638672-4.2299805,3.4931641-6.2163086h1.8066406c-1.4414062,2.4082031-2.4765625,4.5942383-3.1044922,6.559082-.6289062,1.9638672-.9423828,3.9921875-.9423828,6.0839844Z"/>
    <path class="st0" d="M345.4699261,233.9243192l-1.265625,5.90625h8.859375l-.4882812,2.2939453h-8.859375l-1.3847656,6.5390625h10.046875l-.4882812,2.2939453h-12.6035156l4.1132812-19.3271484h12.1425781l-.4882812,2.2939453h-9.5839844Z"/>
    <path class="st0" d="M363.174516,241.854775c0,2.0917969-.4013672,4.2319336-1.2060547,6.4208984-.8037109,2.1875-1.9619141,4.2617188-3.4736328,6.2226562l-1.8193359.0126953c1.4238281-2.4082031,2.4541016-4.5986328,3.0917969-6.5722656.6367188-1.9726562.9560547-4.0097656.9560547-6.1103516,0-2.0566406-.3164062-4.0800781-.9492188-6.0712891-.6328125-1.9902344-1.6660156-4.1811523-3.0986328-6.5717773h1.8056641c1.5292969,1.9863281,2.6943359,4.0585938,3.4941406,6.2163086s1.1992188,4.3085938,1.1992188,6.453125Z"/>
  </g>
  <metadata>
    <sfw xmlns="http://ns.adobe.com/SaveForWeb/1.0/">
      <slices/>
      <sliceSourceBounds x="17.95" y="-632.98" width="559" height="424.12" bottomLeftOrigin="true"/>
    </sfw>
  </metadata>
</svg>