<?xml version="1.0" standalone="no" ?>
<!DOCTYPE svg PUBLIC "-//W3C//DTD SVG 1.1//EN" "http://www.w3.org/Graphics/SVG/1.1/DTD/svg11.dtd">
<svg width="465px" height="225px" viewBox="0 0 93 45" style="" xmlns="http://www.w3.org/2000/svg" xmlns:xlink="http://www.w3.org/1999/xlink" version="1.1" >
<text x="0" y="0" stroke="transparent" fill="#000000" transform="matrix(0.05 0 0 0.05 63.239 21.0466)" style="font:normal normal normal 200px 'Arial'" >
O</text>
<text x="0" y="0" stroke="transparent" fill="#000000" transform="matrix(0.05 0 0 0.05 75.7098 42.6466)" style="font:normal normal normal 200px 'Arial'" >
OH</text>
<path stroke="transparent" fill="#000000" transform="matrix(0.05 0 0 0.05 -437 -241)" d="M 9833.15,5610.41 L 9833.15,5596.56 L 10082.6,5452.56 L 10082.6,5466.41 L 9833.15,5610.41 Z " />
<path stroke="transparent" fill="#000000" transform="matrix(0.05 0 0 0.05 -437 -241)" d="M 9833.15,5596.56 L 9833.15,5610.41 L 9583.73,5466.41 L 9583.73,5459.49 L 9595.73,5459.49 L 9833.15,5596.56 Z " />
<path stroke="transparent" fill="#000000" transform="matrix(0.05 0 0 0.05 -437 -241)" d="M 10114.5,5474.45 L 10102.5,5474.45 L 10102.5,5275.1 L 10114.5,5275.1 L 10114.5,5474.45 Z " />
<path stroke="transparent" fill="#000000" transform="matrix(0.05 0 0 0.05 -437 -241)" d="M 10062.6,5474.45 L 10050.6,5474.45 L 10050.6,5275.1 L 10062.6,5275.1 L 10062.6,5474.45 Z " />
<path stroke="transparent" fill="#000000" transform="matrix(0.05 0 0 0.05 -437 -241)" d="M 10082.6,5466.41 L 10082.6,5452.56 L 10243.5,5545.49 L 10237.5,5555.88 L 10082.6,5466.41 Z " />
<path stroke="transparent" fill="#000000" transform="matrix(0.05 0 0 0.05 -437 -241)" d="M 9334.32,5610.41 L 9334.32,5596.56 L 9571.73,5459.49 L 9583.73,5459.49 L 9583.73,5466.41 L 9334.32,5610.41 Z " />
<text x="0" y="0" stroke="transparent" fill="#000000" transform="matrix(0.05 0 0 0.05 2.24145 35.4466)" style="font:normal normal normal 200px 'Arial'" >
H</text>
<text x="0" y="0" stroke="transparent" fill="#000000" transform="matrix(0.05 0 0 0.05 9.46313 37.0577)" style="font:normal normal normal 150px 'Arial'" >
2</text>
<text x="0" y="0" stroke="transparent" fill="#000000" transform="matrix(0.05 0 0 0.05 13.6343 35.4466)" style="font:normal normal normal 200px 'Arial'" >
N</text>
<path stroke="transparent" fill="#000000" transform="matrix(0.05 0 0 0.05 -437 -241)" d="M 9181.27,5522.05 L 9187.27,5511.66 L 9334.32,5596.56 L 9334.32,5610.41 L 9181.27,5522.05 Z " />
<path stroke="transparent" fill="#000000" transform="matrix(0.05 0 0 0.05 -437 -241)" d="M 9827.15,5312.02 L 9839.15,5318.95 L 9595.73,5459.49 L 9583.73,5459.49 L 9583.73,5452.56 L 9827.15,5312.02 Z " />
<path stroke="transparent" fill="#000000" transform="matrix(0.05 0 0 0.05 -437 -241)" d="M 9827.15,5030.95 L 9839.15,5024.02 L 9839.15,5318.95 L 9827.15,5312.02 L 9827.15,5030.95 Z " />
<path stroke="transparent" fill="#000000" transform="matrix(0.05 0 0 0.05 -437 -241)" d="M 9583.73,4890.42 L 9583.73,4876.56 L 9839.15,5024.02 L 9827.15,5030.95 L 9583.73,4890.42 Z " />
<path stroke="transparent" fill="#000000" transform="matrix(0.05 0 0 0.05 -437 -241)" d="M 9340.32,5030.95 L 9328.32,5024.02 L 9583.73,4876.56 L 9583.73,4890.42 L 9340.32,5030.95 Z " />
<path stroke="transparent" fill="#000000" transform="matrix(0.05 0 0 0.05 -437 -241)" d="M 9340.32,5312.02 L 9328.32,5318.95 L 9328.32,5024.02 L 9340.32,5030.95 L 9340.32,5312.02 Z " />
<path stroke="transparent" fill="#000000" transform="matrix(0.05 0 0 0.05 -437 -241)" d="M 9583.73,5452.56 L 9583.73,5459.49 L 9571.73,5459.49 L 9328.32,5318.95 L 9340.32,5312.02 L 9583.73,5452.56 Z " />
</svg>
