<?xml version="1.0" encoding="utf-8"?>
<!-- Generator: Adobe Illustrator 19.2.1, SVG Export Plug-In . SVG Version: 6.00 Build 0)  -->
<svg version="1.1" id="Слой_1" xmlns="http://www.w3.org/2000/svg" xmlns:xlink="http://www.w3.org/1999/xlink" x="0px" y="0px"
	 viewBox="0 0 375.5 383.4" style="enable-background:new 0 0 375.5 383.4;" xml:space="preserve" width="375.5" height="383.4">
<g>
	<rect x="170.5" y="100.8" transform="matrix(0.7588 -0.6513 0.6513 0.7588 -19.8119 150.4549)" width="45.4" height="2.4"/>
	<rect x="179" y="12" transform="matrix(0.3286 -0.9445 0.9445 0.3286 88.1241 193.5532)" width="2.4" height="45.7"/>
	<rect x="127.4" y="56.8" transform="matrix(0.982 -0.189 0.189 0.982 -12.7478 25.7379)" width="2.4" height="45.7"/>
	<polygon points="217,224.6 217.2,223.3 216.1,222.2 207.9,229.1 209.3,231 	"/>
	<polygon points="202.3,221.3 203.7,223.2 211,217.1 209.3,215.4 	"/>
	<polygon points="196.7,213.4 198.1,215.4 204.2,210.3 202.5,208.6 	"/>
	<polygon points="191,205.6 192.4,207.6 197.4,203.4 195.7,201.7 	"/>
	<rect x="321.5" y="153" transform="matrix(0.9999 -1.205913e-02 1.205913e-02 0.9999 -1.8344 4.1286)" width="39.8" height="2.4"/>
	<path d="M279.5,204.5L279.5,204.5l-0.6,1.2l-44.5,7l-55-27.6v-54.5v-1.4l1.1-0.9l0,0L221,93.4l0,0l1.1-0.9l54.2,11.2l0,0l1.4,0.3
		l0.6,1.3l0,0l14.3,29.2l2.2-1.1l-15.2-30.9l-0.3-0.6l-0.6-0.1l-54.7-11.4l0,0l-1.2-0.2l-10.4-53.9l0,0l-0.4-1.9l0,0l0,0l-0.1-0.7
		l-0.6-0.2l0,0l-54.4-18.9l0,0l-0.6-0.2l-2.1,1.8l0,0l-41.4,36L76.1,39.4l-0.8,2.3l35.3,12.2l0,0l1.2,0.4l0.2,1.3l0,0l10.4,54.2
		l-21.8,29.7l1.9,1.4l20.9-28.4l0,0l0.7-0.9l52.8,18v1.1v54.4l-53.3,17l-20-27.8l-1.9,1.4l19.2,26.8l-37.8,3.4l2.4,11.4l36.2-12
		l2.2,0.5l0.3-1.3l1.1-0.4l0.1,0v0l52.5-16.8l2.8,2l-1.1,0.9l1.4,2l1.6-1.4l6,4.4l-3.4,2.9l1.4,2l3.8-3.2l-1.2-1.2l30.4,22.1
		l18.3-2.9l0,0l39.9-6.3l0,0l2-0.3l0,0v0l0.7-0.1l0.3-0.6l0,0l15-32.8l-2.2-1L279.5,204.5z M124.6,107.8L124.6,107.8l-10.4-54
		L156.6,17l0.1-0.1l1.2,0.4l0,0l50.7,17.6l0,0l1.2,0.4l10.7,55.3l-42.5,36.5l-53.1-18.1L124.6,107.8z M178.2,185.8L178.2,185.8
		L178.2,185.8L178.2,185.8z"/>
	<polygon points="109,245.7 118.3,247.7 118.6,245.3 109.7,243.3 	"/>
	<polygon points="106.1,254.9 117,257.2 117.3,254.8 106.8,252.5 	"/>
	<polygon points="111.8,236.5 119.6,238.1 119.9,235.7 112.5,234.1 	"/>
	<polygon points="117.5,218 122.2,219.1 122.6,216.7 118.2,215.7 	"/>
	<polygon points="123.9,207.1 121,206.5 120.3,208.8 123.6,209.5 	"/>
	<polygon points="114.6,227.2 120.9,228.6 121.2,226.2 115.3,224.9 	"/>
	<polygon points="144.2,321.8 152.4,323.6 152.7,321.2 145,319.5 	"/>
	<polygon points="154.5,301.9 151.3,301.3 150.6,303.5 154.2,304.4 	"/>
	<polygon points="141,330.9 151.6,333.3 151.8,330.8 141.8,328.7 	"/>
	<polygon points="147.4,312.7 153.4,314 153.6,311.6 148.2,310.4 	"/>
	<polygon points="214.8,230.8 207.6,278.6 207.6,278.6 207.4,279.9 206.2,280.2 206.2,280.2 153.9,296.9 153,296.1 153,296.1 
		111.8,258.7 110.2,260.5 152.8,299.1 153.3,299.7 154,299.4 154,299.4 208.8,281.9 208.8,281.9 209.6,281.7 209.7,280.9 
		217.2,231.2 	"/>
	<rect x="183.3" y="253.3" transform="matrix(0.1494 -0.9888 0.9888 0.1494 -78.796 417.4759)" width="39.9" height="2.4"/>
	<rect x="10.4" y="58.9" transform="matrix(0.7554 -0.6553 0.6553 0.7554 -32.3191 33.6947)" width="37.1" height="2.4"/>
	<path d="M103.3,156.2c0-7.8-4.6-15-13.7-15c-9.1,0-13.7,7.2-13.7,15s4.6,15,13.7,15C98.7,171.1,103.3,164,103.3,156.2z M79.8,156.2
		c0-5.8,2.9-11.8,9.9-11.8c7,0,9.9,6,9.9,11.8s-2.9,11.8-9.9,11.8C82.7,167.9,79.8,161.9,79.8,156.2z"/>
	<polygon points="74.4,212.3 59.3,212.3 59.3,200.1 55.5,200.1 55.5,228.6 59.3,228.6 59.3,215.5 74.4,215.5 74.4,228.6 78.2,228.6 
		78.2,200.1 74.4,200.1 	"/>
	<polygon points="311.5,162.8 311.4,162.8 296.4,139.7 292.4,139.7 292.4,168.2 296,168.2 296,145.3 296,145.3 311,168.2 
		315.1,168.2 315.1,139.7 311.5,139.7 	"/>
	<path d="M72.2,34.2c0-7.8-4.6-15-13.7-15s-13.7,7.2-13.7,15s4.6,15,13.7,15S72.2,42,72.2,34.2z M48.6,34.2c0-5.8,2.9-11.8,9.9-11.8
		c7,0,9.9,6,9.9,11.8S65.4,46,58.5,46C51.5,46,48.6,40,48.6,34.2z"/>
	<path d="M141.4,339.3c-9.1,0-13.7,7.2-13.7,15c0,7.8,4.6,15,13.7,15c9.1,0,13.7-7.2,13.7-15C155.1,346.5,150.5,339.3,141.4,339.3z
		 M141.4,366c-7,0-9.9-6-9.9-11.8c0-5.8,2.9-11.8,9.9-11.8c7,0,9.9,6,9.9,11.8C151.3,360,148.4,366,141.4,366z"/>
	<polygon points="119.9,352.3 104.9,352.3 104.9,340 101.1,340 101.1,368.5 104.9,368.5 104.9,355.5 119.9,355.5 119.9,368.5 
		123.7,368.5 123.7,340 119.9,340 	"/>
</g>
</svg>
