<?xml version="1.0" standalone="no" ?>
<!DOCTYPE svg PUBLIC "-//W3C//DTD SVG 1.1//EN" "http://www.w3.org/Graphics/SVG/1.1/DTD/svg11.dtd">
<svg width="540px" height="285px" viewBox="0 0 108 57" style="" xmlns="http://www.w3.org/2000/svg" xmlns:xlink="http://www.w3.org/1999/xlink" version="1.1" >
<text x="0" y="0" stroke="transparent" fill="#000000" transform="matrix(0.05 0 0 0.05 36.8019 54.0042)" style="font:normal normal normal 200px 'Arial'" >
Cl</text>
<text x="0" y="0" stroke="transparent" fill="#000000" transform="matrix(0.05 0 0 0.05 11.8604 10.8042)" style="font:normal normal normal 200px 'Arial'" >
Cl</text>
<text x="0" y="0" stroke="transparent" fill="#000000" transform="matrix(0.05 0 0 0.05 74.2142 46.8042)" style="font:normal normal normal 200px 'Arial'" >
NH</text>
<text x="0" y="0" stroke="transparent" fill="#000000" transform="matrix(0.05 0 0 0.05 86.685 25.2042)" style="font:normal normal normal 200px 'Arial'" >
NH</text>
<text x="0" y="0" stroke="transparent" fill="#000000" transform="matrix(0.05 0 0 0.05 101.128 26.8153)" style="font:normal normal normal 150px 'Arial'" >
2</text>
<text x="0" y="0" stroke="transparent" fill="#000000" transform="matrix(0.05 0 0 0.05 61.7435 16.6625)" style="font:normal normal normal 200px 'Arial'" >
H</text>
<text x="0" y="0" stroke="transparent" fill="#000000" transform="matrix(0.05 0 0 0.05 61.7435 25.2042)" style="font:normal normal normal 200px 'Arial'" >
N</text>
<text x="0" y="0" stroke="transparent" fill="#000000" transform="matrix(0.05 0 0 0.05 48.9944 46.8042)" style="font:normal normal normal 200px 'Arial'" >
O</text>
<path stroke="transparent" fill="#000000" transform="matrix(0.05 0 0 0.05 -435 -238)" d="M 8754.01,5630.1 L 8766.01,5623.17 L 9009.43,5763.71 L 9009.43,5777.57 L 8754.01,5630.1 Z " />
<path stroke="transparent" fill="#000000" transform="matrix(0.05 0 0 0.05 -435 -238)" d="M 8766.01,5623.17 L 8754.01,5630.1 L 8754.01,5335.17 L 8766.01,5342.1 L 8766.01,5623.17 Z " />
<path stroke="transparent" fill="#000000" transform="matrix(0.05 0 0 0.05 -435 -238)" d="M 8817.85,5596.71 L 8805.85,5596.71 L 8805.85,5368.57 L 8817.85,5368.57 L 8817.85,5596.71 Z " />
<path stroke="transparent" fill="#000000" transform="matrix(0.05 0 0 0.05 -435 -238)" d="M 9508.26,5187.71 L 9508.26,5201.57 L 9264.84,5342.1 L 9258.84,5338.64 L 9258.84,5331.71 L 9508.26,5187.71 Z " />
<path stroke="transparent" fill="#000000" transform="matrix(0.05 0 0 0.05 -435 -238)" d="M 9009.43,5777.57 L 9009.43,5763.71 L 9252.84,5623.17 L 9258.84,5626.64 L 9258.84,5633.57 L 9009.43,5777.57 Z " />
<path stroke="transparent" fill="#000000" transform="matrix(0.05 0 0 0.05 -435 -238)" d="M 9012.43,5715.98 L 9006.43,5705.58 L 9204,5591.51 L 9210,5601.91 L 9012.43,5715.98 Z " />
<path stroke="transparent" fill="#000000" transform="matrix(0.05 0 0 0.05 -435 -238)" d="M 9252.84,5342.1 L 9258.84,5338.64 L 9264.84,5342.1 L 9264.84,5623.17 L 9258.84,5626.64 L 9252.84,5623.17 L 9252.84,5342.1 Z " />
<path stroke="transparent" fill="#000000" transform="matrix(0.05 0 0 0.05 -435 -238)" d="M 8766.01,5342.1 L 8754.01,5335.17 L 9003.43,5191.17 L 9009.43,5194.64 L 9009.43,5201.57 L 8766.01,5342.1 Z " />
<path stroke="transparent" fill="#000000" transform="matrix(0.05 0 0 0.05 -435 -238)" d="M 9258.84,5331.71 L 9258.84,5338.64 L 9252.84,5342.1 L 9009.43,5201.57 L 9009.43,5194.64 L 9015.43,5191.17 L 9258.84,5331.71 Z " />
<path stroke="transparent" fill="#000000" transform="matrix(0.05 0 0 0.05 -435 -238)" d="M 9210,5363.37 L 9204,5373.76 L 9006.43,5259.69 L 9012.43,5249.3 L 9210,5363.37 Z " />
<path stroke="transparent" fill="#000000" transform="matrix(0.05 0 0 0.05 -435 -238)" d="M 9508.26,5201.57 L 9508.26,5187.71 L 9757.67,5331.71 L 9757.67,5345.57 L 9508.26,5201.57 Z " />
<path stroke="transparent" fill="#000000" transform="matrix(0.05 0 0 0.05 -435 -238)" d="M 9258.84,5633.57 L 9258.84,5626.64 L 9264.84,5623.17 L 9423.66,5714.87 L 9417.66,5725.26 L 9258.84,5633.57 Z " />
<path stroke="transparent" fill="#000000" transform="matrix(0.05 0 0 0.05 -435 -238)" d="M 9015.43,5191.17 L 9009.43,5194.64 L 9003.43,5191.17 L 9003.43,5010.25 L 9015.43,5010.25 L 9015.43,5191.17 Z " />
<path stroke="transparent" fill="#000000" transform="matrix(0.05 0 0 0.05 -435 -238)" d="M 10224.6,5323.67 L 10236.6,5323.67 L 10236.6,5520.25 L 10224.6,5520.25 L 10224.6,5323.67 Z " />
<path stroke="transparent" fill="#000000" transform="matrix(0.05 0 0 0.05 -435 -238)" d="M 10276.4,5323.67 L 10288.4,5323.67 L 10288.4,5520.25 L 10276.4,5520.25 L 10276.4,5323.67 Z " />
<path stroke="transparent" fill="#000000" transform="matrix(0.05 0 0 0.05 -435 -238)" d="M 10256.5,5345.57 L 10256.5,5331.71 L 10402.3,5247.55 L 10408.3,5257.95 L 10256.5,5345.57 Z " />
<path stroke="transparent" fill="#000000" transform="matrix(0.05 0 0 0.05 -435 -238)" d="M 9757.67,5345.57 L 9757.67,5331.71 L 9903.36,5247.6 L 9909.36,5257.99 L 9757.67,5345.57 Z " />
<path stroke="transparent" fill="#000000" transform="matrix(0.05 0 0 0.05 -435 -238)" d="M 10256.5,5331.71 L 10256.5,5345.57 L 10103.4,5257.18 L 10109.4,5246.79 L 10256.5,5331.71 Z " />
<path stroke="transparent" fill="#000000" transform="matrix(0.05 0 0 0.05 -435 -238)" d="M 9725.75,5323.67 L 9737.75,5323.67 L 9737.75,5518.25 L 9725.75,5518.25 L 9725.75,5323.67 Z " />
<path stroke="transparent" fill="#000000" transform="matrix(0.05 0 0 0.05 -435 -238)" d="M 9777.59,5323.67 L 9789.59,5323.67 L 9789.59,5518.25 L 9777.59,5518.25 L 9777.59,5323.67 Z " />
</svg>
