<?xml version="1.0" encoding="iso-8859-1"?>
<!-- Generator: Adobe Illustrator 19.1.0, SVG Export Plug-In . SVG Version: 6.00 Build 0)  -->
<svg version="1.1" id="&#x421;&#x43B;&#x43E;&#x439;_1"
	 xmlns="http://www.w3.org/2000/svg" xmlns:xlink="http://www.w3.org/1999/xlink" x="0px" y="0px" viewBox="0 0 666.794 429.477"
	 style="enable-background:new 0 0 666.794 429.477;" xml:space="preserve" width="666.794" height="429.477">
<g>
	<rect x="81.985" y="321.267" width="2" height="45.628"/>
	<rect x="141.258" y="355.488" transform="matrix(-0.4996 -0.8663 0.8663 -0.4996 -114.3773 690.5333)" width="2" height="45.628"/>
	<rect x="119.444" y="308.86" transform="matrix(-0.866 -0.5 0.5 -0.866 110.5259 649.3354)" width="45.628" height="2"/>
	<path d="M371.915,314.126l-47.651-27.511l-1.732-1l-0.5-0.288l-0.5,0.288l-1.732,1l-47.651,27.511l-43.699-25.23v-41.173h-2v40.018
		l-3.685-2.127l-0.5-0.288l-0.5,0.288l-1.732,1l-1.952,1.127v-40.018h-2v41.173l-43.699,25.23l-47.651-27.511l-1.732-1l-0.5-0.288
		l-0.5,0.288l-1.732,1l-48.151,27.8l-0.5,0.288v0.579v2v53.6v1.423l-1.232,0.711l-34.644,20.002l0.999,1.733l35.877-20.714
		l49.383,28.512l0.5,0.288l0.5-0.288l49.883-28.8l0.5-0.288v-0.579v-2v-53.6v-1.423l48.883-28.223l1.232,0.712l46.419,26.8l1.732,1
		l0.5,0.288l0.5-0.288l49.383-28.511l47.651,27.511l1.732,1l0.5,0.288l0.5-0.288l33.091-19.105l-0.999-1.732L371.915,314.126z
		 M171.383,317.281v53.6v1.423l-1.232,0.711L122.5,400.526l-48.883-28.223v-1.423v-53.6v-1.423l1.232-0.711l47.651-27.511
		l47.651,27.511l1.232,0.711V317.281z"/>
	<rect x="556.351" y="167.63" width="45.628" height="2"/>
	<rect x="590.572" y="108.357" transform="matrix(-0.5 -0.866 0.866 -0.5 825.3723 695.2437)" width="45.628" height="2"/>
	<rect x="522.13" y="108.357" transform="matrix(0.5 -0.866 0.866 0.5 177.7663 526.6146)" width="45.628" height="2"/>
	<polygon points="14.179,415.304 17.695,415.304 17.695,403.097 30.175,403.097 30.175,399.972 17.695,399.972 17.695,390.285 
		31.289,390.285 31.289,387.121 14.179,387.121 	"/>
	<path d="M222.266,243.207c7.988,0,12.988-5.606,12.988-14.551c0-8.945-5-14.57-12.988-14.57s-12.988,5.625-12.988,14.57
		C209.278,237.602,214.278,243.207,222.266,243.207z M222.266,217.328c5.762,0,9.375,4.375,9.375,11.328
		c0,6.934-3.613,11.309-9.375,11.309s-9.375-4.375-9.375-11.309C212.891,221.703,216.505,217.328,222.266,217.328z"/>
	<polygon points="429.572,294.049 429.396,294.049 413.967,271.92 410.549,271.92 410.549,300.104 414.025,300.104 414.025,278.053 
		414.201,278.053 429.631,300.104 433.049,300.104 433.049,271.92 429.572,271.92 	"/>
	<path d="M579.165,214.086c-7.988,0-12.988,5.625-12.988,14.57c0,8.945,5,14.551,12.988,14.551c7.988,0,12.988-5.606,12.988-14.551
		C592.153,219.711,587.153,214.086,579.165,214.086z M579.165,239.965c-5.762,0-9.375-4.375-9.375-11.309
		c0-6.953,3.613-11.328,9.375-11.328c5.762,0,9.375,4.375,9.375,11.328C588.54,235.59,584.926,239.965,579.165,239.965z"/>
	<polygon points="615.137,226.742 599.669,226.742 599.669,214.555 596.153,214.555 596.153,242.739 599.669,242.739 
		599.669,229.907 615.137,229.907 615.137,242.739 618.653,242.739 618.653,214.555 615.137,214.555 	"/>
	<path d="M636.631,126.883l-26.8-46.419h0l-0.712-1.232L627.03,48.21l-1.733-0.999l-17.91,31.021h-1.423h-53.6h-2l-0.577-0.001
		l-0.289,0.501l-1,1.732h0l-26.8,46.419l0,0l-1,1.732l-0.288,0.499l0.288,0.5l1,1.732h0l27.512,47.651l-28.011,48.517l-47.285-27.3
		l-1.732-1l-0.499-0.288l-0.5,0.288l-1.732,1l-48.151,27.8l-0.5,0.287v0.579v2v34.64h2v-34.64v-1.423l1.232-0.711l47.651-27.512
		l48.883,28.223v55.023v1.423l-48.883,28.223l-32.591-18.816l-0.999,1.732l31.358,18.105l1.732,1l0.5,0.288l0.499-0.288l1.732-1
		l46.419-26.8l1.732-1l0.501-0.287v-0.579v-2v-54.6h39.066v-2h-38.334l26.934-46.651h0l0.711-1.232h1.423h53.6h2l0.577,0.001
		l0.289-0.501l28.8-49.883l0.288-0.5l-0.288-0.499L636.631,126.883z M521.565,228.881L521.565,228.881L521.565,228.881
		L521.565,228.881z M634.898,130.348l-27.511,47.651h-1.423h-53.6h-1.423l-28.223-48.883l28.223-48.883h1.423l55.023,0
		l27.511,47.651h0l0.712,1.233L634.898,130.348L634.898,130.348z"/>
	<path d="M633.61,18.177c4.023,0,7.246,2.422,8.145,6.113h3.555c-0.898-5.625-5.566-9.356-11.699-9.356
		c-7.715,0-12.695,5.703-12.695,14.551c0,8.926,4.922,14.57,12.695,14.57c6.23,0,10.41-3.105,11.699-8.672h-3.555
		c-1.016,3.438-3.984,5.43-8.125,5.43c-5.566,0-9.102-4.414-9.102-11.328C624.528,22.63,628.103,18.177,633.61,18.177z"/>
	<rect x="649.216" y="14.173" width="3.398" height="29.414"/>
</g>
</svg>
