<svg id="0" version="1.0" viewBox="0 0 1146.5128 671.96356" xmlns="http://www.w3.org/2000/svg" xmlns:svg="http://www.w3.org/2000/svg" width="1146.5128" height="671.96356">
  <g id="1" transform="matrix(2.546025,0,0,2.546025,-610.15489,-298.43293)">
    <path d="m310.6,227.35,0-38.05" fill="none" id="2" stroke="#000" stroke-linecap="butt" stroke-linejoin="miter" stroke-miterlimit="4" stroke-width="0.80000001px" style="stroke-dasharray:none;"/>
    <path d="m311.45,228.1-1.7,0.95,0-41.45,1.7,1,0,39.5z" fill="#000" fill-rule="evenodd" id="3"/>
    <path d="m317.9,223.15,0-29.65" fill="none" id="4" stroke="#000" stroke-linecap="butt" stroke-linejoin="miter" stroke-miterlimit="4" stroke-width="0.80000001px" style="stroke-dasharray:none;"/>
    <path d="m317.05,192.3,0,32.05,1.7,0,0-32.05-1.7,0z" fill="#000" fill-rule="evenodd" id="5"/>
    <path d="M344.45,247.6,311.8,229.75" fill="none" id="6" stroke="#000" stroke-linecap="butt" stroke-linejoin="miter" stroke-miterlimit="4" stroke-width="0.80000001px" style="stroke-dasharray:none;"/>
    <path d="m345.65,247.85,0,0.95-0.85,0.5-35.05-20.25,1.7-0.95,34.2,19.75z" fill="#000" fill-rule="evenodd" id="7"/>
    <path d="M379.5,229.75,346.85,247.6" fill="none" id="8" stroke="#000" stroke-linecap="butt" stroke-linejoin="miter" stroke-miterlimit="4" stroke-width="0.80000001px" style="stroke-dasharray:none;"/>
    <path d="m379.85,228.1,1.7,0.95-35.05,20.25-0.85-0.5,0-0.95,34.2-19.75z" fill="#000" fill-rule="evenodd" id="9"/>
    <path d="M372.2,225.55,346.85,239.2" fill="none" id="10" stroke="#000" stroke-linecap="butt" stroke-linejoin="miter" stroke-miterlimit="4" stroke-width="0.80000001px" style="stroke-dasharray:none;"/>
    <path d="m373,223.65,0.85,1.45-27.8,16.05-0.8-1.5,27.75-16z" fill="#000" fill-rule="evenodd" id="11"/>
    <path d="m380.7,189.3,0,38.05" fill="none" id="12" stroke="#000" stroke-linecap="butt" stroke-linejoin="miter" stroke-miterlimit="4" stroke-width="0.80000001px" style="stroke-dasharray:none;"/>
    <path d="m379.85,188.6,1.7-1,0,41.45-1.7-0.95,0-39.5z" fill="#000" fill-rule="evenodd" id="13"/>
    <path d="M346.85,169.05,379.5,186.9" fill="none" id="14" stroke="#000" stroke-linecap="butt" stroke-linejoin="miter" stroke-miterlimit="4" stroke-width="0.80000001px" style="stroke-dasharray:none;"/>
    <path d="m345.65,168.85,0-1,0.85-0.45,35.05,20.2-1.7,1-34.2-19.75z" fill="#000" fill-rule="evenodd" id="15"/>
    <path d="M346.85,177.45,372.2,191.1" fill="none" id="16" stroke="#000" stroke-linecap="butt" stroke-linejoin="miter" stroke-miterlimit="4" stroke-width="0.80000001px" style="stroke-dasharray:none;"/>
    <path d="m345.25,177,0.8-1.45,27.8,16.05l-0.85,1.45-27.75-16.05z" fill="#000" fill-rule="evenodd" id="17"/>
    <path d="m311.8,186.9,32.65-17.85" fill="none" id="18" stroke="#000" stroke-linecap="butt" stroke-linejoin="miter" stroke-miterlimit="4" stroke-width="0.80000001px" style="stroke-dasharray:none;"/>
    <path d="m311.45,188.6-1.7-1,35.05-20.2,0.85,0.45,0,1-34.2,19.75z" fill="#000" fill-rule="evenodd" id="19"/>
    <path d="m345.65,288.1,0-38.1" fill="none" id="20" stroke="#000" stroke-linecap="butt" stroke-linejoin="miter" stroke-miterlimit="4" stroke-width="0.80000001px" style="stroke-dasharray:none;"/>
    <path d="m346.5,288.8-0.85,0.5-0.85-0.5,0-39.5,0.85-0.5,0.85,0.5,0,39.5z" fill="#000" fill-rule="evenodd" id="21"/>
    <path d="m311.8,308.3,32.65-17.8" fill="none" id="22" stroke="#000" stroke-linecap="butt" stroke-linejoin="miter" stroke-miterlimit="4" stroke-width="0.80000001px" style="stroke-dasharray:none;"/>
    <path d="m311.45,310-0.85-0.5,0-0.95,34.2-19.75,0.85,0.5,0,0.95-34.2,19.75z" fill="#000" fill-rule="evenodd" id="23"/>
    <text fill="#000000" font-family="Arial" font-size="28px" font-style="normal" font-weight="normal" id="24" style="text-anchor:start;text-align:start;" x="371.20001" xml:space="preserve" y="320">N</text>
    <path d="M365.5,300.25,346.85,290.5" fill="none" id="25" stroke="#000" stroke-linecap="butt" stroke-linejoin="miter" stroke-miterlimit="4" stroke-width="0.80000001px" style="stroke-dasharray:none;"/>
    <path d="m367.1,300.7-0.85,1.45-20.6-11.9,0-0.95,0.85-0.5,20.6,11.9z" fill="#000" fill-rule="evenodd" id="26"/>
    <path d="m276.75,290.5,32.65,17.8" fill="none" id="27" stroke="#000" stroke-linecap="butt" stroke-linejoin="miter" stroke-miterlimit="4" stroke-width="0.80000001px" style="stroke-dasharray:none;"/>
    <path d="m275.55,290.25,0-1.95,35.05,20.25,0,0.95-0.85,0.5-34.2-19.75z" fill="#000" fill-rule="evenodd" id="28"/>
    <path d="m276.75,298.9,25.35,13.65" fill="none" id="29" stroke="#000" stroke-linecap="butt" stroke-linejoin="miter" stroke-miterlimit="4" stroke-width="0.80000001px" style="stroke-dasharray:none;"/>
    <path d="m275.15,298.45,0.8-1.5,27.8,16.05-0.85,1.45-27.75-16z" fill="#000" fill-rule="evenodd" id="30"/>
    <path d="m241.7,308.3,32.65-17.8" fill="none" id="31" stroke="#000" stroke-linecap="butt" stroke-linejoin="miter" stroke-miterlimit="4" stroke-width="0.80000001px" style="stroke-dasharray:none;"/>
    <path d="m241.35,310-1.7-0.95,35.9-20.75,0,1.95-34.2,19.75z" fill="#000" fill-rule="evenodd" id="32"/>
    <path d="m240.5,348.8,0-38.1" fill="none" id="33" stroke="#000" stroke-linecap="butt" stroke-linejoin="miter" stroke-miterlimit="4" stroke-width="0.80000001px" style="stroke-dasharray:none;"/>
    <path d="m241.35,349.5-1.7,1,0-41.45,1.7,0.95,0,39.5z" fill="#000" fill-rule="evenodd" id="34"/>
    <path d="m247.8,344.6,0-29.65" fill="none" id="35" stroke="#000" stroke-linecap="butt" stroke-linejoin="miter" stroke-miterlimit="4" stroke-width="0.80000001px" style="stroke-dasharray:none;"/>
    <path d="m246.95,313.75,0,32.05,1.7,0,0-32.05-1.7,0z" fill="#000" fill-rule="evenodd" id="36"/>
    <path d="M274.35,369.05,241.7,351.2" fill="none" id="37" stroke="#000" stroke-linecap="butt" stroke-linejoin="miter" stroke-miterlimit="4" stroke-width="0.80000001px" style="stroke-dasharray:none;"/>
    <path d="m275.55,369.25,0,1.95-35.9-20.7,1.7-1,34.2,19.75z" fill="#000" fill-rule="evenodd" id="38"/>
    <path d="m309.4,351.2-32.65,17.85" fill="none" id="39" stroke="#000" stroke-linecap="butt" stroke-linejoin="miter" stroke-miterlimit="4" stroke-width="0.80000001px" style="stroke-dasharray:none;"/>
    <path d="m309.75,349.5,1.7,1-35.9,20.7,0-1.95,34.2-19.75z" fill="#000" fill-rule="evenodd" id="40"/>
    <path d="m302.1,347-25.35,13.6" fill="none" id="41" stroke="#000" stroke-linecap="butt" stroke-linejoin="miter" stroke-miterlimit="4" stroke-width="0.80000001px" style="stroke-dasharray:none;"/>
    <path d="m302.9,345.05,0.85,1.45-27.8,16.05-0.8-1.45,27.75-16.05z" fill="#000" fill-rule="evenodd" id="42"/>
    <path d="m310.6,310.7,0,38.1" fill="none" id="43" stroke="#000" stroke-linecap="butt" stroke-linejoin="miter" stroke-miterlimit="4" stroke-width="0.80000001px" style="stroke-dasharray:none;"/>
    <path d="m309.75,310,0.85-0.5,0.85,0.5,0,40.5-1.7-1,0-39.5z" fill="#000" fill-rule="evenodd" id="44"/>
    <text fill="#000000" font-family="Arial" font-size="28px" font-style="normal" font-weight="normal" id="45" style="text-anchor:start;text-align:start;" x="335.20001" xml:space="preserve" y="137.60001">C</text>
    <text fill="#000000" font-family="Arial" font-size="28px" font-style="normal" font-weight="normal" id="46" style="text-anchor:start;text-align:start;" x="355.20001" xml:space="preserve" y="137.60001">l</text>
    <path d="m345.65,142.95,0,23.7" fill="none" id="47" stroke="#000" stroke-linecap="butt" stroke-linejoin="miter" stroke-miterlimit="4" stroke-width="0.80000001px" style="stroke-dasharray:none;"/>
    <path d="m344.8,141.75,1.7,0,0,25.65-0.85,0.45-0.85-0.45,0-25.65z" fill="#000" fill-rule="evenodd" id="48"/>
    <text fill="#000000" font-family="Arial" font-size="28px" font-style="normal" font-weight="normal" id="49" style="text-anchor:start;text-align:start;" x="440.79999" xml:space="preserve" y="360.79999">N</text>
    <path d="m380.7,348.8,0-24.2" fill="none" id="50" stroke="#000" stroke-linecap="butt" stroke-linejoin="miter" stroke-miterlimit="4" stroke-width="0.80000001px" style="stroke-dasharray:none;"/>
    <path d="m381.55,349.5-1.7,1,0-27.1,1.7,0,0,26.1z" fill="#000" fill-rule="evenodd" id="51"/>
    <path d="M414.55,369.05,381.9,351.2" fill="none" id="52" stroke="#000" stroke-linecap="butt" stroke-linejoin="miter" stroke-miterlimit="4" stroke-width="0.80000001px" style="stroke-dasharray:none;"/>
    <path d="m415.75,369.25,0,1.95-35.9-20.7,1.7-1,34.2,19.75z" fill="#000" fill-rule="evenodd" id="53"/>
    <path d="m434.55,359.9-17.6,9.15" fill="none" id="54" stroke="#000" stroke-linecap="butt" stroke-linejoin="miter" stroke-miterlimit="4" stroke-width="0.80000001px" style="stroke-dasharray:none;"/>
    <path d="m435.3,357.95,0.85,1.45-20.4,11.8,0-1.95,19.55-11.3z" fill="#000" fill-rule="evenodd" id="55"/>
    <path d="m450.8,310.7,0,21.25" fill="none" id="56" stroke="#000" stroke-linecap="butt" stroke-linejoin="miter" stroke-miterlimit="4" stroke-width="0.80000001px" style="stroke-dasharray:none;"/>
    <path d="m449.95,310,1.7-0.95,0,24.1-1.7,0,0-23.15z" fill="#000" fill-rule="evenodd" id="57"/>
    <path d="m416.95,290.5,32.65,17.8" fill="none" id="58" stroke="#000" stroke-linecap="butt" stroke-linejoin="miter" stroke-miterlimit="4" stroke-width="0.80000001px" style="stroke-dasharray:none;"/>
    <path d="m415.75,290.25,0-1.95,35.9,20.75-1.7,0.95-34.2-19.75z" fill="#000" fill-rule="evenodd" id="59"/>
    <path d="m394.9,300.8,19.65-10.3" fill="none" id="60" stroke="#000" stroke-linecap="butt" stroke-linejoin="miter" stroke-miterlimit="4" stroke-width="0.80000001px" style="stroke-dasharray:none;"/>
    <path d="m394.15,302.75-0.85-1.45,22.45-13,0,1.95-21.6,12.5z" fill="#000" fill-rule="evenodd" id="61"/>
    <path d="m484.6,369-18.55-9.7" fill="none" id="62" stroke="#000" stroke-linecap="butt" stroke-linejoin="miter" stroke-miterlimit="4" stroke-width="0.80000001px" style="stroke-dasharray:none;"/>
    <path d="m485.8,369.25,0,1.95-21.35-12.35,0.85-1.5,20.5,11.9z" fill="#000" fill-rule="evenodd" id="63"/>
    <path d="M519.65,351.2,487,369" fill="none" id="64" stroke="#000" stroke-linecap="butt" stroke-linejoin="miter" stroke-miterlimit="4" stroke-width="0.80000001px" style="stroke-dasharray:none;"/>
    <path d="m520.85,349,0,1.95-35.05,20.25,0-1.95,35.05-20.25z" fill="#000" fill-rule="evenodd" id="65"/>
    <text fill="#000000" font-family="Arial" font-size="28px" font-style="normal" font-weight="normal" id="66" style="text-anchor:start;text-align:start;" x="544.79999" xml:space="preserve" y="380.79999">O</text>
    <path d="M541.3,361.3,522.05,351.2" fill="none" id="67" stroke="#000" stroke-linecap="butt" stroke-linejoin="miter" stroke-miterlimit="4" stroke-width="0.80000001px" style="stroke-dasharray:none;"/>
    <path d="m542.9,361.8-0.8,1.45-21.25-12.3,0-1.95,22.05,12.8z" fill="#000" fill-rule="evenodd" id="68"/>
    <path d="M589.65,351.2,569.15,362" fill="none" id="69" stroke="#000" stroke-linecap="butt" stroke-linejoin="miter" stroke-miterlimit="4" stroke-width="0.80000001px" style="stroke-dasharray:none;"/>
    <path d="m590.85,349,0,1.95-22.45,13-0.85-1.5,23.3-13.45z" fill="#000" fill-rule="evenodd" id="70"/>
    <path d="m624.65,369-32.6-17.8" fill="none" id="71" stroke="#000" stroke-linecap="butt" stroke-linejoin="miter" stroke-miterlimit="4" stroke-width="0.80000001px" style="stroke-dasharray:none;"/>
    <path d="m625.85,369.25,0,1.95-35-20.25,0-1.95,35,20.25z" fill="#000" fill-rule="evenodd" id="72"/>
    <text fill="#000000" font-family="Arial" font-size="28px" font-style="normal" font-weight="normal" id="73" style="text-anchor:start;text-align:start;" x="649.59998" xml:space="preserve" y="360.79999">O</text>
    <text fill="#000000" font-family="Arial" font-size="28px" font-style="normal" font-weight="normal" id="74" style="text-anchor:start;text-align:start;" x="672" xml:space="preserve" y="360.79999">H</text>
    <path d="M646.45,358.8,627.05,369" fill="none" id="75" stroke="#000" stroke-linecap="butt" stroke-linejoin="miter" stroke-miterlimit="4" stroke-width="0.80000001px" style="stroke-dasharray:none;"/>
    <path d="m647.25,356.9,0.85,1.45-22.25,12.85,0-1.95,21.4-12.35z" fill="#000" fill-rule="evenodd" id="76"/>
  </g>
</svg>