<?xml version="1.0" encoding="iso-8859-1"?>
<!-- Generator: Adobe Illustrator 19.1.0, SVG Export Plug-In . SVG Version: 6.00 Build 0)  -->
<svg version="1.1" id="&#x421;&#x43B;&#x43E;&#x439;_1"
	 xmlns="http://www.w3.org/2000/svg" xmlns:xlink="http://www.w3.org/1999/xlink" x="0px" y="0px" viewBox="0 0 862.724 392.06"
	 style="enable-background:new 0 0 862.724 392.06;" xml:space="preserve" width="862.724" height="392.06">
<g>
	<path d="M397.808,257.365v1.307l-1.132,0.653l-47.552,27.454l-48.683-28.107v-54.907v-1.307l48.683-28.107l1.133,0.654
		l31.358,18.105l1.199-2.079l-33.091-19.105l-0.599-0.346l-0.6,0.346l-48.151,27.8l0,0l-1.732,1l-0.6,0.345v0.694v2v54.907
		l-47.55,27.453l0,0l-1.27,0.733l-53.765-17.469l-22.397-50.305l0,0l-0.814-1.827l-0.281-0.632l-0.688-0.073l-1.989-0.209v0
		l-53.306-5.603v0l-1.989-0.209l-0.689-0.074l-0.409,0.562l-1.176,1.618l0,0l-32.274,44.421l-1.299-0.137v0l-41.434-4.355
		l-0.254,2.387l41.435,4.355v0l1.301,0.137l22.333,50.16l0,0l0.814,1.827l0.281,0.632l0.688,0.073l1.989,0.209v0l54.766,5.756
		l21.168,29.135l1.941-1.412l-20.968-28.861l0.663-0.912l0,0l31.505-43.363l0.663-0.913l53.122,17.26v1.128v34.639h2.4v-34.639
		v-1.307l48.683-28.107l49.284,28.454l0.599,0.346l0.6-0.346l49.883-28.8l0.601-0.345v-0.694v-2v-35.577h-2.4V257.365z
		 M192.432,271.277l-32.274,44.421l-54.605-5.739v0l-1.301-0.137l-0.532-1.194l0,0l-22.333-50.16l0.768-1.057l0,0l31.505-43.363
		l0.769-1.058l55.906,5.876l0.532,1.194l0,0l22.333,50.16L192.432,271.277L192.432,271.277z M299.242,259.365L299.242,259.365
		L299.242,259.365L299.242,259.365z"/>
	<rect x="237.791" y="294.151" width="2.4" height="30.653"/>
	<rect x="221.071" y="344.314" transform="matrix(-0.3093 -0.951 0.951 -0.3093 -46.1544 675.6096)" width="2.4" height="20.504"/>
	<rect x="150.578" y="247.072" transform="matrix(-0.4067 -0.9135 0.9135 -0.4067 17.1098 507.6556)" width="45.628" height="2.4"/>
	<polygon points="110.347,302.451 155.725,307.221 155.979,304.834 110.601,300.065 	"/>
	<rect x="82.511" y="239.918" transform="matrix(0.5878 -0.809 0.809 0.5878 -151.6521 184.602)" width="45.628" height="2.4"/>
	<rect x="657.591" y="121.351" width="2.4" height="45.628"/>
	<rect x="695.249" y="108.743" transform="matrix(0.866 0.5 -0.5 0.866 151.1741 -344.3022)" width="45.628" height="2.4"/>
	<rect x="716.864" y="155.572" transform="matrix(-0.4996 -0.8663 0.8663 -0.4996 922.269 889.5375)" width="2.4" height="45.628"/>
	<rect x="597.34" y="28.965" width="2.4" height="36.405"/>
	<path d="M804.456,88.865V47.807h-2.4v39.672l-3.384-1.954l-0.6-0.346l-0.599,0.346l-3.384,1.954V47.807h-2.4v41.057l-42.367,24.46
		l-1.133,0.654l-1.133-0.654l-48.151-27.8l-0.599-0.346l-0.6,0.346l-49.284,28.454L614.511,94.4l-1.199,2.079l33.911,19.578v1.307
		l0,54.907l-1.132,0.653l-30.026,17.335l1.199,2.079l31.158-17.989l49.284,28.454l0.6,0.346l0.599-0.346l48.151-27.8l0,0l1.732-1
		l0.6-0.345v-0.694v-2l0-54.907l1.132-0.653l0,0l47.552-27.454l49.284,28.454l1.199-2.079L804.456,88.865z M745.858,172.925
		l-47.552,27.454l-48.683-28.107v-1.307l0-54.907l1.132-0.653l0,0l47.552-27.454l1.133,0.654l46.419,26.8l0,0l1.132,0.653l0,56.214
		L745.858,172.925z"/>
	<polygon points="548.657,171.579 548.057,171.925 499.906,199.725 499.906,199.725 498.774,200.379 497.641,199.725 
		497.641,199.725 449.49,171.925 448.891,171.579 448.291,171.925 415.201,191.03 416.4,193.109 448.891,174.35 496.442,201.804 
		498.174,202.804 498.774,203.15 499.373,202.804 501.105,201.804 548.657,174.35 582.481,193.879 583.68,191.8 549.256,171.925 	
		"/>
	<path d="M598.54,186.97c-7.988,0-12.988,5.625-12.988,14.57c0,8.945,5,14.551,12.988,14.551c7.988,0,12.988-5.606,12.988-14.551
		C611.528,192.595,606.528,186.97,598.54,186.97z M598.54,212.849c-5.762,0-9.375-4.375-9.375-11.309
		c0-6.953,3.613-11.328,9.375-11.328c5.762,0,9.375,4.375,9.375,11.328C607.915,208.474,604.302,212.849,598.54,212.849z"/>
	<polygon points="406.781,209.333 406.605,209.333 391.176,187.204 387.758,187.204 387.758,215.388 391.234,215.388 
		391.234,193.337 391.41,193.337 406.84,215.388 410.258,215.388 410.258,187.204 406.781,187.204 	"/>
	<polygon points="257.132,353.333 256.956,353.333 241.526,331.204 238.109,331.204 238.109,359.388 241.585,359.388 
		241.585,337.337 241.761,337.337 257.191,359.388 260.609,359.388 260.609,331.204 257.132,331.204 	"/>
	<path d="M194.578,348.769c-7.988,0-12.988,5.625-12.988,14.57s5,14.551,12.988,14.551c7.988,0,12.988-5.605,12.988-14.551
		S202.566,348.769,194.578,348.769z M194.578,374.648c-5.762,0-9.375-4.375-9.375-11.309c0-6.953,3.613-11.328,9.375-11.328
		c5.762,0,9.375,4.375,9.375,11.328C203.953,370.273,200.339,374.648,194.578,374.648z"/>
	<polygon points="14.17,265.926 17.685,265.926 17.685,253.719 30.166,253.719 30.166,250.594 17.685,250.594 17.685,240.906 
		31.279,240.906 31.279,237.742 14.17,237.742 	"/>
	<path d="M598.54,100.891c7.988,0,12.988-5.605,12.988-14.551c0-8.945-5-14.57-12.988-14.57c-7.988,0-12.988,5.625-12.988,14.57
		C585.552,95.285,590.552,100.891,598.54,100.891z M598.54,75.012c5.762,0,9.375,4.375,9.375,11.328
		c0,6.933-3.613,11.309-9.375,11.309c-5.762,0-9.375-4.375-9.375-11.309C589.165,79.387,592.778,75.012,598.54,75.012z"/>
	<path d="M798.072,43.291c7.988,0,12.988-5.605,12.988-14.551s-5-14.57-12.988-14.57c-7.988,0-12.988,5.625-12.988,14.57
		S790.084,43.291,798.072,43.291z M798.072,17.412c5.762,0,9.375,4.375,9.375,11.328c0,6.934-3.613,11.309-9.375,11.309
		c-5.762,0-9.375-4.375-9.375-11.309C788.697,21.787,792.31,17.412,798.072,17.412z"/>
</g>
</svg>
