<?xml version="1.0" encoding="UTF-8" standalone="no"?>
<!-- Created with Inkscape (http://www.inkscape.org/) -->

<svg
   xmlns:svg="http://www.w3.org/2000/svg"
   xmlns="http://www.w3.org/2000/svg"
   version="1.1"
   width="1359.6399"
   height="1489.3143"
   id="svg1901">
  <defs
     id="defs1903" />
  <g
     transform="translate(318.11691,286.72773)"
     id="layer1">
    <g
       transform="matrix(3.8824669,0,0,3.8824669,-1140.4234,-373.11262)"
       id="1-5">
      <text
         x="372"
         y="176"
         id="2-4"
         xml:space="preserve"
         style="font-size:42.40000153px;font-style:normal;font-weight:normal;text-align:start;text-anchor:start;fill:#000000;font-family:Arial">N</text>
      <path
         d="m 357.25,23.55 59.35,0"
         id="3-1"
         style="fill:none;stroke:#000000;stroke-width:0.80000001px;stroke-linecap:butt;stroke-linejoin:miter;stroke-miterlimit:4;stroke-opacity:1;stroke-dasharray:none" />
      <path
         d="m 356.65,24.85 -1.25,-2.6 63,0 -1.2,2.6 -60.55,0 z"
         id="4-2"
         style="fill:#000000;fill-opacity:1;fill-rule:evenodd;stroke:none" />
      <path
         d="m 318.75,70.65 36.1,-45.9"
         id="5-0"
         style="fill:none;stroke:#000000;stroke-width:0.80000001px;stroke-linecap:butt;stroke-linejoin:miter;stroke-miterlimit:4;stroke-opacity:1;stroke-dasharray:none" />
      <path
         d="m 318.9,72.15 -1.35,-0.3 -0.5,-1.5 38.35,-48.1 1.25,2.6 -37.75,47.3 z"
         id="6-0"
         style="fill:#000000;fill-opacity:1;fill-rule:evenodd;stroke:none" />
      <path
         d="m 331.25,130.85 -13.7,-57.8"
         id="7-1"
         style="fill:none;stroke:#000000;stroke-width:0.80000001px;stroke-linecap:butt;stroke-linejoin:miter;stroke-miterlimit:4;stroke-opacity:1;stroke-dasharray:none" />
      <path
         d="m 332.4,131.15 -1.15,0.9 -1.4,-0.45 -13.4,-58.75 1.1,-1 1.35,0.3 13.5,59 z"
         id="8-4"
         style="fill:#000000;fill-opacity:1;fill-rule:evenodd;stroke:none" />
      <path
         d="M 319,127.05 308.1,81.75"
         id="9-6"
         style="fill:none;stroke:#000000;stroke-width:0.80000001px;stroke-linecap:butt;stroke-linejoin:miter;stroke-miterlimit:4;stroke-opacity:1;stroke-dasharray:none" />
      <path
         d="m 320.25,127.95 -2.5,0.6 -10.9,-47.7 2.55,-0.55 10.85,47.65 z"
         id="10-0"
         style="fill:#000000;fill-opacity:1;fill-rule:evenodd;stroke:none" />
      <path
         d="m 363.85,148.3 -31.4,-16.25"
         id="11-7"
         style="fill:none;stroke:#000000;stroke-width:0.80000001px;stroke-linecap:butt;stroke-linejoin:miter;stroke-miterlimit:4;stroke-opacity:1;stroke-dasharray:none" />
      <path
         d="m 365.6,147.15 -1.1,2.3 -33,-15.85 -0.25,-1.55 1.15,-0.9 33.2,16 z"
         id="12-1"
         style="fill:#000000;fill-opacity:1;fill-rule:evenodd;stroke:none" />
      <path
         d="m 441.35,132.05 -32.45,16.8"
         id="13-7"
         style="fill:none;stroke:#000000;stroke-width:0.80000001px;stroke-linecap:butt;stroke-linejoin:miter;stroke-miterlimit:4;stroke-opacity:1;stroke-dasharray:none" />
      <path
         d="m 441.45,131.15 1.1,0.9 -0.2,1.55 -34.1,16.4 -1.1,-2.3 34.3,-16.55 z"
         id="14-7"
         style="fill:#000000;fill-opacity:1;fill-rule:evenodd;stroke:none" />
      <path
         d="m 456.3,73.05 -13.75,57.8"
         id="15-7"
         style="fill:none;stroke:#000000;stroke-width:0.80000001px;stroke-linecap:butt;stroke-linejoin:miter;stroke-miterlimit:4;stroke-opacity:1;stroke-dasharray:none" />
      <path
         d="m 454.9,72.15 1.4,-0.3 1.1,1 -13.4,58.75 -1.45,0.45 -1.1,-0.9 13.45,-59 z"
         id="16-7"
         style="fill:#000000;fill-opacity:1;fill-rule:evenodd;stroke:none" />
      <path
         d="m 465.7,81.75 -10.85,45.3"
         id="17-3"
         style="fill:none;stroke:#000000;stroke-width:0.80000001px;stroke-linecap:butt;stroke-linejoin:miter;stroke-miterlimit:4;stroke-opacity:1;stroke-dasharray:none" />
      <path
         d="m 464.45,80.3 2.5,0.55 -10.85,47.7 -2.5,-0.6 10.85,-47.65 z"
         id="18-3"
         style="fill:#000000;fill-opacity:1;fill-rule:evenodd;stroke:none" />
      <path
         d="m 419,24.75 36.1,45.9"
         id="19-5"
         style="fill:none;stroke:#000000;stroke-width:0.80000001px;stroke-linecap:butt;stroke-linejoin:miter;stroke-miterlimit:4;stroke-opacity:1;stroke-dasharray:none" />
      <path
         d="m 417.2,24.85 1.2,-2.6 38.35,48.1 -0.45,1.5 -1.4,0.3 -37.7,-47.3 z"
         id="20-9"
         style="fill:#000000;fill-opacity:1;fill-rule:evenodd;stroke:none" />
      <path
         d="m 259.7,53.65 56.65,18.2"
         id="21-9"
         style="fill:none;stroke:#000000;stroke-width:0.80000001px;stroke-linecap:butt;stroke-linejoin:miter;stroke-miterlimit:4;stroke-opacity:1;stroke-dasharray:none" />
      <path
         d="m 258.85,55.05 -0.65,-2.85 58.85,18.15 0.5,1.5 -1.1,1 -57.6,-17.8 z"
         id="22-8"
         style="fill:#000000;fill-opacity:1;fill-rule:evenodd;stroke:none" />
      <path
         d="M 214.45,94.45 257.3,54.85"
         id="23-1"
         style="fill:none;stroke:#000000;stroke-width:0.80000001px;stroke-linecap:butt;stroke-linejoin:miter;stroke-miterlimit:4;stroke-opacity:1;stroke-dasharray:none" />
      <path
         d="m 214.65,96.05 -2.85,-0.85 46.4,-43 0.65,2.85 -44.2,41 z"
         id="24-8"
         style="fill:#000000;fill-opacity:1;fill-rule:evenodd;stroke:none" />
      <path
         d="M 226.7,98.2 260.15,67.35"
         id="25-2"
         style="fill:none;stroke:#000000;stroke-width:0.80000001px;stroke-linecap:butt;stroke-linejoin:miter;stroke-miterlimit:4;stroke-opacity:1;stroke-dasharray:none" />
      <path
         d="m 226.4,100.35 -1.75,-1.9 35.85,-33.25 1.75,1.9 -35.85,33.25 z"
         id="26-6"
         style="fill:#000000;fill-opacity:1;fill-rule:evenodd;stroke:none" />
      <path
         d="M 227,154.65 213.25,96.85"
         id="27-6"
         style="fill:none;stroke:#000000;stroke-width:0.80000001px;stroke-linecap:butt;stroke-linejoin:miter;stroke-miterlimit:4;stroke-opacity:1;stroke-dasharray:none" />
      <path
         d="m 228.05,154.85 -2.15,2 -14.1,-61.65 2.85,0.85 13.4,58.8 z"
         id="28-0"
         style="fill:#000000;fill-opacity:1;fill-rule:evenodd;stroke:none" />
      <path
         d="m 284.8,174.05 -56.6,-18.2"
         id="29-3"
         style="fill:none;stroke:#000000;stroke-width:0.80000001px;stroke-linecap:butt;stroke-linejoin:miter;stroke-miterlimit:4;stroke-opacity:1;stroke-dasharray:none" />
      <path
         d="m 285.65,172.6 0.7,2.9 -60.45,-18.65 2.15,-2 57.6,17.75 z"
         id="30-8"
         style="fill:#000000;fill-opacity:1;fill-rule:evenodd;stroke:none" />
      <path
         d="M 281.95,161.55 237.6,147.1"
         id="31-0"
         style="fill:none;stroke:#000000;stroke-width:0.80000001px;stroke-linecap:butt;stroke-linejoin:miter;stroke-miterlimit:4;stroke-opacity:1;stroke-dasharray:none" />
      <path
         d="m 283.5,160.3 -0.75,2.45 -46.75,-14.4 0.75,-2.45 46.75,14.4 z"
         id="32-1"
         style="fill:#000000;fill-opacity:1;fill-rule:evenodd;stroke:none" />
      <path
         d="m 330.05,133.25 -42.85,39.6"
         id="33-2"
         style="fill:none;stroke:#000000;stroke-width:0.80000001px;stroke-linecap:butt;stroke-linejoin:miter;stroke-miterlimit:4;stroke-opacity:1;stroke-dasharray:none" />
      <path
         d="m 329.85,131.6 1.4,0.45 0.25,1.55 -45.15,41.9 -0.7,-2.9 44.2,-41 z"
         id="34-5"
         style="fill:#000000;fill-opacity:1;fill-rule:evenodd;stroke:none" />
      <path
         d="m 486.65,172.85 -42.9,-39.6"
         id="35-0"
         style="fill:none;stroke:#000000;stroke-width:0.80000001px;stroke-linecap:butt;stroke-linejoin:miter;stroke-miterlimit:4;stroke-opacity:1;stroke-dasharray:none" />
      <path
         d="m 488.15,172.6 -0.65,2.9 -45.15,-41.9 0.2,-1.55 1.45,-0.45 44.15,41 z"
         id="36-9"
         style="fill:#000000;fill-opacity:1;fill-rule:evenodd;stroke:none" />
      <path
         d="m 545.65,155.85 -56.6,18.2"
         id="37-4"
         style="fill:none;stroke:#000000;stroke-width:0.80000001px;stroke-linecap:butt;stroke-linejoin:miter;stroke-miterlimit:4;stroke-opacity:1;stroke-dasharray:none" />
      <path
         d="m 545.75,154.85 2.2,2 -60.45,18.65 0.65,-2.9 57.6,-17.75 z"
         id="38-7"
         style="fill:#000000;fill-opacity:1;fill-rule:evenodd;stroke:none" />
      <path
         d="M 536.25,147.1 491.9,161.55"
         id="39-8"
         style="fill:none;stroke:#000000;stroke-width:0.80000001px;stroke-linecap:butt;stroke-linejoin:miter;stroke-miterlimit:4;stroke-opacity:1;stroke-dasharray:none" />
      <path
         d="m 537.05,145.9 0.8,2.45 -46.75,14.4 -0.8,-2.45 46.75,-14.4 z"
         id="40-3"
         style="fill:#000000;fill-opacity:1;fill-rule:evenodd;stroke:none" />
      <path
         d="m 560.6,96.85 -13.75,57.8"
         id="41-5"
         style="fill:none;stroke:#000000;stroke-width:0.80000001px;stroke-linecap:butt;stroke-linejoin:miter;stroke-miterlimit:4;stroke-opacity:1;stroke-dasharray:none" />
      <path
         d="m 559.2,96.05 2.8,-0.85 -14.05,61.65 -2.2,-2 13.45,-58.8 z"
         id="42-1"
         style="fill:#000000;fill-opacity:1;fill-rule:evenodd;stroke:none" />
      <path
         d="m 516.55,54.85 42.85,39.6"
         id="43-2"
         style="fill:none;stroke:#000000;stroke-width:0.80000001px;stroke-linecap:butt;stroke-linejoin:miter;stroke-miterlimit:4;stroke-opacity:1;stroke-dasharray:none" />
      <path
         d="m 515,55.05 0.65,-2.85 46.35,43 -2.8,0.85 -44.2,-41 z"
         id="44"
         style="fill:#000000;fill-opacity:1;fill-rule:evenodd;stroke:none" />
      <path
         d="m 513.65,67.35 33.5,30.85"
         id="45"
         style="fill:none;stroke:#000000;stroke-width:0.80000001px;stroke-linecap:butt;stroke-linejoin:miter;stroke-miterlimit:4;stroke-opacity:1;stroke-dasharray:none" />
      <path
         d="m 511.6,67.1 1.75,-1.9 35.85,33.25 -1.75,1.9 L 511.6,67.1 z"
         id="46"
         style="fill:#000000;fill-opacity:1;fill-rule:evenodd;stroke:none" />
      <path
         d="m 457.5,71.85 56.65,-18.2"
         id="47"
         style="fill:none;stroke:#000000;stroke-width:0.80000001px;stroke-linecap:butt;stroke-linejoin:miter;stroke-miterlimit:4;stroke-opacity:1;stroke-dasharray:none" />
      <path
         d="m 457.4,72.85 -1.1,-1 0.45,-1.5 58.9,-18.15 -0.65,2.85 -57.6,17.8 z"
         id="48"
         style="fill:#000000;fill-opacity:1;fill-rule:evenodd;stroke:none" />
      <path
         d="m 386.9,219.4 0,-35.9"
         id="49"
         style="fill:none;stroke:#000000;stroke-width:0.80000001px;stroke-linecap:butt;stroke-linejoin:miter;stroke-miterlimit:4;stroke-opacity:1;stroke-dasharray:none" />
      <path
         d="m 388.2,219.85 -2.55,1.5 0,-39.05 2.55,0 0,37.55 z"
         id="50"
         style="fill:#000000;fill-opacity:1;fill-rule:evenodd;stroke:none" />
      <path
         d="M 439.2,250.25 388.1,221.8"
         id="51"
         style="fill:none;stroke:#000000;stroke-width:0.80000001px;stroke-linecap:butt;stroke-linejoin:miter;stroke-miterlimit:4;stroke-opacity:1;stroke-dasharray:none" />
      <path
         d="m 441.7,250.75 -2.6,1.45 -53.45,-30.85 2.55,-1.5 53.5,30.9 z"
         id="52"
         style="fill:#000000;fill-opacity:1;fill-rule:evenodd;stroke:none" />
      <path
         d="m 440.4,312 0,-59.35"
         id="53"
         style="fill:none;stroke:#000000;stroke-width:0.80000001px;stroke-linecap:butt;stroke-linejoin:miter;stroke-miterlimit:4;stroke-opacity:1;stroke-dasharray:none" />
      <path
         d="m 441.7,312.5 -2.6,1.45 0,-61.75 2.6,-1.45 0,61.75 z"
         id="54"
         style="fill:#000000;fill-opacity:1;fill-rule:evenodd;stroke:none" />
      <text
         x="478.39999"
         y="361.60001"
         id="55"
         xml:space="preserve"
         style="font-size:42.40000153px;font-style:normal;font-weight:normal;text-align:start;text-anchor:start;fill:#000000;font-family:Arial">N</text>
      <path
         d="M 470.65,330.2 441.6,314.4"
         id="56"
         style="fill:none;stroke:#000000;stroke-width:0.80000001px;stroke-linecap:butt;stroke-linejoin:miter;stroke-miterlimit:4;stroke-opacity:1;stroke-dasharray:none" />
      <path
         d="m 472.5,330.25 -1.3,2.25 -32.1,-18.55 2.6,-1.45 30.8,17.75 z"
         id="57"
         style="fill:#000000;fill-opacity:1;fill-rule:evenodd;stroke:none" />
      <path
         d="m 493.9,404.65 0,-35.1"
         id="58"
         style="fill:none;stroke:#000000;stroke-width:0.80000001px;stroke-linecap:butt;stroke-linejoin:miter;stroke-miterlimit:4;stroke-opacity:1;stroke-dasharray:none" />
      <path
         d="m 492.6,368.35 0,37.5 2.55,0 0,-37.5 -2.55,0 z"
         id="59"
         style="fill:#000000;fill-opacity:1;fill-rule:evenodd;stroke:none" />
      <path
         d="M 546.15,314.4 516.1,330.75"
         id="60"
         style="fill:none;stroke:#000000;stroke-width:0.80000001px;stroke-linecap:butt;stroke-linejoin:miter;stroke-miterlimit:4;stroke-opacity:1;stroke-dasharray:none" />
      <path
         d="m 546.7,312.1 1.3,2.25 -32.45,18.75 -1.3,-2.25 32.45,-18.75 z"
         id="61"
         style="fill:#000000;fill-opacity:1;fill-rule:evenodd;stroke:none" />
    </g>
  </g>
</svg>
