<?xml version="1.0" encoding="utf-8"?>
<!-- Generator: Adobe Illustrator 27.0.0, SVG Export Plug-In . SVG Version: 6.00 Build 0)  -->
<svg version="1.1" id="Слой_1" xmlns="http://www.w3.org/2000/svg" xmlns:xlink="http://www.w3.org/1999/xlink" x="0px" y="0px"
	 viewBox="0 0 528.38 215.03" style="enable-background:new 0 0 528.38 215.03;" xml:space="preserve" width="528.38" height="215.03">
<style type="text/css">
	.st0{fill:none;}
</style>
<g>
	<rect x="24.54" y="119.06" width="2.4" height="45.63"/>
	<rect x="62.2" y="174.89" transform="matrix(0.8662 -0.4997 0.4997 0.8662 -76.6171 66.0425)" width="45.63" height="2.4"/>
	<rect x="83.82" y="84.84" transform="matrix(0.5 -0.866 0.866 0.5 -50.7194 127.4522)" width="2.4" height="45.63"/>
	<path d="M115.14,111.69l-49.88-28.8l-51.08,29.49v58.98l51.08,29.49l51.08-29.49v-57.6l48.68-28.11l28.97,16.73l1.2-2.08
		l-30.17-17.42L115.14,111.69z M65.26,198.08l-48.68-28.11v-56.22l48.68-28.11l48.68,28.11v56.22L65.26,198.08z"/>
	<polygon points="207.14,105.02 222.18,127.52 226.07,127.52 226.07,98.88 222.44,98.88 222.44,121.37 207.4,98.88 203.51,98.88 
		203.51,127.52 207.14,127.52 	"/>
	<polygon points="222.34,145.97 207.46,145.97 207.46,134.22 203.67,134.22 203.67,162.85 207.46,162.85 207.46,149.35 
		222.34,149.35 222.34,162.85 226.13,162.85 226.13,134.22 222.34,134.22 	"/>
	<polygon points="272.22,46.51 257.34,46.51 257.34,34.75 253.55,34.75 253.55,63.38 257.34,63.38 257.34,49.89 272.22,49.89 
		272.22,63.38 276.01,63.38 276.01,34.75 272.22,34.75 	"/>
	<polygon points="272.32,92.56 257.28,70.08 253.39,70.08 253.39,98.71 257.03,98.71 257.03,76.21 272.07,98.71 275.95,98.71 
		275.95,70.08 272.32,70.08 	"/>
	<rect x="234.27" y="97.54" transform="matrix(0.8659 -0.5002 0.5002 0.8659 -17.2487 133.1393)" width="10.9" height="2.4"/>
	<path d="M321.91,157.87c-2.12-1.26-4.51-1.89-7.15-1.89c-4.04,0-7.33,1.34-9.88,4.04c-2.55,2.69-3.83,6.41-3.83,11.16
		c0,2.52,0.55,4.9,1.64,7.15c1.09,2.25,2.7,4.03,4.82,5.33c2.12,1.3,4.53,1.95,7.23,1.95c2.48,0,4.8-0.59,6.95-1.77
		c2.15-1.18,3.81-2.91,4.98-5.21c1.17-2.29,1.76-4.89,1.76-7.79c0-2.86-0.56-5.43-1.67-7.68
		C325.65,160.89,324.03,159.13,321.91,157.87z M321.76,179.35c-1.84,2.01-4.19,3.01-7.04,3.01c-2.8,0-5.13-0.99-6.98-2.98
		c-1.86-1.99-2.78-4.7-2.78-8.16c0-4.31,0.96-7.39,2.9-9.23c1.93-1.84,4.24-2.77,6.93-2.77c1.89,0,3.59,0.48,5.11,1.44
		c1.52,0.96,2.67,2.3,3.46,4.04c0.79,1.74,1.18,3.77,1.18,6.1C324.53,174.51,323.61,177.35,321.76,179.35z"/>
	<path d="M434.1,41.85c2.12,1.3,4.53,1.95,7.23,1.95c2.48,0,4.8-0.59,6.95-1.77s3.81-2.91,4.98-5.21s1.76-4.89,1.76-7.79
		c0-2.87-0.56-5.43-1.67-7.69s-2.73-4.02-4.85-5.28c-2.12-1.26-4.51-1.89-7.15-1.89c-4.04,0-7.33,1.34-9.88,4.03
		c-2.55,2.69-3.83,6.41-3.83,11.16c0,2.51,0.55,4.9,1.64,7.15S431.98,40.55,434.1,41.85z M434.44,20.2
		c1.93-1.84,4.24-2.76,6.93-2.76c1.89,0,3.59,0.48,5.11,1.44c1.52,0.96,2.67,2.3,3.46,4.04c0.79,1.74,1.18,3.77,1.18,6.1
		c0,3.69-0.92,6.53-2.77,8.54c-1.84,2.01-4.19,3.01-7.04,3.01c-2.8,0-5.13-0.99-6.98-2.98s-2.78-4.7-2.78-8.15
		C431.54,25.12,432.51,22.04,434.44,20.2z"/>
	<polygon points="375.89,20.81 390.93,43.31 394.82,43.31 394.82,14.68 391.19,14.68 391.19,37.16 376.15,14.68 372.26,14.68 
		372.26,43.31 375.89,43.31 	"/>
	<rect x="401.21" y="27.67" width="19.89" height="2.4"/>
	<rect x="368.88" y="65.88" transform="matrix(0.309 -0.951 0.951 0.309 200.2488 409.7881)" width="26.52" height="2.4"/>
	<rect x="408.4" y="90.99" transform="matrix(0.809 -0.5878 0.5878 0.809 27.8678 270.1535)" width="42.53" height="2.4"/>
	<polygon points="460.01,82.7 448.99,48.78 446.71,49.52 457.65,83.19 412.46,116.02 367.27,83.19 377.52,51.64 375.24,50.9 
		364.86,82.84 314.67,111.69 285.53,94.86 284.33,96.94 308.29,110.77 308.29,149.38 310.69,149.38 310.69,112.16 314.67,114.45 
		318.66,112.16 318.66,149.38 321.06,149.38 321.06,110.78 365.78,85.08 412.46,118.99 459.27,84.98 513.47,102.59 514.21,100.31 	
		"/>
</g>
</svg>
