<?xml version="1.0" encoding="UTF-8" standalone="no"?>
<svg
   xmlns:dc="http://purl.org/dc/elements/1.1/"
   xmlns:cc="http://creativecommons.org/ns#"
   xmlns:rdf="http://www.w3.org/1999/02/22-rdf-syntax-ns#"
   xmlns:svg="http://www.w3.org/2000/svg"
   xmlns="http://www.w3.org/2000/svg"
   width="596.04401"
   stroke-miterlimit="10"
   font-weight="normal"
   height="636.0127"
   font-style="normal"
   font-size="12px"
   version="1.1"
   id="svg98"
   style="font-style:normal;font-weight:normal;font-size:12px;font-family:Dialog;color-interpolation:auto;fill:#000000;fill-opacity:1;stroke:#000000;stroke-width:1;stroke-linecap:square;stroke-linejoin:miter;stroke-miterlimit:10;stroke-dasharray:none;stroke-dashoffset:0;stroke-opacity:1;color-rendering:auto;image-rendering:auto;shape-rendering:auto;text-rendering:auto"
   >
  <!--Generated by Marvin with Batik SVG Generator
MolSource:
<?xml version="1.0" encoding="UTF-8"?><cml xmlns="http://www.chemaxon.com" xmlns:xsi="http://www.w3.org/2001/XMLSchema-instance" xsi:schemaLocation="http://www.chemaxon.com/marvin/schema/mrvSchema_16_02_15.xsd" version="ChemAxon file format v16.02.15, generated by v17.21.0">
<MDocument><MChemicalStruct><molecule molID="m1"><propertyList><property dictRef="type" title="type"><scalar>common</scalar></property></propertyList><atomArray atomID="a1 a2 a3 a4 a5 a6 a7 a8 a9 a10 a11 a12 a13 a14 a15 a16" elementType="C N C C C C C C O C C C C C C Cl" x2="1.860390142549576 1.3336791218280442 2.3235720407453133 3.6572511625733517 3.6572511625733495 2.3235720407453124 0.989892918917278 0.9898929189172785 -0.34378620291075634 3.3134649596625856 4.83007229597084 5.8199869932510175 5.2932943542229385 3.7766870179146834 2.786772320634507 5.356792507507224" y2="0.6771266360102994 -0.7699999999999985 -1.9497084424032232 -2.7197084424032294 -4.259708442403229 -5.029708442403227 -4.259708442403225 -2.719708442403225 -1.9497084424032243 -0.7699999999999982 -1.0373989294219026 0.14233546742355507 1.5894687936909175 1.8568677231128214 0.6771333262673638 -2.484522220216114"></atomArray><bondArray><bond id="b1" atomRefs2="a1 a2" order="1"></bond><bond id="b2" atomRefs2="a2 a3" order="1"></bond><bond id="b3" atomRefs2="a3 a4" order="1"></bond><bond id="b4" atomRefs2="a4 a5" order="1"></bond><bond id="b5" atomRefs2="a5 a6" order="1"></bond><bond id="b6" atomRefs2="a6 a7" order="1"></bond><bond id="b7" atomRefs2="a7 a8" order="1"></bond><bond id="b8" atomRefs2="a3 a8" order="1"></bond><bond id="b9" atomRefs2="a8 a9" order="2"></bond><bond id="b10" atomRefs2="a3 a10" order="1"></bond><bond id="b11" atomRefs2="a11 a12" order="2"></bond><bond id="b12" atomRefs2="a12 a13" order="1"></bond><bond id="b13" atomRefs2="a13 a14" order="2"></bond><bond id="b14" atomRefs2="a14 a15" order="1"></bond><bond id="b15" atomRefs2="a10 a11" order="1"></bond><bond id="b16" atomRefs2="a10 a15" order="2"></bond><bond id="b17" atomRefs2="a11 a16" order="1"></bond></bondArray></molecule></MChemicalStruct></MDocument>
</cml>
-->
  <defs
     id="genericDefs" />
  <g
     id="g96"
     transform="translate(-10.035994,-9.4775749)">
    <defs
       id="id_30066757307-defs1">
      <clipPath
         clipPathUnits="userSpaceOnUse"
         id="id_30066757474-clipPath1">
        <path
           d="M 0,0 H 615 V 655 H 0 Z"
           id="path3"
            />
      </clipPath>
      <clipPath
         clipPathUnits="userSpaceOnUse"
         id="id_300667578-clipPath1">
        <path
           d="m -111.1901,-192.2862 h 615 v 655 h -615 z"
           id="path6"
            />
      </clipPath>
      <clipPath
         clipPathUnits="userSpaceOnUse"
         id="id_30066757858-clipPath1">
        <path
           d="m -4.6649,-300.2226 h 615 v 655 h -615 z"
           id="path9"
            />
      </clipPath>
      <clipPath
         clipPathUnits="userSpaceOnUse"
         id="id_30066757397-clipPath1">
        <path
           d="m -521.3126,-349.155 h 615 v 655 h -615 z"
           id="path12"
            />
      </clipPath>
    </defs>
    <g
       id="g18"
       style="text-rendering:geometricPrecision">
      <path
         d="m 243.6204,121.3967 v 0 l -29.4731,80.9769 c -0.5601,1.5388 -2.2616,2.3322 -3.8004,1.7721 -1.5388,-0.5601 -2.3323,-2.2616 -1.7722,-3.8004 v 0 l 29.4732,-80.9768 c 0.5601,-1.5388 2.2616,-2.3323 3.8004,-1.7722 1.5388,0.5601 2.3322,2.2616 1.7721,3.8004 z"
         clip-path="url(#id_30066757474-clipPath1)"
         id="path16"
         
         style="stroke:none" />
    </g>
    <g
       id="g22"
       style="text-rendering:geometricPrecision">
      <path
         d="m 233.3227,296.6533 v 0 l 52.1613,62.1634 c 1.0526,1.2545 0.889,3.1247 -0.3655,4.1773 -1.2544,1.0526 -3.1247,0.889 -4.1773,-0.3655 v 0 l -52.1613,-62.1634 c -1.0526,-1.2544 -0.889,-3.1246 0.3655,-4.1773 1.2544,-1.0526 3.1247,-0.8889 4.1773,0.3655 z"
         clip-path="url(#id_30066757474-clipPath1)"
         id="path20"
         
         style="stroke:none" />
    </g>
    <g
       id="g26"
       style="text-rendering:geometricPrecision">
      <path
         d="m 284.6951,358.1548 v 0 l 122.0239,70.4505 c 1.4181,0.8188 1.904,2.6322 1.0853,4.0504 -0.8188,1.4182 -2.6322,1.9041 -4.0504,1.0853 v 0 L 281.73,363.2905 c -1.4181,-0.8188 -1.904,-2.6322 -1.0853,-4.0504 0.8188,-1.4182 2.6322,-1.9041 4.0504,-1.0853 z"
         clip-path="url(#id_30066757474-clipPath1)"
         id="path24"
         
         style="stroke:none" />
    </g>
    <g
       id="g30"
       style="text-rendering:geometricPrecision">
      <path
         d="m 408.2015,431.1731 v 0 140.901 c 0,1.6376 -1.3275,2.9651 -2.9651,2.9651 -1.6376,0 -2.9651,-1.3275 -2.9651,-2.9651 v 0 -140.901 c 0,-1.6375 1.3275,-2.9651 2.9651,-2.9651 1.6376,0 2.9651,1.3276 2.9651,2.9651 z"
         clip-path="url(#id_30066757474-clipPath1)"
         id="path28"
         
         style="stroke:none" />
    </g>
    <g
       id="g34"
       style="text-rendering:geometricPrecision">
      <path
         d="m 406.719,574.642 v 0 l -122.0239,70.4505 c -1.4182,0.8188 -3.2316,0.3329 -4.0504,-1.0854 -0.8187,-1.4181 -0.3328,-3.2315 1.0853,-4.0503 v 0 l 122.0239,-70.4505 c 1.4182,-0.8188 3.2316,-0.3329 4.0504,1.0853 0.8187,1.4182 0.3328,3.2316 -1.0853,4.0504 z"
         clip-path="url(#id_30066757474-clipPath1)"
         id="path32"
         
         style="stroke:none" />
    </g>
    <g
       id="g38"
       style="text-rendering:geometricPrecision">
      <path
         d="m 281.73,645.0925 v 0 L 159.7062,574.642 c -1.4182,-0.8188 -1.9041,-2.6322 -1.0853,-4.0504 0.8188,-1.4182 2.6322,-1.9041 4.0504,-1.0853 v 0 l 122.0238,70.4505 c 1.4182,0.8188 1.9041,2.6322 1.0853,4.0503 -0.8188,1.4183 -2.6322,1.9042 -4.0504,1.0854 z"
         clip-path="url(#id_30066757474-clipPath1)"
         id="path36"
         
         style="stroke:none" />
    </g>
    <g
       id="g42"
       style="text-rendering:geometricPrecision">
      <path
         d="m 158.2237,572.0741 v 0 -140.901 c 0,-1.6375 1.3275,-2.9651 2.9651,-2.9651 1.6375,0 2.965,1.3276 2.965,2.9651 v 0 140.901 c 0,1.6376 -1.3275,2.9651 -2.965,2.9651 -1.6376,0 -2.9651,-1.3275 -2.9651,-2.9651 z"
         clip-path="url(#id_30066757474-clipPath1)"
         id="path40"
         
         style="stroke:none" />
    </g>
    <g
       id="g46"
       style="text-rendering:geometricPrecision">
      <path
         d="m 284.6951,363.2905 v 0 L 162.6713,433.741 c -1.4182,0.8188 -3.2316,0.3329 -4.0504,-1.0853 -0.8188,-1.4182 -0.3329,-3.2316 1.0853,-4.0504 v 0 L 281.73,358.1548 c 1.4182,-0.8188 3.2316,-0.3329 4.0504,1.0853 0.8188,1.4182 0.3329,3.2316 -1.0853,4.0504 z"
         clip-path="url(#id_30066757474-clipPath1)"
         id="path44"
         
         style="stroke:none" />
    </g>
    <g
       id="g50"
       style="text-rendering:geometricPrecision">
      <path
         d="m 159.7062,448.5317 c 1.4182,0.8188 3.2316,0.3329 4.0504,-1.0853 0.8188,-1.4181 0.3329,-3.2316 -1.0853,-4.0503 L 76.6152,393.7115 c -1.4181,-0.8187 -3.2316,-0.3328 -4.0504,1.0853 -0.8187,1.4182 -0.3328,3.2316 1.0853,4.0504 z m 12.8092,-22.1861 c 1.4182,0.8188 3.2316,0.3329 4.0504,-1.0853 0.8188,-1.4182 0.3329,-3.2316 -1.0853,-4.0504 L 89.4244,371.5254 c -1.4182,-0.8188 -3.2316,-0.3329 -4.0504,1.0853 -0.8188,1.4182 -0.3329,3.2316 1.0853,4.0504 z"
         clip-path="url(#id_30066757474-clipPath1)"
         id="path48"
         
         style="stroke:none" />
    </g>
    <g
       id="g54"
       style="text-rendering:geometricPrecision">
      <path
         d="m 280.9412,358.8167 v 0 l 90.5694,-107.9364 c 1.0526,-1.2545 2.9229,-1.4181 4.1773,-0.3655 1.2545,1.0526 1.4181,2.9229 0.3655,4.1773 v 0 L 285.484,362.6285 c -1.0526,1.2545 -2.9229,1.4181 -4.1773,0.3655 -1.2545,-1.0526 -1.4181,-2.9228 -0.3655,-4.1773 z"
         clip-path="url(#id_30066757474-clipPath1)"
         id="path52"
         
         style="stroke:none" />
    </g>
    <g
       id="g58"
       style="text-rendering:geometricPrecision">
      <path
         d="m 502.0596,245.2769 c -1.0526,1.2545 -0.889,3.1248 0.3655,4.1774 1.2544,1.0526 3.1247,0.8889 4.1773,-0.3655 l 67.7452,-80.7356 c 1.0526,-1.2544 0.889,-3.1247 -0.3655,-4.1773 -1.2544,-1.0526 -3.1247,-0.889 -4.1773,0.3655 z m 8.2117,30.0688 c -1.0526,1.2545 -0.889,3.1247 0.3655,4.1773 1.2544,1.0527 3.1247,0.889 4.1773,-0.3654 l 90.5714,-107.9388 c 1.0526,-1.2545 0.889,-3.1247 -0.3655,-4.1773 -1.2544,-1.0526 -3.1247,-0.889 -4.1773,0.3654 z"
         clip-path="url(#id_30066757474-clipPath1)"
         id="path56"
         
         style="stroke:none" />
    </g>
    <g
       id="g62"
       style="text-rendering:geometricPrecision">
      <path
         d="m 600.3278,170.3269 v 0 L 552.1385,37.9227 c -0.5601,-1.5388 0.2334,-3.2403 1.7722,-3.8004 1.5388,-0.56 3.2403,0.2334 3.8004,1.7722 v 0 l 48.1893,132.4043 c 0.56,1.5388 -0.2334,3.2403 -1.7722,3.8003 -1.5388,0.5601 -3.2403,-0.2333 -3.8004,-1.7722 z"
         clip-path="url(#id_30066757474-clipPath1)"
         id="path60"
         
         style="stroke:none" />
    </g>
    <g
       id="g66"
       style="text-rendering:geometricPrecision">
      <path
         d="m 532.4751,61.9748 c 1.6127,0.2843 3.1506,-0.7925 3.4349,-2.4052 0.2843,-1.6127 -0.7925,-3.1506 -2.4052,-3.4349 L 429.7166,37.8354 c -1.6127,-0.2844 -3.1505,0.7925 -3.4349,2.4052 -0.2843,1.6127 0.7925,3.1505 2.4052,3.4349 z M 554.41,39.8287 c 1.6126,0.2843 3.1505,-0.7925 3.4348,-2.4052 0.2844,-1.6127 -0.7924,-3.1506 -2.4052,-3.4349 L 416.679,9.5231 c -1.6127,-0.2843 -3.1506,0.7925 -3.435,2.4052 -0.2843,1.6127 0.7926,3.1506 2.4053,3.4349 z"
         clip-path="url(#id_30066757474-clipPath1)"
         id="path64"
         
         style="stroke:none" />
    </g>
    <g
       id="g70"
       style="text-rendering:geometricPrecision">
      <path
         d="m 418.4355,14.3491 v 0 l -90.5714,107.9388 c -1.0526,1.2545 -2.9228,1.4181 -4.1773,0.3655 -1.2545,-1.0526 -1.4181,-2.9229 -0.3655,-4.1773 v 0 L 413.8927,10.5373 c 1.0526,-1.2545 2.9229,-1.4181 4.1773,-0.3655 1.2545,1.0526 1.4181,2.9229 0.3655,4.1773 z"
         clip-path="url(#id_30066757474-clipPath1)"
         id="path68"
         
         style="stroke:none" />
    </g>
    <g
       id="g74"
       style="text-rendering:geometricPrecision">
      <path
         d="m 374.2968,249.8662 v 0 l 138.7608,24.4654 c 1.6126,0.2843 2.6895,1.8222 2.4052,3.4349 -0.2844,1.6127 -1.8222,2.6895 -3.435,2.4052 v 0 L 373.2672,255.7063 c -1.6128,-0.2844 -2.6896,-1.8222 -2.4053,-3.4349 0.2844,-1.6127 1.8222,-2.6896 3.4349,-2.4052 z"
         clip-path="url(#id_30066757474-clipPath1)"
         id="path72"
         
         style="stroke:none" />
    </g>
    <g
       id="g78"
       style="text-rendering:geometricPrecision">
      <path
         d="m 370.9957,253.8003 c 0.5601,1.5388 2.2616,2.3323 3.8004,1.7722 1.5388,-0.5601 2.3323,-2.2616 1.7722,-3.8004 L 328.379,119.3679 c -0.5601,-1.5388 -2.2616,-2.3323 -3.8004,-1.7722 -1.5388,0.5601 -2.3322,2.2615 -1.7722,3.8004 z m 18.0007,-25.4472 c 0.5601,1.5388 2.2616,2.3322 3.8004,1.7722 1.5388,-0.5601 2.3323,-2.2616 1.7722,-3.8004 l -36.0439,-99.0338 c -0.5601,-1.5388 -2.2616,-2.3322 -3.8004,-1.7722 -1.5388,0.5601 -2.3323,2.2616 -1.7722,3.8004 z"
         clip-path="url(#id_30066757474-clipPath1)"
         id="path76"
         
         style="stroke:none" />
    </g>
    <g
       id="g82"
       style="text-rendering:geometricPrecision">
      <path
         d="m 515.329,276.2375 v 0 l 29.2994,80.4979 c 0.5601,1.5388 -0.2333,3.2403 -1.7721,3.8004 -1.5389,0.5601 -3.2403,-0.2333 -3.8005,-1.7721 v 0 l -29.2994,-80.4979 c -0.56,-1.5388 0.2333,-3.2403 1.7722,-3.8004 1.5388,-0.5601 3.2403,0.2333 3.8004,1.7721 z"
         clip-path="url(#id_30066757474-clipPath1)"
         id="path80"
         
         style="stroke:none" />
    </g>
    <g
       font-size="88px"
       transform="translate(111.1901,192.2862)"
       id="g86"
       style="font-size:88px;font-family:'Noto Sans';text-rendering:geometricPrecision">
      <text
         x="0"
         xml:space="preserve"
         y="95"
         clip-path="url(#id_300667578-clipPath1)"
         id="text84"
         style="stroke:none">HN</text>
    </g>
    <g
       font-size="88px"
       transform="translate(4.6649,300.2226)"
       id="g90"
       style="font-size:88px;font-family:'Noto Sans';text-rendering:geometricPrecision">
      <text
         x="0"
         xml:space="preserve"
         y="95"
         clip-path="url(#id_30066757858-clipPath1)"
         id="text88"
         style="stroke:none">O</text>
    </g>
    <g
       font-size="88px"
       transform="translate(521.3126,349.155)"
       id="g94"
       style="font-size:88px;font-family:'Noto Sans';text-rendering:geometricPrecision">
      <text
         x="0"
         xml:space="preserve"
         y="95"
         clip-path="url(#id_30066757397-clipPath1)"
         id="text92"
         style="stroke:none">Cl</text>
    </g>
  </g>
</svg>
