<?xml version="1.0" encoding="UTF-8"?><svg xmlns="http://www.w3.org/2000/svg" xmlns:xlink="http://www.w3.org/1999/xlink" width="201pt" height="161pt" viewBox="0 0 201 161"><g transform="translate(142.65, 71.7998)" style="fill:#161413; fill-rule:nonzero; stroke:none; stroke-width:1.3; stroke-linecap:butt; stroke-linejoin:miter; stroke-dasharray:none;"><path d="M1.3 30.8002C1.3 30.8002 0.65 31.2002 0.65 31.2002C0.65 31.2002 0 30.8002 0 30.8002C0 30.8002 0 0.3506 0 0.3506C0 0.3506 0.65 0 0.65 0C0.65 0 1.3 0.3506 1.3 0.3506C1.3 0.3506 1.3 30.8002 1.3 30.8002Z"/></g><g transform="translate(148.3, 75.0498)" style="fill:#161413; fill-rule:nonzero; stroke:none; stroke-width:1.3; stroke-linecap:butt; stroke-linejoin:miter; stroke-dasharray:none;"><path d="M1.3 24.7002C1.3 24.7002 0 24.7002 0 24.7002C0 24.7002 0 0 0 0C0 0 1.3 0 1.3 0C1.3 0 1.3 24.7002 1.3 24.7002Z"/></g><g transform="translate(143.3, 102.6)" style="fill:#161413; fill-rule:nonzero; stroke:none; stroke-width:1.3; stroke-linecap:butt; stroke-linejoin:miter; stroke-dasharray:none;"><path d="M27.05 15.25C27.05 15.25 27.05 16 27.05 16C27.05 16 26.4 16.4 26.4 16.4C26.4 16.4 0 1.15 0 1.15C0 1.15 0 0.4 0 0.4C0 0.4 0.65 0 0.65 0C0.65 0 27.05 15.25 27.05 15.25Z"/></g><g transform="translate(170.35, 102.6)" style="fill:#161413; fill-rule:nonzero; stroke:none; stroke-width:1.3; stroke-linecap:butt; stroke-linejoin:miter; stroke-dasharray:none;"><path d="M26.35 0C26.35 0 27.65 0.75 27.65 0.75C27.65 0.75 0.65 16.4 0.65 16.4C0.65 16.4 0 16 0 16C0 16 0 15.25 0 15.25C0 15.25 26.35 0 26.35 0Z"/></g><g transform="translate(170, 99.2002)" style="fill:#161413; fill-rule:nonzero; stroke:none; stroke-width:1.3; stroke-linecap:butt; stroke-linejoin:miter; stroke-dasharray:none;"><path d="M21.4 0C21.4 0 22.05 1.0998 22.05 1.0998C22.05 1.0998 0.65 13.4998 0.65 13.4998C0.65 13.4998 0 12.3498 0 12.3498C0 12.3498 21.4 0 21.4 0Z"/></g><g transform="translate(196.7, 71.4004)" style="fill:#161413; fill-rule:nonzero; stroke:none; stroke-width:1.3; stroke-linecap:butt; stroke-linejoin:miter; stroke-dasharray:none;"><path d="M0 0.75C0 0.75 1.3 0 1.3 0C1.3 0 1.3 31.9496 1.3 31.9496C1.3 31.9496 0 31.1996 0 31.1996C0 31.1996 0 0.75 0 0.75Z"/></g><g transform="translate(170.35, 55.4502)" style="fill:#161413; fill-rule:nonzero; stroke:none; stroke-width:1.3; stroke-linecap:butt; stroke-linejoin:miter; stroke-dasharray:none;"><path d="M0 1.5C0 1.5 0 0 0 0C0 0 27.65 15.9502 27.65 15.9502C27.65 15.9502 26.35 16.7002 26.35 16.7002C26.35 16.7002 0 1.5 0 1.5Z"/></g><g transform="translate(170, 62.0996)" style="fill:#161413; fill-rule:nonzero; stroke:none; stroke-width:1.3; stroke-linecap:butt; stroke-linejoin:miter; stroke-dasharray:none;"><path d="M0 1.1504C0 1.1504 0.65 0 0.65 0C0.65 0 22.05 12.3506 22.05 12.3506C22.05 12.3506 21.4 13.5 21.4 13.5C21.4 13.5 0 1.1504 0 1.1504Z"/></g><g transform="translate(143.3, 55.4502)" style="fill:#161413; fill-rule:nonzero; stroke:none; stroke-width:1.3; stroke-linecap:butt; stroke-linejoin:miter; stroke-dasharray:none;"><path d="M0.65 16.7002C0.65 16.7002 0 16.3496 0 16.3496C0 16.3496 0 15.5996 0 15.5996C0 15.5996 27.05 0 27.05 0C27.05 0 27.05 1.5 27.05 1.5C27.05 1.5 0.65 16.7002 0.65 16.7002Z"/></g><g transform="translate(116.3, 55.7998)" style="fill:#161413; fill-rule:nonzero; stroke:none; stroke-width:1.3; stroke-linecap:butt; stroke-linejoin:miter; stroke-dasharray:none;"><path d="M0 1.1504C0 1.1504 0 0.4004 0 0.4004C0 0.4004 0.65 0 0.65 0C0.65 0 27 15.25 27 15.25C27 15.25 27 16 27 16C27 16 26.35 16.3506 26.35 16.3506C26.35 16.3506 0 1.1504 0 1.1504Z"/></g><g transform="translate(83.1465, 2.20215)" style="fill:#161413; fill-rule:evenodd; stroke:none; stroke-width:1.3; stroke-linecap:butt; stroke-linejoin:miter; stroke-dasharray:none;"><path d="M12.3525 0C12.3525 0 10.4453 0 10.4453 0C10.4453 0 10.4453 12.9161 10.4453 12.9161C10.4453 12.9161 2.1894 0 2.1894 0C2.1894 0 0 0 0 0C0 0 0 15.7979 0 15.7979C0 15.7979 1.9072 15.7979 1.9072 15.7979C1.9072 15.7979 1.9072 2.99121 1.9072 2.99121C1.9072 2.99121 10.0771 15.7979 10.0771 15.7979C10.0771 15.7979 12.3525 15.7979 12.3525 15.7979C12.3525 15.7979 12.3525 0 12.3525 0Z"/></g><g transform="translate(56.1465, 48.9521)" style="fill:#161413; fill-rule:evenodd; stroke:none; stroke-width:1.3; stroke-linecap:butt; stroke-linejoin:miter; stroke-dasharray:none;"><path d="M12.3525 0C12.3525 0 10.4453 0 10.4453 0C10.4453 0 10.4453 12.9161 10.4453 12.9161C10.4453 12.9161 2.1894 0 2.1894 0C2.1894 0 0 0 0 0C0 0 0 15.7979 0 15.7979C0 15.7979 1.9072 15.7979 1.9072 15.7979C1.9072 15.7979 1.9072 2.9913 1.9072 2.9913C1.9072 2.9913 10.0771 15.7979 10.0771 15.7979C10.0771 15.7979 12.3525 15.7979 12.3525 15.7979C12.3525 15.7979 12.3525 0 12.3525 0Z"/></g><g transform="translate(83.1465, 64.4521)" style="fill:#161413; fill-rule:evenodd; stroke:none; stroke-width:1.3; stroke-linecap:butt; stroke-linejoin:miter; stroke-dasharray:none;"><path d="M12.3525 0C12.3525 0 10.4453 0 10.4453 0C10.4453 0 10.4453 12.9161 10.4453 12.9161C10.4453 12.9161 2.1894 0 2.1894 0C2.1894 0 0 0 0 0C0 0 0 15.7979 0 15.7979C0 15.7979 1.9072 15.7979 1.9072 15.7979C1.9072 15.7979 1.9072 2.9913 1.9072 2.9913C1.9072 2.9913 10.0771 15.7979 10.0771 15.7979C10.0771 15.7979 12.3525 15.7979 12.3525 15.7979C12.3525 15.7979 12.3525 0 12.3525 0Z"/></g><g transform="translate(115.65, 25)" style="fill:#161413; fill-rule:nonzero; stroke:none; stroke-width:1.3; stroke-linecap:butt; stroke-linejoin:miter; stroke-dasharray:none;"><path d="M0 0.3496C0 0.3496 0.65 0 0.65 0C0.65 0 1.3 0.3496 1.3 0.3496C1.3 0.3496 1.3 30.7998 1.3 30.7998C1.3 30.7998 0.65 31.2002 0.65 31.2002C0.65 31.2002 0 30.7998 0 30.7998C0 30.7998 0 0.3496 0 0.3496Z"/></g><g transform="translate(100.1, 15.25)" style="fill:#161413; fill-rule:nonzero; stroke:none; stroke-width:1.3; stroke-linecap:butt; stroke-linejoin:miter; stroke-dasharray:none;"><path d="M0 1.1504C0 1.1504 0.65 0 0.65 0C0.65 0 16.2 9 16.2 9C16.2 9 16.2 9.75 16.2 9.75C16.2 9.75 15.55 10.0996 15.55 10.0996C15.55 10.0996 0 1.1504 0 1.1504Z"/></g><g transform="translate(97.2998, 20.1504)" style="fill:#161413; fill-rule:nonzero; stroke:none; stroke-width:1.3; stroke-linecap:butt; stroke-linejoin:miter; stroke-dasharray:none;"><path d="M0 1.0996C0 1.0996 0.6504 0 0.6504 0C0.6504 0 13.7002 7.5 13.7002 7.5C13.7002 7.5 13.0502 8.6494 13.0502 8.6494C13.0502 8.6494 0 1.0996 0 1.0996Z"/></g><g transform="translate(62.25, 15.2998)" style="fill:#161413; fill-rule:nonzero; stroke:none; stroke-width:1.3; stroke-linecap:butt; stroke-linejoin:miter; stroke-dasharray:none;"><path d="M0.6504 10.0498C0.6504 10.0498 0 9.7002 0 9.7002C0 9.7002 0 8.9502 0 8.9502C0 8.9502 15.4502 0 15.4502 0C15.4502 0 16.0996 1.1504 16.0996 1.1504C16.0996 1.1504 0.6504 10.0498 0.6504 10.0498Z"/></g><g transform="translate(61.5996, 25)" style="fill:#161413; fill-rule:nonzero; stroke:none; stroke-width:1.3; stroke-linecap:butt; stroke-linejoin:miter; stroke-dasharray:none;"><path d="M1.3008 20.75C1.3008 20.75 0 20.75 0 20.75C0 20.75 0 0.3496 0 0.3496C0 0.3496 0.6504 0 0.6504 0C0.6504 0 1.3008 0.3496 1.3008 0.3496C1.3008 0.3496 1.3008 20.75 1.3008 20.75Z"/></g><g transform="translate(67.2002, 28.25)" style="fill:#161413; fill-rule:nonzero; stroke:none; stroke-width:1.3; stroke-linecap:butt; stroke-linejoin:miter; stroke-dasharray:none;"><path d="M1.2998 17.5C1.2998 17.5 0 17.5 0 17.5C0 17.5 0 0 0 0C0 0 1.2998 0 1.2998 0C1.2998 0 1.2998 17.5 1.2998 17.5Z"/></g><g transform="translate(73.0498, 62.0498)" style="fill:#161413; fill-rule:nonzero; stroke:none; stroke-width:1.3; stroke-linecap:butt; stroke-linejoin:miter; stroke-dasharray:none;"><path d="M5.9004 3.0498C5.9004 3.0498 5.25 4.1504 5.25 4.1504C5.25 4.1504 0 1.1006 0 1.1006C0 1.1006 0.6504 0 0.6504 0C0.6504 0 5.9004 3.0498 5.9004 3.0498Z"/></g><g transform="translate(99.5498, 55.7998)" style="fill:#161413; fill-rule:nonzero; stroke:none; stroke-width:1.3; stroke-linecap:butt; stroke-linejoin:miter; stroke-dasharray:none;"><path d="M16.1002 0C16.1002 0 16.7502 0.4004 16.7502 0.4004C16.7502 0.4004 16.7502 1.1504 16.7502 1.1504C16.7502 1.1504 0.6502 10.4502 0.6502 10.4502C0.6502 10.4502 0 9.2998 0 9.2998C0 9.2998 16.1002 0 16.1002 0Z"/></g><g transform="translate(96.75, 52.4004)" style="fill:#161413; fill-rule:nonzero; stroke:none; stroke-width:1.3; stroke-linecap:butt; stroke-linejoin:miter; stroke-dasharray:none;"><path d="M13.6 0C13.6 0 14.25 1.0996 14.25 1.0996C14.25 1.0996 0.6504 8.9492 0.6504 8.9492C0.6504 8.9492 0 7.8496 0 7.8496C0 7.8496 13.6 0 13.6 0Z"/></g><g transform="translate(4.54883, 2.20215)" style="fill:#161413; fill-rule:evenodd; stroke:none; stroke-width:1.3; stroke-linecap:butt; stroke-linejoin:miter; stroke-dasharray:none;"><path d="M10.1416 8.60355C10.1416 8.60355 10.1416 15.7979 10.1416 15.7979C10.1416 15.7979 12.1563 15.7979 12.1563 15.7979C12.1563 15.7979 12.1563 0 12.1563 0C12.1563 0 10.1416 0 10.1416 0C10.1416 0 10.1416 6.82617 10.1416 6.82617C10.1416 6.82617 2.01465 6.82617 2.01465 6.82617C2.01465 6.82617 2.01465 0 2.01465 0C2.01465 0 0 0 0 0C0 0 0 15.7979 0 15.7979C0 15.7979 2.03711 15.7979 2.03711 15.7979C2.03711 15.7979 2.03711 8.60355 2.03711 8.60355C2.03711 8.60355 10.1416 8.60355 10.1416 8.60355Z"/></g><g transform="translate(19.0527, 10.4766)" style="fill:#161413; fill-rule:evenodd; stroke:none; stroke-width:1.3; stroke-linecap:butt; stroke-linejoin:miter; stroke-dasharray:none;"><path d="M7.6709 10.1093C7.6709 10.1093 1.6084 10.1093 1.6084 10.1093C1.7549 9.167 2.2754 8.5654 3.6895 7.7363C3.6895 7.7363 5.3145 6.8593 5.3145 6.8593C6.9239 5.9814 7.752 4.7949 7.752 3.3808C7.752 2.4218 7.3623 1.5283 6.6797 0.9101C5.9971 0.2929 5.1524 0 4.0625 0C2.6006 0 1.5118 0.5205 0.878 1.4961C0.4707 2.1132 0.292 2.8281 0.2598 3.999C0.2598 3.999 1.6905 3.999 1.6905 3.999C1.7393 3.2187 1.836 2.747 2.0313 2.373C2.4053 1.6748 3.1534 1.2519 4.0147 1.2519C5.3145 1.2519 6.2901 2.1787 6.2901 3.413C6.2901 4.3232 5.753 5.1035 4.7295 5.6884C4.7295 5.6884 3.2344 6.5341 3.2344 6.5341C0.8291 7.8994 0.1299 8.9882 0 11.5234C0 11.5234 7.6709 11.5234 7.6709 11.5234C7.6709 11.5234 7.6709 10.1093 7.6709 10.1093Z"/></g><g transform="translate(29.1465, 2.20215)" style="fill:#161413; fill-rule:evenodd; stroke:none; stroke-width:1.3; stroke-linecap:butt; stroke-linejoin:miter; stroke-dasharray:none;"><path d="M12.3525 0C12.3525 0 10.4453 0 10.4453 0C10.4453 0 10.4453 12.9161 10.4453 12.9161C10.4453 12.9161 2.1894 0 2.1894 0C2.1894 0 0 0 0 0C0 0 0 15.7979 0 15.7979C0 15.7979 1.9072 15.7979 1.9072 15.7979C1.9072 15.7979 1.9072 2.99121 1.9072 2.99121C1.9072 2.99121 10.0771 15.7979 10.0771 15.7979C10.0771 15.7979 12.3525 15.7979 12.3525 15.7979C12.3525 15.7979 12.3525 0 12.3525 0Z"/></g><g transform="translate(46, 15.25)" style="fill:#161413; fill-rule:nonzero; stroke:none; stroke-width:1.3; stroke-linecap:butt; stroke-linejoin:miter; stroke-dasharray:none;"><path d="M0 1.0996C0 1.0996 0.6504 0 0.6504 0C0.6504 0 16.25 9 16.25 9C16.25 9 16.25 9.75 16.25 9.75C16.25 9.75 15.5996 10.0996 15.5996 10.0996C15.5996 10.0996 0 1.0996 0 1.0996Z"/></g><g transform="translate(137.146, 2.20215)" style="fill:#161413; fill-rule:evenodd; stroke:none; stroke-width:1.3; stroke-linecap:butt; stroke-linejoin:miter; stroke-dasharray:none;"><path d="M12.353 0C12.353 0 10.446 0 10.446 0C10.446 0 10.446 12.9161 10.446 12.9161C10.446 12.9161 2.19 0 2.19 0C2.19 0 0 0 0 0C0 0 0 15.7979 0 15.7979C0 15.7979 1.908 15.7979 1.908 15.7979C1.908 15.7979 1.908 2.99121 1.908 2.99121C1.908 2.99121 10.078 15.7979 10.078 15.7979C10.078 15.7979 12.353 15.7979 12.353 15.7979C12.353 15.7979 12.353 0 12.353 0Z"/></g><g transform="translate(153.049, 2.20215)" style="fill:#161413; fill-rule:evenodd; stroke:none; stroke-width:1.3; stroke-linecap:butt; stroke-linejoin:miter; stroke-dasharray:none;"><path d="M10.141 8.60355C10.141 8.60355 10.141 15.7979 10.141 15.7979C10.141 15.7979 12.156 15.7979 12.156 15.7979C12.156 15.7979 12.156 0 12.156 0C12.156 0 10.141 0 10.141 0C10.141 0 10.141 6.82617 10.141 6.82617C10.141 6.82617 2.014 6.82617 2.014 6.82617C2.014 6.82617 2.014 0 2.014 0C2.014 0 0 0 0 0C0 0 0 15.7979 0 15.7979C0 15.7979 2.037 15.7979 2.037 15.7979C2.037 15.7979 2.037 8.60355 2.037 8.60355C2.037 8.60355 10.141 8.60355 10.141 8.60355Z"/></g><g transform="translate(167.303, 10.4766)" style="fill:#161413; fill-rule:evenodd; stroke:none; stroke-width:1.3; stroke-linecap:butt; stroke-linejoin:miter; stroke-dasharray:none;"><path d="M7.671 10.1093C7.671 10.1093 1.608 10.1093 1.608 10.1093C1.755 9.167 2.275 8.5654 3.689 7.7363C3.689 7.7363 5.314 6.8593 5.314 6.8593C6.924 5.9814 7.752 4.7949 7.752 3.3808C7.752 2.4218 7.362 1.5283 6.679 0.9101C5.997 0.2929 5.152 0 4.062 0C2.6 0 1.511 0.5205 0.878 1.4961C0.47 2.1132 0.292 2.8281 0.26 3.999C0.26 3.999 1.69 3.999 1.69 3.999C1.739 3.2187 1.836 2.747 2.031 2.373C2.405 1.6748 3.153 1.2519 4.014 1.2519C5.314 1.2519 6.29 2.1787 6.29 3.413C6.29 4.3232 5.753 5.1035 4.729 5.6884C4.729 5.6884 3.234 6.5341 3.234 6.5341C0.829 7.8994 0.13 8.9882 0 11.5234C0 11.5234 7.671 11.5234 7.671 11.5234C7.671 11.5234 7.671 10.1093 7.671 10.1093Z"/></g><g transform="translate(116.3, 15.2998)" style="fill:#161413; fill-rule:nonzero; stroke:none; stroke-width:1.3; stroke-linecap:butt; stroke-linejoin:miter; stroke-dasharray:none;"><path d="M15.5 0C15.5 0 16.15 1.1006 16.15 1.1006C16.15 1.1006 0.65 10.0498 0.65 10.0498C0.65 10.0498 0 9.7002 0 9.7002C0 9.7002 0 8.9502 0 8.9502C0 8.9502 15.5 0 15.5 0Z"/></g><g transform="translate(99.29, 110.942)" style="fill:#161413; fill-rule:evenodd; stroke:none; stroke-width:1.3; stroke-linecap:butt; stroke-linejoin:miter; stroke-dasharray:none;"><path d="M13.306 5.158C12.677 1.691 10.684 0 7.216 0C5.093 0 3.381 0.672 2.211 1.972C0.78 3.533 0 5.787 0 8.343C0 10.944 0.802 13.176 2.297 14.714C3.511 15.971 5.071 16.556 7.13 16.556C10.986 16.556 13.153 14.476 13.631 10.293C13.631 10.293 11.55 10.293 11.55 10.293C11.377 11.377 11.16 12.114 10.835 12.743C10.185 14.042 8.842 14.78 7.151 14.78C4.009 14.78 2.016 12.266 2.016 8.322C2.016 4.27 3.923 1.778 6.978 1.778C8.257 1.778 9.448 2.167 10.099 2.775C10.684 3.316 11.009 3.988 11.247 5.158C11.247 5.158 13.306 5.158 13.306 5.158Z"/></g><g transform="translate(115.474, 111.202)" style="fill:#161413; fill-rule:evenodd; stroke:none; stroke-width:1.3; stroke-linecap:butt; stroke-linejoin:miter; stroke-dasharray:none;"><path d="M1.82 0C1.82 0 0 0 0 0C0 0 0 15.798 0 15.798C0 15.798 1.82 15.798 1.82 15.798C1.82 15.798 1.82 0 1.82 0Z"/></g><g transform="translate(121.85, 102.6)" style="fill:#161413; fill-rule:nonzero; stroke:none; stroke-width:1.3; stroke-linecap:butt; stroke-linejoin:miter; stroke-dasharray:none;"><path d="M0.65 13.15C0.65 13.15 0 12.05 0 12.05C0 12.05 20.8 0 20.8 0C20.8 0 21.45 0.4 21.45 0.4C21.45 0.4 21.45 1.15 21.45 1.15C21.45 1.15 0.65 13.15 0.65 13.15Z"/></g><g transform="translate(163.54, 142.192)" style="fill:#161413; fill-rule:evenodd; stroke:none; stroke-width:1.3; stroke-linecap:butt; stroke-linejoin:miter; stroke-dasharray:none;"><path d="M13.306 5.158C12.677 1.691 10.684 0 7.216 0C5.093 0 3.381 0.672 2.211 1.972C0.78 3.533 0 5.787 0 8.343C0 10.944 0.802 13.176 2.297 14.714C3.511 15.971 5.071 16.556 7.13 16.556C10.986 16.556 13.153 14.476 13.631 10.293C13.631 10.293 11.55 10.293 11.55 10.293C11.377 11.377 11.16 12.114 10.835 12.743C10.185 14.042 8.842 14.78 7.151 14.78C4.009 14.78 2.016 12.266 2.016 8.322C2.016 4.27 3.923 1.778 6.978 1.778C8.257 1.778 9.448 2.167 10.099 2.775C10.684 3.316 11.009 3.988 11.247 5.158C11.247 5.158 13.306 5.158 13.306 5.158Z"/></g><g transform="translate(179.724, 142.452)" style="fill:#161413; fill-rule:evenodd; stroke:none; stroke-width:1.3; stroke-linecap:butt; stroke-linejoin:miter; stroke-dasharray:none;"><path d="M1.82 0C1.82 0 0 0 0 0C0 0 0 15.798 0 15.798C0 15.798 1.82 15.798 1.82 15.798C1.82 15.798 1.82 0 1.82 0Z"/></g><g transform="translate(169.7, 118.6)" style="fill:#161413; fill-rule:nonzero; stroke:none; stroke-width:1.3; stroke-linecap:butt; stroke-linejoin:miter; stroke-dasharray:none;"><path d="M1.3 20.5C1.3 20.5 0 20.5 0 20.5C0 20.5 0 0.4 0 0.4C0 0.4 0.65 0 0.65 0C0.65 0 1.3 0.4 1.3 0.4C1.3 0.4 1.3 20.5 1.3 20.5Z"/></g></svg>