<?xml version="1.0" encoding="utf-8"?>
<!-- Generator: Adobe Illustrator 28.0.0, SVG Export Plug-In . SVG Version: 6.00 Build 0)  -->
<svg version="1.1" id="Слой_1" xmlns="http://www.w3.org/2000/svg" xmlns:xlink="http://www.w3.org/1999/xlink" x="0px" y="0px"
	 viewBox="0 0 297.1 277.2" style="enable-background:new 0 0 297.1 277.2;" xml:space="preserve" width="297.1" height="277.2">
<g>
	<polygon points="176.6,206.1 146.1,184 144.7,185.9 173.5,206.9 173.5,206.9 173.8,207.1 174.4,207.5 157.5,259.6 157.5,259.6 
		157.2,260.7 156.1,260.7 102.5,260.7 101.3,260.7 101,259.6 101,259.6 84.1,207.5 84.4,207.3 85,206.9 85,206.9 113.8,185.9 
		112.4,184 87.6,202 49.5,189.6 48.8,191.9 85.2,203.7 81.9,206.1 81.9,206.1 81.3,206.6 82.1,209.3 82.1,209.3 82.8,211.3 
		46.3,199.5 45.6,201.8 83.7,214.1 99.3,262.2 99.6,263.1 100.5,263.1 102.5,263.1 156.1,263.1 158.1,263.1 158.9,263.1 
		159.2,262.2 159.2,262.2 176.4,209.3 176.4,209.3 177.3,206.6 176.6,206.1 	"/>
	<polygon points="185.5,50.2 183.1,50.2 183.1,87.7 179.7,85.8 179.7,85.8 179.1,85.4 178.5,85.8 178.5,85.8 175.1,87.7 175.1,50.2 
		172.7,50.2 172.7,89.1 129.3,114.2 84,82.8 73.6,88.8 73.6,88.8 28.9,114.6 30.1,116.7 76.1,90.1 128.1,116.3 128.1,152 130.5,152 
		130.5,116.3 178,88.8 178,88.9 179.1,88.2 180.3,88.9 180.3,88.8 211.9,107.1 213.1,105.1 185.5,89.1 	"/>
	<polygon points="121.9,164.7 136.3,187.1 140.2,187.1 140.2,158.4 136.7,158.4 136.7,180.7 136.6,180.7 122.2,158.4 118.3,158.4 
		118.3,187.1 121.9,187.1 121.9,164.7 	"/>
	<path d="M34.9,176.1c-3.1-1.8-7-1.8-7-1.8c-3.9,0-7,1.8-7,1.8c-3.1,1.8-4.9,5.2-4.9,5.2c-1.8,3.4-1.8,7.8-1.8,7.8
		c0,4.4,1.8,7.7,1.8,7.7c1.8,3.4,4.9,5.2,4.9,5.2c3.1,1.8,7,1.8,7,1.8c3.9,0,7-1.8,7-1.8c3.1-1.8,4.9-5.2,4.9-5.2
		c1.8-3.4,1.8-7.8,1.8-7.8c0-4.4-1.8-7.8-1.8-7.8C38,177.9,34.9,176.1,34.9,176.1z M36.4,195.3c-1.3,2.6-3.5,4-3.5,4
		c-2.2,1.4-5.1,1.4-5.1,1.4c-2.8,0-5-1.4-5-1.4c-2.2-1.4-3.5-4-3.5-4c-1.2-2.6-1.2-6.1-1.2-6.1c0-3.6,1.2-6.2,1.2-6.2
		c1.2-2.6,3.4-4,3.4-4c2.2-1.4,5.1-1.4,5.1-1.4c2.9,0,5.1,1.4,5.1,1.4c2.2,1.4,3.4,4,3.4,4c1.2,2.6,1.2,6.2,1.2,6.2
		C37.7,192.7,36.4,195.3,36.4,195.3z"/>
	<polygon points="236.4,123.1 236.3,123.1 221.9,100.8 218.1,100.8 218.1,129.5 221.7,129.5 221.7,107.1 221.7,107.1 236.1,129.5 
		240,129.5 240,100.8 236.4,100.8 	"/>
	<polygon points="261.9,112.6 247.8,112.6 247.8,100.8 244,100.8 244,129.5 247.8,129.5 247.8,116 261.9,116 261.9,129.5 
		265.7,129.5 265.7,100.8 261.9,100.8 	"/>
	<path d="M273.1,133.4c0.4-0.8,1.1-1.4,1.1-1.4c0.7-0.7,1.7-1.6,1.7-1.6l1.9-1.5c2.5-2.1,3.8-3.9,3.8-3.9c1.3-1.8,1.3-3.7,1.3-3.7
		c0-1.5-0.8-2.8-0.8-2.8c-0.8-1.2-2.2-2-2.2-2c-1.4-0.7-3.3-0.7-3.3-0.7c-1.8,0-3.2,0.7-3.2,0.7c-1.4,0.7-2.3,2-2.3,2
		c-0.8,1.2-1,3-1,3l2.6,0.4c0.1-2,1.1-3,1.1-3c1-1,2.8-1,2.8-1c1.1,0,1.9,0.4,1.9,0.4c0.9,0.4,1.4,1.2,1.4,1.2
		c0.5,0.8,0.5,1.7,0.5,1.7c0,1.4-1,2.9-1,2.9c-1.1,1.5-3.4,3.4-3.4,3.4l-1.6,1.3c-2.4,2-3.6,3.6-3.6,3.6c-1.1,1.6-1.1,3.4-1.1,3.4
		h13.2v-2.4H273.1z"/>
	<path d="M172.1,41.9c3.1,1.8,7,1.8,7,1.8c3.9,0,7-1.8,7-1.8c3.1-1.8,4.9-5.2,4.9-5.2c1.8-3.4,1.8-7.8,1.8-7.8
		c0-4.5-1.8-7.8-1.8-7.8c-1.8-3.3-4.9-5.2-4.9-5.2c-3.1-1.8-7-1.8-7-1.8c-3.9,0-7,1.8-7,1.8c-3.2,1.8-4.9,5.2-4.9,5.2
		c-1.8,3.4-1.8,7.8-1.8,7.8c0,4.3,1.8,7.7,1.8,7.7C169,40.1,172.1,41.9,172.1,41.9z M170.6,22.8c1.2-2.6,3.5-4,3.5-4
		c2.2-1.4,5.1-1.4,5.1-1.4c2.9,0,5.1,1.4,5.1,1.4c2.2,1.4,3.4,4,3.4,4c1.2,2.6,1.2,6.2,1.2,6.2c0,3.6-1.2,6.2-1.2,6.2
		c-1.2,2.6-3.4,4-3.4,4c-2.2,1.4-5.1,1.4-5.1,1.4c-2.8,0-5-1.4-5-1.4c-2.2-1.4-3.5-4-3.5-4c-1.2-2.6-1.2-6.1-1.2-6.1
		C169.4,25.5,170.6,22.8,170.6,22.8z"/>
</g>
</svg>
