<?xml version="1.0" encoding="utf-8"?>
<!-- Generator: Adobe Illustrator 19.2.1, SVG Export Plug-In . SVG Version: 6.00 Build 0)  -->
<svg version="1.1" id="Слой_1" xmlns="http://www.w3.org/2000/svg" xmlns:xlink="http://www.w3.org/1999/xlink" x="0px" y="0px"
	 viewBox="0 0 412 232.2" style="enable-background:new 0 0 412 232.2;" xml:space="preserve" width="412" height="232.2">
<rect x="57.1" y="136.4" width="2.4" height="45.6"/>
<rect x="94.8" y="192.3" transform="matrix(0.8663 -0.4996 0.4996 0.8663 -80.9307 84.6304)" width="45.6" height="2.4"/>
<rect x="116.4" y="102.2" transform="matrix(0.5 -0.866 0.866 0.5 -49.4656 164.3169)" width="2.4" height="45.6"/>
<polygon points="220.3,119.3 224.3,112.4 222.1,111.4 218.3,117.9 "/>
<polygon points="204.7,107.8 206.6,104.6 204.4,103.6 202.8,106.4 "/>
<polygon points="212.5,113.6 215.4,108.5 213.2,107.5 210.6,112.1 "/>
<polygon points="228.1,125 233.1,116.2 230.9,115.3 226.1,123.6 "/>
<polygon points="242,120.1 239.8,119.1 233.9,129.3 235.9,130.7 "/>
<path d="M195.9,101.1L141,125.2l0,0l-40.8-23.6l0,0l-1.7-1l-0.6-0.3l-0.6,0.3l-1.7,1l0,0l-48.2,27.8l-0.6,0.3v0.7v2V186v2v0.7
	l0.6,0.3l48.2,27.8l0,0l1.7,1l0.6,0.3l0.6-0.3l1.7-1l0,0l48.2-27.8l0.6-0.3V188v-2v-47.1l49.7-36.7L226.5,54l0,0l1-1.7l1-1.8h-2.1
	h-2h-53.6h-2h-2.1l1,1.8L195.9,101.1z M170.9,53h53.4l-26.7,46.3L170.9,53z M146.5,187.3l-1.1,0.7l0,0l-47.6,27.5L50.2,188l0,0
	l-1.1-0.7V186v-53.6v-1.3l1.1-0.7l0,0l47.6-27.5l48.7,28.1v54.9V187.3z M147.7,130.4L147.7,130.4L147.7,130.4L147.7,130.4z"/>
<polygon points="120.7,32 127.6,19.9 125.6,18.5 118.5,31 "/>
<polygon points="129.5,35.8 135.4,25.7 133.4,24.2 127.3,34.9 "/>
<polygon points="143.2,31.4 141.2,30 136.1,38.7 138.4,39.7 "/>
<polygon points="150.9,37.1 149,35.7 145,42.6 147.2,43.6 "/>
<polygon points="158.7,42.8 156.8,41.4 153.8,46.5 156.1,47.5 "/>
<polygon points="166.5,48.6 164.6,47.1 162.7,50.4 164.9,51.3 "/>
<rect x="83.3" y="31.3" transform="matrix(0.8663 -0.4996 0.4996 0.8663 -2.5291 55.4893)" width="38.2" height="2.4"/>
<polygon points="243.5,131.4 243.5,131.4 241.1,132.7 241.1,135.5 241.1,166.8 243.5,166.8 243.5,134.1 251.5,129.5 251.5,166.8 
	253.9,166.8 253.9,128.1 281.2,112.4 280,110.3 "/>
<polygon points="298.6,46 298.6,44.7 299.7,44.1 299.7,44.1 347.9,16.3 346.7,14.2 298.5,42 298.5,42 296.8,43 296.2,43.3 296.2,44 
	296.2,46 296.2,80.7 298.6,80.7 "/>
<polygon points="61.3,43.3 61.5,43.3 76.9,65.4 80.3,65.4 80.3,37.2 76.8,37.2 76.8,59.3 76.7,59.3 61.2,37.2 57.8,37.2 57.8,65.4 
	61.3,65.4 "/>
<polygon points="33.2,49.4 17.7,49.4 17.7,37.2 14.2,37.2 14.2,65.4 17.7,65.4 17.7,52.5 33.2,52.5 33.2,65.4 36.7,65.4 36.7,37.2 
	33.2,37.2 "/>
<path d="M43.1,57.6c0-2.2,1.8-3.9,4.1-3.9c2.2,0,3.9,1.5,3.9,3.4c0,1.6-0.6,2.7-3.3,5.5l-6.9,7.3v1.7h13v-2.2h-9.6v-0.1l5-5.2
	c3.3-3.4,4.3-5,4.3-7.2c0-3-2.8-5.4-6.3-5.4c-3.7,0-6.5,2.6-6.5,6l0,0L43.1,57.6L43.1,57.6z"/>
<polygon points="289.6,93.2 289.8,93.2 305.2,115.3 308.6,115.3 308.6,87.1 305.2,87.1 305.2,109.2 305,109.2 289.6,87.1 
	286.1,87.1 286.1,115.3 289.6,115.3 "/>
<path d="M247.5,202.4c8,0,13-5.6,13-14.6c0-8.9-5-14.6-13-14.6s-13,5.6-13,14.6S239.5,202.4,247.5,202.4z M247.5,176.5
	c5.8,0,9.4,4.4,9.4,11.3c0,6.9-3.6,11.3-9.4,11.3c-5.8,0-9.4-4.4-9.4-11.3C238.1,180.9,241.7,176.5,247.5,176.5z"/>
<polygon points="347.3,129.1 346.1,128.4 346.1,128.4 314.8,110.3 313.6,112.4 346.7,131.5 347.3,131.8 347.9,131.5 397.8,102.7 
	396.6,100.6 348.4,128.4 348.4,128.4 "/>
</svg>
