<?xml version="1.0" standalone="no" ?>
<!DOCTYPE svg PUBLIC "-//W3C//DTD SVG 1.1//EN" "http://www.w3.org/Graphics/SVG/1.1/DTD/svg11.dtd">
<svg width="850px" height="265px" viewBox="0 0 170 53" style="" xmlns="http://www.w3.org/2000/svg" xmlns:xlink="http://www.w3.org/1999/xlink" version="1.1" >
<text x="0" y="0" stroke="transparent" fill="#000000" transform="matrix(0.05 0 0 0.05 148.862 32.1025)" style="font:normal normal normal 200px 'Arial'" >
NH</text>
<text x="0" y="0" stroke="transparent" fill="#000000" transform="matrix(0.05 0 0 0.05 163.305 33.7136)" style="font:normal normal normal 150px 'Arial'" >
2</text>
<text x="0" y="0" stroke="transparent" fill="#000000" transform="matrix(0.05 0 0 0.05 61.5666 16.3608)" style="font:normal normal normal 200px 'Arial'" >
H</text>
<text x="0" y="0" stroke="transparent" fill="#000000" transform="matrix(0.05 0 0 0.05 61.5666 24.9025)" style="font:normal normal normal 200px 'Arial'" >
N</text>
<text x="0" y="0" stroke="transparent" fill="#000000" transform="matrix(0.05 0 0 0.05 73.759 46.5025)" style="font:normal normal normal 200px 'Arial'" >
O</text>
<path stroke="transparent" fill="#000000" transform="matrix(0.05 0 0 0.05 -404 -239)" d="M 8130.47,5644.07 L 8142.47,5637.14 L 8385.89,5777.68 L 8385.89,5791.53 L 8130.47,5644.07 Z " />
<path stroke="transparent" fill="#000000" transform="matrix(0.05 0 0 0.05 -404 -239)" d="M 8142.47,5637.14 L 8130.47,5644.07 L 8130.47,5349.14 L 8142.47,5356.07 L 8142.47,5637.14 Z " />
<path stroke="transparent" fill="#000000" transform="matrix(0.05 0 0 0.05 -404 -239)" d="M 8194.31,5610.67 L 8182.31,5610.67 L 8182.31,5382.53 L 8194.31,5382.53 L 8194.31,5610.67 Z " />
<path stroke="transparent" fill="#000000" transform="matrix(0.05 0 0 0.05 -404 -239)" d="M 10381.2,5215.53 L 10381.2,5201.68 L 10630.6,5345.68 L 10630.6,5359.53 L 10381.2,5215.53 Z " />
<path stroke="transparent" fill="#000000" transform="matrix(0.05 0 0 0.05 -404 -239)" d="M 8385.89,5791.53 L 8385.89,5777.68 L 8629.3,5637.14 L 8641.3,5644.07 L 8385.89,5791.53 Z " />
<path stroke="transparent" fill="#000000" transform="matrix(0.05 0 0 0.05 -404 -239)" d="M 8388.89,5729.94 L 8382.89,5719.55 L 8580.46,5605.48 L 8586.46,5615.87 L 8388.89,5729.94 Z " />
<path stroke="transparent" fill="#000000" transform="matrix(0.05 0 0 0.05 -404 -239)" d="M 8142.47,5356.07 L 8130.47,5349.14 L 8385.89,5201.68 L 8385.89,5215.53 L 8142.47,5356.07 Z " />
<path stroke="transparent" fill="#000000" transform="matrix(0.05 0 0 0.05 -404 -239)" d="M 10381.2,5201.68 L 10381.2,5215.53 L 10131.8,5359.53 L 10131.8,5345.68 L 10381.2,5201.68 Z " />
<path stroke="transparent" fill="#000000" transform="matrix(0.05 0 0 0.05 -404 -239)" d="M 10630.6,5359.53 L 10630.6,5345.68 L 10880,5201.68 L 10880,5215.53 L 10630.6,5359.53 Z " />
<path stroke="transparent" fill="#000000" transform="matrix(0.05 0 0 0.05 -404 -239)" d="M 8884.72,5215.53 L 8884.72,5201.68 L 9134.13,5345.68 L 9134.13,5352.6 L 9127.86,5355.91 L 8884.72,5215.53 Z " />
<path stroke="transparent" fill="#000000" transform="matrix(0.05 0 0 0.05 -404 -239)" d="M 8641.3,5644.07 L 8629.3,5637.14 L 8629.3,5356.07 L 8635.3,5352.6 L 8641.3,5356.07 L 8641.3,5644.07 Z " />
<path stroke="transparent" fill="#000000" transform="matrix(0.05 0 0 0.05 -404 -239)" d="M 8385.89,5215.53 L 8385.89,5201.68 L 8635.3,5345.68 L 8635.3,5352.6 L 8629.3,5356.07 L 8385.89,5215.53 Z " />
<path stroke="transparent" fill="#000000" transform="matrix(0.05 0 0 0.05 -404 -239)" d="M 8382.89,5273.66 L 8388.89,5263.27 L 8586.46,5377.34 L 8580.46,5387.73 L 8382.89,5273.66 Z " />
<path stroke="transparent" fill="#000000" transform="matrix(0.05 0 0 0.05 -404 -239)" d="M 8884.72,5201.68 L 8884.72,5215.53 L 8641.3,5356.07 L 8635.3,5352.6 L 8635.3,5345.68 L 8884.72,5201.68 Z " />
<path stroke="transparent" fill="#000000" transform="matrix(0.05 0 0 0.05 -404 -239)" d="M 10131.8,5345.68 L 10131.8,5359.53 L 9882.38,5215.53 L 9882.38,5208.6 L 9888.79,5205.38 L 10131.8,5345.68 Z " />
<path stroke="transparent" fill="#000000" transform="matrix(0.05 0 0 0.05 -404 -239)" d="M 9875.97,5205.38 L 9882.38,5208.6 L 9882.38,5215.53 L 9632.96,5359.53 L 9632.96,5345.68 L 9875.97,5205.38 Z " />
<path stroke="transparent" fill="#000000" transform="matrix(0.05 0 0 0.05 -404 -239)" d="M 10880,5215.53 L 10880,5201.68 L 11029.3,5287.85 L 11023.3,5298.25 L 10880,5215.53 Z " />
<path stroke="transparent" fill="#000000" transform="matrix(0.05 0 0 0.05 -404 -239)" d="M 9140.41,5355.91 L 9134.13,5352.6 L 9134.13,5345.68 L 9279.82,5261.56 L 9285.82,5271.95 L 9140.41,5355.91 Z " />
<path stroke="transparent" fill="#000000" transform="matrix(0.05 0 0 0.05 -404 -239)" d="M 9632.96,5345.68 L 9632.96,5359.53 L 9479.88,5271.15 L 9485.88,5260.76 L 9632.96,5345.68 Z " />
<path stroke="transparent" fill="#000000" transform="matrix(0.05 0 0 0.05 -404 -239)" d="M 9601.04,5337.64 L 9613.04,5337.64 L 9613.04,5532.22 L 9601.04,5532.22 L 9601.04,5337.64 Z " />
<path stroke="transparent" fill="#000000" transform="matrix(0.05 0 0 0.05 -404 -239)" d="M 9652.88,5337.64 L 9664.88,5337.64 L 9664.88,5532.22 L 9652.88,5532.22 L 9652.88,5337.64 Z " />
<path stroke="transparent" fill="#000000" transform="matrix(0.05 0 0 0.05 -404 -239)" d="M 9164.13,5640.6 L 9104.13,5640.6 L 9127.86,5355.91 L 9134.13,5352.6 L 9140.41,5355.91 L 9164.13,5640.6 Z " />
<text x="0" y="0" stroke="transparent" fill="#000000" transform="matrix(0.05 0 0 0.05 86.5081 10.5025)" style="font:normal normal normal 200px 'Arial'" >
NH</text>
<text x="0" y="0" stroke="transparent" fill="#000000" transform="matrix(0.05 0 0 0.05 100.951 12.1136)" style="font:normal normal normal 150px 'Arial'" >
2</text>
<path stroke="transparent" fill="#000000" transform="matrix(0.05 0 0 0.05 -404 -239)" d="M 9852.38,5021.22 L 9912.38,5021.22 L 9888.79,5205.38 L 9882.38,5208.6 L 9875.97,5205.38 L 9852.38,5021.22 Z " />
</svg>
