<?xml version="1.0" encoding="utf-8"?>
<!-- Generator: Adobe Illustrator 19.2.1, SVG Export Plug-In . SVG Version: 6.00 Build 0)  -->
<svg version="1.1" id="Слой_1" xmlns="http://www.w3.org/2000/svg" xmlns:xlink="http://www.w3.org/1999/xlink" x="0px" y="0px"
	 viewBox="0 0 373.6 230.8" style="enable-background:new 0 0 373.6 230.8;" xml:space="preserve" width="373.6" height="230.8">
<g>
	<rect x="279.9" y="146.2" transform="matrix(0.9511 -0.309 0.309 0.9511 -35.9995 94.7404)" width="2.4" height="29.6"/>
	<path d="M264.7,143l-48.6-28.1V58h-2.4v56.9L182.4,133l1.2,2.1l31.3-18.1l48.9,28.2l10.9,33.5l2.3-0.7l-10.7-33.1l29.7-21.6
		l-1.4-1.9L264.7,143z M264.8,144.4L264.8,144.4L264.8,144.4L264.8,144.4z"/>
	<path d="M116.3,58.7l29.4-17l-1.2-2.1l-29.4,17L65.9,28.2l-0.6-0.3l-0.6,0.3L14.8,57l-0.6,0.3V58v2v53.6v2l0,0.7l0.6,0.3l49.3,28.5
		v35.5h2.4v-35.5l48.7-28.1l31.4,18.1l1.2-2.1l-31.4-18.1V58.7z M16.6,60v-1.3l1.1-0.7l0,0l47.6-27.5l48.7,28.1v56.2L65.3,143
		l-47.6-27.5l0,0l-1.1-0.7v-1.3V60z M65.3,144.4L65.3,144.4L65.3,144.4L65.3,144.4z"/>
	<rect x="83.8" y="29.8" transform="matrix(0.5 -0.866 0.866 0.5 -3.0507 99.9307)" width="2.4" height="45.6"/>
	<rect x="24.5" y="64" width="2.4" height="45.6"/>
	<rect x="62.2" y="119.8" transform="matrix(0.8663 -0.4995 0.4995 0.8663 -49.1004 58.6527)" width="45.6" height="2.4"/>
	<polygon points="290,206.7 289.9,206.7 275.5,184.4 271.6,184.4 271.6,213 275.2,213 275.2,190.7 275.3,190.7 289.7,213 293.6,213 
		293.6,184.4 290,184.4 	"/>
	<polygon points="304,102 304.1,102 318.5,124.4 322.4,124.4 322.4,95.8 318.8,95.8 318.8,118.1 318.7,118.1 304.3,95.8 300.4,95.8 
		300.4,124.4 304,124.4 	"/>
	<polygon points="304.4,78.3 318.4,78.3 318.4,91.8 322.2,91.8 322.2,63.1 318.4,63.1 318.4,74.9 304.4,74.9 304.4,63.1 300.6,63.1 
		300.6,91.8 304.4,91.8 	"/>
	<polygon points="359.4,144 358.7,143.5 357.1,142.3 357.1,142.3 328.3,121.3 326.8,123.3 355.7,144.2 355.7,144.2 356.6,144.9 
		339.3,198 338.2,198 300,198 300,200.4 338.2,200.4 340.2,200.4 341.1,200.4 341.3,199.6 342,197.7 342,197.7 359.1,144.8 	"/>
	<path d="M172.1,131.2c-2.1-1.2-4.4-1.8-7-1.8c-2.6,0-5,0.6-7,1.8c-2.1,1.2-3.7,3-4.9,5.2c-1.2,2.3-1.8,4.9-1.8,7.8
		c0,2.9,0.6,5.5,1.8,7.7c1.2,2.2,2.8,4,4.9,5.2c2.1,1.2,4.4,1.9,7.1,1.9c2.6,0,4.9-0.6,7-1.8c2.1-1.2,3.7-2.9,4.9-5.2
		c1.2-2.2,1.8-4.8,1.8-7.8c0-3-0.6-5.6-1.8-7.8C175.8,134.1,174.1,132.4,172.1,131.2z M173.6,150.4c-0.8,1.7-2,3.1-3.5,4
		c-1.5,0.9-3.2,1.4-5.1,1.4c-1.9,0-3.6-0.5-5-1.4c-1.5-0.9-2.6-2.2-3.5-4c-0.8-1.7-1.2-3.8-1.2-6.1c0-2.4,0.4-4.5,1.2-6.3
		c0.8-1.8,2-3.1,3.4-4c1.5-0.9,3.2-1.4,5.1-1.4c1.9,0,3.6,0.5,5.1,1.4c1.5,0.9,2.6,2.3,3.4,4c0.8,1.8,1.2,3.8,1.2,6.2
		C174.8,146.6,174.4,148.7,173.6,150.4z"/>
	<path d="M67.7,211.5c-1.4,1.2-3.3,1.8-5.5,1.8c-1.9,0-3.6-0.5-5-1.4c-1.4-1-2.4-2.3-3.1-4.1c-0.7-1.8-1.1-3.9-1.1-6.3
		c0-2.2,0.4-4.2,1.1-5.9c0.7-1.7,1.8-3,3.2-4c1.4-1,3.1-1.5,5.1-1.5c2,0,3.7,0.5,5,1.5c1.3,1,2.3,2.5,2.9,4.5l3.7-0.9
		c-0.8-2.7-2.1-4.8-4.1-6.2c-2-1.4-4.4-2.1-7.4-2.1c-2.6,0-4.9,0.6-6.9,1.8c-2,1.2-3.6,2.9-4.7,5.1c-1.1,2.2-1.7,4.8-1.7,7.8
		c0,3.1,0.5,5.8,1.6,8c1.1,2.2,2.6,4,4.6,5.2c2,1.2,4.4,1.8,7.1,1.8c2,0,3.9-0.4,5.5-1.1c1.7-0.8,3-1.9,4.2-3.3s1.9-3.1,2.3-5.1
		l-3.7-0.9C70.1,208.5,69.1,210.3,67.7,211.5z"/>
	<rect x="77.9" y="187.5" width="3.5" height="28.6"/>
	<path d="M155,42c2,1.2,4.4,1.8,7.1,1.8c2,0,3.9-0.4,5.5-1.1c1.7-0.8,3-1.9,4.2-3.3c1.1-1.4,1.9-3.1,2.3-5.1l-3.7-0.9
		c-0.6,2.3-1.6,4.1-3,5.4c-1.4,1.2-3.3,1.8-5.5,1.8c-1.9,0-3.6-0.5-5-1.4c-1.4-1-2.4-2.3-3.1-4.1c-0.7-1.8-1.1-3.9-1.1-6.3
		c0-2.2,0.4-4.2,1.1-5.9c0.7-1.7,1.8-3,3.2-4c1.4-1,3.1-1.5,5.1-1.5c2,0,3.7,0.5,5,1.5c1.3,1,2.3,2.5,2.9,4.5l3.7-0.9
		c-0.8-2.7-2.1-4.8-4.1-6.2c-2-1.4-4.4-2.1-7.4-2.1c-2.6,0-4.9,0.6-6.9,1.8c-2,1.2-3.6,2.9-4.7,5.1c-1.1,2.2-1.7,4.8-1.7,7.8
		c0,3.1,0.5,5.8,1.6,8C151.5,39.1,153,40.8,155,42z"/>
	<rect x="177.7" y="14.7" width="3.5" height="28.6"/>
</g>
</svg>
