<?xml version="1.0" encoding="UTF-8" standalone="no"?>
<!-- Created with Inkscape (http://www.inkscape.org/) -->

<svg
   xmlns:dc="http://purl.org/dc/elements/1.1/"
   xmlns:cc="http://creativecommons.org/ns#"
   xmlns:rdf="http://www.w3.org/1999/02/22-rdf-syntax-ns#"
   xmlns:svg="http://www.w3.org/2000/svg"
   xmlns="http://www.w3.org/2000/svg"
   version="1.0"
   width="531.6"
   height="354.3"
   id="svg2403"
   xml:space="preserve"><metadata
     id="metadata57"><rdf:RDF><cc:Work
         rdf:about=""><dc:format>image/svg+xml</dc:format><dc:type
           rdf:resource="http://purl.org/dc/dcmitype/StillImage" /><dc:title></dc:title></cc:Work></rdf:RDF></metadata><defs
     id="defs2406" /><path
     d="m 152.29,132.9 0,-21.47 2.91,0 11.28,16.86 0,-16.86 2.72,0 0,21.47 -2.91,0 -11.28,-16.87 0,16.87 -2.72,0 z"
     id="text2414" /><path
     d="m 237.19,282 0,-21.48 2.91,0 11.28,16.87 0,-16.87 2.72,0 0,21.48 -2.91,0 -11.28,-16.88 0,16.88 -2.72,0 z"
     id="text2418" /><path
     d="m 252.24,323.97 2.84,0.72 c -0.6,2.33 -1.67,4.11 -3.22,5.34 -1.55,1.22 -3.44,1.84 -5.67,1.84 -2.32,0 -4.2,-0.47 -5.65,-1.42 -1.45,-0.94 -2.55,-2.3 -3.31,-4.09 -0.76,-1.79 -1.14,-3.71 -1.14,-5.76 0,-2.23 0.43,-4.18 1.29,-5.85 0.85,-1.67 2.07,-2.93 3.64,-3.8 1.58,-0.86 3.32,-1.29 5.21,-1.29 2.15,0 3.96,0.55 5.42,1.64 1.46,1.09 2.49,2.63 3.06,4.61 l -2.8,0.66 c -0.49,-1.56 -1.22,-2.7 -2.16,-3.41 -0.95,-0.71 -2.14,-1.07 -3.58,-1.07 -1.65,0 -3.03,0.4 -4.14,1.19 -1.1,0.79 -1.88,1.85 -2.33,3.18 -0.45,1.34 -0.68,2.71 -0.68,4.13 0,1.82 0.27,3.42 0.8,4.78 0.53,1.36 1.36,2.38 2.49,3.05 1.12,0.68 2.33,1.01 3.64,1.01 1.59,0 2.94,-0.45 4.05,-1.37 1.1,-0.92 1.85,-2.28 2.24,-4.09 l 0,0 z"
     id="text2422" /><path
     d="m 258.8,331.5 0,-21.48 2.84,0 0,8.82 11.17,0 0,-8.82 2.84,0 0,21.48 -2.84,0 0,-10.12 -11.17,0 0,10.12 -2.84,0 z"
     id="text2426" /><path
     d="m 278.94,331.45 1.98,-0.27 c 0.23,1.13 0.62,1.93 1.16,2.43 0.55,0.49 1.21,0.74 2,0.74 0.93,0 1.71,-0.32 2.35,-0.97 0.64,-0.64 0.96,-1.44 0.96,-2.39 0,-0.91 -0.29,-1.66 -0.89,-2.25 -0.59,-0.59 -1.34,-0.88 -2.26,-0.88 -0.37,0 -0.84,0.1 -1.4,0.22 l 0.22,-1.74 c 0.14,0 0.24,0 0.32,0 0.85,0 1.6,-0.22 2.28,-0.66 0.67,-0.44 1.01,-1.11 1.01,-2.03 0,-0.72 -0.25,-1.33 -0.74,-1.8 -0.49,-0.48 -1.12,-0.72 -1.9,-0.72 -0.77,0 -1.41,0.25 -1.92,0.73 -0.51,0.48 -0.84,1.21 -0.99,2.18 l -1.98,-0.36 c 0.24,-1.32 0.79,-2.35 1.65,-3.08 0.86,-0.73 1.92,-1.09 3.2,-1.09 0.88,0 1.69,0.19 2.43,0.56 0.74,0.38 1.3,0.9 1.69,1.55 0.39,0.65 0.59,1.34 0.59,2.07 0,0.7 -0.19,1.33 -0.56,1.9 -0.37,0.58 -0.93,1.03 -1.66,1.37 0.95,0.22 1.69,0.67 2.22,1.36 0.53,0.7 0.79,1.56 0.79,2.6 0,1.41 -0.51,2.6 -1.54,3.58 -1.02,0.98 -2.32,1.47 -3.89,1.47 -1.41,0 -2.58,-0.43 -3.52,-1.27 -0.93,-0.84 -1.46,-1.93 -1.6,-3.27 l 0,0 z"
     id="text2430" /><path
     d="m 320.65,321.64 c 0,-3.56 0.96,-6.35 2.87,-8.37 1.92,-2.02 4.39,-3.02 7.41,-3.02 1.99,0 3.77,0.47 5.37,1.42 1.59,0.94 2.8,2.26 3.63,3.96 0.84,1.69 1.26,3.61 1.26,5.76 0,2.18 -0.44,4.13 -1.32,5.85 -0.88,1.72 -2.12,3.02 -3.74,3.9 -1.61,0.88 -3.35,1.33 -5.21,1.33 -2.02,0 -3.83,-0.49 -5.42,-1.47 -1.59,-0.98 -2.8,-2.31 -3.62,-4 -0.82,-1.69 -1.23,-3.47 -1.23,-5.36 l 0,0 z m 2.93,0 c 0,2.59 0.7,4.63 2.09,6.12 1.39,1.49 3.13,2.23 5.23,2.23 2.14,0 3.9,-0.75 5.28,-2.25 1.39,-1.51 2.08,-3.64 2.08,-6.4 0,-1.75 -0.3,-3.28 -0.89,-4.58 -0.59,-1.3 -1.45,-2.32 -2.59,-3.03 -1.14,-0.72 -2.42,-1.08 -3.83,-1.08 -2.01,0 -3.74,0.69 -5.19,2.07 -1.45,1.38 -2.18,3.69 -2.18,6.92 l 0,0 z"
     id="text2434" /><path
     d="m 510.24,177.27 2.84,0.72 c -0.6,2.33 -1.67,4.11 -3.22,5.34 -1.55,1.22 -3.44,1.84 -5.67,1.84 -2.32,0 -4.2,-0.47 -5.65,-1.42 -1.45,-0.94 -2.55,-2.3 -3.31,-4.09 -0.76,-1.79 -1.14,-3.71 -1.14,-5.76 0,-2.23 0.43,-4.19 1.29,-5.85 0.85,-1.66 2.07,-2.93 3.64,-3.79 1.58,-0.87 3.32,-1.3 5.21,-1.3 2.15,0 3.96,0.55 5.42,1.64 1.47,1.09 2.49,2.63 3.06,4.61 l -2.79,0.66 c -0.5,-1.56 -1.23,-2.7 -2.17,-3.41 -0.95,-0.71 -2.14,-1.07 -3.58,-1.07 -1.65,0 -3.03,0.4 -4.14,1.19 -1.1,0.79 -1.88,1.85 -2.33,3.18 -0.45,1.34 -0.68,2.71 -0.68,4.13 0,1.82 0.27,3.42 0.8,4.78 0.53,1.36 1.36,2.38 2.49,3.05 1.12,0.68 2.33,1.01 3.64,1.01 1.59,0 2.94,-0.45 4.05,-1.37 1.1,-0.92 1.85,-2.28 2.24,-4.09 l 0,0 z m 5.94,7.53 0,-21.47 2.64,0 0,21.47 -2.64,0 z"
     id="text2438" /><path
     d="m 205.8,99.9 11.4,-48"
     id="path2442"
     style="fill:none;stroke:#000000;stroke-width:2.1;stroke-linecap:round;stroke-linejoin:miter;stroke-miterlimit:10;stroke-opacity:1;stroke-dasharray:none" /><path
     d="M 264.6,37.5 217.2,51.6"
     id="path2444"
     style="fill:none;stroke:#000000;stroke-width:2.1;stroke-linecap:round;stroke-linejoin:miter;stroke-miterlimit:10;stroke-opacity:1;stroke-dasharray:none" /><path
     d="M 261.9,45.9 223.8,57.3"
     id="path2446"
     style="fill:none;stroke:#000000;stroke-width:2.1;stroke-linecap:round;stroke-linejoin:miter;stroke-miterlimit:10;stroke-opacity:1;stroke-dasharray:none" /><path
     d="m 241.8,133.8 -36,-33.9"
     id="path2448"
     style="fill:none;stroke:#000000;stroke-width:2.1;stroke-linecap:round;stroke-linejoin:miter;stroke-miterlimit:10;stroke-opacity:1;stroke-dasharray:none" /><path
     d="M 243.3,125.4 214.2,98.1"
     id="path2450"
     style="fill:none;stroke:#000000;stroke-width:2.1;stroke-linecap:round;stroke-linejoin:miter;stroke-miterlimit:10;stroke-opacity:1;stroke-dasharray:none" /><path
     d="m 300.6,71.4 -36,-33.9"
     id="path2452"
     style="fill:none;stroke:#000000;stroke-width:2.1;stroke-linecap:round;stroke-linejoin:miter;stroke-miterlimit:10;stroke-opacity:1;stroke-dasharray:none" /><path
     d="m 289.2,119.7 -47.4,14.1"
     id="path2454"
     style="fill:none;stroke:#000000;stroke-width:2.1;stroke-linecap:round;stroke-linejoin:miter;stroke-miterlimit:10;stroke-opacity:1;stroke-dasharray:none" /><path
     d="M 289.2,119.7 300.6,71.4"
     id="path2456"
     style="fill:none;stroke:#000000;stroke-width:2.1;stroke-linecap:round;stroke-linejoin:miter;stroke-miterlimit:10;stroke-opacity:1;stroke-dasharray:none" /><path
     d="m 283.2,113.1 9.3,-38.7"
     id="path2458"
     style="fill:none;stroke:#000000;stroke-width:2.1;stroke-linecap:round;stroke-linejoin:miter;stroke-miterlimit:10;stroke-opacity:1;stroke-dasharray:none" /><path
     d="m 217.2,51.9 -30.6,-39"
     id="path2460"
     style="fill:none;stroke:#000000;stroke-width:2.1;stroke-linecap:round;stroke-linejoin:miter;stroke-miterlimit:10;stroke-opacity:1;stroke-dasharray:none" /><path
     d="M 186.6,12.9 137.1,12.6"
     id="path2462"
     style="fill:none;stroke:#000000;stroke-width:2.1;stroke-linecap:round;stroke-linejoin:miter;stroke-miterlimit:10;stroke-opacity:1;stroke-dasharray:none" /><path
     d="M 137.1,12.6 105.9,51"
     id="path2464"
     style="fill:none;stroke:#000000;stroke-width:2.1;stroke-linecap:round;stroke-linejoin:miter;stroke-miterlimit:10;stroke-opacity:1;stroke-dasharray:none" /><path
     d="M 33,117.9 22.2,69.6"
     id="path2466"
     style="fill:none;stroke:#000000;stroke-width:2.1;stroke-linecap:round;stroke-linejoin:miter;stroke-miterlimit:10;stroke-opacity:1;stroke-dasharray:none" /><path
     d="M 58.8,36 22.2,69.6"
     id="path2468"
     style="fill:none;stroke:#000000;stroke-width:2.1;stroke-linecap:round;stroke-linejoin:miter;stroke-miterlimit:10;stroke-opacity:1;stroke-dasharray:none" /><path
     d="m 60,44.7 -29.4,27"
     id="path2470"
     style="fill:none;stroke:#000000;stroke-width:2.1;stroke-linecap:round;stroke-linejoin:miter;stroke-miterlimit:10;stroke-opacity:1;stroke-dasharray:none" /><path
     d="M 80.1,132.9 33,117.9"
     id="path2472"
     style="fill:none;stroke:#000000;stroke-width:2.1;stroke-linecap:round;stroke-linejoin:miter;stroke-miterlimit:10;stroke-opacity:1;stroke-dasharray:none" /><path
     d="m 77.7,124.5 -38.1,-12"
     id="path2474"
     style="fill:none;stroke:#000000;stroke-width:2.1;stroke-linecap:round;stroke-linejoin:miter;stroke-miterlimit:10;stroke-opacity:1;stroke-dasharray:none" /><path
     d="M 105.9,51 58.8,36"
     id="path2476"
     style="fill:none;stroke:#000000;stroke-width:2.1;stroke-linecap:round;stroke-linejoin:miter;stroke-miterlimit:10;stroke-opacity:1;stroke-dasharray:none" /><path
     d="M 116.7,99.3 80.1,132.9"
     id="path2478"
     style="fill:none;stroke:#000000;stroke-width:2.1;stroke-linecap:round;stroke-linejoin:miter;stroke-miterlimit:10;stroke-opacity:1;stroke-dasharray:none" /><path
     d="M 116.7,99.3 105.9,51"
     id="path2480"
     style="fill:none;stroke:#000000;stroke-width:2.1;stroke-linecap:round;stroke-linejoin:miter;stroke-miterlimit:10;stroke-opacity:1;stroke-dasharray:none" /><path
     d="m 108.6,96.3 -8.7,-39"
     id="path2482"
     style="fill:none;stroke:#000000;stroke-width:2.1;stroke-linecap:round;stroke-linejoin:miter;stroke-miterlimit:10;stroke-opacity:1;stroke-dasharray:none" /><path
     d="m 205.8,99.9 -30.9,14.7"
     id="path2484"
     style="fill:none;stroke:#000000;stroke-width:2.1;stroke-linecap:round;stroke-linejoin:miter;stroke-miterlimit:10;stroke-opacity:1;stroke-dasharray:none" /><path
     d="m 146.7,114 -30,-14.7"
     id="path2486"
     style="fill:none;stroke:#000000;stroke-width:2.1;stroke-linecap:round;stroke-linejoin:miter;stroke-miterlimit:10;stroke-opacity:1;stroke-dasharray:none" /><path
     d="m 160.8,136.2 0,34.5"
     id="path2488"
     style="fill:none;stroke:#000000;stroke-width:2.1;stroke-linecap:round;stroke-linejoin:miter;stroke-miterlimit:10;stroke-opacity:1;stroke-dasharray:none" /><path
     d="m 160.8,170.7 42.6,24.9"
     id="path2490"
     style="fill:none;stroke:#000000;stroke-width:2.1;stroke-linecap:round;stroke-linejoin:miter;stroke-miterlimit:10;stroke-opacity:1;stroke-dasharray:none" /><path
     d="m 203.4,195.6 -0.3,49.5"
     id="path2492"
     style="fill:none;stroke:#000000;stroke-width:2.1;stroke-linecap:round;stroke-linejoin:miter;stroke-miterlimit:10;stroke-opacity:1;stroke-dasharray:none" /><path
     d="m 203.1,245.1 28.5,16.8"
     id="path2494"
     style="fill:none;stroke:#000000;stroke-width:2.1;stroke-linecap:round;stroke-linejoin:miter;stroke-miterlimit:10;stroke-opacity:1;stroke-dasharray:none" /><path
     d="m 245.7,285.3 0,18.9"
     id="path2496"
     style="fill:none;stroke:#000000;stroke-width:2.1;stroke-linecap:round;stroke-linejoin:miter;stroke-miterlimit:10;stroke-opacity:1;stroke-dasharray:none" /><path
     d="m 259.8,262.2 29.1,-16.5"
     id="path2498"
     style="fill:none;stroke:#000000;stroke-width:2.1;stroke-linecap:round;stroke-linejoin:miter;stroke-miterlimit:10;stroke-opacity:1;stroke-dasharray:none" /><path
     d="m 288.9,245.7 42.6,24.9"
     id="path2500"
     style="fill:none;stroke:#000000;stroke-width:2.1;stroke-linecap:round;stroke-linejoin:miter;stroke-miterlimit:10;stroke-opacity:1;stroke-dasharray:none" /><path
     d="m 331.5,270.6 42.9,-24.3"
     id="path2502"
     style="fill:none;stroke:#000000;stroke-width:2.1;stroke-linecap:round;stroke-linejoin:miter;stroke-miterlimit:10;stroke-opacity:1;stroke-dasharray:none" /><path
     d="m 327.9,270.6 -0.3,34.2"
     id="path2504"
     style="fill:none;stroke:#000000;stroke-width:2.1;stroke-linecap:round;stroke-linejoin:miter;stroke-miterlimit:10;stroke-opacity:1;stroke-dasharray:none" /><path
     d="m 335.1,270.9 -0.3,33.9"
     id="path2506"
     style="fill:none;stroke:#000000;stroke-width:2.1;stroke-linecap:round;stroke-linejoin:miter;stroke-miterlimit:10;stroke-opacity:1;stroke-dasharray:none" /><path
     d="M 460.5,197.4 417.9,172.2"
     id="path2508"
     style="fill:none;stroke:#000000;stroke-width:2.1;stroke-linecap:round;stroke-linejoin:miter;stroke-miterlimit:10;stroke-opacity:1;stroke-dasharray:none" /><path
     d="m 375,196.8 42.9,-24.6"
     id="path2510"
     style="fill:none;stroke:#000000;stroke-width:2.1;stroke-linecap:round;stroke-linejoin:miter;stroke-miterlimit:10;stroke-opacity:1;stroke-dasharray:none" /><path
     d="m 382.5,200.7 34.8,-19.8"
     id="path2512"
     style="fill:none;stroke:#000000;stroke-width:2.1;stroke-linecap:round;stroke-linejoin:miter;stroke-miterlimit:10;stroke-opacity:1;stroke-dasharray:none" /><path
     d="m 460.2,246.9 0.3,-49.5"
     id="path2514"
     style="fill:none;stroke:#000000;stroke-width:2.1;stroke-linecap:round;stroke-linejoin:miter;stroke-miterlimit:10;stroke-opacity:1;stroke-dasharray:none" /><path
     d="m 453,242.1 0.3,-39.9"
     id="path2516"
     style="fill:none;stroke:#000000;stroke-width:2.1;stroke-linecap:round;stroke-linejoin:miter;stroke-miterlimit:10;stroke-opacity:1;stroke-dasharray:none" /><path
     d="M 374.4,246.3 375,196.8"
     id="path2518"
     style="fill:none;stroke:#000000;stroke-width:2.1;stroke-linecap:round;stroke-linejoin:miter;stroke-miterlimit:10;stroke-opacity:1;stroke-dasharray:none" /><path
     d="m 417.3,271.2 42.9,-24.3"
     id="path2520"
     style="fill:none;stroke:#000000;stroke-width:2.1;stroke-linecap:round;stroke-linejoin:miter;stroke-miterlimit:10;stroke-opacity:1;stroke-dasharray:none" /><path
     d="M 417.3,271.2 374.4,246.3"
     id="path2522"
     style="fill:none;stroke:#000000;stroke-width:2.1;stroke-linecap:round;stroke-linejoin:miter;stroke-miterlimit:10;stroke-opacity:1;stroke-dasharray:none" /><path
     d="M 416.7,262.8 382.2,242.4"
     id="path2524"
     style="fill:none;stroke:#000000;stroke-width:2.1;stroke-linecap:round;stroke-linejoin:miter;stroke-miterlimit:10;stroke-opacity:1;stroke-dasharray:none" /><path
     d="m 460.5,197.4 28.8,-16.5"
     id="path2526"
     style="fill:none;stroke:#000000;stroke-width:2.1;stroke-linecap:round;stroke-linejoin:miter;stroke-miterlimit:10;stroke-opacity:1;stroke-dasharray:none" /></svg>