<?xml version="1.0" encoding="iso-8859-1"?>
<!-- Generator: Adobe Illustrator 19.1.0, SVG Export Plug-In . SVG Version: 6.00 Build 0)  -->
<svg version="1.1" id="&#x421;&#x43B;&#x43E;&#x439;_1"
	 xmlns="http://www.w3.org/2000/svg" xmlns:xlink="http://www.w3.org/1999/xlink" x="0px" y="0px" viewBox="0 0 493.965 374.372"
	 style="enable-background:new 0 0 493.965 374.372;" xml:space="preserve" width="493.965" height="374.372">
<g>
	<rect x="228.088" y="174.421" transform="matrix(-0.9749 0.2225 -0.2225 -0.9749 522.7446 291.944)" width="33.675" height="2"/>
	<rect x="127.008" y="90.674" transform="matrix(-0.866 -0.5 0.5 -0.866 233.7357 245.9768)" width="45.628" height="2"/>
	<rect x="203.41" y="272.953" transform="matrix(-0.7331 -0.6802 0.6802 -0.7331 205.7221 628.6456)" width="45.628" height="2"/>
	<rect x="148.822" y="137.302" transform="matrix(-0.4996 -0.8663 0.8663 -0.4996 85.9659 369.8923)" width="2" height="45.628"/>
	<rect x="159.823" y="271.312" transform="matrix(-0.975 -0.222 0.222 -0.975 252.3405 616.6151)" width="2" height="45.628"/>
	<path d="M254.645,284.816l-1.043-0.967l0,0l-39.291-36.458l0,0l-1.043-0.968l0.317-1.388l12.232-53.593l38.053-8.685l-0.444-1.95
		l-36.716,8.38v0l-1.481,0.338l-43.093-34.365l-1.187-0.947V99.095v-1.518l28.403-22.651l-1.247-1.563l-28.246,22.526
		l-47.561-27.459l-1.732-1l-0.5-0.288l-0.5,0.288l-48.151,27.8l-1.732,1l-0.5,0.288v0.579v2v53.6v1.423l-1.232,0.711l-26.48,15.288
		l0.999,1.732l27.712-15.999l49.383,28.512l0.5,0.288l0.5-0.288l1.732-1l47.561-27.459l44.009,35.096l-0.305,1.338h0l-12.244,53.643
		l-54.489,16.808l-0.552,0.169l-0.129,0.564l-0.445,1.95l-12.372,54.206l-0.128,0.562l0.422,0.392l40.758,37.818l1.466,1.36
		l0.422,0.393l0.553-0.17l1.911-0.589v0l53.13-16.389l0.552-0.169l0.129-0.564l0.445-1.95h0l12.244-53.643l39.819-12.283
		l-0.589-1.911L254.645,284.816z M178.948,99.095v55.023l-1.232,0.711l-47.652,27.512l-1.232-0.712l-47.651-27.511v-1.423v-53.6
		v-1.423l47.651-27.511l0,0l1.232-0.712l1.233,0.712l0,0l46.419,26.8v0l1.232,0.711V99.095z M252.968,287.669l-12.244,53.642
		l-52.578,16.219v0l-1.359,0.419l-1.043-0.967l0,0l-39.291-36.457l0,0l-1.043-0.968l0.317-1.388l12.244-53.643l1.359-0.419
		l52.578-16.218l40.334,37.425l0,0l1.043,0.968L252.968,287.669L252.968,287.669z"/>
	<rect x="89.55" y="103.08" width="2" height="45.628"/>
	<rect x="209.994" y="317.865" transform="matrix(-0.2947 -0.9556 0.9556 -0.2947 -52.3795 642.6971)" width="2" height="45.628"/>
	<polygon points="450.995,175.278 450.708,174.778 450.129,174.778 448.129,174.778 409.966,174.778 409.966,176.778 
		448.129,176.778 449.552,176.778 450.263,178.009 450.263,178.009 478.063,226.16 479.795,225.161 	"/>
	<polygon points="273.54,169.363 288.969,191.414 292.387,191.414 292.387,163.23 288.911,163.23 288.911,185.359 288.735,185.359 
		273.305,163.23 269.887,163.23 269.887,191.414 273.364,191.414 273.364,169.363 	"/>
	<polygon points="217.208,52.754 217.384,52.754 232.814,74.805 236.232,74.805 236.232,46.621 232.755,46.621 232.755,68.75 
		232.579,68.75 217.15,46.621 213.732,46.621 213.732,74.805 217.208,74.805 	"/>
	<polygon points="217.247,29.789 232.716,29.789 232.716,42.621 236.232,42.621 236.232,14.438 232.716,14.438 232.716,26.625 
		217.247,26.625 217.247,14.438 213.732,14.438 213.732,42.621 217.247,42.621 	"/>
	<path d="M317.05,43.291c7.988,0,12.988-5.605,12.988-14.551c0-8.945-5-14.57-12.988-14.57c-7.988,0-12.988,5.625-12.988,14.57
		C304.062,37.686,309.062,43.291,317.05,43.291z M317.05,17.413c5.762,0,9.375,4.375,9.375,11.328
		c0,6.934-3.613,11.309-9.375,11.309c-5.762,0-9.375-4.375-9.375-11.309C307.675,21.787,311.289,17.413,317.05,17.413z"/>
	<polygon points="300.874,282.587 304.39,282.587 304.39,270.38 316.87,270.38 316.87,267.255 304.39,267.255 304.39,257.567 
		317.984,257.567 317.984,254.403 300.874,254.403 	"/>
	<path d="M26.865,172.323c4.023,0,7.246,2.422,8.145,6.113h3.555c-0.898-5.625-5.566-9.356-11.699-9.356
		c-7.715,0-12.695,5.703-12.695,14.551c0,8.926,4.922,14.57,12.695,14.57c6.23,0,10.41-3.105,11.699-8.672H35.01
		c-1.016,3.438-3.984,5.43-8.125,5.43c-5.566,0-9.102-4.414-9.102-11.328C17.783,176.776,21.357,172.323,26.865,172.323z"/>
	<rect x="43.029" y="168.319" width="3.398" height="29.414"/>
	<polygon points="382.058,155.641 367.877,131.079 388.387,95.554 386.654,94.555 366.722,129.079 365.596,127.127 365.596,127.127 
		364.596,125.395 364.308,124.895 363.729,124.895 361.729,124.895 359.475,124.895 379.408,90.37 377.675,89.371 357.166,124.895 
		306.758,124.895 284.808,79.315 309.692,48.111 308.129,46.863 283.844,77.315 282.906,75.366 282.906,75.366 282.038,73.564 
		281.83,73.131 281.36,73.024 279.41,72.579 279.41,72.579 277.302,72.098 301.586,41.646 300.023,40.399 275.138,71.604 
		242.693,64.198 242.249,66.149 280.445,74.867 305.019,125.895 290.026,157.029 291.827,157.898 306.758,126.895 361.729,126.895 
		363.152,126.895 363.863,128.126 363.863,128.126 380.326,156.641 	"/>
	<path d="M392.529,61.217c-7.988,0-12.988,5.625-12.988,14.57c0,8.945,5,14.551,12.988,14.551c7.988,0,12.988-5.605,12.988-14.551
		C405.518,66.842,400.518,61.217,392.529,61.217z M392.529,87.096c-5.762,0-9.375-4.375-9.375-11.309
		c0-6.953,3.613-11.328,9.375-11.328c5.762,0,9.375,4.375,9.375,11.328C401.904,82.721,398.291,87.096,392.529,87.096z"/>
	<path d="M392.529,160.983c-7.988,0-12.988,5.625-12.988,14.57c0,8.945,5,14.551,12.988,14.551c7.988,0,12.988-5.605,12.988-14.551
		C405.517,166.608,400.517,160.983,392.529,160.983z M392.529,186.862c-5.762,0-9.375-4.375-9.375-11.309
		c0-6.953,3.613-11.328,9.375-11.328c5.762,0,9.375,4.375,9.375,11.328C401.904,182.487,398.291,186.862,392.529,186.862z"/>
</g>
</svg>
