<?xml version="1.0" encoding="iso-8859-1"?>
<!-- Generator: Adobe Illustrator 19.1.0, SVG Export Plug-In . SVG Version: 6.00 Build 0)  -->
<svg version="1.1" id="&#x421;&#x43B;&#x43E;&#x439;_1"
	 xmlns="http://www.w3.org/2000/svg" xmlns:xlink="http://www.w3.org/1999/xlink" x="0px" y="0px" viewBox="0 0 424.517 370.205"
	 style="enable-background:new 0 0 424.517 370.205;" xml:space="preserve" width="424.517" height="370.205">
<g>
	<rect x="166.325" y="223.477" width="33.964" height="2.4"/>
	<path d="M114.06,259.639l0.887-1.112l0,0l19.812-24.843l-1.876-1.497l-20.549,25.767l-1.129-0.348v0l-53.13-16.388l-0.661-0.205
		l-0.509,0.473l-40.758,37.818l-1.466,1.36l-0.507,0.471l0.154,0.675l12.372,54.206h0l0.445,1.95l0.153,0.676l0.664,0.205
		l53.13,16.388l1.911,0.589l0.661,0.205l0.509-0.473l1.466-1.36l0,0l40.158-37.261l35.292,16.996l1.043-2.162l-35.51-17.101
		L114.06,259.639z M84.005,352.436l-0.958,0.889l-1.249-0.385L29.33,336.756l-12.218-53.53h0l-0.291-1.275l40.25-37.347l0.958-0.889
		l1.249,0.385l0,0l52.468,16.184l12.218,53.53h0l0.291,1.275L84.005,352.436z"/>
	<rect x="59.371" y="259.561" transform="matrix(0.9556 0.2948 -0.2948 0.9556 80.5117 -12.6397)" width="45.628" height="2.4"/>
	<rect x="9.199" y="306.113" transform="matrix(-0.2225 -0.9749 0.9749 -0.2225 -260.4711 406.9064)" width="45.628" height="2.4"/>
	<rect x="96.215" y="304.673" transform="matrix(-0.6806 -0.7326 0.7326 -0.6806 -76.2139 621.749)" width="2.4" height="45.628"/>
	<rect x="234.721" y="326.287" transform="matrix(-0.733 -0.6802 0.6802 -0.733 223.5713 742.7194)" width="45.628" height="2.4"/>
	<rect x="321.736" y="284.499" transform="matrix(-0.975 -0.2221 0.2221 -0.975 569.5471 678.678)" width="2.4" height="45.628"/>
	
		<rect x="271.564" y="237.947" transform="matrix(-0.2947 -0.9556 0.9556 -0.2947 103.9737 598.2606)" width="2.4" height="45.628"/>
	<polygon points="222.429,144.922 224.508,143.723 207.66,114.543 235.114,66.991 235.768,65.859 237.075,65.859 275.025,65.859 
		275.025,63.46 237.075,63.46 235.075,63.46 234.382,63.459 234.035,64.06 233.035,65.792 233.035,65.792 206.235,112.211 
		205.235,113.943 204.889,114.543 205.235,115.142 	"/>
	<path d="M339.761,280.191l-41.715-38.706l-0.507-0.472l-0.664,0.205l-53.13,16.389v0l-1.129,0.348l-0.737-0.924l-34.156-42.83
		l17.326-30.009l-2.079-1.199l-17.388,30.117h-1.307h-37.95v2.4h37.95h1.422l35.192,44.13l-12.56,55.029l-1.282,0.617v0
		l-32.031,15.425l1.043,2.162l33.095-15.937l0.866,0.803l0,0l40.758,37.818l0.507,0.472l0.664-0.205l1.911-0.589l53.13-16.388
		l0.662-0.203l0.154-0.677l0.445-1.95h0l12.218-53.53l1.249-0.385l32.112-9.905l-0.707-2.293L339.761,280.191z M337.838,283.225
		l-12.218,53.53l-1.249,0.385l-52.468,16.184l-40.249-37.346l-0.959-0.89l12.509-54.805l1.249-0.385l51.219-15.799v0l1.249-0.385
		l0.958,0.889l40.25,37.347L337.838,283.225L337.838,283.225z"/>
	<rect x="311.678" y="12.473" transform="matrix(0.8663 0.4996 -0.4996 0.8663 56.6616 -152.3387)" width="2.4" height="34.387"/>
	<polygon points="140.901,205.881 141.077,205.881 156.507,227.932 159.925,227.932 159.925,199.748 156.448,199.748 
		156.448,221.877 156.272,221.877 140.843,199.748 137.425,199.748 137.425,227.932 140.901,227.932 	"/>
	<path d="M177.475,325.695c-7.988,0-12.988,5.625-12.988,14.57c0,8.945,5,14.551,12.988,14.551c7.988,0,12.988-5.605,12.988-14.551
		C190.463,331.32,185.463,325.695,177.475,325.695z M177.475,351.574c-5.762,0-9.375-4.375-9.375-11.309
		c0-6.953,3.613-11.328,9.375-11.328c5.762,0,9.375,4.375,9.375,11.328C186.85,347.199,183.236,351.574,177.475,351.574z"/>
	<polygon points="242.672,171.994 227.243,149.865 223.825,149.865 223.825,178.049 227.301,178.049 227.301,155.998 
		227.477,155.998 242.907,178.049 246.325,178.049 246.325,149.865 242.848,149.865 242.848,171.994 	"/>
	<polygon points="321.514,112.211 304.78,83.226 302.701,84.425 320.089,114.543 291.982,163.226 290.675,163.226 252.725,163.226 
		252.725,165.626 290.675,165.626 292.675,165.626 293.367,165.627 293.714,165.025 321.514,116.874 322.514,115.142 
		322.86,114.543 322.514,113.943 321.514,112.211 	"/>
	<polygon points="284.901,56.232 285.077,56.232 300.507,78.283 303.925,78.283 303.925,50.099 300.448,50.099 300.448,72.228 
		300.272,72.228 284.843,50.099 281.425,50.099 281.425,78.283 284.901,78.283 	"/>
	<path d="M391.339,253.392c4.023,0,7.246,2.422,8.145,6.113h3.555c-0.898-5.625-5.566-9.355-11.699-9.355
		c-7.715,0-12.695,5.703-12.695,14.551c0,8.926,4.922,14.57,12.695,14.57c6.23,0,10.41-3.105,11.699-8.672h-3.555
		c-1.016,3.438-3.984,5.43-8.125,5.43c-5.566,0-9.102-4.414-9.102-11.328C382.257,257.846,385.832,253.392,391.339,253.392z"/>
	<rect x="406.945" y="249.388" width="3.398" height="29.414"/>
</g>
</svg>
