<?xml version="1.0" encoding="iso-8859-1"?>
<!-- Generator: Adobe Illustrator 19.1.0, SVG Export Plug-In . SVG Version: 6.00 Build 0)  -->
<svg version="1.1" id="&#x421;&#x43B;&#x43E;&#x439;_1"
	 xmlns="http://www.w3.org/2000/svg" xmlns:xlink="http://www.w3.org/1999/xlink" x="0px" y="0px" viewBox="0 0 768.359 286.951"
	 style="enable-background:new 0 0 768.359 286.951;" xml:space="preserve" width="768.359" height="286.951">
<g>
	<polygon points="610.883,16.581 612.191,16.581 665.791,16.581 667.098,16.581 667.751,17.713 683.945,45.76 686.024,44.561 
		668.83,14.781 668.485,14.181 667.791,14.181 665.791,14.181 612.191,14.181 610.191,14.181 609.498,14.18 609.151,14.781 
		591.958,44.562 594.037,45.761 	"/>
	<rect x="581.956" y="144.073" transform="matrix(0.5 -0.866 0.866 0.5 176.5759 596.3832)" width="45.628" height="2.4"/>
	<rect x="616.177" y="203.345" width="45.628" height="2.4"/>
	<rect x="650.398" y="144.073" transform="matrix(-0.5 -0.866 0.866 -0.5 884.0076 800.9278)" width="45.628" height="2.4"/>
	<rect x="714.241" y="64.064" width="39.95" height="2.4"/>
	<path d="M373.037,170.708L373.037,170.708l-1.133,0.654l-1.133-0.654l0,0l-48.151-27.8l-0.599-0.346l-0.599,0.346l-1.732,1v0
		l-47.552,27.454l-43.499-25.114v-41.057h-2.4v39.672l-3.385-1.954l-0.6-0.346l-0.599,0.346l-3.385,1.954v-39.672h-2.4v41.057
		l-43.499,25.114l-47.552-27.454l-1.732-1l-0.599-0.346l-0.599,0.346l-1.732,1l-48.151,27.8l-0.6,0.345v0.694v2v53.6v1.307
		l-1.131,0.653v0L35.63,250.311l1.199,2.079l34.644-20.002l0,0l1.133-0.654l49.284,28.454l0.599,0.346l0.599-0.346l48.151-27.8l0,0
		l1.732-1l0.6-0.345v-0.694v-2v-53.6v-1.307l47.55-27.453v0l1.133-0.654l1.133,0.654l0,0l46.419,26.8l1.732,1l0.6,0.346l0.599-0.346
		l1.732-1l47.552-27.454l1.133,0.654l48.151,27.8l0.599,0.346l0.6-0.346l33.09-19.105l-1.199-2.079L373.037,170.708z
		 M171.172,174.748v53.6v1.307l-1.132,0.653l0,0l-47.552,27.454l-48.683-28.107v-1.307v-53.6v-1.307l47.551-27.453v0l1.133-0.654
		l48.683,28.107V174.748z"/>
	
		<rect x="141.047" y="144.513" transform="matrix(-0.4995 0.8663 -0.8663 -0.4995 358.2586 127.6873)" width="2.4" height="45.628"/>
	<rect x="81.774" y="178.734" width="2.4" height="45.628"/>
	<rect x="141.047" y="212.955" transform="matrix(-0.4996 -0.8663 0.8663 -0.4996 9.0728 476.7793)" width="2.4" height="45.628"/>
	<polygon points="573.617,56.837 573.793,56.837 589.223,78.887 592.641,78.887 592.641,50.704 589.164,50.704 589.164,72.833 
		588.988,72.833 573.559,50.704 570.141,50.704 570.141,78.887 573.617,78.887 	"/>
	<polygon points="704.364,72.832 704.188,72.832 688.759,50.703 685.341,50.703 685.341,78.887 688.817,78.887 688.817,56.836 
		688.993,56.836 704.423,78.887 707.841,78.887 707.841,50.703 704.364,50.703 	"/>
	<path d="M696.63,162.699l-27.454-47.552l17.389-30.118l-2.079-1.199l-17.388,30.117h-1.307l-54.907,0L593.496,83.83l-2.079,1.199
		l16.735,28.985h0l0.654,1.133l-0.654,1.133h0l-27.301,47.288l-58.096-20.47l0-55.901l41.75-14.71l-0.798-2.263L523.04,84.551
		l5.713-35.781h-14.4l5.635,35.287l-47.718-27.55l-0.6-0.346l-0.599,0.346l-48.151,27.8l-1.732,1l-0.601,0.345v0.694v2l0,34.639h2.4
		l0-35.947l1.132-0.653l0,0l47.552-27.454l48.683,28.107l0,56.214l-47.55,27.453l0,0l-1.133,0.654l-1.133-0.654l0,0l-31.358-18.105
		l-1.199,2.079l33.091,19.105l0.599,0.346l0.6-0.346l47.708-27.544l-5.624,34.344h14.4l-5.705-34.84l57.525,20.268l28.578,49.498
		l0.345,0.6h0.694h2h53.6h2l0.693,0.001l0.347-0.602l1-1.732l27.8-48.151l0.346-0.599l-0.346-0.599L696.63,162.699z
		 M694.551,166.163l-27.453,47.55h-1.307l-54.907,0l-0.653-1.132l0,0l-27.454-47.551l0.654-1.133l27.453-47.551l56.214,0
		l0.653,1.132l0,0l27.454,47.551L694.551,166.163z"/>
	<polygon points="429.561,151.516 429.385,151.516 413.955,129.387 410.537,129.387 410.537,157.571 414.014,157.571 
		414.014,135.52 414.19,135.52 429.62,157.571 433.037,157.571 433.037,129.387 429.561,129.387 	"/>
	<polygon points="529.288,199.174 513.819,199.174 513.819,186.987 510.304,186.987 510.304,215.171 513.819,215.171 
		513.819,202.339 529.288,202.339 529.288,215.171 532.804,215.171 532.804,186.987 529.288,186.987 	"/>
	<polygon points="513.819,29.538 529.288,29.538 529.288,42.371 532.803,42.371 532.803,14.187 529.288,14.187 529.288,26.375 
		513.819,26.375 513.819,14.187 510.303,14.187 510.303,42.371 513.819,42.371 	"/>
	<path d="M222.255,100.674c7.988,0,12.988-5.606,12.988-14.551c0-8.945-5-14.57-12.988-14.57c-7.988,0-12.988,5.625-12.988,14.57
		C209.267,95.069,214.267,100.674,222.255,100.674z M222.255,74.795c5.762,0,9.375,4.375,9.375,11.328
		c0,6.934-3.613,11.309-9.375,11.309c-5.762,0-9.375-4.375-9.375-11.309C212.88,79.17,216.494,74.795,222.255,74.795z"/>
	<polygon points="14.168,272.771 17.684,272.771 17.684,260.564 30.164,260.564 30.164,257.439 17.684,257.439 17.684,247.752 
		31.278,247.752 31.278,244.588 14.168,244.588 	"/>
</g>
</svg>
