<?xml version="1.0" encoding="iso-8859-1"?>
<!-- Generator: Adobe Illustrator 19.1.0, SVG Export Plug-In . SVG Version: 6.00 Build 0)  -->
<svg version="1.1" id="&#x421;&#x43B;&#x43E;&#x439;_1"
	 xmlns="http://www.w3.org/2000/svg" xmlns:xlink="http://www.w3.org/1999/xlink" x="0px" y="0px" viewBox="0 0 727.2 453.373"
	 style="enable-background:new 0 0 727.2 453.373;" xml:space="preserve" width="727.2" height="453.373">
<g>
	<path d="M488.428,172.848l-52.913-25.72V92.276v-2l0.001-0.693l-0.602-0.347l-1.732-1l0,0l-48.151-27.8l-0.599-0.346l-0.599,0.346
		l-48.151,27.8l0,0l-1.732,1l-0.601,0.345v0.694l0,55.6l0,0v2l-0.001,0.693l0.602,0.347l1.732,1l0,0l48.151,27.8l0.599,0.346
		l0.599-0.346l49.217-28.415l44.315,32.015l6.235-3.6l0,0l33.09-19.105l-1.199-2.079L488.428,172.848z M433.115,147.183
		l-47.55,27.453l0,0l-1.133,0.654l-1.133-0.654l0,0l-47.55-27.453l0-54.907l0,0v-1.307l48.683-28.107l48.683,28.107v1.307V147.183z"
		/>
	<polygon points="380.385,211.276 388.858,211.276 388.672,209.276 380.55,209.276 	"/>
	<polygon points="382.919,180.476 382.755,182.476 386.173,182.476 385.986,180.476 	"/>
	<polygon points="378.97,228.476 378.806,230.476 390.649,230.476 390.462,228.476 	"/>
	<polygon points="379.595,220.876 389.754,220.876 389.567,218.876 379.76,218.876 	"/>
	<polygon points="381.175,201.676 387.963,201.676 387.777,199.676 381.34,199.676 	"/>
	<polygon points="381.965,192.076 387.068,192.076 386.882,190.076 382.13,190.076 	"/>
	<rect x="366.687" y="224.723" transform="matrix(-0.4996 -0.8663 0.8663 -0.4996 340.4681 684.3289)" width="2.4" height="38.21"/>
	<polygon points="333.349,318.676 333.349,319.983 332.217,320.636 332.217,320.636 284.666,348.09 252.175,329.331 250.976,331.41 
		282.335,349.515 282.335,349.515 284.067,350.515 284.666,350.861 285.266,350.515 335.149,321.715 335.749,321.37 
		335.749,320.676 335.749,318.676 335.749,283.099 333.349,283.099 	"/>
	<polygon points="235.983,265.076 235.983,263.768 237.114,263.115 237.114,263.115 283.533,236.315 283.533,236.315 
		284.666,235.661 285.799,236.315 285.799,236.315 317.157,254.42 318.356,252.341 286.998,234.236 286.998,234.236 
		285.265,233.236 284.666,232.89 284.066,233.236 282.334,234.236 282.335,234.236 234.184,262.036 233.583,262.381 
		233.583,263.076 233.583,265.076 233.583,299.715 235.983,299.715 	"/>
	<path d="M184.763,348.169l-1.393-0.453v0L130.998,330.7l-0.596-1.339l0,0l-22.615-50.793l-0.281-0.632l-0.688-0.073l-57.284-6.021
		l-0.689-0.074l-0.409,0.562L14.58,318.929l-0.408,0.559l0.282,0.635l0.813,1.827l0,0l22.615,50.793l0.281,0.632l0.688,0.073
		l56.755,5.965l22.517,30.992l1.941-1.412l-22.318-30.718l32.831-45.189l53.122,17.261v1.128v34.639h2.4v-34.639v-1.307
		l32.49-18.758l-1.199-2.079L184.763,348.169z M16.928,319.779l0.768-1.057h0l31.505-43.363l0,0l0.769-1.058l54.605,5.739v0
		l1.301,0.137l0.532,1.194l0,0l21.801,48.966l0,0l0.532,1.194L95.699,377.01l-54.605-5.739v0l-1.301-0.137l-0.532-1.194l0,0
		L17.46,320.974l0,0L16.928,319.779z"/>
	<rect x="173.332" y="355.462" width="2.4" height="30.653"/>
	<rect x="155.823" y="405.05" transform="matrix(-0.3093 -0.951 0.951 -0.3093 -190.1409 694.1635)" width="2.4" height="22.166"/>
	<rect x="86.119" y="308.383" transform="matrix(0.4067 0.9135 -0.9135 0.4067 347.4444 84.1486)" width="45.628" height="2.4"/>
	<rect x="39.666" y="279.615" transform="matrix(0.8087 0.5883 -0.5883 0.8087 185.7306 33.8258)" width="2.4" height="45.628"/>
	<polygon points="45.888,363.763 91.266,368.532 91.52,366.145 46.142,361.376 	"/>
	<polygon points="630.578,133.036 626.505,135.385 627.203,137.291 631.88,134.594 	"/>
	<polygon points="643.084,147.994 633.205,153.691 633.903,155.598 644.387,149.552 	"/>
	<polygon points="636.831,140.515 629.855,144.538 630.553,146.445 638.133,142.073 	"/>
	<polygon points="584.581,66.133 591.566,62.105 590.859,60.203 583.287,64.569 	"/>
	<polygon points="578.372,58.628 588.171,52.977 587.464,51.075 577.078,57.065 	"/>
	<polygon points="590.789,73.638 594.96,71.232 594.253,69.331 589.496,72.074 	"/>
	<path d="M712.683,78.016l-1-1.732l0,0l-27.8-48.151l-0.345-0.601h-0.694h-2l0,0l-55.6,0l-0.693-0.001l-0.347,0.602l-28.498,49.359
		l-54.351,5.637l-25.768-23.202l-1.606,1.783l25.534,22.991l-0.606,5.763h0l-0.424,4.032L508.65,67.632l-1.606,1.783l31.132,28.031
		l-3.088,29.377l2.387,0.253l3.175-30.21l55.23-16.829l27.851,48.239l-42.189,39.416l-29.874-13.301l-0.976,2.193l28.946,12.887l0,0
		l0.165,0.074l8.156,38.373l2.347-0.501l-7.794-36.666l8.997,4.006l6.59,31.005l2.347-0.501l-6.656-31.313l32.057-44.25l56.996,0
		l0.693,0.001l0.347-0.601l28.8-49.883l0.346-0.599L712.683,78.016z M597.829,78.616l27.454-47.551h0l0.2-0.346L664.981,72.3
		l16.262,54.998h-0.4l0,0l-54.907,0L597.829,78.616z M678.238,65.108l0.16-0.092l-0.4-0.693l-0.16,0.092l-48.825-34.483l53.138,0
		l0.653,1.131l0,0l27.454,47.552l-0.654,1.133l0,0l-25.915,44.886L678.238,65.108z M625.243,128.499L625.243,128.499
		L625.243,128.499L625.243,128.499z"/>
	<polygon points="541.855,155.444 541.679,155.444 526.249,133.315 522.831,133.315 522.831,161.499 526.308,161.499 
		526.308,139.448 526.484,139.448 541.913,161.499 545.331,161.499 545.331,133.315 541.855,133.315 	"/>
	<path d="M598.677,212.85c-7.988,0-12.988,5.625-12.988,14.57c0,8.945,5,14.551,12.988,14.551c7.988,0,12.988-5.605,12.988-14.551
		C611.666,218.475,606.666,212.85,598.677,212.85z M598.677,238.729c-5.762,0-9.375-4.375-9.375-11.309
		c0-6.953,3.613-11.328,9.375-11.328c5.762,0,9.375,4.375,9.375,11.328C608.052,234.354,604.439,238.729,598.677,238.729z"/>
	<path d="M497.297,66.375c7.988,0,12.988-5.605,12.988-14.551c0-8.945-5-14.57-12.988-14.57s-12.988,5.625-12.988,14.57
		C484.309,60.77,489.309,66.375,497.297,66.375z M497.297,40.497c5.762,0,9.375,4.375,9.375,11.328
		c0,6.933-3.613,11.309-9.375,11.309s-9.375-4.375-9.375-11.309C487.922,44.872,491.535,40.497,497.297,40.497z"/>
	<polygon points="342.322,270.644 342.147,270.644 326.717,248.515 323.299,248.515 323.299,276.699 326.776,276.699 
		326.776,254.648 326.951,254.648 342.381,276.699 345.799,276.699 345.799,248.515 342.322,248.515 	"/>
	<polygon points="242.556,328.244 242.381,328.244 226.951,306.115 223.533,306.115 223.533,334.299 227.009,334.299 
		227.009,312.248 227.185,312.248 242.615,334.299 246.033,334.299 246.033,306.115 242.556,306.115 	"/>
	<polygon points="192.673,414.644 192.498,414.644 177.068,392.515 173.65,392.515 173.65,420.699 177.126,420.699 177.126,398.648 
		177.302,398.648 192.732,420.699 196.15,420.699 196.15,392.515 192.673,392.515 	"/>
	<path d="M132.414,423.068l-2.949-0.781c-3.828-0.996-5.391-2.266-5.391-4.395c0-2.754,2.539-4.648,6.191-4.648
		c3.672,0,6.113,1.855,6.426,4.883h3.516c-0.156-4.727-4.219-8.047-9.824-8.047c-5.859,0-9.961,3.281-9.961,7.969
		c0,3.828,2.305,6.113,7.5,7.441l3.613,0.938c3.789,0.977,5.449,2.441,5.449,4.824c0,2.773-2.773,4.785-6.582,4.785
		c-4.023,0-6.914-2.012-7.246-5.059h-3.535c0.332,4.98,4.473,8.223,10.449,8.223c6.484,0,10.547-3.223,10.547-8.379
		C140.617,426.779,138.254,424.533,132.414,423.068z"/>
	<polygon points="661.778,176.009 646.309,176.009 646.309,163.821 642.793,163.821 642.793,192.005 646.309,192.005 
		646.309,179.173 661.778,179.173 661.778,192.005 665.293,192.005 665.293,163.821 661.778,163.821 	"/>
	<polygon points="559.909,29.524 575.378,29.524 575.378,42.356 578.893,42.356 578.893,14.172 575.378,14.172 575.378,26.36 
		559.909,26.36 559.909,14.172 556.393,14.172 556.393,42.356 559.909,42.356 	"/>
</g>
</svg>
