<?xml version="1.0" encoding="utf-8"?>
<!-- Generator: Adobe Illustrator 19.2.1, SVG Export Plug-In . SVG Version: 6.00 Build 0)  -->
<svg version="1.1" id="Слой_1" xmlns="http://www.w3.org/2000/svg" xmlns:xlink="http://www.w3.org/1999/xlink" x="0px" y="0px"
	 viewBox="0 0 337 390.3" style="enable-background:new 0 0 337 390.3;" xml:space="preserve" width="337" height="390.3">
<g>
	<rect x="50.4" y="134.3" width="45.6" height="2.4"/>
	<rect x="106.2" y="53.4" transform="matrix(0.8658 -0.5004 0.5004 0.8658 -23.7113 63.9536)" width="2.4" height="45.6"/>
	<rect x="16.1" y="75" transform="matrix(0.5004 -0.8658 0.8658 0.5004 -46.5063 71.775)" width="45.6" height="2.4"/>
	<rect x="206.7" y="124.9" transform="matrix(0.4997 -0.8662 0.8662 0.4997 5.6483 261.9069)" width="45.6" height="2.4"/>
	<rect x="241" y="184.1" width="45.6" height="2.4"/>
	<path d="M322.4,146.4l0.3-0.6l-0.3-0.6l0,0l-27.8-48.2l0,0l-1.3-2.3h-0.7h-2h-55.4l-1.7-0.7l0,0l-47.5-18.7V20.6v-2v-4.5l-2.2,3.9
		l0,0l0,0l-1,1.7l0,0L156,66.2l0,0l-1.2,2v0.3v2v54.8l-50.2,18.3l26.9-46.6l16.5-6v-2.6l-16.8,6.1L104,47.2l0,0l-1.3-2.3H102h-2
		H46.4h-2h-0.7l-1.3,2.3l0,0L14.5,95.3l-0.4,0.6l0.4,0.7l27.8,48.1l0,0l1.3,2.3h0.7h2H100h2h0.7l0.1-0.2l50.6-18.4l-26.1,45.3l0,0
		l-1.3,2.4l0.4,0.7l28.4,49.2L154,227l0,0l-27.7,48l-0.4,0.7l0.3,0.6l17,29.4l2.1-1.2l-16-27.6l0,0l-0.6-1.1l0.6-1.1l0,0l27.8-48.1
		l0.4-0.7l-1.3-2.4l0,0l-26.8-46.4l0,0l-0.7-1.1l27.9-48.4l48.8,19.2l27.6,47.8l0,0l1.3,2.3h0.7h2h53.6h2h0.7l1.3-2.3l0,0
		L322.4,146.4L322.4,146.4z M101.3,144.6H100H46.4H45L17.6,97.1l0,0l-0.6-1.1l0.6-1.1l0,0L45,47.3h1.3H100h1.3l27.5,47.6l0,0
		l0.6,1.1l-0.6,1.1l0,0L101.3,144.6z M204.8,144L204.8,144l-47.5-18.7V70.5v-1.7l26.4-45.7v52.3l-19.6,7.1v2.6l20.8-7.6l48.4,19
		l-0.3,0.5l0,0l-27.3,47.3L204.8,144z M319.4,146.9l-27.5,47.6h-1.3H237h-1.3l-28.1-48.7l0.7-1.1l0,0l27.5-47.6h54.9h1.3l27.5,47.6
		l0,0l0.6,1.1L319.4,146.9L319.4,146.9z"/>
	<rect x="296.8" y="103.3" transform="matrix(0.8662 -0.4997 0.4997 0.8662 -23.12 165.7897)" width="2.4" height="45.6"/>
	<rect x="118.4" y="358.9" transform="matrix(0.4989 -0.8667 0.8667 0.4989 -243.8895 298.4631)" width="35.5" height="2.4"/>
	<polygon points="199.5,70.8 195.2,64.5 193.5,66.2 197.3,71.8 	"/>
	<polygon points="208.4,66.7 202.3,57.8 200.5,59.5 206.2,67.8 	"/>
	<polygon points="217.2,62.7 209.3,51 207.5,52.7 215,63.7 	"/>
	<polygon points="190.7,74.9 188.2,71.3 186.5,73 188.4,75.9 	"/>
	<polygon points="163.8,333.8 163.8,333.8 148.7,310.7 144.7,310.7 144.7,339.2 148.3,339.2 148.3,316.3 148.4,316.3 163.3,339.2 
		167.4,339.2 167.4,310.7 163.8,310.7 	"/>
	<polygon points="190.3,322.9 175.2,322.9 175.2,310.7 171.4,310.7 171.4,339.2 175.2,339.2 175.2,326.1 190.3,326.1 190.3,339.2 
		194.1,339.2 194.1,310.7 190.3,310.7 	"/>
	<polygon points="225,44.3 240,44.3 240,57.4 243.8,57.4 243.8,28.8 240,28.8 240,41.1 225,41.1 225,28.8 221.2,28.8 221.2,57.4 
		225,57.4 	"/>
</g>
</svg>
