<?xml version="1.0" encoding="UTF-8" standalone="no"?>
<!-- Created with Inkscape (http://www.inkscape.org/) -->

<svg
   xmlns:dc="http://purl.org/dc/elements/1.1/"
   xmlns:cc="http://creativecommons.org/ns#"
   xmlns:rdf="http://www.w3.org/1999/02/22-rdf-syntax-ns#"
   xmlns:svg="http://www.w3.org/2000/svg"
   xmlns="http://www.w3.org/2000/svg"
   version="1.1"
   width="598.01001"
   height="671.62"
   viewBox="0 0 598.01002 671.61997"
   id="svg2"
   xml:space="preserve"
   style="overflow:visible"><metadata
   id="metadata54"><rdf:RDF><cc:Work
       rdf:about=""><dc:format>image/svg+xml</dc:format><dc:type
         rdf:resource="http://purl.org/dc/dcmitype/StillImage" /><dc:title></dc:title></cc:Work></rdf:RDF></metadata><defs
   id="defs52" />
		<g
   transform="translate(50.000001,49.995987)"
   id="g4">
			<g
   id="g6">
				<polygon
   points="76.499,358.625 80.498,359.622 82.5,364.622 17.002,478.118 8.501,484.622 0,491.125 "
   id="polygon8" />
				<polygon
   points="0,491.125 8.501,484.622 17.002,478.118 142.998,442.122 147.002,445.12 138.501,451.624 "
   id="polygon10" />
				<polygon
   points="148.999,449.622 147.002,445.12 151.001,442.122 284.492,479.622 286.504,484.622 288.496,489.124 "
   id="polygon12" />
				<polygon
   points="288.496,489.124 286.504,484.622 284.492,479.622 350,366.125 358.496,359.622 360.508,364.622 "
   id="polygon14" />
				<polygon
   points="354.492,356.624 358.496,359.622 350,366.125 220,403.625 220,399.124 220,395.12 "
   id="polygon16" />
				<polygon
   points="131.001,378.118 82.5,364.622 80.498,359.622 84.502,356.624 131.001,370.12 "
   id="polygon18" />
				<polygon
   points="162.998,379.124 220,395.12 220,399.124 220,403.625 162.998,387.122 "
   id="polygon20" />
				<polygon
   points="84.502,356.624 80.498,359.622 76.499,358.625 76.499,212.62 80.498,215.623 84.502,218.621 "
   id="polygon22" />
				<polygon
   points="151.001,442.122 147.002,445.12 142.998,442.122 142.998,299.622 147.002,301.125 151.001,302.122 "
   id="polygon24" />
				<polygon
   points="362.5,356.624 358.496,359.622 354.492,356.624 354.492,218.621 358.496,215.623 362.5,212.62 "
   id="polygon26" />
				<polygon
   points="84.502,218.621 80.498,215.623 76.499,212.62 215,173.123 218.999,176.121 210.498,182.62 "
   id="polygon28" />
				<polygon
   points="221.001,181.121 218.999,176.121 222.998,173.123 362.5,212.62 358.496,215.623 354.492,218.621 "
   id="polygon30" />
				<polygon
   points="151.001,302.122 147.002,301.125 142.998,299.622 210.498,182.62 218.999,176.121 221.001,181.121 "
   id="polygon32" />
				<g
   id="g34">
					<path
   d="M 191.626,71.625 V 0 h 9.762 l 37.738,56.279 V 0 h 9.125 v 71.625 h -9.762 L 200.751,15.35 v 56.275 h -9.125 z"
   id="path36" />
					<path
   d="M 264.218,71.625 V 0 h 9.5 v 29.375 h 37.25 V 0 h 9.5 v 71.625 h -9.5 v -33.75 h -37.25 v 33.75 h -9.5 z"
   id="path38" />
				</g>
				<g
   id="g40">
					<path
   d="m 366.164,83.992 v 6.375 h -35.5 c -0.051,-1.59 0.207,-3.117 0.77,-4.584 0.902,-2.42 2.35,-4.799 4.34,-7.137 1.988,-2.336 4.863,-5.029 8.623,-8.078 5.834,-4.793 9.775,-8.584 11.822,-11.371 2.047,-2.785 3.07,-5.43 3.07,-7.934 0,-2.604 -0.936,-4.799 -2.803,-6.588 -1.869,-1.789 -4.305,-2.684 -7.309,-2.684 -3.176,0 -5.715,0.951 -7.619,2.852 -1.906,1.902 -2.871,4.535 -2.895,7.898 l -6.75,-0.75 c 0.463,-5.043 2.207,-8.889 5.23,-11.533 3.023,-2.644 7.082,-3.967 12.18,-3.967 5.145,0 9.215,1.428 12.215,4.281 3,2.855 4.5,6.393 4.5,10.611 0,2.146 -0.438,4.256 -1.313,6.33 -0.875,2.074 -2.324,4.256 -4.352,6.549 -2.028,2.293 -5.4,5.438 -10.117,9.43 -3.957,3.313 -6.5,5.559 -7.629,6.738 -1.129,1.182 -2.063,2.369 -2.799,3.561 h 26.336 z"
   id="path42" />
				</g>
				<polygon
   points="215,173.123 215,79.124 222.998,79.124 222.998,173.123 218.999,176.121 "
   id="polygon44" />
				<polygon
   points="362.5,356.624 498.008,393.118 495.996,400.618 360.508,364.622 358.496,359.622 "
   id="polygon46" />
				<polygon
   points="148.999,449.622 78.501,571.624 71.499,567.62 138.501,451.624 147.002,445.12 "
   id="polygon48" />
			</g>
		</g>
	</svg>