<?xml version="1.0" encoding="UTF-8" standalone="no"?>
<svg
   xmlns:dc="http://purl.org/dc/elements/1.1/"
   xmlns:cc="http://creativecommons.org/ns#"
   xmlns:rdf="http://www.w3.org/1999/02/22-rdf-syntax-ns#"
   xmlns:svg="http://www.w3.org/2000/svg"
   xmlns="http://www.w3.org/2000/svg"
   xmlns:sodipodi="http://sodipodi.sourceforge.net/DTD/sodipodi-0.dtd"
   xmlns:inkscape="http://www.inkscape.org/namespaces/inkscape"
   viewBox="90.73 95.88 75.34 55.37"
   preserveAspectRatio="xMidYMid"
   width="100%"
   height="100%"
   id="svg2"
   version="1.1"
   inkscape:version="0.48.1 "
   sodipodi:docname="Dexmethylphenidate.svg">
  <metadata
     id="metadata140">
    <rdf:RDF>
      <cc:Work
         rdf:about="">
        <dc:format>image/svg+xml</dc:format>
        <dc:type
           rdf:resource="http://purl.org/dc/dcmitype/StillImage" />
      </cc:Work>
    </rdf:RDF>
  </metadata>
  <defs
     id="defs138" />
  <sodipodi:namedview
     pagecolor="#ffffff"
     bordercolor="#666666"
     borderopacity="1"
     objecttolerance="10"
     gridtolerance="10"
     guidetolerance="10"
     inkscape:pageopacity="0"
     inkscape:pageshadow="2"
     inkscape:window-width="640"
     inkscape:window-height="480"
     id="namedview136"
     showgrid="false"
     inkscape:zoom="4.6595629"
     inkscape:cx="37.67"
     inkscape:cy="27.685"
     inkscape:window-x="0"
     inkscape:window-y="0"
     inkscape:window-maximized="0"
     inkscape:current-layer="svg2" />
  <clipPath
     id="58">
    <rect
       x="0.3"
       y="0.3"
       width="539.4"
       height="719.15"
       id="rect5" />
  </clipPath>
  <g
     id="drawing"
     transform="matrix(0.97151415,0,0,0.97151415,3.6575835,3.5198543)">
    <path
       style="fill:#ffffff;fill-opacity:0"
       d="m 90.730003,95.879997 75.339997,0 0,55.370003 -75.339997,0 z"
       id="rect8"
       inkscape:connector-curvature="0" />
    <g
       id="page"
       clip-path="url(#58)">
      <g
         id="Solid">
        <path
           d="m 90.73,129.13 0,0 0.3,0.17 0.3,0.17 0,14.06 -0.3,0.17 -0.3,0.17 z"
           shape-rendering="geometricPrecision"
           id="path12"
           inkscape:connector-curvature="0"
           style="fill:#000000;fill-rule:evenodd;stroke:#000000;stroke-width:0;stroke-linejoin:miter" />
        <path
           style="stroke:#000000;stroke-width:0.60000002"
           d="m 93.620003,130.8 0,11.4"
           id="line14"
           inkscape:connector-curvature="0" />
      </g>
      <g
         id="g16">
        <path
           d="m 90.73,143.87 0,0 0.3,-0.17 0.3,-0.17 12.17,7.02 0,0.35 0,0.35 z"
           shape-rendering="geometricPrecision"
           id="path18"
           inkscape:connector-curvature="0"
           style="fill:#000000;fill-rule:evenodd;stroke:#000000;stroke-width:0;stroke-linejoin:miter" />
      </g>
      <g
         id="g20">
        <path
           d="m 103.5,151.25 0,0 0,-0.35 0,-0.35 12.17,-7.02 0.3,0.17 0.3,0.17 z"
           shape-rendering="geometricPrecision"
           id="path22"
           inkscape:connector-curvature="0"
           style="fill:#000000;fill-rule:evenodd;stroke:#000000;stroke-width:0;stroke-linejoin:miter" />
        <path
           style="stroke:#000000;stroke-width:0.60000002"
           d="m 103.5,147.91 9.88,-5.71"
           id="line24"
           inkscape:connector-curvature="0" />
      </g>
      <g
         id="g26">
        <path
           d="m 116.27,143.87 0,0 -0.3,-0.17 -0.3,-0.17 0,-14.06 0.3,-0.17 0.3,0.17 z"
           shape-rendering="geometricPrecision"
           id="path28"
           inkscape:connector-curvature="0"
           style="fill:#000000;fill-rule:evenodd;stroke:#000000;stroke-width:0;stroke-linejoin:miter" />
      </g>
      <g
         id="g30">
        <path
           d="m 115.97,128.95 0,0 0,0.35 -0.3,0.17 -12.17,-7.02 0,-0.35 0,-0.35 z"
           shape-rendering="geometricPrecision"
           id="path32"
           inkscape:connector-curvature="0"
           style="fill:#000000;fill-rule:evenodd;stroke:#000000;stroke-width:0;stroke-linejoin:miter" />
        <path
           style="stroke:#000000;stroke-width:0.60000002"
           d="m 113.38,130.8 -9.88,-5.71"
           id="line34"
           inkscape:connector-curvature="0" />
      </g>
      <g
         id="g36">
        <path
           d="m 103.5,121.75 0,0 0,0.35 0,0.35 -12.17,7.02 -0.3,-0.17 -0.3,-0.17 z"
           shape-rendering="geometricPrecision"
           id="path38"
           inkscape:connector-curvature="0"
           style="fill:#000000;fill-rule:evenodd;stroke:#000000;stroke-width:0;stroke-linejoin:miter" />
      </g>
      <g
         id="ObjectTag">
        <g
           id="g41">
          <g
             style="text-anchor:start;display:none"
             id="text43">
            <path
               d="m 124.1085,133.25836 c -0.3833,-0.83984 -0.57495,-1.70288 -0.57495,-2.58911 0,-0.59082 0.0775,-1.14074 0.23254,-1.64978 0.15503,-0.50903 0.39123,-1.01257 0.70862,-1.51062 0.20996,-0.33203 0.54565,-0.76171 1.00708,-1.28906 l 0.51636,0 c -0.28565,0.30518 -0.58778,0.73487 -0.90638,1.28906 -0.3186,0.5542 -0.54992,1.09864 -0.69397,1.6333 -0.14404,0.53467 -0.21606,1.07178 -0.21606,1.61133 0,0.80566 0.14038,1.64062 0.42114,2.50488 z"
               style="font-size:7.5px;font-style:italic;fill:#000000;font-family:Arial"
               id="path3122"
               inkscape:connector-curvature="0" />
            <path
               d="m 125.75645,131.67999 1.12426,-5.36865 2.2522,0 c 0.44433,1e-5 0.78125,0.0372 1.01074,0.11169 0.22949,0.0745 0.40954,0.21424 0.54017,0.41932 0.1306,0.20508 0.19591,0.46387 0.19592,0.77636 -1e-5,0.43702 -0.14283,0.79957 -0.42847,1.08765 -0.28565,0.28809 -0.74707,0.47486 -1.38428,0.5603 0.19531,0.14405 0.34302,0.28565 0.44312,0.42481 0.2246,0.31494 0.40527,0.64087 0.54199,0.97778 l 0.41016,1.01074 -0.802,0 -0.38453,-0.99975 c -0.13916,-0.36133 -0.29785,-0.67383 -0.47607,-0.9375 -0.12207,-0.18311 -0.24659,-0.30335 -0.37354,-0.36072 -0.12695,-0.0574 -0.33325,-0.0861 -0.61889,-0.0861 l -0.83496,0 -0.49805,2.38403 z m 1.33667,-2.96631 0.99243,0 c 0.45898,1e-5 0.75805,-0.006 0.89722,-0.0183 0.27099,-0.0268 0.49316,-0.0879 0.6665,-0.1831 0.17333,-0.0952 0.30761,-0.22339 0.40283,-0.38452 0.0952,-0.16113 0.14282,-0.33447 0.14282,-0.52002 0,-0.15625 -0.0354,-0.29236 -0.1062,-0.40833 -0.0708,-0.11596 -0.16358,-0.1947 -0.27832,-0.2362 -0.11475,-0.0415 -0.31006,-0.0623 -0.58594,-0.0623 l -1.75048,0 z"
               style="font-size:7.5px;font-style:italic;fill:#000000;font-family:Arial"
               id="path3124"
               inkscape:connector-curvature="0" />
            <path
               d="m 132.31162,126.21979 c 0.38574,0.83985 0.57861,1.70166 0.57862,2.58545 -1e-5,0.59326 -0.0775,1.1438 -0.23255,1.65161 -0.15503,0.50781 -0.39123,1.01196 -0.70862,1.51245 -0.2124,0.33203 -0.54809,0.76172 -1.00708,1.28906 l -0.51635,0 c 0.2832,-0.30762 0.58471,-0.73852 0.90454,-1.29272 0.31982,-0.5542 0.55114,-1.09802 0.69397,-1.63147 0.14282,-0.53345 0.21423,-1.07117 0.21423,-1.61316 0,-0.80566 -0.14038,-1.6394 -0.42114,-2.50122 z"
               style="font-size:7.5px;font-style:italic;fill:#000000;font-family:Arial"
               id="path3126"
               inkscape:connector-curvature="0" />
          </g>
        </g>
      </g>
      <g
         id="g47">
        <path
           d="m 116.27,129.47 0,0 -0.3,-0.17 0,-0.35 12.12,-6.99 0.31,0.17 0,0.35 z"
           shape-rendering="geometricPrecision"
           id="path49"
           inkscape:connector-curvature="0"
           style="fill:#000000;fill-rule:evenodd;stroke:#000000;stroke-width:0;stroke-linejoin:miter" />
      </g>
      <g
         id="g51">
        <g
           id="g53">
          <g
             style="text-anchor:start;display:none"
             id="text55">
            <path
               d="m 129.0285,137.25836 c -0.38331,-0.83984 -0.57496,-1.70288 -0.57496,-2.58911 0,-0.59082 0.0775,-1.14074 0.23255,-1.64978 0.15503,-0.50903 0.39123,-1.01257 0.70862,-1.51062 0.20996,-0.33203 0.54565,-0.76171 1.00708,-1.28906 l 0.51635,0 c -0.28564,0.30518 -0.58777,0.73487 -0.90637,1.28906 -0.3186,0.5542 -0.54993,1.09864 -0.69397,1.6333 -0.14404,0.53467 -0.21606,1.07178 -0.21606,1.61133 0,0.80566 0.14038,1.64062 0.42114,2.50488 z"
               style="font-size:7.5px;font-style:italic;fill:#000000;font-family:Arial"
               id="path3129"
               inkscape:connector-curvature="0" />
            <path
               d="m 130.67645,135.67999 1.12426,-5.36865 2.2522,0 c 0.44433,1e-5 0.78125,0.0372 1.01074,0.11169 0.22949,0.0745 0.40954,0.21424 0.54016,0.41932 0.13061,0.20508 0.19592,0.46387 0.19593,0.77636 -1e-5,0.43702 -0.14283,0.79957 -0.42847,1.08765 -0.28565,0.28809 -0.74708,0.47486 -1.38428,0.5603 0.19531,0.14405 0.34302,0.28565 0.44312,0.42481 0.2246,0.31494 0.40527,0.64087 0.54199,0.97778 l 0.41016,1.01074 -0.80201,0 -0.38452,-0.99975 c -0.13916,-0.36133 -0.29785,-0.67383 -0.47607,-0.9375 -0.12208,-0.18311 -0.24659,-0.30335 -0.37354,-0.36072 -0.12695,-0.0574 -0.33325,-0.0861 -0.61889,-0.0861 l -0.83496,0 -0.49805,2.38403 z m 1.33666,-2.96631 0.99244,0 c 0.45898,1e-5 0.75805,-0.006 0.89721,-0.0183 0.271,-0.0268 0.49316,-0.0879 0.66651,-0.1831 0.17333,-0.0952 0.30761,-0.22339 0.40283,-0.38452 0.0952,-0.16113 0.14282,-0.33447 0.14282,-0.52002 0,-0.15625 -0.0354,-0.29236 -0.1062,-0.40833 -0.0708,-0.11596 -0.16358,-0.1947 -0.27832,-0.2362 -0.11475,-0.0415 -0.31006,-0.0623 -0.58594,-0.0623 l -1.75049,0 z"
               style="font-size:7.5px;font-style:italic;fill:#000000;font-family:Arial"
               id="path3131"
               inkscape:connector-curvature="0" />
            <path
               d="m 137.23162,130.21979 c 0.38574,0.83985 0.57861,1.70166 0.57861,2.58545 0,0.59326 -0.0775,1.1438 -0.23254,1.65161 -0.15503,0.50781 -0.39124,1.01196 -0.70862,1.51245 -0.2124,0.33203 -0.54809,0.76172 -1.00708,1.28906 l -0.51636,0 c 0.28321,-0.30762 0.58472,-0.73852 0.90455,-1.29272 0.31982,-0.5542 0.55114,-1.09802 0.69397,-1.63147 0.14282,-0.53345 0.21423,-1.07117 0.21423,-1.61316 0,-0.80566 -0.14038,-1.6394 -0.42114,-2.50122 z"
               style="font-size:7.5px;font-style:italic;fill:#000000;font-family:Arial"
               id="path3133"
               inkscape:connector-curvature="0" />
          </g>
        </g>
      </g>
      <g
         id="g59">
        <path
           d="m 128.4,122.48 0,0 0,-0.35 0.31,-0.17 11.77,6.79 0.35,0.55 -0.3,0.17 z"
           shape-rendering="geometricPrecision"
           id="path61"
           inkscape:connector-curvature="0"
           style="fill:#000000;fill-rule:evenodd;stroke:#000000;stroke-width:0;stroke-linejoin:miter" />
      </g>
      <g
         id="WedgeBegin">
        <path
           d="m 128.71,121.96 0,0 -0.31,0.17 -0.31,-0.17 -1.24,-14.74 1.55,0.55 1.46,0.5 z"
           shape-rendering="geometricPrecision"
           id="path64"
           inkscape:connector-curvature="0"
           style="fill:#000000;fill-rule:evenodd;stroke:#000000;stroke-width:0;stroke-linejoin:miter" />
      </g>
      <g
         id="g66">
        <g
           style="text-anchor:start"
           id="text68">
          <path
             d="m 137.4034,100.78367 c 0,-1.188148 0.31901,-2.118323 0.95703,-2.790529 0.63802,-0.672193 1.46158,-1.008293 2.4707,-1.008301 0.6608,8e-6 1.25651,0.157885 1.78711,0.473633 0.53059,0.315762 0.93505,0.756028 1.21338,1.320801 0.27831,0.564784 0.41747,1.205245 0.41748,1.921386 -1e-5,0.72592 -0.14649,1.37533 -0.43945,1.94824 -0.29298,0.57292 -0.70802,1.00668 -1.24512,1.30127 -0.53712,0.2946 -1.11654,0.4419 -1.73828,0.4419 -0.67383,0 -1.27605,-0.16276 -1.80664,-0.48828 -0.5306,-0.32552 -0.93262,-0.76986 -1.20606,-1.33301 -0.27344,-0.56315 -0.41015,-1.15885 -0.41015,-1.78711 z m 0.97656,0.0147 c 0,0.86263 0.23193,1.54215 0.6958,2.03857 0.46386,0.49642 1.04573,0.74463 1.74561,0.74463 0.71288,0 1.29963,-0.25065 1.76025,-0.75195 0.46061,-0.5013 0.69091,-1.21257 0.69092,-2.13379 -1e-5,-0.58268 -0.0985,-1.091306 -0.29541,-1.525881 -0.19695,-0.434565 -0.48503,-0.771479 -0.86426,-1.010742 -0.37924,-0.239252 -0.80486,-0.35888 -1.27686,-0.358887 -0.67057,7e-6 -1.24756,0.230312 -1.73095,0.690918 -0.4834,0.460617 -0.7251,1.22966 -0.7251,2.307132 z"
             style="font-size:10px;fill:#000000;font-family:Arial"
             id="path3136"
             inkscape:connector-curvature="0" />
        </g>
      </g>
      <g
         id="g72">
        <path
           style="stroke:#000000;stroke-width:0.60000002"
           d="m 127.75,106.65 7.72,-4.45"
           id="line74"
           inkscape:connector-curvature="0" />
        <path
           d="m 128.78,108.7 0,0 0.05,0.66 8.08,-4.66 -0.3,-0.52 z"
           shape-rendering="geometricPrecision"
           id="path76"
           inkscape:connector-curvature="0"
           style="fill:#000000;fill-rule:evenodd;stroke:#000000;stroke-width:0;stroke-linejoin:miter" />
        <path
           d="m 127.11,106.68 0,0 0.6,0.34 7.91,-4.56 -0.3,-0.52 z"
           shape-rendering="geometricPrecision"
           id="path78"
           inkscape:connector-curvature="0"
           style="fill:#000000;fill-rule:evenodd;stroke:#000000;stroke-width:0;stroke-linejoin:miter" />
      </g>
      <g
         id="g80">
        <g
           style="text-anchor:start"
           id="text82">
          <path
             d="m 112.5434,100.78367 c 0,-1.188148 0.31901,-2.118323 0.95703,-2.790529 0.63802,-0.672193 1.46158,-1.008293 2.4707,-1.008301 0.6608,8e-6 1.25651,0.157885 1.78711,0.473633 0.53059,0.315762 0.93505,0.756028 1.21338,1.320801 0.27831,0.564784 0.41747,1.205245 0.41748,1.921386 -1e-5,0.72592 -0.14649,1.37533 -0.43945,1.94824 -0.29298,0.57292 -0.70802,1.00668 -1.24512,1.30127 -0.53712,0.2946 -1.11654,0.4419 -1.73828,0.4419 -0.67383,0 -1.27605,-0.16276 -1.80664,-0.48828 -0.5306,-0.32552 -0.93262,-0.76986 -1.20606,-1.33301 -0.27344,-0.56315 -0.41015,-1.15885 -0.41015,-1.78711 z m 0.97656,0.0147 c 0,0.86263 0.23193,1.54215 0.6958,2.03857 0.46386,0.49642 1.04573,0.74463 1.7456,0.74463 0.71289,0 1.29964,-0.25065 1.76026,-0.75195 0.4606,-0.5013 0.69091,-1.21257 0.69092,-2.13379 -1e-5,-0.58268 -0.0985,-1.091306 -0.29541,-1.525881 -0.19695,-0.434565 -0.48504,-0.771479 -0.86426,-1.010742 -0.37924,-0.239252 -0.80486,-0.35888 -1.27686,-0.358887 -0.67057,7e-6 -1.24756,0.230312 -1.73095,0.690918 -0.4834,0.460617 -0.7251,1.22966 -0.7251,2.307132 z"
             style="font-size:10px;fill:#000000;font-family:Arial"
             id="path3140"
             inkscape:connector-curvature="0" />
        </g>
      </g>
      <g
         id="g86">
        <path
           d="m 129.86,108.27 0,0 -1.46,-0.5 -1.55,-0.55 -6.41,-3.7 0.15,-0.26 0.15,-0.26 z"
           shape-rendering="geometricPrecision"
           id="path88"
           inkscape:connector-curvature="0"
           style="fill:#000000;fill-rule:evenodd;stroke:#000000;stroke-width:0;stroke-linejoin:miter" />
      </g>
      <g
         id="g90">
        <path
           d="m 111.26,102.97 0,0 0.15,0.26 0.15,0.26 -7.87,4.54 -0.15,-0.26 -0.15,-0.26 z"
           shape-rendering="geometricPrecision"
           id="path92"
           inkscape:connector-curvature="0"
           style="fill:#000000;fill-rule:evenodd;stroke:#000000;stroke-width:0;stroke-linejoin:miter" />
      </g>
      <g
         id="g94">
        <g
           style="text-anchor:start"
           id="text96">
          <path
             d="m 150.50078,117.33 0,-7.1582 0.94726,0 0,2.93945 3.72071,0 0,-2.93945 0.94726,0 0,7.1582 -0.94726,0 0,-3.37402 -3.72071,0 0,3.37402 z"
             style="font-size:10px;fill:#000000;font-family:Arial"
             id="path3143"
             inkscape:connector-curvature="0" />
          <path
             d="m 150.46172,127.52 0,-7.15821 0.97168,0 3.75976,5.62012 0,-5.62012 0.9082,0 0,7.15821 -0.97168,0 -3.75976,-5.625 0,5.625 z"
             style="font-size:10px;fill:#000000;font-family:Arial"
             id="path3145"
             inkscape:connector-curvature="0" />
        </g>
      </g>
      <g
         id="g102">
        <path
           d="m 140.53,129.47 0,0 0.3,-0.17 0.3,0.17 0,14.06 -0.3,0.17 -0.3,0.17 z"
           shape-rendering="geometricPrecision"
           id="path104"
           inkscape:connector-curvature="0"
           style="fill:#000000;fill-rule:evenodd;stroke:#000000;stroke-width:0;stroke-linejoin:miter" />
      </g>
      <g
         id="g106">
        <path
           d="m 140.53,143.87 0,0 0.3,-0.17 0.3,-0.17 12.17,7.02 0,0.35 0,0.35 z"
           shape-rendering="geometricPrecision"
           id="path108"
           inkscape:connector-curvature="0"
           style="fill:#000000;fill-rule:evenodd;stroke:#000000;stroke-width:0;stroke-linejoin:miter" />
      </g>
      <g
         id="g110">
        <path
           d="m 153.3,151.25 0,0 0,-0.35 0,-0.35 12.17,-7.02 0.3,0.17 0.3,0.17 z"
           shape-rendering="geometricPrecision"
           id="path112"
           inkscape:connector-curvature="0"
           style="fill:#000000;fill-rule:evenodd;stroke:#000000;stroke-width:0;stroke-linejoin:miter" />
      </g>
      <g
         id="g114">
        <path
           d="m 166.07,143.87 0,0 -0.3,-0.17 -0.3,-0.17 0,-14.06 0.3,-0.17 0.3,-0.17 z"
           shape-rendering="geometricPrecision"
           id="path116"
           inkscape:connector-curvature="0"
           style="fill:#000000;fill-rule:evenodd;stroke:#000000;stroke-width:0;stroke-linejoin:miter" />
      </g>
      <g
         id="g118">
        <path
           d="m 166.07,129.13 0,0 -0.3,0.17 -0.3,0.17 -8.13,-4.69 0.15,-0.26 0.15,-0.26 z"
           shape-rendering="geometricPrecision"
           id="path120"
           inkscape:connector-curvature="0"
           style="fill:#000000;fill-rule:evenodd;stroke:#000000;stroke-width:0;stroke-linejoin:miter" />
      </g>
      <g
         id="g122">
        <path
           d="m 148.96,124.26 0,0 0.15,0.26 0.15,0.26 -8.13,4.69 -0.3,-0.17 0.35,-0.55 z"
           shape-rendering="geometricPrecision"
           id="path124"
           inkscape:connector-curvature="0"
           style="fill:#000000;fill-rule:evenodd;stroke:#000000;stroke-width:0;stroke-linejoin:miter" />
      </g>
      <g
         id="g126">
        <g
           style="text-anchor:start"
           id="text128">
          <path
             d="m 138.03078,118.48 0,-7.1582 0.94726,0 0,2.93945 3.72071,0 0,-2.93945 0.94726,0 0,7.1582 -0.94726,0 0,-3.37402 -3.72071,0 0,3.37402 z"
             style="font-size:10px;fill:#000000;font-family:Arial"
             id="path3148"
             inkscape:connector-curvature="0" />
        </g>
      </g>
      <g
         id="g132">
        <path
           d="m 141.18,128.75 0,0 -0.35,0.55 -0.35,-0.55 -1.15,-8.65 1.5,0 1.5,0 z"
           shape-rendering="geometricPrecision"
           id="path134"
           inkscape:connector-curvature="0"
           style="fill:#000000;fill-rule:evenodd;stroke:#000000;stroke-width:0;stroke-linejoin:miter" />
      </g>
    </g>
  </g>
</svg>
