<?xml version="1.0" standalone="no" ?>
<!DOCTYPE svg PUBLIC "-//W3C//DTD SVG 1.1//EN" "http://www.w3.org/Graphics/SVG/1.1/DTD/svg11.dtd">
<svg width="80px" height="71px" viewBox="0 0 80 71" style="" xmlns="http://www.w3.org/2000/svg" xmlns:xlink="http://www.w3.org/1999/xlink" version="1.1" >
<text x="0" y="0" stroke="transparent" fill="#000000" transform="matrix(0.05 0 0 0.05 61.365 33.8757)" style="font:normal normal normal 200px 'Arial'" >
H</text>
<text x="0" y="0" stroke="transparent" fill="#000000" transform="matrix(0.05 0 0 0.05 61.365 42.4174)" style="font:normal normal normal 200px 'Arial'" >
N</text>
<text x="0" y="0" stroke="transparent" fill="#000000" transform="matrix(0.05 0 0 0.05 48.6345 20.8067)" style="font:normal normal normal 200px 'Arial'" >
O</text>
<text x="0" y="0" stroke="transparent" fill="#000000" transform="matrix(0.05 0 0 0.05 23.693 20.7852)" style="font:normal normal normal 200px 'Arial'" >
O</text>
<path stroke="transparent" fill="#000000" transform="matrix(0.05 0 0 0.05 -455 -258)" d="M 9146.07,6373.29 L 9158.07,6366.37 L 9401.37,6507.12 L 9401.36,6520.97 L 9146.07,6373.29 Z " />
<path stroke="transparent" fill="#000000" transform="matrix(0.05 0 0 0.05 -455 -258)" d="M 9158.07,6366.37 L 9146.07,6373.29 L 9146.32,6078.36 L 9158.32,6085.3 L 9158.07,6366.37 Z " />
<path stroke="transparent" fill="#000000" transform="matrix(0.05 0 0 0.05 -455 -258)" d="M 9209.94,6339.95 L 9197.94,6339.94 L 9198.13,6111.8 L 9210.13,6111.81 L 9209.94,6339.95 Z " />
<path stroke="transparent" fill="#000000" transform="matrix(0.05 0 0 0.05 -455 -258)" d="M 10399,6521.83 L 10399,6507.97 L 10642.6,6367.65 L 10654.6,6374.59 L 10399,6521.83 Z " />
<path stroke="transparent" fill="#000000" transform="matrix(0.05 0 0 0.05 -455 -258)" d="M 9401.36,6520.97 L 9401.37,6507.12 L 9644.9,6366.79 L 9656.9,6373.73 L 9401.36,6520.97 Z " />
<path stroke="transparent" fill="#000000" transform="matrix(0.05 0 0 0.05 -455 -258)" d="M 9404.41,6459.38 L 9398.42,6448.99 L 9596.09,6335.09 L 9602.08,6345.48 L 9404.41,6459.38 Z " />
<path stroke="transparent" fill="#000000" transform="matrix(0.05 0 0 0.05 -455 -258)" d="M 9158.32,6085.3 L 9146.32,6078.36 L 9401.86,5931.12 L 9401.85,5944.97 L 9158.32,6085.3 Z " />
<path stroke="transparent" fill="#000000" transform="matrix(0.05 0 0 0.05 -455 -258)" d="M 10399,6507.97 L 10399,6521.83 L 10143.7,6374.15 L 10155.7,6367.23 L 10399,6507.97 Z " />
<path stroke="transparent" fill="#000000" transform="matrix(0.05 0 0 0.05 -455 -258)" d="M 10654.6,6374.59 L 10642.6,6367.65 L 10642.8,6086.58 L 10654.8,6079.66 L 10654.6,6374.59 Z " />
<path stroke="transparent" fill="#000000" transform="matrix(0.05 0 0 0.05 -455 -258)" d="M 9656.9,6373.73 L 9644.9,6366.79 L 9645.15,6085.72 L 9651.15,6082.26 L 9657.15,6085.73 L 9656.9,6373.73 Z " />
<path stroke="transparent" fill="#000000" transform="matrix(0.05 0 0 0.05 -455 -258)" d="M 9401.85,5944.97 L 9401.86,5931.12 L 9651.15,6075.33 L 9651.15,6082.26 L 9645.15,6085.72 L 9401.85,5944.97 Z " />
<path stroke="transparent" fill="#000000" transform="matrix(0.05 0 0 0.05 -455 -258)" d="M 9398.8,6003.1 L 9404.81,5992.71 L 9602.29,6106.95 L 9596.28,6117.34 L 9398.8,6003.1 Z " />
<path stroke="transparent" fill="#000000" transform="matrix(0.05 0 0 0.05 -455 -258)" d="M 10155.7,6367.23 L 10143.7,6374.15 L 10144,6086.15 L 10150,6082.69 L 10156,6086.16 L 10155.7,6367.23 Z " />
<path stroke="transparent" fill="#000000" transform="matrix(0.05 0 0 0.05 -455 -258)" d="M 9657.15,6085.73 L 9651.15,6082.26 L 9651.15,6075.33 L 9894.69,5935 L 9900.69,5938.47 L 9900.68,5945.4 L 9657.15,6085.73 Z " />
<path stroke="transparent" fill="#000000" transform="matrix(0.05 0 0 0.05 -455 -258)" d="M 10150,6075.76 L 10150,6082.69 L 10144,6086.15 L 9900.68,5945.4 L 9900.69,5938.47 L 9906.69,5935.02 L 10150,6075.76 Z " />
<path stroke="transparent" fill="#000000" transform="matrix(0.05 0 0 0.05 -455 -258)" d="M 9906.69,5935.02 L 9900.69,5938.47 L 9894.69,5935 L 9894.93,5653.93 L 9906.94,5647.02 L 9906.69,5935.02 Z " />
<path stroke="transparent" fill="#000000" transform="matrix(0.05 0 0 0.05 -455 -258)" d="M 10654.8,6079.66 L 10642.8,6086.58 L 10495.8,6001.54 L 10501.8,5991.16 L 10654.8,6079.66 Z " />
<path stroke="transparent" fill="#000000" transform="matrix(0.05 0 0 0.05 -455 -258)" d="M 10156,6086.16 L 10150,6082.69 L 10150,6075.76 L 10295.8,5991.76 L 10301.8,6002.16 L 10156,6086.16 Z " />
<path stroke="transparent" fill="#000000" transform="matrix(0.05 0 0 0.05 -455 -258)" d="M 9903.9,5685.6 L 9897.91,5675.21 L 10071.4,5575.23 L 10077.4,5585.62 L 9903.9,5685.6 Z " />
<path stroke="transparent" fill="#000000" transform="matrix(0.05 0 0 0.05 -455 -258)" d="M 9878.02,5640.69 L 9872.03,5630.29 L 10045.5,5530.31 L 10051.5,5540.71 L 9878.02,5640.69 Z " />
<path stroke="transparent" fill="#000000" transform="matrix(0.05 0 0 0.05 -455 -258)" d="M 9645.89,5218.26 L 9657.89,5218.27 L 9657.74,5397.88 L 9645.74,5397.87 L 9645.89,5218.26 Z " />
<path stroke="transparent" fill="#000000" transform="matrix(0.05 0 0 0.05 -455 -258)" d="M 9906.94,5647.02 L 9894.93,5653.93 L 9737.36,5562.78 L 9743.37,5552.39 L 9906.94,5647.02 Z " />
</svg>
