<?xml version="1.0" encoding="utf-8"?>
<!-- Generator: Adobe Illustrator 17.0.2, SVG Export Plug-In . SVG Version: 6.00 Build 0)  -->
<!DOCTYPE svg PUBLIC "-//W3C//DTD SVG 1.1//EN" "http://www.w3.org/Graphics/SVG/1.1/DTD/svg11.dtd">
<svg version="1.1" id="Слой_1" xmlns="http://www.w3.org/2000/svg" xmlns:xlink="http://www.w3.org/1999/xlink" x="0px" y="0px"
	 width="340.781px" height="306.142px" viewBox="0 0 340.781 306.142" enable-background="new 0 0 340.781 306.142"
	 xml:space="preserve">
<g>
	<rect x="52.287" y="202.588" transform="matrix(0.9556 0.2948 -0.2948 0.9556 63.4035 -13.0826)" width="45.628" height="2.4"/>
	<rect x="2.115" y="249.14" transform="matrix(0.2225 0.9749 -0.9749 0.2225 263.4457 170.3306)" width="45.628" height="2.4"/>
	<rect x="67.517" y="269.314" transform="matrix(-0.7331 0.6802 -0.6802 -0.7331 340.5434 407.3745)" width="45.628" height="2.4"/>
	<rect x="227.636" y="269.314" transform="matrix(-0.7331 -0.6802 0.6802 -0.7331 250.048 639.1638)" width="45.628" height="2.4"/>
	<rect x="314.652" y="227.526" transform="matrix(0.975 0.2221 -0.2221 0.975 63.4954 -63.9031)" width="2.4" height="45.628"/>
	
		<rect x="242.866" y="202.588" transform="matrix(-0.9556 0.2948 -0.2948 -0.9556 579.6238 320.2118)" width="45.628" height="2.4"/>
	<rect x="104.274" y="21.237" transform="matrix(0.5 0.866 -0.866 0.5 80.0837 -93.8361)" width="34.064" height="2.4"/>
	<path d="M210.231,170.736v-28.24h-3.4c0,0.88,0.16,22.64,0.16,22.64l-15.28-22.64h-3.56v28.24h3.56c0-0.56-0.36-22.96-0.36-22.96
		l15.48,22.96H210.231z"/>
	<polygon points="198.498,58.77 226.605,107.453 209.919,136.354 211.998,137.552 228.03,109.784 228.03,109.784 229.03,108.052 
		229.376,107.453 229.03,106.853 228.03,105.121 228.03,105.121 201.23,58.702 201.23,58.702 200.23,56.97 199.885,56.37 
		199.191,56.37 197.191,56.37 159.031,56.37 159.031,58.77 197.191,58.77 	"/>
	<path d="M130.55,42.73v28.24h3.56c0-0.56-0.36-22.96-0.36-22.96l15.48,22.96h3.4V42.73h-3.4c0,0.88,0.16,22.64,0.16,22.64
		l-15.28-22.64H130.55z"/>
	<path d="M333.692,224.161l-0.507-0.471l-1.466-1.36l0,0l-39.291-36.457l0,0l-1.466-1.36l-0.507-0.472l-0.664,0.205l-1.911,0.589
		l0,0l-52.348,16.147l-20.727-25.99l-1.876,1.497l20.876,26.178l-12.56,55.029l-49.574,23.874l0,0l-1.281,0.617l-1.28-0.617l0,0
		l-49.574-23.874l-12.56-55.029l35.192-44.13h39.582v-2.4h-39.467l-28.107-48.683l17.517-30.341l-2.079-1.199l-17.864,30.941
		l-0.346,0.599l0.346,0.599l28.391,49.175l-34.893,43.754l-52.348-16.147l0,0l-1.911-0.589l-0.662-0.205l-0.509,0.473L9.062,222.33
		l0,0l-1.466,1.36l-0.507,0.471l0.154,0.675l12.372,54.206l0,0l0.445,1.95l0.153,0.676l0.664,0.205l1.911,0.59v0l53.13,16.388
		l0.662,0.205l0.509-0.473l41.624-38.621l51.158,24.636l0.521,0.251l0.521-0.251l51.158-24.637l40.157,37.261l0,0l1.466,1.36
		l0.507,0.472l0.664-0.205l1.911-0.589v0l51.219-15.799v0l1.911-0.59l0.662-0.203l0.154-0.677l0.445-1.95h0l12.372-54.206
		L333.692,224.161z M288.587,187.128l1.249-0.385l0.958,0.889l0,0l39.292,36.457l0,0l0.959,0.89l-12.509,54.805l-53.717,16.569
		l-41.208-38.235l12.509-54.805L288.587,187.128L288.587,187.128z M222.286,258.525L222.286,258.525L222.286,258.525
		L222.286,258.525z M118.495,258.525L118.495,258.525L118.495,258.525L118.495,258.525z M141.59,157.336L141.59,157.336
		L141.59,157.336L141.59,157.336z M49.987,187.631L49.987,187.631l0.958-0.889l1.249,0.385v0l52.468,16.184l12.509,54.805
		l-41.208,38.235l-53.717-16.569l-12.218-53.53h0l-0.291-1.275l0.959-0.89l0,0L49.987,187.631z"/>
</g>
</svg>
