<?xml version="1.0" encoding="iso-8859-1"?>
<!-- Generator: Adobe Illustrator 19.1.0, SVG Export Plug-In . SVG Version: 6.00 Build 0)  -->
<svg version="1.1" id="&#x421;&#x43B;&#x43E;&#x439;_1"
	 xmlns="http://www.w3.org/2000/svg" xmlns:xlink="http://www.w3.org/1999/xlink" x="0px" y="0px" viewBox="0 0 332.164 421.937"
	 style="enable-background:new 0 0 332.164 421.937;" xml:space="preserve" width="332.164" height="421.937">
<g>
	<rect x="127.014" y="138.234" transform="matrix(-0.866 -0.5 0.5 -0.866 209.9657 334.728)" width="45.628" height="2"/>
	<rect x="89.555" y="150.641" width="2" height="45.628"/>
	<rect x="148.828" y="184.862" transform="matrix(-0.4995 -0.8663 0.8663 -0.4995 44.7609 441.2114)" width="2" height="45.628"/>
	<rect x="243.931" y="206.144" transform="matrix(0.2221 0.975 -0.975 0.2221 407.9301 -65.3635)" width="2" height="33.675"/>
	<rect x="264.199" y="90.518" transform="matrix(0.5129 -0.8584 0.8584 0.5129 61.24 290.9642)" width="45.628" height="2"/>
	<rect x="228.076" y="51.074" transform="matrix(-0.9195 0.393 -0.393 -0.9195 489.9162 3.8372)" width="32.98" height="2"/>
	<rect x="203.415" y="320.513" transform="matrix(-0.733 -0.6802 0.6802 -0.733 173.3813 711.0737)" width="45.628" height="2"/>
	<rect x="159.828" y="318.873" transform="matrix(-0.975 -0.2221 0.2221 -0.975 241.7487 710.5599)" width="2" height="45.628"/>
	<path d="M254.65,332.376l-1.043-0.967l0,0l-40.335-37.425l0.317-1.387l12.232-53.593l38.053-8.685l-0.444-1.95l-36.716,8.38v0
		l-1.481,0.338l-44.28-35.312v-55.118v-1.519l28.403-22.651l-1.247-1.563l-28.247,22.526l-1.142-0.659l-46.419-26.8v0l-1.732-1
		l-0.499-0.288l-0.5,0.288l-49.883,28.8l-0.5,0.288v0.579v2v53.6v1.423l-1.232,0.711l-26.479,15.288l0.999,1.732l27.712-15.999
		l49.383,28.511l0.5,0.288l0.499-0.288l1.732-1v0l46.419-26.8l1.142-0.659l1.03,0.822l42.979,34.274l-12.232,53.594h0l-0.316,1.387
		l-52.578,16.218l-1.911,0.589l-0.552,0.169l-0.129,0.564l-12.817,56.156l-0.128,0.562l0.422,0.392l1.466,1.36l0,0l39.292,36.457
		l0,0l1.466,1.36l0.422,0.393l0.553-0.171l1.911-0.589l53.13-16.388l0.552-0.169l0.129-0.564l12.372-54.206l0.316-1.387
		l39.819-12.282l-0.589-1.911L254.65,332.376z M178.953,146.655v55.023l-1.232,0.711v0l-46.419,26.8l-1.233,0.712l-1.232-0.712v0
		l-47.651-27.511v-1.423v-53.6v-1.423l1.232-0.711l46.419-26.8v0l1.232-0.712l47.652,27.512l0,0l1.232,0.711V146.655z
		 M252.973,335.23l-12.244,53.643l-1.359,0.419v0l-51.219,15.799v0l-1.359,0.419l-1.042-0.967l0,0l-40.335-37.425l0.317-1.387h0
		l12.244-53.643l53.938-16.638l1.043,0.967l0,0l40.335,37.425L252.973,335.23L252.973,335.23z"/>
	<rect x="209.999" y="365.425" transform="matrix(-0.2947 -0.9556 0.9556 -0.2947 -97.8211 704.2779)" width="2" height="45.628"/>
	<polygon points="236.237,94.182 232.76,94.182 232.76,116.31 232.584,116.31 217.154,94.182 213.737,94.182 213.737,122.365 
		217.213,122.365 217.213,100.314 217.389,100.314 232.818,122.365 236.237,122.365 	"/>
	<polygon points="217.594,51.207 218.873,51.971 222.106,87.896 224.098,87.719 220.884,52.008 222.055,51.508 222.055,51.508 
		256.046,36.979 255.261,35.14 221.27,49.668 219.899,50.254 170.89,20.972 169.864,22.689 217.594,51.207 	"/>
	<path d="M26.87,219.883c4.023,0,7.246,2.422,8.145,6.113h3.555c-0.898-5.625-5.566-9.356-11.699-9.356
		c-7.715,0-12.695,5.703-12.695,14.551c0,8.926,4.922,14.57,12.695,14.57c6.231,0,10.41-3.105,11.699-8.672h-3.555
		c-1.016,3.438-3.984,5.43-8.125,5.43c-5.566,0-9.102-4.414-9.102-11.328C17.788,224.336,21.362,219.883,26.87,219.883z"/>
	<rect x="43.034" y="215.879" width="3.398" height="29.414"/>
	<polygon points="288.916,232.919 288.74,232.919 273.31,210.791 269.892,210.791 269.892,238.974 273.369,238.974 273.369,216.923 
		273.545,216.923 288.974,238.974 292.392,238.974 292.392,210.791 288.916,210.791 	"/>
	<polygon points="308.801,73.317 281.31,119.33 281.31,119.33 280.657,120.423 242.698,111.759 242.254,113.709 280.45,122.427 
		304.366,172.088 304.366,172.088 305.024,173.455 290.03,204.59 291.832,205.459 307.035,173.89 307.244,173.455 307.035,173.021 
		306.167,171.219 282.277,121.61 283.027,120.355 311.544,72.625 311.917,72.003 311.439,71.455 289.002,45.774 287.496,47.09 
		309.454,72.224 	"/>
	<polygon points="265.015,20.308 265.19,20.308 280.62,42.359 284.038,42.359 284.038,14.175 280.562,14.175 280.562,36.304 
		280.386,36.304 264.956,14.175 261.538,14.175 261.538,42.359 265.015,42.359 	"/>
	<polygon points="317.989,305.128 317.989,301.964 300.879,301.964 300.879,330.147 304.395,330.147 304.395,317.94 316.875,317.94 
		316.875,314.815 304.395,314.815 304.395,305.128 	"/>
</g>
</svg>
