<?xml version="1.0" encoding="utf-8"?>
<!-- Generator: Adobe Illustrator 19.2.1, SVG Export Plug-In . SVG Version: 6.00 Build 0)  -->
<svg version="1.1" id="Слой_1" xmlns="http://www.w3.org/2000/svg" xmlns:xlink="http://www.w3.org/1999/xlink" x="0px" y="0px"
	 viewBox="0 0 411.9 481.4" style="enable-background:new 0 0 411.9 481.4;" xml:space="preserve" width="411.9" height="481.4">
<style type="text/css">
	.st0{fill:#808080;}
</style>
<g>
	<rect x="57.1" y="385.5" width="2.4" height="45.6"/>
	<rect x="94.8" y="441.3" transform="matrix(0.8662 -0.4996 0.4996 0.8662 -205.3519 117.9529)" width="45.6" height="2.4"/>
	<path d="M100.2,350.6L100.2,350.6l-1.7-1l-0.6-0.3l-0.6,0.3l-1.7,1l0,0l-48.2,27.8l-0.6,0.3v0.7v2v53.6v2l0,0.7l0.6,0.3l1.7,1l0,0
		l48.2,27.8l0.6,0.3l0.6-0.3l48.2-27.8l0,0l1.7-1l0.6-0.3v-0.7v-2v-53.6v-2l0-0.7l-0.6-0.3L100.2,350.6z M146.5,435.1v1.3
		l-48.7,28.1l-48.7-28.1v-1.3v-53.6v-1.3l48.7-28.1l48.7,28.1v1.3V435.1z"/>
	<rect x="116.4" y="351.2" transform="matrix(0.5 -0.866 0.866 0.5 -265.1355 288.8903)" width="2.4" height="45.6"/>
	<polygon points="147.3,371.4 154.4,383.9 156.4,382.5 149.5,370.5 	"/>
	<polygon points="173.8,359.8 177.8,366.7 179.7,365.3 176,358.8 	"/>
	<polygon points="156.1,367.6 162.2,378.2 164.2,376.8 158.3,366.6 	"/>
	<polygon points="182.6,355.9 185.6,361 187.5,359.6 184.9,355 	"/>
	<polygon points="164.9,363.7 170,372.5 172,371 167.2,362.7 	"/>
	<polygon points="191.5,352.1 193.4,355.3 195.3,353.9 193.7,351.1 	"/>
	<path d="M253.1,374.8l-53.8-24.7l27.1-47l0,0l1-1.7l1-1.8h-2.1h-2h-55.2l-44.3-32.4l-6.6,3.8v0l-33.1,19.1l1.2,2.1l27.9-16.1
		l53.6,25.7l28.6,49.6l1-0.6l-0.6,1l44.1,32.4v31.7h2.4v-32.7l8-4.6v37.3h2.4v-38.7l27.3-15.8l-1.2-2.1L253.1,374.8z M168.8,300.8
		L168.8,300.8L168.8,300.8L168.8,300.8z M170.9,302h53.4l-26.7,46.3L170.9,302z"/>
	<polygon points="298.5,291 298.5,291 296.8,292 296.2,292.4 296.2,293.1 296.2,295.1 296.2,329.7 298.6,329.7 298.6,295.1 
		298.6,293.8 347.9,265.3 346.7,263.2 	"/>
	<polygon points="347.3,378.1 314.8,359.3 313.6,361.4 346.7,380.5 347.3,380.9 347.9,380.5 397.8,351.7 396.6,349.6 	"/>
	<polygon points="305.2,358.2 305,358.2 289.6,336.1 286.1,336.1 286.1,364.3 289.6,364.3 289.6,342.3 289.8,342.3 305.2,364.3 
		308.6,364.3 308.6,336.1 305.2,336.1 	"/>
	<path d="M247.5,422.3c-8,0-13,5.6-13,14.6c0,8.9,5,14.6,13,14.6c8,0,13-5.6,13-14.6C260.5,427.9,255.5,422.3,247.5,422.3z
		 M247.5,448.2c-5.8,0-9.4-4.4-9.4-11.3c0-7,3.6-11.3,9.4-11.3c5.8,0,9.4,4.4,9.4,11.3C256.9,443.8,253.3,448.2,247.5,448.2z"/>
	<polygon points="76.7,308.4 61.2,286.2 57.8,286.2 57.8,314.4 61.3,314.4 61.3,292.4 61.5,292.4 76.9,314.4 80.3,314.4 80.3,286.2 
		76.8,286.2 76.8,308.4 	"/>
	<polygon points="33.2,298.4 17.7,298.4 17.7,286.2 14.2,286.2 14.2,314.4 17.7,314.4 17.7,301.6 33.2,301.6 33.2,314.4 36.7,314.4 
		36.7,286.2 33.2,286.2 	"/>
	<path d="M40.8,319v1.7h13v-2.2h-9.6v-0.1l5-5.2c3.3-3.4,4.3-5,4.3-7.2c0-3-2.8-5.4-6.3-5.4c-3.7,0-6.5,2.6-6.5,6v0h2.4v0
		c0-2.2,1.8-3.9,4.1-3.9c2.2,0,3.9,1.5,3.9,3.4c0,1.6-0.6,2.7-3.3,5.5L40.8,319z"/>
	<path class="st0" d="M187.8,368.6h-2c-1.7,2.2-3,4.5-3.9,6.9s-1.3,4.8-1.3,7.2c0,2.3,0.4,4.7,1.3,7.1c0.9,2.4,2.2,4.7,3.9,6.9h2
		c-1.1-1.8-2-3.5-2.6-5.1s-1.1-3-1.4-4.5s-0.5-3-0.5-4.5c0-2.3,0.3-4.6,1-6.8C185.1,373.7,186.2,371.3,187.8,368.6z"/>
	<path class="st0" d="M200,370h-7.4l-4.6,21.5h2.8l2-9.3h2.6c1,0,1.8,0.1,2.3,0.4c0.6,0.3,1,0.7,1.3,1.3c0.3,0.6,0.7,1.6,1.1,2.9
		l1.3,4.6h3.1l-1.6-5.4c-0.3-1-0.6-1.8-0.8-2.4s-0.5-1-0.8-1.3c-0.2-0.3-0.5-0.5-0.9-0.6l0-0.1c1.4-0.3,2.6-0.7,3.5-1.3
		c0.9-0.6,1.6-1.4,2.1-2.2s0.7-1.8,0.7-2.7c0-1.8-0.5-3.2-1.6-4.1C204.1,370.4,202.4,370,200,370z M203.1,377.8
		c-0.4,0.6-1,1.1-1.9,1.4s-1.8,0.5-2.9,0.5h-4.9l1.5-7.1h5c1.3,0,2.2,0.2,2.9,0.7c0.6,0.5,0.9,1.3,0.9,2.4
		C203.7,376.4,203.5,377.2,203.1,377.8z"/>
	<path class="st0" d="M213.3,375.5c-0.9-2.4-2.2-4.7-3.9-6.9h-2c1.6,2.7,2.7,5.1,3.4,7.3c0.7,2.2,1.1,4.5,1.1,6.7
		c0,2.3-0.4,4.6-1.1,6.8c-0.7,2.2-1.9,4.6-3.4,7.3l2,0c1.7-2.2,3-4.5,3.9-6.9c0.9-2.4,1.3-4.8,1.3-7.1
		C214.7,380.3,214.2,377.9,213.3,375.5z"/>
	<path class="st0" d="M175.3,259h-2c-1.7,2.2-3,4.5-3.9,6.9s-1.3,4.8-1.3,7.2c0,2.3,0.4,4.7,1.3,7.1c0.9,2.4,2.2,4.7,3.9,6.9h2
		c-1.1-1.8-2-3.5-2.6-5.1s-1.1-3-1.4-4.5s-0.5-3-0.5-4.5c0-2.3,0.3-4.6,1-6.8C172.5,264.1,173.7,261.7,175.3,259z"/>
	<path class="st0" d="M191.1,279.3c0.8-1,1.2-2.2,1.2-3.7c0-1.1-0.2-2.1-0.6-2.8s-1.1-1.4-2.2-2c-1-0.6-2.4-1.1-4.2-1.6
		c-1.1-0.3-1.9-0.5-2.5-0.8s-1-0.5-1.3-0.8c-0.3-0.3-0.5-0.8-0.5-1.3c0-0.7,0.2-1.4,0.6-2c0.4-0.6,1-1,1.8-1.4
		c0.8-0.3,1.7-0.5,2.7-0.5c1.5,0,2.7,0.4,3.4,1.1c0.7,0.7,1.1,1.8,1.2,3.3l2.8-0.6c-0.2-2.1-0.8-3.6-2-4.7c-1.2-1-2.9-1.5-5.2-1.5
		c-1.7,0-3.1,0.3-4.3,0.9s-2.1,1.3-2.8,2.3s-1,2-1,3.1c0,1,0.2,1.8,0.5,2.5s0.9,1.3,1.7,1.8s1.9,0.9,3.3,1.2c1.5,0.4,2.7,0.7,3.5,1
		s1.4,0.7,1.7,1.2s0.5,1,0.5,1.8c0,0.8-0.2,1.5-0.7,2.1c-0.4,0.6-1.1,1.1-2,1.4s-1.9,0.5-3.2,0.5c-1.7,0-3-0.4-3.9-1.3
		c-0.8-0.9-1.3-2.2-1.4-4l-2.9,0.6c0.1,2.2,0.8,3.9,2.1,5.2c1.3,1.2,3.3,1.9,5.9,1.9c1.5,0,3-0.2,4.3-0.7
		C189.2,281,190.3,280.3,191.1,279.3z"/>
	<path class="st0" d="M194.4,287.2l2,0c1.7-2.2,3-4.5,3.9-6.9c0.9-2.4,1.3-4.8,1.3-7.1c0-2.4-0.4-4.8-1.3-7.2s-2.2-4.7-3.9-6.9h-2
		c1.6,2.7,2.7,5.1,3.4,7.3c0.7,2.2,1.1,4.5,1.1,6.7c0,2.3-0.4,4.6-1.1,6.8C197.1,282,196,284.5,194.4,287.2z"/>
</g>
<g>
	<rect x="57.1" y="140.6" width="2.4" height="45.6"/>
	<rect x="94.8" y="196.5" transform="matrix(0.8663 -0.4996 0.4996 0.8663 -83.0172 85.1943)" width="45.6" height="2.4"/>
	<rect x="116.4" y="106.4" transform="matrix(0.5 -0.866 0.866 0.5 -53.0948 166.4679)" width="2.4" height="45.6"/>
	<polygon points="220.3,123.5 224.3,116.6 222.1,115.6 218.3,122.1 	"/>
	<polygon points="204.7,112 206.6,108.8 204.4,107.8 202.8,110.6 	"/>
	<polygon points="212.5,117.8 215.4,112.7 213.2,111.7 210.6,116.3 	"/>
	<polygon points="228.1,129.2 233.1,120.4 230.9,119.5 226.1,127.8 	"/>
	<polygon points="242,124.3 239.8,123.3 233.9,133.5 235.9,134.9 	"/>
	<path d="M195.9,105.3L141,129.4l0,0l-40.8-23.6l0,0l-1.7-1l-0.6-0.3l-0.6,0.3l-1.7,1l0,0l-48.2,27.8l-0.6,0.3v0.7v2v53.6v2l0,0.7
		l0.6,0.3l48.2,27.8l0,0l1.7,1l0.6,0.3l0.6-0.3l1.7-1l0,0l48.2-27.8l0.6-0.3v-0.7v-2v-47.1l49.7-36.7l27.8-48.2l0,0l1-1.7l1-1.8
		h-2.1h-2h-53.6h-2l-2.1,0l1,1.8L195.9,105.3z M170.9,57.2h53.4l-26.7,46.3L170.9,57.2z M146.5,191.5l-1.1,0.7l0,0l-47.6,27.5
		l-47.6-27.5l0,0l-1.1-0.7v-1.3v-53.6v-1.3l1.1-0.7l0,0l47.6-27.5l48.7,28.1v54.9V191.5z M147.7,134.6L147.7,134.6L147.7,134.6
		L147.7,134.6z"/>
	<polygon points="120.7,36.2 127.6,24.1 125.6,22.7 118.5,35.2 	"/>
	<polygon points="129.5,40 135.4,29.9 133.4,28.4 127.3,39.1 	"/>
	<polygon points="143.2,35.6 141.2,34.2 136.1,42.9 138.4,43.9 	"/>
	<polygon points="150.9,41.3 149,39.9 145,46.8 147.2,47.8 	"/>
	<polygon points="158.7,47 156.8,45.6 153.8,50.7 156.1,51.7 	"/>
	<polygon points="166.5,52.8 164.6,51.3 162.7,54.6 164.9,55.5 	"/>
	<rect x="83.3" y="35.5" transform="matrix(0.8663 -0.4996 0.4996 0.8663 -4.6439 56.0631)" width="38.2" height="2.4"/>
	<polygon points="243.5,135.6 243.5,135.6 241.1,136.9 241.1,139.7 241.1,171 243.5,171 243.5,138.3 251.5,133.7 251.5,171 
		253.9,171 253.9,132.3 281.2,116.6 280,114.5 	"/>
	<polygon points="298.6,50.2 298.6,48.9 299.7,48.3 299.7,48.3 347.9,20.5 346.7,18.4 298.5,46.2 298.5,46.2 296.8,47.2 296.2,47.5 
		296.2,48.2 296.2,50.2 296.2,84.9 298.6,84.9 	"/>
	<polygon points="61.3,47.5 61.5,47.5 76.9,69.6 80.3,69.6 80.3,41.4 76.8,41.4 76.8,63.5 76.7,63.5 61.2,41.4 57.8,41.4 57.8,69.6 
		61.3,69.6 	"/>
	<polygon points="33.2,53.6 17.7,53.6 17.7,41.4 14.2,41.4 14.2,69.6 17.7,69.6 17.7,56.7 33.2,56.7 33.2,69.6 36.7,69.6 36.7,41.4 
		33.2,41.4 	"/>
	<path d="M43.1,61.8c0-2.2,1.8-3.9,4.1-3.9c2.2,0,3.9,1.5,3.9,3.4c0,1.6-0.6,2.7-3.3,5.5l-6.9,7.3v1.7h13v-2.2h-9.6v-0.1l5-5.2
		c3.3-3.4,4.3-5,4.3-7.2c0-3-2.8-5.4-6.3-5.4c-3.7,0-6.5,2.6-6.5,6v0L43.1,61.8L43.1,61.8z"/>
	<polygon points="289.6,97.4 289.8,97.4 305.2,119.5 308.6,119.5 308.6,91.3 305.2,91.3 305.2,113.4 305,113.4 289.6,91.3 
		286.1,91.3 286.1,119.5 289.6,119.5 	"/>
	<path d="M247.5,206.6c8,0,13-5.6,13-14.6c0-8.9-5-14.6-13-14.6c-8,0-13,5.6-13,14.6C234.5,201,239.5,206.6,247.5,206.6z
		 M247.5,180.7c5.8,0,9.4,4.4,9.4,11.3c0,6.9-3.6,11.3-9.4,11.3c-5.8,0-9.4-4.4-9.4-11.3C238.1,185.1,241.7,180.7,247.5,180.7z"/>
	<polygon points="347.3,133.3 346.1,132.6 346.1,132.6 314.8,114.5 313.6,116.6 346.7,135.7 347.3,136 347.9,135.7 397.8,106.9 
		396.6,104.8 348.4,132.6 348.4,132.6 	"/>
	<path class="st0" d="M173,42.3h2c-1.1-1.8-2-3.5-2.6-5.1s-1.1-3-1.4-4.5c-0.3-1.5-0.5-3-0.5-4.5c0-2.3,0.3-4.6,1-6.8
		c0.7-2.2,1.8-4.6,3.4-7.3h-2c-1.7,2.2-3,4.5-3.9,6.9s-1.3,4.8-1.3,7.2c0,2.3,0.4,4.7,1.3,7.1C170,37.8,171.3,40.1,173,42.3z"/>
	<path class="st0" d="M180,27.7h2.6c1,0,1.8,0.1,2.3,0.4c0.6,0.3,1,0.7,1.3,1.3c0.3,0.6,0.7,1.6,1.1,2.9l1.3,4.6h3.1l-1.6-5.4
		c-0.3-1-0.6-1.8-0.8-2.4s-0.5-1-0.8-1.3c-0.2-0.3-0.5-0.5-0.9-0.6l0-0.1c1.4-0.3,2.6-0.7,3.5-1.3c0.9-0.6,1.6-1.4,2.1-2.2
		S194,22,194,21c0-1.8-0.5-3.2-1.6-4.1c-1.1-0.9-2.8-1.4-5.1-1.4h-7.4L175.2,37h2.8L180,27.7z M182.1,18.1h5c1.3,0,2.2,0.2,2.9,0.7
		c0.6,0.5,0.9,1.3,0.9,2.4c0,0.8-0.2,1.5-0.6,2.1c-0.4,0.6-1,1.1-1.9,1.4s-1.8,0.5-2.9,0.5h-4.9L182.1,18.1z"/>
	<path class="st0" d="M194.6,42.3l2,0c1.7-2.2,3-4.5,3.9-6.9c0.9-2.4,1.3-4.8,1.3-7.1c0-2.4-0.4-4.8-1.3-7.2s-2.2-4.7-3.9-6.9h-2
		c1.6,2.7,2.7,5.1,3.4,7.3c0.7,2.2,1.1,4.5,1.1,6.7c0,2.3-0.4,4.6-1.1,6.8C197.4,37.2,196.2,39.6,194.6,42.3z"/>
	<path class="st0" d="M188.1,123.8h-2c-1.7,2.2-3,4.5-3.9,6.9s-1.3,4.8-1.3,7.2c0,2.3,0.4,4.7,1.3,7.1c0.9,2.4,2.2,4.7,3.9,6.9h2
		c-1.1-1.8-2-3.5-2.6-5.1s-1.1-3-1.4-4.5s-0.5-3-0.5-4.5c0-2.3,0.3-4.6,1-6.8C185.3,128.9,186.5,126.4,188.1,123.8z"/>
	<path class="st0" d="M194.7,125.6c-1.2,0.6-2.1,1.3-2.8,2.3s-1,2-1,3.1c0,1,0.2,1.8,0.5,2.5s0.9,1.3,1.7,1.8s1.9,0.9,3.3,1.2
		c1.5,0.4,2.7,0.7,3.5,1s1.4,0.7,1.7,1.2s0.5,1,0.5,1.8c0,0.8-0.2,1.5-0.7,2.1c-0.4,0.6-1.1,1.1-2,1.4s-1.9,0.5-3.2,0.5
		c-1.7,0-3-0.4-3.9-1.3c-0.8-0.9-1.3-2.2-1.4-4l-2.9,0.6c0.1,2.2,0.8,3.9,2.1,5.2c1.3,1.2,3.3,1.9,5.9,1.9c1.5,0,3-0.2,4.3-0.7
		c1.3-0.5,2.4-1.2,3.2-2.2c0.8-1,1.2-2.2,1.2-3.7c0-1.1-0.2-2.1-0.6-2.8s-1.1-1.4-2.2-2c-1-0.6-2.4-1.1-4.2-1.6
		c-1.1-0.3-1.9-0.5-2.5-0.8s-1-0.5-1.3-0.8c-0.3-0.3-0.5-0.8-0.5-1.3c0-0.7,0.2-1.4,0.6-2c0.4-0.6,1-1,1.8-1.4
		c0.8-0.3,1.7-0.5,2.7-0.5c1.5,0,2.7,0.4,3.4,1.1c0.7,0.7,1.1,1.8,1.2,3.3l2.8-0.6c-0.2-2.1-0.8-3.6-2-4.7c-1.2-1-2.9-1.5-5.2-1.5
		C197.4,124.8,195.9,125.1,194.7,125.6z"/>
	<path class="st0" d="M207.2,151.9l2,0c1.7-2.2,3-4.5,3.9-6.9c0.9-2.4,1.3-4.8,1.3-7.1c0-2.4-0.4-4.8-1.3-7.2s-2.2-4.7-3.9-6.9h-2
		c1.6,2.7,2.7,5.1,3.4,7.3c0.7,2.2,1.1,4.5,1.1,6.7c0,2.3-0.4,4.6-1.1,6.8C209.9,146.8,208.8,149.2,207.2,151.9z"/>
</g>
</svg>
