<svg id="0" version="1.0" viewBox="0 0 892.58014 357.91199" xmlns="http://www.w3.org/2000/svg" xmlns:svg="http://www.w3.org/2000/svg" width="892.58014" height="357.91199">
  <g id="1" transform="matrix(2.3024019,0,0,2.3024019,-616.66236,-245.2058)">
    <path d="m325.75,229.35,0-38.65" fill="none" id="2" stroke="#000" stroke-linecap="butt" stroke-linejoin="miter" stroke-miterlimit="4" stroke-width="0.80000001px" style="stroke-dasharray:none;"/>
    <path d="m326.6,230.05-0.85,0.5-0.85-0.5,0-41,1.7,0.95,0,40.05z" fill="#000" fill-rule="evenodd" id="3"/>
    <path d="m333.15,225.1,0-30.1" fill="none" id="4" stroke="#000" stroke-linecap="butt" stroke-linejoin="miter" stroke-miterlimit="4" stroke-width="0.80000001px" style="stroke-dasharray:none;"/>
    <path d="m332.3,193.8,0,32.5,1.7,0,0-32.5-1.7,0z" fill="#000" fill-rule="evenodd" id="5"/>
    <path d="m360.1,249.85-33.15-18.1" fill="none" id="6" stroke="#000" stroke-linecap="butt" stroke-linejoin="miter" stroke-miterlimit="4" stroke-width="0.80000001px" style="stroke-dasharray:none;"/>
    <path d="m361.3,250.05,0,2-35.55-20.5,0-1,0.85-0.5,34.7,20z" fill="#000" fill-rule="evenodd" id="7"/>
    <path d="m395.6,231.75-33.1,18.1" fill="none" id="8" stroke="#000" stroke-linecap="butt" stroke-linejoin="miter" stroke-miterlimit="4" stroke-width="0.80000001px" style="stroke-dasharray:none;"/>
    <path d="m395.95,230.05,1.7,1-36.35,21,0-2,34.65-20z" fill="#000" fill-rule="evenodd" id="9"/>
    <path d="m388.2,227.5-25.7,13.8" fill="none" id="10" stroke="#000" stroke-linecap="butt" stroke-linejoin="miter" stroke-miterlimit="4" stroke-width="0.80000001px" style="stroke-dasharray:none;"/>
    <path d="M389,225.55,389.85,227,361.7,243.25,360.85,241.8,389,225.55z" fill="#000" fill-rule="evenodd" id="11"/>
    <path d="m396.8,190.7,0,38.65" fill="none" id="12" stroke="#000" stroke-linecap="butt" stroke-linejoin="miter" stroke-miterlimit="4" stroke-width="0.80000001px" style="stroke-dasharray:none;"/>
    <path d="m395.95,190,0.85-0.5,0.85,0.5,0,41.05-1.7-1,0-40.05z" fill="#000" fill-rule="evenodd" id="13"/>
    <path d="m362.5,170.2,33.1,18.1" fill="none" id="14" stroke="#000" stroke-linecap="butt" stroke-linejoin="miter" stroke-miterlimit="4" stroke-width="0.80000001px" style="stroke-dasharray:none;"/>
    <path d="m361.3,170,0-1.95,35.5,20.5,0,0.95-0.85,0.5-34.65-20z" fill="#000" fill-rule="evenodd" id="15"/>
    <path d="m362.5,178.75,25.7,13.85" fill="none" id="16" stroke="#000" stroke-linecap="butt" stroke-linejoin="miter" stroke-miterlimit="4" stroke-width="0.80000001px" style="stroke-dasharray:none;"/>
    <path d="m360.85,178.3,0.85-1.5,28.15,16.25-0.85,1.5-28.15-16.25z" fill="#000" fill-rule="evenodd" id="17"/>
    <path d="M326.95,188.3,360.1,170.2" fill="none" id="18" stroke="#000" stroke-linecap="butt" stroke-linejoin="miter" stroke-miterlimit="4" stroke-width="0.80000001px" style="stroke-dasharray:none;"/>
    <path d="m326.6,190-1.7-0.95,36.4-21,0,1.95-34.7,20z" fill="#000" fill-rule="evenodd" id="19"/>
    <text fill="#000000" font-family="Arial" font-size="28.79999924px" font-style="normal" font-weight="normal" id="20" style="text-anchor:start;text-align:start;" x="266.39999" xml:space="preserve" y="261.60001">C</text>
    <text fill="#000000" font-family="Arial" font-size="28.79999924px" font-style="normal" font-weight="normal" id="21" style="text-anchor:start;text-align:start;" x="287.20001" xml:space="preserve" y="261.60001">l</text>
    <path d="m298.35,245.85,26.2-14.1" fill="none" id="22" stroke="#000" stroke-linecap="butt" stroke-linejoin="miter" stroke-miterlimit="4" stroke-width="0.80000001px" style="stroke-dasharray:none;"/>
    <path d="m297.6,247.8-0.85-1.5,28.15-16.25,0.85,0.5,0,1-28.15,16.25z" fill="#000" fill-rule="evenodd" id="23"/>
    <path d="M431.1,170.2,398,188.3" fill="none" id="24" stroke="#000" stroke-linecap="butt" stroke-linejoin="miter" stroke-miterlimit="4" stroke-width="0.80000001px" style="stroke-dasharray:none;"/>
    <path d="m432.3,168.05,0,1.95-34.65,20-0.85-0.5,0-0.95,35.5-20.5z" fill="#000" fill-rule="evenodd" id="25"/>
    <text fill="#000000" font-family="Arial" font-size="28.79999924px" font-style="normal" font-weight="normal" id="26" style="text-anchor:start;text-align:start;" x="457.60001" xml:space="preserve" y="200">N</text>
    <text fill="#000000" font-family="Arial" font-size="28.79999924px" font-style="normal" font-weight="normal" id="27" style="text-anchor:start;text-align:start;" x="457.60001" xml:space="preserve" y="224">H</text>
    <path d="m452.4,180.1-18.9-9.9" fill="none" id="28" stroke="#000" stroke-linecap="butt" stroke-linejoin="miter" stroke-miterlimit="4" stroke-width="0.80000001px" style="stroke-dasharray:none;"/>
    <path d="m454,180.55-0.85,1.5-20.85-12.05,0-1.95,21.7,12.5z" fill="#000" fill-rule="evenodd" id="29"/>
    <text fill="#000000" font-family="Arial" font-size="28.79999924px" font-style="normal" font-weight="normal" id="30" style="text-anchor:start;text-align:start;" x="420.79999" xml:space="preserve" y="139.2">O</text>
    <path d="m428.6,144.95,0,25" fill="none" id="31" stroke="#000" stroke-linecap="butt" stroke-linejoin="miter" stroke-miterlimit="4" stroke-width="0.80000001px" style="stroke-dasharray:none;"/>
    <path d="m427.75,143.75,0,27.4,1.75,0,0-27.4-1.75,0z" fill="#000" fill-rule="evenodd" id="32"/>
    <path d="m436,144.95,0,25" fill="none" id="33" stroke="#000" stroke-linecap="butt" stroke-linejoin="miter" stroke-miterlimit="4" stroke-width="0.80000001px" style="stroke-dasharray:none;"/>
    <path d="m435.15,143.75,0,27.4,1.7,0,0-27.4-1.7,0z" fill="#000" fill-rule="evenodd" id="34"/>
    <path d="M502.15,170.2,482.7,180.45" fill="none" id="35" stroke="#000" stroke-linecap="butt" stroke-linejoin="miter" stroke-miterlimit="4" stroke-width="0.80000001px" style="stroke-dasharray:none;"/>
    <path d="m503.35,168.05,0,1.95-21.45,12.4-0.85-1.5,22.3-12.85z" fill="#000" fill-rule="evenodd" id="36"/>
    <path d="m537.65,188.3-33.1-18.1" fill="none" id="37" stroke="#000" stroke-linecap="butt" stroke-linejoin="miter" stroke-miterlimit="4" stroke-width="0.80000001px" style="stroke-dasharray:none;"/>
    <path d="m538.85,188.55,0,1.95-35.5-20.5,0-1.95,35.5,20.5z" fill="#000" fill-rule="evenodd" id="38"/>
    <text fill="#000000" font-family="Arial" font-size="28.79999924px" font-style="normal" font-weight="normal" id="39" style="text-anchor:start;text-align:start;" x="564" xml:space="preserve" y="180">N</text>
    <path d="m558.3,178.85-18.25,9.45" fill="none" id="40" stroke="#000" stroke-linecap="butt" stroke-linejoin="miter" stroke-miterlimit="4" stroke-width="0.80000001px" style="stroke-dasharray:none;"/>
    <path d="m559.05,176.9,0.85,1.45-21.05,12.15,0-1.95,20.2-11.65z" fill="#000" fill-rule="evenodd" id="41"/>
    <text fill="#000000" font-family="Arial" font-size="28.79999924px" font-style="normal" font-weight="normal" id="42" style="text-anchor:start;text-align:start;" x="634.40002" xml:space="preserve" y="139.2">O</text>
    <path d="m608.7,188.3-19.15-10" fill="none" id="43" stroke="#000" stroke-linecap="butt" stroke-linejoin="miter" stroke-miterlimit="4" stroke-width="0.80000001px" style="stroke-dasharray:none;"/>
    <path d="m609.9,188.55,0,1.95-21.95-12.7,0.85-1.45,21.1,12.2z" fill="#000" fill-rule="evenodd" id="44"/>
    <path d="M644.25,170.2,611.1,188.3" fill="none" id="45" stroke="#000" stroke-linecap="butt" stroke-linejoin="miter" stroke-miterlimit="4" stroke-width="0.80000001px" style="stroke-dasharray:none;"/>
    <path d="m644.55,168.5,1.75,1-36.4,21,0-1.95,34.65-20.05z" fill="#000" fill-rule="evenodd" id="46"/>
    <path d="m645.45,144.95,0,22.85" fill="none" id="47" stroke="#000" stroke-linecap="butt" stroke-linejoin="miter" stroke-miterlimit="4" stroke-width="0.80000001px" style="stroke-dasharray:none;"/>
    <path d="m644.55,143.75,1.75,0,0,25.75-1.75-1,0-24.75z" fill="#000" fill-rule="evenodd" id="48"/>
    <path d="m611.1,108.7,19.55,10.25" fill="none" id="49" stroke="#000" stroke-linecap="butt" stroke-linejoin="miter" stroke-miterlimit="4" stroke-width="0.80000001px" style="stroke-dasharray:none;"/>
    <path d="m609.9,108.5,0-2,22.35,12.9-0.85,1.5-21.5-12.4z" fill="#000" fill-rule="evenodd" id="50"/>
    <path d="m575.6,126.8,33.1-18.1" fill="none" id="51" stroke="#000" stroke-linecap="butt" stroke-linejoin="miter" stroke-miterlimit="4" stroke-width="0.80000001px" style="stroke-dasharray:none;"/>
    <path d="m575.25,128.5-1.7-1,36.35-21,0,2-34.65,20z" fill="#000" fill-rule="evenodd" id="52"/>
    <path d="m574.4,154.05,0-24.85" fill="none" id="53" stroke="#000" stroke-linecap="butt" stroke-linejoin="miter" stroke-miterlimit="4" stroke-width="0.80000001px" style="stroke-dasharray:none;"/>
    <path d="m575.25,155.25-1.7,0,0-27.75,1.7,1,0,26.75z" fill="#000" fill-rule="evenodd" id="54"/>
  </g>
</svg>