<?xml version="1.0" standalone="no" ?>
<!DOCTYPE svg PUBLIC "-//W3C//DTD SVG 1.1//EN" "http://www.w3.org/Graphics/SVG/1.1/DTD/svg11.dtd">
<svg width="540px" height="390px" viewBox="0 0 108 78" style="" xmlns="http://www.w3.org/2000/svg" xmlns:xlink="http://www.w3.org/1999/xlink" version="1.1" >
<text x="0" y="0" stroke="transparent" fill="#000000" transform="matrix(0.05 0 0 0.05 49.2741 13.6722)" style="font:normal normal normal 200px 'Arial'" >
O</text>
<text x="0" y="0" stroke="transparent" fill="#000000" transform="matrix(0.05 0 0 0.05 49.8283 28.0722)" style="font:normal normal normal 200px 'Arial'" >
S</text>
<path stroke="transparent" fill="#000000" transform="matrix(0.05 0 0 0.05 -391 -199)" d="M 8633.85,5473.07 L 8633.85,5486.93 L 8378.44,5339.46 L 8390.44,5332.54 L 8633.85,5473.07 Z " />
<path stroke="transparent" fill="#000000" transform="matrix(0.05 0 0 0.05 -391 -199)" d="M 8633.85,5486.93 L 8633.85,5473.07 L 8877.27,5332.54 L 8889.27,5339.46 L 8633.85,5486.93 Z " />
<path stroke="transparent" fill="#000000" transform="matrix(0.05 0 0 0.05 -391 -199)" d="M 8636.85,5425.34 L 8630.85,5414.94 L 8828.43,5300.87 L 8834.43,5311.27 L 8636.85,5425.34 Z " />
<path stroke="transparent" fill="#000000" transform="matrix(0.05 0 0 0.05 -391 -199)" d="M 7891.6,4187.46 L 7879.61,4180.54 L 8135.02,4033.07 L 8135.02,4046.93 L 7891.6,4187.46 Z " />
<path stroke="transparent" fill="#000000" transform="matrix(0.05 0 0 0.05 -391 -199)" d="M 7879.61,4180.54 L 7891.6,4187.46 L 7891.6,4468.54 L 7879.61,4475.46 L 7879.61,4180.54 Z " />
<path stroke="transparent" fill="#000000" transform="matrix(0.05 0 0 0.05 -391 -199)" d="M 7931.45,4213.93 L 7943.44,4213.93 L 7943.44,4442.07 L 7931.45,4442.07 L 7931.45,4213.93 Z " />
<path stroke="transparent" fill="#000000" transform="matrix(0.05 0 0 0.05 -391 -199)" d="M 8390.44,5332.54 L 8378.44,5339.46 L 8378.44,5044.54 L 8390.44,5051.46 L 8390.44,5332.54 Z " />
<path stroke="transparent" fill="#000000" transform="matrix(0.05 0 0 0.05 -391 -199)" d="M 8442.28,5306.07 L 8430.28,5306.07 L 8430.28,5077.93 L 8442.28,5077.93 L 8442.28,5306.07 Z " />
<path stroke="transparent" fill="#000000" transform="matrix(0.05 0 0 0.05 -391 -199)" d="M 8889.27,5339.46 L 8877.27,5332.54 L 8877.27,5051.46 L 8889.27,5044.54 L 8889.27,5339.46 Z " />
<path stroke="transparent" fill="#000000" transform="matrix(0.05 0 0 0.05 -391 -199)" d="M 8135.02,4046.93 L 8135.02,4033.07 L 8390.44,4180.54 L 8378.44,4187.46 L 8135.02,4046.93 Z " />
<path stroke="transparent" fill="#000000" transform="matrix(0.05 0 0 0.05 -391 -199)" d="M 8132.02,4105.06 L 8138.02,4094.66 L 8335.6,4208.73 L 8329.6,4219.13 L 8132.02,4105.06 Z " />
<path stroke="transparent" fill="#000000" transform="matrix(0.05 0 0 0.05 -391 -199)" d="M 7879.61,4475.46 L 7891.6,4468.54 L 8135.02,4609.07 L 8135.02,4622.93 L 7879.61,4475.46 Z " />
<path stroke="transparent" fill="#000000" transform="matrix(0.05 0 0 0.05 -391 -199)" d="M 8390.44,5051.46 L 8378.44,5044.54 L 8627.85,4900.54 L 8633.85,4904 L 8633.85,4910.93 L 8390.44,5051.46 Z " />
<path stroke="transparent" fill="#000000" transform="matrix(0.05 0 0 0.05 -391 -199)" d="M 8889.27,5044.54 L 8877.27,5051.46 L 8633.85,4910.93 L 8633.85,4904 L 8639.85,4900.54 L 8889.27,5044.54 Z " />
<path stroke="transparent" fill="#000000" transform="matrix(0.05 0 0 0.05 -391 -199)" d="M 8834.43,5072.73 L 8828.43,5083.13 L 8630.85,4969.06 L 8636.85,4958.66 L 8834.43,5072.73 Z " />
<path stroke="transparent" fill="#000000" transform="matrix(0.05 0 0 0.05 -391 -199)" d="M 8378.44,4187.46 L 8390.44,4180.54 L 8390.44,4468.54 L 8384.44,4472 L 8378.44,4468.54 L 8378.44,4187.46 Z " />
<path stroke="transparent" fill="#000000" transform="matrix(0.05 0 0 0.05 -391 -199)" d="M 8135.02,4622.93 L 8135.02,4609.07 L 8378.44,4468.54 L 8384.44,4472 L 8384.44,4478.93 L 8135.02,4622.93 Z " />
<path stroke="transparent" fill="#000000" transform="matrix(0.05 0 0 0.05 -391 -199)" d="M 8138.02,4561.34 L 8132.02,4550.94 L 8329.6,4436.87 L 8335.6,4447.27 L 8138.02,4561.34 Z " />
<path stroke="transparent" fill="#000000" transform="matrix(0.05 0 0 0.05 -391 -199)" d="M 9132.68,4622.93 L 9132.68,4609.07 L 9382.1,4465.07 L 9382.1,4478.93 L 9132.68,4622.93 Z " />
<path stroke="transparent" fill="#000000" transform="matrix(0.05 0 0 0.05 -391 -199)" d="M 8639.85,4900.54 L 8633.85,4904 L 8627.85,4900.54 L 8627.85,4619.46 L 8633.85,4616 L 8639.85,4619.46 L 8639.85,4900.54 Z " />
<path stroke="transparent" fill="#000000" transform="matrix(0.05 0 0 0.05 -391 -199)" d="M 8384.44,4478.93 L 8384.44,4472 L 8390.44,4468.54 L 8633.85,4609.07 L 8633.85,4616 L 8627.85,4619.46 L 8384.44,4478.93 Z " />
<path stroke="transparent" fill="#000000" transform="matrix(0.05 0 0 0.05 -391 -199)" d="M 9132.68,4609.07 L 9132.68,4622.93 L 8967.19,4527.38 L 8973.19,4516.99 L 9132.68,4609.07 Z " />
<path stroke="transparent" fill="#000000" transform="matrix(0.05 0 0 0.05 -391 -199)" d="M 8639.85,4619.46 L 8633.85,4616 L 8633.85,4609.07 L 8793.28,4517.03 L 8799.28,4527.42 L 8639.85,4619.46 Z " />
<path stroke="transparent" fill="#000000" transform="matrix(0.05 0 0 0.05 -391 -199)" d="M 8851.35,4287.61 L 8863.35,4287.61 L 8863.35,4363.61 L 8851.35,4363.61 L 8851.35,4287.61 Z " />
<path stroke="transparent" fill="#000000" transform="matrix(0.05 0 0 0.05 -391 -199)" d="M 8903.19,4287.61 L 8915.19,4287.61 L 8915.19,4363.61 L 8903.19,4363.61 L 8903.19,4287.61 Z " />
<text x="0" y="0" stroke="transparent" fill="#000000" transform="matrix(0.05 0 0 0.05 86.9647 35.2722)" style="font:normal normal normal 200px 'Arial'" >
NH</text>
<text x="0" y="0" stroke="transparent" fill="#000000" transform="matrix(0.05 0 0 0.05 101.408 36.8833)" style="font:normal normal normal 150px 'Arial'" >
2</text>
<path stroke="transparent" fill="#000000" transform="matrix(0.05 0 0 0.05 -391 -199)" d="M 9531.36,4551.25 L 9525.36,4561.64 L 9382.1,4478.93 L 9382.1,4465.07 L 9531.36,4551.25 Z " />
<text x="0" y="0" stroke="transparent" fill="#000000" transform="matrix(0.05 0 0 0.05 74.2157 13.6722)" style="font:normal normal normal 200px 'Arial'" >
O</text>
<path stroke="transparent" fill="#000000" transform="matrix(0.05 0 0 0.05 -391 -199)" d="M 9350.18,4287.61 L 9362.18,4287.61 L 9362.18,4486.97 L 9350.18,4486.97 L 9350.18,4287.61 Z " />
<path stroke="transparent" fill="#000000" transform="matrix(0.05 0 0 0.05 -391 -199)" d="M 9402.02,4287.61 L 9414.02,4287.61 L 9414.02,4486.97 L 9402.02,4486.97 L 9402.02,4287.61 Z " />
</svg>
