<?xml version="1.0" encoding="utf-8"?>
<!-- Generator: Adobe Illustrator 19.2.1, SVG Export Plug-In . SVG Version: 6.00 Build 0)  -->
<svg version="1.1" id="Слой_1" xmlns="http://www.w3.org/2000/svg" xmlns:xlink="http://www.w3.org/1999/xlink" x="0px" y="0px"
	 viewBox="0 0 487.6 251.7" style="enable-background:new 0 0 487.6 251.7;" xml:space="preserve" width="487.6" height="251.7">
<g>
	<rect x="336.3" y="121.6" width="2.4" height="45.6"/>
	<rect x="389.3" y="104.4" transform="matrix(0.809 -0.5878 0.5878 0.809 -0.1993 253.8238)" width="2.4" height="45.6"/>
	<path d="M473.4,143.2h-57l-33.1-45.6l17.4-53.5l55.7-11.8l-0.5-2.3l-56.3,12l-0.7,0.1l-0.2,0.7L381,96.9l-53.7,17.4l-43.6-25.2
		V50.2h-2.4v37.6l-3.4-2l-0.6-0.3l-0.6,0.3l-3.4,2V50.2h-2.4v38.9l-43.5,25.1l-49.3-28.5l-0.6-0.3l-0.6,0.3L143.6,105l1.2,2.1
		l31.6-18.3l0,0l1.1-0.7l1.1,0.7l0,0l47.6,27.5v54.9v2l0,0.7l0.6,0.3l1.7,1l0,0l46.4,26.8l0,0l1.7,1l0.6,0.3l0.6-0.3l1.7-1l0,0
		l47.7-27.5l37.2,12.1l0.7-2.3l-36.9-12v-55.9l53.1-17.3l32.8,45.2l-18.8,25.9l1.9,1.4l19-26.1h57V143.2z M327.2,115.6L327.2,115.6
		L327.2,115.6L327.2,115.6z M229.7,173.2L229.7,173.2l-1.1-0.7v-1.3v-54.9l47.6-27.5l0,0l1.1-0.7l1.1,0.7l0,0l47.6,27.5v56.2
		l-48.7,28.1l-1.1-0.7l0,0L229.7,173.2z M415.8,144.4L415.8,144.4L415.8,144.4L415.8,144.4z"/>
	<polygon points="29.1,117.6 29.1,116.3 76.6,88.9 76.6,88.9 77.8,88.2 78.9,88.9 78.9,88.9 110.5,107.1 111.7,105 78.4,85.8 
		77.8,85.4 77.2,85.8 75.4,86.8 75.4,86.8 29,113.6 29,113.6 27.3,114.6 26.7,114.9 26.7,115.6 26.7,117.6 26.7,151.8 29.1,151.8 	
		"/>
	<polygon points="126.4,171.2 126.4,172.5 125.3,173.2 125.3,173.2 77.8,200.6 76.6,200 76.6,200 46.2,182.4 45,184.5 75.4,202.1 
		75.4,202.1 77.2,203.1 77.8,203.4 78.4,203.1 126.5,175.3 126.5,175.3 128.2,174.3 128.8,173.9 128.8,173.2 128.8,171.2 
		128.8,135.9 126.4,135.9 	"/>
	<path d="M270.3,41.9c2.1,1.2,4.4,1.9,7.1,1.9c2.6,0,4.9-0.6,7-1.8c2.1-1.2,3.7-2.9,4.9-5.2c1.2-2.2,1.8-4.8,1.8-7.8
		c0-3-0.6-5.6-1.8-7.8c-1.2-2.2-2.8-4-4.9-5.2c-2.1-1.2-4.4-1.8-7-1.8s-5,0.6-7,1.8c-2.1,1.2-3.7,3-4.9,5.2
		c-1.2,2.3-1.8,4.9-1.8,7.8c0,2.9,0.6,5.5,1.8,7.7C266.6,39,268.2,40.7,270.3,41.9z M268.7,22.8c0.8-1.8,2-3.1,3.4-4
		c1.5-0.9,3.2-1.4,5.1-1.4c1.9,0,3.6,0.5,5.1,1.4c1.5,0.9,2.6,2.3,3.4,4s1.2,3.8,1.2,6.2c0,2.4-0.4,4.4-1.2,6.2
		c-0.8,1.7-2,3.1-3.5,4c-1.5,0.9-3.2,1.4-5.1,1.4c-1.9,0-3.6-0.5-5-1.4c-1.5-0.9-2.6-2.2-3.5-4c-0.8-1.7-1.2-3.8-1.2-6.1
		C267.5,26.7,267.9,24.6,268.7,22.8z"/>
	<polygon points="389.3,198.6 389.3,198.6 374.9,176.2 371,176.2 371,204.9 374.6,204.9 374.6,182.5 374.7,182.5 389,204.9 
		392.9,204.9 392.9,176.2 389.3,176.2 	"/>
	<polygon points="389,220.6 374.9,220.6 374.9,208.9 371.1,208.9 371.1,237.5 374.9,237.5 374.9,224 389,224 389,237.5 392.8,237.5 
		392.8,208.9 389,208.9 	"/>
	<polygon points="135,123.2 134.9,123.2 120.6,100.8 116.7,100.8 116.7,129.5 120.3,129.5 120.3,107.1 120.3,107.1 134.7,129.5 
		138.6,129.5 138.6,100.8 135,100.8 	"/>
	<path d="M34.9,160c-2.1-1.2-4.4-1.8-7-1.8c-2.6,0-5,0.6-7,1.8c-2.1,1.2-3.7,3-4.9,5.2c-1.2,2.3-1.8,4.9-1.8,7.8
		c0,2.9,0.6,5.5,1.8,7.7c1.2,2.2,2.8,4,4.9,5.2c2.1,1.2,4.4,1.9,7.1,1.9c2.6,0,4.9-0.6,7-1.8c2.1-1.2,3.7-2.9,4.9-5.2
		c1.2-2.2,1.8-4.8,1.8-7.8c0-3-0.6-5.6-1.8-7.8C38.6,162.9,37,161.2,34.9,160z M36.4,179.2c-0.8,1.7-2,3.1-3.5,4
		c-1.5,0.9-3.2,1.4-5.1,1.4c-1.9,0-3.6-0.5-5-1.4c-1.5-0.9-2.6-2.2-3.5-4c-0.8-1.7-1.2-3.8-1.2-6.1c0-2.4,0.4-4.5,1.2-6.3
		c0.8-1.8,2-3.1,3.4-4c1.5-0.9,3.2-1.4,5.1-1.4c1.9,0,3.6,0.5,5.1,1.4c1.5,0.9,2.6,2.3,3.4,4c0.8,1.8,1.2,3.8,1.2,6.2
		C37.7,175.4,37.2,177.5,36.4,179.2z"/>
</g>
</svg>
