<?xml version="1.0" encoding="UTF-8" standalone="no"?><!-- Created with Inkscape (http://www.inkscape.org/) --><svg xmlns="http://www.w3.org/2000/svg" width="516" height="500"><text x="63.136574" y="236.53224" id="O" style="font-size:45px;font-family:Arial">O</text><text x="338.34647" y="334.30392" style="font-size:45px;font-family:Arial">N</text><text x="237.76921" y="236.53226" style="font-size:45px;font-family:Arial">OH</text><text x="15.464499" y="52.336926" style="font-size:45px;font-family:Arial">HO</text><path d="M 192.46805,255.7466 L 129.17327,292.04469 L 129.17327,364.94086 L 192.46805,401.53893 L 255.46286,365.09085 L 255.46286,292.34467 M 191.26815,46.657595 L 247.66349,79.355875 M 129.17327,73.656175 L 192.46805,37.058095 L 255.46286,73.506185 L 255.46286,146.55234 M 129.17327,146.55234 L 192.46805,182.85043 M 129.17327,146.55234 L 129.17327,73.656175 M 138.17253,142.65255 L 138.17253,77.555965 M 192.46805,182.85043 L 255.46286,146.55234 M 191.26815,173.25094 L 247.66349,140.55266 M 255.46286,292.34467 L 318.75763,255.7466 L 318.75763,182.85043 L 255.46286,146.55234 M 255.46286,292.34467 L 192.46805,255.7466 M 192.46805,182.85043 L 192.46805,255.7466 M 129.17327,146.55234 L 92.276305,201.44946 M 128.61674,360.14806 L 63.913829,397.89127 M 133.11637,367.94765 L 68.192725,405.59533 M 129.17327,73.656175 L 83.876995,47.257565 M 90.621275,243.361 L 98.239065,238.02697 M 96.274615,250.38873 L 102.90949,245.74293 M 101.92788,257.41655 L 107.57988,253.45899 M 107.58122,264.44428 L 112.25022,261.17501 M 113.23455,271.47201 L 116.92057,268.89104 M 118.88782,278.4998 L 121.34519,276.77913 M 124.54122,285.52748 L 126.01561,284.4951 M 444.13392,408.44817 L 495.43198,460.04679 L 425.23463,478.94628 L 444.13392,408.44817 M 444.13392,408.44817 L 425.23463,337.95005 L 371.53668,323.55044" style="fill:none;stroke:#000;stroke-width:3" /><path d="M 251.53756,322.98084 L 251.53756,341.07785 L 259.38329,345.70388 L 259.38329,327.60687 L 251.53756,322.98084 z" fill="#fff" /><path d="M 250.87096,240.34691 L 255.46471,292.34691 L 260.5897,240.34691 L 250.87096,240.34691 z M 318.74595,255.72191 L 338.4022,298.53441 L 346.4647,293.87816 L 318.74595,255.72191 z M 192.43346,255.75316 L 225.43346,322.94066 L 292.62095,361.94066 L 337.9647,335.40941 L 332.80845,326.44066 L 292.62095,349.94066 L 232.93346,315.15941 L 192.43346,255.75316 z" fill="#000" /></svg>
