<?xml version="1.0" encoding="UTF-8" standalone="no"?>
<!-- Created with Inkscape (http://www.inkscape.org/) -->

<svg
   width="600"
   height="600"
   version="1.1"
   id="svg17"
   sodipodi:docname="Naltrexone_skeletal.svg"
   inkscape:version="1.3 (0e150ed6c4, 2023-07-21)"
   xmlns:inkscape="http://www.inkscape.org/namespaces/inkscape"
   xmlns:sodipodi="http://sodipodi.sourceforge.net/DTD/sodipodi-0.dtd"
   xmlns:xlink="http://www.w3.org/1999/xlink"
   xmlns="http://www.w3.org/2000/svg"
   xmlns:svg="http://www.w3.org/2000/svg">
  <defs
     id="defs21" />
  <sodipodi:namedview
     id="namedview19"
     pagecolor="#ffffff"
     bordercolor="#111111"
     borderopacity="1"
     inkscape:pageshadow="0"
     inkscape:pageopacity="0"
     inkscape:pagecheckerboard="1"
     showgrid="false"
     inkscape:zoom="1.2600643"
     inkscape:cx="279.74763"
     inkscape:cy="315.46009"
     inkscape:window-width="1920"
     inkscape:window-height="1011"
     inkscape:window-x="0"
     inkscape:window-y="0"
     inkscape:window-maximized="1"
     inkscape:current-layer="svg17"
     inkscape:showpageshadow="2"
     inkscape:deskcolor="#d1d1d1" />
  <g
     id="g1"
     transform="translate(41.306765,49.687553)">
    <g
       aria-label="O"
       id="O"
       style="font-size:45px;font-family:Arial">
      <path
         d="m 50.159325,401.52731 q 0,-8.02002 4.30664,-12.54638 4.306641,-4.54834 11.118164,-4.54834 4.46045,0 8.041993,2.13134 3.581542,2.13135 5.449218,5.95459 1.889649,3.80127 1.889649,8.63526 0,4.8999 -1.977539,8.76709 -1.977539,3.86719 -5.603028,5.8667 -3.625488,1.97754 -7.822265,1.97754 -4.54834,0 -8.129883,-2.19727 -3.581543,-2.19727 -5.427246,-5.99853 -1.845703,-3.80127 -1.845703,-8.042 z m 4.394531,0.0659 q 0,5.82276 3.120117,9.18457 3.14209,3.33985 7.866211,3.33985 4.812012,0 7.910156,-3.38379 3.120117,-3.38379 3.120117,-9.60205 0,-3.93311 -1.340332,-6.85547 -1.318359,-2.94434 -3.88916,-4.54834 -2.548828,-1.62598 -5.734863,-1.62598 -4.526367,0 -7.800293,3.12012 -3.251953,3.09814 -3.251953,10.37109 z"
         style="font-size:45px;font-family:Arial"
         id="path2550" />
    </g>
    <use
       transform="translate(15.152543,-180.68355)"
       xlink:href="#O"
       id="use3" />
    <g
       aria-label="N"
       id="text5"
       style="font-size:45px;font-family:Arial">
      <path
         d="m 341.7742,334.30392 v -32.21191 h 4.37256 l 16.91894,25.29053 v -25.29053 h 4.08692 v 32.21191 h -4.37256 l -16.91895,-25.3125 v 25.3125 z"
         style="font-size:45px;font-family:Arial"
         id="path2547" />
    </g>
    <g
       aria-label="OH"
       id="text7"
       style="font-size:45px;font-family:Arial">
      <path
         d="m 239.9445,220.84378 q 0,-8.02002 4.30664,-12.54639 4.30665,-4.54834 11.11817,-4.54834 4.46045,0 8.04199,2.13135 3.58154,2.13135 5.44922,5.95459 1.88965,3.80127 1.88965,8.63526 0,4.8999 -1.97754,8.76709 -1.97754,3.86718 -5.60303,5.86669 -3.62549,1.97754 -7.82226,1.97754 -4.54834,0 -8.12989,-2.19726 -3.58154,-2.19727 -5.42724,-5.99854 -1.84571,-3.80127 -1.84571,-8.04199 z m 4.39454,0.0659 q 0,5.82275 3.12011,9.18457 3.14209,3.33984 7.86621,3.33984 4.81201,0 7.91016,-3.38379 3.12012,-3.38379 3.12012,-9.60205 0,-3.9331 -1.34034,-6.85547 -1.31835,-2.94433 -3.88916,-4.54834 -2.54882,-1.62597 -5.73486,-1.62597 -4.52637,0 -7.80029,3.12011 -3.25195,3.09815 -3.25195,10.3711 z"
         style="font-size:45px;font-family:Arial"
         id="path2542" />
      <path
         d="m 276.37517,236.53226 v -32.21192 h 4.26269 v 13.22754 h 16.74317 v -13.22754 h 4.26269 v 32.21192 h -4.26269 v -15.18311 h -16.74317 v 15.18311 z"
         style="font-size:45px;font-family:Arial"
         id="path2544" />
    </g>
    <g
       aria-label="HO"
       id="text9"
       style="font-size:45px;font-family:Arial">
      <path
         d="M 19.068015,52.336926 V 20.125011 h 4.262695 v 13.22754 H 40.073874 V 20.125011 H 44.33657 V 52.336926 H 40.073874 V 37.15382 H 23.33071 v 15.183106 z"
         style="font-size:45px;font-family:Arial"
         id="path2537" />
      <path
         d="m 50.137351,36.648449 q 0,-8.02002 4.306641,-12.546387 4.30664,-4.54834 11.118164,-4.54834 4.460449,0 8.041992,2.131348 3.581543,2.131348 5.449219,5.95459 1.889648,3.801269 1.889648,8.635254 0,4.899902 -1.977539,8.76709 -1.977539,3.867187 -5.603027,5.866699 -3.625489,1.977539 -7.822266,1.977539 -4.54834,0 -8.129883,-2.197266 -3.581543,-2.197265 -5.427246,-5.998535 -1.845703,-3.801269 -1.845703,-8.041992 z m 4.394531,0.06592 q 0,5.822754 3.120117,9.18457 3.14209,3.339844 7.866211,3.339844 4.812012,0 7.910157,-3.383789 3.120117,-3.383789 3.120117,-9.602051 0,-3.933105 -1.340332,-6.855469 -1.31836,-2.944336 -3.88916,-4.548339 -2.548828,-1.625977 -5.734864,-1.625977 -4.526367,0 -7.800293,3.120117 -3.251953,3.098145 -3.251953,10.371094 z"
         style="font-size:45px;font-family:Arial"
         id="path2539" />
    </g>
    <path
       d="m 192.46805,255.7466 -63.29478,36.29809 v 72.89617 l 63.29478,36.59807 62.99481,-36.44808 v -72.74618 m -64.19471,-245.687075 56.39534,32.69828 m -118.49022,-5.6997 63.29478,-36.59808 62.99481,36.44809 v 73.046155 m -126.28959,0 63.29478,36.29809 M 129.17327,146.55234 V 73.656175 m 8.99926,68.996375 V 77.555965 m 54.29552,105.294465 62.99481,-36.29809 m -64.19471,26.6986 56.39534,-32.69828 m 7.79937,151.79201 63.29477,-36.59807 v -72.89617 l -63.29477,-36.29809 m 0,145.79233 -62.99481,-36.59807 m 0,-72.89617 V 255.7466 M 129.17327,146.55234 92.276305,201.44946 m 36.340435,158.6986 -47.526021,27.7234 M 133.11637,367.94765 85.369615,395.57552 M 129.17327,73.656175 83.876995,47.257565 m 6.74428,196.103435 7.61779,-5.33403 m -1.96445,12.36176 6.634875,-4.6458 m -0.98161,11.67362 5.652,-3.95756 m 10e-4,10.98529 4.669,-3.26927 m 0.98433,10.297 3.68602,-2.58097 m 1.96725,9.60876 2.45737,-1.72067 m 3.19603,8.74835 1.47439,-1.03238 m 318.11831,123.95307 51.29806,51.59862 -70.19735,18.89949 18.89929,-70.49811 m 0,0 -18.89929,-70.49812 -53.69795,-14.39961"
       style="fill:none;stroke:#000000;stroke-width:3"
       id="path11" />
    <path
       d="m 251.53756,322.98084 v 18.09701 l 7.84573,4.62603 v -18.09701 z"
       fill="#ffffff"
       id="path13" />
    <path
       d="m 250.87096,240.34691 4.59375,52 5.12499,-52 z m 67.87499,15.375 19.65625,42.8125 8.0625,-4.65625 z m -126.31249,0.0312 33,67.1875 67.18749,39 45.34375,-26.53125 -5.15625,-8.96875 -40.1875,23.5 -59.68749,-34.78125 z"
       fill="#000000"
       id="path15" />
  </g>
</svg>
