<?xml version="1.0" encoding="iso-8859-1"?>
<!-- Generator: Adobe Illustrator 19.0.0, SVG Export Plug-In . SVG Version: 6.00 Build 0)  -->
<svg version="1.1" id="&#x421;&#x43B;&#x43E;&#x439;_1"
	 xmlns="http://www.w3.org/2000/svg" xmlns:xlink="http://www.w3.org/1999/xlink" x="0px" y="0px" viewBox="0 0 447.931 658.006"
	 style="enable-background:new 0 0 447.931 658.006;" xml:space="preserve" width="447.931" height="658.006">
<g>
	<rect x="58.844" y="117.569" width="2.4" height="45.628"/>
	<path d="M98.359,198.676v35.266h2.4v-35.266l49.282-28.453l0.6-0.345v-0.694v-2v-54.907l47.551-27.453v0l1.133-0.654l1.133,0.654v0
		l47.551,27.453v56.907h2.4v-56.907l32.36-18.683l-1.199-2.079l-32.361,18.684l-43.499-25.114v-38.88h-2.4v37.494l-3.384-1.954
		l-0.599-0.346l-0.6,0.346l-3.384,1.954V46.203h-2.4v38.88l-43.499,25.114l-49.283-28.454l-0.599-0.346l-0.6,0.346l-49.883,28.8
		l-0.6,0.345v0.694v2v53.6v2l-0.001,0.693l0.602,0.347L98.359,198.676z M50.875,113.583v-1.307l47.551-27.453v0l1.133-0.654
		l48.683,28.107v54.907v1.307l-48.683,28.107L50.875,168.49v-1.307V113.583z"/>
	<rect x="118.116" y="151.79" transform="matrix(0.4996 0.8663 -0.8663 0.4996 210.9573 -15.9866)" width="2.4" height="45.628"/>
	<rect x="96.502" y="104.962" transform="matrix(0.866 0.5 -0.5 0.866 69.0664 -45.435)" width="45.628" height="2.4"/>
	<polygon points="319.134,160.867 321.213,162.066 349.413,113.222 398.257,141.423 399.456,139.344 350.613,111.144 378.813,62.3 
		376.734,61.101 348.535,109.944 316.613,91.514 315.414,93.593 347.335,112.022 	"/>
	<path d="M189.085,35.283c1.147,1.387,2.573,2.487,4.28,3.3c1.707,0.813,3.693,1.22,5.96,1.22c2.267,0,4.253-0.407,5.96-1.22
		c1.707-0.813,3.133-1.913,4.28-3.3c1.147-1.387,2.007-2.98,2.58-4.78c0.573-1.8,0.86-3.673,0.86-5.62c0-1.947-0.287-3.82-0.86-5.62
		c-0.573-1.8-1.433-3.393-2.58-4.78c-1.147-1.387-2.573-2.493-4.28-3.32c-1.707-0.827-3.693-1.24-5.96-1.24
		c-2.267,0-4.253,0.413-5.96,1.24c-1.707,0.827-3.133,1.933-4.28,3.32s-2.007,2.98-2.58,4.78c-0.573,1.8-0.86,3.673-0.86,5.62
		c0,1.947,0.287,3.82,0.86,5.62C187.078,32.303,187.938,33.896,189.085,35.283z M190.005,20.623c0.373-1.4,0.96-2.66,1.76-3.78
		c0.8-1.12,1.827-2.02,3.08-2.7c1.253-0.68,2.747-1.02,4.48-1.02c1.733,0,3.227,0.34,4.48,1.02c1.253,0.68,2.28,1.58,3.08,2.7
		s1.387,2.38,1.76,3.78c0.373,1.4,0.56,2.82,0.56,4.26c0,1.44-0.187,2.86-0.56,4.26c-0.373,1.4-0.96,2.66-1.76,3.78
		c-0.8,1.12-1.827,2.02-3.08,2.7c-1.253,0.68-2.747,1.02-4.48,1.02c-1.733,0-3.227-0.34-4.48-1.02c-1.253-0.68-2.28-1.58-3.08-2.7
		c-0.8-1.12-1.387-2.38-1.76-3.78c-0.373-1.4-0.56-2.82-0.56-4.26C189.445,23.443,189.631,22.023,190.005,20.623z"/>
	<polygon points="310.471,96.423 310.471,67.863 306.871,67.863 306.871,91.023 306.791,91.023 291.751,67.863 287.711,67.863 
		287.711,96.423 291.311,96.423 291.311,73.503 291.391,73.503 306.311,96.423 	"/>
	<polygon points="291.571,50.783 306.611,50.783 306.611,63.863 310.411,63.863 310.411,35.303 306.611,35.303 306.611,47.583 
		291.571,47.583 291.571,35.303 287.771,35.303 287.771,63.863 291.571,63.863 	"/>
	<path d="M89.439,247.063c0.787-1.08,1.787-1.94,3-2.58c1.213-0.64,2.673-0.96,4.38-0.96c2,0,3.727,0.507,5.18,1.52
		s2.393,2.533,2.82,4.56h3.8c-0.213-1.52-0.667-2.86-1.36-4.02c-0.693-1.16-1.56-2.127-2.6-2.9c-1.04-0.773-2.227-1.36-3.56-1.76
		c-1.333-0.4-2.747-0.6-4.24-0.6c-2.187,0-4.127,0.393-5.82,1.18c-1.693,0.787-3.107,1.86-4.24,3.22
		c-1.133,1.36-1.993,2.953-2.58,4.78c-0.587,1.827-0.88,3.78-0.88,5.86s0.273,4.027,0.82,5.84c0.547,1.813,1.367,3.387,2.46,4.72
		c1.093,1.333,2.467,2.38,4.12,3.14c1.653,0.76,3.587,1.14,5.8,1.14c3.653,0,6.533-1,8.64-3s3.347-4.8,3.72-8.4h-3.8
		c-0.08,1.173-0.32,2.267-0.72,3.28c-0.4,1.013-0.953,1.887-1.66,2.62s-1.547,1.307-2.52,1.72s-2.087,0.62-3.34,0.62
		c-1.707,0-3.173-0.32-4.4-0.96c-1.227-0.64-2.233-1.5-3.02-2.58c-0.787-1.08-1.367-2.347-1.74-3.8
		c-0.373-1.453-0.56-2.993-0.56-4.62c0-1.493,0.187-2.933,0.56-4.32C88.072,249.376,88.652,248.143,89.439,247.063z"/>
	<rect x="112.379" y="241.003" width="3.4" height="28.56"/>
	<rect x="109.288" y="380.249" width="2.4" height="45.628"/>
	<rect x="168.56" y="414.47" transform="matrix(-0.4996 -0.8663 0.8663 -0.4996 -124.2427 802.7952)" width="2.4" height="45.628"/>
	<rect x="146.946" y="367.642" transform="matrix(-0.866 -0.5 0.5 -0.866 132.356 773.1491)" width="45.628" height="2.4"/>
	<polygon points="88.628,535.868 90.233,537.682 95.155,534.371 94.08,532.202 	"/>
	<polygon points="75.794,521.36 77.398,523.174 86.552,517.017 85.476,514.847 	"/>
	<polygon points="99.457,543.048 98.381,540.879 95.046,543.123 96.65,544.936 	"/>
	<polygon points="69.377,514.106 70.981,515.919 82.25,508.34 81.175,506.17 	"/>
	<polygon points="82.211,528.614 83.816,530.428 90.854,525.694 89.778,523.524 	"/>
	<path d="M258.946,573.24l-30.261,17.471l-47.183-27.241l-27.67-41.61l44.853,25.896v18.013l2.4,1.386v-19.399l48.091-27.765
		l12.209,30.793l10.739-6.2l-21.155-26.717v-55.203v-2l0.001-0.693l-0.602-0.347l-49.283-28.453v-54.907v-2l0.001-0.693
		l-0.602-0.347l-49.883-28.8l-0.6-0.346l-0.599,0.346l-1.732,1l0,0l-47.552,27.454l-31.481-18.176l-1.199,2.079l31.48,18.175v56.541
		l-26.414,39.259l1.991,1.339l25.993-38.633l48.313,27.893v56.214l-47.551,27.453v0l-1.732,1l-0.6,0.345v0.694v2v48.921
		l-33.911,19.578l1.199,2.079l32.712-18.886v1.908v2l-0.001,0.693l0.602,0.347l1.732,1v0l1.652,0.953l-32.711,18.885l1.199,2.079
		l33.912-19.579l42.367,24.461l0,0l1.732,1l0.599,0.346l0.6-0.346l49.883-28.8l0.6-0.345v-0.694v-2v-7.795l-2.4-1.386v9.181v1.307
		l-1.132,0.653l0,0l-47.551,27.454l-47.552-27.454l0,0l-1.132-0.653v-1.307v-53.6v-1.307l48.184-27.819l26.599,52.886l48.153,27.801
		v0l0.993,0.573l0.737,0.425l0,0l0.002,0.001l2.698,1.556l2.698-1.556l0.219-0.127l32.744-18.905L258.946,573.24z M248.569,517.57
		l-47.079,27.181l5.995-34.268h-15.2l5.995,34.268l-47.078-27.181v-56.214l48.683-28.107l47.552,27.454l0,0l1.132,0.653v1.307
		V517.57z M198.686,431.17l-48.683,28.107L101.32,431.17v-56.214l48.683-28.107l47.551,27.454l0,0l1.132,0.653v1.307V431.17z
		 M100.12,431.863L100.12,431.863L100.12,431.863L100.12,431.863z"/>
	<path d="M39.997,355.563c1.147,1.387,2.573,2.487,4.28,3.3c1.707,0.813,3.693,1.22,5.96,1.22s4.253-0.407,5.96-1.22
		c1.707-0.813,3.133-1.913,4.28-3.3c1.147-1.387,2.007-2.98,2.58-4.78c0.573-1.8,0.86-3.673,0.86-5.62c0-1.947-0.287-3.82-0.86-5.62
		c-0.573-1.8-1.433-3.393-2.58-4.78c-1.147-1.387-2.573-2.493-4.28-3.32s-3.693-1.24-5.96-1.24s-4.253,0.413-5.96,1.24
		s-3.133,1.933-4.28,3.32c-1.147,1.387-2.007,2.98-2.58,4.78c-0.573,1.8-0.86,3.673-0.86,5.62c0,1.947,0.287,3.82,0.86,5.62
		C37.99,352.583,38.85,354.176,39.997,355.563z M40.917,340.903c0.373-1.4,0.96-2.66,1.76-3.78c0.8-1.12,1.827-2.02,3.08-2.7
		c1.253-0.68,2.747-1.02,4.48-1.02c1.733,0,3.227,0.34,4.48,1.02c1.253,0.68,2.28,1.58,3.08,2.7c0.8,1.12,1.387,2.38,1.76,3.78
		c0.373,1.4,0.56,2.82,0.56,4.26c0,1.44-0.187,2.86-0.56,4.26c-0.373,1.4-0.96,2.66-1.76,3.78c-0.8,1.12-1.827,2.02-3.08,2.7
		c-1.253,0.68-2.747,1.02-4.48,1.02c-1.733,0-3.227-0.34-4.48-1.02c-1.253-0.68-2.28-1.58-3.08-2.7c-0.8-1.12-1.387-2.38-1.76-3.78
		c-0.373-1.4-0.56-2.82-0.56-4.26C40.357,343.723,40.543,342.303,40.917,340.903z"/>
	<polygon points="28.757,343.163 13.717,343.163 13.717,330.883 9.916,330.883 9.916,359.443 13.717,359.443 13.717,346.363 
		28.757,346.363 28.757,359.443 32.557,359.443 32.557,330.883 28.757,330.883 	"/>
	<path d="M71.605,478.763c-1.147-1.387-2.573-2.493-4.28-3.32c-1.707-0.827-3.693-1.24-5.96-1.24s-4.253,0.413-5.96,1.24
		c-1.707,0.827-3.133,1.933-4.28,3.32c-1.147,1.387-2.007,2.98-2.58,4.78c-0.573,1.8-0.86,3.673-0.86,5.62s0.287,3.82,0.86,5.62
		c0.573,1.8,1.433,3.393,2.58,4.78c1.147,1.387,2.573,2.487,4.28,3.3c1.707,0.813,3.693,1.22,5.96,1.22s4.253-0.407,5.96-1.22
		c1.707-0.813,3.133-1.913,4.28-3.3c1.147-1.387,2.007-2.98,2.58-4.78c0.573-1.8,0.86-3.673,0.86-5.62s-0.287-3.82-0.86-5.62
		C73.612,481.743,72.752,480.15,71.605,478.763z M70.686,493.423c-0.373,1.4-0.96,2.66-1.76,3.78s-1.827,2.02-3.08,2.7
		c-1.253,0.68-2.747,1.02-4.48,1.02s-3.227-0.34-4.48-1.02c-1.253-0.68-2.28-1.58-3.08-2.7c-0.8-1.12-1.387-2.38-1.76-3.78
		c-0.373-1.4-0.56-2.82-0.56-4.26s0.187-2.86,0.56-4.26c0.373-1.4,0.96-2.66,1.76-3.78c0.8-1.12,1.827-2.02,3.08-2.7
		c1.253-0.68,2.747-1.02,4.48-1.02s3.227,0.34,4.48,1.02c1.253,0.68,2.28,1.58,3.08,2.7c0.8,1.12,1.387,2.38,1.76,3.78
		c0.373,1.4,0.56,2.82,0.56,4.26S71.059,492.023,70.686,493.423z"/>
	<polygon points="286.349,576.386 286.269,576.386 271.229,553.226 267.189,553.226 267.189,581.786 270.789,581.786 
		270.789,558.866 270.869,558.866 285.789,581.786 289.949,581.786 289.949,553.226 286.349,553.226 	"/>
	<path d="M210.126,478.763c-1.147-1.387-2.573-2.493-4.28-3.32c-1.707-0.827-3.693-1.24-5.96-1.24c-2.267,0-4.253,0.413-5.96,1.24
		c-1.707,0.827-3.133,1.933-4.28,3.32c-1.147,1.387-2.007,2.98-2.58,4.78c-0.573,1.8-0.86,3.673-0.86,5.62s0.287,3.82,0.86,5.62
		c0.573,1.8,1.433,3.393,2.58,4.78c1.147,1.387,2.573,2.487,4.28,3.3c1.707,0.813,3.693,1.22,5.96,1.22
		c2.267,0,4.253-0.407,5.96-1.22c1.707-0.813,3.133-1.913,4.28-3.3c1.147-1.387,2.007-2.98,2.58-4.78
		c0.573-1.8,0.86-3.673,0.86-5.62s-0.287-3.82-0.86-5.62C212.132,481.743,211.272,480.15,210.126,478.763z M209.206,493.423
		c-0.373,1.4-0.96,2.66-1.76,3.78c-0.8,1.12-1.827,2.02-3.08,2.7c-1.253,0.68-2.747,1.02-4.48,1.02c-1.733,0-3.227-0.34-4.48-1.02
		c-1.253-0.68-2.28-1.58-3.08-2.7c-0.8-1.12-1.387-2.38-1.76-3.78c-0.373-1.4-0.56-2.82-0.56-4.26s0.187-2.86,0.56-4.26
		c0.373-1.4,0.96-2.66,1.76-3.78c0.8-1.12,1.827-2.02,3.08-2.7c1.253-0.68,2.747-1.02,4.48-1.02c1.733,0,3.227,0.34,4.48,1.02
		c1.253,0.68,2.28,1.58,3.08,2.7c0.8,1.12,1.387,2.38,1.76,3.78c0.373,1.4,0.56,2.82,0.56,4.26S209.579,492.023,209.206,493.423z"/>
	<polygon points="236.406,487.163 221.366,487.163 221.366,474.883 217.566,474.883 217.566,503.443 221.366,503.443 
		221.366,490.363 236.406,490.363 236.406,503.443 240.206,503.443 240.206,474.883 236.406,474.883 	"/>
	<path d="M60.477,622.763c-1.147-1.387-2.573-2.493-4.28-3.32s-3.693-1.24-5.96-1.24s-4.253,0.413-5.96,1.24s-3.133,1.933-4.28,3.32
		c-1.147,1.387-2.007,2.98-2.58,4.78c-0.573,1.8-0.86,3.673-0.86,5.62s0.287,3.82,0.86,5.62c0.573,1.8,1.433,3.393,2.58,4.78
		s2.573,2.487,4.28,3.3c1.707,0.813,3.693,1.22,5.96,1.22s4.253-0.407,5.96-1.22c1.707-0.813,3.133-1.913,4.28-3.3
		c1.147-1.387,2.007-2.98,2.58-4.78c0.573-1.8,0.86-3.673,0.86-5.62s-0.287-3.82-0.86-5.62
		C62.483,625.743,61.623,624.15,60.477,622.763z M59.557,637.423c-0.373,1.4-0.96,2.66-1.76,3.78c-0.8,1.12-1.827,2.02-3.08,2.7
		c-1.253,0.68-2.747,1.02-4.48,1.02c-1.733,0-3.227-0.34-4.48-1.02c-1.253-0.68-2.28-1.58-3.08-2.7c-0.8-1.12-1.387-2.38-1.76-3.78
		c-0.373-1.4-0.56-2.82-0.56-4.26c0-1.44,0.187-2.86,0.56-4.26c0.373-1.4,0.96-2.66,1.76-3.78c0.8-1.12,1.827-2.02,3.08-2.7
		c1.253-0.68,2.747-1.02,4.48-1.02c1.733,0,3.227,0.34,4.48,1.02c1.253,0.68,2.28,1.58,3.08,2.7c0.8,1.12,1.387,2.38,1.76,3.78
		c0.373,1.4,0.56,2.82,0.56,4.26C60.117,634.603,59.93,636.023,59.557,637.423z"/>
	<path d="M436.975,567.547l-1-1.732l0,0l-27.8-48.151l-1.04-1.803l-1.04,1.803l-28.639,49.604l-49.005,28.293l-32.361-18.684
		l-1.199,2.079l31.228,18.03l0,0l1.732,1l0.599,0.346l0.599-0.346l1.732-1l0,0l47.873-27.64h55.279h2l2.079,0.003L436.975,567.547z
		 M407.135,520.663l26.722,46.283h-53.443L407.135,520.663z M378.335,568.146L378.335,568.146L378.335,568.146L378.335,568.146z"/>
</g>
</svg>
