<?xml version="1.0" encoding="utf-8"?>
<!-- Generator: Adobe Illustrator 27.0.0, SVG Export Plug-In . SVG Version: 6.00 Build 0)  -->
<svg version="1.1" id="Слой_1" xmlns="http://www.w3.org/2000/svg" xmlns:xlink="http://www.w3.org/1999/xlink" x="0px" y="0px"
	 viewBox="0 0 872.19 379.83" style="enable-background:new 0 0 872.19 379.83;" xml:space="preserve" width="872.19" height="379.83">
<style type="text/css">
	.st0{fill:none;}
</style>
<path class="st0" d="z"/>
<g>
	<polygon points="489.64,183.4 474.61,160.92 470.72,160.92 470.72,189.55 474.35,189.55 474.35,167.05 489.39,189.55 
		493.28,189.55 493.28,160.92 489.64,160.92 	"/>
	<polygon points="549.75,112.27 564.79,134.77 568.68,134.77 568.68,106.14 565.05,106.14 565.05,128.62 550.01,106.14 
		546.12,106.14 546.12,134.77 549.75,134.77 	"/>
	<polygon points="475.48,134.77 475.48,106.14 471.85,106.14 471.85,128.62 456.81,106.14 452.92,106.14 452.92,134.77 
		456.55,134.77 456.55,112.27 471.59,134.77 	"/>
	<rect x="499.67" y="163.54" width="32.51" height="2.4"/>
	<polygon points="510.92,87.95 537.35,107.16 538.76,105.21 517.3,89.62 517.3,49.58 514.9,49.58 514.9,87.88 510.92,84.99 
		506.93,87.88 506.93,49.58 504.53,49.58 504.53,89.62 482.89,105.35 484.3,107.29 	"/>
	<rect x="472.01" y="142.38" transform="matrix(0.951 -0.3092 0.3092 0.951 -22.4755 153.529)" width="2.4" height="10.62"/>
	<path d="M503.76,41.85c2.12,1.3,4.53,1.95,7.23,1.95c2.48,0,4.8-0.59,6.95-1.77s3.81-2.91,4.98-5.21s1.76-4.89,1.76-7.79
		c0-2.87-0.56-5.43-1.67-7.69s-2.73-4.02-4.85-5.28c-2.12-1.26-4.51-1.89-7.15-1.89c-4.04,0-7.33,1.34-9.88,4.03
		c-2.55,2.69-3.83,6.41-3.83,11.16c0,2.51,0.55,4.9,1.64,7.15S501.64,40.55,503.76,41.85z M504.1,20.2
		c1.93-1.84,4.24-2.76,6.93-2.76c1.89,0,3.59,0.48,5.11,1.44c1.52,0.96,2.67,2.3,3.46,4.04c0.79,1.74,1.18,3.77,1.18,6.1
		c0,3.69-0.92,6.53-2.77,8.54c-1.84,2.01-4.19,3.01-7.04,3.01c-2.8,0-5.13-0.99-6.98-2.98s-2.78-4.7-2.78-8.15
		C501.2,25.12,502.17,22.04,504.1,20.2z"/>
	<polygon points="541.02,174.99 551.38,143.09 549.1,142.35 538.85,173.91 499.67,173.91 499.67,176.31 539,176.31 565.8,226.19 
		624.12,226.19 624.12,223.79 567.24,223.79 	"/>
	<path d="M714.4,78.72c-2.12-1.26-4.5-1.89-7.15-1.89c-4.04,0-7.33,1.34-9.88,4.03c-2.55,2.69-3.83,6.41-3.83,11.16
		c0,2.51,0.55,4.9,1.64,7.15s2.7,4.03,4.82,5.33c2.12,1.3,4.53,1.95,7.23,1.95c2.49,0,4.8-0.59,6.95-1.77s3.81-2.91,4.98-5.21
		s1.76-4.89,1.76-7.79c0-2.87-0.55-5.43-1.67-7.69S716.53,79.99,714.4,78.72z M714.26,100.21c-1.84,2.01-4.19,3.01-7.04,3.01
		c-2.8,0-5.12-0.99-6.98-2.98s-2.79-4.7-2.79-8.15c0-4.31,0.97-7.39,2.9-9.23s4.24-2.76,6.92-2.76c1.89,0,3.59,0.48,5.11,1.44
		c1.52,0.96,2.67,2.3,3.46,4.04c0.79,1.74,1.18,3.77,1.18,6.1C717.02,95.36,716.1,98.2,714.26,100.21z"/>
	<polygon points="657.28,118.94 607.4,90.14 577.01,107.68 578.21,109.76 607.4,92.91 657.28,121.71 689.78,102.95 688.58,100.87 	
		"/>
	<rect x="766.22" y="126.31" width="2.4" height="45.63"/>
	<rect x="803.88" y="182.15" transform="matrix(0.8659 -0.5002 0.5002 0.8659 19.131 438.0637)" width="45.63" height="2.4"/>
	<path d="M806.93,90.14l-49.88,28.8l-31.3-18.07l-1.2,2.08l31.3,18.07v57.6l51.08,29.49l51.08-29.49v-58.99L806.93,90.14z
		 M806.93,205.34l-48.68-28.11v-56.21l48.68-28.11l48.68,28.11v56.21L806.93,205.34z"/>
	<rect x="825.49" y="92.09" transform="matrix(0.5 -0.866 0.866 0.5 313.8435 773.3939)" width="2.4" height="45.63"/>
	<polygon points="364.55,118.94 314.67,90.14 284.28,107.68 285.48,109.76 314.67,92.91 364.55,121.71 414.44,92.91 443.41,109.64 
		444.61,107.56 414.44,90.14 	"/>
	<polygon points="272.32,128.62 257.28,106.14 253.39,106.14 253.39,134.77 257.02,134.77 257.02,112.27 272.06,134.77 
		275.95,134.77 275.95,106.14 272.32,106.14 	"/>
	<polygon points="172.55,186.22 157.51,163.74 153.62,163.74 153.62,192.37 157.26,192.37 157.26,169.87 172.3,192.37 
		176.18,192.37 176.18,163.74 172.55,163.74 	"/>
	<polygon points="166.22,121.02 214.9,92.91 243.87,109.64 245.07,107.56 214.9,90.14 163.82,119.63 163.82,157.24 166.22,157.24 	
		"/>
	<polygon points="263.59,177.23 214.9,205.34 185.73,188.49 184.53,190.57 214.9,208.11 265.99,178.62 265.99,141.04 263.59,141.04 
			"/>
	<path d="M115.14,205.34l-49.88-28.8l-51.08,29.49v58.99l49.88,28.8v35.82h2.4v-35.82l49.88-28.8v-57.6l28.96-16.72l-1.2-2.08
		L115.14,205.34z M65.25,291.74l-48.68-28.11v-56.21l48.68-28.11l48.68,28.11v56.21L65.25,291.74z"/>
	<rect x="83.81" y="178.49" transform="matrix(0.5 -0.866 0.866 0.5 -131.8288 174.2775)" width="2.4" height="45.63"/>
	<rect x="24.54" y="212.71" width="2.4" height="45.63"/>
	<rect x="62.2" y="268.55" transform="matrix(0.866 -0.5 0.5 0.866 -123.4938 78.6564)" width="45.63" height="2.4"/>
	<path d="M71.34,360.58c-1.47,1.22-3.27,1.84-5.39,1.84c-1.74,0-3.37-0.45-4.86-1.35s-2.6-2.26-3.31-4.07s-1.06-3.94-1.06-6.38
		c0-1.89,0.3-3.72,0.9-5.5s1.64-3.19,3.12-4.25s3.32-1.58,5.52-1.58c1.91,0,3.5,0.47,4.77,1.43c1.26,0.95,2.23,2.46,2.89,4.55
		l3.73-0.88c-0.77-2.64-2.13-4.7-4.08-6.15c-1.95-1.46-4.36-2.19-7.23-2.19c-2.53,0-4.84,0.57-6.94,1.73s-3.72,2.84-4.86,5.06
		c-1.14,2.22-1.71,4.82-1.71,7.8c0,2.73,0.5,5.29,1.51,7.68s2.48,4.2,4.41,5.46c1.93,1.26,4.44,1.89,7.53,1.89
		c2.98,0,5.5-0.82,7.57-2.45c2.06-1.63,3.49-4.01,4.29-7.12l-3.79-0.96C73.8,357.54,72.81,359.36,71.34,360.58z"/>
	<rect x="82.26" y="336.54" width="3.52" height="28.63"/>
</g>
<path class="st0" d="z"/>
</svg>
