<svg id="0" version="1.0" viewBox="0 0 996.3476 1091.0477" xmlns="http://www.w3.org/2000/svg" xmlns:svg="http://www.w3.org/2000/svg" width="996.3476" height="1091.0477">
  <g id="1" transform="matrix(3.1939336,0,0,3.1939336,-999.54152,-603.33406)">
    <path d="m442.6,190,52.6,0" fill="none" id="2" stroke="#000" stroke-linecap="butt" stroke-linejoin="miter" stroke-miterlimit="4" stroke-width="0.80000001px" style="stroke-dasharray:none;"/>
    <path d="m441.95,191.15-1.1-2.25,56.15,0-1.15,2.25-53.9,0z" fill="#000" fill-rule="evenodd" id="3"/>
    <path d="M408.3,231.85,440.2,191.2" fill="none" id="4" stroke="#000" stroke-linecap="butt" stroke-linejoin="miter" stroke-miterlimit="4" stroke-width="0.80000001px" style="stroke-dasharray:none;"/>
    <path d="m408.35,233.3-1.25-0.25-0.4-1.35,34.15-42.8,1.1,2.25-33.6,42.15z" fill="#000" fill-rule="evenodd" id="5"/>
    <path d="M419.35,285.5,407.1,234.25" fill="none" id="6" stroke="#000" stroke-linecap="butt" stroke-linejoin="miter" stroke-miterlimit="4" stroke-width="0.80000001px" style="stroke-dasharray:none;"/>
    <path d="m420.35,285.9-1,0.8-1.25-0.4-11.95-52.35,0.95-0.9,1.25,0.25,12,52.6z" fill="#000" fill-rule="evenodd" id="7"/>
    <path d="M408.4,282.1,398.7,242" fill="none" id="8" stroke="#000" stroke-linecap="butt" stroke-linejoin="miter" stroke-miterlimit="4" stroke-width="0.80000001px" style="stroke-dasharray:none;"/>
    <path d="m409.55,283.05-2.25,0.5-9.7-42.5,2.25-0.5,9.7,42.5z" fill="#000" fill-rule="evenodd" id="9"/>
    <path d="M467.7,310.55,420.55,286.7" fill="none" id="10" stroke="#000" stroke-linecap="butt" stroke-linejoin="miter" stroke-miterlimit="4" stroke-width="0.80000001px" style="stroke-dasharray:none;"/>
    <path d="m468.9,309.3,0,1.25-1.15,0.7-48.2-23.2-0.2-1.35,1-0.8,48.55,23.4z" fill="#000" fill-rule="evenodd" id="11"/>
    <path d="m517.3,286.7-47.2,23.85" fill="none" id="12" stroke="#000" stroke-linecap="butt" stroke-linejoin="miter" stroke-miterlimit="4" stroke-width="0.80000001px" style="stroke-dasharray:none;"/>
    <path d="m517.5,285.9,1,0.8-0.2,1.35-48.25,23.2-1.15-0.7,0-1.25,48.6-23.4z" fill="#000" fill-rule="evenodd" id="13"/>
    <path d="M530.75,234.25,518.5,285.5" fill="none" id="14" stroke="#000" stroke-linecap="butt" stroke-linejoin="miter" stroke-miterlimit="4" stroke-width="0.80000001px" style="stroke-dasharray:none;"/>
    <path d="m529.5,233.3,1.25-0.25,0.95,0.9-11.95,52.35-1.25,0.4-1-0.8,12-52.6z" fill="#000" fill-rule="evenodd" id="15"/>
    <path d="m539.1,242-9.7,40.1" fill="none" id="16" stroke="#000" stroke-linecap="butt" stroke-linejoin="miter" stroke-miterlimit="4" stroke-width="0.80000001px" style="stroke-dasharray:none;"/>
    <path d="m538,240.55,2.25,0.5-9.7,42.5-2.25-0.5,9.7-42.5z" fill="#000" fill-rule="evenodd" id="17"/>
    <path d="m497.6,191.2,31.95,40.65" fill="none" id="18" stroke="#000" stroke-linecap="butt" stroke-linejoin="miter" stroke-miterlimit="4" stroke-width="0.80000001px" style="stroke-dasharray:none;"/>
    <path d="m495.85,191.15,1.15-2.25,34.15,42.8-0.4,1.35-1.25,0.25-33.65-42.15z" fill="#000" fill-rule="evenodd" id="19"/>
    <path d="m355.7,216.8,50.2,16.25" fill="none" id="20" stroke="#000" stroke-linecap="butt" stroke-linejoin="miter" stroke-miterlimit="4" stroke-width="0.80000001px" style="stroke-dasharray:none;"/>
    <path d="m354.8,218.1-0.55-2.55,52.45,16.15,0.4,1.35-0.95,0.9-51.35-15.85z" fill="#000" fill-rule="evenodd" id="21"/>
    <path d="M315.4,253.05,353.3,218" fill="none" id="22" stroke="#000" stroke-linecap="butt" stroke-linejoin="miter" stroke-miterlimit="4" stroke-width="0.80000001px" style="stroke-dasharray:none;"/>
    <path d="m315.45,254.65-2.5-0.8,41.3-38.3,0.55,2.55-39.35,36.55z" fill="#000" fill-rule="evenodd" id="23"/>
    <path d="m326.3,256.4,29.55-27.25" fill="none" id="24" stroke="#000" stroke-linecap="butt" stroke-linejoin="miter" stroke-miterlimit="4" stroke-width="0.80000001px" style="stroke-dasharray:none;"/>
    <path d="m325.9,258.45-1.55-1.65,31.95-29.65,1.55,1.65-31.95,29.65z" fill="#000" fill-rule="evenodd" id="25"/>
    <path d="M326.45,306.7,314.2,255.45" fill="none" id="26" stroke="#000" stroke-linecap="butt" stroke-linejoin="miter" stroke-miterlimit="4" stroke-width="0.80000001px" style="stroke-dasharray:none;"/>
    <path d="m327.4,307-1.95,1.8-12.5-54.95,2.5,0.8,11.95,52.35z" fill="#000" fill-rule="evenodd" id="27"/>
    <path d="M377.8,324.1,327.65,307.9" fill="none" id="28" stroke="#000" stroke-linecap="butt" stroke-linejoin="miter" stroke-miterlimit="4" stroke-width="0.80000001px" style="stroke-dasharray:none;"/>
    <path d="m378.7,322.8,0.6,2.6-53.85-16.6,1.95-1.8,51.3,15.8z" fill="#000" fill-rule="evenodd" id="29"/>
    <path d="M375.25,312.95,336,300.1" fill="none" id="30" stroke="#000" stroke-linecap="butt" stroke-linejoin="miter" stroke-miterlimit="4" stroke-width="0.80000001px" style="stroke-dasharray:none;"/>
    <path d="m376.8,311.85-0.65,2.2-41.65-12.85,0.65-2.2,41.65,12.85z" fill="#000" fill-rule="evenodd" id="31"/>
    <path d="m418.15,287.9-37.95,35" fill="none" id="32" stroke="#000" stroke-linecap="butt" stroke-linejoin="miter" stroke-miterlimit="4" stroke-width="0.80000001px" style="stroke-dasharray:none;"/>
    <path d="m418.1,286.3,1.25,0.4,0.2,1.35-40.25,37.35-0.6-2.6,39.4-36.5z" fill="#000" fill-rule="evenodd" id="33"/>
    <path d="m557.6,322.9-37.9-35" fill="none" id="34" stroke="#000" stroke-linecap="butt" stroke-linejoin="miter" stroke-miterlimit="4" stroke-width="0.80000001px" style="stroke-dasharray:none;"/>
    <path d="m559.1,322.8-0.6,2.6-40.2-37.35,0.2-1.35,1.25-0.4,39.35,36.5z" fill="#000" fill-rule="evenodd" id="35"/>
    <path d="M610.2,307.9,560,324.1" fill="none" id="36" stroke="#000" stroke-linecap="butt" stroke-linejoin="miter" stroke-miterlimit="4" stroke-width="0.80000001px" style="stroke-dasharray:none;"/>
    <path d="m610.4,307,1.95,1.8-53.85,16.6,0.6-2.6,51.3-15.8z" fill="#000" fill-rule="evenodd" id="37"/>
    <path d="m601.8,300.1-39.25,12.85" fill="none" id="38" stroke="#000" stroke-linecap="butt" stroke-linejoin="miter" stroke-miterlimit="4" stroke-width="0.80000001px" style="stroke-dasharray:none;"/>
    <path d="m602.65,299,0.7,2.2-41.65,12.85-0.7-2.2,41.65-12.85z" fill="#000" fill-rule="evenodd" id="39"/>
    <path d="M623.65,255.45,611.4,306.7" fill="none" id="40" stroke="#000" stroke-linecap="butt" stroke-linejoin="miter" stroke-miterlimit="4" stroke-width="0.80000001px" style="stroke-dasharray:none;"/>
    <path d="m622.35,254.65,2.55-0.8-12.55,54.95-1.95-1.8,11.95-52.35z" fill="#000" fill-rule="evenodd" id="41"/>
    <path d="m584.5,218,37.95,35.05" fill="none" id="42" stroke="#000" stroke-linecap="butt" stroke-linejoin="miter" stroke-miterlimit="4" stroke-width="0.80000001px" style="stroke-dasharray:none;"/>
    <path d="m583,218.1,0.6-2.55,41.3,38.3-2.55,0.8l-39.35-36.55z" fill="#000" fill-rule="evenodd" id="43"/>
    <path d="M581.95,229.15,611.5,256.4" fill="none" id="44" stroke="#000" stroke-linecap="butt" stroke-linejoin="miter" stroke-miterlimit="4" stroke-width="0.80000001px" style="stroke-dasharray:none;"/>
    <path d="m580,228.8,1.55-1.65,31.95,29.65-1.55,1.65l-31.95-29.65z" fill="#000" fill-rule="evenodd" id="45"/>
    <path d="M531.95,233.05,582.1,216.8" fill="none" id="46" stroke="#000" stroke-linecap="butt" stroke-linejoin="miter" stroke-miterlimit="4" stroke-width="0.80000001px" style="stroke-dasharray:none;"/>
    <path d="m531.7,233.95-0.95-0.9,0.4-1.35,52.45-16.15-0.6,2.55-51.3,15.85z" fill="#000" fill-rule="evenodd" id="47"/>
    <path d="m468.9,364.35,0-52.6" fill="none" id="48" stroke="#000" stroke-linecap="butt" stroke-linejoin="miter" stroke-miterlimit="4" stroke-width="0.80000001px" style="stroke-dasharray:none;"/>
    <path d="m470.05,364.9-2.3,1.3,0-54.95,1.15-0.7,1.15,0.7,0,53.65z" fill="#000" fill-rule="evenodd" id="49"/>
    <path d="m478.8,358.6,0-40.65" fill="none" id="50" stroke="#000" stroke-linecap="butt" stroke-linejoin="miter" stroke-miterlimit="4" stroke-width="0.80000001px" style="stroke-dasharray:none;"/>
    <path d="m477.65,316.75,0,43.05,2.3,0,0-43.05-2.3,0z" fill="#000" fill-rule="evenodd" id="51"/>
    <path d="M515.35,391.85,470.1,366.75" fill="none" id="52" stroke="#000" stroke-linecap="butt" stroke-linejoin="miter" stroke-miterlimit="4" stroke-width="0.80000001px" style="stroke-dasharray:none;"/>
    <path d="m517.7,392.35-2.3,1.35-47.65-27.5,2.3-1.3,47.65,27.45z" fill="#000" fill-rule="evenodd" id="53"/>
    <path d="m516.55,446.8,0-52.55" fill="none" id="54" stroke="#000" stroke-linecap="butt" stroke-linejoin="miter" stroke-miterlimit="4" stroke-width="0.80000001px" style="stroke-dasharray:none;"/>
    <path d="m517.7,447.35-2.3,1.35,0-55,2.3-1.35,0,55z" fill="#000" fill-rule="evenodd" id="55"/>
    <text fill="#000000" font-family="Arial" font-size="38.40000153px" font-style="normal" font-weight="normal" id="56" style="text-anchor:start;text-align:start;" x="550.40002" xml:space="preserve" y="489.60001">N</text>
    <text fill="#000000" font-family="Arial" font-size="38.40000153px" font-style="normal" font-weight="normal" id="57" style="text-anchor:start;text-align:start;" x="578.40002" xml:space="preserve" y="489.60001">H</text>
    <path d="m544.05,463.4-26.3-14.2" fill="none" id="58" stroke="#000" stroke-linecap="butt" stroke-linejoin="miter" stroke-miterlimit="4" stroke-width="0.80000001px" style="stroke-dasharray:none;"/>
    <path d="m545.85,463.6-1.15,2-29.3-16.9,2.3-1.35,28.15,16.25z" fill="#000" fill-rule="evenodd" id="59"/>
    <path d="m564.15,529.3,0-33.2" fill="none" id="60" stroke="#000" stroke-linecap="butt" stroke-linejoin="miter" stroke-miterlimit="4" stroke-width="0.80000001px" style="stroke-dasharray:none;"/>
    <path d="m563,494.9,0,35.6,2.3,0,0-35.6-2.3,0z" fill="#000" fill-rule="evenodd" id="61"/>
  </g>
</svg>