<?xml version="1.0" encoding="iso-8859-1"?>
<!-- Generator: Adobe Illustrator 19.0.0, SVG Export Plug-In . SVG Version: 6.00 Build 0)  -->
<svg version="1.1" id="&#x421;&#x43B;&#x43E;&#x439;_1"
	 xmlns="http://www.w3.org/2000/svg" xmlns:xlink="http://www.w3.org/1999/xlink" x="0px" y="0px" viewBox="0 0 384.293 392.343"
	 style="enable-background:new 0 0 384.293 392.343;" xml:space="preserve" width="384.293" height="392.343">
<g>
	<rect x="162.206" y="219.215" width="33.834" height="2.4"/>
	<path d="M109.812,255.377l20.684-25.938l-1.876-1.497l-20.535,25.75l-52.348-16.147v0l-1.911-0.589l-0.661-0.205l-0.509,0.473
		l-1.466,1.36l0,0l-40.758,37.818l-0.507,0.471l0.154,0.675l12.372,54.206h0l0.445,1.95l0.153,0.676l0.664,0.205l1.911,0.59v0
		l51.219,15.799v0l1.911,0.589l0.661,0.205l0.509-0.473l1.466-1.36l0,0l40.158-37.261l34.012,16.379l1.043-2.162l-34.23-16.484
		L109.812,255.377z M78.798,349.063l-53.717-16.57l-12.509-54.805l40.25-37.347l0.958-0.889l1.249,0.385l0,0l52.468,16.184
		l12.509,54.805L78.798,349.063z"/>
	
		<rect x="218.825" y="284.266" transform="matrix(-0.2225 0.9749 -0.9749 -0.2225 573.7167 113.4065)" width="45.628" height="2.4"/>
	<rect x="55.123" y="255.299" transform="matrix(0.9556 0.2948 -0.2948 0.9556 79.0668 -11.5768)" width="45.628" height="2.4"/>
	<rect x="4.951" y="301.851" transform="matrix(-0.2225 -0.9749 0.9749 -0.2225 -261.5098 397.555)" width="45.628" height="2.4"/>
	<rect x="70.353" y="322.025" transform="matrix(-0.7331 0.6802 -0.6802 -0.7331 381.3115 496.7961)" width="45.628" height="2.4"/>
	<rect x="274.279" y="279.275" transform="matrix(0.393 0.9195 -0.9195 0.393 438.2321 -102.9443)" width="45.628" height="2.4"/>
	<polygon points="318.809,301.848 297.197,251.285 296.411,249.446 296.071,248.644 295.201,248.722 293.209,248.901 
		293.209,248.901 238.475,253.827 203.475,209.938 220.791,179.946 218.712,178.747 201.334,208.847 162.206,208.847 
		162.206,211.247 201.449,211.247 236.641,255.377 224.081,310.406 189.851,326.89 190.894,329.052 225.061,312.598 257.69,332.093 
		258.921,330.032 226.486,310.653 238.915,256.197 294.547,251.191 316.5,302.552 288.687,326.851 290.265,328.659 318.275,304.188 
		373.835,316.869 374.368,314.529 	"/>
	<polygon points="217.973,140.301 220.052,139.102 203.412,110.281 230.866,62.729 230.866,62.729 231.519,61.598 232.826,61.598 
		270.646,61.598 270.646,59.198 232.826,59.198 230.826,59.198 230.134,59.197 229.787,59.798 201.987,107.949 201.987,107.949 
		200.987,109.681 200.641,110.281 200.987,110.88 	"/>
	<rect x="307.533" y="8.239" transform="matrix(0.8663 0.4995 -0.4995 0.8663 53.8807 -150.8509)" width="2.4" height="33.972"/>
	<polygon points="136.646,200.767 136.726,200.767 151.646,223.687 155.806,223.687 155.806,195.127 152.206,195.127 
		152.206,218.287 152.126,218.287 137.086,195.127 133.046,195.127 133.046,223.687 136.646,223.687 	"/>
	<polygon points="238.526,168.404 223.486,145.244 219.446,145.244 219.446,173.804 223.046,173.804 223.046,150.884 
		223.126,150.884 238.046,173.804 242.206,173.804 242.206,145.244 238.606,145.244 238.606,168.404 	"/>
	<polygon points="288.387,157.832 287.733,158.964 286.426,158.964 248.606,158.964 248.606,161.364 286.426,161.364 
		288.426,161.364 289.119,161.365 289.466,160.763 318.266,110.88 318.612,110.281 318.266,109.681 317.266,107.949 
		317.266,107.949 300.541,78.981 298.462,80.18 315.187,109.148 315.187,109.148 315.841,110.281 315.187,111.413 315.187,111.413 
		288.387,157.832 	"/>
	<polygon points="181.006,344.468 180.926,344.468 165.886,321.308 161.846,321.308 161.846,349.868 165.446,349.868 
		165.446,326.948 165.526,326.948 180.446,349.868 184.606,349.868 184.606,321.308 181.006,321.308 	"/>
	<polygon points="180.746,366.148 165.706,366.148 165.706,353.868 161.906,353.868 161.906,382.428 165.706,382.428 
		165.706,369.348 180.746,369.348 180.746,382.428 184.546,382.428 184.546,353.868 180.746,353.868 	"/>
	<path d="M283.189,341.079c-0.867-0.613-1.847-1.1-2.94-1.46s-2.207-0.673-3.34-0.94s-2.247-0.513-3.34-0.74
		c-1.093-0.227-2.073-0.513-2.94-0.86c-0.867-0.347-1.56-0.793-2.08-1.34c-0.52-0.547-0.78-1.26-0.78-2.14
		c0-0.933,0.18-1.713,0.54-2.34c0.36-0.627,0.84-1.127,1.44-1.5c0.6-0.373,1.287-0.64,2.06-0.8c0.773-0.16,1.56-0.24,2.36-0.24
		c1.973,0,3.593,0.46,4.86,1.38c1.267,0.92,2.007,2.407,2.22,4.46h3.6c-0.053-1.573-0.353-2.927-0.9-4.06
		c-0.547-1.133-1.293-2.073-2.24-2.82c-0.947-0.747-2.047-1.293-3.3-1.64c-1.253-0.347-2.613-0.52-4.08-0.52
		c-1.307,0-2.58,0.167-3.82,0.5c-1.24,0.333-2.347,0.84-3.32,1.52c-0.973,0.68-1.753,1.547-2.34,2.6
		c-0.587,1.053-0.88,2.3-0.88,3.74c0,1.307,0.26,2.393,0.78,3.26c0.52,0.867,1.213,1.573,2.08,2.12
		c0.867,0.547,1.847,0.987,2.94,1.32c1.093,0.333,2.207,0.627,3.34,0.88c1.133,0.253,2.247,0.5,3.34,0.74
		c1.093,0.24,2.073,0.553,2.94,0.94c0.867,0.387,1.56,0.887,2.08,1.5c0.52,0.613,0.78,1.413,0.78,2.4c0,1.04-0.213,1.893-0.64,2.56
		c-0.427,0.667-0.987,1.193-1.68,1.58c-0.693,0.387-1.473,0.66-2.34,0.82c-0.867,0.16-1.727,0.24-2.58,0.24
		c-1.067,0-2.107-0.133-3.12-0.4c-1.013-0.267-1.9-0.68-2.66-1.24c-0.76-0.56-1.373-1.273-1.84-2.14c-0.467-0.867-0.7-1.9-0.7-3.1
		h-3.6c0,1.733,0.313,3.233,0.94,4.5c0.627,1.267,1.48,2.307,2.56,3.12c1.08,0.813,2.333,1.42,3.76,1.82
		c1.427,0.4,2.94,0.6,4.54,0.6c1.307,0,2.62-0.153,3.94-0.46c1.32-0.307,2.513-0.8,3.58-1.48c1.067-0.68,1.94-1.56,2.62-2.64
		c0.68-1.08,1.02-2.38,1.02-3.9c0-1.413-0.26-2.587-0.78-3.52C284.749,342.466,284.056,341.693,283.189,341.079z"/>
	<polygon points="280.646,51.118 280.726,51.118 295.646,74.038 299.806,74.038 299.806,45.478 296.206,45.478 296.206,68.638 
		296.126,68.638 281.086,45.478 277.046,45.478 277.046,74.038 280.646,74.038 	"/>
</g>
</svg>
