<?xml version="1.0" encoding="iso-8859-1"?>
<!-- Generator: Adobe Illustrator 19.1.0, SVG Export Plug-In . SVG Version: 6.00 Build 0)  -->
<svg version="1.1" id="&#x421;&#x43B;&#x43E;&#x439;_1"
	 xmlns="http://www.w3.org/2000/svg" xmlns:xlink="http://www.w3.org/1999/xlink" x="0px" y="0px" viewBox="0 0 417.402 374.372"
	 style="enable-background:new 0 0 417.402 374.372;" xml:space="preserve" width="417.402" height="374.372">
<g>
	<rect x="127.016" y="90.674" transform="matrix(-0.866 -0.5 0.5 -0.866 233.7489 245.9801)" width="45.628" height="2"/>
	<rect x="89.557" y="103.081" width="2" height="45.628"/>
	<rect x="148.83" y="137.302" transform="matrix(-0.4996 -0.8663 0.8663 -0.4996 85.9767 369.8983)" width="2" height="45.628"/>
	<polygon points="284.815,79.315 309.699,48.111 308.136,46.863 283.851,77.315 282.913,75.366 282.045,73.564 281.837,73.131 
		281.367,73.024 279.417,72.579 279.417,72.579 277.309,72.098 301.593,41.646 300.03,40.399 275.145,71.604 242.7,64.198 
		242.256,66.148 280.452,74.866 305.026,125.895 290.033,157.029 291.834,157.898 306.765,126.895 346.202,126.895 346.202,124.895 
		306.765,124.895 	"/>
	<path d="M263.877,182.757l-0.444-1.95l-36.717,8.38v0l-1.481,0.338l-44.281-35.312V97.576l28.403-22.651l-1.247-1.563
		l-27.216,21.704l-1.03,0.822l-49.293-28.459l-0.5-0.288l-0.5,0.288l-49.883,28.8l-0.5,0.288v0.579v2v53.6v1.423l-27.711,15.999
		l0.999,1.733l26.48-15.288v0l1.232-0.712l47.652,27.512l1.732,1l0.5,0.288l0.5-0.288l49.293-28.459l1.03,0.822l42.979,34.274
		l-12.549,54.981l-52.578,16.218l0,0l-1.911,0.59l-0.552,0.169l-0.129,0.564l-0.445,1.95h0l-12.372,54.206l-0.128,0.562l0.422,0.393
		l40.758,37.818l0,0l1.466,1.36l0.422,0.393l0.553-0.171l1.911-0.589v0l51.219-15.799v0l1.911-0.59l0.552-0.169l0.129-0.564
		l0.445-1.95h0l12.372-54.206l0.128-0.562l-0.422-0.393l-40.758-37.818l0,0l-1.043-0.968l0.317-1.387h0l12.232-53.593
		L263.877,182.757z M178.955,154.117l-1.232,0.711l0,0l-46.419,26.8v0l-1.232,0.712l-1.232-0.712l-47.651-27.511v-1.423v-53.6
		v-1.423l1.232-0.711l0,0l47.651-27.512l1.232,0.712v0l46.419,26.8l0,0l1.232,0.711V154.117z M252.249,285.314l1.043,0.968
		l-0.317,1.387h0l-12.244,53.643l-52.578,16.218v0l-1.36,0.419l-1.042-0.967l-40.335-37.425l0.317-1.387l12.244-53.643
		l53.938-16.638L252.249,285.314z"/>
	<rect x="228.095" y="174.421" transform="matrix(-0.9749 0.2225 -0.2225 -0.9749 522.7587 291.9423)" width="33.675" height="2"/>
	<rect x="203.417" y="272.953" transform="matrix(-0.7331 -0.6802 0.6802 -0.7331 205.7359 628.6509)" width="45.628" height="2"/>
	<rect x="159.83" y="271.312" transform="matrix(-0.975 -0.2221 0.2221 -0.975 252.331 616.6232)" width="2" height="45.628"/>
	<rect x="210.002" y="317.865" transform="matrix(-0.2947 -0.9556 0.9556 -0.2947 -52.37 642.7042)" width="2" height="45.628"/>
	<polygon points="217.215,52.754 217.391,52.754 232.821,74.805 236.239,74.805 236.239,46.621 232.762,46.621 232.762,68.75 
		232.586,68.75 217.157,46.621 213.739,46.621 213.739,74.805 217.215,74.805 	"/>
	<polygon points="217.254,29.789 232.723,29.789 232.723,42.621 236.239,42.621 236.239,14.438 232.723,14.438 232.723,26.625 
		217.254,26.625 217.254,14.438 213.739,14.438 213.739,42.621 217.254,42.621 	"/>
	<path d="M26.872,172.323c4.023,0,7.246,2.422,8.145,6.113h3.555c-0.898-5.625-5.566-9.355-11.699-9.355
		c-7.715,0-12.695,5.703-12.695,14.551c0,8.926,4.922,14.57,12.695,14.57c6.23,0,10.41-3.105,11.699-8.672h-3.555
		c-1.016,3.438-3.984,5.43-8.125,5.43c-5.566,0-9.101-4.414-9.101-11.328C17.79,176.776,21.365,172.323,26.872,172.323z"/>
	<rect x="43.036" y="168.319" width="3.398" height="29.414"/>
	<polygon points="288.918,185.359 288.742,185.359 273.313,163.23 269.895,163.23 269.895,191.413 273.371,191.413 273.371,169.363 
		273.547,169.363 288.977,191.413 292.395,191.413 292.395,163.23 288.918,163.23 	"/>
	<path d="M363.736,111.1c-7.988,0-12.988,5.625-12.988,14.57s5,14.551,12.988,14.551c7.988,0,12.988-5.605,12.988-14.551
		S371.725,111.1,363.736,111.1z M363.736,136.979c-5.762,0-9.375-4.375-9.375-11.309c0-6.953,3.613-11.328,9.375-11.328
		c5.762,0,9.375,4.375,9.375,11.328C373.111,132.604,369.498,136.979,363.736,136.979z"/>
	<polygon points="399.709,111.569 399.709,123.756 384.24,123.756 384.24,111.569 380.725,111.569 380.725,139.752 384.24,139.752 
		384.24,126.92 399.709,126.92 399.709,139.752 403.225,139.752 403.225,111.569 	"/>
	<path d="M317.058,43.291c7.988,0,12.988-5.605,12.988-14.551c0-8.945-5-14.57-12.988-14.57s-12.988,5.625-12.988,14.57
		C304.069,37.686,309.069,43.291,317.058,43.291z M317.058,17.413c5.762,0,9.375,4.375,9.375,11.328
		c0,6.933-3.613,11.309-9.375,11.309s-9.375-4.375-9.375-11.309C307.683,21.788,311.296,17.413,317.058,17.413z"/>
</g>
</svg>
