<?xml version="1.0" encoding="utf-8"?>
<!-- Generator: Adobe Illustrator 19.2.1, SVG Export Plug-In . SVG Version: 6.00 Build 0)  -->
<svg version="1.1" id="Слой_1" xmlns="http://www.w3.org/2000/svg" xmlns:xlink="http://www.w3.org/1999/xlink" x="0px" y="0px"
	 viewBox="0 0 355 328.1" style="enable-background:new 0 0 355 328.1;" xml:space="preserve" width="355" height="328.1">
<g>
	<rect x="81" y="104.8" transform="matrix(0.2948 -0.9556 0.9556 0.2948 -63.9344 168.5004)" width="2.4" height="45.6"/>
	<rect x="30.8" y="151.3" transform="matrix(0.9749 -0.2225 0.2225 0.9749 -37.9414 11.4895)" width="2.4" height="45.6"/>
	<rect x="74.6" y="193.1" transform="matrix(0.733 -0.6802 0.6802 0.733 -106.1458 118.1267)" width="45.6" height="2.4"/>
	<rect x="256.3" y="171.5" transform="matrix(0.6802 -0.7331 0.7331 0.6802 -60.0575 250.9273)" width="2.4" height="45.6"/>
	<rect x="300.1" y="172.9" transform="matrix(0.2221 -0.975 0.975 0.2221 81.4405 450.3132)" width="45.6" height="2.4"/>
	<rect x="250" y="126.4" transform="matrix(0.9556 -0.2947 0.2947 0.9556 -25.4776 86.0357)" width="45.6" height="2.4"/>
	<path d="M340.8,147.9l-0.5-0.5l-40.8-37.8l0,0l-1.5-1.4l-0.5-0.5l-0.7,0.2l-54.3,16.7l-35.4-44.4l-0.4-0.5h-0.6h-2h-49.1L138.4,45
		l-2.2,1l16.3,33.9h-1.8h-2l-0.6,0l-0.4,0.5l-1.2,1.6l0,0l-1.1,1.4L129,49.5l-2.2,1l16.8,34.9l-31.3,39.3L60,108.6v0l-1.9-0.6
		l-0.7-0.2l-0.5,0.5l-1.5,1.4l0,0l-40.8,37.8l-0.5,0.5l0.2,0.7l12.4,54.2l0,0l0.4,1.9l0.2,0.7l0.7,0.2L81.1,222l0,0l1.9,0.6l0.7,0.2
		l0.5-0.5l41.6-38.6l34.8,16.7l1-2.2l-35-16.9l-12.6-55l34.3-43l0,0l0.9-1.1h1.4h53.6h1.4l0.9,1.1l0,0l34.3,43l-12.6,55l-35,16.9
		l1,2.2l34.8-16.7l40.2,37.3l0,0l1.5,1.4l0.5,0.5l0.7-0.2l1.9-0.6v0l53.1-16.4l0.7-0.2l0.2-0.7l0.4-1.9h0l12.4-54.2L340.8,147.9z
		 M29.3,203.6L17.1,150l0,0l-0.3-1.3l40.3-37.3l0,0l1-0.9l1.2,0.4l0,0l52.5,16.2l12.5,54.8L84,219.2l0,0l-1,0.9l-1.2-0.4v0
		L29.3,203.6z M325.9,202.3l-0.3,1.3l-53.7,16.6l-41.2-38.2l12.5-54.8l53.7-16.6l40.2,37.3l0,0l1,0.9L325.9,202.3L325.9,202.3z"/>
	<polygon points="170.2,198.8 184.6,221.1 188.5,221.1 188.5,192.5 184.9,192.5 184.9,214.8 184.8,214.8 170.4,192.5 166.5,192.5 
		166.5,221.1 170.1,221.1 170.1,198.8 	"/>
	<polygon points="178.7,262.9 178.7,227.1 176.3,227.1 176.3,258.2 142,278 143.2,280.1 176.3,261 176.3,262.9 176.3,264.9 
		176.3,265.6 176.9,265.9 178.6,266.9 178.6,266.9 180.3,267.9 147.2,287 148.4,289.1 182.7,269.3 210.6,285.4 211.8,283.3 
		178.7,264.2 	"/>
	<polygon points="234.7,301.2 234.7,301.2 220.3,278.9 216.4,278.9 216.4,307.5 220,307.5 220,285.2 220.1,285.2 234.5,307.5 
		238.3,307.5 238.3,278.9 234.7,278.9 	"/>
	<polygon points="260.2,290.6 246.1,290.6 246.1,278.9 242.3,278.9 242.3,307.5 246.1,307.5 246.1,294 260.2,294 260.2,307.5 
		264,307.5 264,278.9 260.2,278.9 	"/>
	<path d="M272.6,310.1c0.4-0.4,1-1,1.7-1.6l1.9-1.5c1.7-1.4,3-2.7,3.8-3.9s1.3-2.5,1.3-3.7c0-1-0.3-1.9-0.8-2.8
		c-0.5-0.8-1.2-1.5-2.2-2s-2-0.7-3.3-0.7c-1.2,0-2.3,0.2-3.3,0.7s-1.7,1.1-2.2,2c-0.6,0.9-0.9,1.9-1,3l2.6,0.4
		c0.1-1.3,0.5-2.3,1.1-3c0.7-0.7,1.6-1,2.8-1c0.7,0,1.4,0.1,1.9,0.4s1,0.7,1.4,1.2s0.5,1.1,0.5,1.8c0,0.9-0.4,1.9-1.1,2.9
		s-1.8,2.1-3.3,3.4l-1.6,1.3c-1.6,1.3-2.8,2.5-3.5,3.6s-1.2,2.2-1.2,3.4h13.3v-2.4h-9.9C271.7,311,272.1,310.5,272.6,310.1z"/>
	<path d="M134.6,280.5c-2.1-1.2-4.4-1.8-7-1.8c-2.6,0-5,0.6-7,1.8c-2.1,1.2-3.7,3-4.9,5.2c-1.2,2.3-1.8,4.9-1.8,7.8
		c0,2.9,0.6,5.5,1.8,7.7c1.2,2.2,2.8,4,4.9,5.2c2.1,1.2,4.4,1.9,7.1,1.9c2.6,0,4.9-0.6,7-1.8c2.1-1.2,3.7-2.9,4.9-5.2
		c1.2-2.2,1.8-4.8,1.8-7.8c0-3-0.6-5.6-1.8-7.8C138.3,283.4,136.7,281.7,134.6,280.5z M136.1,299.7c-0.8,1.7-2,3.1-3.5,4
		c-1.5,0.9-3.2,1.4-5.1,1.4c-1.9,0-3.6-0.5-5-1.4c-1.5-0.9-2.6-2.2-3.5-4c-0.8-1.7-1.3-3.8-1.3-6.1c0-2.4,0.4-4.5,1.2-6.3
		c0.8-1.8,2-3.1,3.4-4c1.5-0.9,3.2-1.4,5.1-1.4c1.9,0,3.6,0.5,5.1,1.4c1.5,0.9,2.6,2.3,3.4,4c0.8,1.8,1.2,3.8,1.2,6.2
		C137.4,295.9,137,297.9,136.1,299.7z"/>
	<path d="M116.7,41.9c2.1,1.2,4.4,1.9,7.1,1.9c2.6,0,4.9-0.6,7-1.8c2.1-1.2,3.7-2.9,4.9-5.2c1.2-2.2,1.8-4.8,1.8-7.8
		c0-3-0.6-5.6-1.8-7.8c-1.2-2.2-2.8-4-4.9-5.2c-2.1-1.2-4.4-1.8-7-1.8s-5,0.6-7,1.8c-2.1,1.2-3.7,3-4.9,5.2
		c-1.2,2.3-1.8,4.9-1.8,7.8c0,2.9,0.6,5.5,1.8,7.7C112.9,38.9,114.6,40.7,116.7,41.9z M115.1,22.8c0.8-1.8,2-3.1,3.4-4
		c1.5-0.9,3.2-1.4,5.1-1.4c1.9,0,3.6,0.5,5.1,1.4c1.5,0.9,2.6,2.3,3.4,4s1.2,3.8,1.2,6.2c0,2.4-0.4,4.4-1.2,6.2
		c-0.8,1.7-2,3.1-3.5,4c-1.5,0.9-3.2,1.4-5.1,1.4c-1.9,0-3.6-0.5-5-1.4c-1.5-0.9-2.6-2.2-3.5-4c-0.8-1.7-1.2-3.8-1.2-6.1
		C113.9,26.7,114.3,24.6,115.1,22.8z"/>
</g>
</svg>
