<?xml version="1.0" encoding="iso-8859-1"?>
<!-- Generator: Adobe Illustrator 19.1.0, SVG Export Plug-In . SVG Version: 6.00 Build 0)  -->
<svg version="1.1" id="&#x421;&#x43B;&#x43E;&#x439;_1"
	 xmlns="http://www.w3.org/2000/svg" xmlns:xlink="http://www.w3.org/1999/xlink" x="0px" y="0px" viewBox="0 0 763.568 392.06"
	 style="enable-background:new 0 0 763.568 392.06;" xml:space="preserve" width="763.568" height="392.06">
<g>
	<rect x="557.829" y="121.351" width="2.4" height="45.628"/>
	<polygon points="599.677,199.725 599.677,199.725 598.544,200.379 549.861,172.272 549.861,170.965 549.861,117.365 
		549.861,116.058 582.351,97.299 581.152,95.22 548.661,113.979 499.378,85.525 498.179,87.604 547.461,116.058 547.461,117.365 
		547.461,170.965 547.461,172.272 498.778,200.379 449.494,171.925 448.895,171.579 448.296,171.925 415.205,191.03 
		416.404,193.109 448.895,174.35 496.447,201.804 496.447,201.804 498.179,202.804 498.778,203.15 499.378,202.804 501.11,201.804 
		501.11,201.804 548.661,174.35 592.16,199.465 592.16,238.17 594.56,238.17 594.56,200.85 596.213,201.804 596.213,201.804 
		597.945,202.804 598.544,203.15 599.144,202.804 600.876,201.804 600.876,201.804 602.528,200.85 602.528,238.17 604.928,238.17 
		604.928,199.465 632.234,183.699 631.035,181.62 	"/>
	
		<rect x="622.906" y="97.183" transform="matrix(-0.4996 0.8663 -0.8663 -0.4996 1034.0315 -370.7561)" width="2.4" height="32.224"/>
	<path d="M397.812,257.365v1.307l-47.55,27.453l0,0l-1.133,0.654l-1.133-0.654l0,0l-47.55-27.453v-54.907v-1.307l48.683-28.107
		l32.491,18.759l1.199-2.079l-33.091-19.105l-0.599-0.346l-0.6,0.346l-49.883,28.8l-0.601,0.345v0.694v2v54.907l-47.55,27.453l0,0
		l-1.27,0.733l-53.764-17.469l-22.397-50.305l0,0l-0.814-1.827l-0.281-0.632l-0.688-0.073l-1.989-0.209v0l-53.306-5.603v0
		l-1.989-0.209l-0.689-0.074l-0.409,0.562l-33.45,46.039l-42.733-4.491l-0.254,2.386l41.434,4.355v0l1.301,0.137l23.146,51.987
		l0.281,0.632l0.688,0.073l1.989,0.209v0l53.306,5.603v0l1.459,0.153l21.168,29.135l1.941-1.412l-20.968-28.86l0.663-0.912l0,0
		l32.169-44.276l53.122,17.261v1.128v34.64h2.4v-34.64v-1.307l1.132-0.653l0,0l47.552-27.454l47.552,27.454l0,0l1.732,1l0.6,0.346
		l0.599-0.346l1.732-1l0,0l48.151-27.8l0.601-0.345v-0.694v-2v-35.577h-2.4V257.365z M104.256,309.823l-22.864-51.354l32.273-44.42
		l0,0l0.769-1.058l1.299,0.137v0l53.306,5.603v0l1.301,0.137l0.532,1.194l0,0l21.801,48.966l0,0l0.532,1.194l-0.768,1.057l0,0
		l-32.274,44.422l-1.299-0.137v0L104.256,309.823z M299.246,259.365L299.246,259.365L299.246,259.365L299.246,259.365z"/>
	<rect x="237.795" y="294.151" width="2.4" height="30.653"/>
	<rect x="221.076" y="344.314" transform="matrix(-0.3093 -0.951 0.951 -0.3093 -46.1565 675.6069)" width="2.4" height="20.504"/>
	<rect x="150.582" y="247.072" transform="matrix(0.4067 0.9135 -0.9135 0.4067 329.6762 -11.1156)" width="45.628" height="2.4"/>
	<rect x="82.515" y="239.918" transform="matrix(0.5878 -0.809 0.809 0.5878 -151.6504 184.6055)" width="45.628" height="2.4"/>
	<polygon points="110.351,302.452 155.729,307.221 155.983,304.834 110.605,300.065 	"/>
	<polygon points="590.771,78.137 590.947,78.137 606.376,100.188 609.794,100.188 609.794,72.004 606.318,72.004 606.318,94.133 
		606.142,94.133 590.712,72.004 587.294,72.004 587.294,100.188 590.771,100.188 	"/>
	<polygon points="656.201,180.533 656.025,180.533 640.595,158.404 637.177,158.404 637.177,186.588 640.654,186.588 
		640.654,164.537 640.83,164.537 656.259,186.588 659.677,186.588 659.677,158.404 656.201,158.404 	"/>
	<path d="M748.793,114.325L699.51,85.872V47.807h-2.4v38.065l-48.683,28.107L615.936,95.22l-1.199,2.079l32.49,18.758v35.947h2.4
		v-35.947L698.31,87.95l48.683,28.107v1.307v53.6v1.307l-47.551,27.453l0,0l-1.133,0.654l-32.491-18.759l-1.199,2.079l31.358,18.105
		l0,0l1.732,1l0.599,0.346l0.599-0.346l1.732-1l0,0l48.151-27.8l0.6-0.345v-0.694v-2v-53.6v-2l0.001-0.693L748.793,114.325z
		 M698.31,86.565L698.31,86.565L698.31,86.565L698.31,86.565z"/>
	<path d="M598.544,244.57c-7.988,0-12.988,5.625-12.988,14.57c0,8.945,5,14.551,12.988,14.551c7.988,0,12.988-5.605,12.988-14.551
		C611.533,250.195,606.532,244.57,598.544,244.57z M598.544,270.449c-5.762,0-9.375-4.375-9.375-11.309
		c0-6.953,3.613-11.328,9.375-11.328c5.762,0,9.375,4.375,9.375,11.328C607.919,266.074,604.306,270.449,598.544,270.449z"/>
	<polygon points="406.785,209.333 406.61,209.333 391.18,187.204 387.762,187.204 387.762,215.388 391.238,215.388 391.238,193.337 
		391.414,193.337 406.844,215.388 410.262,215.388 410.262,187.204 406.785,187.204 	"/>
	<polygon points="257.136,353.333 256.96,353.333 241.531,331.204 238.113,331.204 238.113,359.388 241.589,359.388 
		241.589,337.337 241.765,337.337 257.195,359.388 260.613,359.388 260.613,331.204 257.136,331.204 	"/>
	<path d="M194.582,348.769c-7.988,0-12.988,5.625-12.988,14.57s5,14.551,12.988,14.551s12.988-5.605,12.988-14.551
		S202.57,348.769,194.582,348.769z M194.582,374.648c-5.762,0-9.375-4.375-9.375-11.309c0-6.953,3.613-11.328,9.375-11.328
		s9.375,4.375,9.375,11.328C203.957,370.273,200.344,374.648,194.582,374.648z"/>
	<polygon points="14.174,265.926 17.69,265.926 17.69,253.719 30.17,253.719 30.17,250.594 17.69,250.594 17.69,240.906 
		31.283,240.906 31.283,237.742 14.174,237.742 	"/>
	<path d="M698.31,43.291c7.988,0,12.988-5.605,12.988-14.551s-5-14.57-12.988-14.57c-7.988,0-12.988,5.625-12.988,14.57
		S690.322,43.291,698.31,43.291z M698.31,17.412c5.762,0,9.375,4.375,9.375,11.328c0,6.934-3.613,11.309-9.375,11.309
		c-5.762,0-9.375-4.375-9.375-11.309C688.935,21.787,692.549,17.412,698.31,17.412z"/>
	<polygon points="718.814,29.99 734.283,29.99 734.283,42.822 737.799,42.822 737.799,14.638 734.283,14.638 734.283,26.826 
		718.814,26.826 718.814,14.638 715.299,14.638 715.299,42.822 718.814,42.822 	"/>
</g>
</svg>
