<?xml version="1.0" encoding="utf-8"?>
<!-- Generator: Adobe Illustrator 28.0.0, SVG Export Plug-In . SVG Version: 6.00 Build 0)  -->
<svg version="1.1" id="Слой_1" xmlns="http://www.w3.org/2000/svg" xmlns:xlink="http://www.w3.org/1999/xlink" x="0px" y="0px"
	 viewBox="0 0 468.8 435.2" style="enable-background:new 0 0 468.8 435.2;" xml:space="preserve" width="468.8" height="435.2">
<g>
	<rect x="113.5" y="182.8" width="2.4" height="45.6"/>
	<rect x="151.1" y="238.6" transform="matrix(0.8661 -0.4998 0.4998 0.8661 -96.581 119.0295)" width="45.6" height="2.4"/>
	<rect x="172.7" y="148.6" transform="matrix(0.5001 -0.866 0.866 0.5001 -61.4988 236.2922)" width="2.4" height="45.6"/>
	<polygon points="36,235.6 37.9,234.2 17.1,205.6 38.1,176.7 36.2,175.3 15.8,203.3 15.8,203.3 14.2,205.6 15.8,207.9 15.8,207.9 	
		"/>
	<path d="M235.6,157.2l-31.6,18.2L155,147.1l-0.8-0.5l-0.7,0.4l-49.3,28.5l-34.6-11.2l-0.7,2.3l34.3,11.1v55.9l-34.2,11.1l0.7,2.3
		l34.5-11.2l49.4,28.5l0,0l0.6,0.3l0.6-0.3l0,0l48.2-27.8l0,0l2.3-1.3v-0.7v-2v-54.9l31.6-18.2L235.6,157.2z M202.9,233.7
		l-47.6,27.5l0,0l-1.1,0.7l-1.1-0.7l0,0l-47.6-27.5v-56.2l47.6-27.5l0,0l1.1-0.6l1.1,0.6l0,0l47.6,27.5v54.9V233.7z"/>
	<rect x="286.6" y="149" transform="matrix(0.5003 -0.8658 0.8658 0.5003 -1.2691 332.8681)" width="2.4" height="37.1"/>
	<polygon points="312.8,166 317.7,174.5 319.7,173.1 315,164.9 	"/>
	<polygon points="321.5,161.9 325.6,169 327.6,167.6 323.7,160.9 	"/>
	<polygon points="330.2,157.8 333.5,163.5 335.5,162.1 332.4,156.7 	"/>
	<polygon points="304.1,170.1 309.8,180 311.8,178.6 306.3,169.1 	"/>
	<polygon points="338.9,153.7 341.5,158 343.4,156.6 341.1,152.6 	"/>
	<polygon points="347.7,149.5 349.4,152.5 351.3,151.1 349.9,148.5 	"/>
	<rect x="362.9" y="269.2" width="2.4" height="45.6"/>
	<polygon points="403,336.6 404.2,338.7 443.7,315.9 442.5,313.8 	"/>
	<polygon points="403,247.5 442.5,270.3 443.7,268.2 404.2,245.4 	"/>
	<path d="M56.5,145.8c-3.1-1.8-7-1.8-7-1.8c-3.9,0-7,1.8-7,1.8c-3.1,1.8-4.9,5.2-4.9,5.2c-1.8,3.4-1.8,7.8-1.8,7.8
		c0,4.3,1.8,7.7,1.8,7.7c1.8,3.4,4.9,5.2,4.9,5.2c3.1,1.8,7,1.8,7,1.8c3.9,0,7-1.8,7-1.8c3.1-1.8,4.9-5.2,4.9-5.2
		c1.8-3.4,1.8-7.8,1.8-7.8c0-4.5-1.8-7.8-1.8-7.8C59.7,147.6,56.5,145.8,56.5,145.8z M58.1,165c-1.3,2.6-3.5,4-3.5,4
		c-2.2,1.4-5.1,1.4-5.1,1.4c-2.8,0-5-1.4-5-1.4c-2.2-1.4-3.5-4-3.5-4c-1.2-2.6-1.2-6.1-1.2-6.1c0-3.6,1.2-6.3,1.2-6.3
		c1.2-2.6,3.4-4,3.4-4c2.2-1.4,5.1-1.4,5.1-1.4c2.9,0,5.1,1.4,5.1,1.4c2.2,1.4,3.4,4,3.4,4c1.2,2.6,1.2,6.2,1.2,6.2
		C59.3,162.4,58.1,165,58.1,165z"/>
	<path d="M56.5,239c-3.1-1.8-7-1.8-7-1.8c-3.9,0-7,1.8-7,1.8c-3.1,1.8-4.9,5.2-4.9,5.2c-1.8,3.4-1.8,7.8-1.8,7.8
		c0,4.3,1.8,7.7,1.8,7.7c1.8,3.4,4.9,5.2,4.9,5.2c3.1,1.8,7,1.8,7,1.8c3.9,0,7-1.8,7-1.8c3.1-1.8,4.9-5.2,4.9-5.2
		c1.8-3.4,1.8-7.8,1.8-7.8c0-4.5-1.8-7.8-1.8-7.8C59.7,240.8,56.5,239,56.5,239z M58.1,258.2c-1.3,2.6-3.5,4-3.5,4
		c-2.2,1.4-5.1,1.4-5.1,1.4c-2.8,0-5-1.4-5-1.4c-2.2-1.4-3.5-4-3.5-4c-1.2-2.6-1.2-6.1-1.2-6.1c0-3.6,1.2-6.3,1.2-6.3
		c1.2-2.6,3.4-4,3.4-4c2.2-1.4,5.1-1.4,5.1-1.4c2.9,0,5.1,1.4,5.1,1.4c2.2,1.4,3.4,4,3.4,4c1.2,2.6,1.2,6.2,1.2,6.2
		C59.3,255.6,58.1,258.2,58.1,258.2z"/>
	<path d="M261,134.8c-3.1-1.8-7-1.8-7-1.8c-3.9,0-7,1.8-7,1.8c-3.2,1.8-4.9,5.2-4.9,5.2c-1.8,3.4-1.8,7.8-1.8,7.8
		c0,4.3,1.8,7.7,1.8,7.7c1.8,3.4,4.9,5.2,4.9,5.2c3.1,1.8,7,1.8,7,1.8c3.9,0,7-1.8,7-1.8c3.1-1.8,4.9-5.2,4.9-5.2
		c1.8-3.4,1.8-7.8,1.8-7.8c0-4.5-1.8-7.8-1.8-7.8C264.1,136.6,261,134.8,261,134.8z M262.5,154c-1.2,2.6-3.4,4-3.4,4
		c-2.2,1.4-5.1,1.4-5.1,1.4c-2.8,0-5-1.4-5-1.4c-2.2-1.4-3.5-4-3.5-4c-1.2-2.6-1.2-6.1-1.2-6.1c0-3.6,1.2-6.3,1.2-6.3
		c1.2-2.6,3.4-4,3.4-4c2.2-1.4,5.1-1.4,5.1-1.4c2.9,0,5.1,1.4,5.1,1.4c2.2,1.4,3.4,4,3.4,4c1.2,2.6,1.2,6.2,1.2,6.2
		C263.7,151.4,262.5,154,262.5,154z"/>
	<path d="M454.1,89.4L454.1,89.4l-0.5-0.3l-1.2-0.7l0,0l-31.6-18.3l-1.2,2.1l32.8,18.9v1.3V146v1.3l-48.7,28.1L356,148l0,0l-1.2-0.7
		V146V92.4v-1.3l1.2-0.7l0,0l31.6-18.3l-1.2-2.1l-33.4,19.3l0,0l-0.6,0.3v0.7v2V146v2v0.7l0.6,0.3l0,0l49.2,28.4l-4.9,59.1
		l-44.3,25.6l0,0l-0.6,0.3v0.7v2v53.6v2v0.7l0.6,0.3l0,0l49.3,28.5V386h2.4v-35.7l47.6-27.5l0,0l2.3-1.3v-0.7v-2v-53.6v-2v-0.7
		l-2.3-1.3l0,0l-42.6-24.6l-4.9-59.1l47.5-27.4l0,0l1.3-0.7l0.4-0.3l0,0l0.6-0.3V148v-2V92.4v-2v-0.7L454.1,89.4z M403.6,234.4
		L403.6,234.4L403.6,234.4L403.6,234.4z M452.3,318.8v1.3l-48.7,28.1L356,320.8l0,0l-1.2-0.7v-1.3v-53.6v-1.3l1.2-0.7l0,0l47.5-27.4
		l48.7,28.1v1.3V318.8z"/>
	<polygon points="396.2,53.1 396.3,53.1 410.7,75.5 414.6,75.5 414.6,46.8 411,46.8 411,69.1 410.9,69.1 396.5,46.8 392.6,46.8 
		392.6,75.5 396.2,75.5 	"/>
	<polygon points="396.6,29.3 410.6,29.3 410.6,42.8 414.4,42.8 414.4,14.2 410.6,14.2 410.6,25.9 396.6,25.9 396.6,14.2 392.7,14.2 
		392.7,42.8 396.6,42.8 	"/>
	<polygon points="394.5,421.1 398.3,421.1 398.3,408.1 411.2,408.1 411.2,404.7 398.3,404.7 398.3,395.8 412.7,395.8 412.7,392.4 
		394.5,392.4 	"/>
</g>
</svg>
