<?xml version="1.0" encoding="iso-8859-1"?>
<!-- Generator: Adobe Illustrator 19.1.0, SVG Export Plug-In . SVG Version: 6.00 Build 0)  -->
<svg version="1.1" id="&#x421;&#x43B;&#x43E;&#x439;_1"
	 xmlns="http://www.w3.org/2000/svg" xmlns:xlink="http://www.w3.org/1999/xlink" x="0px" y="0px" viewBox="0 0 768.869 369.836"
	 style="enable-background:new 0 0 768.869 369.836;" xml:space="preserve" width="768.869" height="369.836">
<g>
	<rect x="173.334" y="271.92" width="2.4" height="30.653"/>
	<rect x="155.825" y="321.509" transform="matrix(-0.3093 -0.951 0.951 -0.3093 -110.7017 584.777)" width="2.4" height="22.166"/>
	<rect x="86.121" y="224.842" transform="matrix(-0.4067 -0.9135 0.9135 -0.4067 -53.2565 417.4988)" width="45.628" height="2.4"/>
	<rect x="18.054" y="217.688" transform="matrix(0.5878 -0.809 0.809 0.5878 -160.2374 123.2921)" width="45.628" height="2.4"/>
	<polygon points="45.891,280.222 91.269,284.991 91.522,282.604 46.144,277.835 	"/>
	<polygon points="333.351,199.558 333.351,236.442 332.22,237.095 285.801,263.895 284.668,264.549 283.536,263.895 252.177,245.79 
		250.978,247.869 282.337,265.974 284.069,266.974 284.668,267.32 285.268,266.974 335.151,238.174 335.751,237.829 
		335.751,237.135 335.751,235.135 335.751,199.558 	"/>
	<polygon points="235.985,181.535 235.985,180.228 237.117,179.574 283.536,152.774 284.668,152.12 285.801,152.774 
		317.159,170.879 318.358,168.8 287,150.695 285.268,149.695 284.668,149.35 284.069,149.695 282.337,150.695 234.186,178.495 
		233.585,178.84 233.585,179.535 233.585,181.535 233.585,216.174 235.985,216.174 	"/>
	<path d="M184.765,264.628l-1.394-0.453L131,247.159l-23.211-52.132l-0.281-0.632l-0.688-0.073l-57.284-6.021l-0.689-0.074
		l-0.409,0.562l-32.681,44.981l-1.176,1.618l-0.408,0.559l0.282,0.635l0.813,1.827l21.801,48.966h0l0.813,1.827l0.281,0.632
		l0.688,0.073l55.295,5.812v0l1.459,0.153l22.517,30.992l1.941-1.412l-22.318-30.718l32.168-44.276l0.664-0.913l52.049,16.912
		l1.073,0.349v1.128v34.639h2.4v-34.639v-1.307l32.49-18.758l-1.199-2.079L184.765,264.628z M127.975,249.047L96.47,292.411
		l-0.769,1.058l-1.299-0.137v0l-54.608-5.74l-22.333-50.16l0,0l-0.532-1.194l0.768-1.057l0,0l32.274-44.421l54.605,5.739v0
		l1.301,0.137l0.532,1.194l21.801,48.966l0,0l0.532,1.194L127.975,249.047L127.975,249.047z"/>
	<polygon points="566.575,159.391 535.216,177.495 534.083,178.149 532.951,177.495 486.532,150.695 486.532,150.695 484.8,149.695 
		484.201,149.35 483.601,149.695 481.869,150.695 481.869,150.695 434.318,178.149 386.766,150.695 386.766,150.695 
		385.034,149.695 384.434,149.35 383.835,149.695 382.103,150.695 382.103,150.695 350.744,168.8 351.943,170.879 383.302,152.774 
		384.434,152.121 385.567,152.774 433.718,180.574 434.318,180.92 434.917,180.574 483.068,152.775 484.201,152.121 
		531.752,179.574 531.752,179.575 533.484,180.574 534.083,180.92 534.683,180.574 536.415,179.575 536.415,179.575 567.774,161.47 
			"/>
	<polygon points="242.558,244.703 242.383,244.703 226.953,222.574 223.535,222.574 223.535,250.758 227.012,250.758 
		227.012,228.707 227.187,228.707 242.617,250.758 246.035,250.758 246.035,222.574 242.558,222.574 	"/>
	<polygon points="192.675,331.103 192.5,331.103 177.07,308.974 173.652,308.974 173.652,337.158 177.128,337.158 177.128,315.107 
		177.304,315.107 192.734,337.158 196.152,337.158 196.152,308.974 192.675,308.974 	"/>
	<path d="M132.416,339.527l-2.949-0.781c-3.828-0.996-5.391-2.266-5.391-4.395c0-2.754,2.539-4.648,6.191-4.648
		c3.672,0,6.113,1.855,6.426,4.883h3.516c-0.156-4.726-4.219-8.047-9.824-8.047c-5.859,0-9.961,3.281-9.961,7.969
		c0,3.828,2.305,6.113,7.5,7.441l3.613,0.938c3.789,0.977,5.449,2.441,5.449,4.824c0,2.774-2.773,4.785-6.582,4.785
		c-4.024,0-6.914-2.012-7.246-5.059h-3.535c0.332,4.98,4.473,8.223,10.449,8.223c6.484,0,10.547-3.223,10.547-8.379
		C140.619,343.238,138.256,340.992,132.416,339.527z"/>
	<polygon points="342.325,187.103 342.149,187.103 326.719,164.974 323.301,164.974 323.301,193.158 326.778,193.158 
		326.778,171.107 326.954,171.107 342.383,193.158 345.801,193.158 345.801,164.974 342.325,164.974 	"/>
	<polygon points="591.74,158.303 591.564,158.303 576.135,136.175 572.717,136.175 572.717,164.358 576.193,164.358 
		576.193,142.307 576.369,142.307 591.799,164.358 595.217,164.358 595.217,136.175 591.74,136.175 	"/>
	<path d="M537.368,73.605c7.988,0,12.988-5.605,12.988-14.551c0-8.945-5-14.57-12.988-14.57c-7.988,0-12.988,5.625-12.988,14.57
		C524.38,67.999,529.38,73.605,537.368,73.605z M537.368,47.726c5.762,0,9.375,4.375,9.375,11.328
		c0,6.934-3.613,11.309-9.375,11.309c-5.762,0-9.375-4.375-9.375-11.309C527.993,52.101,531.606,47.726,537.368,47.726z"/>
	<path d="M656.547,208.521c-7.988,0-12.988,5.625-12.988,14.57c0,8.945,5,14.551,12.988,14.551c7.988,0,12.988-5.605,12.988-14.551
		C669.535,214.146,664.535,208.521,656.547,208.521z M656.547,234.4c-5.762,0-9.375-4.375-9.375-11.309
		c0-6.953,3.613-11.328,9.375-11.328c5.762,0,9.375,4.375,9.375,11.328C665.922,230.025,662.308,234.4,656.547,234.4z"/>
	<path d="M754.287,62.589l-1.175-1.618l0,0l-32.68-44.982l-0.407-0.561l-0.691,0.073l-1.989,0.209v0l-53.306,5.602v0l-1.989,0.209
		l-0.688,0.073l-0.281,0.632l-22.393,50.295l-14.31-29.218l-11.65,8.464L636.5,74.804l-46.229,15.02l-34.414-25.004l-1.412,1.941
		l33.005,23.98l-1.953,0.634l-1.902,0.618l-0.829,0.268v0.873l0,4.052l-33.004-23.979l-1.412,1.941l34.416,25.005l0,29.62h2.4
		l0-34.639v-1.128l1.073-0.349l52.049-16.912l32.831,45.189l-32.168,44.275l0,0l-0.664,0.913l-1.073-0.349l0,0l-35.542-11.549
		l-0.742,2.282l30.769,9.998l11.989,36.9l2.282-0.742l-11.45-35.241l3.854,1.252l0.828,0.271l0.514-0.706l2.383-3.279l11.45,35.242
		l2.282-0.742l-11.989-36.9l28.564-39.315l13.887,28.782l11.65-8.464l-22.666-21.704l54.737-5.753l0.688-0.073l0.281-0.632
		l22.615-50.793l0.813-1.827l0.283-0.632L754.287,62.589z M638.748,75.336L638.748,75.336L638.748,75.336L638.748,75.336z
		 M751.407,64.634L729.606,113.6l0,0l-0.532,1.194l-55.907,5.876l-33.042-45.478l22.333-50.16l0.532-1.194l1.301-0.137v0
		l53.306-5.602v0l1.299-0.137l0.769,1.058h0l31.505,43.363l0.768,1.057L751.407,64.634z"/>
	<polygon points="597.157,29.528 612.626,29.528 612.626,42.36 616.142,42.36 616.142,14.176 612.626,14.176 612.626,26.364 
		597.157,26.364 597.157,14.176 593.642,14.176 593.642,42.36 597.157,42.36 	"/>
	<polygon points="714.195,166.162 698.726,166.162 698.726,153.975 695.21,153.975 695.21,182.158 698.726,182.158 698.726,169.326 
		714.195,169.326 714.195,182.158 717.71,182.158 717.71,153.975 714.195,153.975 	"/>
</g>
</svg>
