<?xml version="1.0" encoding="iso-8859-1"?>
<!-- Generator: Adobe Illustrator 19.1.0, SVG Export Plug-In . SVG Version: 6.00 Build 0)  -->
<svg version="1.1" id="&#x421;&#x43B;&#x43E;&#x439;_1"
	 xmlns="http://www.w3.org/2000/svg" xmlns:xlink="http://www.w3.org/1999/xlink" x="0px" y="0px" viewBox="0 0 632.409 431.858"
	 style="enable-background:new 0 0 632.409 431.858;" xml:space="preserve" width="632.409" height="431.858">
<g>
	<rect x="367.642" y="63.749" width="2.4" height="45.628"/>
	<rect x="286.755" y="119.585" transform="matrix(0.866 0.5 -0.5 0.866 101.8668 -138.6027)" width="45.628" height="2.4"/>
	<rect x="308.369" y="29.528" transform="matrix(0.4996 0.8663 -0.8663 0.4996 200.2628 -241.9789)" width="2.4" height="45.628"/>
	<rect x="148.352" y="97.971" transform="matrix(-0.4996 -0.8663 0.8663 -0.4996 119.6301 310.6778)" width="2.4" height="45.628"/>
	<rect x="89.08" y="63.749" width="2.4" height="45.628"/>
	<rect x="126.738" y="51.142" transform="matrix(-0.866 -0.5 0.5 -0.866 252.8968 172.4485)" width="45.628" height="2.4"/>
	<polygon points="380.343,401.324 380.342,401.324 379.21,401.978 378.077,401.324 378.077,401.324 331.658,374.524 
		330.527,373.871 330.527,372.564 330.527,336.987 328.127,336.987 328.127,372.564 328.127,374.564 328.126,375.256 
		328.727,375.603 330.459,376.603 376.878,403.403 378.61,404.403 379.21,404.749 379.809,404.403 412.9,385.298 411.701,383.219 	
		"/>
	<polygon points="379.21,286.778 378.61,287.124 376.878,288.124 345.52,306.229 346.719,308.308 379.21,289.549 426.761,317.003 
		426.761,317.003 427.893,317.656 427.893,318.964 427.893,353.603 430.293,353.603 430.293,318.964 430.293,316.964 
		430.294,316.271 429.692,315.924 427.96,314.924 427.96,314.924 379.809,287.124 	"/>
	<path d="M278.244,58.456v56.214l-32.49,18.758l1.199,2.079l31.359-18.105l1.133-0.654l49.284,28.454l0.599,0.346l0.599-0.346
		l1.732-1l48.151-27.8l0.6-0.345v-0.694v-2v-53.6v-2l0.001-0.693l-0.602-0.347l-49.883-28.8l-0.599-0.346l-0.599,0.346
		l-49.284,28.454l-34.387-19.853l-1.199,2.079l33.254,19.199L278.244,58.456z M280.644,58.456l1.132-0.653l47.552-27.454
		l47.552,27.454l1.132,0.653v1.307v53.6v1.307l-1.132,0.653l-47.552,27.454l-47.552-27.454l-1.132-0.653V58.456z"/>
	<path d="M229.844,40.126c-4.023,0-6.914-2.012-7.246-5.059h-3.535c0.332,4.98,4.473,8.223,10.449,8.223
		c6.484,0,10.547-3.223,10.547-8.379c0-4.043-2.363-6.289-8.203-7.754l-2.949-0.781c-3.828-0.996-5.391-2.266-5.391-4.395
		c0-2.754,2.539-4.648,6.191-4.648c3.672,0,6.113,1.855,6.426,4.883h3.516c-0.156-4.727-4.219-8.047-9.824-8.047
		c-5.859,0-9.961,3.281-9.961,7.969c0,3.828,2.305,6.113,7.5,7.441l3.613,0.938c3.789,0.977,5.449,2.441,5.449,4.824
		C236.426,38.114,233.653,40.126,229.844,40.126z"/>
	<polygon points="240.811,157.786 240.811,129.603 237.334,129.603 237.334,151.732 237.158,151.732 221.729,129.603 
		218.311,129.603 218.311,157.786 221.787,157.786 221.787,135.736 221.963,135.736 237.393,157.786 	"/>
	<path d="M180.878,58.456l33.246-19.195l-1.199-2.079l-33.247,19.195l-47.552-27.454l-1.732-1l-0.599-0.346l-0.599,0.346l-1.732,1
		l-48.151,27.8l-0.601,0.345v0.694v2v53.6v1.307l-27.89,16.102l1.199,2.079l26.759-15.449l1.133-0.654l49.284,28.454l0.599,0.346
		l0.599-0.346l49.284-28.454l32.491,18.759l1.199-2.079l-31.358-18.105l-1.131-0.653V59.763V58.456z M178.478,59.763v54.907
		l-1.132,0.653l-47.552,27.454l-48.683-28.107v-1.307v-53.6v-1.307l1.132-0.653l47.552-27.454l47.552,27.454l1.132,0.653V59.763z"/>
	<polygon points="280.644,287.471 280.644,286.164 280.644,232.564 280.644,230.563 280.645,229.871 280.043,229.524 
		278.311,228.524 278.311,228.524 231.892,201.724 231.892,201.724 230.761,201.071 230.761,199.764 230.761,164.187 
		228.361,164.187 228.361,199.764 228.361,201.764 228.36,202.456 228.961,202.803 277.112,230.603 277.112,230.603 
		278.244,231.256 278.244,232.564 278.244,286.164 278.244,288.164 278.243,288.856 278.844,289.203 311.935,308.308 
		313.134,306.229 281.775,288.124 	"/>
	<polygon points="340.577,330.587 340.577,302.403 337.1,302.403 337.1,324.532 336.925,324.532 321.495,302.403 318.077,302.403 
		318.077,330.587 321.553,330.587 321.553,308.536 321.729,308.536 337.159,330.587 	"/>
	<polygon points="436.866,382.132 436.691,382.132 421.261,360.003 417.843,360.003 417.843,388.187 421.319,388.187 
		421.319,366.136 421.495,366.136 436.925,388.187 440.343,388.187 440.343,360.003 436.866,360.003 	"/>
	<polygon points="528.859,373.178 528.26,373.524 478.976,401.978 446.485,383.219 445.286,385.298 478.376,404.403 
		478.976,404.749 479.575,404.403 481.308,403.403 528.859,375.949 562.683,395.478 563.882,393.399 529.459,373.524 	"/>
	<path d="M578.742,388.569c-7.988,0-12.988,5.625-12.988,14.57s5,14.551,12.988,14.551s12.988-5.605,12.988-14.551
		S586.73,388.569,578.742,388.569z M578.742,414.448c-5.762,0-9.375-4.375-9.375-11.309c0-6.953,3.613-11.328,9.375-11.328
		s9.375,4.375,9.375,11.328C588.117,410.073,584.504,414.448,578.742,414.448z"/>
	<polygon points="614.715,389.037 614.715,401.225 599.246,401.225 599.246,389.037 595.73,389.037 595.73,417.221 599.246,417.221 
		599.246,404.389 614.715,404.389 614.715,417.221 618.23,417.221 618.23,389.037 	"/>
	<path d="M26.874,132.992c4.023,0,7.246,2.422,8.145,6.113h3.555c-0.898-5.625-5.566-9.356-11.699-9.356
		c-7.715,0-12.695,5.703-12.695,14.551c0,8.926,4.922,14.57,12.695,14.57c6.23,0,10.41-3.105,11.699-8.672h-3.555
		c-1.016,3.438-3.984,5.43-8.125,5.43c-5.566,0-9.102-4.414-9.102-11.328C17.792,137.445,21.366,132.992,26.874,132.992z"/>
	<rect x="42.48" y="128.988" width="3.398" height="29.414"/>
</g>
</svg>
