<?xml version="1.0" encoding="iso-8859-1"?>
<!-- Generator: Adobe Illustrator 19.0.0, SVG Export Plug-In . SVG Version: 6.00 Build 0)  -->
<svg version="1.1" id="&#x421;&#x43B;&#x43E;&#x439;_1"
	 xmlns="http://www.w3.org/2000/svg" xmlns:xlink="http://www.w3.org/1999/xlink" x="0px" y="0px"
	 viewBox="-110 182.343 374.967 511.54" style="enable-background:new -110 182.343 374.967 511.54;" xml:space="preserve" width="374.967" height="511.54">
<rect x="-65.046" y="241.97" width="2.4" height="45.628"/>
<rect x="-5.78" y="276.187" transform="matrix(-0.4995 -0.8663 0.8663 -0.4995 -265.895 444.3861)" width="2.4" height="45.627"/>
<rect x="-27.389" y="229.362" transform="matrix(-0.866 -0.5 0.5 -0.866 -123.8221 427.9449)" width="45.627" height="2.4"/>
<path d="M-73.081,295.623L-73.081,295.623l48.151,27.8l0.6,0.346l0.599-0.346l1.732-1l0,0l46.419-26.8l0,0l1.732-1l0.601-0.345
	v-0.694v-2v-54.907l47.55-27.453l0,0l1.133-0.654l1.133,0.654l0,0l47.111,27.2l-28.2,48.844l2.079,1.199l27.761-48.082l27.76,48.082
	l2.079-1.199l-28.2-48.844l31.921-18.429l-1.199-2.079L125.32,234.6l-47.552-27.454l0,0l-1.732-1l-0.6-0.346l-0.599,0.346l-1.732,1
	l0,0L25.553,234.6l-47.552-27.456l0,0l-1.732-1l-0.599-0.346l-0.6,0.346l-1.732,1l0,0l-48.151,27.8l-0.6,0.345v0.694v2v53.6v2
	l-0.001,0.693l0.601,0.347L-73.081,295.623z M25.553,235.984L25.553,235.984L25.553,235.984L25.553,235.984z M-73.014,291.584v-53.6
	v-1.307l1.132-0.653l46.419-26.8l0,0l1.133-0.654l1.133,0.654l0,0l47.551,27.453v54.907v1.307l-1.132,0.653l0,0l-47.552,27.454
	l-47.551-27.454l0,0l-1.132-0.653L-73.014,291.584L-73.014,291.584z"/>
<polygon points="167.422,197.904 167.502,197.904 182.422,220.824 186.582,220.824 186.582,192.264 182.982,192.264 
	182.982,215.424 182.902,215.424 167.862,192.264 163.822,192.264 163.822,220.824 167.422,220.824 "/>
<polygon points="194.382,207.744 209.422,207.744 209.422,220.824 213.222,220.824 213.222,192.264 209.422,192.264 
	209.422,204.544 194.382,204.544 194.382,192.264 190.582,192.264 190.582,220.824 194.382,220.824 "/>
<path d="M226.588,216.399c-0.42,0.448-0.947,0.891-1.582,1.33c-0.635,0.439-1.372,0.919-2.212,1.442
	c-0.691,0.411-1.353,0.849-1.988,1.316s-1.204,1.008-1.708,1.624c-0.504,0.616-0.919,1.339-1.246,2.17
	c-0.327,0.831-0.537,1.834-0.63,3.01h12.964v-2.1h-10.192c0.112-0.616,0.35-1.162,0.714-1.638c0.364-0.476,0.803-0.919,1.316-1.33
	c0.513-0.411,1.078-0.798,1.694-1.162s1.232-0.733,1.848-1.106c0.616-0.392,1.213-0.803,1.792-1.232
	c0.579-0.429,1.092-0.91,1.54-1.442c0.448-0.532,0.807-1.134,1.078-1.806c0.271-0.672,0.406-1.447,0.406-2.324
	c0-0.933-0.163-1.755-0.49-2.464s-0.77-1.302-1.33-1.778s-1.218-0.84-1.974-1.092s-1.563-0.378-2.422-0.378
	c-1.045,0-1.979,0.177-2.8,0.532c-0.821,0.355-1.507,0.845-2.058,1.47c-0.551,0.625-0.957,1.367-1.218,2.226
	c-0.261,0.859-0.364,1.792-0.308,2.8h2.38c-0.019-0.597,0.042-1.19,0.182-1.778s0.369-1.115,0.686-1.582
	c0.317-0.467,0.723-0.845,1.218-1.134s1.087-0.434,1.778-0.434c0.523,0,1.017,0.084,1.484,0.252s0.873,0.411,1.218,0.728
	s0.621,0.695,0.826,1.134s0.308,0.929,0.308,1.47c0,0.691-0.107,1.297-0.322,1.82C227.325,215.465,227.008,215.951,226.588,216.399z
	"/>
<polygon points="-0.788,573.743 -2.882,563.927 -5.315,564.022 -3.049,574.646 "/>
<polygon points="5.995,571.036 8.256,570.133 6.851,563.546 4.418,563.641 "/>
<polygon points="-12.094,578.256 -9.833,577.353 -12.615,564.308 -15.049,564.403 "/>
<polygon points="15.039,567.426 17.301,566.523 16.584,563.165 14.151,563.26 "/>
<polygon points="-37.47,597.307 -39.857,597.053 -43.559,632.279 -100.079,632.279 -100.079,634.68 -44.557,634.68 -72.318,682.763 
	-70.239,683.962 -41.98,635.015 -9.072,649.666 -8.096,647.474 -41.194,632.738 "/>
<polygon points="20.785,634.407 31.405,643.974 32.697,641.907 22.704,632.906 "/>
<polygon points="28.463,628.405 36.571,635.709 37.863,633.643 30.383,626.905 "/>
<polygon points="36.142,622.404 41.737,627.444 43.029,625.378 38.061,620.904 "/>
<polygon points="43.821,616.403 46.903,619.18 48.195,617.114 45.74,614.903 "/>
<polygon points="107.835,613.815 135.612,565.704 169.904,579.39 173.065,564.523 135.802,563.064 117.876,532.015 115.797,533.214 
	133.698,564.219 105.591,612.902 50.684,612.902 49.376,612.902 21.923,565.352 21.923,565.352 21.269,564.219 21.923,563.087 
	21.923,563.087 49.376,515.536 50.684,515.536 86.203,515.536 86.203,513.136 50.684,513.136 48.684,513.136 47.991,513.135 
	47.644,513.737 19.844,561.888 18.844,563.62 18.498,564.219 18.844,564.819 19.844,566.551 47.644,614.702 47.989,615.302 
	48.684,615.302 50.684,615.302 105.64,615.302 124.945,646.186 136.241,636.015 "/>
<polygon points="255.046,632.279 198.526,632.279 194.824,597.053 192.437,597.306 196.161,632.738 163.063,647.474 
	164.039,649.666 196.947,635.015 225.206,683.962 227.285,682.763 199.524,634.679 255.046,634.679 "/>
<polygon points="168.331,521.038 155.853,513.843 154.884,516.055 166.899,522.984 "/>
<polygon points="162.605,528.821 151.976,522.692 151.007,524.904 161.173,530.767 "/>
<polygon points="139.702,559.954 136.467,558.089 135.498,560.301 138.27,561.9 "/>
<polygon points="156.879,536.604 148.099,531.541 147.129,533.753 155.448,538.55 "/>
<polygon points="151.153,544.388 144.222,540.39 143.252,542.603 149.722,546.333 "/>
<polygon points="145.427,552.171 140.344,549.24 139.375,551.452 143.996,554.117 "/>
<rect x="136.504" y="497.341" transform="matrix(0.5 0.866 -0.866 0.5 509.1193 115.2475)" width="36.493" height="2.4"/>
<rect x="142.197" y="438.043" transform="matrix(0.5 -0.866 0.866 0.5 -305.5739 349.2088)" width="14.889" height="2.4"/>
<rect x="176.863" y="382.904" transform="matrix(0.8663 0.4996 -0.4996 0.8663 218.6484 -36.8016)" width="2.4" height="14.189"/>
<rect x="133.183" y="394.913" transform="matrix(0.866 0.5 -0.5 0.866 217.1238 -18.0695)" width="18.192" height="2.4"/>
<rect x="127.999" y="403.893" transform="matrix(0.866 0.5 -0.5 0.866 220.9189 -14.2742)" width="18.192" height="2.4"/>
<rect x="177.152" y="431.982" transform="matrix(-0.866 -0.5 0.5 -0.866 130.021 901.2034)" width="17.201" height="2.4"/>
<rect x="182.354" y="423.015" transform="matrix(0.866 0.5 -0.5 0.866 237.6966 -38.6424)" width="17.201" height="2.4"/>
<path d="M116.523,503.636c-1.147-1.387-2.573-2.493-4.28-3.32s-3.693-1.24-5.96-1.24s-4.253,0.413-5.96,1.24s-3.133,1.933-4.28,3.32
	s-2.007,2.98-2.58,4.78s-0.86,3.673-0.86,5.62c0,1.947,0.287,3.82,0.86,5.62s1.433,3.393,2.58,4.78
	c1.147,1.387,2.573,2.487,4.28,3.3s3.693,1.22,5.96,1.22s4.253-0.407,5.96-1.22s3.133-1.913,4.28-3.3
	c1.147-1.386,2.007-2.98,2.58-4.78s0.86-3.673,0.86-5.62c0-1.947-0.287-3.82-0.86-5.62S117.67,505.023,116.523,503.636z
	 M115.603,518.296c-0.373,1.4-0.96,2.66-1.76,3.78c-0.8,1.12-1.827,2.02-3.08,2.7c-1.253,0.68-2.747,1.02-4.48,1.02
	s-3.227-0.34-4.48-1.02c-1.253-0.68-2.28-1.58-3.08-2.7s-1.387-2.38-1.76-3.78c-0.373-1.4-0.56-2.82-0.56-4.26s0.187-2.86,0.56-4.26
	c0.373-1.4,0.96-2.66,1.76-3.78s1.827-2.02,3.08-2.7c1.253-0.68,2.747-1.02,4.48-1.02s3.227,0.34,4.48,1.02
	c1.253,0.68,2.28,1.58,3.08,2.7s1.387,2.38,1.76,3.78s0.56,2.82,0.56,4.26S115.977,516.896,115.603,518.296z"/>
<path d="M-30.498,562.175c-1.707-0.827-3.693-1.24-5.96-1.24s-4.253,0.413-5.96,1.24c-1.707,0.827-3.133,1.933-4.28,3.32
	c-1.147,1.387-2.007,2.98-2.58,4.78s-0.86,3.673-0.86,5.62c0,1.947,0.287,3.82,0.86,5.62s1.433,3.393,2.58,4.78
	c1.147,1.387,2.573,2.487,4.28,3.3s3.693,1.22,5.96,1.22s4.253-0.407,5.96-1.22s3.133-1.913,4.28-3.3
	c1.147-1.387,2.007-2.98,2.58-4.78s0.86-3.673,0.86-5.62c0-1.947-0.287-3.82-0.86-5.62s-1.433-3.393-2.58-4.78
	C-27.365,564.108-28.791,563.002-30.498,562.175z M-27.138,580.155c-0.373,1.4-0.96,2.66-1.76,3.78s-1.827,2.02-3.08,2.7
	c-1.253,0.68-2.747,1.02-4.48,1.02s-3.227-0.34-4.48-1.02c-1.253-0.68-2.28-1.58-3.08-2.7s-1.387-2.38-1.76-3.78
	c-0.373-1.4-0.56-2.82-0.56-4.26s0.187-2.86,0.56-4.26c0.373-1.4,0.96-2.66,1.76-3.78s1.827-2.02,3.08-2.7s2.747-1.02,4.48-1.02
	s3.227,0.34,4.48,1.02s2.28,1.58,3.08,2.7c0.8,1.12,1.387,2.38,1.76,3.78c0.373,1.4,0.56,2.82,0.56,4.26
	S-26.765,578.755-27.138,580.155z"/>
<path d="M20.382,646.207c-1.147-1.387-2.573-2.493-4.28-3.32c-1.707-0.827-3.693-1.24-5.96-1.24s-4.253,0.413-5.96,1.24
	c-1.707,0.827-3.133,1.933-4.28,3.32c-1.147,1.387-2.007,2.98-2.58,4.78s-0.86,3.673-0.86,5.62c0,1.947,0.287,3.82,0.86,5.62
	c0.573,1.8,1.433,3.393,2.58,4.78s2.573,2.487,4.28,3.3s3.693,1.22,5.96,1.22s4.253-0.407,5.96-1.22s3.133-1.913,4.28-3.3
	c1.147-1.387,2.007-2.98,2.58-4.78c0.573-1.8,0.86-3.673,0.86-5.62c0-1.947-0.287-3.82-0.86-5.62
	C22.388,649.187,21.528,647.594,20.382,646.207z M19.462,660.868c-0.373,1.4-0.96,2.66-1.76,3.78c-0.8,1.12-1.827,2.02-3.08,2.7
	s-2.747,1.02-4.48,1.02s-3.227-0.34-4.48-1.02c-1.253-0.68-2.28-1.58-3.08-2.7s-1.387-2.38-1.76-3.78s-0.56-2.82-0.56-4.26
	s0.187-2.86,0.56-4.26s0.96-2.66,1.76-3.78s1.827-2.02,3.08-2.7c1.253-0.68,2.747-1.02,4.48-1.02s3.227,0.34,4.48,1.02
	s2.28,1.58,3.08,2.7c0.8,1.12,1.387,2.38,1.76,3.78c0.373,1.4,0.56,2.82,0.56,4.26C20.022,658.047,19.835,659.467,19.462,660.868z"
	/>
<path d="M155.065,646.207c-1.147-1.387-2.573-2.493-4.28-3.32c-1.707-0.827-3.693-1.24-5.96-1.24c-2.267,0-4.253,0.413-5.96,1.24
	c-1.707,0.827-3.133,1.933-4.28,3.32c-1.147,1.387-2.007,2.98-2.58,4.78s-0.86,3.673-0.86,5.62c0,1.947,0.287,3.82,0.86,5.62
	c0.573,1.8,1.433,3.393,2.58,4.78s2.573,2.487,4.28,3.3s3.693,1.22,5.96,1.22s4.253-0.407,5.96-1.22s3.133-1.913,4.28-3.3
	c1.147-1.387,2.007-2.98,2.58-4.78c0.573-1.8,0.86-3.673,0.86-5.62c0-1.947-0.287-3.82-0.86-5.62
	C157.072,649.187,156.212,647.594,155.065,646.207z M154.145,660.867c-0.373,1.4-0.96,2.66-1.76,3.78c-0.8,1.12-1.827,2.02-3.08,2.7
	s-2.747,1.02-4.48,1.02c-1.733,0-3.227-0.34-4.48-1.02c-1.253-0.68-2.28-1.58-3.08-2.7s-1.387-2.38-1.76-3.78s-0.56-2.82-0.56-4.26
	s0.187-2.86,0.56-4.26s0.96-2.66,1.76-3.78c0.8-1.12,1.827-2.02,3.08-2.7c1.253-0.68,2.747-1.02,4.48-1.02
	c1.733,0,3.227,0.34,4.48,1.02s2.28,1.58,3.08,2.7s1.387,2.38,1.76,3.78c0.373,1.4,0.56,2.82,0.56,4.26
	S154.519,659.467,154.145,660.867z"/>
<path d="M181.185,586.295c1.147,1.387,2.573,2.487,4.28,3.3s3.693,1.22,5.96,1.22s4.253-0.407,5.96-1.22s3.133-1.913,4.28-3.3
	c1.147-1.387,2.007-2.98,2.58-4.78s0.86-3.673,0.86-5.62c0-1.947-0.287-3.82-0.86-5.62s-1.433-3.393-2.58-4.78
	c-1.147-1.387-2.573-2.493-4.28-3.32c-1.707-0.827-3.693-1.24-5.96-1.24s-4.253,0.413-5.96,1.24c-1.707,0.827-3.133,1.933-4.28,3.32
	c-1.147,1.387-2.007,2.98-2.58,4.78s-0.86,3.673-0.86,5.62c0,1.947,0.287,3.82,0.86,5.62S180.038,584.908,181.185,586.295z
	 M182.105,571.635c0.373-1.4,0.96-2.66,1.76-3.78c0.8-1.12,1.827-2.02,3.08-2.7s2.747-1.02,4.48-1.02s3.227,0.34,4.48,1.02
	c1.253,0.68,2.28,1.58,3.08,2.7c0.8,1.12,1.387,2.38,1.76,3.78c0.373,1.4,0.56,2.82,0.56,4.26s-0.187,2.86-0.56,4.26
	s-0.96,2.66-1.76,3.78c-0.8,1.12-1.827,2.02-3.08,2.7c-1.253,0.68-2.747,1.02-4.48,1.02s-3.227-0.34-4.48-1.02
	c-1.253-0.68-2.28-1.58-3.08-2.7s-1.387-2.38-1.76-3.78c-0.373-1.4-0.56-2.82-0.56-4.26S181.731,573.035,182.105,571.635z"/>
<path d="M124.843,474.553c1.147,1.387,2.573,2.487,4.28,3.3s3.693,1.22,5.96,1.22c2.267,0,4.253-0.407,5.96-1.22
	s3.133-1.913,4.28-3.3c1.147-1.387,2.007-2.98,2.58-4.78s0.86-3.673,0.86-5.62s-0.287-3.82-0.86-5.62s-1.433-3.393-2.58-4.78
	c-1.147-1.387-2.573-2.493-4.28-3.32s-3.693-1.24-5.96-1.24c-2.267,0-4.253,0.413-5.96,1.24s-3.133,1.933-4.28,3.32
	s-2.007,2.98-2.58,4.78s-0.86,3.673-0.86,5.62s0.287,3.82,0.86,5.62C122.837,471.573,123.697,473.166,124.843,474.553z
	 M125.763,459.893c0.373-1.4,0.96-2.66,1.76-3.78c0.8-1.12,1.827-2.02,3.08-2.7c1.253-0.68,2.747-1.02,4.48-1.02
	s3.227,0.34,4.48,1.02c1.253,0.68,2.28,1.58,3.08,2.7c0.8,1.12,1.387,2.38,1.76,3.78s0.56,2.82,0.56,4.26s-0.187,2.86-0.56,4.26
	s-0.96,2.66-1.76,3.78c-0.8,1.12-1.827,2.02-3.08,2.7c-1.253,0.68-2.747,1.02-4.48,1.02s-3.227-0.34-4.48-1.02
	c-1.253-0.68-2.28-1.58-3.08-2.7c-0.8-1.12-1.387-2.38-1.76-3.78s-0.56-2.82-0.56-4.26S125.39,461.293,125.763,459.893z"/>
<path d="M154.163,403.93c-0.587,1.053-0.88,2.3-0.88,3.74c0,1.307,0.26,2.393,0.78,3.26s1.213,1.573,2.08,2.12
	c0.867,0.547,1.847,0.987,2.94,1.32s2.207,0.627,3.34,0.88s2.247,0.5,3.34,0.74s2.073,0.553,2.94,0.94s1.56,0.887,2.08,1.5
	s0.78,1.413,0.78,2.4c0,1.04-0.213,1.893-0.64,2.56s-0.987,1.193-1.68,1.58s-1.473,0.66-2.34,0.82s-1.727,0.24-2.58,0.24
	c-1.067,0-2.107-0.133-3.12-0.4s-1.9-0.68-2.66-1.24s-1.373-1.273-1.84-2.14s-0.7-1.9-0.7-3.1h-3.6c0,1.733,0.313,3.233,0.94,4.5
	s1.48,2.307,2.56,3.12s2.333,1.42,3.76,1.82s2.94,0.6,4.54,0.6c1.307,0,2.62-0.153,3.94-0.46s2.513-0.8,3.58-1.48
	c1.067-0.68,1.94-1.56,2.62-2.64c0.68-1.08,1.02-2.38,1.02-3.9c0-1.413-0.26-2.587-0.78-3.52c-0.52-0.933-1.213-1.707-2.08-2.32
	c-0.867-0.613-1.847-1.1-2.94-1.46s-2.207-0.673-3.34-0.94s-2.247-0.513-3.34-0.74s-2.073-0.513-2.94-0.86s-1.56-0.793-2.08-1.34
	s-0.78-1.26-0.78-2.14c0-0.933,0.18-1.713,0.54-2.34c0.36-0.627,0.84-1.127,1.44-1.5c0.6-0.373,1.287-0.64,2.06-0.8
	s1.56-0.24,2.36-0.24c1.973,0,3.593,0.46,4.86,1.38c1.267,0.92,2.007,2.407,2.22,4.46h3.6c-0.053-1.573-0.353-2.927-0.9-4.06
	s-1.293-2.073-2.24-2.82c-0.947-0.747-2.047-1.293-3.3-1.64c-1.253-0.347-2.613-0.52-4.08-0.52c-1.307,0-2.58,0.167-3.82,0.5
	c-1.24,0.333-2.347,0.84-3.32,1.52C155.53,402.01,154.75,402.877,154.163,403.93z"/>
<polygon points="204.063,378.327 204.063,349.767 200.463,349.767 200.463,372.927 200.383,372.927 185.343,349.767 
	181.303,349.767 181.303,378.327 184.903,378.327 184.903,355.407 184.983,355.407 199.903,378.327 "/>
<polygon points="230.703,349.767 226.903,349.767 226.903,362.047 211.863,362.047 211.863,349.767 208.063,349.767 
	208.063,378.327 211.863,378.327 211.863,365.247 226.903,365.247 226.903,378.327 230.703,378.327 "/>
<path d="M244.069,373.902c-0.42,0.448-0.947,0.891-1.582,1.33s-1.372,0.919-2.212,1.442c-0.691,0.411-1.353,0.849-1.988,1.316
	c-0.635,0.467-1.204,1.008-1.708,1.624s-0.919,1.339-1.246,2.17s-0.537,1.834-0.63,3.01h12.964v-2.1h-10.192
	c0.112-0.616,0.35-1.162,0.714-1.638c0.364-0.476,0.803-0.919,1.316-1.33c0.513-0.411,1.078-0.798,1.694-1.162
	c0.616-0.364,1.232-0.733,1.848-1.106c0.616-0.392,1.213-0.803,1.792-1.232c0.579-0.429,1.092-0.91,1.54-1.442
	c0.448-0.532,0.807-1.134,1.078-1.806s0.406-1.447,0.406-2.324c0-0.933-0.163-1.755-0.49-2.464c-0.327-0.709-0.77-1.302-1.33-1.778
	c-0.56-0.476-1.218-0.84-1.974-1.092c-0.756-0.252-1.563-0.378-2.422-0.378c-1.045,0-1.979,0.177-2.8,0.532
	c-0.821,0.355-1.507,0.845-2.058,1.47c-0.551,0.625-0.957,1.367-1.218,2.226c-0.261,0.859-0.364,1.792-0.308,2.8h2.38
	c-0.019-0.597,0.042-1.19,0.182-1.778c0.14-0.588,0.369-1.115,0.686-1.582c0.317-0.467,0.723-0.845,1.218-1.134
	s1.087-0.434,1.778-0.434c0.523,0,1.017,0.084,1.484,0.252s0.873,0.411,1.218,0.728c0.345,0.317,0.621,0.695,0.826,1.134
	s0.308,0.929,0.308,1.47c0,0.691-0.107,1.297-0.322,1.82C244.807,372.968,244.489,373.454,244.069,373.902z"/>
<path d="M124.24,395.87c1.147-1.387,2.007-2.98,2.58-4.78c0.573-1.8,0.86-3.673,0.86-5.62s-0.287-3.82-0.86-5.62
	c-0.573-1.8-1.433-3.393-2.58-4.78s-2.573-2.493-4.28-3.32s-3.693-1.24-5.96-1.24s-4.253,0.413-5.96,1.24
	c-1.707,0.827-3.133,1.933-4.28,3.32c-1.147,1.386-2.007,2.98-2.58,4.78c-0.573,1.8-0.86,3.673-0.86,5.62s0.287,3.82,0.86,5.62
	s1.433,3.393,2.58,4.78s2.573,2.487,4.28,3.3c1.707,0.813,3.693,1.22,5.96,1.22s4.253-0.407,5.96-1.22
	C121.667,398.357,123.093,397.257,124.24,395.87z M121.56,393.51c-0.8,1.12-1.827,2.02-3.08,2.7s-2.747,1.02-4.48,1.02
	s-3.227-0.34-4.48-1.02c-1.253-0.68-2.28-1.58-3.08-2.7s-1.387-2.38-1.76-3.78s-0.56-2.82-0.56-4.26c0-1.44,0.187-2.86,0.56-4.26
	s0.96-2.66,1.76-3.78c0.8-1.12,1.827-2.02,3.08-2.7s2.747-1.02,4.48-1.02s3.227,0.34,4.48,1.02c1.253,0.68,2.28,1.58,3.08,2.7
	s1.387,2.38,1.76,3.78s0.56,2.82,0.56,4.26s-0.187,2.86-0.56,4.26C122.947,391.13,122.36,392.39,121.56,393.51z"/>
<path d="M213.766,457.99c2.267,0,4.253-0.407,5.96-1.22s3.133-1.913,4.28-3.3s2.007-2.98,2.58-4.78s0.86-3.673,0.86-5.62
	s-0.287-3.82-0.86-5.62s-1.433-3.393-2.58-4.78c-1.147-1.387-2.573-2.493-4.28-3.32s-3.693-1.24-5.96-1.24s-4.253,0.413-5.96,1.24
	s-3.133,1.933-4.28,3.32s-2.007,2.98-2.58,4.78s-0.86,3.673-0.86,5.62s0.287,3.82,0.86,5.62s1.433,3.393,2.58,4.78
	c1.147,1.387,2.573,2.487,4.28,3.3S211.5,457.99,213.766,457.99z M206.206,451.11c-0.8-1.12-1.387-2.38-1.76-3.78
	c-0.373-1.4-0.56-2.82-0.56-4.26s0.187-2.86,0.56-4.26c0.373-1.4,0.96-2.66,1.76-3.78c0.8-1.12,1.827-2.02,3.08-2.7
	c1.253-0.68,2.747-1.02,4.48-1.02s3.227,0.34,4.48,1.02c1.253,0.68,2.28,1.58,3.08,2.7c0.8,1.12,1.387,2.38,1.76,3.78
	c0.373,1.4,0.56,2.82,0.56,4.26s-0.187,2.86-0.56,4.26c-0.373,1.4-0.96,2.66-1.76,3.78c-0.8,1.12-1.827,2.02-3.08,2.7
	c-1.253,0.68-2.747,1.02-4.48,1.02s-3.227-0.34-4.48-1.02C208.033,453.13,207.006,452.23,206.206,451.11z"/>
</svg>
