<?xml version="1.0" standalone="no" ?>
<!DOCTYPE svg PUBLIC "-//W3C//DTD SVG 1.1//EN" "http://www.w3.org/Graphics/SVG/1.1/DTD/svg11.dtd">
<svg width="95px" height="48px" viewBox="0 0 95 48" style="" xmlns="http://www.w3.org/2000/svg" xmlns:xlink="http://www.w3.org/1999/xlink" version="1.1" >
<text x="0" y="0" stroke="transparent" fill="#000000" transform="matrix(0.05 0 0 0.05 73.9496 26.5546)" style="font:normal normal normal 200px 'Arial'" >
NH</text>
<text x="0" y="0" stroke="transparent" fill="#000000" transform="matrix(0.05 0 0 0.05 88.393 28.1657)" style="font:normal normal normal 150px 'Arial'" >
2</text>
<text x="0" y="0" stroke="transparent" fill="#000000" transform="matrix(0.05 0 0 0.05 61.4788 10.8129)" style="font:normal normal normal 200px 'Arial'" >
H</text>
<text x="0" y="0" stroke="transparent" fill="#000000" transform="matrix(0.05 0 0 0.05 61.4788 19.3546)" style="font:normal normal normal 200px 'Arial'" >
N</text>
<path stroke="transparent" fill="#000000" transform="matrix(0.05 0 0 0.05 -426 -256)" d="M 8580.72,5866.18 L 8568.72,5873.11 L 8568.72,5578.18 L 8580.72,5585.11 L 8580.72,5866.18 Z " />
<path stroke="transparent" fill="#000000" transform="matrix(0.05 0 0 0.05 -426 -256)" d="M 8632.56,5839.72 L 8620.56,5839.72 L 8620.56,5611.58 L 8632.56,5611.58 L 8632.56,5839.72 Z " />
<path stroke="transparent" fill="#000000" transform="matrix(0.05 0 0 0.05 -426 -256)" d="M 8568.72,5873.11 L 8580.72,5866.18 L 8824.13,6006.72 L 8824.13,6020.58 L 8568.72,5873.11 Z " />
<path stroke="transparent" fill="#000000" transform="matrix(0.05 0 0 0.05 -426 -256)" d="M 8580.72,5585.11 L 8568.72,5578.18 L 8824.13,5430.72 L 8824.13,5444.58 L 8580.72,5585.11 Z " />
<path stroke="transparent" fill="#000000" transform="matrix(0.05 0 0 0.05 -426 -256)" d="M 8824.13,6020.58 L 8824.13,6006.72 L 9067.55,5866.18 L 9079.55,5873.11 L 8824.13,6020.58 Z " />
<path stroke="transparent" fill="#000000" transform="matrix(0.05 0 0 0.05 -426 -256)" d="M 8827.13,5958.98 L 8821.13,5948.59 L 9018.71,5834.52 L 9024.71,5844.91 L 8827.13,5958.98 Z " />
<path stroke="transparent" fill="#000000" transform="matrix(0.05 0 0 0.05 -426 -256)" d="M 9322.96,5444.58 L 9322.96,5430.72 L 9572.38,5574.72 L 9572.38,5588.58 L 9322.96,5444.58 Z " />
<path stroke="transparent" fill="#000000" transform="matrix(0.05 0 0 0.05 -426 -256)" d="M 8824.13,5444.58 L 8824.13,5430.72 L 9073.55,5574.72 L 9073.55,5581.65 L 9067.55,5585.11 L 8824.13,5444.58 Z " />
<path stroke="transparent" fill="#000000" transform="matrix(0.05 0 0 0.05 -426 -256)" d="M 8821.13,5502.7 L 8827.13,5492.31 L 9024.71,5606.38 L 9018.71,5616.77 L 8821.13,5502.7 Z " />
<path stroke="transparent" fill="#000000" transform="matrix(0.05 0 0 0.05 -426 -256)" d="M 9079.55,5873.11 L 9067.55,5866.18 L 9067.55,5585.11 L 9073.55,5581.65 L 9079.55,5585.11 L 9079.55,5873.11 Z " />
<path stroke="transparent" fill="#000000" transform="matrix(0.05 0 0 0.05 -426 -256)" d="M 9322.96,5430.72 L 9322.96,5444.58 L 9079.55,5585.11 L 9073.55,5581.65 L 9073.55,5574.72 L 9322.96,5430.72 Z " />
<path stroke="transparent" fill="#000000" transform="matrix(0.05 0 0 0.05 -426 -256)" d="M 9572.38,5588.58 L 9572.38,5574.72 L 9718.07,5490.6 L 9724.07,5501 L 9572.38,5588.58 Z " />
<path stroke="transparent" fill="#000000" transform="matrix(0.05 0 0 0.05 -426 -256)" d="M 9971.06,5516.9 L 9965.06,5527.29 L 9918.13,5500.19 L 9924.13,5489.8 L 9971.06,5516.9 Z " />
</svg>
