<?xml version="1.0" encoding="utf-8"?>
<!-- Generator: Adobe Illustrator 19.2.1, SVG Export Plug-In . SVG Version: 6.00 Build 0)  -->
<svg version="1.1" id="Слой_1" xmlns="http://www.w3.org/2000/svg" xmlns:xlink="http://www.w3.org/1999/xlink" x="0px" y="0px"
	 viewBox="0 0 785.7 359.9" style="enable-background:new 0 0 785.7 359.9;" xml:space="preserve" width="785.7" height="359.9">
<g>
	<path d="M714.3,117.4v-2l0-0.7l-0.6-0.3l-49.9-28.8l-0.6-0.3l-0.6,0.3L613.4,114l-47.6-27.5l0,0l-1.7-1l-0.6-0.3l-0.6,0.3l-1.7,1
		l0,0l-31.4,18.1l1.2,2.1L563.5,88l48.7,28.1l0,56.9l0,0.7l0.6,0.3l1.7,1l0,0l48.2,27.8l0.6,0.3l0.6-0.3l49.3-28.5l35.2,20.3
		l1.2-2.1l-35.2-20.3V117.4z M613.4,115.4L613.4,115.4L613.4,115.4L613.4,115.4z M614.6,172.3V171l0,0l0-54.9L663.2,88l48.7,28.1
		v1.3v54.9l-48.7,28.1l-47.6-27.5l0,0L614.6,172.3z"/>
	<rect x="681.8" y="87.1" transform="matrix(0.5 -0.866 0.866 0.5 246.2851 646.4738)" width="2.4" height="45.6"/>
	<rect x="622.5" y="121.4" width="2.4" height="45.6"/>
	<rect x="660.2" y="177.2" transform="matrix(0.8663 -0.4996 0.4996 0.8663 2.2161 365.0592)" width="45.6" height="2.4"/>
	<polygon points="514.8,172.3 514.8,135.4 512.4,135.4 512.4,172.3 463.1,200.7 462.5,201.1 462.5,201.8 462.5,203.8 462.5,257.4 
		462.5,259.4 462.5,260.1 463.1,260.4 496.2,279.5 497.4,277.4 464.9,258.7 464.9,257.4 464.9,203.8 464.9,202.5 513.6,174.4 
		561.1,201.8 561.1,201.8 562.3,202.5 562.3,203.8 562.3,257.4 562.3,258.7 561.1,259.3 561.1,259.3 529.8,277.4 531,279.5 
		564.1,260.4 564.7,260.1 564.7,259.4 564.7,257.4 564.7,203.8 564.7,201.8 564.7,201.1 564.1,200.7 	"/>
	<rect x="512.4" y="308.2" width="2.4" height="37.6"/>
	<polygon points="496.2,106.7 497.4,104.6 470.1,88.9 470.1,47.8 467.7,47.8 467.7,87.5 464.3,85.5 463.7,85.2 463.1,85.5 
		461.4,86.5 461.4,86.5 459.7,87.5 459.7,47.8 457.3,47.8 457.3,88.9 430,104.6 431.2,106.7 463.7,88 	"/>
	<rect x="282.7" y="87.1" transform="matrix(0.5 -0.866 0.866 0.5 46.7516 300.8727)" width="2.4" height="45.6"/>
	<rect x="223.5" y="121.4" width="2.4" height="45.6"/>
	<rect x="261.1" y="177.2" transform="matrix(0.8663 -0.4996 0.4996 0.8663 -51.1484 165.7095)" width="45.6" height="2.4"/>
	<polygon points="505.8,106.9 506,106.9 521.4,129 524.8,129 524.8,100.8 521.4,100.8 521.4,122.9 521.2,122.9 505.8,100.8 
		502.3,100.8 502.3,129 505.8,129 	"/>
	<polygon points="521.4,295.7 521.2,295.7 505.8,273.6 502.3,273.6 502.3,301.8 505.8,301.8 505.8,279.7 506,279.7 521.4,301.8 
		524.8,301.8 524.8,273.6 521.4,273.6 	"/>
	<polygon points="771.6,190.4 771.6,187.2 754.5,187.2 754.5,215.4 758,215.4 758,203.2 770.5,203.2 770.5,200.1 758,200.1 
		758,190.4 	"/>
	<path d="M463.7,43.3c8,0,13-5.6,13-14.6s-5-14.6-13-14.6s-13,5.6-13,14.6S455.7,43.3,463.7,43.3z M463.7,17.4
		c5.8,0,9.4,4.4,9.4,11.3c0,6.9-3.6,11.3-9.4,11.3s-9.4-4.4-9.4-11.3C454.3,21.8,458,17.4,463.7,17.4z"/>
	<polygon points="421.6,122.9 421.4,122.9 406,100.8 402.6,100.8 402.6,129 406.1,129 406.1,106.9 406.2,106.9 421.7,129 425.1,129 
		425.1,100.8 421.6,100.8 	"/>
	<polygon points="421.6,145.2 406.1,145.2 406.1,133 402.6,133 402.6,161.2 406.1,161.2 406.1,148.3 421.6,148.3 421.6,161.2 
		425.1,161.2 425.1,133 421.6,133 	"/>
	<path d="M366.3,86.5l-1.7-1l-0.6-0.3l-0.6,0.3l-1.7,1l0,0L314.1,114l-47.6-27.5l0,0l-1.7-1l-0.6-0.3l-0.6,0.3l-1.7,1l0,0
		l-48.2,27.8l-0.6,0.3v0.7l0,56.9l-31.2,18l1.2,2.1l31.2-18l47.6,27.5l0,0l1.7,1l0.6,0.3l0.6-0.3l49.9-28.8l0.6-0.3V173v-2v-54.9
		L363.9,88l1.1,0.7l0,0l31.4,18.1l1.2-2.1L366.3,86.5L366.3,86.5z M312.9,172.3l-1.1,0.7l0,0l-47.6,27.5l-48.7-28.1v-54.9v-1.3
		L263,88.6l0,0l1.1-0.7l1.1,0.7l0,0l47.6,27.5V171V172.3z"/>
	<path d="M164.4,187c-8,0-13,5.6-13,14.6c0,8.9,5,14.6,13,14.6s13-5.6,13-14.6C177.4,192.6,172.4,187,164.4,187z M164.4,212.9
		c-5.8,0-9.4-4.4-9.4-11.3c0-7,3.6-11.3,9.4-11.3s9.4,4.4,9.4,11.3C173.8,208.5,170.2,212.9,164.4,212.9z"/>
	<polygon points="116.9,172.9 115.1,171.9 114.5,171.6 113.9,171.9 112.2,172.9 112.2,172.9 64.7,200.4 15.4,171.9 14.2,174 
		63.5,202.5 63.5,259.4 65.9,259.4 65.9,202.5 114.5,174.4 148.4,193.9 149.6,191.8 116.9,172.9 	"/>
</g>
</svg>
