<?xml version="1.0" encoding="iso-8859-1"?>
<!-- Generator: Adobe Illustrator 19.1.0, SVG Export Plug-In . SVG Version: 6.00 Build 0)  -->
<svg version="1.1" id="&#x421;&#x43B;&#x43E;&#x439;_1"
	 xmlns="http://www.w3.org/2000/svg" xmlns:xlink="http://www.w3.org/1999/xlink" x="0px" y="0px" viewBox="0 0 756.113 402.123"
	 style="enable-background:new 0 0 756.113 402.123;" xml:space="preserve" width="756.113" height="402.123">
<g>
	<rect x="119.437" y="281.509" transform="matrix(-0.866 -0.5 0.5 -0.866 124.1899 598.2948)" width="45.628" height="2"/>
	<rect x="81.979" y="293.916" width="2" height="45.628"/>
	<rect x="141.252" y="328.137" transform="matrix(-0.4996 -0.8663 0.8663 -0.4996 -90.6936 649.5125)" width="2" height="45.628"/>
	<rect x="241.018" y="155.337" transform="matrix(0.4995 0.8663 -0.8663 0.4995 275.4488 -120.5003)" width="2" height="45.628"/>
	<rect x="181.745" y="121.116" width="2" height="45.628"/>
	<rect x="219.204" y="108.709" transform="matrix(0.866 0.5 -0.5 0.866 87.2791 -106.3108)" width="45.628" height="2"/>
	<path d="M373.142,286.064l-1.232,0.712l-47.651-27.511l0,0l-1.732-1l-0.5-0.288l-0.5,0.288l-1.732,1l0,0l-47.651,27.511
		l-48.883-28.223V203.53v-1.423l49.383-28.511l0.5-0.288v-0.579v-2v-53.6v-2l0.001-0.577l-0.501-0.289L223.26,85.753V84.33V43.825
		h-2V84.33v1.423l-49.383,28.511l-0.5,0.288v0.579v2v53.6v2l-0.001,0.577l0.501,0.289l49.383,28.511v1.423v55.023l-48.883,28.223
		l-47.651-27.511l-1.732-1l-0.5-0.288l-0.5,0.288l-1.732,1l-48.151,27.8l-0.5,0.288v0.579v2v53.6v1.423l-1.232,0.711l-34.644,20.002
		l0.999,1.733l35.877-20.714l49.383,28.512l0.5,0.288l0.5-0.288l49.883-28.8l0.5-0.288v-0.579v-2v-53.6v-1.423l48.883-28.223
		l49.384,28.512l0.5,0.288l0.5-0.288l49.383-28.512l47.651,27.512l1.732,1l0.5,0.288l0.5-0.288l1.732-1l31.359-18.105l-0.999-1.732
		L373.142,286.064z M171.377,289.93v53.6v1.423l-1.232,0.711l-47.651,27.511l-48.883-28.223v-1.423v-53.6v-1.423l1.232-0.711
		l47.651-27.511l47.651,27.511l1.232,0.711V289.93z M173.377,172.153v-1.423v-53.6v-1.423l1.232-0.711l47.651-27.511l47.651,27.511
		l1.232,0.711v1.423v53.6v1.423l-48.883,28.223L173.377,172.153z M222.26,259.13L222.26,259.13L222.26,259.13L222.26,259.13z"/>
	<polygon points="521.558,200.376 472.175,171.864 471.675,171.576 471.176,171.864 469.444,172.864 423.025,199.664 
		423.025,199.664 421.293,200.664 420.792,200.951 420.792,201.53 420.792,203.53 420.792,238.17 422.792,238.17 422.792,203.53 
		422.792,202.108 424.024,201.397 424.024,201.396 471.675,173.885 472.908,174.597 520.558,202.107 520.558,257.13 
		520.558,258.553 519.327,259.264 519.327,259.264 472.908,286.064 471.675,286.775 439.084,267.959 438.085,269.692 
		469.444,287.796 471.176,288.796 471.675,289.085 472.175,288.796 520.326,260.996 522.058,259.996 522.559,259.709 
		522.559,259.13 522.559,257.13 522.559,202.107 555.149,183.292 554.149,181.559 	"/>
	<rect x="628.724" y="172.324" transform="matrix(0.5878 -0.809 0.809 0.5878 128.3528 598.5539)" width="45.628" height="2"/>
	<polygon points="571.132,114.179 570.442,114.403 570.442,115.13 570.442,117.13 570.442,119.575 537.12,95.366 535.944,96.983 
		570.442,122.048 570.442,151.77 572.442,151.77 572.442,117.13 572.442,115.857 609.195,103.915 608.576,102.013 577.711,112.042 
		543.214,86.978 542.038,88.595 575.36,112.806 	"/>
	<rect x="656.562" y="234.849" transform="matrix(-0.9945 -0.1045 0.1045 -0.9945 1330.3784 541.4198)" width="45.628" height="2"/>
	<rect x="696.792" y="179.478" transform="matrix(-0.4067 -0.9135 0.9135 -0.4067 847.4193 911.2779)" width="45.628" height="2"/>
	<polygon points="14.173,387.953 17.689,387.953 17.689,375.746 30.169,375.746 30.169,372.621 17.689,372.621 17.689,362.934 
		31.283,362.934 31.283,359.77 14.173,359.77 	"/>
	<polygon points="429.566,266.699 429.39,266.699 413.96,244.57 410.542,244.57 410.542,272.753 414.019,272.753 414.019,250.702 
		414.195,250.702 429.624,272.753 433.042,272.753 433.042,244.57 429.566,244.57 	"/>
	<polygon points="217.221,30.146 229.702,30.146 229.702,27.021 217.221,27.021 217.221,17.334 230.815,17.334 230.815,14.17 
		213.705,14.17 213.705,42.353 217.221,42.353 	"/>
	<polygon points="579.215,180.299 579.039,180.299 563.609,158.17 560.192,158.17 560.192,186.353 563.668,186.353 563.668,164.303 
		563.844,164.303 579.274,186.353 582.692,186.353 582.692,158.17 579.215,158.17 	"/>
	<polygon points="618.449,88.903 618.625,88.903 634.054,110.954 637.472,110.954 637.472,82.77 633.996,82.77 633.996,104.899 
		633.82,104.899 618.39,82.77 614.972,82.77 614.972,110.954 618.449,110.954 	"/>
	<polygon points="618.488,65.938 633.957,65.938 633.957,78.77 637.472,78.77 637.472,50.587 633.957,50.587 633.957,62.774 
		618.488,62.774 618.488,50.587 614.972,50.587 614.972,78.77 618.488,78.77 	"/>
	<path d="M524.842,95.6c7.988,0,12.988-5.605,12.988-14.551s-5-14.57-12.988-14.57c-7.988,0-12.988,5.625-12.988,14.57
		S516.854,95.6,524.842,95.6z M524.842,69.721c5.762,0,9.375,4.375,9.375,11.328c0,6.934-3.613,11.309-9.375,11.309
		c-5.762,0-9.375-4.375-9.375-11.309C515.467,74.096,519.08,69.721,524.842,69.721z"/>
	<path d="M741.705,202.165l-23.428-52.62l-0.234-0.527l-0.574-0.061l-1.989-0.209v0l-54.854-5.765l-19.935-27.439l-1.617,1.177
		l19.769,27.21l-32.253,44.393l-0.749,1.031l-36.753-11.942l-0.619,1.902l37.021,12.029l22.433,50.386l0.813,1.827l0.234,0.527
		l0.573,0.061l1.989,0.209v0l53.306,5.603v0l1.989,0.209l0.574,0.062l0.34-0.468L741.6,203.16l0.34-0.466L741.705,202.165z
		 M738.807,203.601l-32.342,44.515l-1.414-0.149v0l-54.722-5.752l-0.579-1.3h0l-22.38-50.266l32.341-44.514l0,0l0.836-1.152
		l1.414,0.149v0l53.307,5.603v0l1.416,0.149l22.958,51.565L738.807,203.601z"/>
</g>
</svg>
