<?xml version="1.0" encoding="utf-8"?>
<!-- Generator: Adobe Illustrator 28.0.0, SVG Export Plug-In . SVG Version: 6.00 Build 0)  -->
<svg version="1.1" id="Слой_1" xmlns="http://www.w3.org/2000/svg" xmlns:xlink="http://www.w3.org/1999/xlink" x="0px" y="0px"
	 viewBox="0 0 716.8 432.3" style="enable-background:new 0 0 716.8 432.3;" xml:space="preserve" width="716.8" height="432.3">
<g>
	<rect x="173.6" y="64" width="2.4" height="45.6"/>
	<rect x="211.2" y="119.8" transform="matrix(0.8661 -0.4998 0.4998 0.8661 -29.1547 133.173)" width="45.6" height="2.4"/>
	<rect x="232.8" y="29.8" transform="matrix(0.5001 -0.866 0.866 0.5001 71.4289 228.9638)" width="2.4" height="45.6"/>
	<path d="M330,133.9l1.2,2.1l32.8-18.9l49.3,28.5l0,0l0.6,0.3l0.6-0.3l0,0l0.1-0.1l1.7-0.9l0,0l46.4-26.8l0,0l1.3-0.7l0.4-0.2l0,0
		l0.6-0.3v-0.7v-2V60v-2v-0.7l-0.6-0.3l0,0l-0.4-0.3l-1.3-0.7l0,0l-46.4-26.8l0,0l-1.7-0.9l-0.1-0.1l0,0l-0.6-0.3l-0.6,0.3l0,0
		l-49.3,28.5l-32.6-18.8l-1.2,2.1l32.6,18.8v56.2L330,133.9z M462.5,113.6v1.3L413.8,143l-1.1-0.6l0,0l-47.6-27.5V58.7l47.6-27.5
		l0,0l1.1-0.6l48.7,28.1V60V113.6z"/>
	<path d="M298.7,39.5l-1.2-2.1l-33.3,19.3l-49.1-28.3l-0.8-0.5l-0.7,0.4l-48,27.7l0,0l-2.3,1.3V58v2v54.9l-33.4,19.3l1.2,2.1
		l33.4-19.3l49.1,28.4l0.7,0.4l0.8-0.5l49.1-28.3l32.8,18.9l1.2-2.1l-32.8-18.9V58.7L298.7,39.5z M165.6,58.7l47.6-27.5l0,0l1.1-0.6
		l1.1,0.6l0,0L263,58.7v56.2l-47.6,27.5l0,0l-1.1,0.6l-1.1-0.6l0,0l-47.6-27.5V60V58.7z"/>
	<polygon points="373.7,110.7 413.2,133.5 414.4,131.4 374.9,108.6 	"/>
	<rect x="452.1" y="64" width="2.4" height="45.6"/>
	<polygon points="373.7,63 374.9,65.1 414.4,42.3 413.2,40.2 	"/>
	<rect x="88.8" y="120" transform="matrix(0.5005 -0.8657 0.8657 0.5005 -67.7961 142.9561)" width="2.4" height="20.4"/>
	<rect x="88" y="165.3" transform="matrix(0.5017 -0.865 0.865 0.5017 -96.2547 165.7987)" width="15.5" height="2.4"/>
	<rect x="97.1" y="170.5" transform="matrix(0.4998 -0.8661 0.8661 0.4998 -96.2491 176.6397)" width="15.5" height="2.4"/>
	<rect x="132.2" y="159.2" transform="matrix(0.8663 -0.4995 0.4995 0.8663 -65.429 88.9281)" width="2.4" height="15.1"/>
	<rect x="123.2" y="164.4" transform="matrix(0.8662 -0.4997 0.4997 0.8662 -69.2506 85.142)" width="2.4" height="15.1"/>
	<rect x="12.2" y="133.6" transform="matrix(0.8661 -0.4998 0.4998 0.8661 -63.1511 33.7626)" width="38.5" height="2.4"/>
	<rect x="63.5" y="58" width="2.4" height="36.4"/>
	<polygon points="614,373.8 613.4,373.4 612.8,373.8 612.8,373.8 612.5,373.9 611,374.8 611,374.8 564.6,401.6 564.6,401.6 
		563.5,402.2 514.8,374.1 514.8,319.2 514.8,317.2 514.8,316.5 512.5,315.2 512.5,315.2 466,288.4 466,288.4 464.5,287.5 
		464.3,287.4 464.3,287.4 463.7,287 463.1,287.4 463.1,287.4 429.7,306.7 430.9,308.7 462.6,290.4 462.6,290.5 463.7,289.8 
		512.4,317.9 512.4,319.2 512.4,374.1 463.7,402.2 462.6,401.6 462.6,401.6 416.2,374.8 416.2,374.8 415,374.1 415,372.8 415,337.5 
		412.6,337.5 412.6,372.8 412.6,374.8 412.6,375.5 413.2,375.9 413.2,375.9 463.1,404.7 463.1,404.7 463.7,405 464.3,404.7 
		464.3,404.7 464.5,404.6 466,403.7 466,403.6 513.6,376.2 561.1,403.6 561.1,403.7 562.7,404.6 562.9,404.7 562.9,404.7 563.5,405 
		564.1,404.7 564.1,404.7 613.4,376.2 614.5,376.9 614.5,376.8 644.7,394.3 645.9,392.2 614,373.8 	"/>
	<polygon points="325.1,158.3 325.1,129.6 321.5,129.6 321.5,151.9 321.4,151.9 307,129.6 303.1,129.6 303.1,158.3 306.7,158.3 
		306.7,135.9 306.8,135.9 321.1,158.3 	"/>
	<path d="M318.1,39.9c-1.6,0.6-3.4,0.6-3.4,0.6c-3.6,0-5.6-1.8-5.6-1.8c-2-1.8-2.4-5.3-2.4-5.3l-3.7,0.9c0.7,4.6,3.8,7,3.8,7
		c3.1,2.4,8.2,2.4,8.2,2.4c3,0,5.3-1.1,5.3-1.1c2.4-1.1,3.7-3.1,3.7-3.1c1.3-2,1.3-4.4,1.3-4.4c0-2.4-1-4-1-4
		c-1-1.6-3.3-2.7-3.3-2.7c-2.3-1.1-6.1-2-6.1-2c-2.8-0.6-4.3-1.1-4.3-1.1c-1.5-0.6-2.2-1.4-2.2-1.4c-0.7-0.8-0.7-2.2-0.7-2.2
		c0-1.4,0.8-2.4,0.8-2.4c0.8-1,2.2-1.5,2.2-1.5c1.4-0.6,3.3-0.6,3.3-0.6c2.8,0,4.5,1.4,4.5,1.4c1.6,1.3,2.3,4.4,2.3,4.4h0.1l3.6-0.8
		c-0.3-2.6-1.7-4.4-1.7-4.4c-1.4-1.8-3.6-2.8-3.6-2.8c-2.2-1-5.2-1-5.2-1c-2.8,0-5,1-5,1c-2.3,1-3.6,2.8-3.6,2.8
		c-1.3,1.7-1.3,3.9-1.3,3.9c0,2,0.7,3.4,0.7,3.4c0.6,1.4,2.3,2.6,2.3,2.6c1.7,1.1,4.6,1.9,4.6,1.9c0.7,0.2,2.3,0.6,2.3,0.6
		c2.8,0.6,4.2,1.1,4.2,1.1c1.7,0.6,2.6,1.6,2.6,1.6c0.9,1,0.9,2.8,0.9,2.8c0,1.3-0.9,2.4-0.9,2.4C319.7,39.3,318.1,39.9,318.1,39.9z
		"/>
	<path d="M124.3,154.8c1.4-2,1.4-4.4,1.4-4.4c0-2.4-1-4-1-4c-1-1.6-3.3-2.7-3.3-2.7c-2.2-1.1-6.1-2-6.1-2c-2.8-0.6-4.3-1.1-4.3-1.1
		c-1.5-0.6-2.2-1.4-2.2-1.4c-0.7-0.8-0.7-2.2-0.7-2.2c0-1.4,0.8-2.4,0.8-2.4c0.8-1,2.2-1.5,2.2-1.5c1.4-0.6,3.3-0.6,3.3-0.6
		c2.8,0,4.5,1.4,4.5,1.4c1.6,1.3,2.3,4.4,2.3,4.4h0.1l3.6-0.8c-0.3-2.6-1.7-4.4-1.7-4.4c-1.4-1.8-3.6-2.8-3.6-2.8
		c-2.3-1-5.2-1-5.2-1c-2.8,0-5,1-5,1c-2.3,1-3.6,2.8-3.6,2.8c-1.3,1.7-1.3,3.9-1.3,3.9c0,2,0.7,3.4,0.7,3.4c0.6,1.4,2.3,2.6,2.3,2.6
		c1.6,1.1,4.6,1.9,4.6,1.9c0.7,0.2,2.3,0.6,2.3,0.6c2.8,0.6,4.2,1.1,4.2,1.1c1.7,0.6,2.6,1.6,2.6,1.6c0.9,1,0.9,2.8,0.9,2.8
		c0,1.3-0.9,2.4-0.9,2.4c-0.9,1.1-2.5,1.7-2.5,1.7c-1.6,0.6-3.4,0.6-3.4,0.6c-3.6,0-5.6-1.8-5.6-1.8c-2-1.8-2.4-5.3-2.4-5.3
		l-3.7,0.9c0.6,4.6,3.7,7,3.7,7c3.1,2.4,8.2,2.4,8.2,2.4c3,0,5.3-1.1,5.3-1.1C123,156.7,124.3,154.8,124.3,154.8z"/>
	<polygon points="75.6,100.8 72,100.8 72,123.1 71.9,123.1 57.6,100.8 53.7,100.8 53.7,129.5 57.3,129.5 57.3,107.1 57.3,107.1 
		71.7,129.5 75.6,129.5 	"/>
	<path d="M92.8,181.1c-3.1-1.8-7-1.8-7-1.8c-3.9,0-7,1.8-7,1.8c-3.2,1.8-4.9,5.2-4.9,5.2c-1.8,3.4-1.8,7.8-1.8,7.8
		c0,4.3,1.8,7.7,1.8,7.7c1.8,3.4,4.9,5.2,4.9,5.2c3.1,1.8,7.1,1.8,7.1,1.8c3.9,0,7-1.8,7-1.8c3.1-1.8,4.9-5.2,4.9-5.2
		c1.8-3.4,1.8-7.8,1.8-7.8c0-4.5-1.8-7.8-1.8-7.8C95.9,182.9,92.8,181.1,92.8,181.1z M94.3,200.3c-1.2,2.6-3.5,4-3.5,4
		c-2.2,1.4-5,1.4-5,1.4c-2.8,0-5.1-1.4-5.1-1.4c-2.2-1.4-3.4-4-3.4-4c-1.3-2.6-1.3-6.1-1.3-6.1c0-3.6,1.2-6.3,1.2-6.3
		c1.2-2.6,3.4-4,3.4-4c2.2-1.4,5.1-1.4,5.1-1.4c2.9,0,5.1,1.4,5.1,1.4c2.2,1.4,3.4,4,3.4,4c1.2,2.6,1.2,6.2,1.2,6.2
		C95.5,197.7,94.3,200.3,94.3,200.3z"/>
	<path d="M150.4,181.1c-3.1-1.8-7-1.8-7-1.8c-3.9,0-7,1.8-7,1.8c-3.2,1.8-4.9,5.2-4.9,5.2c-1.8,3.4-1.8,7.8-1.8,7.8
		c0,4.3,1.8,7.7,1.8,7.7c1.8,3.4,4.9,5.2,4.9,5.2c3.1,1.8,7.1,1.8,7.1,1.8c3.9,0,7-1.8,7-1.8c3.1-1.8,4.9-5.2,4.9-5.2
		c1.8-3.4,1.8-7.8,1.8-7.8c0-4.5-1.8-7.8-1.8-7.8C153.5,182.9,150.4,181.1,150.4,181.1z M151.9,200.3c-1.2,2.6-3.5,4-3.5,4
		c-2.2,1.4-5,1.4-5,1.4c-2.8,0-5.1-1.4-5.1-1.4c-2.2-1.4-3.4-4-3.4-4c-1.3-2.6-1.3-6.1-1.3-6.1c0-3.6,1.2-6.3,1.2-6.3
		c1.2-2.6,3.4-4,3.4-4c2.2-1.4,5.1-1.4,5.1-1.4c2.9,0,5.1,1.4,5.1,1.4c2.2,1.4,3.4,4,3.4,4c1.2,2.6,1.2,6.2,1.2,6.2
		C153.1,197.7,151.9,200.3,151.9,200.3z"/>
	<polygon points="366.3,288.4 365.1,287.7 365.1,286.4 365.1,232.8 365.1,230.8 365.1,230.1 364.5,229.8 364.5,229.8 364.4,229.7 
		362.8,228.8 362.8,228.8 315.3,201.3 315.3,200 315.3,164.7 312.9,164.7 312.9,200 312.9,202 312.9,202.7 313.5,203.1 313.5,203.1 
		313.5,203.1 315.2,204.1 315.2,204 362.7,231.5 362.7,232.8 362.7,286.4 362.7,288.4 362.7,289.1 363.3,289.5 363.3,289.5 
		396.7,308.7 397.9,306.7 366.3,288.4 	"/>
	<polygon points="424.8,331.1 424.8,302.4 421.2,302.4 421.2,324.7 421.1,324.7 406.8,302.4 402.9,302.4 402.9,331.1 406.5,331.1 
		406.5,308.7 406.5,308.7 420.9,331.1 	"/>
	<path d="M670.3,390.4c-3.1-1.8-7-1.8-7-1.8c-3.9,0-7,1.8-7,1.8c-3.1,1.8-4.9,5.2-4.9,5.2c-1.8,3.4-1.8,7.8-1.8,7.8
		c0,4.3,1.8,7.7,1.8,7.7c1.8,3.4,4.9,5.2,4.9,5.2c3.1,1.8,7,1.8,7,1.8c3.9,0,7-1.8,7-1.8c3.1-1.8,4.9-5.2,4.9-5.2
		c1.8-3.4,1.8-7.8,1.8-7.8c0-4.5-1.8-7.8-1.8-7.8C673.4,392.2,670.3,390.4,670.3,390.4z M671.8,409.6c-1.2,2.6-3.5,4-3.5,4
		c-2.2,1.4-5.1,1.4-5.1,1.4c-2.8,0-5-1.4-5-1.4c-2.2-1.4-3.4-4-3.4-4c-1.3-2.6-1.3-6.1-1.3-6.1c0-3.6,1.2-6.3,1.2-6.3
		c1.2-2.6,3.4-4,3.4-4c2.2-1.4,5.1-1.4,5.1-1.4c2.9,0,5.1,1.4,5.1,1.4c2.2,1.4,3.4,4,3.4,4c1.2,2.6,1.2,6.2,1.2,6.2
		C673,407,671.8,409.6,671.8,409.6z"/>
	<polygon points="698.8,389.1 698.8,400.8 684.7,400.8 684.7,389.1 680.9,389.1 680.9,417.7 684.7,417.7 684.7,404.2 698.8,404.2 
		698.8,417.7 702.6,417.7 702.6,389.1 	"/>
</g>
</svg>
