<?xml version="1.0" encoding="iso-8859-1"?>
<!-- Generator: Adobe Illustrator 19.1.0, SVG Export Plug-In . SVG Version: 6.00 Build 0)  -->
<svg version="1.1" id="&#x421;&#x43B;&#x43E;&#x439;_1"
	 xmlns="http://www.w3.org/2000/svg" xmlns:xlink="http://www.w3.org/1999/xlink" x="0px" y="0px" viewBox="0 0 694.148 159.647"
	 style="enable-background:new 0 0 694.148 159.647;" xml:space="preserve" width="694.148" height="159.647">
<g>
	<polygon points="113.936,99.963 113.936,101.27 112.805,101.923 66.386,128.723 66.386,128.723 65.253,129.377 64.121,128.723 
		64.121,128.723 17.702,101.923 16.57,101.27 16.57,99.963 16.57,46.363 16.57,45.055 17.702,44.402 65.253,16.948 97.744,35.707 
		98.943,33.628 67.585,15.523 65.853,14.523 65.253,14.177 64.654,14.523 62.922,15.523 14.771,43.323 14.17,43.668 14.17,44.363 
		14.17,46.363 14.17,99.963 14.17,101.963 14.169,102.655 14.771,103.002 62.922,130.802 64.654,131.802 65.253,132.148 
		65.853,131.802 67.585,130.802 115.736,103.002 116.336,102.657 116.336,101.963 116.336,99.963 116.336,64.386 113.936,64.386 	
		"/>
	<rect x="523.369" y="50.349" width="2.4" height="45.628"/>
	<rect x="582.641" y="84.57" transform="matrix(-0.4996 -0.8663 0.8663 -0.4996 782.4833 666.7973)" width="2.4" height="45.628"/>
	<path d="M615.167,46.363v-2l0.001-0.693l-0.602-0.347l-49.883-28.8l-0.599-0.346l-0.599,0.346l-49.284,28.454l-47.552-27.454
		l-1.732-1l-0.599-0.346l-0.599,0.346l-49.284,28.454l-49.284-28.454l-0.6-0.346l-0.599,0.346l-1.732,1l-30.026,17.335l1.199,2.079
		l31.158-17.989l47.552,27.454l1.732,1l0.6,0.346l0.599-0.346l1.732-1l47.552-27.454l48.683,28.107v54.907v2L513,102.655
		l0.602,0.347l48.151,27.8l1.732,1l0.599,0.346l0.599-0.346l1.732-1l47.551-27.454l31.085,17.947l1.199-2.079l-31.084-17.946V46.363
		z M612.767,46.363v54.907l-48.683,28.107l-48.683-28.107v-1.307V45.056l48.683-28.107l47.552,27.454l0,0l1.132,0.653V46.363z"/>
	<rect x="561.027" y="37.742" transform="matrix(-0.866 -0.5 0.5 -0.866 1069.9918 364.587)" width="45.628" height="2.4"/>
	<polygon points="122.91,51.931 122.734,51.931 107.304,29.802 103.886,29.802 103.886,57.986 107.363,57.986 107.363,35.935 
		107.539,35.935 122.968,57.986 126.386,57.986 126.386,29.802 122.91,29.802 	"/>
	<polygon points="264.785,14.177 264.186,14.523 216.035,42.323 214.902,42.977 213.77,42.323 167.351,15.523 165.619,14.523 
		165.019,14.177 164.42,14.523 162.688,15.523 131.329,33.628 132.528,35.707 165.019,16.948 212.571,44.402 212.571,44.402 
		214.303,45.402 214.902,45.748 215.502,45.402 217.234,44.402 217.234,44.402 264.785,16.948 298.61,36.477 299.809,34.398 
		265.385,14.523 	"/>
	<path d="M314.668,29.568c-7.988,0-12.988,5.625-12.988,14.57c0,8.945,5,14.551,12.988,14.551c7.988,0,12.988-5.605,12.988-14.551
		C327.657,35.193,322.657,29.568,314.668,29.568z M314.668,55.447c-5.762,0-9.375-4.375-9.375-11.309
		c0-6.953,3.613-11.328,9.375-11.328c5.762,0,9.375,4.375,9.375,11.328C324.043,51.072,320.43,55.447,314.668,55.447z"/>
	<path d="M660.416,119.591c4.023,0,7.246,2.422,8.145,6.113h3.555c-0.898-5.625-5.566-9.355-11.699-9.355
		c-7.715,0-12.695,5.703-12.695,14.551c0,8.926,4.922,14.57,12.695,14.57c6.23,0,10.41-3.105,11.699-8.672h-3.555
		c-1.016,3.438-3.984,5.43-8.125,5.43c-5.566,0-9.102-4.414-9.102-11.328C651.334,124.044,654.909,119.591,660.416,119.591z"/>
	<rect x="676.58" y="115.587" width="3.398" height="29.414"/>
</g>
</svg>
