<?xml version="1.0" encoding="utf-8"?>
<!-- Generator: Adobe Illustrator 27.6.1, SVG Export Plug-In . SVG Version: 6.00 Build 0)  -->
<svg version="1.1" id="Слой_1" xmlns="http://www.w3.org/2000/svg" xmlns:xlink="http://www.w3.org/1999/xlink" x="0px" y="0px"
	 viewBox="0 0 673.19 380.39" style="enable-background:new 0 0 673.19 380.39;" xml:space="preserve" width="673.19" height="380.39">
<g>
	<rect x="288.38" y="183.63" transform="matrix(0.5004 -0.8658 0.8658 0.5004 -28.3972 350.5719)" width="2.4" height="32.53"/>
	<rect x="262.01" y="267.07" transform="matrix(0.8662 -0.4996 0.4996 0.8662 -96.8168 174.9128)" width="32.51" height="2.4"/>
	<rect x="182.92" y="173.84" transform="matrix(0.4998 -0.8661 0.8661 0.4998 -78.2138 257.8275)" width="2.4" height="45.59"/>
	<rect x="123.7" y="208.03" width="2.4" height="45.6"/>
	<rect x="161.34" y="263.81" transform="matrix(0.8661 -0.4998 0.4998 0.8661 -107.8101 127.5051)" width="45.57" height="2.4"/>
	<rect x="12.25" y="191.53" transform="matrix(0.8654 -0.501 0.501 0.8654 -92.4181 41.3806)" width="37.15" height="2.4"/>
	<rect x="29.52" y="250.41" transform="matrix(0.4998 -0.8661 0.8661 0.4998 -217.4984 161.0931)" width="2.4" height="36.9"/>
	<polygon points="314.06,200.65 281.3,181.72 280.1,183.79 312.86,202.72 312.86,238.43 315.26,238.43 315.26,202.72 348.03,183.79 
		346.82,181.72 	"/>
	<polygon points="462.5,171.23 462.5,172.54 414.94,200 414.94,199.99 413.82,200.64 381.07,181.72 379.86,183.79 411.48,202.06 
		411.47,202.07 413.06,202.98 413.22,203.07 413.22,203.07 413.83,203.41 414.42,203.07 414.43,203.07 462.58,175.27 462.59,175.27 
		463.87,174.52 464.3,174.27 464.3,174.27 464.9,173.92 464.9,173.23 464.9,171.23 464.9,135.83 462.5,135.83 	"/>
	<polygon points="365.14,117.63 365.14,116.33 413.82,88.22 414.94,88.87 414.94,88.86 446.59,107.11 447.78,105.03 414.74,85.98 
		413.83,85.45 413.22,85.8 413.22,85.8 413.19,85.81 411.47,86.79 411.48,86.8 365.06,113.6 365.06,113.6 363.77,114.35 
		363.34,114.59 363.34,114.6 362.75,114.94 362.75,115.63 362.75,117.63 362.75,152.03 365.14,152.03 	"/>
	<rect x="581.98" y="117.44" transform="matrix(0.9509 -0.3094 0.3094 0.9509 -14.7734 187.3056)" width="2.4" height="45.59"/>
	<polygon points="658.33,115.1 658.33,115.1 658.04,114.89 656.69,113.9 656.69,113.91 628.37,93.34 626.96,95.28 656.2,116.52 
		655.85,117.57 655.87,117.58 639.29,168.59 639.28,168.59 638.95,169.64 637.82,169.64 584.22,169.64 583.09,169.64 565.84,116.53 
		595.05,95.28 593.64,93.34 564.35,114.64 519.98,89.13 519.98,50.19 517.59,50.19 517.59,87.75 514.18,85.79 514.18,85.79 
		513.59,85.45 512.57,86.04 509.58,87.76 509.58,50.19 507.18,50.19 507.18,89.14 479.62,105.03 480.82,107.11 512.46,88.87 
		512.46,88.87 513.59,88.22 514.7,88.87 514.71,88.86 563.43,116.88 580.47,169.33 580.45,169.34 581.07,171.18 581.08,171.21 
		581.08,171.21 581.36,172.03 582.22,172.03 584.22,172.03 637.82,172.03 639.82,172.03 640.7,172.03 640.97,171.18 658.72,116.58 
		659.05,115.63 	"/>
	<rect x="616.03" y="139.03" transform="matrix(0.3088 -0.9511 0.9511 0.3088 308.1669 704.5264)" width="45.59" height="2.4"/>
	<polygon points="256.78,164.67 256.86,164.67 271.26,187.03 275.14,187.03 275.14,158.43 271.54,158.43 271.54,180.75 
		271.46,180.75 257.1,158.43 253.18,158.43 253.18,187.03 256.78,187.03 	"/>
	<polygon points="321.42,267.15 321.34,267.15 306.98,244.83 303.06,244.83 303.06,273.43 306.66,273.43 306.66,251.07 
		306.74,251.07 321.14,273.43 325.02,273.43 325.02,244.83 321.42,244.83 	"/>
	<polygon points="371.3,180.75 371.22,180.75 356.86,158.43 352.94,158.43 352.94,187.03 356.54,187.03 356.54,164.67 
		356.62,164.67 371.02,187.03 374.9,187.03 374.9,158.43 371.3,158.43 	"/>
	<path d="M262.98,289.13v35.71h2.4v-35.71l32.76-18.93l-1.2-2.08l-32.76,18.94l-48.72-28.11v-56.22l32.8-18.93l-1.2-2.08
		l-32.8,18.93l-47.53-27.44l0.01-0.01l-2.36-1.34l-0.74,0.43l-49.14,28.37l-31.52-18.21l-1.2,2.08l31.52,18.21v56.22l-31.32,18.09
		l1.2,2.08l31.32-18.09l49.28,28.45l0,0l0.59,0.34l0.61-0.34l0.01-0.01l1.75-0.99l-0.01-0.01l47.53-27.45L262.98,289.13z
		 M213.06,258.94l-48.68,28.11l-1.12-0.65l0,0.01l-47.56-27.46v-56.22l47.56-27.46l0,0.01l1.12-0.65l48.68,28.1V258.94z"/>
	<polygon points="271.54,353.55 271.46,353.55 257.1,331.23 253.18,331.23 253.18,359.83 256.78,359.83 256.78,337.47 
		256.86,337.47 271.26,359.83 275.14,359.83 275.14,331.23 271.54,331.23 	"/>
	<polygon points="297.02,342.99 282.94,342.99 282.94,331.23 279.14,331.23 279.14,359.83 282.94,359.83 282.94,346.35 
		297.02,346.35 297.02,359.83 300.82,359.83 300.82,331.23 297.02,331.23 	"/>
	<path d="M309.34,362.39c0.68-0.64,1.76-1.56,1.76-1.56l1.84-1.52c2.56-2.12,3.84-3.96,3.84-3.96c1.24-1.8,1.24-3.72,1.24-3.72
		c0-1.52-0.76-2.76-0.76-2.76c-0.72-1.24-2.16-1.96-2.16-1.96c-1.4-0.76-3.32-0.76-3.32-0.76c-1.84,0-3.24,0.68-3.24,0.68
		c-1.4,0.68-2.24,1.96-2.24,1.96c-0.84,1.28-1.04,3.04-1.04,3.04l2.56,0.4c0.12-2,1.16-3.04,1.16-3.04c1-1,2.76-1,2.76-1
		c1.08,0,1.92,0.44,1.92,0.44c0.88,0.44,1.36,1.2,1.36,1.2c0.52,0.8,0.52,1.76,0.52,1.76c0,1.36-1.08,2.88-1.08,2.88
		c-1.04,1.48-3.32,3.36-3.32,3.36l-1.6,1.32c-2.4,2-3.56,3.68-3.56,3.68c-1.16,1.64-1.16,3.4-1.16,3.4h13.28v-2.4h-9.88
		C308.7,363.07,309.34,362.39,309.34,362.39z"/>
	<path d="M71.66,159.99c-3.08-1.84-7-1.84-7-1.84c-3.92,0-7.04,1.84-7.04,1.84c-3.12,1.84-4.92,5.24-4.92,5.24
		c-1.76,3.36-1.76,7.8-1.76,7.8c0,4.32,1.76,7.68,1.76,7.68c1.8,3.36,4.92,5.2,4.92,5.2c3.12,1.88,7.04,1.88,7.04,1.88
		c3.92,0,7-1.84,7-1.84c3.12-1.84,4.88-5.2,4.88-5.2c1.8-3.36,1.8-7.76,1.8-7.76c0-4.48-1.8-7.84-1.8-7.84
		C74.78,161.79,71.66,159.99,71.66,159.99z M73.14,179.19c-1.24,2.6-3.44,3.96-3.44,3.96c-2.24,1.4-5.08,1.4-5.08,1.4
		c-2.84,0-5.04-1.4-5.04-1.4c-2.24-1.36-3.48-3.92-3.48-3.92c-1.24-2.6-1.24-6.12-1.24-6.12c0-3.64,1.24-6.28,1.24-6.28
		c1.2-2.64,3.44-4.04,3.44-4.04c2.2-1.36,5.08-1.36,5.08-1.36c2.88,0,5.12,1.4,5.12,1.4c2.2,1.4,3.44,4.04,3.44,4.04
		c1.24,2.6,1.24,6.2,1.24,6.2C74.42,176.59,73.14,179.19,73.14,179.19z"/>
	<polygon points="471.06,123.15 470.98,123.15 456.62,100.83 452.7,100.83 452.7,129.43 456.3,129.43 456.3,107.07 456.38,107.07 
		470.78,129.43 474.66,129.43 474.66,100.83 471.06,100.83 	"/>
	<path d="M71.66,275.19c-3.08-1.84-7-1.84-7-1.84c-3.92,0-7.04,1.84-7.04,1.84c-3.12,1.84-4.92,5.24-4.92,5.24
		c-1.76,3.36-1.76,7.8-1.76,7.8c0,4.32,1.76,7.68,1.76,7.68c1.8,3.36,4.92,5.2,4.92,5.2c3.12,1.88,7.04,1.88,7.04,1.88
		c3.92,0,7-1.84,7-1.84c3.12-1.84,4.88-5.2,4.88-5.2c1.8-3.36,1.8-7.76,1.8-7.76c0-4.48-1.8-7.84-1.8-7.84
		C74.78,276.99,71.66,275.19,71.66,275.19z M73.14,294.39c-1.24,2.6-3.44,3.96-3.44,3.96c-2.24,1.4-5.08,1.4-5.08,1.4
		c-2.84,0-5.04-1.4-5.04-1.4c-2.24-1.36-3.48-3.92-3.48-3.92c-1.24-2.6-1.24-6.12-1.24-6.12c0-3.64,1.24-6.28,1.24-6.28
		c1.2-2.64,3.44-4.04,3.44-4.04c2.2-1.36,5.08-1.36,5.08-1.36c2.88,0,5.12,1.4,5.12,1.4c2.2,1.4,3.44,4.04,3.44,4.04
		c1.24,2.6,1.24,6.2,1.24,6.2C74.42,291.79,73.14,294.39,73.14,294.39z"/>
	<path d="M506.54,41.91c3.16,1.88,7.08,1.88,7.08,1.88c3.88,0,7-1.84,7-1.84c3.12-1.84,4.88-5.2,4.88-5.2
		c1.76-3.36,1.76-7.76,1.76-7.76c0-4.48-1.76-7.84-1.76-7.84c-1.76-3.36-4.88-5.16-4.88-5.16c-3.12-1.84-7-1.84-7-1.84
		c-3.92,0-7.04,1.84-7.04,1.84c-3.16,1.84-4.92,5.24-4.92,5.24c-1.8,3.36-1.8,7.8-1.8,7.8c0,4.32,1.8,7.68,1.8,7.68
		C503.42,40.07,506.54,41.91,506.54,41.91z M505.02,22.83c1.24-2.64,3.44-4.04,3.44-4.04c2.24-1.36,5.12-1.36,5.12-1.36
		c2.88,0,5.08,1.4,5.08,1.4c2.24,1.4,3.48,4.04,3.48,4.04c1.2,2.6,1.2,6.2,1.2,6.2c0,3.52-1.24,6.12-1.24,6.12
		c-1.24,2.6-3.48,3.96-3.48,3.96c-2.2,1.4-5.04,1.4-5.04,1.4c-2.84,0-5.08-1.4-5.08-1.4c-2.2-1.36-3.44-3.92-3.44-3.92
		c-1.24-2.6-1.24-6.12-1.24-6.12C503.82,25.47,505.02,22.83,505.02,22.83z"/>
	<path d="M603.98,94.91c3.12,1.84,7.04,1.84,7.04,1.84c3.92,0,7.04-1.8,7.04-1.8c3.08-1.84,4.88-5.2,4.88-5.2
		c1.76-3.36,1.76-7.8,1.76-7.8c0-4.48-1.76-7.8-1.76-7.8c-1.8-3.36-4.88-5.16-4.88-5.16c-3.12-1.84-7.04-1.84-7.04-1.84
		c-3.88,0-7.04,1.84-7.04,1.84c-3.12,1.84-4.92,5.2-4.92,5.2c-1.76,3.4-1.76,7.8-1.76,7.8c0,4.36,1.76,7.72,1.76,7.72
		C600.86,93.07,603.98,94.91,603.98,94.91z M602.46,75.83c1.24-2.64,3.44-4.04,3.44-4.04c2.24-1.4,5.08-1.4,5.08-1.4
		c2.92,0,5.12,1.4,5.12,1.4c2.2,1.44,3.44,4.04,3.44,4.04c1.24,2.64,1.24,6.2,1.24,6.2c0,3.56-1.24,6.16-1.24,6.16
		c-1.28,2.6-3.48,3.96-3.48,3.96c-2.2,1.36-5.08,1.36-5.08,1.36c-2.84,0-5.04-1.36-5.04-1.36c-2.2-1.36-3.48-3.96-3.48-3.96
		c-1.24-2.56-1.24-6.12-1.24-6.12C601.22,78.47,602.46,75.83,602.46,75.83z"/>
</g>
</svg>
