<?xml version="1.0" standalone="no" ?>
<!DOCTYPE svg PUBLIC "-//W3C//DTD SVG 1.1//EN" "http://www.w3.org/Graphics/SVG/1.1/DTD/svg11.dtd">
<svg width="650px" height="280px" viewBox="0 0 130 56" style="" xmlns="http://www.w3.org/2000/svg" xmlns:xlink="http://www.w3.org/1999/xlink" version="1.1" >
<text x="0" y="0" stroke="transparent" fill="#000000" transform="matrix(0.05 0 0 0.05 98.5161 19.3171)" style="font:normal normal normal 200px 'Arial'" >
H</text>
<text x="0" y="0" stroke="transparent" fill="#000000" transform="matrix(0.05 0 0 0.05 98.5161 27.8587)" style="font:normal normal normal 200px 'Arial'" >
N</text>
<text x="0" y="0" stroke="transparent" fill="#000000" transform="matrix(0.05 0 0 0.05 73.2962 13.4588)" style="font:normal normal normal 200px 'Arial'" >
OH</text>
<text x="0" y="0" stroke="transparent" fill="#000000" transform="matrix(0.05 0 0 0.05 48.3547 27.8587)" style="font:normal normal normal 200px 'Arial'" >
O</text>
<path stroke="transparent" fill="#000000" transform="matrix(0.05 0 0 0.05 -418 -226)" d="M 8650.63,5155.19 L 8656.63,5151.73 L 8662.63,5155.19 L 8662.63,5436.27 L 8650.63,5443.19 L 8650.63,5155.19 Z " />
<path stroke="transparent" fill="#000000" transform="matrix(0.05 0 0 0.05 -418 -226)" d="M 8702.47,5181.66 L 8714.47,5181.66 L 8714.47,5409.8 L 8702.47,5409.8 L 8702.47,5181.66 Z " />
<path stroke="transparent" fill="#000000" transform="matrix(0.05 0 0 0.05 -418 -226)" d="M 8662.63,5155.19 L 8656.63,5151.73 L 8656.63,5144.8 L 8900.05,5004.27 L 8906.05,5007.73 L 8906.05,5014.66 L 8662.63,5155.19 Z " />
<path stroke="transparent" fill="#000000" transform="matrix(0.05 0 0 0.05 -418 -226)" d="M 10658,5439.73 L 10646,5439.73 L 10646,5155.19 L 10652,5151.73 L 10658,5155.19 L 10658,5439.73 Z " />
<path stroke="transparent" fill="#000000" transform="matrix(0.05 0 0 0.05 -418 -226)" d="M 10898.4,5002.53 L 10904.4,5012.93 L 10658,5155.19 L 10652,5151.73 L 10652,5144.8 L 10898.4,5002.53 Z " />
<path stroke="transparent" fill="#000000" transform="matrix(0.05 0 0 0.05 -418 -226)" d="M 8650.63,5443.19 L 8662.63,5436.27 L 8906.05,5576.8 L 8906.05,5590.66 L 8650.63,5443.19 Z " />
<path stroke="transparent" fill="#000000" transform="matrix(0.05 0 0 0.05 -418 -226)" d="M 10153.1,5144.8 L 10153.1,5158.66 L 9903.71,5014.66 L 9903.71,5007.73 L 9909.71,5004.27 L 10153.1,5144.8 Z " />
<path stroke="transparent" fill="#000000" transform="matrix(0.05 0 0 0.05 -418 -226)" d="M 9654.29,5158.66 L 9654.29,5144.8 L 9897.71,5004.27 L 9903.71,5007.73 L 9903.71,5014.66 L 9654.29,5158.66 Z " />
<path stroke="transparent" fill="#000000" transform="matrix(0.05 0 0 0.05 -418 -226)" d="M 8906.05,5590.66 L 8906.05,5576.8 L 9149.46,5436.27 L 9161.46,5443.19 L 8906.05,5590.66 Z " />
<path stroke="transparent" fill="#000000" transform="matrix(0.05 0 0 0.05 -418 -226)" d="M 8909.05,5529.07 L 8903.05,5518.67 L 9100.62,5404.6 L 9106.62,5415 L 8909.05,5529.07 Z " />
<path stroke="transparent" fill="#000000" transform="matrix(0.05 0 0 0.05 -418 -226)" d="M 8906.05,5014.66 L 8906.05,5007.73 L 8912.05,5004.27 L 9155.46,5144.8 L 9155.46,5151.73 L 9149.46,5155.19 L 8906.05,5014.66 Z " />
<path stroke="transparent" fill="#000000" transform="matrix(0.05 0 0 0.05 -418 -226)" d="M 8903.05,5072.79 L 8909.05,5062.39 L 9106.62,5176.46 L 9100.62,5186.86 L 8903.05,5072.79 Z " />
<path stroke="transparent" fill="#000000" transform="matrix(0.05 0 0 0.05 -418 -226)" d="M 9161.46,5443.19 L 9149.46,5436.27 L 9149.46,5155.19 L 9155.46,5151.73 L 9161.46,5155.19 L 9161.46,5443.19 Z " />
<path stroke="transparent" fill="#000000" transform="matrix(0.05 0 0 0.05 -418 -226)" d="M 10153.1,5158.66 L 10153.1,5144.8 L 10298.8,5060.69 L 10304.8,5071.08 L 10153.1,5158.66 Z " />
<path stroke="transparent" fill="#000000" transform="matrix(0.05 0 0 0.05 -418 -226)" d="M 10652,5144.8 L 10652,5151.73 L 10646,5155.19 L 10498.9,5070.28 L 10504.9,5059.88 L 10652,5144.8 Z " />
<path stroke="transparent" fill="#000000" transform="matrix(0.05 0 0 0.05 -418 -226)" d="M 9909.71,5004.27 L 9903.71,5007.73 L 9897.71,5004.27 L 9897.71,4823.34 L 9909.71,4823.34 L 9909.71,5004.27 Z " />
<path stroke="transparent" fill="#000000" transform="matrix(0.05 0 0 0.05 -418 -226)" d="M 9654.29,5144.8 L 9654.29,5158.66 L 9490.64,5064.17 L 9496.64,5053.78 L 9654.29,5144.8 Z " />
<path stroke="transparent" fill="#000000" transform="matrix(0.05 0 0 0.05 -418 -226)" d="M 9161.46,5155.19 L 9155.46,5151.73 L 9155.46,5144.8 L 9312.93,5053.89 L 9318.92,5064.28 L 9161.46,5155.19 Z " />
<path stroke="transparent" fill="#000000" transform="matrix(0.05 0 0 0.05 -418 -226)" d="M 8900.05,4723.19 L 8912.05,4716.27 L 8912.05,5004.27 L 8906.05,5007.73 L 8900.05,5004.27 L 8900.05,4723.19 Z " />
<path stroke="transparent" fill="#000000" transform="matrix(0.05 0 0 0.05 -418 -226)" d="M 8656.63,4582.66 L 8656.63,4568.8 L 8912.05,4716.27 L 8900.05,4723.19 L 8656.63,4582.66 Z " />
<path stroke="transparent" fill="#000000" transform="matrix(0.05 0 0 0.05 -418 -226)" d="M 8653.63,4640.79 L 8659.63,4630.39 L 8857.21,4744.46 L 8851.21,4754.86 L 8653.63,4640.79 Z " />
<path stroke="transparent" fill="#000000" transform="matrix(0.05 0 0 0.05 -418 -226)" d="M 8413.22,4723.19 L 8401.22,4716.27 L 8656.63,4568.8 L 8656.63,4582.66 L 8413.22,4723.19 Z " />
<path stroke="transparent" fill="#000000" transform="matrix(0.05 0 0 0.05 -418 -226)" d="M 8413.22,5004.27 L 8401.22,5011.19 L 8401.22,4716.27 L 8413.22,4723.19 L 8413.22,5004.27 Z " />
<path stroke="transparent" fill="#000000" transform="matrix(0.05 0 0 0.05 -418 -226)" d="M 8465.06,4977.8 L 8453.06,4977.8 L 8453.06,4749.66 L 8465.06,4749.66 L 8465.06,4977.8 Z " />
<path stroke="transparent" fill="#000000" transform="matrix(0.05 0 0 0.05 -418 -226)" d="M 8656.63,5144.8 L 8656.63,5151.73 L 8650.63,5155.19 L 8401.22,5011.19 L 8413.22,5004.27 L 8656.63,5144.8 Z " />
</svg>
