<svg id="0" version="1.0" viewBox="0 0 1095.8464 1200.28" xmlns="http://www.w3.org/2000/svg" xmlns:svg="http://www.w3.org/2000/svg" width="1095.8464" height="1200.28">
  <g id="1" transform="matrix(3.5281599,0,0,3.5281599,-999.35129,-265.67044)">
    <path d="m464.75,76.4-52.4,0" fill="none" id="2" stroke="#000" stroke-linecap="butt" stroke-linejoin="miter" stroke-miterlimit="4" stroke-width="0.80000001px" style="stroke-dasharray:none;"/>
    <path d="m466.5,75.3-1.1,2.25-53.7,0-1.1-2.25,55.9,0z" fill="#000" fill-rule="evenodd" id="3"/>
    <path d="m460,86.3-42.9,0" fill="none" id="4" stroke="#000" stroke-linecap="butt" stroke-linejoin="miter" stroke-miterlimit="4" stroke-width="0.80000001px" style="stroke-dasharray:none;"/>
    <path d="m415.9,85.15,0,2.25,45.3,0,0-2.25-45.3,0z" fill="#000" fill-rule="evenodd" id="5"/>
    <path d="M498.9,118.05,467.15,77.6" fill="none" id="6" stroke="#000" stroke-linecap="butt" stroke-linejoin="miter" stroke-miterlimit="4" stroke-width="0.80000001px" style="stroke-dasharray:none;"/>
    <path d="m500.5,117.9-0.4,1.35-1.25,0.25-33.45-41.95,1.1-2.25,34,42.6z" fill="#000" fill-rule="evenodd" id="7"/>
    <path d="m487.9,171.45,12.2-51" fill="none" id="8" stroke="#000" stroke-linecap="butt" stroke-linejoin="miter" stroke-miterlimit="4" stroke-width="0.80000001px" style="stroke-dasharray:none;"/>
    <path d="m489.15,172.25-1.25,0.4-1-0.8,11.95-52.35,1.25-0.25,0.95,0.9-11.9,52.1z" fill="#000" fill-rule="evenodd" id="9"/>
    <path d="m498.8,168.1,9.65-39.9" fill="none" id="10" stroke="#000" stroke-linecap="butt" stroke-linejoin="miter" stroke-miterlimit="4" stroke-width="0.80000001px" style="stroke-dasharray:none;"/>
    <path d="m499.9,169.55-2.25-0.5,9.65-42.3,2.25,0.5-9.65,42.3z" fill="#000" fill-rule="evenodd" id="11"/>
    <path d="M439.75,196.4,486.7,172.65" fill="none" id="12" stroke="#000" stroke-linecap="butt" stroke-linejoin="miter" stroke-miterlimit="4" stroke-width="0.80000001px" style="stroke-dasharray:none;"/>
    <path d="m439.7,197.15-1.15-0.75,0-1.25,48.35-23.3,1,0.8-0.2,1.35-48,23.15z" fill="#000" fill-rule="evenodd" id="13"/>
    <path d="m390.4,172.65,46.95,23.75" fill="none" id="14" stroke="#000" stroke-linecap="butt" stroke-linejoin="miter" stroke-miterlimit="4" stroke-width="0.80000001px" style="stroke-dasharray:none;"/>
    <path d="m389.4,174-0.2-1.35,1-0.8,48.35,23.3,0,1.25-1.15,0.75-48-23.15z" fill="#000" fill-rule="evenodd" id="15"/>
    <path d="m377,120.45,12.2,51" fill="none" id="16" stroke="#000" stroke-linecap="butt" stroke-linejoin="miter" stroke-miterlimit="4" stroke-width="0.80000001px" style="stroke-dasharray:none;"/>
    <path d="m376.05,120.15,0.95-0.9,1.25,0.25,11.95,52.35-1,0.8-1.25-0.4-11.9-52.1z" fill="#000" fill-rule="evenodd" id="17"/>
    <path d="m368.65,128.2,9.7,39.9" fill="none" id="18" stroke="#000" stroke-linecap="butt" stroke-linejoin="miter" stroke-miterlimit="4" stroke-width="0.80000001px" style="stroke-dasharray:none;"/>
    <path d="m367.55,127.25,2.25-0.5,9.65,42.3-2.25,0.5-9.65-42.3z" fill="#000" fill-rule="evenodd" id="19"/>
    <path d="M409.95,77.6,378.2,118.05" fill="none" id="20" stroke="#000" stroke-linecap="butt" stroke-linejoin="miter" stroke-miterlimit="4" stroke-width="0.80000001px" style="stroke-dasharray:none;"/>
    <path d="m410.6,75.3,1.1,2.25-33.45,41.95-1.25-0.25-0.4-1.35,34-42.6z" fill="#000" fill-rule="evenodd" id="21"/>
    <path d="M551.25,103.1,501.3,119.25" fill="none" id="22" stroke="#000" stroke-linecap="butt" stroke-linejoin="miter" stroke-miterlimit="4" stroke-width="0.80000001px" style="stroke-dasharray:none;"/>
    <path d="m552.7,101.8-0.55,2.6-51.1,15.75-0.95-0.9,0.4-1.35,52.2-16.1z" fill="#000" fill-rule="evenodd" id="23"/>
    <path d="M591.4,139.15,553.65,104.3" fill="none" id="24" stroke="#000" stroke-linecap="butt" stroke-linejoin="miter" stroke-miterlimit="4" stroke-width="0.80000001px" style="stroke-dasharray:none;"/>
    <path d="m593.85,139.95-2.55,0.8-39.15-36.35,0.55-2.6,41.15,38.15z" fill="#000" fill-rule="evenodd" id="25"/>
    <path d="M580.5,142.5,551.1,115.4" fill="none" id="26" stroke="#000" stroke-linecap="butt" stroke-linejoin="miter" stroke-miterlimit="4" stroke-width="0.80000001px" style="stroke-dasharray:none;"/>
    <path d="m582.5,142.85-1.55,1.7-31.85-29.5,1.55-1.7,31.85,29.5z" fill="#000" fill-rule="evenodd" id="27"/>
    <path d="m580.4,192.55,12.2-51" fill="none" id="28" stroke="#000" stroke-linecap="butt" stroke-linejoin="miter" stroke-miterlimit="4" stroke-width="0.80000001px" style="stroke-dasharray:none;"/>
    <path d="m581.35,194.65-1.9-1.8,11.85-52.1,2.55-0.8-12.5,54.7z" fill="#000" fill-rule="evenodd" id="29"/>
    <path d="M529.25,209.9,579.2,193.75" fill="none" id="30" stroke="#000" stroke-linecap="butt" stroke-linejoin="miter" stroke-miterlimit="4" stroke-width="0.80000001px" style="stroke-dasharray:none;"/>
    <path d="m527.75,211.2,0.6-2.6,51.1-15.75,1.9,1.8-53.6,16.55z" fill="#000" fill-rule="evenodd" id="31"/>
    <path d="M531.8,198.8,570.85,186" fill="none" id="32" stroke="#000" stroke-linecap="butt" stroke-linejoin="miter" stroke-miterlimit="4" stroke-width="0.80000001px" style="stroke-dasharray:none;"/>
    <path d="m530.9,199.9-0.65-2.2,41.45-12.8,0.7,2.2-41.5,12.8z" fill="#000" fill-rule="evenodd" id="33"/>
    <path d="m489.1,173.85,37.75,34.85" fill="none" id="34" stroke="#000" stroke-linecap="butt" stroke-linejoin="miter" stroke-miterlimit="4" stroke-width="0.80000001px" style="stroke-dasharray:none;"/>
    <path d="m487.7,174,0.2-1.35,1.25-0.4,39.2,36.35-0.6,2.6l-40.05-37.20z" fill="#000" fill-rule="evenodd" id="35"/>
    <path d="M350.25,208.7,388,173.85" fill="none" id="36" stroke="#000" stroke-linecap="butt" stroke-linejoin="miter" stroke-miterlimit="4" stroke-width="0.80000001px" style="stroke-dasharray:none;"/>
    <path d="m349.35,211.2-0.6-2.6,39.2-36.35,1.25,0.4,0.2,1.35-40.05,37.2z" fill="#000" fill-rule="evenodd" id="37"/>
    <path d="m297.9,193.75,49.95,16.15" fill="none" id="38" stroke="#000" stroke-linecap="butt" stroke-linejoin="miter" stroke-miterlimit="4" stroke-width="0.80000001px" style="stroke-dasharray:none;"/>
    <path d="m295.75,194.65,1.95-1.8,51.05,15.75,0.6,2.6-53.6-16.55z" fill="#000" fill-rule="evenodd" id="39"/>
    <path d="m306.25,186,39.05,12.8" fill="none" id="40" stroke="#000" stroke-linecap="butt" stroke-linejoin="miter" stroke-miterlimit="4" stroke-width="0.80000001px" style="stroke-dasharray:none;"/>
    <path d="m304.7,187.1,0.7-2.2,41.45,12.8-0.65,2.2-41.5-12.8z" fill="#000" fill-rule="evenodd" id="41"/>
    <path d="m284.5,141.55,12.2,51" fill="none" id="42" stroke="#000" stroke-linecap="butt" stroke-linejoin="miter" stroke-miterlimit="4" stroke-width="0.80000001px" style="stroke-dasharray:none;"/>
    <path d="m283.25,139.95,2.55,0.8,11.9,52.1-1.95,1.8-12.5-54.7z" fill="#000" fill-rule="evenodd" id="43"/>
    <path d="m323.5,104.3-37.8,34.85" fill="none" id="44" stroke="#000" stroke-linecap="butt" stroke-linejoin="miter" stroke-miterlimit="4" stroke-width="0.80000001px" style="stroke-dasharray:none;"/>
    <path d="m324.4,101.8,0.55,2.6-39.15,36.35-2.55-0.8,41.15-38.15z" fill="#000" fill-rule="evenodd" id="45"/>
    <path d="m326,115.4-29.4,27.1" fill="none" id="46" stroke="#000" stroke-linecap="butt" stroke-linejoin="miter" stroke-miterlimit="4" stroke-width="0.80000001px" style="stroke-dasharray:none;"/>
    <path d="m326.45,113.35,1.55,1.7-31.8,29.5-1.55-1.7,31.8-29.5z" fill="#000" fill-rule="evenodd" id="47"/>
    <path d="M375.8,119.25,325.9,103.1" fill="none" id="48" stroke="#000" stroke-linecap="butt" stroke-linejoin="miter" stroke-miterlimit="4" stroke-width="0.80000001px" style="stroke-dasharray:none;"/>
    <path d="m376.6,117.9,0.4,1.35-0.95,0.9-51.1-15.75-0.55-2.6,52.2,16.1z" fill="#000" fill-rule="evenodd" id="49"/>
    <path d="m438.55,250,0-52.4" fill="none" id="50" stroke="#000" stroke-linecap="butt" stroke-linejoin="miter" stroke-miterlimit="4" stroke-width="0.80000001px" style="stroke-dasharray:none;"/>
    <path d="m439.7,250.5-2.3,1.35,0-54.7,1.15-0.75,1.15,0.75,0,53.35z" fill="#000" fill-rule="evenodd" id="51"/>
    <path d="M484.8,277.35,439.75,252.4" fill="none" id="52" stroke="#000" stroke-linecap="butt" stroke-linejoin="miter" stroke-miterlimit="4" stroke-width="0.80000001px" style="stroke-dasharray:none;"/>
    <path d="m487.15,277.9-2.3,1.35-47.45-27.4,2.3-1.35,47.45,27.4z" fill="#000" fill-rule="evenodd" id="53"/>
    <path d="m486,332.15,0-52.4" fill="none" id="54" stroke="#000" stroke-linecap="butt" stroke-linejoin="miter" stroke-miterlimit="4" stroke-width="0.80000001px" style="stroke-dasharray:none;"/>
    <path d="m487.15,332.7-2.3,1.3,0-54.75,2.3-1.35,0,54.8z" fill="#000" fill-rule="evenodd" id="55"/>
    <text fill="#000000" font-family="Arial" font-size="38.40000153px" font-style="normal" font-weight="normal" id="56" style="text-anchor:start;text-align:start;" x="520" xml:space="preserve" y="374.39999">N</text>
    <text fill="#000000" font-family="Arial" font-size="38.40000153px" font-style="normal" font-weight="normal" id="57" style="text-anchor:start;text-align:start;" x="547.20001" xml:space="preserve" y="374.39999">H</text>
    <path d="m513.4,348.65-26.2-14.1" fill="none" id="58" stroke="#000" stroke-linecap="butt" stroke-linejoin="miter" stroke-miterlimit="4" stroke-width="0.80000001px" style="stroke-dasharray:none;"/>
    <path d="m515.2,348.85-1.15,2-29.2-16.85,2.3-1.3,28.05,16.15z" fill="#000" fill-rule="evenodd" id="59"/>
    <path d="m533.4,414.3,0-32.95" fill="none" id="60" stroke="#000" stroke-linecap="butt" stroke-linejoin="miter" stroke-miterlimit="4" stroke-width="0.80000001px" style="stroke-dasharray:none;"/>
    <path d="m532.3,380.15,0,35.35,2.25,0,0-35.35-2.25,0z" fill="#000" fill-rule="evenodd" id="61"/>
  </g>
</svg>