<?xml version="1.0" encoding="iso-8859-1"?>
<!-- Generator: Adobe Illustrator 19.1.0, SVG Export Plug-In . SVG Version: 6.00 Build 0)  -->
<svg version="1.1" id="&#x421;&#x43B;&#x43E;&#x439;_1"
	 xmlns="http://www.w3.org/2000/svg" xmlns:xlink="http://www.w3.org/1999/xlink" x="0px" y="0px" viewBox="0 0 341.717 492.293"
	 style="enable-background:new 0 0 341.717 492.293;" xml:space="preserve" width="341.717" height="492.293">
<g>
	<rect x="148.822" y="186.782" transform="matrix(-0.4996 0.8663 -0.8663 -0.4996 406.2364 184.5263)" width="2" height="45.628"/>
	<rect x="89.549" y="221.003" width="2" height="45.628"/>
	<polygon points="242.692,182.121 242.248,184.071 278.965,192.451 278.965,192.451 280.445,192.789 305.018,243.817 
		304.36,245.185 290.025,274.952 291.826,275.821 307.029,244.252 307.239,243.817 307.029,243.383 284.807,197.238 
		308.876,167.056 307.313,165.808 283.844,195.238 282.905,193.289 282.905,193.289 282.037,191.487 281.829,191.053 
		281.359,190.946 279.409,190.501 279.409,190.501 277.301,190.02 300.77,160.591 299.206,159.344 275.137,189.526 	"/>
	<rect x="148.822" y="255.224" transform="matrix(-0.4995 -0.8663 0.8663 -0.4995 -16.1966 546.7198)" width="2" height="45.628"/>
	<rect x="243.925" y="276.506" transform="matrix(0.2221 0.975 -0.975 0.2221 476.5386 -10.6195)" width="2" height="33.675"/>
	<rect x="209.994" y="435.787" transform="matrix(-0.2947 -0.9556 0.9556 -0.2947 -165.0664 795.3692)" width="2" height="45.628"/>
	<rect x="159.822" y="389.235" transform="matrix(-0.975 -0.222 0.222 -0.975 226.1353 849.5216)" width="2" height="45.628"/>
	<rect x="203.409" y="390.875" transform="matrix(-0.7331 -0.6802 0.6802 -0.7331 125.5143 833.0114)" width="45.628" height="2"/>
	<polygon points="252.974,83.718 211.483,122.216 211.06,122.608 211.188,123.171 219.258,158.526 221.208,158.082 213.584,124.676 
		213.267,123.289 214.31,122.321 254.644,84.896 294.463,97.179 295.053,95.267 255.638,83.11 266.594,47.591 264.683,47.001 
		253.942,81.821 224.524,50.116 223.059,51.477 	"/>
	<path d="M254.644,402.738l-40.334-37.424l0,0l-1.043-0.968l12.549-54.981l38.053-8.685l-0.444-1.95l-36.716,8.38v0l-1.481,0.338
		l-44.28-35.312v-1.518v-55.118l28.404-22.651l-1.247-1.563l-27.216,21.704l-1.03,0.822l-1.142-0.659v0l-48.151-27.8l-0.5-0.288
		l-0.5,0.288l-49.883,28.8l-0.5,0.288v0.579v2v53.6v1.423l-1.232,0.711L51.47,288.039l0.999,1.733l26.48-15.288l1.232-0.712
		l47.651,27.511l0,0l1.732,1l0.5,0.288l0.5-0.288l1.732-1l0,0l46.419-26.8v0l1.142-0.659l44.009,35.096l-0.305,1.338h0
		l-12.244,53.643l-54.489,16.808l-0.552,0.169l-0.129,0.564l-0.445,1.95l0,0l-12.372,54.206l-0.128,0.562l0.422,0.393l42.224,39.178
		l0.422,0.393l0.553-0.171l55.041-16.978l0.552-0.169l0.129-0.564l0.445-1.95h0l12.244-53.643l39.819-12.283l-0.589-1.911
		L254.644,402.738z M178.947,270.617v1.423l-47.65,27.511l0,0l-1.232,0.712l-1.232-0.712l0,0l-47.65-27.511v-1.423v-53.6v-1.423
		l1.232-0.711l47.651-27.512l48.883,28.223V270.617z M252.967,405.592l-12.244,53.643l-52.578,16.218v0l-1.36,0.419l-40.334-37.424
		l0,0l-1.043-0.968l0.317-1.387l12.244-53.643l1.359-0.419l52.578-16.218l1.043,0.967l39.292,36.457l1.043,0.968L252.967,405.592
		L252.967,405.592z"/>
	<polygon points="236.231,164.544 232.754,164.544 232.754,186.673 232.578,186.673 217.149,164.544 213.731,164.544 
		213.731,192.727 217.207,192.727 217.207,170.676 217.383,170.676 232.813,192.727 236.231,192.727 	"/>
	<path d="M26.864,290.245c4.024,0,7.246,2.422,8.145,6.113h3.555c-0.899-5.625-5.566-9.355-11.699-9.355
		c-7.715,0-12.695,5.703-12.695,14.551c0,8.926,4.922,14.57,12.695,14.57c6.23,0,10.41-3.105,11.699-8.672h-3.555
		c-1.016,3.438-3.984,5.43-8.125,5.43c-5.566,0-9.102-4.414-9.102-11.328C17.782,294.699,21.356,290.245,26.864,290.245z"/>
	<rect x="43.028" y="286.241" width="3.398" height="29.414"/>
	<path d="M319.344,145.081l-2.949-0.781c-3.828-0.996-5.391-2.266-5.391-4.395c0-2.754,2.539-4.648,6.191-4.648
		c3.672,0,6.113,1.856,6.426,4.883h3.516c-0.156-4.726-4.219-8.047-9.824-8.047c-5.859,0-9.961,3.281-9.961,7.969
		c0,3.828,2.305,6.113,7.5,7.441l3.613,0.938c3.789,0.977,5.449,2.442,5.449,4.824c0,2.774-2.773,4.785-6.582,4.785
		c-4.023,0-6.914-2.012-7.246-5.058h-3.535c0.332,4.98,4.473,8.223,10.449,8.223c6.484,0,10.547-3.223,10.547-8.379
		C327.548,148.792,325.184,146.546,319.344,145.081z"/>
	<polygon points="288.91,303.282 288.734,303.282 273.305,281.152 269.887,281.152 269.887,309.336 273.363,309.336 
		273.363,287.285 273.539,287.285 288.969,309.336 292.387,309.336 292.387,281.152 288.91,281.152 	"/>
	<polygon points="304.389,102.164 316.87,102.164 316.87,99.039 304.389,99.039 304.389,89.352 317.983,89.352 317.983,86.188 
		300.874,86.188 300.874,114.371 304.389,114.371 	"/>
	<polygon points="266.326,30.145 278.807,30.145 278.807,27.021 266.326,27.021 266.326,17.333 279.92,17.333 279.92,14.169 
		262.811,14.169 262.811,42.353 266.326,42.353 	"/>
	<polygon points="210.17,42.963 222.651,42.963 222.651,39.838 210.17,39.838 210.17,30.15 223.764,30.15 223.764,26.986 
		206.655,26.986 206.655,55.17 210.17,55.17 	"/>
	<polygon points="300.874,400.509 304.389,400.509 304.389,388.302 316.87,388.302 316.87,385.177 304.389,385.177 304.389,375.49 
		317.983,375.49 317.983,372.326 300.874,372.326 	"/>
</g>
</svg>
