<?xml version="1.0" encoding="iso-8859-1"?>
<!-- Generator: Adobe Illustrator 19.1.0, SVG Export Plug-In . SVG Version: 6.00 Build 0)  -->
<svg version="1.1" id="&#x421;&#x43B;&#x43E;&#x439;_1"
	 xmlns="http://www.w3.org/2000/svg" xmlns:xlink="http://www.w3.org/1999/xlink" x="0px" y="0px" viewBox="0 0 509.839 370.8"
	 style="enable-background:new 0 0 509.839 370.8;" xml:space="preserve" width="509.839" height="370.8">
<g>
	<rect x="166.328" y="224.075" width="33.964" height="2.4"/>
	<path d="M114.063,260.237l0.887-1.112l0,0l19.812-24.843l-1.876-1.497l-20.549,25.767l-54.259-16.737l-0.661-0.205l-0.509,0.473
		l-42.224,39.178l-0.507,0.471l0.154,0.675l12.372,54.206h0l0.445,1.95l0.153,0.676l0.664,0.205l1.911,0.59v0l53.13,16.388
		l0.661,0.205l0.509-0.473l1.466-1.36l0,0l40.158-37.261l36.192,17.429l1.043-2.162l-36.41-17.534L114.063,260.237z M84.008,353.035
		l-0.958,0.889l-1.249-0.385l0,0l-52.468-16.184l-12.218-53.53l-0.291-1.275l0.959-0.89l0,0l39.292-36.457l0.958-0.889l1.249,0.385
		l52.468,16.184l12.218,53.53h0l0.291,1.275L84.008,353.035z"/>
	<rect x="59.374" y="260.159" transform="matrix(0.9556 0.2948 -0.2948 0.9556 80.6882 -12.614)" width="45.628" height="2.4"/>
	<rect x="9.203" y="306.711" transform="matrix(-0.2225 -0.9749 0.9749 -0.2225 -261.0507 407.6413)" width="45.628" height="2.4"/>
	<rect x="96.218" y="305.271" transform="matrix(-0.6806 -0.7326 0.7326 -0.6806 -76.6471 622.7568)" width="2.4" height="45.628"/>
	
		<rect x="234.724" y="326.885" transform="matrix(-0.7331 -0.6802 0.6802 -0.7331 223.1713 743.7587)" width="45.628" height="2.4"/>
	<rect x="321.739" y="285.097" transform="matrix(-0.975 -0.2221 0.2221 -0.975 569.4203 679.8605)" width="2.4" height="45.628"/>
	<path d="M299.515,243.444l-1.466-1.36l-0.507-0.472l-0.664,0.205l-54.259,16.737l-34.893-43.754l0.591-1.024l16.735-28.985
		l-2.079-1.199l-16.735,28.985l-0.653,1.132h-1.307h-37.95v2.4h37.95h1.422l34.306,43.018l0,0l0.886,1.112l-12.56,55.029
		l-1.282,0.617v0l-34.118,16.43l1.043,2.162l34.118-16.431v0l1.064-0.512l41.624,38.621l0.507,0.472l0.664-0.205l53.13-16.388v0
		l1.911-0.59l0.662-0.203l0.154-0.677l0.445-1.95h0l12.372-54.206l0.154-0.675l-0.507-0.471L299.515,243.444z M337.841,283.824
		l-12.218,53.53l-52.468,16.184v0l-1.249,0.385l-40.249-37.346l-0.959-0.89l12.509-54.805l1.249-0.385l52.468-16.184l40.249,37.346
		l0.959,0.89L337.841,283.824z"/>
	<rect x="271.568" y="238.545" transform="matrix(-0.2947 -0.9556 0.9556 -0.2947 103.3896 599.03)" width="2.4" height="45.628"/>
	<polygon points="397.58,45.022 380.117,14.775 379.772,14.175 379.078,14.175 377.078,14.175 323.478,14.175 321.478,14.175 
		320.785,14.174 320.438,14.775 319.438,16.507 319.438,16.507 303.245,44.555 305.324,45.754 322.171,16.575 323.478,16.575 
		377.078,16.575 378.385,16.575 395.501,46.22 	"/>
	<polygon points="140.904,206.479 141.08,206.479 156.51,228.53 159.928,228.53 159.928,200.346 156.451,200.346 156.451,222.475 
		156.276,222.475 140.846,200.346 137.428,200.346 137.428,228.53 140.904,228.53 	"/>
	<path d="M179.773,339.281l-2.949-0.781c-3.828-0.996-5.391-2.266-5.391-4.395c0-2.754,2.539-4.649,6.192-4.649
		c3.672,0,6.113,1.855,6.426,4.883h3.516c-0.156-4.727-4.219-8.047-9.824-8.047c-5.859,0-9.961,3.281-9.961,7.969
		c0,3.828,2.305,6.113,7.5,7.441l3.613,0.938c3.789,0.977,5.449,2.441,5.449,4.824c0,2.773-2.774,4.785-6.582,4.785
		c-4.023,0-6.914-2.012-7.246-5.059h-3.535c0.332,4.98,4.473,8.223,10.449,8.223c6.484,0,10.547-3.223,10.547-8.379
		C187.976,342.992,185.613,340.746,179.773,339.281z"/>
	<polygon points="242.675,172.592 227.246,150.464 223.828,150.464 223.828,178.647 227.304,178.647 227.304,156.596 
		227.48,156.596 242.91,178.647 246.328,178.647 246.328,150.464 242.851,150.464 242.851,172.592 	"/>
	<polygon points="206.238,117.473 222.432,145.52 224.511,144.321 207.664,115.141 235.117,67.59 235.771,66.458 237.078,66.458 
		275.028,66.458 275.028,64.058 237.078,64.058 235.078,64.058 234.385,64.057 234.038,64.658 205.238,114.541 204.893,115.141 
		205.238,115.74 	"/>
	<polygon points="284.904,56.83 285.08,56.83 300.51,78.881 303.928,78.881 303.928,50.697 300.451,50.697 300.451,72.826 
		300.275,72.826 284.846,50.697 281.428,50.697 281.428,78.881 284.904,78.881 	"/>
	<polygon points="321.517,117.473 322.517,115.74 322.863,115.141 322.517,114.541 304.783,83.824 302.703,85.023 319.438,114.008 
		319.438,114.008 320.092,115.141 292.638,162.693 291.985,163.824 290.678,163.824 252.728,163.824 252.728,166.224 
		290.678,166.224 292.678,166.224 293.37,166.225 293.717,165.623 294.717,163.892 294.717,163.892 321.517,117.473 	"/>
	<path d="M407.878,50.463c-7.988,0-12.988,5.625-12.988,14.57c0,8.945,5,14.551,12.988,14.551c7.988,0,12.988-5.605,12.988-14.551
		C420.866,56.088,415.866,50.463,407.878,50.463z M407.878,76.342c-5.762,0-9.375-4.375-9.375-11.309
		c0-6.953,3.613-11.328,9.375-11.328c5.762,0,9.375,4.375,9.375,11.328C417.253,71.967,413.639,76.342,407.878,76.342z"/>
	<polygon points="495.317,114.541 466.517,64.658 466.172,64.058 465.478,64.058 463.478,64.058 425.315,64.058 425.315,66.458 
		463.478,66.458 464.785,66.458 465.438,67.59 492.892,115.141 474.471,147.046 476.551,148.245 494.317,117.473 495.317,115.74 
		495.663,115.141 	"/>
	<path d="M465.478,150.229c-7.988,0-12.988,5.625-12.988,14.57c0,8.945,5,14.551,12.988,14.551c7.988,0,12.988-5.606,12.988-14.551
		C478.466,155.854,473.466,150.229,465.478,150.229z M465.478,176.108c-5.762,0-9.375-4.375-9.375-11.309
		c0-6.953,3.613-11.328,9.375-11.328c5.762,0,9.375,4.375,9.375,11.328C474.853,171.733,471.24,176.108,465.478,176.108z"/>
	<polygon points="444.974,162.885 429.505,162.885 429.505,150.698 425.989,150.698 425.989,178.882 429.505,178.882 
		429.505,166.049 444.974,166.049 444.974,178.882 448.489,178.882 448.489,150.698 444.974,150.698 	"/>
</g>
</svg>
