<?xml version="1.0" encoding="iso-8859-1"?>
<!-- Generator: Adobe Illustrator 19.1.0, SVG Export Plug-In . SVG Version: 6.00 Build 0)  -->
<svg version="1.1" id="&#x421;&#x43B;&#x43E;&#x439;_1"
	 xmlns="http://www.w3.org/2000/svg" xmlns:xlink="http://www.w3.org/1999/xlink" x="0px" y="0px" viewBox="0 0 486.879 289.672"
	 style="enable-background:new 0 0 486.879 289.672;" xml:space="preserve" width="486.879" height="289.672">
<g>
	<rect x="79.131" y="193.703" width="2.4" height="45.628"/>
	<rect x="138.404" y="227.924" transform="matrix(-0.4995 -0.8663 0.8663 -0.4995 -7.8753 496.9271)" width="2.4" height="45.628"/>
	<rect x="116.789" y="181.096" transform="matrix(-0.866 -0.5 0.5 -0.866 169.3553 409.9711)" width="45.628" height="2.4"/>
	<path d="M225.48,169.212l-0.511-0.705l-0.83,0.27l-1.902,0.618l-50.977,16.563l-1.394,0.453l-47.689-27.533l-1.269-0.733
		l-0.305-1.434h0l-11.144-52.429h0l-0.416-1.956l-0.181-0.851l-0.865-0.092l-1.989-0.209v0l-55.295-5.812l-0.868-0.092l-0.355,0.797
		l-15.303,34.37l2.193,0.976L51.328,97.84l1.121,0.118v0l53.306,5.603v0l1.123,0.118l11.379,53.533h0l0.234,1.103l-48.373,27.928
		l-28.139-25.336l-1.606,1.783l28.39,25.562v1.466v53.6v2l-0.001,0.693l0.601,0.347l48.151,27.8l1.732,1l0.599,0.346l0.599-0.346
		l1.732-1l47.689-27.533l1.394,0.453l50.977,16.563l1.902,0.618l0.828,0.271l0.514-0.706l33.856-46.599l0.514-0.706l-0.514-0.706
		L225.48,169.212z M168.529,244.624l-47.551,27.453v0l-1.133,0.654l-1.133-0.654v0l-47.551-27.453v-1.307v-53.6v-1.307l1.132-0.653
		l47.551-27.454l47.552,27.454l1.131,0.653V244.624z M256.22,217.429l-32.169,44.277l-1.073-0.349v0l-52.05-16.912v-55.856
		l52.05-16.912l1.073-0.349l32.832,45.189L256.22,217.429L256.22,217.429z"/>
	<polygon points="239.448,138.396 230.704,135.552 230.28,137.517 238.65,140.239 	"/>
	<polygon points="231.792,156.094 226.634,154.416 226.21,156.381 230.994,157.937 	"/>
	<polygon points="247.104,120.698 234.775,116.688 234.351,118.653 246.306,122.542 	"/>
	<polygon points="243.276,129.547 232.739,126.12 232.315,128.085 242.478,131.39 	"/>
	<polygon points="235.62,147.245 228.669,144.984 228.245,146.949 234.822,149.088 	"/>
	<polygon points="227.964,164.943 224.598,163.848 224.174,165.813 227.166,166.786 	"/>
	<polygon points="316.604,83.82 299.87,112.805 299.87,112.805 299.216,113.937 297.909,113.937 242.309,113.937 242.309,116.337 
		297.909,116.337 299.909,116.337 300.602,116.338 300.949,115.737 301.949,114.004 301.949,114.004 318.684,85.019 	"/>
	<polygon points="417.109,14.171 415.109,14.171 414.417,14.17 414.07,14.771 385.616,64.054 384.309,64.054 346.359,64.054 
		346.359,66.454 379.63,66.454 398.243,98.692 400.322,97.493 382.402,66.454 384.309,66.454 386.309,66.454 387.002,66.455 
		387.349,65.853 389.302,62.47 407.222,93.508 409.301,92.309 390.688,60.07 415.149,17.702 415.802,16.571 417.109,16.571 
		472.709,16.571 472.709,14.171 	"/>
	<path d="M27.158,134.38c-7.988,0-12.988,5.625-12.988,14.57c0,8.945,5,14.551,12.988,14.551s12.988-5.605,12.988-14.551
		C40.146,140.005,35.146,134.38,27.158,134.38z M27.158,160.259c-5.762,0-9.375-4.375-9.375-11.309
		c0-6.953,3.613-11.328,9.375-11.328s9.375,4.375,9.375,11.328C36.533,155.884,32.92,160.259,27.158,160.259z"/>
	<polygon points="336.483,72.822 336.307,72.822 320.877,50.693 317.459,50.693 317.459,78.877 320.936,78.877 320.936,56.826 
		321.112,56.826 336.541,78.877 339.959,78.877 339.959,50.693 336.483,50.693 	"/>
	<polygon points="336.444,30.697 320.975,30.697 320.975,18.51 317.459,18.51 317.459,46.693 320.975,46.693 320.975,33.861 
		336.444,33.861 336.444,46.693 339.959,46.693 339.959,18.51 336.444,18.51 	"/>
	<path d="M415.109,100.342c-7.988,0-12.988,5.625-12.988,14.57c0,8.945,5,14.551,12.988,14.551c7.988,0,12.988-5.605,12.988-14.551
		C428.097,105.967,423.097,100.342,415.109,100.342z M415.109,126.221c-5.762,0-9.375-4.375-9.375-11.309
		c0-6.953,3.613-11.328,9.375-11.328c5.762,0,9.375,4.375,9.375,11.328C424.484,121.846,420.871,126.221,415.109,126.221z"/>
</g>
</svg>
