<?xml version="1.0" encoding="utf-8"?>
<!-- Generator: Adobe Illustrator 19.2.1, SVG Export Plug-In . SVG Version: 6.00 Build 0)  -->
<svg version="1.1" id="Слой_1" xmlns="http://www.w3.org/2000/svg" xmlns:xlink="http://www.w3.org/1999/xlink" x="0px" y="0px"
	 viewBox="0 0 395.5 691.3" style="enable-background:new 0 0 395.5 691.3;" xml:space="preserve" width="395.5" height="691.3">
<style type="text/css">
	.st0{fill:#808080;}
</style>
<g>
	<rect x="327.2" y="248.8" transform="matrix(0.8663 -0.4996 0.4996 0.8663 -78.0811 208.3003)" width="45.6" height="2.4"/>
	<rect x="348.8" y="158.7" transform="matrix(0.5 -0.866 0.866 0.5 17.7908 393.9288)" width="2.4" height="45.6"/>
	<path d="M279.2,242.6v2l0,0.7l0.6,0.3l48.2,27.8l0,0l1.7,1l0.6,0.3l0.6-0.3l1.7-1l0,0l48.2-27.8l0.6-0.3v-0.7v-2V189v-2l0-0.7
		l-0.6-0.3l-1.7-1l0,0l-47.6-27.5v-38.1h-2.4v38.1l-48.7,28.1L246.5,166l-1.2,2.1l33.9,19.6V242.6z M379,187.7v1.3v53.6v1.3
		l-1.1,0.7l0,0l-46.4,26.8l0,0l-1.1,0.7l-1.1-0.7l0,0l-46.4-26.8l0,0l-1.1-0.7v-1.3v-54.9l48.7-28.1l47.6,27.5l0,0L379,187.7z
		 M330.3,158.2L330.3,158.2L330.3,158.2L330.3,158.2z"/>
	<rect x="289.6" y="193" width="2.4" height="45.6"/>
	<polygon points="176.6,212.2 184.6,212.2 184.4,209.8 176.9,209.8 	"/>
	<polygon points="175.6,221.8 185.7,221.8 185.4,219.4 175.8,219.4 	"/>
	<polygon points="177.7,202.6 183.6,202.6 183.3,200.2 178,200.2 	"/>
	<polygon points="179,190.6 178.8,193 182.5,193 182.2,190.6 	"/>
	<polygon points="173.4,241 187.8,241 187.6,238.6 173.7,238.6 	"/>
	<polygon points="174.5,231.4 186.8,231.4 186.5,229 174.8,229 	"/>
	<rect x="139.9" y="279.4" width="2.4" height="45.6"/>
	<rect x="177.6" y="335.2" transform="matrix(0.8663 -0.4995 0.4995 0.8663 -141.2418 145.0724)" width="45.6" height="2.4"/>
	<rect x="199.2" y="245.1" transform="matrix(0.5 -0.866 0.866 0.5 -131.8587 307.5278)" width="2.4" height="45.6"/>
	<polygon points="164.3,146.9 157.3,134.7 155.4,136.3 162,147.7 	"/>
	<polygon points="155.2,150.3 149.8,140.9 147.9,142.5 152.9,151.2 	"/>
	<polygon points="146.1,153.7 142.3,147.1 140.4,148.7 143.8,154.6 	"/>
	<polygon points="137,157.1 134.8,153.3 132.9,154.9 134.7,158 	"/>
	<polygon points="349,91.2 380.8,72.8 381.4,72.5 381.4,71.8 381.4,69.8 381.4,14.2 379,14.2 379,69.8 379,71.1 377.8,71.7 
		377.8,71.7 347.8,89.1 	"/>
	<polygon points="31.7,188.6 33.8,187.4 16.9,158.2 44.4,110.6 44.4,110.6 45.1,109.5 46.4,109.5 84.4,109.5 84.4,107.1 46.4,107.1 
		44.4,107.1 43.7,107.1 43.3,107.7 14.5,157.6 14.2,158.2 14.5,158.8 	"/>
	<path d="M230.5,143.4c-8,0-13,5.6-13,14.6s5,14.6,13,14.6c8,0,13-5.6,13-14.6S238.5,143.4,230.5,143.4z M230.5,169.3
		c-5.8,0-9.4-4.4-9.4-11.3c0-7,3.6-11.3,9.4-11.3c5.8,0,9.4,4.4,9.4,11.3C239.9,164.9,236.3,169.3,230.5,169.3z"/>
	<polygon points="181.8,184.9 180.6,185.6 179.5,184.9 179.5,184.9 131.6,157.3 114.3,127.2 112.2,128.4 129.4,158.2 101.9,205.7 
		101.9,205.7 101.3,206.9 100,206.9 62,206.9 62,209.3 100,209.3 102,209.3 102.7,209.3 103,208.7 104,206.9 104,206.9 131.2,159.8 
		178.3,187 178.3,187 180,188 180.6,188.4 181.2,188 183,187 183,187 212.9,169.7 211.7,167.7 181.8,184.9 	"/>
	<path d="M330.3,114.9c8,0,13-5.6,13-14.6c0-8.9-5-14.6-13-14.6s-13,5.6-13,14.6C317.3,109.3,322.3,114.9,330.3,114.9z M330.3,89
		c5.8,0,9.4,4.4,9.4,11.3c0,6.9-3.6,11.3-9.4,11.3s-9.4-4.4-9.4-11.3C320.9,93.4,324.5,89,330.3,89z"/>
	<polygon points="172.9,130.2 188.4,130.2 188.4,143 191.9,143 191.9,114.8 188.4,114.8 188.4,127 172.9,127 172.9,114.8 
		169.4,114.8 169.4,143 172.9,143 	"/>
	<path d="M231.7,331.7V331v-2v-53.6v-2l0-0.7l-0.6-0.3l-1.7-1l0,0L183,244.5l0,0l-1.7-1l-0.6-0.3l-0.6,0.3l-1.7,1l0,0l-46.4,26.8
		l0,0l-1.7,1l-0.6,0.3v0.7v2V329v2l0,0.7l0.6,0.3l49.9,28.8l0.6,0.3l0.6-0.3l49.9-28.8L231.7,331.7z M132,275.4v-1.3l1.1-0.7l0,0
		l47.6-27.5l47.6,27.5l0,0l1.1,0.7v1.3V329v1.3l-47.6,27.5l0,0l-1.1,0.7l-1.1-0.7l0,0L132,330.3V329V275.4z"/>
	<path d="M102,122.6c8,0,13-5.6,13-14.6c0-8.9-5-14.6-13-14.6c-8,0-13,5.6-13,14.6C89,117,94,122.6,102,122.6z M102,96.7
		c5.8,0,9.4,4.4,9.4,11.3c0,6.9-3.6,11.3-9.4,11.3c-5.8,0-9.4-4.4-9.4-11.3C92.6,101.1,96.2,96.7,102,96.7z"/>
	<polygon points="55.6,193.5 52.1,193.5 52.1,215.6 52,215.6 36.5,193.5 33.1,193.5 33.1,221.7 36.6,221.7 36.6,199.6 36.8,199.6 
		52.2,221.7 55.6,221.7 	"/>
	<polygon points="55.6,253.9 55.6,225.7 52.1,225.7 52.1,237.9 36.6,237.9 36.6,225.7 33.1,225.7 33.1,253.9 36.6,253.9 36.6,241 
		52.1,241 52.1,253.9 	"/>
	<rect x="327.2" y="564.8" transform="matrix(0.8663 -0.4996 0.4996 0.8663 -235.9504 250.5711)" width="45.6" height="2.4"/>
	<rect x="348.8" y="474.7" transform="matrix(0.5 -0.866 0.866 0.5 -255.8734 551.929)" width="2.4" height="45.6"/>
	<rect x="289.6" y="509" width="2.4" height="45.6"/>
	<rect x="139.9" y="595.4" width="2.4" height="45.6"/>
	<rect x="177.6" y="651.2" transform="matrix(0.8663 -0.4995 0.4995 0.8663 -299.1086 187.3432)" width="45.6" height="2.4"/>
	<rect x="199.2" y="561.1" transform="matrix(0.5 -0.866 0.866 0.5 -405.5223 465.5272)" width="2.4" height="45.6"/>
	<polygon points="349,407.2 380.8,388.8 381.4,388.5 381.4,387.8 381.4,385.8 381.4,330.2 379,330.2 379,385.8 379,387.1 
		377.8,387.7 377.8,387.7 347.8,405.1 	"/>
	<polygon points="33.8,503.4 16.9,474.2 45.1,425.5 46.4,425.5 84.4,425.5 84.4,423.1 46.4,423.1 44.4,423.1 43.7,423.1 43.3,423.7 
		15.5,471.8 15.5,471.8 14.5,473.6 14.2,474.2 14.5,474.8 15.5,476.5 15.5,476.5 31.7,504.6 	"/>
	<path d="M379,500.9L379,500.9l-47.6-27.5v-38.1h-2.4v38.1l-48.7,28.1L246.5,482l-1.2,2.1l33.9,19.6v54.9v2l0,0.7l0.6,0.3l1.7,1l0,0
		l46.4,26.8v0l1.7,1l0.6,0.3l0.6-0.3l49.9-28.8l0.6-0.3v-0.7v-2V505v-2l0-0.7l-0.6-0.3L379,500.9z M379,558.6v1.3l-47.6,27.5l0,0
		l-1.1,0.7l-1.1-0.7l0,0l-47.6-27.5v-1.3v-54.9l48.7-28.1l47.6,27.5l0,0l1.1,0.7v1.3V558.6z"/>
	<path d="M230.5,459.4c-8,0-13,5.6-13,14.6s5,14.6,13,14.6c8,0,13-5.6,13-14.6S238.5,459.4,230.5,459.4z M230.5,485.3
		c-5.8,0-9.4-4.4-9.4-11.3c0-7,3.6-11.3,9.4-11.3c5.8,0,9.4,4.4,9.4,11.3C239.9,480.9,236.3,485.3,230.5,485.3z"/>
	<path d="M317.3,416.4c0,8.9,5,14.6,13,14.6s13-5.6,13-14.6s-5-14.6-13-14.6S317.3,407.4,317.3,416.4z M339.7,416.4
		c0,6.9-3.6,11.3-9.4,11.3s-9.4-4.4-9.4-11.3c0-7,3.6-11.3,9.4-11.3S339.7,409.4,339.7,416.4z"/>
	<path d="M229.4,587.3L229.4,587.3l-40.8-23.6l-6.7-60.2l31-17.9l-1.2-2.1l-31,17.9l-47.1-27.2l34.1-12.7l-7.6-13.2l-29,23.9
		l-16.8-29.2l-2.1,1.2l17.2,29.8l-27.5,47.6l0,0l-0.7,1.1H100H62v2.4h38h2l0.7,0l0.3-0.6l28.2-48.8l48.2,27.8l-6.7,60.2l-40.8,23.6
		l0,0l-1.7,1l-0.6,0.3v0.7v2V645v2l0,0.7l0.6,0.3l1.7,1l0,0l48.2,27.8l0.6,0.3l0.6-0.3l48.2-27.8l0,0l1.7-1l0.6-0.3V647v-2v-53.6v-2
		l0-0.7l-0.6-0.3L229.4,587.3z M229.3,645v1.3l-1.1,0.7l0,0l-47.6,27.5l-47.6-27.5l0,0l-1.1-0.7V645v-53.6v-1.3l1.1-0.7l0,0
		l47.6-27.5l47.6,27.5l0,0l1.1,0.7v1.3V645z"/>
	<path d="M89,424.1c0,8.9,5,14.6,13,14.6c8,0,13-5.6,13-14.6c0-8.9-5-14.6-13-14.6C94,409.5,89,415.1,89,424.1z M111.3,424.1
		c0,6.9-3.6,11.3-9.4,11.3c-5.8,0-9.4-4.4-9.4-11.3c0-7,3.6-11.3,9.4-11.3C107.7,412.7,111.3,417.1,111.3,424.1z"/>
	<polygon points="191.9,459 191.9,430.8 188.4,430.8 188.4,443 172.9,443 172.9,430.8 169.4,430.8 169.4,459 172.9,459 172.9,446.2 
		188.4,446.2 188.4,459 	"/>
	<polygon points="52.1,531.6 52,531.6 36.5,509.5 33.1,509.5 33.1,537.7 36.6,537.7 36.6,515.6 36.8,515.6 52.2,537.7 55.6,537.7 
		55.6,509.5 52.1,509.5 	"/>
	<polygon points="52.1,553.9 36.6,553.9 36.6,541.7 33.1,541.7 33.1,569.9 36.6,569.9 36.6,557 52.1,557 52.1,569.9 55.6,569.9 
		55.6,541.7 52.1,541.7 	"/>
</g>
<g>
	<path class="st0" d="M86.9,172.2h2c-1.1-1.8-2-3.5-2.6-5.1s-1.1-3-1.4-4.5s-0.5-3-0.5-4.5c0-2.3,0.3-4.6,1-6.8
		c0.7-2.2,1.8-4.6,3.4-7.3h-2c-1.7,2.2-3,4.5-3.9,6.9s-1.3,4.8-1.3,7.2c0,2.3,0.4,4.7,1.3,7.1C84,167.8,85.2,170.1,86.9,172.2z"/>
	<path class="st0" d="M101.2,145.5h-7.4l-4.6,21.5H92l2-9.3h2.6c1,0,1.8,0.1,2.3,0.4c0.6,0.3,1,0.7,1.3,1.3c0.3,0.6,0.7,1.6,1.1,2.9
		l1.3,4.6h3.1l-1.6-5.4c-0.3-1-0.6-1.8-0.8-2.4s-0.5-1-0.8-1.3c-0.2-0.3-0.5-0.5-0.9-0.6l0-0.1c1.4-0.3,2.6-0.7,3.5-1.3
		c0.9-0.6,1.6-1.4,2.1-2.2s0.7-1.8,0.7-2.7c0-1.8-0.5-3.2-1.6-4.1C105.2,145.9,103.5,145.5,101.2,145.5z M104.2,153.3
		c-0.4,0.6-1,1.1-1.9,1.4s-1.8,0.5-2.9,0.5h-4.9L96,148h5c1.3,0,2.2,0.2,2.9,0.7c0.6,0.5,0.9,1.3,0.9,2.4
		C104.9,151.9,104.6,152.7,104.2,153.3z"/>
	<path class="st0" d="M110.6,144.1h-2c1.6,2.7,2.7,5.1,3.4,7.3c0.7,2.2,1.1,4.5,1.1,6.7c0,2.3-0.4,4.6-1.1,6.8
		c-0.7,2.2-1.9,4.6-3.4,7.3l2,0c1.7-2.2,3-4.5,3.9-6.9c0.9-2.4,1.3-4.8,1.3-7.1c0-2.4-0.4-4.8-1.3-7.2S112.3,146.3,110.6,144.1z"/>
	<path class="st0" d="M196.5,217h2c-1.1-1.8-2-3.5-2.6-5.1s-1.1-3-1.4-4.5s-0.5-3-0.5-4.5c0-2.3,0.3-4.6,1-6.8
		c0.7-2.2,1.8-4.6,3.4-7.3h-2c-1.7,2.2-3,4.5-3.9,6.9s-1.3,4.8-1.3,7.2c0,2.3,0.4,4.7,1.3,7.1C193.5,212.6,194.8,214.9,196.5,217z"
		/>
	<path class="st0" d="M210.8,190.3h-7.4l-4.6,21.5h2.8l2-9.3h2.6c1,0,1.8,0.1,2.3,0.4c0.6,0.3,1,0.7,1.3,1.3
		c0.3,0.6,0.7,1.6,1.1,2.9l1.3,4.6h3.1l-1.6-5.4c-0.3-1-0.6-1.8-0.8-2.4s-0.5-1-0.8-1.3c-0.2-0.3-0.5-0.5-0.9-0.6l0-0.1
		c1.4-0.3,2.6-0.7,3.5-1.3c0.9-0.6,1.6-1.4,2.1-2.2s0.7-1.8,0.7-2.7c0-1.8-0.5-3.2-1.6-4.1C214.8,190.7,213.1,190.3,210.8,190.3z
		 M213.8,198.1c-0.4,0.6-1,1.1-1.9,1.4s-1.8,0.5-2.9,0.5h-4.9l1.5-7.1h5c1.3,0,2.2,0.2,2.9,0.7c0.6,0.5,0.9,1.3,0.9,2.4
		C214.4,196.7,214.2,197.5,213.8,198.1z"/>
	<path class="st0" d="M218.2,217l2,0c1.7-2.2,3-4.5,3.9-6.9c0.9-2.4,1.3-4.8,1.3-7.1c0-2.4-0.4-4.8-1.3-7.2s-2.2-4.7-3.9-6.9h-2
		c1.6,2.7,2.7,5.1,3.4,7.3c0.7,2.2,1.1,4.5,1.1,6.7c0,2.3-0.4,4.6-1.1,6.8C220.9,211.9,219.8,214.4,218.2,217z"/>
	<path class="st0" d="M198.8,504.9h-2c-1.7,2.2-3,4.5-3.9,6.9s-1.3,4.8-1.3,7.2c0,2.3,0.4,4.7,1.3,7.1c0.9,2.4,2.2,4.7,3.9,6.9h2
		c-1.1-1.8-2-3.5-2.6-5.1s-1.1-3-1.4-4.5s-0.5-3-0.5-4.5c0-2.3,0.3-4.6,1-6.8C196.1,510,197.2,507.6,198.8,504.9z"/>
	<path class="st0" d="M206.9,508.8c0.8-0.3,1.7-0.5,2.7-0.5c1.5,0,2.7,0.4,3.4,1.1c0.7,0.7,1.1,1.8,1.2,3.3l2.8-0.6
		c-0.2-2.1-0.8-3.6-2-4.7c-1.2-1-2.9-1.5-5.2-1.5c-1.7,0-3.1,0.3-4.3,0.9s-2.1,1.3-2.8,2.3s-1,2-1,3.1c0,1,0.2,1.8,0.5,2.5
		s0.9,1.3,1.7,1.8s1.9,0.9,3.3,1.2c1.5,0.4,2.7,0.7,3.5,1s1.4,0.7,1.7,1.2s0.5,1,0.5,1.8c0,0.8-0.2,1.5-0.7,2.1
		c-0.4,0.6-1.1,1.1-2,1.4s-1.9,0.5-3.2,0.5c-1.7,0-3-0.4-3.9-1.3c-0.8-0.9-1.3-2.2-1.4-4l-2.9,0.6c0.1,2.2,0.8,3.9,2.1,5.2
		c1.3,1.2,3.3,1.9,5.9,1.9c1.5,0,3-0.2,4.3-0.7c1.3-0.5,2.4-1.2,3.2-2.2c0.8-1,1.2-2.2,1.2-3.7c0-1.1-0.2-2.1-0.6-2.8
		s-1.1-1.4-2.2-2c-1-0.6-2.4-1.1-4.2-1.6c-1.1-0.3-1.9-0.5-2.5-0.8s-1-0.5-1.3-0.8c-0.3-0.3-0.5-0.8-0.5-1.3c0-0.7,0.2-1.4,0.6-2
		C205.6,509.6,206.2,509.2,206.9,508.8z"/>
	<path class="st0" d="M219.9,504.9h-2c1.6,2.7,2.7,5.1,3.4,7.3c0.7,2.2,1.1,4.5,1.1,6.7c0,2.3-0.4,4.6-1.1,6.8
		c-0.7,2.2-1.9,4.6-3.4,7.3l2,0c1.7-2.2,3-4.5,3.9-6.9c0.9-2.4,1.3-4.8,1.3-7.1c0-2.4-0.4-4.8-1.3-7.2S221.6,507.1,219.9,504.9z"/>
	<path class="st0" d="M89.2,460.1h-2c-1.7,2.2-3,4.5-3.9,6.9s-1.3,4.8-1.3,7.2c0,2.3,0.4,4.7,1.3,7.1c0.9,2.4,2.2,4.7,3.9,6.9h2
		c-1.1-1.8-2-3.5-2.6-5.1s-1.1-3-1.4-4.5s-0.5-3-0.5-4.5c0-2.3,0.3-4.6,1-6.8C86.5,465.2,87.6,462.8,89.2,460.1z"/>
	<path class="st0" d="M97.3,464c0.8-0.3,1.7-0.5,2.7-0.5c1.5,0,2.7,0.4,3.4,1.1c0.7,0.7,1.1,1.8,1.2,3.3l2.8-0.6
		c-0.2-2.1-0.8-3.6-2-4.7c-1.2-1-2.9-1.5-5.2-1.5c-1.7,0-3.1,0.3-4.3,0.9s-2.1,1.3-2.8,2.3s-1,2-1,3.1c0,1,0.2,1.8,0.5,2.5
		s0.9,1.3,1.7,1.8s1.9,0.9,3.3,1.2c1.5,0.4,2.7,0.7,3.5,1s1.4,0.7,1.7,1.2s0.5,1,0.5,1.8c0,0.8-0.2,1.5-0.7,2.1
		c-0.4,0.6-1.1,1.1-2,1.4s-1.9,0.5-3.2,0.5c-1.7,0-3-0.4-3.9-1.3c-0.8-0.9-1.3-2.2-1.4-4l-2.9,0.6c0.1,2.2,0.8,3.9,2.1,5.2
		c1.3,1.2,3.3,1.9,5.9,1.9c1.5,0,3-0.2,4.3-0.7c1.3-0.5,2.4-1.2,3.2-2.2c0.8-1,1.2-2.2,1.2-3.7c0-1.1-0.2-2.1-0.6-2.8
		s-1.1-1.4-2.2-2c-1-0.6-2.4-1.1-4.2-1.6c-1.1-0.3-1.9-0.5-2.5-0.8s-1-0.5-1.3-0.8c-0.3-0.3-0.5-0.8-0.5-1.3c0-0.7,0.2-1.4,0.6-2
		C96,464.8,96.6,464.4,97.3,464z"/>
	<path class="st0" d="M110.3,460.1h-2c1.6,2.7,2.7,5.1,3.4,7.3c0.7,2.2,1.1,4.5,1.1,6.7c0,2.3-0.4,4.6-1.1,6.8
		c-0.7,2.2-1.9,4.6-3.4,7.3l2,0c1.7-2.2,3-4.5,3.9-6.9c0.9-2.4,1.3-4.8,1.3-7.1c0-2.4-0.4-4.8-1.3-7.2S112,462.3,110.3,460.1z"/>
</g>
</svg>
