<?xml version="1.0" encoding="utf-8"?>
<!-- Generator: Adobe Illustrator 19.2.1, SVG Export Plug-In . SVG Version: 6.00 Build 0)  -->
<svg version="1.1" id="Слой_1" xmlns="http://www.w3.org/2000/svg" xmlns:xlink="http://www.w3.org/1999/xlink" x="0px" y="0px"
	 viewBox="0 0 434.4 202.5" style="enable-background:new 0 0 434.4 202.5;" xml:space="preserve" width="434.4" height="202.5">
<g>
	<rect x="24.5" y="106.6" width="2.4" height="45.6"/>
	<rect x="62.2" y="162.4" transform="matrix(0.8663 -0.4996 0.4996 0.8663 -70.3574 64.3504)" width="45.6" height="2.4"/>
	<rect x="83.8" y="72.3" transform="matrix(0.5 -0.866 0.866 0.5 -39.895 121.2077)" width="2.4" height="45.6"/>
	<path d="M216,98.5L216,98.5l-1.1,0.7l-1.1-0.7l0,0l-46.4-26.8l0,0l-1.7-1l-0.6-0.3l-0.6,0.3l-49.3,28.5L65.9,70.7l-0.6-0.3
		l-0.6,0.3l-1.7,1l0,0L16.5,98.5v0l-1.7,1l-0.6,0.3v0.7v2v53.6v2l0,0.7l0.6,0.3l1.7,1v0L62.9,187l0,0l1.7,1l0.6,0.3l0.6-0.3
		l49.9-28.8l0.6-0.3v-0.7v-2v-54.9L165,73.2l47.6,27.5l0,0l1.7,1l0.6,0.3l0.6-0.3l1.7-1l0,0l31.4-18.1l-1.2-2.1L216,98.5z
		 M113.9,157.5l-48.7,28.1l-48.7-28.1v-1.3v-53.6v-1.3l48.7-28.1l48.7,28.1v54.9V157.5z"/>
	<polygon points="210.9,125.8 218.9,125.8 218.6,123.4 211.2,123.4 	"/>
	<polygon points="213.3,104.2 213,106.6 216.8,106.6 216.5,104.2 	"/>
	<polygon points="209.8,135.4 220,135.4 219.7,133 210.1,133 	"/>
	<polygon points="208,152.2 207.7,154.6 222.1,154.6 221.8,152.2 	"/>
	<polygon points="212,116.2 217.8,116.2 217.6,113.8 212.2,113.8 	"/>
	<polygon points="208.8,145 221,145 220.8,142.6 209,142.6 	"/>
	<rect x="263.6" y="14.2" width="2.4" height="36.6"/>
	<polygon points="415,44 413.8,41.9 364,70.7 315.8,98.5 315.8,98.5 314.7,99.2 313.5,98.5 313.5,98.5 282.2,80.4 281,82.5 
		312.3,100.6 312.3,100.6 314.1,101.6 314.7,102 315.3,101.6 317,100.6 317,100.6 365.2,72.8 	"/>
	<rect x="365.9" y="65.2" transform="matrix(0.866 -0.5 0.5 0.866 19.701 206.2335)" width="57.6" height="2.4"/>
	<rect x="355.5" y="47.2" transform="matrix(0.8663 -0.4996 0.4996 0.8663 27.2155 198.4642)" width="57.6" height="2.4"/>
	<polygon points="272.6,79.3 272.4,79.3 257,57.2 253.5,57.2 253.5,85.4 257,85.4 257,63.3 257.2,63.3 272.6,85.4 276,85.4 
		276,57.2 272.6,57.2 	"/>
</g>
</svg>
