<?xml version="1.0" encoding="utf-8"?>
<!-- Generator: Adobe Illustrator 28.0.0, SVG Export Plug-In . SVG Version: 6.00 Build 0)  -->
<svg version="1.1" id="Слой_1" xmlns="http://www.w3.org/2000/svg" xmlns:xlink="http://www.w3.org/1999/xlink" x="0px" y="0px"
	 viewBox="0 0 874.7 302.1" style="enable-background:new 0 0 874.7 302.1;" xml:space="preserve" width="874.7" height="302.1">
<g>
	<polygon points="471,162.3 473,162.3 473,156.1 479.2,156.1 479.2,154.1 473,154.1 473,147.9 471,147.9 471,154.1 464.9,154.1 
		464.9,156.1 471,156.1 	"/>
	<path d="M472,166.1c6.1,0,11-5,11-11c0-6.1-5-11-11-11s-11,5-11,11C461,161.2,465.9,166.1,472,166.1z M472,146.4
		c4.8,0,8.6,3.9,8.6,8.6s-3.9,8.6-8.6,8.6s-8.6-3.9-8.6-8.6S467.3,146.4,472,146.4z"/>
	<rect x="24.6" y="193" width="2.4" height="45.6"/>
	<rect x="62.2" y="248.8" transform="matrix(0.8661 -0.4998 0.4998 0.8661 -113.5625 75.9443)" width="45.6" height="2.4"/>
	<rect x="83.8" y="158.8" transform="matrix(0.5001 -0.866 0.866 0.5001 -114.7484 164.377)" width="2.4" height="45.6"/>
	<rect x="113.9" y="14.2" width="2.4" height="36.2"/>
	<polygon points="328.8,121.5 326.4,121.5 326.4,159.1 323,157.1 322.4,156.8 321.8,157.1 318.4,159.1 318.4,121.5 316,121.5 
		316,160.5 288.4,176.4 289.6,178.5 321.3,160.2 321.3,160.2 322.4,159.6 323.5,160.2 323.5,160.2 353.7,177.7 354.9,175.6 
		328.8,160.5 	"/>
	<polygon points="422.1,156.8 421.5,157.1 389.6,175.6 390.8,177.7 421,160.2 421,160.2 422.1,159.6 423.2,160.2 423.3,160.2 
		454.9,178.5 456.1,176.4 422.7,157.1 	"/>
	<rect x="481.2" y="207.2" width="2.4" height="31.4"/>
	<polygon points="522.5,262.4 562,239.6 560.8,237.5 521.3,260.3 	"/>
	<polygon points="562,191.9 522.5,169.1 521.3,171.2 560.8,194 	"/>
	<polygon points="628.1,121.5 625.7,121.5 625.7,159.1 624,158.1 624,158.1 621.6,156.8 621.1,157.1 621.1,157.1 617.7,159.1 
		617.7,121.5 615.3,121.5 615.3,160.5 571.8,185.6 524.2,158.1 524.2,158.1 522.7,157.3 522.5,157.1 522.5,157.1 521.9,156.8 
		520.8,157.4 487.9,176.4 489.1,178.5 520.8,160.2 520.8,160.2 521.9,159.6 570.6,187.7 570.6,242.6 570.6,243.9 521.9,272 
		520.8,271.3 520.8,271.3 474.4,244.5 474.4,244.5 473.2,243.9 473.2,242.6 473.2,207.2 470.8,207.2 470.8,242.6 470.8,244.6 
		470.8,245.3 471.4,245.6 471.4,245.6 521.3,274.4 521.3,274.4 521.9,274.8 522.5,274.4 522.5,274.4 522.7,274.3 524.2,273.4 
		524.2,273.4 570.7,246.6 570.7,246.6 573,245.3 573,244.6 573,242.6 573,187.7 620.5,160.2 620.5,160.2 621.7,159.6 654.5,178.5 
		655.7,176.4 628.1,160.5 	"/>
	<path d="M772.5,184.9L772.5,184.9l-1.1,0.6l-48.6-28.1l3.2-58.1L754.2,83l-1.2-2.1l-27,15.6l0,0l-10.4,6l4.5,55l-32.7,18.9l1.2,2.1
		l32.8-18.9l43.5,25.1v38.5h2.4V186l1.7,1l0,0l1.5,0.9l0.2,0.1l0,0l0.6,0.3l0.6-0.3l0,0l3.4-2v37.1h2.4v-38.5l26.4-15.2l-1.2-2.1
		L772.5,184.9z M721.5,158.2L721.5,158.2L721.5,158.2L721.5,158.2z"/>
	<path d="M207.9,84.5c3.1,1.9,7.1,1.9,7.1,1.9c3.9,0,7-1.8,7-1.8c3.1-1.8,4.9-5.2,4.9-5.2c1.8-3.4,1.8-7.8,1.8-7.8
		c0-4.5-1.8-7.8-1.8-7.8c-1.8-3.4-4.9-5.2-4.9-5.2c-3.1-1.8-7-1.8-7-1.8c-3.9,0-7,1.8-7,1.8c-3.2,1.8-4.9,5.2-4.9,5.2
		c-1.8,3.4-1.8,7.8-1.8,7.8c0,4.3,1.8,7.7,1.8,7.7C204.7,82.6,207.9,84.5,207.9,84.5z M206.3,65.4c1.2-2.6,3.4-4,3.4-4
		c2.2-1.4,5.1-1.4,5.1-1.4c2.9,0,5.1,1.4,5.1,1.4c2.2,1.4,3.5,4,3.5,4c1.2,2.6,1.2,6.2,1.2,6.2c0,3.5-1.2,6.1-1.2,6.1
		c-1.2,2.6-3.5,4-3.5,4c-2.2,1.4-5,1.4-5,1.4c-2.8,0-5.1-1.4-5.1-1.4c-2.2-1.4-3.4-4-3.4-4c-1.2-2.6-1.2-6.1-1.2-6.1
		C205.1,68,206.3,65.4,206.3,65.4z"/>
	<path d="M108.1,84.5c3.1,1.9,7,1.9,7,1.9c3.9,0,7-1.8,7-1.8c3.1-1.8,4.9-5.2,4.9-5.2c1.8-3.3,1.8-7.8,1.8-7.8
		c0-4.5-1.8-7.8-1.8-7.8c-1.8-3.4-4.9-5.2-4.9-5.2c-3.1-1.8-7-1.8-7-1.8c-3.9,0-7,1.8-7,1.8c-3.1,1.8-4.9,5.2-4.9,5.2
		c-1.8,3.4-1.8,7.8-1.8,7.8c0,4.3,1.8,7.7,1.8,7.7C105,82.6,108.1,84.5,108.1,84.5z M106.6,65.4c1.2-2.6,3.4-4,3.4-4
		c2.2-1.4,5.1-1.4,5.1-1.4c2.9,0,5.1,1.4,5.1,1.4c2.2,1.4,3.4,4,3.4,4c1.2,2.6,1.2,6.2,1.2,6.2c0,3.5-1.2,6.1-1.2,6.1
		c-1.2,2.6-3.5,4-3.5,4c-2.2,1.4-5,1.4-5,1.4c-2.8,0-5.1-1.4-5.1-1.4c-2.2-1.4-3.4-4-3.4-4c-1.3-2.6-1.3-6.1-1.3-6.1
		C105.3,68,106.6,65.4,106.6,65.4z"/>
	<polygon points="225.7,143.2 225.7,114.6 221.9,114.6 221.9,126.3 207.9,126.3 207.9,114.6 204.1,114.6 204.1,143.2 207.9,143.2 
		207.9,129.7 221.9,129.7 221.9,143.2 	"/>
	<polygon points="265.1,178.4 265.2,178.4 279.6,200.8 283.5,200.8 283.5,172.2 279.9,172.2 279.9,194.5 279.8,194.5 265.4,172.2 
		261.5,172.2 261.5,200.8 265.1,200.8 	"/>
	<path d="M302.3,236.3L302.3,236.3l-17.6-30.5l-2.1,1.2l16.6,28.8l0,0l0.6,1.1l-0.6,1.1l0,0l-27.5,47.6h-1.3h-53.6h-1.3L188.1,238
		l0,0l-0.6-1.1l0.6-1.1l0,0l27.5-47.6h39.5v-2.4h-38.8l4.6-36.2h-12l4.5,35.2l-47.1-27.2l4.4-52.8l29.7-17.2l-1.2-2.1l-29,16.7
		l-8-4.6l33-19l-1.2-2.1l-34.2,19.7L133.5,81l-1.2,2.1l26.6,15.3l4.9,59.1l-48.6,28.1l-49.2-28.4l-0.6-0.4l-0.6,0.3l0,0l-0.1,0.1
		l-1.7,0.9l0,0l-46.4,26.8l0,0l-2.3,1.3v0.7v2v53.6v2v0.7l2.3,1.3l0,0l46.4,26.8l0,0l1.7,0.9l0.1,0.1l0,0l0.6,0.3l0.6-0.4l49.7-28.7
		l0.7-0.4v-0.7v-2v-54.9l48.7-28.1l48.2,27.9l-28.2,48.8h0l-0.3,0.6l0.4,0.6l0,0l27.8,48.2l0,0l0.7,1.3l0.2,0.4l0,0l0.3,0.6h0.7h2
		h53.6h2h0.7l0.3-0.6l0,0l0.3-0.4l0.7-1.3l0,0l27.8-48.2l0,0l0.4-0.6L302.3,236.3z M113.9,242.6v1.3l-1.2,0.7l0,0l-46.4,26.8l0,0
		l-1.1,0.7l-48.7-28.1v-1.3V189v-1.3l48.7-28.1l1.1,0.7l0,0l47.6,27.5V242.6z M165,158.2L165,158.2L165,158.2L165,158.2z"/>
	<path d="M379.3,173.7c-3.1-1.8-7-1.8-7-1.8c-3.9,0-7,1.8-7,1.8c-3.2,1.8-4.9,5.2-4.9,5.2c-1.8,3.4-1.8,7.8-1.8,7.8
		c0,4.3,1.8,7.7,1.8,7.7c1.8,3.4,4.9,5.2,4.9,5.2c3.1,1.9,7,1.9,7,1.9c3.9,0,7-1.8,7-1.8c3.1-1.8,4.9-5.2,4.9-5.2
		c1.8-3.3,1.8-7.8,1.8-7.8c0-4.5-1.8-7.8-1.8-7.8C382.4,175.5,379.3,173.7,379.3,173.7z M380.8,192.9c-1.2,2.6-3.4,4-3.4,4
		c-2.2,1.4-5.1,1.4-5.1,1.4c-2.8,0-5-1.4-5-1.4c-2.2-1.4-3.5-4-3.5-4c-1.2-2.6-1.2-6.1-1.2-6.1c0-3.6,1.2-6.3,1.2-6.3
		c1.2-2.6,3.5-4,3.5-4c2.2-1.4,5.1-1.4,5.1-1.4c2.9,0,5.1,1.4,5.1,1.4c2.2,1.4,3.5,4,3.5,4c1.2,2.6,1.2,6.2,1.2,6.2
		C382,190.3,380.8,192.9,380.8,192.9z"/>
	<path d="M329.4,87.3c-3.1-1.8-7-1.8-7-1.8c-3.9,0-7,1.8-7,1.8c-3.2,1.8-4.9,5.2-4.9,5.2c-1.8,3.4-1.8,7.8-1.8,7.8
		c0,4.3,1.8,7.7,1.8,7.7c1.8,3.4,4.9,5.2,4.9,5.2c3.2,1.9,7.1,1.9,7.1,1.9c3.9,0,7-1.8,7-1.8c3.1-1.8,4.9-5.2,4.9-5.2
		c1.8-3.4,1.8-7.8,1.8-7.8c0-4.5-1.8-7.8-1.8-7.8C332.5,89.1,329.4,87.3,329.4,87.3z M330.9,106.5c-1.2,2.6-3.5,4-3.5,4
		c-2.2,1.4-5,1.4-5,1.4c-2.8,0-5-1.4-5-1.4c-2.2-1.4-3.5-4-3.5-4c-1.2-2.6-1.2-6.1-1.2-6.1c0-3.6,1.2-6.3,1.2-6.3
		c1.2-2.6,3.5-4,3.5-4c2.2-1.4,5.1-1.4,5.1-1.4c2.9,0,5.1,1.4,5.1,1.4c2.2,1.4,3.5,4,3.5,4c1.2,2.6,1.2,6.2,1.2,6.2
		C332.1,103.9,330.9,106.5,330.9,106.5z"/>
	<polygon points="483,200.8 483,172.2 479.4,172.2 479.4,194.5 479.3,194.5 464.9,172.2 461.1,172.2 461.1,200.8 464.7,200.8 
		464.7,178.4 464.7,178.4 479.1,200.8 	"/>
	<polygon points="678.9,194.5 678.9,194.5 664.5,172.2 660.6,172.2 660.6,200.8 664.2,200.8 664.2,178.4 664.3,178.4 678.7,200.8 
		682.5,200.8 682.5,172.2 678.9,172.2 	"/>
	<polygon points="678.6,216.5 664.5,216.5 664.5,204.8 660.7,204.8 660.7,233.4 664.5,233.4 664.5,219.9 678.6,219.9 678.6,233.4 
		682.4,233.4 682.4,204.8 678.6,204.8 	"/>
	<path d="M614.7,113.3c3.1,1.9,7,1.9,7,1.9c3.9,0,7-1.8,7-1.8c3.1-1.8,4.9-5.2,4.9-5.2c1.8-3.3,1.8-7.8,1.8-7.8
		c0-4.5-1.8-7.8-1.8-7.8c-1.8-3.4-4.9-5.2-4.9-5.2c-3.1-1.8-7-1.8-7-1.8c-3.9,0-7,1.8-7,1.8c-3.1,1.8-4.9,5.2-4.9,5.2
		c-1.8,3.4-1.8,7.8-1.8,7.8c0,4.3,1.8,7.7,1.8,7.7C611.5,111.4,614.7,113.3,614.7,113.3z M613.1,94.2c1.2-2.6,3.4-4,3.4-4
		c2.2-1.4,5.1-1.4,5.1-1.4c2.9,0,5.1,1.4,5.1,1.4c2.2,1.4,3.4,4,3.4,4c1.2,2.6,1.2,6.2,1.2,6.2c0,3.5-1.2,6.1-1.2,6.1
		c-1.3,2.6-3.5,4-3.5,4c-2.2,1.4-5.1,1.4-5.1,1.4c-2.8,0-5-1.4-5-1.4c-2.2-1.4-3.5-4-3.5-4c-1.2-2.6-1.2-6.1-1.2-6.1
		C611.9,96.8,613.1,94.2,613.1,94.2z"/>
	<path d="M764.3,84.5c3.1,1.9,7,1.9,7,1.9c3.9,0,7-1.8,7-1.8c3.1-1.8,4.9-5.2,4.9-5.2c1.8-3.3,1.8-7.8,1.8-7.8
		c0-4.5-1.8-7.8-1.8-7.8c-1.8-3.4-4.9-5.2-4.9-5.2c-3.1-1.8-7-1.8-7-1.8c-3.9,0-7,1.8-7,1.8c-3.1,1.8-4.9,5.2-4.9,5.2
		c-1.8,3.4-1.8,7.8-1.8,7.8c0,4.3,1.8,7.7,1.8,7.7C761.2,82.6,764.3,84.5,764.3,84.5z M762.8,65.4c1.2-2.6,3.4-4,3.4-4
		c2.2-1.4,5.1-1.4,5.1-1.4c2.9,0,5.1,1.4,5.1,1.4c2.2,1.4,3.4,4,3.4,4c1.2,2.6,1.2,6.2,1.2,6.2c0,3.5-1.2,6.1-1.2,6.1
		c-1.2,2.6-3.5,4-3.5,4c-2.2,1.4-5.1,1.4-5.1,1.4c-2.8,0-5-1.4-5-1.4c-2.2-1.4-3.4-4-3.4-4c-1.3-2.6-1.3-6.1-1.3-6.1
		C761.5,68,762.8,65.4,762.8,65.4z"/>
	<polygon points="810.7,85.9 810.7,57.2 806.9,57.2 806.9,69 792.8,69 792.8,57.2 789,57.2 789,85.9 792.8,85.9 792.8,72.4 
		806.9,72.4 806.9,85.9 	"/>
	<path d="M828.3,144.9c-3.1-1.8-7-1.8-7-1.8c-3.9,0-7,1.8-7,1.8c-3.1,1.8-4.9,5.2-4.9,5.2c-1.8,3.4-1.8,7.8-1.8,7.8
		c0,4.3,1.8,7.7,1.8,7.7c1.8,3.4,4.9,5.2,4.9,5.2c3.1,1.9,7,1.9,7,1.9c3.9,0,7-1.8,7-1.8c3.1-1.8,4.9-5.2,4.9-5.2
		c1.8-3.3,1.8-7.8,1.8-7.8c0-4.5-1.8-7.8-1.8-7.8C831.3,146.7,828.3,144.9,828.3,144.9z M829.7,164.1c-1.2,2.6-3.5,4-3.5,4
		c-2.2,1.4-5.1,1.4-5.1,1.4c-2.8,0-5-1.4-5-1.4c-2.2-1.4-3.4-4-3.4-4c-1.3-2.6-1.3-6.1-1.3-6.1c0-3.6,1.2-6.3,1.2-6.3
		c1.2-2.6,3.4-4,3.4-4c2.2-1.4,5.1-1.4,5.1-1.4c2.9,0,5.1,1.4,5.1,1.4c2.2,1.4,3.4,4,3.4,4c1.2,2.6,1.2,6.2,1.2,6.2
		C831,161.5,829.7,164.1,829.7,164.1z"/>
	<polygon points="856.8,143.6 856.8,155.4 842.7,155.4 842.7,143.6 838.9,143.6 838.9,172.3 842.7,172.3 842.7,158.8 856.8,158.8 
		856.8,172.3 860.6,172.3 860.6,143.6 	"/>
	<path d="M778.4,231.3c-3.1-1.8-7-1.8-7-1.8c-3.9,0-7,1.8-7,1.8c-3.1,1.8-4.9,5.2-4.9,5.2c-1.8,3.4-1.8,7.8-1.8,7.8
		c0,4.3,1.8,7.7,1.8,7.7c1.8,3.4,4.9,5.2,4.9,5.2c3.1,1.9,7,1.9,7,1.9c3.9,0,7-1.8,7-1.8c3.1-1.8,4.9-5.2,4.9-5.2
		c1.8-3.3,1.8-7.8,1.8-7.8c0-4.5-1.8-7.8-1.8-7.8C781.5,233.1,778.4,231.3,778.4,231.3z M779.9,250.5c-1.2,2.6-3.5,4-3.5,4
		c-2.2,1.4-5.1,1.4-5.1,1.4c-2.8,0-5-1.4-5-1.4c-2.2-1.4-3.4-4-3.4-4c-1.3-2.6-1.3-6.1-1.3-6.1c0-3.6,1.2-6.3,1.2-6.3
		c1.2-2.6,3.4-4,3.4-4c2.2-1.4,5.1-1.4,5.1-1.4c2.9,0,5.1,1.4,5.1,1.4c2.2,1.4,3.4,4,3.4,4c1.2,2.6,1.2,6.2,1.2,6.2
		C781.1,247.9,779.9,250.5,779.9,250.5z"/>
	<rect x="449" y="94" width="3.5" height="28.6"/>
	<path d="M428.3,98.2c2.1-1.4,5.1-1.4,5.1-1.4c3,0,5,1.5,5,1.5c2,1.5,2.8,4.5,2.8,4.5l3.7-0.9c-1.1-4.1-4.1-6.2-4.1-6.2
		c-3-2.1-7.4-2.1-7.4-2.1c-3.9,0-6.9,1.8-6.9,1.8c-3,1.8-4.7,5.1-4.7,5.1c-1.7,3.3-1.7,7.8-1.7,7.8c0,4.7,1.6,8,1.6,8
		c1.6,3.4,4.6,5.2,4.6,5.2c3,1.8,7.1,1.8,7.1,1.8c3,0,5.5-1.2,5.5-1.2c2.5-1.1,4.2-3.3,4.2-3.3c1.7-2.2,2.3-5.1,2.3-5.1l-3.7-0.9
		c-0.8,3.5-3,5.4-3,5.4c-2.2,1.8-5.5,1.8-5.5,1.8c-2.9,0-5-1.4-5-1.4c-2.1-1.4-3.2-4.1-3.2-4.1c-1.1-2.6-1.1-6.2-1.1-6.2
		c0-3.3,1.1-5.9,1.1-5.9C426.2,99.7,428.3,98.2,428.3,98.2z"/>
	<rect x="464.9" y="91.6" width="14.3" height="2"/>
	<path d="M461,92.6c0,6.1,5,11,11,11s11-5,11-11c0-6.1-5-11-11-11S461,86.5,461,92.6z M480.7,92.6c0,4.8-3.9,8.6-8.6,8.6
		s-8.6-3.9-8.6-8.6s3.9-8.6,8.6-8.6S480.7,87.8,480.7,92.6z"/>
</g>
</svg>
