<?xml version="1.0" standalone="no" ?>
<!DOCTYPE svg PUBLIC "-//W3C//DTD SVG 1.1//EN" "http://www.w3.org/Graphics/SVG/1.1/DTD/svg11.dtd">
<svg width="125px" height="182px" viewBox="0 0 125 182" style="" xmlns="http://www.w3.org/2000/svg" xmlns:xlink="http://www.w3.org/1999/xlink" version="1.1" >
<text x="0" y="0" stroke="transparent" fill="#000000" transform="matrix(0.05 0 0 0.05 2.13478 98.0653)" style="font:normal normal normal 200px 'Arial'" >
Cl</text>
<text x="0" y="0" stroke="transparent" fill="#000000" transform="matrix(0.05 0 0 0.05 76.32 178.896)" style="font:normal normal normal 200px 'Arial'" >
F</text>
<text x="0" y="0" stroke="transparent" fill="#000000" transform="matrix(0.05 0 0 0.05 107.994 10.4957)" style="font:normal normal normal 200px 'Arial'" >
NH</text>
<text x="0" y="0" stroke="transparent" fill="#000000" transform="matrix(0.05 0 0 0.05 71.3135 59.7299)" style="font:normal normal normal 200px 'Arial'" >
N</text>
<text x="0" y="0" stroke="transparent" fill="#000000" transform="matrix(0.05 0 0 0.05 94.2985 29.3455)" style="font:normal normal normal 200px 'Arial'" >
N</text>
<text x="0" y="0" stroke="transparent" fill="#000000" transform="matrix(0.05 0 0 0.05 57.964 124.115)" style="font:normal normal normal 200px 'Arial'" >
N</text>
<path stroke="transparent" fill="#000000" transform="matrix(0.05 0 0 0.05 -380 -76)" d="M 9297.97,4541.99 L 9284.42,4539.11 L 9197.56,4271.79 L 9206.83,4261.49 L 9297.97,4541.99 Z " />
<path stroke="transparent" fill="#000000" transform="matrix(0.05 0 0 0.05 -380 -76)" d="M 8821.42,4689.54 L 8812.14,4699.84 L 8721.01,4419.35 L 8734.56,4422.23 L 8821.42,4689.54 Z " />
<path stroke="transparent" fill="#000000" transform="matrix(0.05 0 0 0.05 -380 -76)" d="M 8862.54,4648.35 L 8851.13,4652.06 L 8780.63,4435.09 L 8792.04,4431.38 L 8862.54,4648.35 Z " />
<path stroke="transparent" fill="#000000" transform="matrix(0.05 0 0 0.05 -380 -76)" d="M 8052.76,3847.33 L 8064.76,3840.4 L 8308.18,3980.93 L 8308.18,3994.79 L 8052.76,3847.33 Z " />
<path stroke="transparent" fill="#000000" transform="matrix(0.05 0 0 0.05 -380 -76)" d="M 8107.6,3819.13 L 8113.6,3808.74 L 8311.18,3922.81 L 8305.18,3933.2 L 8107.6,3819.13 Z " />
<path stroke="transparent" fill="#000000" transform="matrix(0.05 0 0 0.05 -380 -76)" d="M 9206.83,3138.23 L 9197.56,3127.93 L 9284.42,2860.62 L 9297.97,2857.74 L 9206.83,3138.23 Z " />
<path stroke="transparent" fill="#000000" transform="matrix(0.05 0 0 0.05 -380 -76)" d="M 8734.56,2977.49 L 8721.01,2980.38 L 8812.14,2699.88 L 8821.42,2710.18 L 8734.56,2977.49 Z " />
<path stroke="transparent" fill="#000000" transform="matrix(0.05 0 0 0.05 -380 -76)" d="M 9555.89,1564.42 L 9560.48,1578.53 L 9396.32,1804.47 L 9381.49,1804.47 L 9555.89,1564.42 Z " />
<path stroke="transparent" fill="#000000" transform="matrix(0.05 0 0 0.05 -380 -76)" d="M 9192.12,2376.4 L 9182.85,2366.1 L 9464.55,2306.22 L 9473.83,2316.52 L 9192.12,2376.4 Z " />
<path stroke="transparent" fill="#000000" transform="matrix(0.05 0 0 0.05 -380 -76)" d="M 9197.56,3127.93 L 9206.83,3138.23 L 8925.13,3198.11 L 8920.49,3192.96 L 8922.63,3186.37 L 9197.56,3127.93 Z " />
<path stroke="transparent" fill="#000000" transform="matrix(0.05 0 0 0.05 -380 -76)" d="M 8721.01,2980.38 L 8734.56,2977.49 L 8922.63,3186.37 L 8920.49,3192.96 L 8913.72,3194.4 L 8721.01,2980.38 Z " />
<path stroke="transparent" fill="#000000" transform="matrix(0.05 0 0 0.05 -380 -76)" d="M 8064.76,3840.4 L 8052.76,3847.33 L 8052.76,3559.33 L 8058.76,3555.86 L 8064.76,3559.33 L 8064.76,3840.4 Z " />
<path stroke="transparent" fill="#000000" transform="matrix(0.05 0 0 0.05 -380 -76)" d="M 8308.18,3404.93 L 8308.18,3418.79 L 8064.76,3559.33 L 8058.76,3555.86 L 8058.76,3548.93 L 8308.18,3404.93 Z " />
<path stroke="transparent" fill="#000000" transform="matrix(0.05 0 0 0.05 -380 -76)" d="M 8305.18,3466.53 L 8311.18,3476.92 L 8113.6,3590.99 L 8107.6,3580.6 L 8305.18,3466.53 Z " />
<path stroke="transparent" fill="#000000" transform="matrix(0.05 0 0 0.05 -380 -76)" d="M 9284.42,4539.11 L 9297.97,4541.99 L 9105.26,4756.01 L 9098.49,4754.57 L 9096.35,4747.98 L 9284.42,4539.11 Z " />
<path stroke="transparent" fill="#000000" transform="matrix(0.05 0 0 0.05 -380 -76)" d="M 9228.19,4524.09 L 9237.1,4532.11 L 9084.45,4701.66 L 9075.53,4693.63 L 9228.19,4524.09 Z " />
<path stroke="transparent" fill="#000000" transform="matrix(0.05 0 0 0.05 -380 -76)" d="M 8812.14,4699.84 L 8821.42,4689.54 L 9096.35,4747.98 L 9098.49,4754.57 L 9093.85,4759.72 L 8812.14,4699.84 Z " />
<path stroke="transparent" fill="#000000" transform="matrix(0.05 0 0 0.05 -380 -76)" d="M 9206.83,4261.49 L 9197.56,4271.79 L 8922.63,4213.35 L 8920.49,4206.76 L 8925.13,4201.61 L 9206.83,4261.49 Z " />
<path stroke="transparent" fill="#000000" transform="matrix(0.05 0 0 0.05 -380 -76)" d="M 9163.39,4305.26 L 9160.9,4316.99 L 8937.74,4269.56 L 8940.24,4257.82 L 9163.39,4305.26 Z " />
<path stroke="transparent" fill="#000000" transform="matrix(0.05 0 0 0.05 -380 -76)" d="M 8734.56,4422.23 L 8721.01,4419.35 L 8913.72,4205.32 L 8920.49,4206.76 L 8922.63,4213.35 L 8734.56,4422.23 Z " />
<path stroke="transparent" fill="#000000" transform="matrix(0.05 0 0 0.05 -380 -76)" d="M 8308.18,3418.79 L 8308.18,3404.93 L 8558.28,3549.33 L 8557.59,3555.86 L 8551.59,3559.33 L 8308.18,3418.79 Z " />
<path stroke="transparent" fill="#000000" transform="matrix(0.05 0 0 0.05 -380 -76)" d="M 9008.19,3699.86 L 8993.36,3699.86 L 8829.2,3473.92 L 8831.5,3466.87 L 8838.15,3465.81 L 9008.19,3699.86 Z " />
<path stroke="transparent" fill="#000000" transform="matrix(0.05 0 0 0.05 -380 -76)" d="M 8941.55,3696.34 L 8931.85,3703.39 L 8806.84,3531.33 L 8816.55,3524.28 L 8941.55,3696.34 Z " />
<path stroke="transparent" fill="#000000" transform="matrix(0.05 0 0 0.05 -380 -76)" d="M 8913.72,3194.4 L 8920.49,3192.96 L 8925.13,3198.11 L 8838.15,3465.81 L 8831.5,3466.87 L 8826.73,3462.1 L 8913.72,3194.4 Z " />
<path stroke="transparent" fill="#000000" transform="matrix(0.05 0 0 0.05 -380 -76)" d="M 8563.59,3560.22 L 8557.59,3555.86 L 8558.28,3549.33 L 8826.73,3462.1 L 8831.5,3466.87 L 8829.2,3473.92 L 8563.59,3560.22 Z " />
<path stroke="transparent" fill="#000000" transform="matrix(0.05 0 0 0.05 -380 -76)" d="M 8308.18,3994.79 L 8308.18,3980.93 L 8551.59,3840.4 L 8557.59,3843.86 L 8558.28,3850.39 L 8308.18,3994.79 Z " />
<path stroke="transparent" fill="#000000" transform="matrix(0.05 0 0 0.05 -380 -76)" d="M 8551.59,3559.33 L 8557.59,3555.86 L 8563.59,3560.22 L 8563.59,3839.5 L 8557.59,3843.86 L 8551.59,3840.4 L 8551.59,3559.33 Z " />
<path stroke="transparent" fill="#000000" transform="matrix(0.05 0 0 0.05 -380 -76)" d="M 8499.75,3585.79 L 8511.75,3585.79 L 8511.75,3813.93 L 8499.75,3813.93 L 8499.75,3585.79 Z " />
<path stroke="transparent" fill="#000000" transform="matrix(0.05 0 0 0.05 -380 -76)" d="M 8058.76,3548.93 L 8058.76,3555.86 L 8052.76,3559.33 L 7861.37,3448.83 L 7867.37,3438.43 L 8058.76,3548.93 Z " />
<path stroke="transparent" fill="#000000" transform="matrix(0.05 0 0 0.05 -380 -76)" d="M 9093.85,4759.72 L 9098.49,4754.57 L 9105.26,4756.01 L 9157.13,4915.65 L 9145.72,4919.36 L 9093.85,4759.72 Z " />
<path stroke="transparent" fill="#000000" transform="matrix(0.05 0 0 0.05 -380 -76)" d="M 9560.48,1578.53 L 9555.89,1564.42 L 9733.69,1622.19 L 9729.99,1633.6 L 9560.48,1578.53 Z " />
<path stroke="transparent" fill="#000000" transform="matrix(0.05 0 0 0.05 -380 -76)" d="M 9838.09,1952.83 L 9826.09,1944.11 L 9826.09,1761.08 L 9838.09,1761.08 L 9838.09,1952.83 Z " />
<path stroke="transparent" fill="#000000" transform="matrix(0.05 0 0 0.05 -380 -76)" d="M 9297.97,2857.74 L 9284.42,2860.62 L 9174.53,2738.58 L 9183.45,2730.55 L 9297.97,2857.74 Z " />
<path stroke="transparent" fill="#000000" transform="matrix(0.05 0 0 0.05 -380 -76)" d="M 8821.42,2710.18 L 8812.14,2699.88 L 8999.95,2659.96 L 9002.44,2671.7 L 8821.42,2710.18 Z " />
<path stroke="transparent" fill="#000000" transform="matrix(0.05 0 0 0.05 -380 -76)" d="M 9182.85,2366.1 L 9192.12,2376.4 L 9141.17,2533.19 L 9129.76,2529.48 L 9182.85,2366.1 Z " />
<path stroke="transparent" fill="#000000" transform="matrix(0.05 0 0 0.05 -380 -76)" d="M 9381.49,1804.47 L 9396.32,1804.47 L 9489.09,1932.15 L 9479.38,1939.21 L 9381.49,1804.47 Z " />
<path stroke="transparent" fill="#000000" transform="matrix(0.05 0 0 0.05 -380 -76)" d="M 9473.83,2316.52 L 9464.55,2306.22 L 9516.96,2144.92 L 9528.38,2148.63 L 9473.83,2316.52 Z " />
<path stroke="transparent" fill="#000000" transform="matrix(0.05 0 0 0.05 -380 -76)" d="M 9826.09,1944.11 L 9838.09,1952.83 L 9657.8,2011.41 L 9654.09,2000 L 9826.09,1944.11 Z " />
<path stroke="transparent" fill="#000000" transform="matrix(0.05 0 0 0.05 -380 -76)" d="M 8993.36,3699.86 L 9008.19,3699.86 L 8909.46,3835.76 L 8899.75,3828.7 L 8993.36,3699.86 Z " />
<path stroke="transparent" fill="#000000" transform="matrix(0.05 0 0 0.05 -380 -76)" d="M 8925.13,4201.61 L 8920.49,4206.76 L 8913.72,4205.32 L 8861.17,4043.6 L 8872.58,4039.89 L 8925.13,4201.61 Z " />
<path stroke="transparent" fill="#000000" transform="matrix(0.05 0 0 0.05 -380 -76)" d="M 8558.28,3850.39 L 8557.59,3843.86 L 8563.59,3839.5 L 8733.1,3894.58 L 8729.39,3905.99 L 8558.28,3850.39 Z " />
<text x="0" y="0" stroke="transparent" fill="#000000" transform="matrix(0.05 0 0 0.05 71.1561 17.6957)" style="font:normal normal normal 200px 'Arial'" >
O</text>
<path stroke="transparent" fill="#000000" transform="matrix(0.05 0 0 0.05 -380 -76)" d="M 9202.12,1836.39 L 9202.12,1824.39 L 9407.74,1824.39 L 9407.74,1836.39 L 9202.12,1836.39 Z " />
<path stroke="transparent" fill="#000000" transform="matrix(0.05 0 0 0.05 -380 -76)" d="M 9202.12,1784.55 L 9202.12,1772.55 L 9407.74,1772.55 L 9407.74,1784.55 L 9202.12,1784.55 Z " />
</svg>
