<?xml version="1.0" encoding="UTF-8"?>
<svg id="_Слой_1" xmlns="http://www.w3.org/2000/svg" version="1.1" viewBox="0 0 448.5259843 292.7168504" width="448.5259843" height="292.7168504">
  <!-- Generator: Adobe Illustrator 29.3.1, SVG Export Plug-In . SVG Version: 2.1.0 Build 151)  -->
  <rect x="133.0960723" y="148.9596752" width="2.4000018" height="45.6279443" transform="translate(-81.6124646 202.1895073) rotate(-59.9997008)"/>
  <rect x="73.8234169" y="183.1806908" width="2.4001465" height="45.6281738"/>
  <rect x="111.4821316" y="239.015777" width="45.6278832" height="2.3998961" transform="translate(-102.1158133 99.3311987) rotate(-30.0000866)"/>
  <rect x="273.3556435" y="183.1806908" width="2.3999023" height="45.6281738"/>
  <rect x="311.0142442" y="239.0157465" width="45.6279889" height="2.3999571" transform="translate(-75.3870419 199.1335927) rotate(-30.0051341)"/>
  <path d="M365.1537392,177.8874779l31.9013672-18.4182129-1.1999512-2.0783691-31.9013672,18.4182129-49.8830566-28.8000488-44.901123,25.923584-53.6650391-25.2944336v-57.5361328l-51.0830078-29.4929199-49.7939453,28.7485352-26.9941406-21.0246582-6,10.3920898,31.7050781,12.8654785v56.1113281l-49.8830566,28.8000488v58.9855957l51.0830078,29.4926758,51.0830078-29.4926758v-57.6000977l48.6279297-28.0751953,48.7382812,33.8278809v51.8474121l51.0830078,29.4926758,49.8830566-28.7998047,32.0454102,18.5012207,1.1999512-2.0783691-32.0454102-18.5014648v-56.2143555ZM114.5385048,262.2090111l-48.6831055-28.1071777v-56.2143555l48.6831055-28.1071777,48.6831055,28.1071777v56.2143555l-48.6831055,28.1071777ZM164.4215615,175.8091088l-48.6831055-28.1071777v-56.2143555l48.6831055-28.1071777,48.6831055,28.1071777v56.2143555l-48.6831055,28.1071777ZM314.0707314,262.2090111l-48.6831055-28.1071777v-56.2143555l48.6831055-28.1071777,48.6831055,28.1071777v56.2143555l-48.6831055,28.1071777Z"/>
  <rect x="332.6282073" y="148.9596224" width="2.4000628" height="45.62805" transform="translate(18.1532596 374.9897551) rotate(-59.9998541)"/>
  <polygon points="57.2050087 29.3105736 72.0878212 29.3105736 72.0878212 42.8066674 75.8768837 42.8066674 75.8768837 14.1738549 72.0878212 14.1738549 72.0878212 25.9316674 57.2050087 25.9316674 57.2050087 14.1738549 53.4159462 14.1738549 53.4159462 42.8066674 57.2050087 42.8066674 57.2050087 29.3105736"/>
  <polygon points="75.81829 76.2090111 75.81829 47.5761986 72.1854775 47.5761986 72.1854775 70.0566674 57.146415 47.5761986 53.2596962 47.5761986 53.2596962 76.2090111 56.8925087 76.2090111 56.8925087 53.7090111 71.9315712 76.2090111 75.81829 76.2090111"/>
  <rect x="12.5053408" y="81.1336969" width="33.8446484" height="2.3998961" transform="translate(-37.2243485 25.7445501) rotate(-30.0000866)"/>
  <path d="M419.9198525,273.4648705c-1.4707031,1.2226562-3.2675781,1.8359375-5.390625,1.8359375-1.7441406,0-3.3652344-.4492188-4.8632812-1.3476562s-2.6015625-2.2578125-3.3105469-4.0703125c-.7089844-1.8203125-1.0644531-3.9453125-1.0644531-6.3789062,0-1.8867188.2988281-3.7226562.8984375-5.4960938.5996094-1.78125,1.6367188-3.1953125,3.1152344-4.25s3.3164062-1.5820312,5.5175781-1.5820312c1.9140625,0,3.5019531.4765625,4.765625,1.4257812s2.2265625,2.46875,2.890625,4.5507812l3.7304688-.8789062c-.7675781-2.6445312-2.1289062-4.6953125-4.0820312-6.1523438s-4.3613281-2.1875-7.2265625-2.1875c-2.5253906,0-4.8398438.5742188-6.9433594,1.7304688-2.1035156,1.1484375-3.7246094,2.8359375-4.8632812,5.0546875-1.1386719,2.2226562-1.7089844,4.8242188-1.7089844,7.8046875,0,2.734375.5039062,5.2929688,1.5136719,7.6757812s2.4804688,4.203125,4.4140625,5.4570312c1.9335938,1.2578125,4.4433594,1.8867188,7.5292969,1.8867188,2.9824219,0,5.5039062-.8164062,7.5683594-2.4492188,2.0644531-1.6367188,3.4921875-4.0078125,4.2871094-7.1210938l-3.7890625-.9570312c-.5214844,2.4101562-1.5175781,4.2265625-2.9882812,5.4492188Z"/>
  <rect x="430.8378212" y="249.4219018" width="3.515625" height="28.6328125"/>
  <path d="M419.9198525,158.2656518c-1.4707031,1.2226562-3.2675781,1.8359375-5.390625,1.8359375-1.7441406,0-3.3652344-.4492188-4.8632812-1.3476562s-2.6015625-2.2578125-3.3105469-4.0703125c-.7089844-1.8203125-1.0644531-3.9453125-1.0644531-6.3789062,0-1.8867188.2988281-3.7226562.8984375-5.4960938.5996094-1.78125,1.6367188-3.1953125,3.1152344-4.25s3.3164062-1.5820312,5.5175781-1.5820312c1.9140625,0,3.5019531.4765625,4.765625,1.4257812s2.2265625,2.46875,2.890625,4.5507812l3.7304688-.8789062c-.7675781-2.6445312-2.1289062-4.6953125-4.0820312-6.1523438s-4.3613281-2.1875-7.2265625-2.1875c-2.5253906,0-4.8398438.5742188-6.9433594,1.7304688-2.1035156,1.1484375-3.7246094,2.8359375-4.8632812,5.0546875-1.1386719,2.2226562-1.7089844,4.8242188-1.7089844,7.8046875,0,2.734375.5039062,5.2929688,1.5136719,7.6757812s2.4804688,4.203125,4.4140625,5.4570312c1.9335938,1.2578125,4.4433594,1.8867188,7.5292969,1.8867188,2.9824219,0,5.5039062-.8164062,7.5683594-2.4492188,2.0644531-1.6367188,3.4921875-4.0078125,4.2871094-7.1210938l-3.7890625-.9570312c-.5214844,2.4101562-1.5175781,4.2265625-2.9882812,5.4492188Z"/>
  <rect x="430.8378212" y="134.222683" width="3.515625" height="28.6328125"/>
  <metadata>
    <sfw xmlns="http://ns.adobe.com/SaveForWeb/1.0/">
      <slices/>
      <sliceSourceBounds x="10.49" y="126.55" width="420.18" height="264.37" bottomLeftOrigin="true"/>
    </sfw>
  </metadata>
</svg>