<?xml version="1.0" encoding="UTF-8" standalone="no"?>
<svg xmlns="http://www.w3.org/2000/svg" viewBox="0 0 675.7 389.8" width="675.7" height="389.8">
  <path d="M422 101v22h-.4l-15.2-22h-3.6v28h3.6v-22l15.6 22h3.2v-28z"/>
  <path d="M456 215.4v-22h.4l15.2 22h3.6v-28h-3.6v22l-15.6-22h-3.2v28z"/>
  <path d="M397.09 101h-3.6v12h-15.2v-12h-3.6v28h3.6v-12.8h15.2V129h3.6z"/>
  <path d="M610.4 129.8v22h-.4l-15.2-22h-3.6v28h3.6v-22l15.6 22h3.2v-28z"/>
  <path d="M580 83h-3.6v22l-15.6-22h-3.6v28.4h3.6V89h.4l15.2 22.4h3.6z"/>
  <path d="M464 43c8 0 12.8-5.6 12.8-14.4S472 14.2 464 14.2s-12.8 5.6-12.8 14.4S456 43 464 43zm0-25.6c5.6 0 9.2 4.4 9.2 11.2 0 6.8-3.6 11.2-9.2 11.2s-9.6-4-9.6-11.2c0-6.8 3.6-11.2 9.6-11.2z"/>
  <path d="M426.8 287.8c.4-8.8-4.8-14.4-12.8-14.4s-12.8 5.6-12.8 14.4 4.8 14.4 12.8 14.4 12.8-5.6 12.8-14.4zm-22 0c0-6.8 3.6-11.2 9.2-11.2s9.2 4.4 9.2 11.2c0 6.8-3.6 11.2-9.2 11.2s-9.2-4.4-9.2-11.2z"/>
  <path d="M214.8 161c3.6 0 6 2 6.4 4.8h3.6c0-4.8-4.4-8-10-8-6 0-10 3.2-10 8 0 4 2.4 6 7.6 7.6l3.6.8c4 .8 5.6 2.4 5.6 4.8 0 2.8-2.8 4.8-6.4 4.8-4 0-6.8-2-7.2-5.2h-4v.4c.4 4.8 4.4 8 10.4 8 6.4 0 10.4-3.2 10.4-8.4 0-4-2.4-6.4-8-7.6l-2.8-.8c-4-.8-5.2-2.4-5.2-4.4 0-2.8 2.4-4.8 6-4.8z"/>
  <path d="M156.8 215.4v-22h.4l15.2 22h3.6v-28h-3.6v22l-15.6-22h-3.6v28z"/>
  <path d="M53.6 273h3.6v-22l15.6 22H76v-28h-3.2v22h-.4l-15.2-22h-3.6z"/>
  <path d="M243.2 137c8 0 12.8-5.6 12.8-14.4.4-8.8-4.8-14.4-12.8-14.4s-12.8 5.6-12.8 14.4 4.8 14.4 12.8 14.4zm0-25.6c5.6 0 9.2 4.4 9.2 11.2 0 6.8-3.2 11.6-9.2 11.6-5.6 0-9.2-4.4-9.2-11.2 0-6.8 3.6-11.6 9.2-11.6z"/>
  <path d="M198.4 122.6c.4-8.8-4.8-14.4-12.8-14.4s-12.8 5.6-12.8 14.4 4.8 14.4 12.8 14.4 12.8-5.6 12.8-14.4zm-22.4.4c0-6.8 4-11.6 9.6-11.6s9.2 4.4 9.2 11.2c0 6.8-3.2 11.6-9.2 11.6-5.6 0-9.6-4.4-9.6-11.2z"/>
  <path style="fill:none;stroke:#000;stroke-width:2.4;stroke-linecap:butt;stroke-linejoin:miter;stroke-miterlimit:4" d="M414 135.4V173l-50.05 28.8-49.55-28.75-50.05 28.86v57.49l50 28.85 49.6-28.69 34.35 19.99m82.5-87.4 33.2-19.17 54.79 17.63L588.75 163M14.78 288.2l33.25-19.22M64.8 238.6v-36.8l50-28.8 33.2 19.15m16.8 29.65v37.6l-50 28.8-33.2-19.25m99.98-76.75 16.84-10.02m-6-36.8 7.58 13.18m1.62-18.37 7.58 13.17m11.18-.75 8.8-15.59m9.2 5.18-9.2 15.6m.32 23.75 34.85 20.36M464 374.55l-50-28.8V307m246.35 5.15L642.8 257.4l-56.35-12.05-17.66-54.74m13.57-74.46 5.6 8.4m-24.39 55.22 16.8-22.78M524 167v-45.6m-72.83 60.36-27.37-15.8m35-118.16v41.83m10.4-41.83v41.83m-38.4 16.12L464 86.6l50 28.86v57.52m72.38-130.42-11.2 34.42m-24.03 26.37-37.51 12.05m-149.69 86.4v57.76M414 173l33.2 19.25M274.8 207.8v45.6m39.58 22.8 39.6-22.8m0-45.64-39.6-22.8"/>
</svg>
