<?xml version="1.0" encoding="utf-8"?>
<!-- Generator: Adobe Illustrator 27.0.0, SVG Export Plug-In . SVG Version: 6.00 Build 0)  -->
<svg version="1.1" id="Слой_1" xmlns="http://www.w3.org/2000/svg" xmlns:xlink="http://www.w3.org/1999/xlink" x="0px" y="0px"
	 viewBox="0 0 487.05 217.23" style="enable-background:new 0 0 487.05 217.23;" xml:space="preserve" width="487.05" height="217.23">
<style type="text/css">
	.st0{fill:none;}
</style>
<path class="st0" d="z"/>
<g>
	<rect x="24.54" y="121.26" width="2.4" height="45.63"/>
	<rect x="62.2" y="177.09" transform="matrix(0.8662 -0.4997 0.4997 0.8662 -77.7161 66.3367)" width="45.63" height="2.4"/>
	<rect x="83.81" y="87.04" transform="matrix(0.5 -0.866 0.866 0.5 -52.6243 128.5518)" width="2.4" height="45.63"/>
	<path d="M214.91,113.88l-49.88-28.8l-49.88,28.8l-49.88-28.8l-51.08,29.49v58.98l51.08,29.49l51.08-29.49v-57.6l48.68-28.11
		l49.88,28.8l49.88-28.8l31.25,18.04l1.2-2.08l-32.45-18.73L214.91,113.88z M65.26,200.28l-48.68-28.11v-56.22l48.68-28.11
		l48.68,28.11v56.22L65.26,200.28z"/>
	<polygon points="222.43,181.16 207.4,158.68 203.51,158.68 203.51,187.32 207.14,187.32 207.14,164.82 222.18,187.32 
		226.07,187.32 226.07,158.68 222.43,158.68 	"/>
	<polygon points="251.22,170.44 236.34,170.44 236.34,158.68 232.55,158.68 232.55,187.32 236.34,187.32 236.34,173.82 
		251.22,173.82 251.22,187.32 255.01,187.32 255.01,158.68 251.22,158.68 	"/>
	<path d="M263.92,191.13c0.45-0.47,1.46-1.38,3.05-2.7c1.89-1.6,3.25-2.86,4.07-3.78c0.82-0.91,1.4-1.79,1.75-2.62
		c0.35-0.83,0.53-1.67,0.53-2.54c0-1.69-0.6-3.11-1.8-4.25c-1.2-1.14-2.83-1.71-4.89-1.71c-2.04,0-3.67,0.53-4.88,1.59
		s-1.91,2.6-2.09,4.62l2.71,0.28c0.01-1.35,0.39-2.4,1.16-3.16s1.78-1.14,3.05-1.14c1.2,0,2.18,0.36,2.92,1.08
		c0.75,0.71,1.12,1.6,1.12,2.64c0,1-0.41,2.05-1.23,3.17c-0.82,1.12-2.4,2.64-4.73,4.55c-1.5,1.23-2.65,2.31-3.45,3.25
		s-1.38,1.89-1.74,2.86c-0.22,0.59-0.33,1.2-0.31,1.83h14.19v-2.54h-10.53C263.1,192.08,263.47,191.61,263.92,191.13z"/>
	<polygon points="208.91,152.18 220.91,152.18 220.48,149.78 209.34,149.78 	"/>
	<polygon points="211.09,139.94 218.72,139.94 218.29,137.54 211.52,137.54 	"/>
	<polygon points="213.71,125.3 213.28,127.7 216.54,127.7 216.11,125.3 	"/>
	<path d="M321.91,102.47c-2.12-1.26-4.5-1.89-7.15-1.89c-4.04,0-7.33,1.34-9.88,4.03c-2.55,2.69-3.83,6.41-3.83,11.16
		c0,2.52,0.55,4.9,1.64,7.15c1.09,2.25,2.7,4.03,4.82,5.33c2.12,1.3,4.53,1.95,7.23,1.95c2.49,0,4.8-0.59,6.95-1.77
		c2.15-1.18,3.81-2.91,4.98-5.21c1.17-2.29,1.76-4.89,1.76-7.79c0-2.86-0.55-5.43-1.67-7.69S324.03,103.73,321.91,102.47z
		 M321.76,123.95c-1.84,2.01-4.19,3.01-7.04,3.01c-2.8,0-5.12-0.99-6.98-2.98c-1.86-1.99-2.79-4.7-2.79-8.16
		c0-4.31,0.97-7.39,2.9-9.23s4.24-2.76,6.92-2.76c1.89,0,3.59,0.48,5.11,1.44c1.52,0.96,2.67,2.3,3.46,4.04
		c0.79,1.74,1.18,3.78,1.18,6.1C324.52,119.11,323.6,121.95,321.76,123.95z"/>
	<polygon points="421.97,123.56 406.93,101.08 403.04,101.08 403.04,129.71 406.68,129.71 406.68,107.21 421.72,129.71 
		425.6,129.71 425.6,101.08 421.97,101.08 	"/>
	<polygon points="450.76,112.84 435.88,112.84 435.88,101.08 432.09,101.08 432.09,129.71 435.88,129.71 435.88,116.22 
		450.76,116.22 450.76,129.71 454.55,129.71 454.55,101.08 450.76,101.08 	"/>
	<path d="M462.34,134.96c0.29-0.48,0.66-0.95,1.11-1.43s1.46-1.38,3.05-2.7c1.89-1.6,3.25-2.86,4.06-3.78
		c0.82-0.91,1.4-1.79,1.75-2.62c0.35-0.83,0.53-1.67,0.53-2.54c0-1.69-0.6-3.11-1.8-4.25c-1.2-1.14-2.83-1.71-4.89-1.71
		c-2.04,0-3.67,0.53-4.88,1.59s-1.91,2.6-2.09,4.62l2.71,0.28c0.01-1.35,0.39-2.4,1.16-3.16s1.78-1.14,3.05-1.14
		c1.2,0,2.18,0.36,2.92,1.08c0.75,0.71,1.12,1.6,1.12,2.64c0,1-0.41,2.05-1.23,3.17c-0.82,1.12-2.4,2.64-4.73,4.55
		c-1.51,1.23-2.66,2.31-3.45,3.25c-0.79,0.94-1.38,1.89-1.73,2.86c-0.23,0.59-0.33,1.2-0.31,1.83h14.2v-2.54H462.34z"/>
	<path d="M357.4,41.85c2.12,1.3,4.53,1.95,7.23,1.95c2.49,0,4.8-0.59,6.95-1.77s3.81-2.91,4.98-5.21s1.76-4.89,1.76-7.79
		c0-2.87-0.55-5.43-1.67-7.69s-2.73-4.02-4.86-5.28c-2.12-1.26-4.5-1.89-7.15-1.89c-4.04,0-7.33,1.34-9.88,4.03
		c-2.55,2.69-3.83,6.41-3.83,11.16c0,2.51,0.55,4.9,1.64,7.15S355.27,40.55,357.4,41.85z M357.74,20.2
		c1.93-1.84,4.24-2.76,6.92-2.76c1.89,0,3.59,0.48,5.11,1.44c1.52,0.96,2.67,2.3,3.46,4.04c0.79,1.74,1.18,3.77,1.18,6.1
		c0,3.69-0.92,6.53-2.76,8.54c-1.84,2.01-4.19,3.01-7.04,3.01c-2.8,0-5.12-0.99-6.98-2.98s-2.79-4.7-2.79-8.15
		C354.84,25.12,355.81,22.04,357.74,20.2z"/>
	<polygon points="370.94,49.58 368.54,49.58 368.54,87.38 364.56,85.08 360.57,87.38 360.57,49.58 358.17,49.58 358.17,88.77 
		332.02,103.87 333.22,105.95 364.56,87.86 393.53,104.58 394.73,102.5 370.94,88.77 	"/>
</g>
<path class="st0" d="z"/>
</svg>
