<?xml version="1.0" encoding="utf-8"?>
<!-- Generator: Adobe Illustrator 19.1.0, SVG Export Plug-In . SVG Version: 6.00 Build 0)  -->
<svg version="1.1" id="Слой_1" xmlns="http://www.w3.org/2000/svg" xmlns:xlink="http://www.w3.org/1999/xlink" x="0px" y="0px"
	 viewBox="0 0 582.8 293.6" style="enable-background:new 0 0 582.8 293.6;" xml:space="preserve" width="582.8" height="293.6">
<g>
	<polygon points="519.4,46 519.4,44.7 520.5,44.1 568.7,16.3 567.5,14.2 517.6,43 517,43.3 517,44 517,80.7 519.4,80.7 	"/>
	<path d="M328.3,67.9h-2.4v39.7l-1.7-1l0,0l-1.7-1l-0.6-0.3l-0.6,0.3l-1.7,1l0,0l-1.7,1V67.9h-2.4V109l-43.5,25.1l-47.6-27.5l0,0
		l-1.7-1l-0.6-0.3l-0.6,0.3l-1.7,1l0,0l-47.6,27.5l-34.4-19.9l-1.2,2.1l34.4,19.9v54.9v2l0,0.7l0.6,0.3l48.2,27.8l1.7,1l0.6,0.3
		l0.6-0.3l1.7-1v0l47.6-27.5l33.8,19.5l1.2-2.1l-33.8-19.5l0-56.2l47.6-27.5l1.1-0.7l1.1,0.7l31.4,18.1l1.2-2.1L328.3,109V67.9z
		 M270.9,192.4l-48.7,28.1l-1.1-0.7L174.6,193l-1.1-0.7v-1.3v-54.9l47.6-27.5l1.1-0.7l1.1,0.7l47.6,27.5L270.9,192.4z"/>
	<rect x="219.1" y="128.8" transform="matrix(-0.866 -0.5 0.5 -0.866 386.4153 363.6348)" width="45.6" height="2.4"/>
	<rect x="181.5" y="141.5" width="2.4" height="45.6"/>
	<rect x="240.7" y="175.7" transform="matrix(-0.4995 -0.8663 0.8663 -0.4995 190.8293 507.221)" width="2.4" height="45.6"/>
	<rect x="320.7" y="240.7" width="2.4" height="38.8"/>
	<rect x="94.9" y="110" transform="matrix(-0.4996 -0.8663 0.8663 -0.4996 38.5615 265.9767)" width="2.4" height="23.7"/>
	<rect x="140.4" y="74.6" transform="matrix(0.8663 0.4996 -0.4996 0.8663 60.7641 -59.5611)" width="2.4" height="18.2"/>
	<rect x="131.5" y="69.4" transform="matrix(0.8663 0.4995 -0.4995 0.8663 56.9677 -55.7654)" width="2.4" height="18.2"/>
	<rect x="96.6" y="84.3" transform="matrix(-0.5 -0.866 0.866 -0.5 82.2468 218.4806)" width="15.3" height="2.4"/>
	<rect x="105.5" y="79.1" transform="matrix(0.5 0.866 -0.866 0.5 126.1406 -57.853)" width="15.3" height="2.4"/>
	<polygon points="510.4,93.2 510.6,93.2 526,115.2 529.4,115.2 529.4,87.1 526,87.1 526,109.2 525.8,109.2 510.4,87.1 506.9,87.1 
		506.9,115.2 510.4,115.2 	"/>
	<polygon points="563.9,133.3 535.3,112.6 533.9,114.5 562.5,135.3 563.4,135.9 563,137 563,137 546.1,189 491.4,189 490.3,189 
		473,135.9 502.5,114.5 501,112.6 471.5,134 424,106.6 422.3,105.6 421.7,105.3 421.1,105.6 419.4,106.6 388,124.7 389.2,126.8 
		420.6,108.7 421.7,108.1 422.8,108.7 470.6,136.3 487.6,188.7 488.2,190.6 488.5,191.4 489.4,191.4 545,191.4 547,191.4 
		547.9,191.5 548.1,190.6 548.7,188.7 565.9,135.8 566.2,135 565.5,134.5 	"/>
	<polygon points="379.6,143 379.4,143 364,120.9 360.6,120.9 360.6,149.1 364,149.1 364,127 364.2,127 379.6,149.1 383.1,149.1 
		383.1,120.9 379.6,120.9 	"/>
	<polygon points="379.6,165.3 364.1,165.3 364.1,153.1 360.6,153.1 360.6,181.3 364.1,181.3 364.1,168.4 379.6,168.4 379.6,181.3 
		383.1,181.3 383.1,153.1 379.6,153.1 	"/>
	<path d="M321.9,63.4c8,0,13-5.6,13-14.6c0-8.9-5-14.6-13-14.6c-8,0-13,5.6-13,14.6C308.9,57.8,313.9,63.4,321.9,63.4z M321.9,37.5
		c5.8,0,9.4,4.4,9.4,11.3c0,6.9-3.6,11.3-9.4,11.3c-5.8,0-9.4-4.4-9.4-11.3C312.6,41.9,316.2,37.5,321.9,37.5z"/>
	<path d="M321.9,207.1c-8,0-13,5.6-13,14.6c0,8.9,5,14.6,13,14.6c8,0,13-5.6,13-14.6C334.9,212.7,329.9,207.1,321.9,207.1z
		 M321.9,233c-5.8,0-9.4-4.4-9.4-11.3c0-7,3.6-11.3,9.4-11.3c5.8,0,9.4,4.4,9.4,11.3C331.3,228.6,327.7,233,321.9,233z"/>
	<path d="M124.7,104.9l-2.9-0.8c-3.8-1-5.4-2.3-5.4-4.4c0-2.8,2.5-4.6,6.2-4.6c3.7,0,6.1,1.9,6.4,4.9h3.5c-0.2-4.7-4.2-8-9.8-8
		c-5.9,0-10,3.3-10,8c0,3.8,2.3,6.1,7.5,7.4l3.6,0.9c3.8,1,5.4,2.4,5.4,4.8c0,2.8-2.8,4.8-6.6,4.8c-4,0-6.9-2-7.2-5.1h-3.5
		c0.3,5,4.5,8.2,10.4,8.2c6.5,0,10.5-3.2,10.5-8.4C132.9,108.6,130.5,106.3,124.7,104.9z"/>
	<polygon points="76.8,145 76.7,145 61.2,122.9 57.8,122.9 57.8,151.1 61.3,151.1 61.3,129 61.5,129 76.9,151.1 80.3,151.1 
		80.3,122.9 76.8,122.9 	"/>
	<polygon points="33.2,135.1 17.7,135.1 17.7,122.9 14.2,122.9 14.2,151.1 17.7,151.1 17.7,138.3 33.2,138.3 33.2,151.1 36.7,151.1 
		36.7,122.9 33.2,122.9 	"/>
	<path d="M44.2,155.1l5-5.2c3.3-3.4,4.3-5,4.3-7.2c0-3-2.8-5.4-6.3-5.4c-3.7,0-6.5,2.6-6.5,6v0H43v0c0-2.2,1.8-3.9,4.1-3.9
		c2.2,0,3.9,1.5,3.9,3.4c0,1.6-0.6,2.7-3.3,5.5l-6.9,7.3v1.7h13v-2.2L44.2,155.1L44.2,155.1z"/>
	<path d="M151.2,71.1c8,0,13-5.6,13-14.6c0-8.9-5-14.6-13-14.6c-8,0-13,5.6-13,14.6C138.2,65.5,143.2,71.1,151.2,71.1z M151.2,45.2
		c5.8,0,9.4,4.4,9.4,11.3c0,6.9-3.6,11.3-9.4,11.3c-5.8,0-9.4-4.4-9.4-11.3C141.8,49.6,145.4,45.2,151.2,45.2z"/>
	<path d="M106.6,56.6c0-8.9-5-14.6-13-14.6c-8,0-13,5.6-13,14.6c0,8.9,5,14.6,13,14.6C101.6,71.1,106.6,65.5,106.6,56.6z M84.2,56.6
		c0-7,3.6-11.3,9.4-11.3c5.8,0,9.4,4.4,9.4,11.3c0,6.9-3.6,11.3-9.4,11.3C87.8,67.9,84.2,63.5,84.2,56.6z"/>
</g>
</svg>
