<?xml version="1.0" encoding="utf-8"?>
<!-- Generator: Adobe Illustrator 18.0.0, SVG Export Plug-In . SVG Version: 6.00 Build 0)  -->
<!DOCTYPE svg PUBLIC "-//W3C//DTD SVG 1.1//EN" "http://www.w3.org/Graphics/SVG/1.1/DTD/svg11.dtd">
<svg version="1.1" id="Слой_1" xmlns="http://www.w3.org/2000/svg" xmlns:xlink="http://www.w3.org/1999/xlink" x="0px" y="0px"
	 viewBox="0 0 692.5 323.5" enable-background="new 0 0 692.5 323.5" xml:space="preserve" width="692.5" height="323.5">
<g>
	<polygon points="318.1,199.6 338.3,174.3 339.7,174.3 393.3,174.3 394.7,174.3 414.9,199.6 416.8,198.1 397.5,173.9 397.5,173.9 
		396.2,172.3 395.9,171.9 395.3,171.9 393.3,171.9 339.7,171.9 337.7,171.9 337.1,171.9 336.8,172.3 335.5,173.9 335.5,173.9 
		316.2,198.1 	"/>
	<polygon points="427.9,238.2 425.5,237.7 417.4,273.4 366.5,297.9 365.2,297.3 365.2,297.3 315.7,273.4 307.5,237.7 305.2,238.2 
		313,272.6 313,272.6 313.4,274.5 313.6,275.1 314.1,275.3 315.9,276.2 315.9,276.2 366,300.3 366.5,300.6 367,300.3 368.8,299.5 
		368.8,299.5 417.1,276.2 417.1,276.2 418.9,275.3 419.4,275.1 419.6,274.5 420,272.6 420,272.6 	"/>
	<path d="M485.7,206.9L485.7,206.9l1.9-0.4l0.7-0.2l0.2-0.7l0.6-1.9h0l0.6-1.8l25.4,27.3l1.8-1.6l-26.3-28.3l14.8-48l54.8-12.5
		l23,24.8l1.8-1.6l-23-24.8L578,84.6l0,0l0.6-1.9l0.2-0.7l-0.5-0.5l-37.8-40.8l0,0l-1.4-1.5l-0.5-0.5L538,39l-55.5,12.7L443.9,9.9
		l-1.8,1.6l38.7,41.7l-16.2,52.5l0,0l-0.6,1.9l-0.2,0.7l0.5,0.5l38.7,41.7L486.8,203l0,0l-0.4,1.2l-37.9,8.6l0.5,2.3l32-7.3
		l26.3,28.3l1.8-1.6l-25.4-27.3L485.7,206.9z M504.4,150.2L504.4,150.2L504.4,150.2L504.4,150.2z M576.1,82.7l-16.6,53.7l-54.8,12.5
		l-38.2-41.2L483.1,54l53.5-12.2v0l1.3-0.3l0.9,1l0,0L576.1,82.7z"/>
	<polygon points="454.9,295.8 447.6,305 449.3,306.7 456.9,297.1 	"/>
	<polygon points="427.1,284.6 428.8,286.3 432.4,281.7 430.4,280.4 	"/>
	<polygon points="454.4,311.8 456.1,313.5 465.1,302.3 463.1,301 	"/>
	<polygon points="420.2,277.7 421.9,279.4 424.3,276.5 422.2,275.2 	"/>
	<polygon points="446.7,290.7 440.7,298.2 442.5,299.9 448.8,292 	"/>
	<polygon points="433.9,291.4 435.6,293.1 440.6,286.8 438.6,285.5 	"/>
	<rect x="557.9" y="84" transform="matrix(0.9556 0.2947 -0.2947 0.9556 56.3128 -160.0172)" width="2.4" height="45.6"/>
	<rect x="511.3" y="33.9" transform="matrix(-0.2221 -0.975 0.975 -0.2221 571.1345 568.9924)" width="2.4" height="45.6"/>
	<rect x="469.6" y="120.9" transform="matrix(-0.6802 -0.7331 0.7331 -0.6802 737.7835 566.0264)" width="45.6" height="2.4"/>
	<rect x="627.1" y="165.3" transform="matrix(0.1193 0.9929 -0.9929 0.1193 728.2555 -468.6224)" width="2.4" height="21.9"/>
	<rect x="661.6" y="195.2" transform="matrix(-0.9072 0.4206 -0.4206 -0.9072 1352.6052 122.229)" width="2.4" height="30.2"/>
	<rect x="623.4" y="228.3" transform="matrix(-0.4876 0.8731 -0.8731 -0.4876 1142.5597 -181.8096)" width="2.4" height="32.2"/>
	<rect x="586.4" y="206.1" transform="matrix(-0.1933 0.9811 -0.9811 -0.1933 912.4398 -335.7429)" width="15.7" height="2.4"/>
	<path d="M232.5,171.4l-2.2,0.9l14,32.6l-26.8,23.4l1.6,1.8l27-23.6l37.9,8.7l0.5-2.3l-37.9-8.7L232.5,171.4z M245.6,205.3
		L245.6,205.3L245.6,205.3L245.6,205.3z"/>
	<rect x="226.6" y="174.7" transform="matrix(-0.9197 0.3926 -0.3926 -0.9197 511.8254 275.0837)" width="2.4" height="30.4"/>
	<path d="M166.6,158.6l38.7-3.5l-0.2-2.4l-39.1,3.5l-41.8-38.8l-0.5-0.5l-0.7,0.2l-54.4,16.8l-21.9-20.3l-1.6,1.8L67,135.7
		l-12.7,55.5l-0.2,0.7l0.5,0.5l1.5,1.4l0,0L97,231.5l0.5,0.5l0.7-0.2l54.5-16.8l31.1,18.6l1.2-2.1L154.2,213L166.6,158.6z
		 M99.3,228.9l-1.2,0.4L56.9,191l12.5-54.8l53.7-16.6l1,0.9l0,0l40.3,37.3l-12.5,54.8L99.3,228.9L99.3,228.9z M165.6,157.5
		L165.6,157.5L165.6,157.5L165.6,157.5z M68.4,135.3L68.4,135.3L68.4,135.3L68.4,135.3z"/>
	<rect x="114.7" y="144.3" transform="matrix(0.7331 0.6802 -0.6802 0.7331 135.6512 -54.6685)" width="45.6" height="2.4"/>
	<rect x="70.9" y="142.8" transform="matrix(-0.975 -0.2221 0.2221 -0.975 105.5465 343.1818)" width="2.4" height="45.6"/>
	<rect x="99.4" y="211" transform="matrix(0.9556 -0.2948 0.2948 0.9556 -57.1191 45.4599)" width="45.6" height="2.4"/>
	<polygon points="423.4,208.8 423.5,208.8 438.4,231.7 442.6,231.7 442.6,203.2 439,203.2 439,226.3 438.9,226.3 423.9,203.2 
		419.8,203.2 419.8,231.7 423.4,231.7 	"/>
	<polygon points="313.2,231.7 313.2,203.2 309.6,203.2 309.6,226.3 309.5,226.3 294.5,203.2 290.4,203.2 290.4,231.7 294,231.7 
		294,208.8 294.1,208.8 309,231.7 	"/>
	<path d="M536.8,236.8c-1.1-1.4-2.6-2.5-4.3-3.3s-3.7-1.2-6-1.2s-4.3,0.4-6,1.2s-3.1,1.9-4.3,3.3c-1.1,1.4-2,3-2.6,4.8
		c-0.6,1.8-0.9,3.7-0.9,5.6c0,1.9,0.3,3.8,0.9,5.6c0.6,1.8,1.4,3.4,2.6,4.8s2.6,2.5,4.3,3.3c1.7,0.8,3.7,1.2,6,1.2s4.3-0.4,6-1.2
		c1.7-0.8,3.1-1.9,4.3-3.3s2-3,2.6-4.8c0.6-1.8,0.9-3.7,0.9-5.6c0-1.9-0.3-3.8-0.9-5.6C538.8,239.8,537.9,238.2,536.8,236.8z
		 M535.9,251.5c-0.4,1.4-1,2.7-1.8,3.8c-0.8,1.1-1.8,2-3.1,2.7c-1.3,0.7-2.7,1-4.5,1s-3.2-0.3-4.5-1c-1.3-0.7-2.3-1.6-3.1-2.7
		c-0.8-1.1-1.4-2.4-1.8-3.8c-0.4-1.4-0.6-2.8-0.6-4.3c0-1.4,0.2-2.9,0.6-4.3s1-2.7,1.8-3.8c0.8-1.1,1.8-2,3.1-2.7
		c1.3-0.7,2.7-1,4.5-1s3.2,0.3,4.5,1c1.3,0.7,2.3,1.6,3.1,2.7c0.8,1.1,1.4,2.4,1.8,3.8c0.4,1.4,0.6,2.8,0.6,4.3
		C536.4,248.6,536.3,250.1,535.9,251.5z"/>
	<polygon points="591.9,170.4 592,170.4 606.9,193.3 611.1,193.3 611.1,164.7 607.5,164.7 607.5,187.9 607.4,187.9 592.4,164.7 
		588.3,164.7 588.3,193.3 591.9,193.3 	"/>
	<polygon points="649.1,163.5 649.2,163.5 664.1,186.4 668.3,186.4 668.3,157.8 664.7,157.8 664.7,181 664.6,181 649.5,157.8 
		645.5,157.8 645.5,186.4 649.1,186.4 	"/>
	<polygon points="682.2,224.5 681.3,222.7 681.3,222.7 667,191.7 664.8,192.7 679.6,224.7 638.7,262.7 637.7,262.2 637.7,262.2 
		606.1,244.6 604.9,246.7 638.3,265.3 639,265.7 639.7,265.1 680.4,227.3 680.4,227.3 681.9,225.9 682.5,225.3 	"/>
	<polygon points="596.3,244.4 596.3,244.4 581.2,221.2 577.2,221.2 577.2,249.8 580.8,249.8 580.8,226.9 580.9,226.9 595.8,249.8 
		599.9,249.8 599.9,221.2 596.3,221.2 	"/>
	<polygon points="215.2,143 215.3,143 230.2,165.9 234.4,165.9 234.4,137.4 230.8,137.4 230.8,160.5 230.7,160.5 215.7,137.4 
		211.6,137.4 211.6,165.9 215.2,165.9 	"/>
	<path d="M212.5,232.5c-1.1-1.4-2.6-2.5-4.3-3.3c-1.7-0.8-3.7-1.2-6-1.2s-4.3,0.4-6,1.2s-3.1,1.9-4.3,3.3c-1.1,1.4-2,3-2.6,4.8
		c-0.6,1.8-0.9,3.7-0.9,5.6s0.3,3.8,0.9,5.6c0.6,1.8,1.4,3.4,2.6,4.8c1.1,1.4,2.6,2.5,4.3,3.3c1.7,0.8,3.7,1.2,6,1.2s4.3-0.4,6-1.2
		c1.7-0.8,3.1-1.9,4.3-3.3c1.1-1.4,2-3,2.6-4.8c0.6-1.8,0.9-3.7,0.9-5.6s-0.3-3.8-0.9-5.6C214.5,235.4,213.7,233.9,212.5,232.5z
		 M211.6,247.1c-0.4,1.4-1,2.7-1.8,3.8s-1.8,2-3.1,2.7c-1.3,0.7-2.7,1-4.5,1s-3.2-0.3-4.5-1c-1.3-0.7-2.3-1.6-3.1-2.7
		s-1.4-2.4-1.8-3.8c-0.4-1.4-0.6-2.8-0.6-4.3c0-1.4,0.2-2.9,0.6-4.3c0.4-1.4,1-2.7,1.8-3.8c0.8-1.1,1.8-2,3.1-2.7
		c1.3-0.7,2.7-1,4.5-1s3.2,0.3,4.5,1c1.3,0.7,2.3,1.6,3.1,2.7c0.8,1.1,1.4,2.4,1.8,3.8c0.4,1.4,0.6,2.8,0.6,4.3
		C212.1,244.3,212,245.7,211.6,247.1z"/>
	<path d="M31,102.6c-0.4,1-1,1.9-1.7,2.6c-0.7,0.7-1.5,1.3-2.5,1.7c-1,0.4-2.1,0.6-3.3,0.6c-1.7,0-3.2-0.3-4.4-1s-2.2-1.5-3-2.6
		c-0.8-1.1-1.4-2.3-1.7-3.8c-0.4-1.5-0.6-3-0.6-4.6c0-1.5,0.2-2.9,0.6-4.3c0.4-1.4,1-2.6,1.7-3.7c0.8-1.1,1.8-1.9,3-2.6
		c1.2-0.6,2.7-1,4.4-1c2,0,3.7,0.5,5.2,1.5c1.5,1,2.4,2.5,2.8,4.6h3.8c-0.2-1.5-0.7-2.9-1.4-4c-0.7-1.2-1.6-2.1-2.6-2.9
		c-1-0.8-2.2-1.4-3.6-1.8c-1.3-0.4-2.7-0.6-4.2-0.6c-2.2,0-4.1,0.4-5.8,1.2c-1.7,0.8-3.1,1.9-4.2,3.2c-1.1,1.4-2,3-2.6,4.8
		c-0.6,1.8-0.9,3.8-0.9,5.9s0.3,4,0.8,5.8c0.5,1.8,1.4,3.4,2.5,4.7c1.1,1.3,2.5,2.4,4.1,3.1c1.7,0.8,3.6,1.1,5.8,1.1
		c3.7,0,6.5-1,8.6-3s3.3-4.8,3.7-8.4h-3.8C31.6,100.5,31.4,101.6,31,102.6z"/>
	<rect x="39" y="81.5" width="3.4" height="28.6"/>
</g>
</svg>
