<?xml version="1.0" encoding="utf-8"?>
<!-- Generator: Adobe Illustrator 17.0.2, SVG Export Plug-In . SVG Version: 6.00 Build 0)  -->
<!DOCTYPE svg PUBLIC "-//W3C//DTD SVG 1.1//EN" "http://www.w3.org/Graphics/SVG/1.1/DTD/svg11.dtd">
<svg version="1.1" id="Слой_1" xmlns="http://www.w3.org/2000/svg" xmlns:xlink="http://www.w3.org/1999/xlink" x="0px" y="0px"
	 width="528.463px" height="194.4px" viewBox="0 0 528.463 194.4" enable-background="new 0 0 528.463 194.4" xml:space="preserve">
<g>
	<polygon points="193.551,78.935 196.549,84.134 198.528,82.76 195.73,77.908 	"/>
	<polygon points="184.835,83.043 188.632,89.629 190.611,88.255 187.014,82.016 	"/>
	<polygon points="167.403,91.26 172.799,100.618 174.778,99.244 169.581,90.233 	"/>
	<polygon points="176.119,87.152 180.715,95.123 182.695,93.75 178.298,86.125 	"/>
	<polygon points="202.267,74.827 204.465,78.639 206.444,77.266 204.446,73.8 	"/>
	<path d="M164.478,98.492l-49.42-28.533L103.193,14.14l-0.182-0.851l-0.865-0.092L46.851,7.385v0l-1.989-0.209l-0.868-0.092
		l-0.355,0.798l-0.813,1.827l0,0L29.581,39.455l2.193,0.976L45.477,9.654l1.121,0.118v0l54.43,5.721l11.613,54.636L64.267,98.056
		L41.086,77.184l-1.606,1.783l23.432,21.098v55.066v2l-0.001,0.693l0.601,0.347l49.883,28.8l0.599,0.346l0.599-0.346l48.151-27.8
		l0,0l1.732-1l0.6-0.345v-0.694v-2v-55.6h-1.2L164.478,98.492z M64.112,99.531L64.112,99.531L64.112,99.531L64.112,99.531z
		 M162.678,156.438l-1.132,0.653l0,0l-46.419,26.8v0l-1.133,0.654l-1.133-0.654v0l-46.419-26.8l0,0l-1.132-0.653v-1.307v-54.907
		l48.683-28.107l48.683,28.107v54.907V156.438z"/>
	<rect x="110.939" y="92.91" transform="matrix(-0.866 -0.5 0.5 -0.866 202.5308 242.4884)" width="45.628" height="2.4"/>
	<rect x="73.28" y="105.517" width="2.4" height="45.628"/>
	<rect x="132.553" y="139.738" transform="matrix(-0.4996 -0.8663 0.8663 -0.4996 59.7554 359.6245)" width="2.4" height="45.628"/>
	<path d="M353.945,79.266l-29.463,17.01l-52.259-26.451l-27.623-47.844h0l-1-1.732l-1.04-1.802l-1.04,1.802l-28.616,49.564
		l-1.923,0.906l1.399,2.426l1.748-1.213h56.864l45.655,31.639l10.392-6h0l28.104-16.226L353.945,79.266z M271.361,70.731
		L271.361,70.731L271.361,70.731L271.361,70.731z M242.561,23.248l26.722,46.283H215.84L242.561,23.248z"/>
	<polygon points="521.376,98.492 473.225,70.692 473.225,70.692 471.493,69.692 470.894,69.346 470.294,69.692 468.562,70.692 
		468.562,70.692 421.011,98.146 388.309,79.266 387.11,81.345 414.627,97.231 414.627,135.531 417.026,135.531 417.026,98.617 
		418.679,99.571 418.679,99.571 420.411,100.571 421.01,100.917 421.61,100.571 424.994,98.617 424.994,135.531 427.394,135.531 
		427.394,97.231 470.894,72.117 520.177,100.571 	"/>
	<path d="M21.327,45.789c-7.24,0-14.24,4.48-14.24,14.8c0,10.12,6.8,14.88,14.12,14.88c10.56,0,14.32-8.2,14.32-15.08
		C35.527,51.829,29.927,45.789,21.327,45.789z M21.407,72.509c-6.36,0-10.24-4.6-10.24-11.88c0-5.88,2.68-11.8,10.16-11.8
		c7.6,0,10.12,5.96,10.12,11.56C31.447,68.749,27.007,72.509,21.407,72.509z"/>
	<path d="M378.927,78.531l-15.28-22.64h-3.56v28.24h3.56c0-0.56-0.36-22.96-0.36-22.96l15.48,22.96h3.4v-28.24h-3.4
		C378.767,56.771,378.927,78.531,378.927,78.531z"/>
	<polygon points="378.767,35.651 363.407,35.651 363.407,23.651 359.687,23.651 359.687,51.891 363.407,51.891 363.407,38.971 
		378.767,38.971 378.767,51.891 382.567,51.891 382.567,23.651 378.767,23.651 	"/>
	<path d="M421.03,141.931c-7.24,0-14.24,4.48-14.24,14.8c0,10.12,6.8,14.88,14.12,14.88c10.56,0,14.32-8.2,14.32-15.08
		C435.23,147.971,429.63,141.931,421.03,141.931z M421.11,168.651c-6.36,0-10.24-4.6-10.24-11.88c0-5.88,2.68-11.8,10.16-11.8
		c7.6,0,10.12,5.96,10.12,11.56C431.15,164.891,426.71,168.651,421.11,168.651z"/>
</g>
</svg>
