<?xml version="1.0" encoding="iso-8859-1"?>
<!-- Generator: Adobe Illustrator 19.1.0, SVG Export Plug-In . SVG Version: 6.00 Build 0)  -->
<svg version="1.1" id="&#x421;&#x43B;&#x43E;&#x439;_1"
	 xmlns="http://www.w3.org/2000/svg" xmlns:xlink="http://www.w3.org/1999/xlink" x="0px" y="0px" viewBox="0 0 417.402 383.754"
	 style="enable-background:new 0 0 417.402 383.754;" xml:space="preserve" width="417.402" height="383.754">
<g>
	<rect x="89.557" y="112.455" width="2" height="45.628"/>
	<rect x="148.83" y="146.676" transform="matrix(-0.4996 -0.8663 0.8663 -0.4996 77.8555 383.9563)" width="2" height="45.628"/>
	<rect x="127.016" y="100.048" transform="matrix(-0.866 -0.5 0.5 -0.866 229.0617 263.4733)" width="45.628" height="2"/>
	<path d="M263.877,192.132l-0.444-1.95l-36.717,8.38v0l-1.481,0.338l-1.187-0.947l0,0l-41.906-33.419l0,0l-1.187-0.947v-55.119
		v-1.519L209.359,84.3l-1.247-1.563l-28.247,22.526l-1.142-0.659l0,0l-46.419-26.8l-1.732-1l-0.5-0.288l-0.5,0.288l-1.732,1
		l-46.419,26.8l0,0l-1.732,1l-0.5,0.288v0.579v2v53.6v1.423l-1.232,0.711l-26.479,15.288l0.999,1.733l27.712-16l47.651,27.511
		l1.732,1l0.5,0.288l0.5-0.288l1.732-1l47.561-27.459l1.03,0.822l0,0l42.979,34.274l-12.549,54.98l-52.578,16.218l-1.911,0.589
		l-0.552,0.169l-0.129,0.564l-0.445,1.95h0l-12.372,54.206l-0.128,0.562l0.422,0.393l40.758,37.818l0,0l1.466,1.36l0.422,0.394
		l0.553-0.171l55.041-16.978l0.552-0.169l0.129-0.564l0.445-1.95l12.372-54.206l0.128-0.562l-0.423-0.392l-41.801-38.786
		l12.549-54.98L263.877,192.132z M178.955,108.469v55.023l-1.232,0.711l-47.651,27.512l-1.232-0.712v0l-47.651-27.511v-1.423v-53.6
		v-1.423l1.232-0.711l0,0l46.419-26.8v0l1.232-0.712l47.651,27.511l0,0l1.232,0.711V108.469z M252.248,294.688l1.043,0.968
		l-0.317,1.387L241.048,349.3h0l-0.316,1.386l-1.359,0.419l-52.578,16.218l-1.042-0.967l-40.335-37.425l0.317-1.387h0l12.244-53.643
		l53.938-16.638l1.042,0.967l0,0L252.248,294.688z"/>
	<rect x="228.095" y="183.795" transform="matrix(-0.9749 0.2225 -0.2225 -0.9749 524.8445 310.4567)" width="33.675" height="2"/>
	<polygon points="284.815,88.69 309.699,57.485 308.136,56.238 283.851,86.69 282.045,82.939 281.837,82.506 281.367,82.398 
		277.309,81.472 301.593,51.021 300.03,49.774 275.145,80.978 242.7,73.573 242.256,75.523 280.452,84.241 281.112,85.61 
		305.026,135.269 290.033,166.404 291.834,167.273 306.765,136.269 346.202,136.269 346.202,134.269 306.765,134.269 	"/>
	<rect x="159.83" y="280.687" transform="matrix(-0.975 -0.2222 0.2222 -0.975 250.2097 635.1489)" width="2" height="45.628"/>
	<rect x="210.001" y="327.24" transform="matrix(-0.2947 -0.9556 0.9556 -0.2947 -61.3284 654.8412)" width="2" height="45.628"/>
	<rect x="203.417" y="282.327" transform="matrix(-0.7331 -0.6802 0.6802 -0.7331 199.3594 644.8974)" width="45.628" height="2"/>
	<rect x="198.074" y="31.078" transform="matrix(0.2225 0.9749 -0.9749 0.2225 199.3695 -185.8454)" width="36.265" height="2"/>
	<polygon points="288.918,194.734 288.742,194.734 273.312,172.605 269.894,172.605 269.894,200.788 273.371,200.788 
		273.371,178.737 273.547,178.737 288.977,200.788 292.394,200.788 292.394,172.605 288.918,172.605 	"/>
	<polygon points="213.739,55.996 213.739,84.179 217.215,84.179 217.215,62.129 217.391,62.129 232.821,84.179 236.239,84.179 
		236.239,55.996 232.762,55.996 232.762,78.125 232.586,78.125 217.157,55.996 	"/>
	<path d="M26.872,181.697c4.023,0,7.246,2.422,8.145,6.113h3.555c-0.898-5.625-5.566-9.355-11.699-9.355
		c-7.715,0-12.695,5.703-12.695,14.551c0,8.926,4.922,14.57,12.695,14.57c6.231,0,10.41-3.105,11.699-8.672h-3.555
		c-1.016,3.438-3.984,5.43-8.125,5.43c-5.566,0-9.102-4.414-9.102-11.328C17.79,186.151,21.364,181.697,26.872,181.697z"/>
	<rect x="43.036" y="177.694" width="3.398" height="29.414"/>
	<path d="M317.057,52.666c7.988,0,12.988-5.606,12.988-14.551c0-8.945-5-14.57-12.988-14.57s-12.988,5.625-12.988,14.57
		C304.069,47.061,309.069,52.666,317.057,52.666z M317.057,26.787c5.762,0,9.375,4.375,9.375,11.328
		c0,6.934-3.613,11.309-9.375,11.309s-9.375-4.375-9.375-11.309C307.682,31.162,311.296,26.787,317.057,26.787z"/>
	<path d="M363.736,120.474c-7.988,0-12.988,5.625-12.988,14.57s5,14.551,12.988,14.551s12.988-5.605,12.988-14.551
		S371.724,120.474,363.736,120.474z M363.736,146.353c-5.762,0-9.375-4.375-9.375-11.309c0-6.953,3.613-11.328,9.375-11.328
		s9.375,4.375,9.375,11.328C373.111,141.978,369.498,146.353,363.736,146.353z"/>
	<polygon points="399.709,120.943 399.709,133.131 384.24,133.131 384.24,120.943 380.724,120.943 380.724,149.127 384.24,149.127 
		384.24,136.295 399.709,136.295 399.709,149.127 403.224,149.127 403.224,120.943 	"/>
</g>
</svg>
