<?xml version="1.0" encoding="iso-8859-1"?>
<!-- Generator: Adobe Illustrator 19.1.0, SVG Export Plug-In . SVG Version: 6.00 Build 0)  -->
<svg version="1.1" id="&#x421;&#x43B;&#x43E;&#x439;_1"
	 xmlns="http://www.w3.org/2000/svg" xmlns:xlink="http://www.w3.org/1999/xlink" x="0px" y="0px" viewBox="0 0 479.083 418.932"
	 style="enable-background:new 0 0 479.083 418.932;" xml:space="preserve" width="479.083" height="418.932">
<g>
	<path style="fill:#808080;" d="M120.514,172.725c1.252-6.262,4.271-10.144,5.704-11.498h-1.996
		c-2.196,2.228-4.867,5.195-6.133,11.525c-1.263,6.316,0.148,10.062,1.296,11.977h2.092
		C120.654,182.555,119.262,178.987,120.514,172.725z"/>
	<polygon style="fill:#808080;" points="127.714,178.631 142.045,162.963 142.395,161.213 128.422,161.213 127.979,163.428 
		138.848,163.428 138.829,163.524 124.444,179.192 124.094,180.942 138.681,180.942 139.124,178.727 127.695,178.727 	"/>
	<path style="fill:#808080;" d="M146.439,161.227h-1.996c0.905,1.354,2.344,5.236,1.091,11.498
		c-1.252,6.262-4.071,9.83-5.764,12.004h2.092c1.914-1.914,4.837-5.66,6.1-11.977C149.228,166.422,147.743,163.455,146.439,161.227z
		"/>
</g>
<g>
	<rect x="243.827" y="29.536" transform="matrix(0.4996 0.8663 -0.8663 0.4996 167.9704 -186.0635)" width="2.4" height="45.628"/>
	<rect x="303.099" y="63.757" width="2.4" height="45.628"/>
	<rect x="222.213" y="119.592" transform="matrix(0.866 0.5 -0.5 0.866 93.223 -106.3301)" width="45.628" height="2.4"/>
	<rect x="174.186" y="150.157" width="2.4" height="45.628"/>
	<rect x="62.195" y="51.15" transform="matrix(-0.866 -0.5 0.5 -0.866 132.4547 140.1907)" width="45.628" height="2.4"/>
	<rect x="387.751" y="120.049" transform="matrix(0.4995 0.8663 -0.8663 0.4995 307.3433 -271.8433)" width="2.4" height="20.068"/>
	<rect x="375.757" y="164.421" transform="matrix(0.5 0.866 -0.866 0.5 334.8909 -248.8081)" width="14.327" height="2.4"/>
	<rect x="366.778" y="169.605" transform="matrix(-0.5 -0.866 0.866 -0.5 412.9941 580.051)" width="14.327" height="2.4"/>
	<rect x="344.487" y="157.69" transform="matrix(-0.8663 -0.4995 0.4995 -0.8663 562.0005 483.3692)" width="2.4" height="17.571"/>
	<rect x="345.88" y="170.459" transform="matrix(0.5 -0.866 0.866 0.5 28.6704 392.9772)" width="17.571" height="2.4"/>
	<rect x="83.809" y="97.978" transform="matrix(-0.4996 -0.8663 0.8663 -0.4996 22.841 254.7784)" width="2.4" height="45.628"/>
	<rect x="24.537" y="63.757" width="2.4" height="45.628"/>
	<polygon points="315.8,401.332 314.667,401.985 265.984,373.878 265.984,372.571 265.984,336.994 263.584,336.994 263.584,372.571 
		263.584,374.571 263.583,375.264 264.185,375.61 314.068,404.411 314.667,404.756 315.267,404.411 348.357,385.306 
		347.158,383.227 	"/>
	<polygon points="363.35,353.61 365.75,353.61 365.75,318.971 365.75,316.971 365.751,316.278 365.15,315.931 363.418,314.931 
		363.418,314.931 315.267,287.131 314.667,286.786 314.068,287.131 280.977,306.236 282.176,308.315 314.667,289.557 
		362.219,317.01 362.219,317.01 363.35,317.664 363.35,318.971 	"/>
	<rect x="378.783" y="392.618" transform="matrix(-0.866 -0.5 0.5 -0.866 545.559 933.8196)" width="38.21" height="2.4"/>
	<rect x="446.571" y="115.514" transform="matrix(0.4995 -0.8663 0.8663 0.4995 107.4721 455.2704)" width="2.4" height="38.21"/>
	<rect x="413.233" y="57.771" width="2.4" height="36.639"/>
	<path d="M165.301,40.133c-4.023,0-6.914-2.012-7.246-5.059h-3.535c0.332,4.98,4.473,8.223,10.449,8.223
		c6.484,0,10.547-3.223,10.547-8.379c0-4.043-2.363-6.289-8.203-7.754l-2.949-0.781c-3.828-0.996-5.391-2.266-5.391-4.395
		c0-2.754,2.539-4.648,6.191-4.648c3.672,0,6.113,1.855,6.426,4.883h3.516c-0.156-4.726-4.219-8.047-9.824-8.047
		c-5.859,0-9.961,3.281-9.961,7.969c0,3.828,2.305,6.113,7.5,7.441l3.613,0.938c3.789,0.977,5.449,2.441,5.449,4.824
		C171.883,38.121,169.11,40.133,165.301,40.133z"/>
	<path d="M364.833,155.333c-4.023,0-6.914-2.012-7.246-5.059h-3.535c0.332,4.98,4.473,8.223,10.449,8.223
		c6.484,0,10.547-3.223,10.547-8.379c0-4.043-2.363-6.289-8.203-7.754l-2.949-0.781c-3.828-0.996-5.391-2.266-5.391-4.395
		c0-2.754,2.539-4.648,6.191-4.648c3.672,0,6.113,1.855,6.426,4.883h3.516c-0.156-4.727-4.219-8.047-9.824-8.047
		c-5.859,0-9.961,3.281-9.961,7.969c0,3.828,2.305,6.113,7.5,7.441l3.613,0.938c3.789,0.977,5.449,2.441,5.449,4.824
		C371.415,153.321,368.642,155.333,364.833,155.333z"/>
	<polygon points="422.207,122.939 422.031,122.939 406.601,100.81 403.183,100.81 403.183,128.994 406.66,128.994 406.66,106.943 
		406.836,106.943 422.265,128.994 425.683,128.994 425.683,100.81 422.207,100.81 	"/>
	<path d="M393.35,208.38c7.988,0,12.988-5.605,12.988-14.551s-5-14.57-12.988-14.57c-7.988,0-12.988,5.625-12.988,14.57
		S385.362,208.38,393.35,208.38z M393.35,182.501c5.762,0,9.375,4.375,9.375,11.328c0,6.934-3.613,11.309-9.375,11.309
		c-5.762,0-9.375-4.375-9.375-11.309C383.975,186.876,387.589,182.501,393.35,182.501z"/>
	<path d="M348.739,193.829c0-8.945-5-14.57-12.988-14.57c-7.988,0-12.988,5.625-12.988,14.57s5,14.551,12.988,14.551
		C343.739,208.38,348.739,202.775,348.739,193.829z M326.375,193.829c0-6.953,3.613-11.328,9.375-11.328
		c5.762,0,9.375,4.375,9.375,11.328c0,6.934-3.613,11.309-9.375,11.309C329.989,205.138,326.375,200.763,326.375,193.829z"/>
	<path d="M216.101,286.171v-53.6v-2l0.001-0.693l-0.602-0.347l-1.732-1l-46.419-26.8l-1.131-0.653v-1.307v-53.6v-1.307l1.131-0.653
		l46.419-26.8l0,0l1.133-0.654l1.133,0.654l0,0l46.419,26.8l1.732,1l0.599,0.346l0.6-0.346l48.151-27.8l0,0l1.133-0.654
		l34.797,20.09l1.199-2.079l-34.796-20.089v-1.307v-53.6v-2l0.001-0.693l-0.602-0.347l-48.151-27.8l0,0l-1.732-1l-0.6-0.346
		l-0.599,0.346l-1.732,1l0,0l-46.419,26.8l-1.133,0.654l-34.387-19.853l-1.199,2.079l34.386,19.852v1.307v54.907l-1.131,0.653l0,0
		l-47.552,27.454l-47.552-27.454l0,0l-1.131-0.653V59.771v-1.307l33.246-19.194l-1.199-2.079l-33.247,19.195L67.583,28.931l0,0
		l-1.732-1l-0.599-0.346l-0.599,0.346l-1.732,1l0,0l-48.151,27.8l-0.601,0.345v0.694v2v53.6v2l-0.001,0.693l0.602,0.347l1.732,1l0,0
		l46.419,26.8l1.732,1l0.599,0.346l0.599-0.346l1.732-1l46.419-26.8l0,0l1.133-0.654l1.133,0.654l0,0l47.55,27.453v1.307v53.6v2
		l-0.001,0.693l0.602,0.347l48.151,27.8v0l1.132,0.653v1.307v53.6v2l-0.001,0.693l0.602,0.347l33.09,19.105l1.199-2.079
		l-32.49-18.758V286.171z M216.101,59.771v-1.307l1.131-0.653l46.419-26.8l0,0l1.133-0.654l1.133,0.654l0,0l46.419,26.8l1.132,0.653
		v1.307v53.6v1.307l-1.132,0.653l0,0l-47.552,27.454l-47.552-27.454l0,0l-1.131-0.653V59.771z M113.935,59.771v54.907l-1.132,0.653
		l0,0l-47.552,27.454L17.7,115.331l0,0l-1.131-0.653v-1.307v-53.6v-1.307L17.7,57.81l46.419-26.8l0,0l1.132-0.654l1.133,0.654l0,0
		l46.419,26.8l1.132,0.653V59.771z"/>
	<polygon points="276.034,330.594 276.034,302.41 272.557,302.41 272.557,324.539 272.382,324.539 256.952,302.41 253.534,302.41 
		253.534,330.594 257.011,330.594 257.011,308.543 257.186,308.543 272.616,330.594 	"/>
	<polygon points="372.324,382.139 372.148,382.139 356.718,360.01 353.3,360.01 353.3,388.194 356.777,388.194 356.777,366.143 
		356.953,366.143 372.382,388.194 375.8,388.194 375.8,360.01 372.324,360.01 	"/>
</g>
</svg>
