<?xml version="1.0" encoding="iso-8859-1"?>
<!-- Generator: Adobe Illustrator 19.1.0, SVG Export Plug-In . SVG Version: 6.00 Build 0)  -->
<svg version="1.1" id="&#x421;&#x43B;&#x43E;&#x439;_1"
	 xmlns="http://www.w3.org/2000/svg" xmlns:xlink="http://www.w3.org/1999/xlink" x="0px" y="0px" viewBox="0 0 429.222 418.932"
	 style="enable-background:new 0 0 429.222 418.932;" xml:space="preserve" width="429.222" height="418.932">
<g>
	<rect x="402.275" y="63.757" width="2.4" height="45.628"/>
	<rect x="321.388" y="119.592" transform="matrix(-0.866 -0.5 0.5 -0.866 581.8936 397.5021)" width="45.628" height="2.4"/>
	<rect x="343.002" y="29.536" transform="matrix(-0.4995 -0.8663 0.8663 -0.4995 470.7881 376.6823)" width="2.4" height="45.628"/>
	<rect x="182.985" y="97.978" transform="matrix(-0.4996 -0.8663 0.8663 -0.4996 171.563 340.6907)" width="2.4" height="45.628"/>
	<rect x="123.712" y="63.757" width="2.4" height="45.628"/>
	<rect x="161.371" y="51.15" transform="matrix(-0.866 -0.5 0.5 -0.866 317.5186 189.7784)" width="45.628" height="2.4"/>
	<path d="M362.759,372.571v1.307l-47.55,27.453l0,0l-1.133,0.654l-1.133-0.654l0,0l-47.551-27.453v-1.307v-53.6v-1.307l1.132-0.653
		l0,0l47.552-27.454l32.491,18.759l1.199-2.079l-32.49-18.758v-54.907v-2l0.001-0.693l-0.602-0.347l-1.732-1l0,0l-46.419-26.8
		l-1.132-0.653v-1.307v-35.577h-2.4v35.577v2l-0.001,0.693l0.602,0.347l48.151,27.8l0,0l1.132,0.653v1.307v54.907l-47.551,27.453
		l0,0l-1.732,1l-0.6,0.345v0.694v2v53.6v2l-0.001,0.693l0.602,0.347l49.883,28.8l0.599,0.346l0.599-0.346l49.883-28.8l0.6-0.345
		v-0.694v-2v-35.577h-2.4V372.571z M314.076,288.171L314.076,288.171L314.076,288.171L314.076,288.171z"/>
	<rect x="396.097" y="278.619" transform="matrix(-0.4996 -0.8663 0.8663 -0.4996 337.8724 790.626)" width="2.4" height="38.209"/>
	<rect x="12.04" y="124.389" transform="matrix(-0.866 -0.5 0.5 -0.866 -2.1933 250.59)" width="40.872" height="2.4"/>
	<path d="M414.442,56.731l-48.151-27.8l0,0l-1.732-1l-0.6-0.346l-0.599,0.346l-1.732,1l0,0l-47.552,27.454L279.69,36.532
		l-1.199,2.079l34.386,19.853v56.214l-1.132,0.653l0,0l-31.359,18.105l1.199,2.079l31.359-18.105l1.133-0.654l47.552,27.454l1.732,1
		l0.599,0.346l0.6-0.346l49.883-28.8l0.6-0.345v-0.694v-2v-53.6v-2l0.001-0.693L414.442,56.731z M412.643,59.771v53.6v1.307
		l-1.132,0.653l0,0l-47.552,27.454l-47.552-27.454l0,0l-1.132-0.653V58.464l1.132-0.653l46.419-26.8l0,0l1.133-0.654l1.133,0.654
		l0,0l46.419,26.8l1.132,0.653V59.771z"/>
	<path d="M264.476,40.133c-4.023,0-6.914-2.012-7.246-5.059h-3.535c0.332,4.98,4.473,8.223,10.449,8.223
		c6.484,0,10.547-3.223,10.547-8.379c0-4.043-2.363-6.289-8.203-7.754l-2.949-0.781c-3.828-0.996-5.391-2.266-5.391-4.395
		c0-2.754,2.539-4.648,6.191-4.648c3.672,0,6.113,1.855,6.426,4.883h3.516c-0.156-4.726-4.219-8.047-9.824-8.047
		c-5.859,0-9.961,3.281-9.961,7.969c0,3.828,2.305,6.113,7.5,7.441l3.613,0.938c3.789,0.977,5.449,2.441,5.449,4.824
		C271.058,38.121,268.285,40.133,264.476,40.133z"/>
	<polygon points="275.443,157.794 275.443,129.61 271.967,129.61 271.967,151.739 271.791,151.739 256.361,129.61 252.943,129.61 
		252.943,157.794 256.42,157.794 256.42,135.743 256.596,135.743 272.025,157.794 	"/>
	<path d="M215.51,58.464l33.246-19.195l-1.199-2.079L214.31,56.385l-47.552-27.454l0,0l-1.732-1l-0.6-0.346l-0.599,0.346l-1.732,1
		l0,0l-48.151,27.8l-0.6,0.345v0.694v2v53.6v1.307l-1.132,0.653l0,0l-32.44,18.729l1.199,2.079l32.44-18.729l1.133-0.654
		l47.551,27.454l0,0l1.732,1l0.599,0.346l0.6-0.346l1.732-1l47.551-27.454l1.133,0.654l31.358,18.105l1.199-2.079l-31.358-18.105
		l0,0l-1.132-0.653V59.771V58.464z M213.11,59.771v54.907l-1.132,0.653l0,0l-47.552,27.454l-48.683-28.107v-1.307v-53.6v-1.307
		l47.55-27.453l0,0l1.133-0.654l1.133,0.654l0,0l46.419,26.8l1.132,0.653V59.771z"/>
	<polygon points="371.733,324.539 371.557,324.539 356.127,302.41 352.709,302.41 352.709,330.594 356.186,330.594 356.186,308.543 
		356.362,308.543 371.791,330.594 375.209,330.594 375.209,302.41 371.733,302.41 	"/>
	<path d="M66.956,142.364l-2.949-0.781c-3.828-0.996-5.391-2.266-5.391-4.395c0-2.754,2.539-4.649,6.192-4.649
		c3.672,0,6.113,1.856,6.426,4.883h3.516c-0.156-4.727-4.219-8.047-9.824-8.047c-5.859,0-9.961,3.281-9.961,7.969
		c0,3.828,2.305,6.113,7.5,7.441l3.613,0.938c3.789,0.977,5.449,2.442,5.449,4.824c0,2.773-2.774,4.785-6.582,4.785
		c-4.023,0-6.914-2.012-7.246-5.058h-3.535c0.332,4.98,4.473,8.223,10.449,8.223c6.484,0,10.547-3.223,10.547-8.379
		C75.159,146.075,72.796,143.829,66.956,142.364z"/>
</g>
</svg>
