<?xml version="1.0" encoding="utf-8"?>
<!-- Generator: Adobe Illustrator 19.1.0, SVG Export Plug-In . SVG Version: 6.00 Build 0)  -->
<svg version="1.1" id="Слой_1" xmlns="http://www.w3.org/2000/svg" xmlns:xlink="http://www.w3.org/1999/xlink" x="0px" y="0px"
	 viewBox="0 0 612.3 307.3" style="enable-background:new 0 0 612.3 307.3;" xml:space="preserve" width="612.3" height="307.3">
<g>
	<path d="M252,201.3L252,201.3v1.3l-1.1,0.7l0,0l-47.6,27.5l-47.6-27.5l0,0l-1.1-0.7v-1.3v-54.9l47.6-27.5l0,0l1.1-0.7l1.1,0.7l0,0
		l31.4,18.1l1.2-2.1l-31.4-18.1l0,0l-1.7-1l-0.6-0.3l-0.6,0.3l-1.7,1l0,0l-47.5,27.4l-43.6-31.6V78.1h-2.4v32.8v2.3l-8,4.6V78.1
		h-2.4v41.1l-26,15l1.2,2.1l25-14.4l0,0l54.8,24.6v54.8v2l0,0.7l0.6,0.3l1.7,1l0,0l48.2,27.8l0.6,0.3l0.6-0.3l49.9-28.8l0.6-0.3
		v-0.7l0-37.6H252L252,201.3z M153.4,145.7L153.4,145.7L153.4,145.7L153.4,145.7z"/>
	<rect x="421.4" y="117.5" transform="matrix(0.4996 -0.8663 0.8663 0.4996 89.9638 436.2871)" width="2.4" height="45.6"/>
	<rect x="429.9" y="280.4" width="45.6" height="2.4"/>
	<rect x="412.7" y="227.4" transform="matrix(0.809 -0.5878 0.5878 0.809 -51.1999 299.6537)" width="45.6" height="2.4"/>
	<rect x="499.5" y="90.9" transform="matrix(-0.309 0.9511 -0.9511 -0.309 771.2875 -376.2385)" width="45.6" height="2.4"/>
	<rect x="576.8" y="69.3" transform="matrix(0.9509 -0.3094 0.3094 0.9509 -0.1286 183.3214)" width="2.4" height="45.6"/>
	<polygon points="261,153.3 260.8,153.3 245.4,131.1 241.9,131.1 241.9,159.3 245.4,159.3 245.4,137.3 245.6,137.3 261,159.3 
		264.4,159.3 264.4,131.1 261,131.1 	"/>
	<path d="M53.7,130.9c-8,0-13,5.6-13,14.6c0,8.9,5,14.6,13,14.6c8,0,13-5.6,13-14.6C66.6,136.5,61.6,130.9,53.7,130.9z M53.7,156.8
		c-5.8,0-9.4-4.4-9.4-11.3c0-7,3.6-11.3,9.4-11.3c5.8,0,9.4,4.4,9.4,11.3C63,152.4,59.4,156.8,53.7,156.8z"/>
	<polygon points="33.2,143.6 17.7,143.6 17.7,131.4 14.2,131.4 14.2,159.6 17.7,159.6 17.7,146.7 33.2,146.7 33.2,159.6 36.7,159.6 
		36.7,131.4 33.2,131.4 	"/>
	<path d="M103.5,73.6c8,0,13-5.6,13-14.6c0-8.9-5-14.6-13-14.6c-8,0-13,5.6-13,14.6C90.6,68,95.6,73.6,103.5,73.6z M103.5,47.7
		c5.8,0,9.4,4.4,9.4,11.3c0,6.9-3.6,11.3-9.4,11.3c-5.8,0-9.4-4.4-9.4-11.3C94.2,52.1,97.8,47.7,103.5,47.7z"/>
	<path d="M501.6,235.3l-2.9-0.8c-3.8-1-5.4-2.3-5.4-4.4c0-2.8,2.5-4.6,6.2-4.6c3.7,0,6.1,1.9,6.4,4.9h3.5c-0.2-4.7-4.2-8-9.8-8
		c-5.9,0-10,3.3-10,8c0,3.8,2.3,6.1,7.5,7.4l3.6,0.9c3.8,1,5.4,2.4,5.4,4.8c0,2.8-2.8,4.8-6.6,4.8c-4,0-6.9-2-7.2-5.1h-3.5
		c0.3,5,4.5,8.2,10.4,8.2c6.5,0,10.5-3.2,10.5-8.4C509.8,239.1,507.5,236.8,501.6,235.3z"/>
	<path d="M552.5,148.3l-2.9-0.8c-3.8-1-5.4-2.3-5.4-4.4c0-2.8,2.5-4.6,6.2-4.6c3.7,0,6.1,1.9,6.4,4.9h3.5c-0.2-4.7-4.2-8-9.8-8
		c-5.9,0-10,3.3-10,8c0,3.8,2.3,6.1,7.5,7.4l3.6,0.9c3.8,1,5.4,2.4,5.4,4.8c0,2.8-2.8,4.8-6.6,4.8c-4,0-6.9-2-7.2-5.1h-3.5
		c0.3,5,4.5,8.2,10.4,8.2c6.5,0,10.5-3.2,10.5-8.4C560.7,152,558.3,149.8,552.5,148.3z"/>
	<path d="M597.9,115.9l-17.8-54.8l-0.3-0.8H579h-2h-55l-33.5-46.1l-1.9,1.4L520,61.7l-17.5,53.8l-49.8,28.9l-49.3-28.5l-0.6-0.3
		l-0.6,0.3L353,144.3l-47.6-27.5l0,0l-1.7-1l-0.6-0.3l-0.6,0.3l-1.7,1v0L269.4,135l1.2,2.1l31.4-18.1l0,0l1.1-0.7l1.1,0.7l0,0
		l46.4,26.8l0,0l1.7,1l0.6,0.3l0.6-0.3l48.2-27.8l0,0l1.1-0.7l1.1,0.7l0,0l47.6,27.5v56.3l-45.6,33.1l-54.2-17.6l-0.7,2.3l54.2,17.6
		l17,52.3h0l0.6,1.9l0.3,0.8h0.9h2h53.6h2l0.9,0l0.3-0.8l0.6-1.9h0l11.2-34.5l-2.3-0.7L481,289.7l0,0l-0.3,1.1h-1.1h-53.6h-1.1
		l-0.3-1.1l0,0l-16.9-52l45.2-32.8l32.1,23.4l1.4-1.9l-32.4-23.5v-56.3l49.6-28.7l32.2,23.4l1.4-1.9L505,115.8l17.3-53.1H577h1.1
		l0.3,1.1l0,0l16.6,51l0,0l0.3,1.1l-0.9,0.7l0,0L564.7,138l1.4,1.9l31.3-22.8l0.7-0.5L597.9,115.9z M521.4,61.5L521.4,61.5
		L521.4,61.5L521.4,61.5z M452.7,145.7L452.7,145.7L452.7,145.7L452.7,145.7z M503.6,116.3L503.6,116.3L503.6,116.3L503.6,116.3z"/>
</g>
</svg>
