<?xml version="1.0" encoding="UTF-8" standalone="no"?>
<!-- Created with Inkscape (http://www.inkscape.org/) -->

<svg
   width="363.74896mm"
   height="213.70065mm"
   viewBox="0 0 363.74896 213.70065"
   version="1.1"
   id="svg1"
   inkscape:version="1.4 (86a8ad7, 2024-10-11)"
   sodipodi:docname="Tianeptine_based_on_xtal.svg"
   xmlns:inkscape="http://www.inkscape.org/namespaces/inkscape"
   xmlns:sodipodi="http://sodipodi.sourceforge.net/DTD/sodipodi-0.dtd"
   xmlns="http://www.w3.org/2000/svg"
   xmlns:svg="http://www.w3.org/2000/svg">
  <sodipodi:namedview
     id="namedview1"
     pagecolor="#ffffff"
     bordercolor="#000000"
     borderopacity="0.25"
     inkscape:showpageshadow="2"
     inkscape:pageopacity="0.0"
     inkscape:pagecheckerboard="0"
     inkscape:deskcolor="#d1d1d1"
     inkscape:document-units="mm"
     inkscape:zoom="0.36925856"
     inkscape:cx="1052.1083"
     inkscape:cy="716.30026"
     inkscape:window-width="1920"
     inkscape:window-height="1009"
     inkscape:window-x="-8"
     inkscape:window-y="-8"
     inkscape:window-maximized="1"
     inkscape:current-layer="layer1" />
  <defs
     id="defs1" />
  <g
     inkscape:label="Layer 1"
     inkscape:groupmode="layer"
     id="layer1"
     transform="translate(133.87917,17.041857)">
    <path
       fill="none"
       stroke-width="1.31961"
       stroke-linecap="butt"
       stroke-linejoin="miter"
       stroke="#000000"
       stroke-opacity="1"
       stroke-miterlimit="10"
       d="M 86.434616,59.530199 65.936649,65.939137"
       id="path8" />
    <path
       fill="none"
       stroke-width="1.31961"
       stroke-linecap="butt"
       stroke-linejoin="miter"
       stroke="#000000"
       stroke-opacity="1"
       stroke-miterlimit="10"
       d="M -13.666762,13.689081 V 2.9941219"
       id="path9" />
    <path
       fill="none"
       stroke-width="1.31961"
       stroke-linecap="butt"
       stroke-linejoin="miter"
       stroke="#000000"
       stroke-opacity="1"
       stroke-miterlimit="10"
       d="M -18.593586,13.689081 V 2.9941219"
       id="path10" />
    <path
       fill="none"
       stroke-width="1.31961"
       stroke-linecap="butt"
       stroke-linejoin="miter"
       stroke="#000000"
       stroke-opacity="1"
       stroke-miterlimit="10"
       d="M -4.1190192,19.202972 0.56904263,15.463656"
       id="path11" />
    <path
       fill="none"
       stroke-width="1.31961"
       stroke-linecap="butt"
       stroke-linejoin="miter"
       stroke="#000000"
       stroke-opacity="1"
       stroke-miterlimit="10"
       d="m -7.1906827,15.351014 4.688097,-3.739315"
       id="path12" />
    <path
       fill="none"
       stroke-width="1.31961"
       stroke-linecap="butt"
       stroke-linejoin="miter"
       stroke="#000000"
       stroke-opacity="1"
       stroke-miterlimit="10"
       d="M -24.961176,25.63151 H -40.626347"
       id="path13" />
    <path
       fill="none"
       stroke-width="1.31961"
       stroke-linecap="butt"
       stroke-linejoin="miter"
       stroke="#000000"
       stroke-opacity="1"
       stroke-miterlimit="10"
       d="M -7.4686804,36.491825 5.7222404,53.031386"
       id="path14" />
    <path
       fill="none"
       stroke-width="1.31961"
       stroke-linecap="butt"
       stroke-linejoin="miter"
       stroke="#000000"
       stroke-opacity="1"
       stroke-miterlimit="10"
       d="M -33.425784,124.27354 V 101.4057"
       id="path15" />
    <path
       fill="none"
       stroke-width="1.31961"
       stroke-linecap="butt"
       stroke-linejoin="miter"
       stroke="#000000"
       stroke-opacity="1"
       stroke-miterlimit="10"
       d="M -59.767298,36.974485 -72.485904,52.922862"
       id="path16" />
    <path
       fill="none"
       stroke-width="1.31961"
       stroke-linecap="butt"
       stroke-linejoin="miter"
       stroke="#000000"
       stroke-opacity="1"
       stroke-miterlimit="10"
       d="M -56.863102,12.876729 -65.72975,-5.5345486"
       id="path17" />
    <path
       fill="none"
       stroke-width="1.31961"
       stroke-linecap="butt"
       stroke-linejoin="miter"
       stroke="#000000"
       stroke-opacity="1"
       stroke-miterlimit="10"
       d="M -33.425784,101.4057 -1.8473205,86.198343"
       id="path18" />
    <path
       fill="none"
       stroke-width="1.31961"
       stroke-linecap="butt"
       stroke-linejoin="miter"
       stroke="#000000"
       stroke-opacity="1"
       stroke-miterlimit="10"
       d="M -33.425784,101.4057 -64.878127,86.258306"
       id="path19" />
    <path
       fill="none"
       stroke-width="1.31961"
       stroke-linecap="butt"
       stroke-linejoin="miter"
       stroke="#000000"
       stroke-opacity="1"
       stroke-miterlimit="10"
       d="M -2.2597072,86.396777 5.4369584,52.67379"
       id="path20" />
    <path
       fill="none"
       stroke-width="1.31961"
       stroke-linecap="butt"
       stroke-linejoin="miter"
       stroke="#000000"
       stroke-opacity="1"
       stroke-miterlimit="10"
       d="M 3.1652949,84.768977 9.6175864,56.494745"
       id="path21" />
    <path
       fill="none"
       stroke-width="1.31961"
       stroke-linecap="butt"
       stroke-linejoin="miter"
       stroke="#000000"
       stroke-opacity="1"
       stroke-miterlimit="10"
       d="M -2.5904541,86.080528 24.047708,111.57457"
       id="path22" />
    <path
       fill="none"
       stroke-width="1.31961"
       stroke-linecap="butt"
       stroke-linejoin="miter"
       stroke="#000000"
       stroke-opacity="1"
       stroke-miterlimit="10"
       d="M -64.520496,86.705812 -72.358799,52.364755"
       id="path23" />
    <path
       fill="none"
       stroke-width="1.31961"
       stroke-linecap="butt"
       stroke-linejoin="miter"
       stroke="#000000"
       stroke-opacity="1"
       stroke-miterlimit="10"
       d="M -64.591825,86.396777 -90.89822,111.57457"
       id="path24" />
    <path
       fill="none"
       stroke-width="1.31961"
       stroke-linecap="butt"
       stroke-linejoin="miter"
       stroke="#000000"
       stroke-opacity="1"
       stroke-miterlimit="10"
       d="M -70.016827,84.768977 -92.231483,106.03073"
       id="path25" />
    <path
       fill="none"
       stroke-width="1.31961"
       stroke-linecap="butt"
       stroke-linejoin="miter"
       stroke="#000000"
       stroke-opacity="1"
       stroke-miterlimit="10"
       d="M 5.0018744,52.815393 40.064317,41.406261"
       id="path26" />
    <path
       fill="none"
       stroke-width="1.31961"
       stroke-linecap="butt"
       stroke-linejoin="miter"
       stroke="#000000"
       stroke-opacity="1"
       stroke-miterlimit="10"
       d="M -72.28747,52.67379 -106.91483,41.406261"
       id="path27" />
    <path
       fill="none"
       stroke-width="1.31961"
       stroke-linecap="butt"
       stroke-linejoin="miter"
       stroke="#000000"
       stroke-opacity="1"
       stroke-miterlimit="10"
       d="M -76.469154,56.494745 -105.71075,46.979024"
       id="path28" />
    <path
       fill="none"
       stroke-width="1.31961"
       stroke-linecap="butt"
       stroke-linejoin="miter"
       stroke="#000000"
       stroke-opacity="1"
       stroke-miterlimit="10"
       d="M 23.401768,111.41851 58.648183,100.8414"
       id="path29" />
    <path
       fill="none"
       stroke-width="1.31961"
       stroke-linecap="butt"
       stroke-linejoin="miter"
       stroke="#000000"
       stroke-opacity="1"
       stroke-miterlimit="10"
       d="M 24.733976,105.87569 54.484094,96.948092"
       id="path30" />
    <path
       fill="none"
       stroke-width="1.31961"
       stroke-linecap="butt"
       stroke-linejoin="miter"
       stroke="#000000"
       stroke-opacity="1"
       stroke-miterlimit="10"
       d="m -90.2533,111.41851 -35.24645,-10.573"
       id="path31" />
    <path
       fill="none"
       stroke-width="1.31961"
       stroke-linecap="butt"
       stroke-linejoin="miter"
       stroke="#000000"
       stroke-opacity="1"
       stroke-miterlimit="10"
       d="M 39.415246,41.266735 66.298363,65.825439"
       id="path32" />
    <path
       fill="none"
       stroke-width="1.31961"
       stroke-linecap="butt"
       stroke-linejoin="miter"
       stroke="#000000"
       stroke-opacity="1"
       stroke-miterlimit="10"
       d="M 38.210178,46.839498 60.856857,67.526609"
       id="path33" />
    <path
       fill="none"
       stroke-width="1.31961"
       stroke-linecap="butt"
       stroke-linejoin="miter"
       stroke="#000000"
       stroke-opacity="1"
       stroke-miterlimit="10"
       d="m -106.26576,41.266735 -27.16837,24.821218"
       id="path34" />
    <path
       fill="none"
       stroke-width="1.31961"
       stroke-linecap="butt"
       stroke-linejoin="miter"
       stroke="#000000"
       stroke-opacity="1"
       stroke-miterlimit="10"
       d="m 58.195504,101.32715 8.18763,-35.871729"
       id="path35" />
    <path
       fill="none"
       stroke-width="1.31961"
       stroke-linecap="butt"
       stroke-linejoin="miter"
       stroke="#000000"
       stroke-opacity="1"
       stroke-miterlimit="10"
       d="M -125.04602,101.33025 -133.2357,65.4544"
       id="path36" />
    <path
       fill="none"
       stroke-width="1.31961"
       stroke-linecap="butt"
       stroke-linejoin="miter"
       stroke="#000000"
       stroke-opacity="1"
       stroke-miterlimit="10"
       d="M -120.88193,97.435925 -127.79418,67.15557"
       id="path37" />
    <path
       fill="none"
       stroke-width="1.31961"
       stroke-linecap="butt"
       stroke-linejoin="miter"
       stroke="#000000"
       stroke-opacity="1"
       stroke-miterlimit="10"
       d="M -22.083829,142.54425 -2.7371946,153.7136"
       id="path38" />
    <path
       fill="none"
       stroke-width="1.31961"
       stroke-linecap="butt"
       stroke-linejoin="miter"
       stroke="#000000"
       stroke-opacity="1"
       stroke-miterlimit="10"
       d="M -3.3976327,153.7136 27.620647,135.80566"
       id="path39" />
    <path
       fill="none"
       stroke-width="1.31961"
       stroke-linecap="butt"
       stroke-linejoin="miter"
       stroke="#000000"
       stroke-opacity="1"
       stroke-miterlimit="10"
       d="M 26.96123,135.80566 57.97951,153.7136"
       id="path40" />
    <path
       fill="none"
       stroke-width="1.31961"
       stroke-linecap="butt"
       stroke-linejoin="miter"
       stroke="#000000"
       stroke-opacity="1"
       stroke-miterlimit="10"
       d="m 57.319072,153.7136 31.01828,-17.90794"
       id="path41" />
    <path
       fill="none"
       stroke-width="1.31961"
       stroke-linecap="butt"
       stroke-linejoin="miter"
       stroke="#000000"
       stroke-opacity="1"
       stroke-miterlimit="10"
       d="M 87.677935,135.80566 118.69621,153.7136"
       id="path42" />
    <path
       fill="none"
       stroke-width="1.31961"
       stroke-linecap="butt"
       stroke-linejoin="miter"
       stroke="#000000"
       stroke-opacity="1"
       stroke-miterlimit="10"
       d="m 118.03578,153.7136 31.01828,-17.90794"
       id="path43" />
    <path
       fill="none"
       stroke-width="1.31961"
       stroke-linecap="butt"
       stroke-linejoin="miter"
       stroke="#000000"
       stroke-opacity="1"
       stroke-miterlimit="10"
       d="m 148.39464,135.80566 31.01828,17.90794"
       id="path44" />
    <path
       fill="none"
       stroke-width="1.31961"
       stroke-linecap="butt"
       stroke-linejoin="miter"
       stroke="#000000"
       stroke-opacity="1"
       stroke-miterlimit="10"
       d="m 176.61929,152.10132 v 24.52253"
       id="path45" />
    <path
       fill="none"
       stroke-width="1.31961"
       stroke-linecap="butt"
       stroke-linejoin="miter"
       stroke="#000000"
       stroke-opacity="1"
       stroke-miterlimit="10"
       d="m 181.54611,152.10132 v 24.52253"
       id="path46" />
    <path
       fill="none"
       stroke-width="1.31961"
       stroke-linecap="butt"
       stroke-linejoin="miter"
       stroke="#000000"
       stroke-opacity="1"
       stroke-miterlimit="10"
       d="m 178.75248,153.7136 18.32343,-10.57918"
       id="path47" />
    <g
       fill="#000000"
       fill-opacity="1"
       id="g48"
       transform="matrix(0.26458333,0,0,0.26458333,-134.46663,-19.198831)">
      <g
         id="use47"
         transform="translate(847.57812,313.51172)">
        <path
           d="m 33.5,-53.609375 c -6.375,0 -11.390625,2.136719 -15.046875,6.40625 -3.65625,4.261719 -5.484375,10.105469 -5.484375,17.53125 0,7.367187 1.703125,13.199219 5.109375,17.5 3.40625,4.292969 8.519531,6.4375 15.34375,6.4375 2.601563,0 5.066406,-0.21875 7.390625,-0.65625 2.332031,-0.445313 4.601562,-1.003906 6.8125,-1.671875 v 6.484375 c -2.210938,0.835937 -4.496094,1.445313 -6.859375,1.828125 -2.355469,0.382812 -5.167969,0.578125 -8.4375,0.578125 -6.03125,0 -11.074219,-1.242187 -15.125,-3.734375 -4.042969,-2.5 -7.074219,-6.046875 -9.09375,-10.640625 -2.023437,-4.601563 -3.03125,-10.007813 -3.03125,-16.21875 0,-5.976563 1.09375,-11.253906 3.28125,-15.828125 2.1875,-4.570312 5.410156,-8.144531 9.671875,-10.71875 4.269531,-2.582031 9.453125,-3.875 15.546875,-3.875 6.257813,0 11.71875,1.167969 16.375,3.5 l -2.984375,6.3125 c -1.835938,-0.832031 -3.875,-1.578125 -6.125,-2.234375 -2.242188,-0.664063 -4.6875,-1 -7.34375,-1 z m 0,0"
           id="path64" />
      </g>
      <g
         id="use48"
         transform="translate(900.11316,313.51172)">
        <path
           d="M 14.375,0 H 7.0625 v -63.171875 h 7.3125 z m 0,0"
           id="path65" />
      </g>
    </g>
    <g
       fill="#000000"
       fill-opacity="1"
       id="g49"
       transform="matrix(0.26458333,0,0,0.26458333,-134.46663,-19.198831)">
      <g
         id="use49"
         transform="translate(424.26953,199.11328)">
        <path
           d="m 41.734375,-15.875 c 0,5.261719 -1.917969,9.359375 -5.75,12.296875 -3.824219,2.9375 -8.976563,4.40625 -15.453125,4.40625 -3.324219,0 -6.402344,-0.25 -9.234375,-0.75 C 8.472656,-0.421875 6.117188,-1.113281 4.234375,-2 v -7.140625 c 2,0.886719 4.476563,1.6875 7.4375,2.40625 2.96875,0.71875 6.03125,1.078125 9.1875,1.078125 4.4375,0 7.773437,-0.859375 10.015625,-2.578125 2.25,-1.71875 3.375,-4.046875 3.375,-6.984375 0,-1.9375 -0.417969,-3.566406 -1.25,-4.890625 -0.835938,-1.332031 -2.261719,-2.566406 -4.28125,-3.703125 -2.023438,-1.132812 -4.835938,-2.34375 -8.4375,-3.625 -5.042969,-1.820312 -8.855469,-4.0625 -11.4375,-6.71875 -2.574219,-2.664062 -3.859375,-6.296875 -3.859375,-10.890625 0,-3.164063 0.800781,-5.867187 2.40625,-8.109375 1.613281,-2.25 3.847656,-3.984375 6.703125,-5.203125 2.851562,-1.21875 6.132812,-1.828125 9.84375,-1.828125 3.269531,0 6.257812,0.308594 8.96875,0.921875 2.71875,0.605469 5.1875,1.40625 7.40625,2.40625 l -2.328125,6.40625 c -2.054687,-0.882813 -4.28125,-1.628906 -6.6875,-2.234375 -2.40625,-0.613281 -4.914063,-0.921875 -7.515625,-0.921875 -3.71875,0 -6.523438,0.792969 -8.40625,2.375 -1.886719,1.574219 -2.828125,3.664063 -2.828125,6.265625 0,1.992188 0.414063,3.652344 1.25,4.984375 0.832031,1.335937 2.191406,2.527344 4.078125,3.578125 1.882812,1.054688 4.429688,2.1875 7.640625,3.40625 3.488281,1.273438 6.4375,2.640625 8.84375,4.109375 2.414063,1.46875 4.25,3.230469 5.5,5.28125 1.25,2.054687 1.875,4.632813 1.875,7.734375 z m 0,0"
           id="path1" />
      </g>
    </g>
    <g
       fill="#000000"
       fill-opacity="1"
       id="g50"
       transform="matrix(0.26458333,0,0,0.26458333,-134.46663,-19.198831)">
      <g
         id="use50"
         transform="translate(414.79297,68.417969)">
        <path
           d="m 59.84375,-29.765625 c 0,6.15625 -1.042969,11.523437 -3.125,16.09375 -2.074219,4.574219 -5.132812,8.136719 -9.171875,10.6875 -4.042969,2.542969 -9.058594,3.8125 -15.046875,3.8125 -6.148438,0 -11.257812,-1.269531 -15.328125,-3.8125 C 13.097656,-5.535156 10.0625,-9.109375 8.0625,-13.703125 6.070312,-18.304688 5.078125,-23.6875 5.078125,-29.84375 c 0,-6.09375 0.992187,-11.410156 2.984375,-15.953125 2,-4.550781 5.035156,-8.097656 9.109375,-10.640625 4.070313,-2.550781 9.207031,-3.828125 15.40625,-3.828125 5.9375,0 10.925781,1.261719 14.96875,3.78125 4.039063,2.523437 7.097656,6.070313 9.171875,10.640625 2.082031,4.574219 3.125,9.933594 3.125,16.078125 z m -46.875,0 c 0,7.492187 1.578125,13.382813 4.734375,17.671875 3.15625,4.292969 8.085937,6.4375 14.796875,6.4375 6.757812,0 11.691406,-2.144531 14.796875,-6.4375 3.101563,-4.289062 4.65625,-10.179688 4.65625,-17.671875 0,-7.476563 -1.554687,-13.335937 -4.65625,-17.578125 -3.105469,-4.238281 -8.011719,-6.359375 -14.71875,-6.359375 -6.699219,0 -11.640625,2.121094 -14.828125,6.359375 -3.1875,4.242188 -4.78125,10.101562 -4.78125,17.578125 z m 0,0"
           id="path60" />
      </g>
    </g>
    <g
       fill="#000000"
       fill-opacity="1"
       id="g51"
       transform="matrix(0.26458333,0,0,0.26458333,-134.46663,-19.198831)">
      <g
         id="use51"
         transform="translate(517.00391,117.64062)">
        <path
           d="m 59.84375,-29.765625 c 0,6.15625 -1.042969,11.523437 -3.125,16.09375 -2.074219,4.574219 -5.132812,8.136719 -9.171875,10.6875 -4.042969,2.542969 -9.058594,3.8125 -15.046875,3.8125 -6.148438,0 -11.257812,-1.269531 -15.328125,-3.8125 C 13.097656,-5.535156 10.0625,-9.109375 8.0625,-13.703125 6.070312,-18.304688 5.078125,-23.6875 5.078125,-29.84375 c 0,-6.09375 0.992187,-11.410156 2.984375,-15.953125 2,-4.550781 5.035156,-8.097656 9.109375,-10.640625 4.070313,-2.550781 9.207031,-3.828125 15.40625,-3.828125 5.9375,0 10.925781,1.261719 14.96875,3.78125 4.039063,2.523437 7.097656,6.070313 9.171875,10.640625 2.082031,4.574219 3.125,9.933594 3.125,16.078125 z m -46.875,0 c 0,7.492187 1.578125,13.382813 4.734375,17.671875 3.15625,4.292969 8.085937,6.4375 14.796875,6.4375 6.757812,0 11.691406,-2.144531 14.796875,-6.4375 3.101563,-4.289062 4.65625,-10.179688 4.65625,-17.671875 0,-7.476563 -1.554687,-13.335937 -4.65625,-17.578125 -3.105469,-4.238281 -8.011719,-6.359375 -14.71875,-6.359375 -6.699219,0 -11.640625,2.121094 -14.828125,6.359375 -3.1875,4.242188 -4.78125,10.101562 -4.78125,17.578125 z m 0,0"
           id="path61" />
      </g>
    </g>
    <g
       fill="#000000"
       fill-opacity="1"
       id="g52"
       transform="matrix(0.26458333,0,0,0.26458333,-134.46663,-19.198831)">
      <g
         id="use52"
         transform="translate(350.30078,616.23437)">
        <path
           d="m 55.109375,0 h -8.71875 L 14.625,-49.296875 h -0.328125 c 0.113281,1.9375 0.253906,4.351563 0.421875,7.234375 0.164062,2.886719 0.25,5.851562 0.25,8.890625 V 0 H 8.0625 v -59.34375 h 8.640625 l 31.671875,49.125 h 0.34375 c -0.0625,-0.882812 -0.136719,-2.210938 -0.21875,-3.984375 -0.08594,-1.78125 -0.167969,-3.722656 -0.25,-5.828125 -0.08594,-2.101562 -0.125,-4.046875 -0.125,-5.828125 V -59.34375 h 6.984375 z m 0,0"
           id="path58" />
      </g>
    </g>
    <g
       fill="#000000"
       fill-opacity="1"
       id="g53"
       transform="matrix(0.26458333,0,0,0.26458333,-134.46663,-19.198831)">
      <g
         id="use53"
         transform="translate(300.48047,616.23437)">
        <path
           d="M 53.453125,0 H 45.96875 V -27.6875 H 15.546875 V 0 H 8.0625 v -59.34375 h 7.484375 V -34.25 H 45.96875 v -25.09375 h 7.484375 z m 0,0"
           id="path4" />
      </g>
    </g>
    <g
       fill="#000000"
       fill-opacity="1"
       id="g54"
       transform="matrix(0.26458333,0,0,0.26458333,-134.46663,-19.198831)">
      <g
         id="use54"
         transform="translate(284.92969,199.10937)">
        <path
           d="m 55.109375,0 h -8.71875 L 14.625,-49.296875 h -0.328125 c 0.113281,1.9375 0.253906,4.351563 0.421875,7.234375 0.164062,2.886719 0.25,5.851562 0.25,8.890625 V 0 H 8.0625 v -59.34375 h 8.640625 l 31.671875,49.125 h 0.34375 c -0.0625,-0.882812 -0.136719,-2.210938 -0.21875,-3.984375 -0.08594,-1.78125 -0.167969,-3.722656 -0.25,-5.828125 -0.08594,-2.101562 -0.125,-4.046875 -0.125,-5.828125 V -59.34375 h 6.984375 z m 0,0"
           id="path59" />
      </g>
    </g>
    <g
       fill="#000000"
       fill-opacity="1"
       id="g55"
       transform="matrix(0.26458333,0,0,0.26458333,-134.46663,-19.198831)">
      <g
         id="use55"
         transform="translate(1152.6055,815.01172)">
        <path
           d="m 59.84375,-29.765625 c 0,6.15625 -1.042969,11.523437 -3.125,16.09375 -2.074219,4.574219 -5.132812,8.136719 -9.171875,10.6875 -4.042969,2.542969 -9.058594,3.8125 -15.046875,3.8125 -6.148438,0 -11.257812,-1.269531 -15.328125,-3.8125 C 13.097656,-5.535156 10.0625,-9.109375 8.0625,-13.703125 6.070312,-18.304688 5.078125,-23.6875 5.078125,-29.84375 c 0,-6.09375 0.992187,-11.410156 2.984375,-15.953125 2,-4.550781 5.035156,-8.097656 9.109375,-10.640625 4.070313,-2.550781 9.207031,-3.828125 15.40625,-3.828125 5.9375,0 10.925781,1.261719 14.96875,3.78125 4.039063,2.523437 7.097656,6.070313 9.171875,10.640625 2.082031,4.574219 3.125,9.933594 3.125,16.078125 z m -46.875,0 c 0,7.492187 1.578125,13.382813 4.734375,17.671875 3.15625,4.292969 8.085937,6.4375 14.796875,6.4375 6.757812,0 11.691406,-2.144531 14.796875,-6.4375 3.101563,-4.289062 4.65625,-10.179688 4.65625,-17.671875 0,-7.476563 -1.554687,-13.335937 -4.65625,-17.578125 -3.105469,-4.238281 -8.011719,-6.359375 -14.71875,-6.359375 -6.699219,0 -11.640625,2.121094 -14.828125,6.359375 -3.1875,4.242188 -4.78125,10.101562 -4.78125,17.578125 z m 0,0"
           id="path62" />
      </g>
    </g>
    <g
       fill="#000000"
       fill-opacity="1"
       id="g56"
       transform="matrix(0.26458333,0,0,0.26458333,-134.46663,-19.198831)">
      <g
         id="use56"
         transform="translate(1267.3477,616.27734)">
        <path
           d="m 59.84375,-29.765625 c 0,6.15625 -1.042969,11.523437 -3.125,16.09375 -2.074219,4.574219 -5.132812,8.136719 -9.171875,10.6875 -4.042969,2.542969 -9.058594,3.8125 -15.046875,3.8125 -6.148438,0 -11.257812,-1.269531 -15.328125,-3.8125 C 13.097656,-5.535156 10.0625,-9.109375 8.0625,-13.703125 6.070312,-18.304688 5.078125,-23.6875 5.078125,-29.84375 c 0,-6.09375 0.992187,-11.410156 2.984375,-15.953125 2,-4.550781 5.035156,-8.097656 9.109375,-10.640625 4.070313,-2.550781 9.207031,-3.828125 15.40625,-3.828125 5.9375,0 10.925781,1.261719 14.96875,3.78125 4.039063,2.523437 7.097656,6.070313 9.171875,10.640625 2.082031,4.574219 3.125,9.933594 3.125,16.078125 z m -46.875,0 c 0,7.492187 1.578125,13.382813 4.734375,17.671875 3.15625,4.292969 8.085937,6.4375 14.796875,6.4375 6.757812,0 11.691406,-2.144531 14.796875,-6.4375 3.101563,-4.289062 4.65625,-10.179688 4.65625,-17.671875 0,-7.476563 -1.554687,-13.335937 -4.65625,-17.578125 -3.105469,-4.238281 -8.011719,-6.359375 -14.71875,-6.359375 -6.699219,0 -11.640625,2.121094 -14.828125,6.359375 -3.1875,4.242188 -4.78125,10.101562 -4.78125,17.578125 z m 0,0"
           id="path63" />
      </g>
    </g>
    <g
       fill="#000000"
       fill-opacity="1"
       id="g57"
       transform="matrix(0.26458333,0,0,0.26458333,-134.46663,-19.198831)">
      <g
         id="use57"
         transform="translate(1323.5664,615.36328)">
        <path
           d="M 53.453125,0 H 45.96875 V -27.6875 H 15.546875 V 0 H 8.0625 v -59.34375 h 7.484375 V -34.25 H 45.96875 v -25.09375 h 7.484375 z m 0,0"
           id="path48" />
      </g>
    </g>
  </g>
</svg>
