<?xml version="1.0" encoding="iso-8859-1"?>
<!-- Generator: Adobe Illustrator 19.1.0, SVG Export Plug-In . SVG Version: 6.00 Build 0)  -->
<svg version="1.1" id="&#x421;&#x43B;&#x43E;&#x439;_1"
	 xmlns="http://www.w3.org/2000/svg" xmlns:xlink="http://www.w3.org/1999/xlink" x="0px" y="0px" viewBox="0 0 366.265 518.372"
	 style="enable-background:new 0 0 366.265 518.372;" xml:space="preserve" width="366.265" height="518.372">
<g>
	<rect x="123.808" y="152.138" width="2" height="45.628"/>
	<rect x="183.081" y="186.359" transform="matrix(-0.4996 -0.8663 0.8663 -0.4996 94.8414 473.1343)" width="2" height="45.628"/>
	<rect x="161.267" y="139.731" transform="matrix(-0.866 -0.5 0.5 -0.866 273.1339 354.6478)" width="45.628" height="2"/>
	<rect x="262.346" y="223.478" transform="matrix(-0.9749 0.2225 -0.2225 -0.9749 601.318 381.206)" width="33.675" height="2"/>
	<rect x="327.117" y="193.672" transform="matrix(-0.9007 -0.4345 0.4345 -0.9007 536.5563 523.5205)" width="2" height="13.519"/>
	<rect x="313.954" y="131.509" transform="matrix(0.9007 -0.4345 0.4345 0.9007 -32.1688 151.3524)" width="2" height="29.053"/>
	<rect x="194.081" y="320.37" transform="matrix(-0.975 -0.2222 0.2222 -0.975 309.0443 721.1309)" width="2" height="45.628"/>
	<rect x="244.252" y="366.922" transform="matrix(-0.2947 -0.9556 0.9556 -0.2947 -54.8844 738.9656)" width="2" height="45.628"/>
	<rect x="237.668" y="322.01" transform="matrix(-0.7331 -0.6802 0.6802 -0.7331 231.7278 736.9666)" width="45.628" height="2"/>
	<rect x="12.011" y="212.689" transform="matrix(-0.866 -0.5 0.5 -0.866 -47.3452 414.6926)" width="39.749" height="2"/>
	<rect x="29.498" y="118.744" transform="matrix(0.4996 0.8663 -0.8663 0.4996 133.9552 42.1469)" width="2" height="36.544"/>
	<path d="M276.932,390.814l0.317-1.388l12.372-54.206l0.128-0.562l-0.422-0.392l-41.801-38.786l12.549-54.98l38.053-8.685
		l-0.444-1.95l-36.716,8.38l-1.481,0.338l-1.187-0.947l0,0l-41.906-33.419l0,0l-1.187-0.947v-55.119v-1.519l44.28-35.312
		l55.217,12.603l14.994,31.136l1.801-0.869l-14.93-31.002l35.521-44.542l-1.563-1.247l-34.666,43.47l-0.855,1.073l-54.931-12.538
		l-12.549-54.98l41.801-38.786l-1.361-1.465l-42.224,39.178l-0.422,0.392l0.128,0.562l12.678,55.544l-44.009,35.096l-1.142-0.659v0
		l-46.419-26.8l-1.732-1l-0.5-0.288l-0.5,0.288l-1.732,1l-46.419,26.8v0l-1.233,0.712l-34.012-19.637l-0.999,1.732l34.011,19.636
		v1.423v53.6v1.423l-31.257,18.046l0.999,1.733l31.258-18.047l47.651,27.511l1.732,1l0.5,0.288l0.5-0.288l49.293-28.459l1.03,0.822
		l0,0l41.906,33.419l0,0l1.073,0.855l-12.549,54.98l-54.489,16.808l-0.552,0.169l-0.129,0.564l-0.445,1.95l0,0l-12.372,54.206
		l-0.128,0.562l0.422,0.392l41.801,38.786l-0.317,1.387l-7.875,34.502l1.95,0.444l8.191-35.889l53.937-16.638l27.809,25.803
		l1.361-1.465L276.932,390.814z M213.206,148.152v55.023l-48.883,28.223l-48.883-28.223v-1.423v-53.6v-1.423l1.232-0.711l0,0
		l47.651-27.511l1.232,0.712l46.419,26.8l0,0l1.232,0.711V148.152z M274.983,390.369l-1.359,0.419v0l-51.219,15.799v0l-1.359,0.419
		l-40.334-37.425l0,0l-1.043-0.968l0.317-1.387h0l11.927-52.256h0l0.316-1.386l53.938-16.638l1.042,0.967l0,0l39.292,36.457
		l1.043,0.968l-0.317,1.387L274.983,390.369z"/>
	<rect x="308.585" y="447.889" transform="matrix(-0.975 -0.2221 0.2221 -0.975 507.6213 991.9515)" width="2" height="39.089"/>
	<rect x="216.724" y="489.33" transform="matrix(-0.7331 -0.6802 0.6802 -0.7331 75.5558 1010.3135)" width="38.627" height="2"/>
	<polygon points="304.146,212.287 304.146,240.471 307.622,240.471 307.622,218.42 307.798,218.42 323.228,240.471 326.646,240.471 
		326.646,212.287 323.169,212.287 323.169,234.416 322.993,234.416 307.564,212.287 	"/>
	<polygon points="348.161,182.52 347.985,182.52 332.555,160.392 329.137,160.392 329.137,188.575 332.614,188.575 332.614,166.524 
		332.79,166.524 348.219,188.575 351.637,188.575 351.637,160.392 348.161,160.392 	"/>
	<path d="M64.557,102.557c-7.988,0-12.988,5.625-12.988,14.57c0,8.945,5,14.551,12.988,14.551c7.988,0,12.988-5.605,12.988-14.551
		C77.545,108.182,72.545,102.557,64.557,102.557z M64.557,128.436c-5.762,0-9.375-4.375-9.375-11.309
		c0-6.953,3.613-11.328,9.375-11.328c5.762,0,9.375,4.375,9.375,11.328C73.932,124.061,70.319,128.436,64.557,128.436z"/>
	<path d="M64.557,217.757c-7.988,0-12.988,5.625-12.988,14.57s5,14.551,12.988,14.551c7.988,0,12.988-5.605,12.988-14.551
		S72.545,217.757,64.557,217.757z M64.557,243.636c-5.762,0-9.375-4.375-9.375-11.309c0-6.953,3.613-11.328,9.375-11.328
		c5.762,0,9.375,4.375,9.375,11.328C73.932,239.261,70.319,243.636,64.557,243.636z"/>
	<path d="M207.971,449.494c-7.988,0-12.988,5.625-12.988,14.57c0,8.945,5,14.551,12.988,14.551c7.988,0,12.988-5.605,12.988-14.551
		C220.959,455.119,215.959,449.494,207.971,449.494z M207.971,475.372c-5.762,0-9.375-4.375-9.375-11.309
		c0-6.953,3.613-11.328,9.375-11.328c5.762,0,9.375,4.375,9.375,11.328C217.346,470.998,213.733,475.372,207.971,475.372z"/>
	<path d="M318.053,415.538c-7.988,0-12.988,5.625-12.988,14.57s5,14.551,12.988,14.551c7.988,0,12.988-5.605,12.988-14.551
		S326.041,415.538,318.053,415.538z M318.053,441.417c-5.762,0-9.375-4.375-9.375-11.309c0-6.953,3.613-11.328,9.375-11.328
		c5.762,0,9.375,4.375,9.375,11.328C327.428,437.042,323.814,441.417,318.053,441.417z"/>
</g>
</svg>
