<?xml version="1.0" encoding="iso-8859-1"?>
<!-- Generator: Adobe Illustrator 19.0.0, SVG Export Plug-In . SVG Version: 6.00 Build 0)  -->
<svg version="1.1" id="&#x421;&#x43B;&#x43E;&#x439;_1"
	 xmlns="http://www.w3.org/2000/svg" xmlns:xlink="http://www.w3.org/1999/xlink" x="0px" y="0px" viewBox="0 0 374.967 354.047"
	 style="enable-background:new 0 0 374.967 354.047;" xml:space="preserve" width="374.967" height="354.047">
<g>
	<polygon points="127.301,226.683 126.584,223.324 124.151,223.419 125.039,227.585 	"/>
	<polygon points="118.256,230.292 116.851,223.705 114.418,223.8 115.995,231.195 	"/>
	<polygon points="100.167,237.512 97.385,224.467 94.951,224.562 97.906,238.415 	"/>
	<polygon points="109.212,233.902 107.118,224.086 104.684,224.181 106.95,234.805 	"/>
	<polygon points="72.53,257.466 70.143,257.212 66.441,292.439 9.921,292.439 9.921,294.839 65.443,294.839 37.682,342.922 
		39.761,344.121 68.02,295.174 100.928,309.826 101.904,307.633 68.806,292.897 	"/>
	<polygon points="146.142,282.563 151.737,287.603 153.029,285.537 148.062,281.063 	"/>
	<polygon points="153.821,276.562 156.903,279.339 158.195,277.273 155.74,275.062 	"/>
	<polygon points="130.785,294.566 141.405,304.133 142.697,302.066 132.704,293.065 	"/>
	<polygon points="138.463,288.565 146.571,295.868 147.863,293.802 140.383,287.064 	"/>
	<polygon points="217.835,273.974 245.612,225.863 279.904,239.549 283.065,224.682 245.802,223.223 227.876,192.174 
		225.797,193.373 243.698,224.378 215.591,273.061 160.684,273.061 159.376,273.061 131.923,225.511 131.923,225.511 
		131.269,224.378 131.923,223.246 131.923,223.246 159.376,175.695 160.684,175.695 196.204,175.695 196.204,173.295 
		160.684,173.295 158.684,173.295 157.991,173.294 157.644,173.896 128.844,223.779 128.498,224.378 128.844,224.978 
		129.844,226.71 129.844,226.71 156.644,273.129 156.644,273.129 157.644,274.861 157.989,275.461 158.684,275.461 160.684,275.461 
		215.64,275.461 234.945,306.345 246.241,296.174 	"/>
	<polygon points="365.046,292.438 308.526,292.438 304.824,257.212 302.437,257.466 306.161,292.897 273.063,307.633 
		274.039,309.825 306.947,295.174 335.206,344.121 337.285,342.922 309.524,294.838 365.046,294.838 	"/>
	<polygon points="266.879,196.764 258.099,191.7 257.129,193.913 265.447,198.709 	"/>
	<polygon points="278.331,181.197 265.853,174.002 264.884,176.214 276.899,183.143 	"/>
	<polygon points="261.153,204.547 254.222,200.549 253.252,202.762 259.722,206.492 	"/>
	<polygon points="249.702,220.113 246.467,218.248 245.498,220.46 248.27,222.059 	"/>
	<polygon points="255.427,212.33 250.344,209.399 249.375,211.611 253.996,214.276 	"/>
	<polygon points="272.605,188.98 261.976,182.851 261.007,185.063 271.173,190.926 	"/>
	<rect x="246.513" y="157.493" transform="matrix(-0.5 -0.866 0.866 -0.5 259.7071 467.3282)" width="36.494" height="2.4"/>
	<rect x="252.189" y="98.21" transform="matrix(-0.5 0.866 -0.866 -0.5 475.5429 -75.7334)" width="14.889" height="2.4"/>
	<rect x="286.861" y="43.078" transform="matrix(0.8663 0.4995 -0.4995 0.8663 63.5788 -137.1888)" width="2.4" height="14.188"/>
	<rect x="243.176" y="55.066" transform="matrix(0.866 0.5 -0.5 0.866 61.9324 -118.5994)" width="18.192" height="2.4"/>
	<rect x="237.992" y="64.045" transform="matrix(0.866 0.5 -0.5 0.866 65.7279 -114.8048)" width="18.193" height="2.4"/>
	<rect x="287.162" y="92.147" transform="matrix(-0.866 -0.5 0.5 -0.866 505.2252 322.0697)" width="17.201" height="2.4"/>
	<rect x="292.346" y="83.168" transform="matrix(0.866 0.5 -0.5 0.866 82.5024 -139.1693)" width="17.201" height="2.4"/>
	<path d="M63.302,246.454c1.147,1.387,2.573,2.487,4.28,3.3c1.707,0.813,3.693,1.22,5.96,1.22c2.267,0,4.253-0.407,5.96-1.22
		c1.707-0.813,3.133-1.913,4.28-3.3c1.147-1.387,2.007-2.98,2.58-4.78s0.86-3.673,0.86-5.62c0-1.947-0.287-3.82-0.86-5.62
		c-0.573-1.8-1.433-3.393-2.58-4.78c-1.147-1.387-2.573-2.493-4.28-3.32c-1.707-0.827-3.693-1.24-5.96-1.24
		c-2.267,0-4.253,0.413-5.96,1.24c-1.707,0.827-3.133,1.933-4.28,3.32c-1.147,1.387-2.007,2.98-2.58,4.78
		c-0.573,1.8-0.86,3.673-0.86,5.62c0,1.947,0.287,3.82,0.86,5.62S62.155,245.067,63.302,246.454z M64.222,231.794
		c0.373-1.4,0.96-2.66,1.76-3.78s1.827-2.02,3.08-2.7c1.253-0.68,2.747-1.02,4.48-1.02c1.733,0,3.227,0.34,4.48,1.02
		c1.253,0.68,2.28,1.58,3.08,2.7s1.387,2.38,1.76,3.78c0.373,1.4,0.56,2.82,0.56,4.26c0,1.44-0.187,2.86-0.56,4.26
		c-0.373,1.4-0.96,2.66-1.76,3.78c-0.8,1.12-1.827,2.02-3.08,2.7c-1.253,0.68-2.747,1.02-4.48,1.02c-1.733,0-3.227-0.34-4.48-1.02
		c-1.253-0.68-2.28-1.58-3.08-2.7c-0.8-1.12-1.387-2.38-1.76-3.78c-0.373-1.4-0.56-2.82-0.56-4.26
		C63.662,234.614,63.849,233.194,64.222,231.794z"/>
	<path d="M206.043,184.595c1.147,1.387,2.573,2.487,4.28,3.3c1.707,0.813,3.693,1.22,5.96,1.22s4.253-0.407,5.96-1.22
		c1.707-0.813,3.133-1.913,4.28-3.3c1.147-1.387,2.007-2.98,2.58-4.78c0.573-1.8,0.86-3.673,0.86-5.62c0-1.947-0.287-3.82-0.86-5.62
		c-0.573-1.8-1.433-3.393-2.58-4.78c-1.147-1.387-2.573-2.493-4.28-3.32c-1.707-0.827-3.693-1.24-5.96-1.24s-4.253,0.413-5.96,1.24
		c-1.707,0.827-3.133,1.933-4.28,3.32c-1.147,1.387-2.007,2.98-2.58,4.78c-0.573,1.8-0.86,3.673-0.86,5.62
		c0,1.947,0.287,3.82,0.86,5.62C204.037,181.615,204.897,183.209,206.043,184.595z M206.963,169.935c0.373-1.4,0.96-2.66,1.76-3.78
		s1.827-2.02,3.08-2.7c1.253-0.68,2.747-1.02,4.48-1.02s3.227,0.34,4.48,1.02c1.253,0.68,2.28,1.58,3.08,2.7s1.387,2.38,1.76,3.78
		c0.373,1.4,0.56,2.82,0.56,4.26c0,1.44-0.187,2.86-0.56,4.26c-0.373,1.4-0.96,2.66-1.76,3.78c-0.8,1.12-1.827,2.02-3.08,2.7
		c-1.253,0.68-2.747,1.02-4.48,1.02s-3.227-0.34-4.48-1.02c-1.253-0.68-2.28-1.58-3.08-2.7c-0.8-1.12-1.387-2.38-1.76-3.78
		c-0.373-1.4-0.56-2.82-0.56-4.26C206.404,172.755,206.59,171.335,206.963,169.935z"/>
	<path d="M130.382,306.366c-1.147-1.386-2.573-2.493-4.28-3.32c-1.707-0.827-3.693-1.24-5.96-1.24c-2.267,0-4.253,0.413-5.96,1.24
		c-1.707,0.827-3.133,1.933-4.28,3.32c-1.147,1.387-2.007,2.98-2.58,4.78c-0.573,1.8-0.86,3.673-0.86,5.62s0.287,3.82,0.86,5.62
		c0.573,1.8,1.433,3.393,2.58,4.78c1.147,1.387,2.573,2.487,4.28,3.3s3.693,1.22,5.96,1.22c2.267,0,4.253-0.407,5.96-1.22
		c1.707-0.813,3.133-1.913,4.28-3.3c1.147-1.387,2.007-2.98,2.58-4.78c0.573-1.8,0.86-3.673,0.86-5.62s-0.287-3.82-0.86-5.62
		C132.388,309.346,131.528,307.753,130.382,306.366z M129.462,321.027c-0.373,1.4-0.96,2.66-1.76,3.78
		c-0.8,1.12-1.827,2.02-3.08,2.7c-1.253,0.68-2.747,1.02-4.48,1.02c-1.733,0-3.227-0.34-4.48-1.02c-1.253-0.68-2.28-1.58-3.08-2.7
		c-0.8-1.12-1.387-2.38-1.76-3.78s-0.56-2.82-0.56-4.26c0-1.44,0.187-2.86,0.56-4.26c0.373-1.4,0.96-2.66,1.76-3.78
		s1.827-2.02,3.08-2.7c1.253-0.68,2.747-1.02,4.48-1.02c1.733,0,3.227,0.34,4.48,1.02c1.253,0.68,2.28,1.58,3.08,2.7
		c0.8,1.12,1.387,2.38,1.76,3.78c0.373,1.4,0.56,2.82,0.56,4.26C130.022,318.206,129.835,319.627,129.462,321.027z"/>
	<path d="M265.065,306.366c-1.147-1.386-2.573-2.493-4.28-3.32s-3.693-1.24-5.96-1.24c-2.267,0-4.253,0.413-5.96,1.24
		c-1.707,0.827-3.133,1.933-4.28,3.32c-1.147,1.387-2.007,2.98-2.58,4.78c-0.573,1.8-0.86,3.673-0.86,5.62s0.287,3.82,0.86,5.62
		c0.573,1.8,1.433,3.393,2.58,4.78c1.147,1.387,2.573,2.487,4.28,3.3c1.707,0.813,3.693,1.22,5.96,1.22
		c2.267,0,4.253-0.407,5.96-1.22s3.133-1.913,4.28-3.3c1.147-1.387,2.007-2.98,2.58-4.78c0.573-1.8,0.86-3.673,0.86-5.62
		s-0.287-3.82-0.86-5.62C267.072,309.346,266.212,307.753,265.065,306.366z M264.145,321.026c-0.373,1.4-0.96,2.66-1.76,3.78
		c-0.8,1.12-1.827,2.02-3.08,2.7c-1.253,0.68-2.747,1.02-4.48,1.02c-1.733,0-3.227-0.34-4.48-1.02c-1.253-0.68-2.28-1.58-3.08-2.7
		c-0.8-1.12-1.387-2.38-1.76-3.78s-0.56-2.82-0.56-4.26c0-1.44,0.187-2.86,0.56-4.26c0.373-1.4,0.96-2.66,1.76-3.78
		c0.8-1.12,1.827-2.02,3.08-2.7c1.253-0.68,2.747-1.02,4.48-1.02c1.733,0,3.227,0.34,4.48,1.02c1.253,0.68,2.28,1.58,3.08,2.7
		c0.8,1.12,1.387,2.38,1.76,3.78c0.373,1.4,0.56,2.82,0.56,4.26C264.705,318.206,264.519,319.626,264.145,321.026z"/>
	<path d="M291.185,246.454c1.147,1.387,2.573,2.487,4.28,3.3c1.707,0.813,3.693,1.22,5.96,1.22c2.267,0,4.253-0.407,5.96-1.22
		c1.707-0.813,3.133-1.913,4.28-3.3c1.147-1.387,2.007-2.98,2.58-4.78c0.573-1.8,0.86-3.673,0.86-5.62c0-1.947-0.287-3.82-0.86-5.62
		c-0.573-1.8-1.433-3.393-2.58-4.78c-1.147-1.387-2.573-2.493-4.28-3.32c-1.707-0.827-3.693-1.24-5.96-1.24
		c-2.267,0-4.253,0.413-5.96,1.24c-1.707,0.827-3.133,1.933-4.28,3.32c-1.147,1.387-2.007,2.98-2.58,4.78
		c-0.573,1.8-0.86,3.673-0.86,5.62c0,1.947,0.287,3.82,0.86,5.62C289.178,243.474,290.038,245.067,291.185,246.454z
		 M292.105,231.794c0.373-1.4,0.96-2.66,1.76-3.78c0.8-1.12,1.827-2.02,3.08-2.7c1.253-0.68,2.747-1.02,4.48-1.02
		c1.733,0,3.227,0.34,4.48,1.02c1.253,0.68,2.28,1.58,3.08,2.7s1.387,2.38,1.76,3.78s0.56,2.82,0.56,4.26
		c0,1.44-0.187,2.86-0.56,4.26c-0.373,1.4-0.96,2.66-1.76,3.78c-0.8,1.12-1.827,2.02-3.08,2.7c-1.253,0.68-2.747,1.02-4.48,1.02
		c-1.733,0-3.227-0.34-4.48-1.02c-1.253-0.68-2.28-1.58-3.08-2.7c-0.8-1.12-1.387-2.38-1.76-3.78c-0.373-1.4-0.56-2.82-0.56-4.26
		C291.545,234.614,291.731,233.194,292.105,231.794z"/>
	<path d="M255.323,113.912c-1.147-1.387-2.573-2.493-4.28-3.32c-1.707-0.827-3.693-1.24-5.96-1.24c-2.267,0-4.253,0.413-5.96,1.24
		c-1.707,0.827-3.133,1.933-4.28,3.32s-2.007,2.98-2.58,4.78c-0.573,1.8-0.86,3.673-0.86,5.62s0.287,3.82,0.86,5.62
		s1.433,3.393,2.58,4.78c1.147,1.387,2.573,2.487,4.28,3.3c1.707,0.813,3.693,1.22,5.96,1.22c2.267,0,4.253-0.407,5.96-1.22
		c1.707-0.813,3.133-1.913,4.28-3.3c1.147-1.387,2.007-2.98,2.58-4.78c0.573-1.8,0.86-3.673,0.86-5.62s-0.287-3.82-0.86-5.62
		C257.33,116.892,256.47,115.299,255.323,113.912z M254.403,128.572c-0.373,1.4-0.96,2.66-1.76,3.78c-0.8,1.12-1.827,2.02-3.08,2.7
		c-1.253,0.68-2.747,1.02-4.48,1.02c-1.733,0-3.227-0.34-4.48-1.02c-1.253-0.68-2.28-1.58-3.08-2.7c-0.8-1.12-1.387-2.38-1.76-3.78
		c-0.373-1.4-0.56-2.82-0.56-4.26c0-1.44,0.187-2.86,0.56-4.26c0.373-1.4,0.96-2.66,1.76-3.78c0.8-1.12,1.827-2.02,3.08-2.7
		c1.253-0.68,2.747-1.02,4.48-1.02c1.733,0,3.227,0.34,4.48,1.02c1.253,0.68,2.28,1.58,3.08,2.7c0.8,1.12,1.387,2.38,1.76,3.78
		c0.373,1.4,0.56,2.82,0.56,4.26C254.963,125.752,254.777,127.172,254.403,128.572z"/>
	<path d="M279.243,85.129c-0.693,0.387-1.473,0.66-2.34,0.82c-0.867,0.16-1.727,0.24-2.58,0.24c-1.067,0-2.107-0.133-3.12-0.4
		c-1.013-0.267-1.9-0.68-2.66-1.24c-0.76-0.56-1.373-1.273-1.84-2.14c-0.467-0.867-0.7-1.9-0.7-3.1h-3.6
		c0,1.733,0.313,3.233,0.94,4.5c0.627,1.267,1.48,2.307,2.56,3.12c1.08,0.813,2.333,1.42,3.76,1.82c1.427,0.4,2.94,0.6,4.54,0.6
		c1.307,0,2.62-0.153,3.94-0.46c1.32-0.307,2.513-0.8,3.58-1.48s1.94-1.56,2.62-2.64c0.68-1.08,1.02-2.38,1.02-3.9
		c0-1.413-0.26-2.587-0.78-3.52c-0.52-0.933-1.213-1.707-2.08-2.32c-0.867-0.613-1.847-1.1-2.94-1.46
		c-1.093-0.36-2.207-0.673-3.34-0.94c-1.133-0.267-2.247-0.513-3.34-0.74c-1.093-0.227-2.073-0.513-2.94-0.86
		c-0.867-0.347-1.56-0.793-2.08-1.34c-0.52-0.547-0.78-1.26-0.78-2.14c0-0.933,0.18-1.713,0.54-2.34c0.36-0.627,0.84-1.127,1.44-1.5
		c0.6-0.373,1.287-0.64,2.06-0.8c0.773-0.16,1.56-0.24,2.36-0.24c1.973,0,3.593,0.46,4.86,1.38c1.267,0.92,2.007,2.407,2.22,4.46
		h3.6c-0.053-1.573-0.353-2.927-0.9-4.06c-0.547-1.133-1.293-2.073-2.24-2.82c-0.947-0.747-2.047-1.293-3.3-1.64
		c-1.253-0.347-2.613-0.52-4.08-0.52c-1.307,0-2.58,0.167-3.82,0.5c-1.24,0.333-2.347,0.84-3.32,1.52
		c-0.973,0.68-1.753,1.547-2.34,2.6c-0.587,1.053-0.88,2.3-0.88,3.74c0,1.307,0.26,2.393,0.78,3.26
		c0.52,0.867,1.213,1.573,2.08,2.12c0.867,0.547,1.847,0.987,2.94,1.32c1.093,0.333,2.207,0.627,3.34,0.88
		c1.133,0.253,2.247,0.5,3.34,0.74s2.073,0.553,2.94,0.94c0.867,0.387,1.56,0.887,2.08,1.5c0.52,0.613,0.78,1.413,0.78,2.4
		c0,1.04-0.213,1.893-0.64,2.56C280.497,84.216,279.937,84.742,279.243,85.129z"/>
	<path d="M310.946,97.609c-0.573,1.8-0.86,3.673-0.86,5.62c0,1.947,0.287,3.82,0.86,5.62c0.573,1.8,1.433,3.393,2.58,4.78
		c1.147,1.387,2.573,2.487,4.28,3.3c1.707,0.813,3.693,1.22,5.96,1.22s4.253-0.407,5.96-1.22c1.707-0.813,3.133-1.913,4.28-3.3
		c1.147-1.387,2.007-2.98,2.58-4.78c0.573-1.8,0.86-3.673,0.86-5.62c0-1.947-0.287-3.82-0.86-5.62c-0.573-1.8-1.433-3.393-2.58-4.78
		c-1.147-1.387-2.573-2.493-4.28-3.32c-1.707-0.827-3.693-1.24-5.96-1.24s-4.253,0.413-5.96,1.24
		c-1.707,0.827-3.133,1.933-4.28,3.32C312.38,94.216,311.52,95.809,310.946,97.609z M314.446,98.969c0.373-1.4,0.96-2.66,1.76-3.78
		c0.8-1.12,1.827-2.02,3.08-2.7c1.253-0.68,2.747-1.02,4.48-1.02s3.227,0.34,4.48,1.02c1.253,0.68,2.28,1.58,3.08,2.7
		s1.387,2.38,1.76,3.78c0.373,1.4,0.56,2.82,0.56,4.26c0,1.44-0.187,2.86-0.56,4.26c-0.373,1.4-0.96,2.66-1.76,3.78
		c-0.8,1.12-1.827,2.02-3.08,2.7c-1.253,0.68-2.747,1.02-4.48,1.02s-3.227-0.34-4.48-1.02c-1.253-0.68-2.28-1.58-3.08-2.7
		c-0.8-1.12-1.387-2.38-1.76-3.78c-0.373-1.4-0.56-2.82-0.56-4.26C313.886,101.789,314.073,100.369,314.446,98.969z"/>
	<polygon points="294.904,15.566 294.983,15.566 309.904,38.486 314.064,38.486 314.064,9.926 310.463,9.926 310.463,33.086 
		310.384,33.086 295.343,9.926 291.303,9.926 291.303,38.486 294.904,38.486 	"/>
	<polygon points="321.863,25.406 336.903,25.406 336.903,38.486 340.703,38.486 340.703,9.926 336.903,9.926 336.903,22.206 
		321.863,22.206 321.863,9.926 318.063,9.926 318.063,38.486 321.863,38.486 	"/>
	<path d="M354.069,34.061c-0.42,0.448-0.947,0.891-1.582,1.33c-0.635,0.439-1.372,0.919-2.212,1.442
		c-0.691,0.411-1.353,0.849-1.988,1.316c-0.635,0.467-1.204,1.008-1.708,1.624c-0.504,0.616-0.919,1.339-1.246,2.17
		c-0.327,0.831-0.537,1.834-0.63,3.01h12.964v-2.1h-10.192c0.112-0.616,0.35-1.162,0.714-1.638c0.364-0.476,0.803-0.919,1.316-1.33
		c0.513-0.411,1.078-0.798,1.694-1.162c0.616-0.364,1.232-0.733,1.848-1.106c0.616-0.392,1.213-0.803,1.792-1.232
		c0.579-0.429,1.092-0.91,1.54-1.442c0.448-0.532,0.807-1.134,1.078-1.806c0.271-0.672,0.406-1.447,0.406-2.324
		c0-0.933-0.163-1.755-0.49-2.464c-0.327-0.709-0.77-1.302-1.33-1.778c-0.56-0.476-1.218-0.84-1.974-1.092
		c-0.756-0.252-1.563-0.378-2.422-0.378c-1.045,0-1.979,0.177-2.8,0.532c-0.821,0.355-1.507,0.845-2.058,1.47
		c-0.551,0.625-0.957,1.367-1.218,2.226c-0.261,0.859-0.364,1.792-0.308,2.8h2.38c-0.019-0.597,0.042-1.19,0.182-1.778
		c0.14-0.588,0.369-1.115,0.686-1.582c0.317-0.467,0.723-0.845,1.218-1.134c0.495-0.289,1.087-0.434,1.778-0.434
		c0.523,0,1.017,0.084,1.484,0.252c0.467,0.168,0.873,0.411,1.218,0.728c0.345,0.317,0.621,0.695,0.826,1.134
		c0.205,0.439,0.308,0.929,0.308,1.47c0,0.691-0.107,1.297-0.322,1.82C354.807,33.128,354.489,33.613,354.069,34.061z"/>
	<path d="M213.76,56.029c1.147,1.387,2.573,2.487,4.28,3.3c1.707,0.813,3.693,1.22,5.96,1.22s4.253-0.407,5.96-1.22
		c1.707-0.813,3.133-1.913,4.28-3.3c1.147-1.387,2.007-2.98,2.58-4.78c0.573-1.8,0.86-3.673,0.86-5.62c0-1.947-0.287-3.82-0.86-5.62
		c-0.573-1.8-1.433-3.393-2.58-4.78c-1.147-1.387-2.573-2.493-4.28-3.32c-1.707-0.827-3.693-1.24-5.96-1.24s-4.253,0.413-5.96,1.24
		c-1.707,0.827-3.133,1.933-4.28,3.32c-1.147,1.387-2.007,2.98-2.58,4.78c-0.573,1.8-0.86,3.673-0.86,5.62
		c0,1.947,0.287,3.82,0.86,5.62C211.754,53.049,212.614,54.642,213.76,56.029z M214.68,41.369c0.373-1.4,0.96-2.66,1.76-3.78
		s1.827-2.02,3.08-2.7c1.253-0.68,2.747-1.02,4.48-1.02s3.227,0.34,4.48,1.02c1.253,0.68,2.28,1.58,3.08,2.7s1.387,2.38,1.76,3.78
		c0.373,1.4,0.56,2.82,0.56,4.26c0,1.44-0.187,2.86-0.56,4.26c-0.373,1.4-0.96,2.66-1.76,3.78c-0.8,1.12-1.827,2.02-3.08,2.7
		c-1.253,0.68-2.747,1.02-4.48,1.02s-3.227-0.34-4.48-1.02c-1.253-0.68-2.28-1.58-3.08-2.7c-0.8-1.12-1.387-2.38-1.76-3.78
		c-0.373-1.4-0.56-2.82-0.56-4.26C214.12,44.189,214.307,42.769,214.68,41.369z"/>
</g>
</svg>
