<?xml version="1.0" encoding="UTF-8" standalone="no"?>
<!-- Created with Inkscape (http://www.inkscape.org/) -->

<svg
   width="388.7756mm"
   height="102.00085mm"
   viewBox="0 0 388.77561 102.00086"
   version="1.1"
   id="svg1"
   inkscape:version="1.4 (86a8ad7, 2024-10-11)"
   sodipodi:docname="Tranylcypromine_stereoisomers_labelled.svg"
   xmlns:inkscape="http://www.inkscape.org/namespaces/inkscape"
   xmlns:sodipodi="http://sodipodi.sourceforge.net/DTD/sodipodi-0.dtd"
   xmlns="http://www.w3.org/2000/svg"
   xmlns:svg="http://www.w3.org/2000/svg">
  <sodipodi:namedview
     id="namedview1"
     pagecolor="#ffffff"
     bordercolor="#000000"
     borderopacity="0.25"
     inkscape:showpageshadow="2"
     inkscape:pageopacity="0.0"
     inkscape:pagecheckerboard="0"
     inkscape:deskcolor="#d1d1d1"
     inkscape:document-units="mm"
     inkscape:zoom="0.50835204"
     inkscape:cx="1044.5517"
     inkscape:cy="102.29132"
     inkscape:window-width="1150"
     inkscape:window-height="1000"
     inkscape:window-x="-7"
     inkscape:window-y="0"
     inkscape:window-maximized="0"
     inkscape:current-layer="layer1" />
  <defs
     id="defs1" />
  <g
     inkscape:label="Layer 1"
     inkscape:groupmode="layer"
     id="layer1"
     transform="translate(114.82917,-72.495829)">
    <path
       fill="none"
       stroke-width="1.31961"
       stroke-linecap="butt"
       stroke-linejoin="miter"
       stroke="#000000"
       stroke-opacity="1"
       stroke-miterlimit="10"
       d="m -83.3101,103.14421 -31.18984,17.95861"
       id="path15" />
    <path
       fill="none"
       stroke-width="1.31961"
       stroke-linecap="butt"
       stroke-linejoin="miter"
       stroke="#000000"
       stroke-opacity="1"
       stroke-miterlimit="10"
       d="m -83.315273,108.83278 -26.254737,15.11741"
       id="path16" />
    <path
       fill="none"
       stroke-width="1.31961"
       stroke-linecap="butt"
       stroke-linejoin="miter"
       stroke="#000000"
       stroke-opacity="1"
       stroke-miterlimit="10"
       d="m -114.16921,120.53127 0.0351,36.07119"
       id="path17" />
    <path
       fill="none"
       stroke-width="1.31961"
       stroke-linecap="butt"
       stroke-linejoin="miter"
       stroke="#000000"
       stroke-opacity="1"
       stroke-miterlimit="10"
       d="m -114.46583,156.03091 31.222907,17.89246"
       id="path18" />
    <path
       fill="none"
       stroke-width="1.31961"
       stroke-linecap="butt"
       stroke-linejoin="miter"
       stroke="#000000"
       stroke-opacity="1"
       stroke-miterlimit="10"
       d="m -109.5421,153.17426 26.279541,15.06057"
       id="path19" />
    <path
       fill="none"
       stroke-width="1.31961"
       stroke-linecap="butt"
       stroke-linejoin="miter"
       stroke="#000000"
       stroke-opacity="1"
       stroke-miterlimit="10"
       d="m -83.903361,173.92647 30.971759,-18.03301"
       id="path20" />
    <path
       fill="none"
       stroke-width="1.31961"
       stroke-linecap="butt"
       stroke-linejoin="miter"
       stroke="#000000"
       stroke-opacity="1"
       stroke-miterlimit="10"
       d="m -53.259217,156.46395 -0.02171,-35.95333"
       id="path21" />
    <path
       fill="none"
       stroke-width="1.31961"
       stroke-linecap="butt"
       stroke-linejoin="miter"
       stroke="#000000"
       stroke-opacity="1"
       stroke-miterlimit="10"
       d="m -58.187096,153.63211 -0.01862,-30.27828"
       id="path22" />
    <path
       fill="none"
       stroke-width="1.31961"
       stroke-linecap="butt"
       stroke-linejoin="miter"
       stroke="#000000"
       stroke-opacity="1"
       stroke-miterlimit="10"
       d="m -52.951238,121.08111 -31.018245,-17.9369"
       id="path23" />
    <path
       fill="none"
       stroke-width="1.31961"
       stroke-linecap="butt"
       stroke-linejoin="miter"
       stroke="#000000"
       stroke-opacity="1"
       stroke-miterlimit="10"
       d="m -22.75671,103.27859 35.225758,-0.0393"
       id="path24" />
    <path
       fill="none"
       stroke-width="1.31961"
       stroke-linecap="butt"
       stroke-linejoin="miter"
       stroke="#000000"
       stroke-opacity="1"
       stroke-miterlimit="10"
       d="M 12.469048,103.23929 -5.1577664,72.82669"
       id="path25" />
    <path
       fill="none"
       stroke-width="1.31961"
       stroke-linecap="butt"
       stroke-linejoin="miter"
       stroke="#000000"
       stroke-opacity="1"
       stroke-miterlimit="10"
       d="M -5.1577664,72.82669 -22.75671,103.27859"
       id="path26" />
    <path
       fill-rule="nonzero"
       fill="#000000"
       fill-opacity="1"
       d="m 12.140394,103.81188 16.987076,14.07046 4.382161,-7.62848 -20.711914,-7.58713"
       id="path27"
       style="stroke-width:0.264583" />
    <path
       fill="none"
       stroke-width="1.31961"
       stroke-linecap="butt"
       stroke-linejoin="miter"
       stroke="#000000"
       stroke-opacity="1"
       stroke-miterlimit="10"
       d="m -26.28517,104.12607 1.029401,1.78284 m -4.227149,-0.36379 1.397344,2.42259 m -4.596112,-1.00255 1.766306,3.06132 m -4.965074,-1.64226 2.135269,3.70106 m -5.334037,-2.28204 2.505287,4.34081 m -5.704056,-2.92074 2.87425,4.97954 m -6.071997,-3.56052 3.242192,5.62034 m -6.440961,-4.20128 3.612176,6.26008 m -6.810944,-4.84001 3.981173,6.89878 m -7.179941,-5.47976 4.350136,7.53856"
       id="path28" />
    <path
       fill="none"
       stroke-width="1.31961"
       stroke-linecap="butt"
       stroke-linejoin="miter"
       stroke="#000000"
       stroke-opacity="1"
       stroke-miterlimit="10"
       d="m 242.42737,103.14422 31.18983,17.95861"
       id="path29" />
    <path
       fill="none"
       stroke-width="1.31961"
       stroke-linecap="butt"
       stroke-linejoin="miter"
       stroke="#000000"
       stroke-opacity="1"
       stroke-miterlimit="10"
       d="m 242.43255,108.83279 26.25473,15.11741"
       id="path30" />
    <path
       fill="none"
       stroke-width="1.31961"
       stroke-linecap="butt"
       stroke-linejoin="miter"
       stroke="#000000"
       stroke-opacity="1"
       stroke-miterlimit="10"
       d="m 273.28649,120.53128 -0.0351,36.07119"
       id="path31" />
    <path
       fill="none"
       stroke-width="1.31961"
       stroke-linecap="butt"
       stroke-linejoin="miter"
       stroke="#000000"
       stroke-opacity="1"
       stroke-miterlimit="10"
       d="m 273.5831,156.03092 -31.2229,17.89246"
       id="path32" />
    <path
       fill="none"
       stroke-width="1.31961"
       stroke-linecap="butt"
       stroke-linejoin="miter"
       stroke="#000000"
       stroke-opacity="1"
       stroke-miterlimit="10"
       d="m 268.65938,153.17427 -26.27955,15.06057"
       id="path33" />
    <path
       fill="none"
       stroke-width="1.31961"
       stroke-linecap="butt"
       stroke-linejoin="miter"
       stroke="#000000"
       stroke-opacity="1"
       stroke-miterlimit="10"
       d="M 243.02064,173.92648 212.04785,155.89347"
       id="path34" />
    <path
       fill="none"
       stroke-width="1.31961"
       stroke-linecap="butt"
       stroke-linejoin="miter"
       stroke="#000000"
       stroke-opacity="1"
       stroke-miterlimit="10"
       d="m 212.37649,156.46396 0.0217,-35.95333"
       id="path35" />
    <path
       fill="none"
       stroke-width="1.31961"
       stroke-linecap="butt"
       stroke-linejoin="miter"
       stroke="#000000"
       stroke-opacity="1"
       stroke-miterlimit="10"
       d="m 217.30437,153.63212 0.0186,-30.27828"
       id="path36" />
    <path
       fill="none"
       stroke-width="1.31961"
       stroke-linecap="butt"
       stroke-linejoin="miter"
       stroke="#000000"
       stroke-opacity="1"
       stroke-miterlimit="10"
       d="m 212.06851,121.08112 31.01828,-17.9369"
       id="path37" />
    <path
       fill="none"
       stroke-width="1.31961"
       stroke-linecap="butt"
       stroke-linejoin="miter"
       stroke="#000000"
       stroke-opacity="1"
       stroke-miterlimit="10"
       d="m 181.87398,103.2786 -35.22681,-0.0393"
       id="path38" />
    <path
       fill="none"
       stroke-width="1.31961"
       stroke-linecap="butt"
       stroke-linejoin="miter"
       stroke="#000000"
       stroke-opacity="1"
       stroke-miterlimit="10"
       d="M 146.64717,103.2393 164.27504,72.826704"
       id="path39" />
    <path
       fill="none"
       stroke-width="1.31961"
       stroke-linecap="butt"
       stroke-linejoin="miter"
       stroke="#000000"
       stroke-opacity="1"
       stroke-miterlimit="10"
       d="M 164.27504,72.826704 181.87398,103.2786"
       id="path40" />
    <path
       fill-rule="nonzero"
       fill="#000000"
       fill-opacity="1"
       d="m 146.31851,102.66777 -20.71087,7.5861 4.38216,7.62848 16.98604,-14.07046"
       id="path41"
       style="stroke-width:0.264583" />
    <path
       fill="none"
       stroke-width="1.31961"
       stroke-linecap="butt"
       stroke-linejoin="miter"
       stroke="#000000"
       stroke-opacity="1"
       stroke-miterlimit="10"
       d="m 184.37304,105.90892 1.0294,-1.78284 m 1.80041,3.84164 1.39734,-2.42259 m 1.43246,4.48136 1.76631,-3.06132 m 1.06244,5.12012 2.13633,-3.70106 m 0.69348,5.75983 2.50529,-4.34081 m 0.32444,6.39961 2.87323,-4.97954 m -0.0434,7.03936 3.24219,-5.62034 m -0.41341,7.67914 3.61218,-6.26008 m -0.7824,8.31885 3.98117,-6.89878 m -1.15137,8.95758 4.35014,-7.53856"
       id="path42" />
    <g
       fill="#000000"
       fill-opacity="1"
       id="g42"
       transform="matrix(0.26458333,0,0,0.26458333,-115.45285,37.640209)">
      <g
         id="use42"
         transform="translate(567.23828,343.87109)">
        <path
           d="m 55.109375,0 h -8.71875 L 14.625,-49.296875 h -0.328125 c 0.113281,1.9375 0.253906,4.351563 0.421875,7.234375 0.164062,2.886719 0.25,5.851562 0.25,8.890625 V 0 H 8.0625 v -59.34375 h 8.640625 l 31.671875,49.125 h 0.34375 c -0.0625,-0.882812 -0.136719,-2.210938 -0.21875,-3.984375 -0.08594,-1.78125 -0.167969,-3.722656 -0.25,-5.828125 -0.08594,-2.101562 -0.125,-4.046875 -0.125,-5.828125 V -59.34375 h 6.984375 z m 0,0"
           id="path4" />
      </g>
    </g>
    <g
       fill="#000000"
       fill-opacity="1"
       id="g43"
       transform="matrix(0.26458333,0,0,0.26458333,-115.45285,37.640209)">
      <g
         id="use43"
         transform="translate(618.71875,343.87109)">
        <path
           d="M 53.453125,0 H 45.96875 V -27.6875 H 15.546875 V 0 H 8.0625 v -59.34375 h 7.484375 V -34.25 H 45.96875 v -25.09375 h 7.484375 z m 0,0"
           id="path1" />
      </g>
    </g>
    <g
       fill="#000000"
       fill-opacity="1"
       id="g44"
       transform="matrix(0.26458333,0,0,0.26458333,-115.45285,37.640209)">
      <g
         id="use44"
         transform="translate(672.61328,368.44141)">
        <path
           d="M 43.21875,0 H 3.984375 V -6.0625 L 19.53125,-21.78125 c 2.988281,-2.988281 5.507812,-5.644531 7.5625,-7.96875 2.050781,-2.332031 3.601562,-4.617188 4.65625,-6.859375 1.050781,-2.25 1.578125,-4.703125 1.578125,-7.359375 0,-3.269531 -0.96875,-5.75 -2.90625,-7.4375 -1.9375,-1.695312 -4.460937,-2.546875 -7.5625,-2.546875 -2.886719,0 -5.421875,0.5 -7.609375,1.5 -2.1875,1 -4.417969,2.386719 -6.6875,4.15625 l -3.90625,-4.90625 c 2.320312,-1.9375 4.992188,-3.582031 8.015625,-4.9375 3.019531,-1.363281 6.414063,-2.046875 10.1875,-2.046875 5.539063,0 9.914063,1.402344 13.125,4.203125 3.21875,2.804687 4.828125,6.667969 4.828125,11.59375 0,3.105469 -0.640625,6.015625 -1.921875,8.734375 -1.273437,2.710938 -3.042969,5.382812 -5.3125,8.015625 -2.273437,2.636719 -4.929687,5.449219 -7.96875,8.4375 L 13.21875,-6.984375 v 0.328125 h 30 z m 0,0"
           id="path6" />
      </g>
    </g>
    <g
       fill="#000000"
       fill-opacity="1"
       id="g45"
       transform="matrix(0.26458333,0,0,0.26458333,-129.18404,36.512642)">
      <g
         id="use45"
         transform="translate(895.58594,348.13281)">
        <path
           d="m 55.109375,0 h -8.71875 L 14.625,-49.296875 h -0.328125 c 0.113281,1.9375 0.253906,4.351563 0.421875,7.234375 0.164062,2.886719 0.25,5.851562 0.25,8.890625 V 0 H 8.0625 v -59.34375 h 8.640625 l 31.671875,49.125 h 0.34375 c -0.0625,-0.882812 -0.136719,-2.210938 -0.21875,-3.984375 -0.08594,-1.78125 -0.167969,-3.722656 -0.25,-5.828125 -0.08594,-2.101562 -0.125,-4.046875 -0.125,-5.828125 V -59.34375 h 6.984375 z m 0,0"
           id="path5" />
      </g>
    </g>
    <g
       fill="#000000"
       fill-opacity="1"
       id="g46"
       transform="matrix(0.26458333,0,0,0.26458333,-129.18404,36.512642)">
      <g
         id="use46"
         transform="translate(802.09766,348.13281)">
        <path
           d="M 53.453125,0 H 45.96875 V -27.6875 H 15.546875 V 0 H 8.0625 v -59.34375 h 7.484375 V -34.25 H 45.96875 v -25.09375 h 7.484375 z m 0,0"
           id="path3" />
      </g>
    </g>
    <g
       fill="#000000"
       fill-opacity="1"
       id="g47"
       transform="matrix(0.26458333,0,0,0.26458333,-129.18404,36.512642)">
      <g
         id="use47"
         transform="translate(855.99219,372.70312)">
        <path
           d="M 43.21875,0 H 3.984375 V -6.0625 L 19.53125,-21.78125 c 2.988281,-2.988281 5.507812,-5.644531 7.5625,-7.96875 2.050781,-2.332031 3.601562,-4.617188 4.65625,-6.859375 1.050781,-2.25 1.578125,-4.703125 1.578125,-7.359375 0,-3.269531 -0.96875,-5.75 -2.90625,-7.4375 -1.9375,-1.695312 -4.460937,-2.546875 -7.5625,-2.546875 -2.886719,0 -5.421875,0.5 -7.609375,1.5 -2.1875,1 -4.417969,2.386719 -6.6875,4.15625 l -3.90625,-4.90625 c 2.320312,-1.9375 4.992188,-3.582031 8.015625,-4.9375 3.019531,-1.363281 6.414063,-2.046875 10.1875,-2.046875 5.539063,0 9.914063,1.402344 13.125,4.203125 3.21875,2.804687 4.828125,6.667969 4.828125,11.59375 0,3.105469 -0.640625,6.015625 -1.921875,8.734375 -1.273437,2.710938 -3.042969,5.382812 -5.3125,8.015625 -2.273437,2.636719 -4.929687,5.449219 -7.96875,8.4375 L 13.21875,-6.984375 v 0.328125 h 30 z m 0,0"
           id="path7" />
      </g>
    </g>
    <text
       xml:space="preserve"
       style="font-size:21.1667px;font-family:Arial;-inkscape-font-specification:Arial;text-align:start;writing-mode:lr-tb;direction:ltr;text-anchor:start;fill:#999999;fill-opacity:1;stroke:#000000;stroke-width:0.2"
       x="-51.01075"
       y="95.005768"
       id="text7"><tspan
         sodipodi:role="line"
         id="tspan7"
         style="font-style:normal;font-size:21.1667px;fill:#999999;fill-opacity:1;stroke-width:0.2"
         x="-51.01075"
         y="95.005768">(<tspan
   style="font-style:italic;font-size:21.1667px;fill:#999999;fill-opacity:1"
   id="tspan8">S</tspan>)</tspan></text>
    <text
       xml:space="preserve"
       style="font-size:21.1667px;font-family:Arial;-inkscape-font-specification:Arial;text-align:start;writing-mode:lr-tb;direction:ltr;text-anchor:start;fill:#999999;fill-opacity:1;stroke:#000000;stroke-width:0.2"
       x="11.989252"
       y="95.005768"
       id="text7-2"><tspan
         sodipodi:role="line"
         id="tspan7-7"
         style="font-style:normal;font-size:21.1667px;fill:#999999;fill-opacity:1;stroke-width:0.2"
         x="11.989252"
         y="95.005768">(<tspan
   style="font-style:italic"
   id="tspan48">R</tspan>)</tspan></text>
    <text
       xml:space="preserve"
       style="font-size:21.1667px;font-family:Arial;-inkscape-font-specification:Arial;text-align:start;writing-mode:lr-tb;direction:ltr;text-anchor:start;fill:#999999;fill-opacity:1;stroke:#000000;stroke-width:0.2"
       x="118.51923"
       y="97.266182"
       id="text7-9"><tspan
         sodipodi:role="line"
         id="tspan7-8"
         style="font-style:normal;font-size:21.1667px;fill:#999999;fill-opacity:1;stroke-width:0.2"
         x="118.51923"
         y="97.266182">(<tspan
   style="font-style:italic;font-size:21.1667px;fill:#999999;fill-opacity:1"
   id="tspan8-6">S</tspan>)</tspan></text>
    <text
       xml:space="preserve"
       style="font-size:21.1667px;font-family:Arial;-inkscape-font-specification:Arial;text-align:start;writing-mode:lr-tb;direction:ltr;text-anchor:start;fill:#999999;fill-opacity:1;stroke:#000000;stroke-width:0.2"
       x="181.51924"
       y="97.266182"
       id="text7-2-5"><tspan
         sodipodi:role="line"
         id="tspan7-7-0"
         style="font-style:normal;font-size:21.1667px;fill:#999999;fill-opacity:1;stroke-width:0.2"
         x="181.51924"
         y="97.266182">(<tspan
   style="font-style:italic"
   id="tspan48-2">R</tspan>)</tspan></text>
  </g>
</svg>
