<?xml version="1.0" encoding="utf-8"?>
<!-- Generator: Adobe Illustrator 21.0.0, SVG Export Plug-In . SVG Version: 6.00 Build 0)  -->
<svg version="1.1" id="Слой_1" xmlns="http://www.w3.org/2000/svg" xmlns:xlink="http://www.w3.org/1999/xlink" x="0px" y="0px"
	 viewBox="0 0 668 379.7" style="enable-background:new 0 0 668 379.7;" xml:space="preserve" width="668" height="379.7">
<g>
	<rect x="134.2" y="214.1" width="34" height="2.4"/>
	<polygon points="157.1,292.1 127.6,270.7 126.2,272.7 150.7,290.4 150.7,330 153.1,330 153.1,292.2 154.7,293.4 154.7,293.4 
		156.3,294.5 156.4,294.6 156.4,294.6 157.1,295.1 157.8,294.6 157.8,294.6 157.9,294.5 159.4,293.4 159.4,293.4 161,292.2 161,330 
		163.4,330 163.4,290.5 187.9,272.7 186.5,270.7 	"/>
	<polygon points="198.1,238.8 193.4,224.3 191.1,225.1 195.8,239.5 	"/>
	<rect x="40.9" y="177.1" transform="matrix(0.9782 -0.2079 0.2079 0.9782 -35.6749 17.1324)" width="45.6" height="2.4"/>
	<polygon points="26.4,227.3 56.9,261.1 58.7,259.5 28.2,225.6 	"/>
	<polygon points="92.7,262.3 54.5,270.4 53.7,269.5 53.7,269.5 17.8,229.6 17.8,229.6 16.9,228.6 17.3,227.4 17.3,227.4 33.9,176.4 
		33.9,176.4 34.3,175.2 35.5,174.9 35.5,174.9 89.3,163.5 90.1,164.4 90.1,164.4 126.9,205.3 116,238.8 118.3,239.5 129.1,206.2 
		168.2,206.2 168.2,203.8 128.8,203.8 90.8,161.5 90.1,160.9 87.5,161.4 87.5,161.4 33.1,173 32.4,173.1 32.2,173.8 14.4,228.6 
		14.4,228.6 14.2,229.2 14.6,229.7 14.6,229.7 53.2,272.5 53.2,272.5 53.7,273 54.3,272.9 54.4,272.9 54.8,272.8 56.3,272.5 
		56.3,272.5 93.2,264.7 	"/>
	<polygon points="354.4,286.5 354.4,286.5 353.3,287.2 304,258.7 304,258.7 303.4,258.4 302.8,258.7 302.8,258.7 302.6,258.9 
		301.1,259.7 301.1,259.7 254.7,286.5 254.7,286.5 253.5,287.2 221,268.4 219.8,270.5 251.2,288.6 251.2,288.6 252.9,289.6 
		252.9,289.6 252.9,289.6 253.5,290 254.1,289.6 254.1,289.6 303.4,261.2 304.5,261.8 304.5,261.8 351,288.6 350.9,288.6 
		352.5,289.5 352.7,289.6 352.7,289.6 353.3,290 353.9,289.6 353.9,289.6 387,270.5 385.8,268.4 	"/>
	<polygon points="501.7,257.8 501.7,259.1 454.2,286.5 454.2,286.5 453.1,287.2 453,287.2 451.9,286.5 451.9,286.5 420.6,268.4 
		419.4,270.5 452.5,289.6 452.5,289.6 453.1,290 453.7,289.6 453.7,289.6 501.8,261.8 501.8,261.8 503.4,260.9 503.5,260.8 
		503.5,260.8 504.1,260.5 504.1,259.8 504.1,257.8 504.1,222.2 501.7,222.2 	"/>
	<polygon points="404.4,204.2 404.4,202.9 451.9,175.4 451.9,175.4 453.1,174.8 454.2,175.4 454.2,175.4 485.5,193.5 486.7,191.4 
		454.1,172.6 453.1,172 452.5,172.3 452.5,172.3 404.3,200.1 404.3,200.1 403,200.9 402.6,201.1 402.6,201.1 402,201.5 402,202.2 
		402,204.2 402,238.8 404.4,238.8 	"/>
	<polygon points="602.1,189.1 603.3,191.2 642.8,168.4 641.6,166.3 	"/>
	<polygon points="602.1,100 641.6,122.8 642.8,120.7 603.3,97.9 	"/>
	<rect x="562" y="121.7" width="2.4" height="45.6"/>
	<polygon points="178.1,196.6 178.3,196.6 193.7,218.6 197.1,218.6 197.1,190.4 193.6,190.4 193.6,212.5 193.4,212.5 178,190.4 
		174.6,190.4 174.6,218.6 178.1,218.6 	"/>
	<polygon points="118.2,267.3 118,267.3 102.6,245.2 99.2,245.2 99.2,273.4 102.7,273.4 102.7,251.3 102.9,251.3 118.3,273.4 
		121.7,273.4 121.7,245.2 118.2,245.2 	"/>
	<polygon points="211.4,267.3 211.2,267.3 195.8,245.2 192.4,245.2 192.4,273.4 195.9,273.4 195.9,251.3 196.1,251.3 211.5,273.4 
		214.9,273.4 214.9,245.2 211.4,245.2 	"/>
	<path d="M157.1,336.4c-8,0-13,5.6-13,14.6c0,8.9,5,14.5,13,14.5c8,0,13-5.6,13-14.5C170,342.1,165,336.4,157.1,336.4z M157.1,362.3
		c-5.8,0-9.4-4.4-9.4-11.3c0-7,3.6-11.4,9.4-11.4c5.8,0,9.4,4.4,9.4,11.4C166.4,357.9,162.8,362.3,157.1,362.3z"/>
	<polygon points="410.9,267.3 410.8,267.3 395.3,245.2 391.9,245.2 391.9,273.4 395.4,273.4 395.4,251.3 395.6,251.3 411,273.4 
		414.4,273.4 414.4,245.2 410.9,245.2 	"/>
	<polygon points="510.7,209.7 510.5,209.7 495.1,187.6 491.7,187.6 491.7,215.8 495.2,215.8 495.2,193.7 495.3,193.7 510.8,215.8 
		514.2,215.8 514.2,187.6 510.7,187.6 	"/>
	<path d="M653.2,114.7L653.2,114.7l-0.4-0.3l-1.3-0.7l0,0l-47.6-27.5V50.5h-2.4v35.8l-47.6,27.5l0,0l-1.3,0.7l-0.4,0.3l0,0l-0.6,0.3
		v0.7v2v54.9l-32.5,18.7l1.2,2.1l32.5-18.7l49.3,28.5l0,0l0.6,0.4l0.6-0.4l0,0l48.2-27.8l0,0l1.3-0.7l0.4-0.3l0,0l0.6-0.3v-0.7v-2
		v-53.6v-2v-0.7L653.2,114.7z M651.4,171.4v1.3l-47.6,27.5l0,0l-1.1,0.6l-1.1-0.6l0,0L554,172.7v-54.9v-1.3l48.7-28.1l48.7,28.1v1.3
		V171.4z"/>
	<rect x="615.4" y="14.2" width="3.4" height="29.4"/>
	<path d="M599.3,44.1c6.2,0,10.4-3.1,11.7-8.6h-3.6c-1,3.4-4,5.4-8.1,5.4c-5.6,0-9.1-4.4-9.1-11.3c0-6.8,3.6-11.3,9.1-11.3
		c4,0,7.2,2.4,8.2,6.1h3.6c-0.9-5.6-5.6-9.4-11.7-9.4c-7.7,0-12.7,5.7-12.7,14.6C586.6,38.4,591.5,44.1,599.3,44.1z"/>
</g>
</svg>
