<?xml version="1.0" encoding="iso-8859-1"?>
<!-- Generator: Adobe Illustrator 19.1.0, SVG Export Plug-In . SVG Version: 6.00 Build 0)  -->
<svg version="1.1" id="&#x421;&#x43B;&#x43E;&#x439;_1"
	 xmlns="http://www.w3.org/2000/svg" xmlns:xlink="http://www.w3.org/1999/xlink" x="0px" y="0px" viewBox="0 0 339.732 421.937"
	 style="enable-background:new 0 0 339.732 421.937;" xml:space="preserve" width="339.732" height="421.937">
<g>
	<rect x="89.552" y="150.641" width="2" height="45.628"/>
	<rect x="148.825" y="184.862" transform="matrix(-0.4995 -0.8663 0.8663 -0.4995 44.7495 441.2055)" width="2" height="45.628"/>
	<rect x="148.825" y="116.42" transform="matrix(-0.4996 0.8663 -0.8663 -0.4996 345.2893 79.0086)" width="2" height="45.628"/>
	<rect x="243.928" y="206.144" transform="matrix(0.2221 0.975 -0.975 0.2221 407.9488 -65.3488)" width="2" height="33.675"/>
	<rect x="159.825" y="318.873" transform="matrix(-0.975 -0.2221 0.2221 -0.975 241.7598 710.5555)" width="2" height="45.628"/>
	<rect x="209.996" y="365.425" transform="matrix(-0.2947 -0.9556 0.9556 -0.2947 -97.825 704.2751)" width="2" height="45.628"/>
	<rect x="203.412" y="320.513" transform="matrix(-0.7331 -0.6802 0.6802 -0.7331 173.3775 711.0719)" width="45.628" height="2"/>
	<polygon points="298.402,90.717 280.654,120.423 242.695,111.759 242.251,113.709 280.448,122.427 305.021,173.455 290.028,204.59 
		291.829,205.459 307.032,173.89 307.241,173.455 307.032,173.021 282.274,121.61 300.119,91.743 	"/>
	<rect x="268.162" y="97.508" transform="matrix(0.5129 -0.8584 0.8584 0.5129 53.2051 290.782)" width="29.345" height="2"/>
	<rect x="286.433" y="49.424" transform="matrix(0.6579 0.7531 -0.7531 0.6579 137.761 -202.4466)" width="10.602" height="2"/>
	<rect x="228.073" y="51.074" transform="matrix(-0.9195 0.393 -0.393 -0.9195 489.911 3.8383)" width="32.98" height="2"/>
	<polygon points="222.104,87.896 224.096,87.718 220.882,52.008 222.052,51.508 256.043,36.979 255.258,35.14 219.896,50.254 
		218.617,49.489 218.617,49.489 170.887,20.972 169.861,22.689 218.87,51.971 	"/>
	<path d="M256.007,331.957L256.007,331.957l-1.36,0.419l-1.042-0.967l0,0l-40.335-37.425l0.317-1.387l12.232-53.593l38.053-8.685
		l-0.444-1.95l-36.717,8.38l-1.481,0.338l-44.28-35.312v-55.118v-1.518l28.403-22.651l-1.247-1.563l-28.247,22.526l-1.142-0.659l0,0
		l-46.419-26.8l-1.732-1l-0.5-0.288l-0.5,0.288l-1.732,1l0,0l-48.151,27.8l-0.5,0.288v0.579l0,55.6v1.423l-1.232,0.711
		l-26.479,15.288l0.999,1.732l27.712-15.999l47.652,27.511l0,0l1.732,1l0.5,0.288l0.499-0.288l1.732-1l0,0l46.419-26.8l1.142-0.659
		l44.009,35.096l-12.232,53.594h0l-0.316,1.386l-54.489,16.808l-0.552,0.169l-0.129,0.564l-0.445,1.95l-12.372,54.206l-0.128,0.562
		l0.422,0.392l40.758,37.818l0,0l1.466,1.36l0.422,0.393l0.553-0.171l1.911-0.589l53.13-16.388l0.552-0.169l0.129-0.564
		l12.689-55.593l33.173-10.232l-0.589-1.911L256.007,331.957z M178.95,146.655v55.023l-47.65,27.511l0,0l-1.233,0.712l-1.233-0.712
		l0,0l-47.65-27.511l0-55.023v-1.423l1.232-0.711l0,0l47.651-27.511l48.883,28.223V146.655z M240.727,388.872l-52.578,16.218v0
		l-1.36,0.419l-1.042-0.967l-39.292-36.457l0,0l-1.043-0.968l12.244-53.643h0l0.316-1.387l53.938-16.638l41.377,38.393
		L240.727,388.872z"/>
	<path d="M26.867,219.883c4.023,0,7.246,2.422,8.145,6.113h3.555c-0.898-5.625-5.566-9.356-11.699-9.356
		c-7.715,0-12.695,5.703-12.695,14.551c0,8.926,4.922,14.57,12.695,14.57c6.231,0,10.41-3.105,11.699-8.672h-3.555
		c-1.016,3.438-3.984,5.43-8.125,5.43c-5.566,0-9.102-4.414-9.102-11.328C17.785,224.336,21.36,219.883,26.867,219.883z"/>
	<rect x="43.031" y="215.879" width="3.398" height="29.414"/>
	<polygon points="288.913,232.919 288.737,232.919 273.307,210.79 269.889,210.79 269.889,238.974 273.366,238.974 273.366,216.923 
		273.542,216.923 288.972,238.974 292.389,238.974 292.389,210.79 288.913,210.79 	"/>
	<polygon points="236.234,94.182 232.757,94.182 232.757,116.31 232.581,116.31 217.152,94.182 213.734,94.182 213.734,122.365 
		217.21,122.365 217.21,100.314 217.386,100.314 232.816,122.365 236.234,122.365 	"/>
	<polygon points="318.456,79.681 318.28,79.681 302.851,57.552 299.433,57.552 299.433,85.736 302.909,85.736 302.909,63.685 
		303.085,63.685 318.515,85.736 321.933,85.736 321.933,57.552 318.456,57.552 	"/>
	<polygon points="265.012,20.308 265.188,20.308 280.617,42.359 284.036,42.359 284.036,14.175 280.559,14.175 280.559,36.304 
		280.383,36.304 264.953,14.175 261.536,14.175 261.536,42.359 265.012,42.359 	"/>
	<path d="M305.998,305.352c4.023,0,7.246,2.422,8.145,6.113h3.555c-0.898-5.625-5.566-9.355-11.699-9.355
		c-7.715,0-12.695,5.703-12.695,14.551c0,8.926,4.922,14.57,12.695,14.57c6.23,0,10.41-3.105,11.699-8.672h-3.555
		c-1.016,3.437-3.984,5.43-8.125,5.43c-5.566,0-9.102-4.414-9.102-11.328C296.916,309.805,300.49,305.352,305.998,305.352z"/>
	<rect x="322.162" y="301.348" width="3.398" height="29.414"/>
</g>
</svg>
