<?xml version="1.0" encoding="UTF-8"?><svg xmlns="http://www.w3.org/2000/svg" xmlns:xlink="http://www.w3.org/1999/xlink" width="306pt" height="245pt" viewBox="0 0 306 245"><g transform="translate(72.4004, 82.6504)" style="fill:#161413; fill-rule:nonzero; stroke:none; stroke-width:1.9; stroke-linecap:butt; stroke-linejoin:miter; stroke-dasharray:none;"><path d="M0 0.9492C0 0.9492 0.5498 0 0.5498 0C0.5498 0 1.6494 0 1.6494 0C1.6494 0 24.0996 38.8496 24.0996 38.8496C24.0996 38.8496 23.5498 39.7996 23.5498 39.7996C23.5498 39.7996 21.8994 38.8496 21.8994 38.8496C21.8994 38.8496 0 0.9492 0 0.9492Z"/></g><g transform="translate(72.4004, 122.45)" style="fill:#161413; fill-rule:nonzero; stroke:none; stroke-width:1.9; stroke-linecap:butt; stroke-linejoin:miter; stroke-dasharray:none;"><path d="M1.6992 39.8C1.6992 39.8 0.5996 39.8 0.5996 39.8C0.5996 39.8 0 38.85 0 38.85C0 38.85 21.8994 0.95 21.8994 0.95C21.8994 0.95 23.5498 0 23.5498 0C23.5498 0 24.0996 0.95 24.0996 0.95C24.0996 0.95 1.6992 39.8 1.6992 39.8Z"/></g><g transform="translate(95.9502, 121.5)" style="fill:#161413; fill-rule:nonzero; stroke:none; stroke-width:1.9; stroke-linecap:butt; stroke-linejoin:miter; stroke-dasharray:none;"><path d="M45.3998 0C45.3998 0 46.4998 1.9 46.4998 1.9C46.4998 1.9 0.5498 1.9 0.5498 1.9C0.5498 1.9 0 0.95 0 0.95C0 0.95 0.5498 0 0.5498 0C0.5498 0 45.3998 0 45.3998 0Z"/></g><g transform="translate(38.7129, 111.34)" style="fill:#161413; fill-rule:evenodd; stroke:none; stroke-width:1.9; stroke-linecap:butt; stroke-linejoin:miter; stroke-dasharray:none;"><path d="M11.208 0C4.5342 0 0 4.917 0 12.197C0 19.477 4.5342 24.394 11.2402 24.394C14.0498 24.394 16.5723 23.532 18.456 21.935C20.9785 19.797 22.4795 16.188 22.4795 12.389C22.4795 4.886 18.041 0 11.208 0ZM11.208 2.618C16.2529 2.618 19.5098 6.45 19.5098 12.325C19.5098 17.944 16.1572 21.776 11.2402 21.776C6.291 21.776 2.9697 17.944 2.9697 12.197C2.9697 6.45 6.291 2.618 11.208 2.618Z"/></g><g transform="translate(66.0498, 121.5)" style="fill:#161413; fill-rule:nonzero; stroke:none; stroke-width:1.9; stroke-linecap:butt; stroke-linejoin:miter; stroke-dasharray:none;"><path d="M0 1.9C0 1.9 0 0 0 0C0 0 28.25 0 28.25 0C28.25 0 29.9004 0.95 29.9004 0.95C29.9004 0.95 28.25 1.9 28.25 1.9C28.25 1.9 0 1.9 0 1.9Z"/></g><g transform="translate(26.4502, 161.3)" style="fill:#161413; fill-rule:nonzero; stroke:none; stroke-width:1.9; stroke-linecap:butt; stroke-linejoin:miter; stroke-dasharray:none;"><path d="M1.0996 1.9C1.0996 1.9 0 0 0 0C0 0 45.9502 0 45.9502 0C45.9502 0 46.5498 0.95 46.5498 0.95C46.5498 0.95 45.9502 1.9 45.9502 1.9C45.9502 1.9 1.0996 1.9 1.0996 1.9Z"/></g><g transform="translate(31.75, 169.55)" style="fill:#161413; fill-rule:nonzero; stroke:none; stroke-width:1.9; stroke-linecap:butt; stroke-linejoin:miter; stroke-dasharray:none;"><path d="M0 1.95C0 1.95 0 0 0 0C0 0 36.4502 0 36.4502 0C36.4502 0 36.4502 1.95 36.4502 1.95C36.4502 1.95 0 1.95 0 1.95Z"/></g><g transform="translate(2.90039, 161.3)" style="fill:#161413; fill-rule:nonzero; stroke:none; stroke-width:1.9; stroke-linecap:butt; stroke-linejoin:miter; stroke-dasharray:none;"><path d="M2.19922 40.75C2.19922 40.75 0 40.75 0 40.75C0 40.75 23.5498 0 23.5498 0C23.5498 0 24.6494 1.9 24.6494 1.9C24.6494 1.9 2.19922 40.75 2.19922 40.75Z"/></g><g transform="translate(2.90039, 202.05)" style="fill:#161413; fill-rule:nonzero; stroke:none; stroke-width:1.9; stroke-linecap:butt; stroke-linejoin:miter; stroke-dasharray:none;"><path d="M24.6494 38.85C24.6494 38.85 23.5498 40.8 23.5498 40.8C23.5498 40.8 0 0 0 0C0 0 2.19922 0 2.19922 0C2.19922 0 24.6494 38.85 24.6494 38.85Z"/></g><g transform="translate(12.75, 201.6)" style="fill:#161413; fill-rule:nonzero; stroke:none; stroke-width:1.9; stroke-linecap:butt; stroke-linejoin:miter; stroke-dasharray:none;"><path d="M19.8496 31.55C19.8496 31.55 18.2002 32.5 18.2002 32.5C18.2002 32.5 0 0.95 0 0.95C0 0.95 1.6504 0 1.6504 0C1.6504 0 19.8496 31.55 19.8496 31.55Z"/></g><g transform="translate(26.4502, 240.9)" style="fill:#161413; fill-rule:nonzero; stroke:none; stroke-width:1.9; stroke-linecap:butt; stroke-linejoin:miter; stroke-dasharray:none;"><path d="M45.9502 0C45.9502 0 47.0996 1.95 47.0996 1.95C47.0996 1.95 0 1.95 0 1.95C0 1.95 1.0996 0 1.0996 0C1.0996 0 45.9502 0 45.9502 0Z"/></g><g transform="translate(72.4004, 202.05)" style="fill:#161413; fill-rule:nonzero; stroke:none; stroke-width:1.9; stroke-linecap:butt; stroke-linejoin:miter; stroke-dasharray:none;"><path d="M22.4492 0C22.4492 0 24.6494 0 24.6494 0C24.6494 0 1.1494 40.8 1.1494 40.8C1.1494 40.8 0 38.85 0 38.85C0 38.85 22.4492 0 22.4492 0Z"/></g><g transform="translate(67.3496, 201.6)" style="fill:#161413; fill-rule:nonzero; stroke:none; stroke-width:1.9; stroke-linecap:butt; stroke-linejoin:miter; stroke-dasharray:none;"><path d="M18.25 0C18.25 0 19.9004 0.95 19.9004 0.95C19.9004 0.95 1.7002 32.5 1.7002 32.5C1.7002 32.5 0 31.55 0 31.55C0 31.55 18.25 0 18.25 0Z"/></g><g transform="translate(72.4004, 162.25)" style="fill:#161413; fill-rule:nonzero; stroke:none; stroke-width:1.9; stroke-linecap:butt; stroke-linejoin:miter; stroke-dasharray:none;"><path d="M0 0.95C0 0.95 0.5996 0 0.5996 0C0.5996 0 1.6992 0 1.6992 0C1.6992 0 24.6494 39.8 24.6494 39.8C24.6494 39.8 22.4492 39.8 22.4492 39.8C22.4492 39.8 0 0.95 0 0.95Z"/></g><g transform="translate(72.4004, 42.7998)" style="fill:#161413; fill-rule:nonzero; stroke:none; stroke-width:1.9; stroke-linecap:butt; stroke-linejoin:miter; stroke-dasharray:none;"><path d="M22.4492 0C22.4492 0 24.6494 0 24.6494 0C24.6494 0 1.6494 39.8506 1.6494 39.8506C1.6494 39.8506 0.5498 39.8506 0.5498 39.8506C0.5498 39.8506 0 38.8506 0 38.8506C0 38.8506 22.4492 0 22.4492 0Z"/></g><g transform="translate(72.4004, 2.0498)" style="fill:#161413; fill-rule:nonzero; stroke:none; stroke-width:1.9; stroke-linecap:butt; stroke-linejoin:miter; stroke-dasharray:none;"><path d="M0 1.9004C0 1.9004 1.0996 0 1.0996 0C1.0996 0 24.6494 40.75 24.6494 40.75C24.6494 40.75 22.4492 40.75 22.4492 40.75C22.4492 40.75 0 1.9004 0 1.9004Z"/></g><g transform="translate(26.4502, 2.0498)" style="fill:#161413; fill-rule:nonzero; stroke:none; stroke-width:1.9; stroke-linecap:butt; stroke-linejoin:miter; stroke-dasharray:none;"><path d="M1.0996 1.9004C1.0996 1.9004 0 0 0 0C0 0 47.0498 0 47.0498 0C47.0498 0 45.9502 1.9004 45.9502 1.9004C45.9502 1.9004 1.0996 1.9004 1.0996 1.9004Z"/></g><g transform="translate(2.90039, 2.0498)" style="fill:#161413; fill-rule:nonzero; stroke:none; stroke-width:1.9; stroke-linecap:butt; stroke-linejoin:miter; stroke-dasharray:none;"><path d="M2.19922 40.75C2.19922 40.75 0 40.75 0 40.75C0 40.75 23.5498 0 23.5498 0C23.5498 0 24.6494 1.9004 24.6494 1.9004C24.6494 1.9004 2.19922 40.75 2.19922 40.75Z"/></g><g transform="translate(2.90039, 42.7998)" style="fill:#161413; fill-rule:nonzero; stroke:none; stroke-width:1.9; stroke-linecap:butt; stroke-linejoin:miter; stroke-dasharray:none;"><path d="M24.6494 38.8506C24.6494 38.8506 23.5498 40.7998 23.5498 40.7998C23.5498 40.7998 0 0 0 0C0 0 2.19922 0 2.19922 0C2.19922 0 24.6494 38.8506 24.6494 38.8506Z"/></g><g transform="translate(26.4502, 81.6504)" style="fill:#161413; fill-rule:nonzero; stroke:none; stroke-width:1.9; stroke-linecap:butt; stroke-linejoin:miter; stroke-dasharray:none;"><path d="M45.9502 0C45.9502 0 46.5 1 46.5 1C46.5 1 45.9502 1.9492 45.9502 1.9492C45.9502 1.9492 0 1.9492 0 1.9492C0 1.9492 1.0996 0 1.0996 0C1.0996 0 45.9502 0 45.9502 0Z"/></g><g transform="translate(17.4004, 111.223)" style="fill:#161413; fill-rule:evenodd; stroke:none; stroke-width:1.9; stroke-linecap:butt; stroke-linejoin:miter; stroke-dasharray:none;"><path d="M14.9434 12.676C14.9434 12.676 14.9434 23.277 14.9434 23.277C14.9434 23.277 17.9121 23.277 17.9121 23.277C17.9121 23.277 17.9121 0 17.9121 0C17.9121 0 14.9434 0 14.9434 0C14.9434 0 14.9434 10.058 14.9434 10.058C14.9434 10.058 2.9697 10.058 2.9697 10.058C2.9697 10.058 2.9697 0 2.9697 0C2.9697 0 0 0 0 0C0 0 0 23.277 0 23.277C0 23.277 3.001 23.277 3.001 23.277C3.001 23.277 3.001 12.676 3.001 12.676C3.001 12.676 14.9434 12.676 14.9434 12.676Z"/></g><g transform="translate(141.35, 81.7002)" style="fill:#161413; fill-rule:nonzero; stroke:none; stroke-width:1.9; stroke-linecap:butt; stroke-linejoin:miter; stroke-dasharray:none;"><path d="M22.95 0C22.95 0 24.1 1.8994 24.1 1.8994C24.1 1.8994 1.1 41.6998 1.1 41.6998C1.1 41.6998 0 39.7998 0 39.7998C0 39.7998 22.95 0 22.95 0Z"/></g><g transform="translate(201.677, 71.9727)" style="fill:#161413; fill-rule:evenodd; stroke:none; stroke-width:1.9; stroke-linecap:butt; stroke-linejoin:miter; stroke-dasharray:none;"><path d="M18.2 0C18.2 0 15.39 0 15.39 0C15.39 0 15.39 19.0302 15.39 19.0302C15.39 19.0302 3.224 0 3.224 0C3.224 0 0 0 0 0C0 0 0 23.2773 0 23.2773C0 23.2773 2.809 23.2773 2.809 23.2773C2.809 23.2773 2.809 4.4072 2.809 4.4072C2.809 4.4072 14.847 23.2773 14.847 23.2773C14.847 23.2773 18.2 23.2773 18.2 23.2773C18.2 23.2773 18.2 0 18.2 0Z"/></g><g transform="translate(164.3, 81.7002)" style="fill:#161413; fill-rule:nonzero; stroke:none; stroke-width:1.9; stroke-linecap:butt; stroke-linejoin:miter; stroke-dasharray:none;"><path d="M32.35 0C32.35 0 32.35 1.8994 32.35 1.8994C32.35 1.8994 1.15 1.8994 1.15 1.8994C1.15 1.8994 0 0 0 0C0 0 32.35 0 32.35 0Z"/></g><g transform="translate(220.2, 99.9004)" style="fill:#161413; fill-rule:nonzero; stroke:none; stroke-width:1.9; stroke-linecap:butt; stroke-linejoin:miter; stroke-dasharray:none;"><path d="M14.15 21.5996C14.15 21.5996 13.05 23.5496 13.05 23.5496C13.05 23.5496 0 0.9496 0 0.9496C0 0.9496 1.7 0 1.7 0C1.7 0 14.15 21.5996 14.15 21.5996Z"/></g><g transform="translate(233.25, 121.5)" style="fill:#161413; fill-rule:nonzero; stroke:none; stroke-width:1.9; stroke-linecap:butt; stroke-linejoin:miter; stroke-dasharray:none;"><path d="M46 0C46 0 47.1 1.95 47.1 1.95C47.1 1.95 0 1.95 0 1.95C0 1.95 1.1 0 1.1 0C1.1 0 46 0 46 0Z"/></g><g transform="translate(279.25, 82.6504)" style="fill:#161413; fill-rule:nonzero; stroke:none; stroke-width:1.9; stroke-linecap:butt; stroke-linejoin:miter; stroke-dasharray:none;"><path d="M22.45 0C22.45 0 24.65 0 24.65 0C24.65 0 1.1 40.7996 1.1 40.7996C1.1 40.7996 0 38.8496 0 38.8496C0 38.8496 22.45 0 22.45 0Z"/></g><g transform="translate(279.25, 41.9004)" style="fill:#161413; fill-rule:nonzero; stroke:none; stroke-width:1.9; stroke-linecap:butt; stroke-linejoin:miter; stroke-dasharray:none;"><path d="M0 1.8994C0 1.8994 1.1 0 1.1 0C1.1 0 24.65 40.75 24.65 40.75C24.65 40.75 22.45 40.75 22.45 40.75C22.45 40.75 0 1.8994 0 1.8994Z"/></g><g transform="translate(233.25, 41.9004)" style="fill:#161413; fill-rule:nonzero; stroke:none; stroke-width:1.9; stroke-linecap:butt; stroke-linejoin:miter; stroke-dasharray:none;"><path d="M1.1 1.8994C1.1 1.8994 0 0 0 0C0 0 47.1 0 47.1 0C47.1 0 46 1.8994 46 1.8994C46 1.8994 1.1 1.8994 1.1 1.8994Z"/></g><g transform="translate(219.25, 41.9004)" style="fill:#161413; fill-rule:nonzero; stroke:none; stroke-width:1.9; stroke-linecap:butt; stroke-linejoin:miter; stroke-dasharray:none;"><path d="M1.65 25.1992C1.65 25.1992 0 24.25 0 24.25C0 24.25 14 0 14 0C14 0 15.1 1.8994 15.1 1.8994C15.1 1.8994 1.65 25.1992 1.65 25.1992Z"/></g></svg>