<?xml version="1.0" encoding="UTF-8" standalone="no"?>
<svg
   xmlns:dc="http://purl.org/dc/elements/1.1/"
   xmlns:cc="http://creativecommons.org/ns#"
   xmlns:rdf="http://www.w3.org/1999/02/22-rdf-syntax-ns#"
   xmlns:svg="http://www.w3.org/2000/svg"
   xmlns="http://www.w3.org/2000/svg"
   xmlns:sodipodi="http://sodipodi.sourceforge.net/DTD/sodipodi-0.dtd"
   xmlns:inkscape="http://www.inkscape.org/namespaces/inkscape"
   color-rendering="auto"
   color-interpolation="auto"
   text-rendering="auto"
   width="1064"
   stroke-miterlimit="10"
   shape-rendering="auto"
   font-weight="normal"
   height="665.78003"
   font-style="normal"
   font-size="12"
   image-rendering="auto"
   id="svg3131"
   version="1.1"
   inkscape:version="0.48.4 r"
   sodipodi:docname="Liothyronine2DCSD.svg"
   style="font-size:12px;font-style:normal;font-weight:normal;fill:#000000;fill-opacity:1;stroke:#000000;stroke-width:1;stroke-linecap:square;stroke-linejoin:miter;stroke-miterlimit:10;stroke-opacity:1;stroke-dasharray:none;stroke-dashoffset:0;font-family:Dialog">
  <metadata
     id="metadata3237">
    <rdf:RDF>
      <cc:Work
         rdf:about="">
        <dc:format>image/svg+xml</dc:format>
        <dc:type
           rdf:resource="http://purl.org/dc/dcmitype/StillImage" />
      </cc:Work>
    </rdf:RDF>
  </metadata>
  <sodipodi:namedview
     pagecolor="#ffffff"
     bordercolor="#666666"
     borderopacity="1"
     objecttolerance="10"
     gridtolerance="10"
     guidetolerance="10"
     inkscape:pageopacity="0"
     inkscape:pageshadow="2"
     inkscape:window-width="640"
     inkscape:window-height="480"
     id="namedview3235"
     showgrid="false"
     fit-margin-top="0"
     fit-margin-left="0"
     fit-margin-right="0"
     fit-margin-bottom="0"
     inkscape:zoom="37.904059"
     inkscape:cx="1069.7069"
     inkscape:cy="301.93696"
     inkscape:window-x="0"
     inkscape:window-y="0"
     inkscape:window-maximized="0"
     inkscape:current-layer="svg3131" />
  <!--Generated by Marvin with Batik SVG Generator
MolSource:
<?xml version="1.0" encoding="windows-1252"?><cml xmlns="http://www.chemaxon.com" xmlns:xsi="http://www.w3.org/2001/XMLSchema-instance" xsi:schemaLocation="http://www.chemaxon.com/marvin/help/formats/schema/mrvSchema_6_2_0.xsd" version="ChemAxon file format v6.2, generated by v6.3.1">
<MDocument><MChemicalStruct><molecule title="triiodothyronine" molID="m1" absStereo="true"><propertyList><property dictRef="type" title="type"><scalar>common</scalar></property></propertyList><atomArray atomID="a1 a2 a3 a4 a5 a6 a7 a8 a9 a10 a11 a12 a13 a14 a15 a16 a17 a18 a19 a20 a21 a22 a23" elementType="N C C C C C I C O C C C C O C I C C I C C O O" x2="-0.17395814632539675 -1.5076372681534291 -1.50763726815343 -0.17395814632539008 -0.1739581463253903 1.1597209755026507 1.1597209755026523 2.4934000973306856 3.82707921915872 5.1607583409867575 6.494437462814797 7.828116584642834 7.828116584642829 9.161795706470855 6.494437462814786 6.494437462814785 5.160758340986754 2.4934000973306802 3.8270792191587186 1.1597209755026445 -2.8413163899814684 -2.8413163899814675 -4.1749955118095015" y2="-7.398695652173906 -6.628695652173905 -5.088695652173902 -4.318695652173906 -2.7786956521738975 -2.0086956521739032 -0.46869565217389964 -2.7786956521739024 -2.0086956521739103 -2.7786956521739072 -2.008695652173912 -2.7786956521739143 -4.318695652173915 -5.088695652173925 -5.088695652173916 -6.628695652173912 -4.318695652173915 -4.318695652173904 -5.088695652173909 -5.0886956521739055 -7.398695652173899 -8.938695652173902 -6.628695652173898"></atomArray><bondArray><bond id="b1" atomRefs2="a2 a1" order="1"><bondStereo>H</bondStereo></bond><bond id="b2" atomRefs2="a2 a3" order="1"></bond><bond id="b3" atomRefs2="a3 a4" order="1"></bond><bond id="b4" atomRefs2="a4 a5" order="2"></bond><bond id="b5" atomRefs2="a5 a6" order="1"></bond><bond id="b6" atomRefs2="a6 a7" order="1"></bond><bond id="b7" atomRefs2="a6 a8" order="2"></bond><bond id="b8" atomRefs2="a8 a9" order="1"></bond><bond id="b9" atomRefs2="a9 a10" order="1"></bond><bond id="b10" atomRefs2="a10 a11" order="2"></bond><bond id="b11" atomRefs2="a11 a12" order="1"></bond><bond id="b12" atomRefs2="a12 a13" order="2"></bond><bond id="b13" atomRefs2="a13 a14" order="1"></bond><bond id="b14" atomRefs2="a13 a15" order="1"></bond><bond id="b15" atomRefs2="a15 a16" order="1"></bond><bond id="b16" atomRefs2="a15 a17" order="2"></bond><bond id="b17" atomRefs2="a10 a17" order="1"></bond><bond id="b18" atomRefs2="a8 a18" order="1"></bond><bond id="b19" atomRefs2="a18 a19" order="1"></bond><bond id="b20" atomRefs2="a18 a20" order="2"></bond><bond id="b21" atomRefs2="a4 a20" order="1"></bond><bond id="b22" atomRefs2="a2 a21" order="1"></bond><bond id="b23" atomRefs2="a21 a22" order="1"></bond><bond id="b24" atomRefs2="a21 a23" order="2"></bond></bondArray></molecule></MChemicalStruct></MDocument>
</cml>-->
  <defs
     id="genericDefs" />
  <g
     id="g3134"
     transform="translate(-8.2387695,-34.0379)">
    <defs
       id="defs1">
      <clipPath
         clipPathUnits="userSpaceOnUse"
         id="clipPath1">
        <path
           d="m 0,0 1084,0 0,756 L 0,756 0,0 z"
           id="path3138"
           inkscape:connector-curvature="0" />
      </clipPath>
      <clipPath
         clipPathUnits="userSpaceOnUse"
         id="clipPath2">
        <path
           d="m 423.77499,20 c 3.93503,0 7.125,10.40938 7.125,23.25 l 0,34.099998 c 0,12.840622 -3.18997,23.250002 -7.125,23.250002 l -6.64999,0 C 413.18997,100.6 410,90.19062 410,77.349998 L 410,43.25 C 410,30.40938 413.18997,20 417.125,20 z m 201.92502,112 c 10.76953,0 19.5,10.40938 19.5,23.25 l 0,34.10001 c 0,12.84062 -8.73047,23.25 -19.5,23.25 l -18.20001,0 c -10.76953,0 -19.5,-10.40938 -19.5,-23.25 L 588,155.25 C 588,142.40938 596.73047,132 607.5,132 z m -7.92499,224 c 3.935,0 7.125,10.40939 7.125,23.25 l 0,34.10001 c 0,12.8406 -3.19,23.25 -7.125,23.25 l -6.65002,0 c -3.93506,0 -7.125,-10.4094 -7.125,-23.25 L 604,379.25 C 604,366.40939 607.18994,356 611.125,356 z M 42.700001,468 c 10.76955,0 19.5,10.40939 19.5,23.25 l 0,34.09998 c 0,12.84063 -8.73045,23.25 -19.5,23.25 l -18.200001,0 c -10.769552,0 -19.5,-10.40937 -19.5,-23.25 L 5,491.25 C 5,478.40939 13.730448,468 24.5,468 z m 770.075019,0 c 3.935,0 7.125,10.40939 7.125,23.25 l 0,34.09998 c 0,12.84063 -3.19,23.25 -7.125,23.25 l -6.65002,0 c -3.93506,0 -7.125,-10.40937 -7.125,-23.25 L 799,491.25 c 0,-12.84061 3.18994,-23.25 7.125,-23.25 z m -409.17501,95.12238 c 0,0 -3e-5,0 -3e-5,0 l 3e-5,0 0,0 z m -36,-38.12238 c 19.88223,0 36,10.40936 36,23.25 l 0,14.87238 0,0 C 404.01822,563.04156 404.44366,563 404.875,563 l 10.14999,0 c 6.00611,0 10.875,8.0589 10.875,18 l 0,26.40002 c 0,9.94111 -4.86889,18 -10.875,18 l -10.14999,0 c -6.0061,0 -10.875,-8.05889 -10.875,-18 l 0,-9.24292 0,0 c -6.57477,4.57795 -15.96933,7.44288 -26.39999,7.44288 l -33.60001,0 c -19.88226,0 -36,-10.40937 -36,-23.25 L 298,548.25 C 298,535.40936 314.11774,525 334,525 z M 174.5,637 c 20.71068,0 37.5,10.40936 37.5,23.25 l 0,34.09998 c 0,12.84063 -16.78932,23.25 -37.5,23.25 l -35,0 c -20.71068,0 -37.5,-10.40937 -37.5,-23.25 L 102,660.25 C 102,647.40936 118.78932,637 139.5,637 z M 0,0 l 0,756 1084,0 0,-333.52267 0,0 c -5.7223,8.30358 -19.015,14.12268 -34.5,14.12268 l -35,0 c -20.71069,0 -37.5,-10.4094 -37.5,-23.25 L 977,379.25 C 977,366.40939 993.78931,356 1014.5,356 l 35,0 c 15.485,0 28.7778,5.81909 34.5,14.12268 l 0,0 L 1084,0 z"
           id="path3141"
           inkscape:connector-curvature="0" />
      </clipPath>
    </defs>
    <g
       text-rendering="optimizeLegibility"
       font-size="67"
       shape-rendering="geometricPrecision"
       id="g3143"
       style="font-size:67px;font-family:Arial">
      <text
         xml:space="preserve"
         x="298"
         y="587"
         clip-path="url(#clipPath1)"
         id="text3145"
         style="stroke:none">NH       </text>
      <text
         font-size="52"
         x="394"
         y="611"
         clip-path="url(#clipPath1)"
         xml:space="preserve"
         id="text3147"
         style="font-size:52px;stroke:none">2       </text>
      <text
         xml:space="preserve"
         x="410"
         y="82"
         clip-path="url(#clipPath1)"
         id="text3149"
         style="stroke:none">I       </text>
      <text
         xml:space="preserve"
         x="588"
         y="194"
         clip-path="url(#clipPath1)"
         id="text3151"
         style="stroke:none">O       </text>
      <text
         xml:space="preserve"
         x="977"
         y="418"
         clip-path="url(#clipPath1)"
         id="text3153"
         style="stroke:none">OH       </text>
      <text
         xml:space="preserve"
         x="799"
         y="530"
         clip-path="url(#clipPath1)"
         id="text3155"
         style="stroke:none">I       </text>
      <text
         xml:space="preserve"
         x="604"
         y="418"
         clip-path="url(#clipPath1)"
         id="text3157"
         style="stroke:none">I       </text>
      <text
         xml:space="preserve"
         x="102"
         y="699"
         clip-path="url(#clipPath1)"
         id="text3159"
         style="stroke:none">OH       </text>
      <text
         xml:space="preserve"
         x="5"
         y="530"
         clip-path="url(#clipPath1)"
         id="text3161"
         style="stroke:none">O       </text>
      <line
         clip-path="url(#clipPath2)"
         x1="288.56973"
         x2="279.64157"
         y1="533.31219"
         y2="548.77625"
         id="line3163"
         style="fill:none;stroke-width:4.66337109;stroke-linecap:round;stroke-linejoin:bevel" />
      <line
         clip-path="url(#clipPath2)"
         x1="277.38965"
         x2="270.03705"
         y1="528.6767"
         y2="541.4118"
         id="line3165"
         style="fill:none;stroke-width:4.66337109;stroke-linecap:round;stroke-linejoin:bevel" />
      <line
         clip-path="url(#clipPath2)"
         x1="266.20956"
         x2="260.43253"
         y1="524.04114"
         y2="534.0473"
         id="line3167"
         style="fill:none;stroke-width:4.66337109;stroke-linecap:round;stroke-linejoin:bevel" />
      <line
         clip-path="url(#clipPath2)"
         x1="255.0295"
         x2="250.82799"
         y1="519.40564"
         y2="526.6828"
         id="line3169"
         style="fill:none;stroke-width:4.66337109;stroke-linecap:round;stroke-linejoin:bevel" />
      <line
         clip-path="url(#clipPath2)"
         x1="243.84941"
         x2="241.22346"
         y1="514.77008"
         y2="519.31836"
         id="line3171"
         style="fill:none;stroke-width:4.66337109;stroke-linecap:round;stroke-linejoin:bevel" />
      <line
         clip-path="url(#clipPath2)"
         x1="232.66931"
         x2="231.61894"
         y1="510.13458"
         y2="511.95389"
         id="line3173"
         style="fill:none;stroke-width:4.66337109;stroke-linecap:round;stroke-linejoin:bevel" />
      <line
         clip-path="url(#clipPath2)"
         x1="225.21593"
         x2="225.21593"
         y1="507.04422"
         y2="394.83185"
         id="line3175"
         style="fill:none;stroke-width:4.66337109;stroke-linecap:round;stroke-linejoin:bevel" />
      <line
         clip-path="url(#clipPath2)"
         x1="225.21593"
         x2="322.39468"
         y1="394.83185"
         y2="338.72568"
         id="line3177"
         style="fill:none;stroke-width:4.66337109;stroke-linecap:round;stroke-linejoin:bevel" />
      <line
         clip-path="url(#clipPath2)"
         x1="322.39468"
         x2="322.39468"
         y1="338.72568"
         y2="226.51331"
         id="line3179"
         style="fill:none;stroke-width:4.66337109;stroke-linecap:round;stroke-linejoin:bevel" />
      <line
         clip-path="url(#clipPath2)"
         x1="342.59293"
         x2="342.59293"
         y1="327.06421"
         y2="238.17476"
         id="line3181"
         style="fill:none;stroke-width:4.66337109;stroke-linecap:round;stroke-linejoin:bevel" />
      <line
         clip-path="url(#clipPath2)"
         x1="322.39468"
         x2="419.57346"
         y1="226.51331"
         y2="170.40712"
         id="line3183"
         style="fill:none;stroke-width:4.66337109;stroke-linecap:round;stroke-linejoin:bevel" />
      <line
         clip-path="url(#clipPath2)"
         x1="419.57346"
         x2="419.57346"
         y1="170.40712"
         y2="102.03536"
         id="line3185"
         style="fill:none;stroke-width:4.66337109;stroke-linecap:round;stroke-linejoin:bevel" />
      <line
         clip-path="url(#clipPath2)"
         x1="419.57346"
         x2="516.7522"
         y1="170.40712"
         y2="226.51331"
         id="line3187"
         style="fill:none;stroke-width:4.66337109;stroke-linecap:round;stroke-linejoin:bevel" />
      <line
         clip-path="url(#clipPath2)"
         x1="419.57346"
         x2="496.55399"
         y1="193.73003"
         y2="238.17476"
         id="line3189"
         style="fill:none;stroke-width:4.66337109;stroke-linecap:round;stroke-linejoin:bevel" />
      <line
         clip-path="url(#clipPath2)"
         x1="516.7522"
         x2="575.96387"
         y1="226.51331"
         y2="192.32742"
         id="line3191"
         style="fill:none;stroke-width:4.66337109;stroke-linecap:round;stroke-linejoin:bevel" />
      <line
         clip-path="url(#clipPath2)"
         x1="651.89807"
         x2="711.10974"
         y1="192.32742"
         y2="226.51331"
         id="line3193"
         style="fill:none;stroke-width:4.66337109;stroke-linecap:round;stroke-linejoin:bevel" />
      <line
         clip-path="url(#clipPath2)"
         x1="711.10974"
         x2="808.28851"
         y1="226.51331"
         y2="170.40712"
         id="line3195"
         style="fill:none;stroke-width:4.66337109;stroke-linecap:round;stroke-linejoin:bevel" />
      <line
         clip-path="url(#clipPath2)"
         x1="731.30798"
         x2="808.28851"
         y1="238.17476"
         y2="193.73003"
         id="line3197"
         style="fill:none;stroke-width:4.66337109;stroke-linecap:round;stroke-linejoin:bevel" />
      <line
         clip-path="url(#clipPath2)"
         x1="808.28851"
         x2="905.46729"
         y1="170.40712"
         y2="226.51331"
         id="line3199"
         style="fill:none;stroke-width:4.66337109;stroke-linecap:round;stroke-linejoin:bevel" />
      <line
         clip-path="url(#clipPath2)"
         x1="905.46729"
         x2="905.46729"
         y1="226.51331"
         y2="338.72568"
         id="line3201"
         style="fill:none;stroke-width:4.66337109;stroke-linecap:round;stroke-linejoin:bevel" />
      <line
         clip-path="url(#clipPath2)"
         x1="885.26904"
         x2="885.26904"
         y1="238.17476"
         y2="327.06421"
         id="line3203"
         style="fill:none;stroke-width:4.66337109;stroke-linecap:round;stroke-linejoin:bevel" />
      <line
         clip-path="url(#clipPath2)"
         x1="905.46729"
         x2="964.67896"
         y1="338.72568"
         y2="372.91156"
         id="line3205"
         style="fill:none;stroke-width:4.66337109;stroke-linecap:round;stroke-linejoin:bevel" />
      <line
         clip-path="url(#clipPath2)"
         x1="905.46729"
         x2="808.28851"
         y1="338.72568"
         y2="394.83185"
         id="line3207"
         style="fill:none;stroke-width:4.66337109;stroke-linecap:round;stroke-linejoin:bevel" />
      <line
         clip-path="url(#clipPath2)"
         x1="808.28851"
         x2="808.28851"
         y1="394.83185"
         y2="463.20361"
         id="line3209"
         style="fill:none;stroke-width:4.66337109;stroke-linecap:round;stroke-linejoin:bevel" />
      <line
         clip-path="url(#clipPath2)"
         x1="808.28851"
         x2="711.10974"
         y1="394.83185"
         y2="338.72568"
         id="line3211"
         style="fill:none;stroke-width:4.66337109;stroke-linecap:round;stroke-linejoin:bevel" />
      <line
         clip-path="url(#clipPath2)"
         x1="808.28851"
         x2="731.30798"
         y1="371.50894"
         y2="327.06421"
         id="line3213"
         style="fill:none;stroke-width:4.66337109;stroke-linecap:round;stroke-linejoin:bevel" />
      <line
         clip-path="url(#clipPath2)"
         x1="711.10974"
         x2="711.10974"
         y1="226.51331"
         y2="338.72568"
         id="line3215"
         style="fill:none;stroke-width:4.66337109;stroke-linecap:round;stroke-linejoin:bevel" />
      <line
         clip-path="url(#clipPath2)"
         x1="516.7522"
         x2="516.7522"
         y1="226.51331"
         y2="338.72568"
         id="line3217"
         style="fill:none;stroke-width:4.66337109;stroke-linecap:round;stroke-linejoin:bevel" />
      <line
         clip-path="url(#clipPath2)"
         x1="516.7522"
         x2="575.96387"
         y1="338.72568"
         y2="372.91156"
         id="line3219"
         style="fill:none;stroke-width:4.66337109;stroke-linecap:round;stroke-linejoin:bevel" />
      <line
         clip-path="url(#clipPath2)"
         x1="516.7522"
         x2="419.57346"
         y1="338.72568"
         y2="394.83185"
         id="line3221"
         style="fill:none;stroke-width:4.66337109;stroke-linecap:round;stroke-linejoin:bevel" />
      <line
         clip-path="url(#clipPath2)"
         x1="496.55399"
         x2="419.57346"
         y1="327.06421"
         y2="371.50894"
         id="line3223"
         style="fill:none;stroke-width:4.66337109;stroke-linecap:round;stroke-linejoin:bevel" />
      <line
         clip-path="url(#clipPath2)"
         x1="322.39468"
         x2="419.57346"
         y1="338.72568"
         y2="394.83185"
         id="line3225"
         style="fill:none;stroke-width:4.66337109;stroke-linecap:round;stroke-linejoin:bevel" />
      <line
         clip-path="url(#clipPath2)"
         x1="225.21593"
         x2="128.03717"
         y1="507.04422"
         y2="563.15039"
         id="line3227"
         style="fill:none;stroke-width:4.66337109;stroke-linecap:round;stroke-linejoin:bevel" />
      <line
         clip-path="url(#clipPath2)"
         x1="128.03717"
         x2="128.03717"
         y1="563.15039"
         y2="631.52216"
         id="line3229"
         style="fill:none;stroke-width:4.66337109;stroke-linecap:round;stroke-linejoin:bevel" />
      <line
         clip-path="url(#clipPath2)"
         x1="128.03717"
         x2="63.775936"
         y1="574.81189"
         y2="537.71063"
         id="line3231"
         style="fill:none;stroke-width:4.66337109;stroke-linecap:round;stroke-linejoin:bevel" />
      <line
         clip-path="url(#clipPath2)"
         x1="138.13628"
         x2="73.875046"
         y1="557.3197"
         y2="520.21844"
         id="line3233"
         style="fill:none;stroke-width:4.66337109;stroke-linecap:round;stroke-linejoin:bevel" />
    </g>
  </g>
</svg>
