<?xml version="1.0" encoding="UTF-8"?>
<svg width="564pt" version="1.1" xmlns="http://www.w3.org/2000/svg" height="566.64pt" viewBox="0 0 564 566.64" xmlns:xlink="http://www.w3.org/1999/xlink">
 <defs>
  <clipPath id="Clip0">
   <path d="M0 0 L513.579 0 L513.579 564.719 L0 564.719 L0 0 Z" transform="translate(25.0907, 0.840354)"/>
  </clipPath>
 </defs>
 <g id="Background">
  <g id="Group1" clip-path="url(#Clip0)">
   <path style="fill:#000000; fill-rule:evenodd;stroke:none;" d="M0 44.6861 L0 0 L6.06586 0 L29.5368 35.0844 L29.5368 0 L35.2064 0 L35.2064 44.6861 L29.1405 44.6861 L5.6696 9.57124 L5.6696 44.6861 L0 44.6861 Z" transform="translate(421.708, 448.963)"/>
   <path style="fill:#000000; fill-rule:evenodd;stroke:none;" d="M0 44.6861 L0 0 L6.06586 0 L29.5368 35.0844 L29.5368 0 L35.2064 0 L35.2064 44.6861 L29.1405 44.6861 L5.6696 9.57124 L5.6696 44.6861 L0 44.6861 Z" transform="translate(265.161, 177.648)"/>
   <path style="fill:none;stroke:#000000; stroke-width:4.56194; stroke-linecap:round; stroke-linejoin:bevel; stroke-dasharray:none;" d="M0 0 L0 58.5848 " transform="translate(438.667, 504.694)"/>
   <path style="fill:none;stroke:#000000; stroke-width:4.56194; stroke-linecap:round; stroke-linejoin:bevel; stroke-dasharray:none;" d="M0 28.332 L48.9808 0 " transform="translate(467.959, 427.381)"/>
   <path style="fill:none;stroke:#000000; stroke-width:4.56194; stroke-linecap:round; stroke-linejoin:bevel; stroke-dasharray:none;" d="M0 90.2782 L0 0 " transform="translate(360.393, 337.103)"/>
   <path style="fill:none;stroke:#000000; stroke-width:4.56194; stroke-linecap:round; stroke-linejoin:bevel; stroke-dasharray:none;" d="M78.5134 45.3792 L0 0 " transform="translate(281.88, 291.724)"/>
   <path style="fill:none;stroke:#000000; stroke-width:4.56194; stroke-linecap:round; stroke-linejoin:bevel; stroke-dasharray:none;" d="M0 45.3792 L78.2733 0 " transform="translate(360.393, 291.724)"/>
   <path style="fill:none;stroke:#000000; stroke-width:4.56194; stroke-linecap:round; stroke-linejoin:bevel; stroke-dasharray:none;" d="M52.1022 0 L0 24.9706 " transform="translate(311.413, 162.069)"/>
   <path style="fill:none;stroke:#000000; stroke-width:4.56194; stroke-linecap:round; stroke-linejoin:bevel; stroke-dasharray:none;" d="M51.8621 24.9706 L0 0 " transform="translate(200.485, 162.069)"/>
   <path style="fill:none;stroke:#000000; stroke-width:4.56194; stroke-linecap:round; stroke-linejoin:bevel; stroke-dasharray:none;" d="M66.5083 0 L0 61.466 " transform="translate(133.977, 162.069)"/>
   <path style="fill:none;stroke:#000000; stroke-width:4.56194; stroke-linecap:round; stroke-linejoin:bevel; stroke-dasharray:none;" d="M55.9438 0 L0 52.1021 " transform="translate(127.974, 154.625)"/>
   <path style="fill:none;stroke:#000000; stroke-width:4.56194; stroke-linecap:round; stroke-linejoin:bevel; stroke-dasharray:none;" d="M86.4368 26.6513 L0 0 " transform="translate(47.5402, 196.883)"/>
   <path style="fill:none;stroke:#000000; stroke-width:4.56194; stroke-linecap:round; stroke-linejoin:bevel; stroke-dasharray:none;" d="M20.1686 88.3574 L0 0 " transform="translate(27.3716, 108.526)"/>
   <path style="fill:none;stroke:#000000; stroke-width:4.56194; stroke-linecap:round; stroke-linejoin:bevel; stroke-dasharray:none;" d="M17.0473 74.6716 L0 0 " transform="translate(45.1392, 111.647)"/>
   <path style="fill:none;stroke:#000000; stroke-width:4.56194; stroke-linecap:round; stroke-linejoin:bevel; stroke-dasharray:none;" d="M0 61.466 L66.5083 0 " transform="translate(27.3716, 47.0599)"/>
   <path style="fill:none;stroke:#000000; stroke-width:4.56194; stroke-linecap:round; stroke-linejoin:bevel; stroke-dasharray:none;" d="M0 0 L86.4368 26.6513 " transform="translate(93.8799, 47.0599)"/>
   <path style="fill:none;stroke:#000000; stroke-width:4.56194; stroke-linecap:round; stroke-linejoin:bevel; stroke-dasharray:none;" d="M0 0 L73.2312 22.5696 " transform="translate(95.5607, 65.0676)"/>
   <path style="fill:none;stroke:#000000; stroke-width:4.56194; stroke-linecap:round; stroke-linejoin:bevel; stroke-dasharray:none;" d="M20.1686 88.3574 L0 0 " transform="translate(180.317, 73.7112)"/>
   <path style="fill:none;stroke:#000000; stroke-width:4.56194; stroke-linecap:round; stroke-linejoin:bevel; stroke-dasharray:none;" d="M0 70.5899 L56.424 0 " transform="translate(180.317, 3.12132)"/>
   <path style="fill:none;stroke:#000000; stroke-width:4.56194; stroke-linecap:round; stroke-linejoin:bevel; stroke-dasharray:none;" d="M0 0 L90.5185 0 " transform="translate(236.741, 3.12132)"/>
   <path style="fill:none;stroke:#000000; stroke-width:4.56194; stroke-linecap:round; stroke-linejoin:bevel; stroke-dasharray:none;" d="M0 0 L56.424 70.5899 " transform="translate(327.259, 3.12132)"/>
   <path style="fill:none;stroke:#000000; stroke-width:4.56194; stroke-linecap:round; stroke-linejoin:bevel; stroke-dasharray:none;" d="M0 88.3574 L20.1686 0 " transform="translate(363.515, 73.7112)"/>
   <path style="fill:none;stroke:#000000; stroke-width:4.56194; stroke-linecap:round; stroke-linejoin:bevel; stroke-dasharray:none;" d="M0 26.6513 L86.4368 0 " transform="translate(383.683, 47.0599)"/>
   <path style="fill:none;stroke:#000000; stroke-width:4.56194; stroke-linecap:round; stroke-linejoin:bevel; stroke-dasharray:none;" d="M0 22.5696 L72.9911 0 " transform="translate(395.208, 65.0676)"/>
   <path style="fill:none;stroke:#000000; stroke-width:4.56194; stroke-linecap:round; stroke-linejoin:bevel; stroke-dasharray:none;" d="M0 0 L66.2682 61.466 " transform="translate(470.12, 47.0599)"/>
   <path style="fill:none;stroke:#000000; stroke-width:4.56194; stroke-linecap:round; stroke-linejoin:bevel; stroke-dasharray:none;" d="M20.1686 0 L0 88.3574 " transform="translate(516.22, 108.526)"/>
   <path style="fill:none;stroke:#000000; stroke-width:4.56194; stroke-linecap:round; stroke-linejoin:bevel; stroke-dasharray:none;" d="M17.0473 0 L0 74.6716 " transform="translate(501.573, 111.647)"/>
   <path style="fill:none;stroke:#000000; stroke-width:4.56194; stroke-linecap:round; stroke-linejoin:bevel; stroke-dasharray:none;" d="M86.4368 0 L0 26.6513 " transform="translate(429.783, 196.883)"/>
   <path style="fill:none;stroke:#000000; stroke-width:4.56194; stroke-linecap:round; stroke-linejoin:bevel; stroke-dasharray:none;" d="M0 0 L66.2682 61.466 " transform="translate(363.515, 162.069)"/>
   <path style="fill:none;stroke:#000000; stroke-width:4.56194; stroke-linecap:round; stroke-linejoin:bevel; stroke-dasharray:none;" d="M0 0 L56.1839 52.1021 " transform="translate(379.842, 154.625)"/>
   <path style="fill:none;stroke:#000000; stroke-width:4.56194; stroke-linecap:round; stroke-linejoin:bevel; stroke-dasharray:none;" d="M0 58.3447 L0 0 " transform="translate(281.88, 233.379)"/>
   <path style="fill:none;stroke:#000000; stroke-width:4.56194; stroke-linecap:round; stroke-linejoin:bevel; stroke-dasharray:none;" d="M48.5006 28.0919 L0 0 " transform="translate(360.393, 427.381)"/>
  </g>
 </g>
</svg>