<?xml version="1.0" encoding="utf-8"?>
<!-- Generator: Adobe Illustrator 21.0.0, SVG Export Plug-In . SVG Version: 6.00 Build 0)  -->
<svg version="1.1" id="Слой_1" xmlns="http://www.w3.org/2000/svg" xmlns:xlink="http://www.w3.org/1999/xlink" x="0px" y="0px"
	 viewBox="0 0 528.4 475.4" style="enable-background:new 0 0 528.4 475.4;" xml:space="preserve" width="528.4" height="475.4">
<g>
	<rect x="123.7" y="64" width="2.4" height="45.6"/>
	<rect x="161.4" y="119.9" transform="matrix(0.8661 -0.4998 0.4998 0.8661 -35.8476 108.2759)" width="45.6" height="2.4"/>
	<rect x="183" y="29.8" transform="matrix(0.4997 -0.8662 0.8662 0.4997 46.5749 185.879)" width="2.4" height="45.6"/>
	<rect x="12.3" y="47.5" transform="matrix(0.8661 -0.4998 0.4998 0.8661 -20.2281 21.9527)" width="37.2" height="2.4"/>
	<rect x="29.6" y="106.4" transform="matrix(0.5001 -0.866 0.866 0.5001 -92.7423 89.06)" width="2.4" height="37"/>
	<polygon points="312.4,233.3 312,235.7 316.1,235.7 315.7,233.3 	"/>
	<polygon points="310.3,245.3 317.8,245.3 317.4,242.9 310.7,242.9 	"/>
	<polygon points="308.6,254.9 319.5,254.9 319.1,252.5 309,252.5 	"/>
	<polygon points="306.9,264.5 321.2,264.5 320.8,262.1 307.3,262.1 	"/>
	<path d="M513,231.9l1.2-2.1l-49.3-28.5v-56.9h-2.4v56.9l-44.1,25.5l-53.2-25.5v-54.8v-2v-0.7l-2.3-1.3l0,0l-31.6-18.2l-1.2,2.1
		l32.8,18.9v1.3v54.9l-47.6,27.5l0,0l-1.1,0.6l-1.1-0.6l0,0l-47.6-27.5V200v-54.9l32.8-18.9l-1.2-2.1L264.2,143l-48.7-28.1V58.7
		l47.6-27.5l0,0l1.1-0.6l1.1,0.6l0,0l47.6,27.5V60v34.4h2.4V60v-2v-0.7l-0.6-0.3l0,0l-0.4-0.2L313,56l0,0L265,28.3l-0.8-0.5
		l-0.7,0.4l-49.1,28.4l-49.1-28.4l-0.7-0.4l-2.4,1.3l0,0l-47.5,27.4L83,38.4l-1.2,2.1l31.6,18.2v56.2L82,133l1.2,2.1l31.4-18.1
		l47.5,27.4l0,0l2.4,1.3l0.7-0.4l49.1-28.4l47.1,27.2l-34.5,13l7.6,13.2l28.5-23.4V200v2v0.7l2.3,1.3l0,0l48.2,27.8l0,0l0.6,0.4
		l0.6-0.4l0,0l49.2-28.4l44,32.2l13.2-7.6l0,0l42.7-24.6L513,231.9z M165.6,142.4l-1.1,0.7l-48.7-28.1V58.7l48.7-28.1l1.1,0.7l0,0
		l47.6,27.5v56.2L165.6,142.4L165.6,142.4z M364,202L364,202L364,202L364,202z"/>
	<polygon points="269.4,312.9 235.3,293.1 234,295.2 267,314.2 265.3,315.2 265.3,315.2 263,316.5 263,317.2 263,319.2 263,321.1 
		230,302.1 228.8,304.2 263,323.9 263,372.8 263,374.1 230.2,393.1 231.4,395.1 263.1,376.9 263.1,376.9 265.4,375.5 265.4,374.8 
		265.4,372.8 265.4,319.2 265.4,317.9 297,299.7 295.8,297.6 	"/>
	<polygon points="303.5,390.7 297.6,400.9 299.6,402.3 305.7,391.7 	"/>
	<polygon points="289.9,395.2 291.8,396.6 296.9,387.9 294.6,386.9 	"/>
	<polygon points="312.4,394.6 305.4,406.7 307.4,408.1 314.6,395.6 	"/>
	<polygon points="274.3,383.7 276.2,385.2 279.2,380.1 277,379.1 	"/>
	<polygon points="266.5,378 268.4,379.5 270.3,376.2 268.1,375.3 	"/>
	<polygon points="282.1,389.5 284,390.9 288,384 285.8,383 	"/>
	<polygon points="363.4,373.8 315.2,401.6 315.2,401.6 312.9,402.9 312.9,403.6 312.9,405.6 312.9,461.2 315.3,461.2 315.3,405.6 
		315.3,404.3 364.6,375.9 	"/>
	<polygon points="303.1,100.8 303.1,129.5 306.7,129.5 306.7,107.1 306.8,107.1 321.2,129.5 325,129.5 325,100.8 321.4,100.8 
		321.4,123.2 321.4,123.2 307,100.8 	"/>
	<path d="M71.7,16c-3.1-1.8-7-1.8-7-1.8c-3.9,0-7,1.8-7,1.8c-3.1,1.8-4.9,5.2-4.9,5.2C51,24.6,51,29,51,29c0,4.4,1.8,7.7,1.8,7.7
		c1.8,3.4,4.9,5.2,4.9,5.2c3.1,1.8,7,1.8,7,1.8c3.9,0,7-1.8,7-1.8c3.1-1.8,4.9-5.2,4.9-5.2c1.8-3.4,1.8-7.8,1.8-7.8
		c0-4.5-1.8-7.8-1.8-7.8C74.8,17.8,71.7,16,71.7,16z M73.2,35.2c-1.3,2.6-3.5,4-3.5,4c-2.2,1.4-5.1,1.4-5.1,1.4c-2.8,0-5-1.4-5-1.4
		c-2.2-1.4-3.5-4-3.5-4c-1.2-2.6-1.2-6.1-1.2-6.1c0-3.6,1.2-6.2,1.2-6.2c1.2-2.6,3.4-4,3.4-4c2.2-1.4,5.1-1.4,5.1-1.4
		c2.9,0,5.1,1.4,5.1,1.4c2.2,1.4,3.4,4,3.4,4c1.2,2.6,1.2,6.2,1.2,6.2C74.4,32.6,73.2,35.2,73.2,35.2z"/>
	<path d="M71.7,131.2c-3.1-1.8-7-1.8-7-1.8c-3.9,0-7,1.8-7,1.8c-3.1,1.8-4.9,5.2-4.9,5.2c-1.8,3.4-1.8,7.8-1.8,7.8
		c0,4.4,1.8,7.7,1.8,7.7c1.8,3.4,4.9,5.2,4.9,5.2c3.1,1.8,7,1.8,7,1.8c3.9,0,7-1.8,7-1.8c3.1-1.8,4.9-5.2,4.9-5.2
		c1.8-3.4,1.8-7.8,1.8-7.8c0-4.5-1.8-7.8-1.8-7.8C74.8,133,71.7,131.2,71.7,131.2z M73.2,150.4c-1.3,2.6-3.5,4-3.5,4
		c-2.2,1.4-5.1,1.4-5.1,1.4c-2.8,0-5-1.4-5-1.4c-2.2-1.4-3.5-4-3.5-4c-1.2-2.6-1.2-6.1-1.2-6.1c0-3.6,1.2-6.2,1.2-6.2
		c1.2-2.6,3.4-4,3.4-4c2.2-1.4,5.1-1.4,5.1-1.4c2.9,0,5.1,1.4,5.1,1.4c2.2,1.4,3.4,4,3.4,4c1.2,2.6,1.2,6.2,1.2,6.2
		C74.4,147.8,73.2,150.4,73.2,150.4z"/>
	<polygon points="203.5,158.4 203.5,187.1 207.3,187.1 207.3,173.6 221.4,173.6 221.4,187.1 225.2,187.1 225.2,158.4 221.4,158.4 
		221.4,170.2 207.3,170.2 207.3,158.4 	"/>
	<path d="M302.2,280.4c-1.8,3.4-1.8,7.8-1.8,7.8c0,4.4,1.8,7.7,1.8,7.7c1.8,3.4,4.9,5.2,4.9,5.2c3.1,1.8,7.1,1.8,7.1,1.8
		c3.9,0,7-1.8,7-1.8c3.1-1.8,4.9-5.2,4.9-5.2c1.8-3.4,1.8-7.8,1.8-7.8c0-4.5-1.8-7.8-1.8-7.8c-1.8-3.4-4.9-5.2-4.9-5.2
		c-3.1-1.8-7-1.8-7-1.8c-3.9,0-7,1.8-7,1.8C303.9,277.1,302.2,280.4,302.2,280.4z M309,278c2.2-1.4,5.1-1.4,5.1-1.4
		c2.9,0,5.1,1.4,5.1,1.4c2.2,1.4,3.5,4,3.5,4c1.2,2.6,1.2,6.2,1.2,6.2c0,3.6-1.2,6.2-1.2,6.2c-1.2,2.6-3.5,4-3.5,4
		c-2.2,1.4-5,1.4-5,1.4c-2.8,0-5.1-1.4-5.1-1.4c-2.2-1.4-3.4-4-3.4-4c-1.2-2.6-1.2-6.1-1.2-6.1c0-3.6,1.2-6.2,1.2-6.2
		C306.8,279.4,309,278,309,278z"/>
	<path d="M221.4,275.2c-3.1-1.8-7-1.8-7-1.8c-3.9,0-7,1.8-7,1.8c-3.1,1.8-4.9,5.2-4.9,5.2c-1.8,3.4-1.8,7.8-1.8,7.8
		c0,4.4,1.8,7.7,1.8,7.7c1.8,3.4,4.9,5.2,4.9,5.2c3.1,1.8,7,1.8,7,1.8c3.9,0,7-1.8,7-1.8c3.1-1.8,4.9-5.2,4.9-5.2
		c1.8-3.4,1.8-7.8,1.8-7.8c0-4.5-1.8-7.8-1.8-7.8C224.4,277,221.4,275.2,221.4,275.2z M222.8,294.4c-1.2,2.6-3.5,4-3.5,4
		c-2.2,1.4-5,1.4-5,1.4c-2.8,0-5.1-1.4-5.1-1.4c-2.2-1.4-3.4-4-3.4-4c-1.3-2.6-1.3-6.1-1.3-6.1c0-3.6,1.2-6.2,1.2-6.2
		c1.2-2.6,3.4-4,3.4-4c2.2-1.4,5.1-1.4,5.1-1.4c2.9,0,5.1,1.4,5.1,1.4c2.2,1.4,3.4,4,3.4,4c1.2,2.6,1.2,6.2,1.2,6.2
		C224.1,291.8,222.8,294.4,222.8,294.4z"/>
	<polygon points="221.7,411.2 221.6,411.2 207.2,388.8 203.3,388.8 203.3,417.5 206.9,417.5 206.9,395.1 207,395.1 221.4,417.5 
		225.3,417.5 225.3,388.8 221.7,388.8 	"/>
	<polygon points="178.2,400.6 164.2,400.6 164.2,388.8 160.4,388.8 160.4,417.5 164.2,417.5 164.2,404 178.2,404 178.2,417.5 
		182,417.5 182,388.8 178.2,388.8 	"/>
	<path d="M190.6,420c0.7-0.7,1.7-1.6,1.7-1.6l1.9-1.6c2.5-2.1,3.8-3.9,3.8-3.9c1.3-1.8,1.3-3.7,1.3-3.7c0-1.5-0.8-2.8-0.8-2.8
		c-0.8-1.3-2.2-2-2.2-2c-1.4-0.7-3.3-0.7-3.3-0.7c-1.8,0-3.3,0.7-3.3,0.7c-1.4,0.7-2.2,2-2.2,2c-0.8,1.3-1,3-1,3l2.6,0.4
		c0.1-2,1.1-3,1.1-3c1-1,2.8-1,2.8-1c1,0,1.9,0.4,1.9,0.4c0.8,0.5,1.4,1.2,1.4,1.2c0.5,0.8,0.5,1.8,0.5,1.8c0,1.4-1,2.8-1,2.8
		c-1.1,1.5-3.4,3.4-3.4,3.4l-1.6,1.3c-2.4,2-3.6,3.6-3.6,3.6c-1.2,1.7-1.2,3.4-1.2,3.4h13.3v-2.4h-9.8
		C189.9,420.7,190.6,420,190.6,420z"/>
</g>
</svg>
