<?xml version="1.0" encoding="UTF-8" standalone="no"?>
<svg
   xmlns:dc="http://purl.org/dc/elements/1.1/"
   xmlns:cc="http://creativecommons.org/ns#"
   xmlns:rdf="http://www.w3.org/1999/02/22-rdf-syntax-ns#"
   xmlns:svg="http://www.w3.org/2000/svg"
   xmlns="http://www.w3.org/2000/svg"
   viewBox="0 0 283.46808 123.29042"
   height="123.29043"
   width="283.46808"
   xml:space="preserve"
   id="svg2"
   version="1.1"><metadata
     id="metadata8"><rdf:RDF><cc:Work
         rdf:about=""><dc:format>image/svg+xml</dc:format><dc:type
           rdf:resource="http://purl.org/dc/dcmitype/StillImage" /><dc:title></dc:title></cc:Work></rdf:RDF></metadata><defs
     id="defs6" /><g
     transform="matrix(1.3333333,0,0,-1.3333333,49.462902,98.24007)"
     id="g10"><g
       transform="matrix(0.15,0,0,0.15,-34.601674,-14.857446)"
       id="g12"><g
         id="g151"><path
           d="m 687,381.5 6,-3.5 V 183.5 l -3,-2 -3,2"
           style="fill:#000000;fill-opacity:1;fill-rule:nonzero;stroke:none"
           id="path14" /><g
           id="g16"
           transform="scale(10)"><g
             aria-label="O"
             transform="matrix(1,0,0,-1,82.25,43.95)"
             style="font-variant:normal;font-weight:normal;font-size:10px;font-family:Helvetica;-inkscape-font-specification:Helvetica;writing-mode:lr-tb;fill:#000000;fill-opacity:1;fill-rule:nonzero;stroke:none"
             id="text20"><path
               d="m 0.48339844,-3.4863281 q 0,-1.7822266 0.95703126,-2.788086 0.9570312,-1.0107421 2.4707031,-1.0107421 0.9912109,0 1.7871094,0.4736328 0.7958984,0.4736328 1.2109375,1.3232422 0.4199219,0.8447265 0.4199219,1.9189453 0,1.0888671 -0.4394532,1.9482422 -0.4394531,0.85937495 -1.2451172,1.30371089 -0.805664,0.43945312 -1.7382812,0.43945312 -1.0107422,0 -1.8066406,-0.48828125 Q 1.3037109,-0.85449219 0.89355469,-1.6992187 0.48339844,-2.5439453 0.48339844,-3.4863281 Z m 0.97656246,0.014648 q 0,1.2939453 0.6933594,2.0410156 0.6982422,0.74218754 1.7480469,0.74218754 1.0693359,0 1.7578125,-0.75195314 0.6933594,-0.7519531 0.6933594,-2.1337891 0,-0.8740234 -0.2978516,-1.5234374 Q 5.7617187,-5.7519535 5.1904297,-6.1083988 4.6240234,-6.469727 3.9160156,-6.469727 q -1.0058593,0 -1.7333984,0.6933594 -0.7226563,0.6884766 -0.7226563,2.3046875 z"
               id="path82" /></g></g><path
           d="m 813.5,454.5 3,-5 L 693,378 l -6,3.5 z"
           style="fill:#000000;fill-opacity:1;fill-rule:nonzero;stroke:none"
           id="path22" /><g
           id="g24"
           transform="scale(10)"><g
             aria-label="O"
             transform="matrix(1,0,0,-1,47.95,43.95)"
             style="font-variant:normal;font-weight:normal;font-size:10px;font-family:Helvetica;-inkscape-font-specification:Helvetica;writing-mode:lr-tb;fill:#000000;fill-opacity:1;fill-rule:nonzero;stroke:none"
             id="text28"><path
               d="m 0.48339844,-3.4863281 q 0,-1.7822266 0.95703126,-2.788086 0.9570312,-1.0107421 2.4707031,-1.0107421 0.9912109,0 1.7871094,0.4736328 0.7958984,0.4736328 1.2109375,1.3232422 0.4199219,0.8447265 0.4199219,1.9189453 0,1.0888671 -0.4394532,1.9482422 -0.4394531,0.85937495 -1.2451172,1.30371089 -0.805664,0.43945312 -1.7382812,0.43945312 -1.0107422,0 -1.8066406,-0.48828125 Q 1.3037109,-0.85449219 0.89355469,-1.6992187 0.48339844,-2.5439453 0.48339844,-3.4863281 Z m 0.97656246,0.014648 q 0,1.2939453 0.6933594,2.0410156 0.6982422,0.74218754 1.7480469,0.74218754 1.0693359,0 1.7578125,-0.75195314 0.6933594,-0.7519531 0.6933594,-2.1337891 0,-0.8740234 -0.2978516,-1.5234374 Q 5.7617187,-5.7519535 5.1904297,-6.1083988 4.6240234,-6.469727 3.9160156,-6.469727 q -1.0058593,0 -1.7333984,0.6933594 -0.7226563,0.6884766 -0.7226563,2.3046875 z"
               id="path85" /></g></g><path
           d="m 554.5,434 3,5 134,-77.5 -3,-5 z"
           style="fill:#000000;fill-opacity:1;fill-rule:nonzero;stroke:none"
           id="path30" /><path
           d="m 572,464.5 3,5.5 134,-77.5 -3,-5 z"
           style="fill:#000000;fill-opacity:1;fill-rule:nonzero;stroke:none"
           id="path32" /><path
           d="M 861.5,86 V 79 L 690,178 v 3.5 l 3,2"
           style="fill:#000000;fill-opacity:1;fill-rule:nonzero;stroke:none"
           id="path34" /><path
           d="m 1032.5,185 v -7 l -171,-99 v 7 z"
           style="fill:#000000;fill-opacity:1;fill-rule:nonzero;stroke:none"
           id="path36" /><g
           id="g38"
           transform="scale(10)"><g
             aria-label="CH"
             transform="matrix(1,0,0,-1,116.8,4.35)"
             style="font-variant:normal;font-weight:normal;font-size:10px;font-family:Helvetica;-inkscape-font-specification:Helvetica;writing-mode:lr-tb;fill:#000000;fill-opacity:1;fill-rule:nonzero;stroke:none"
             id="text42"><path
               d="m 5.8789062,-2.5097656 0.9472657,0.2392578 q -0.2978516,1.1669922 -1.0742188,1.78222655 -0.7714844,0.61035156 -1.8896484,0.61035156 -1.1572266,0 -1.8847656,-0.46875 Q 1.2548828,-0.8203125 0.87402344,-1.7138672 0.49804688,-2.6074219 0.49804688,-3.6328125 q 0,-1.1181641 0.42480468,-1.9482422 0.42968754,-0.8349609 1.21582034,-1.2646484 0.7910156,-0.4345703 1.7382812,-0.4345703 1.0742188,0 1.8066406,0.546875 0.7324219,0.546875 1.0205079,1.5380859 l -0.9326172,0.2197266 q -0.2490235,-0.78125 -0.7226563,-1.1376953 -0.4736328,-0.3564454 -1.1914062,-0.3564454 -0.8251953,0 -1.381836,0.3955079 -0.5517578,0.3955078 -0.7763672,1.0644531 -0.2246093,0.6640625 -0.2246093,1.3720703 0,0.9130859 0.2636718,1.5966797 0.2685547,0.6787109 0.8300782,1.015625 0.5615234,0.33691404 1.2158203,0.33691404 0.7958984,0 1.3476562,-0.45898434 0.5517578,-0.4589844 0.7470703,-1.3623047 z"
               id="path88" /><path
               d="M 8.020781,0 V -7.1582031 H 8.9680467 V -4.21875 H 12.68875 v -2.9394531 h 0.947265 V 0 H 12.68875 V -3.3740234 H 8.9680467 V 0 Z"
               id="path90" /></g><g
             aria-label="3"
             transform="matrix(1,0,0,-1,131.2398,2.475)"
             style="font-variant:normal;font-weight:normal;font-size:7.5px;font-family:Helvetica;-inkscape-font-specification:Helvetica;writing-mode:lr-tb;fill:#000000;fill-opacity:1;fill-rule:nonzero;stroke:none"
             id="text46"><path
               d="m 0.31494141,-1.4172363 0.65917968,-0.087891 q 0.11352541,0.56030278 0.38452151,0.80932622 0.2746582,0.24536133 0.6665039,0.24536133 0.4650879,0 0.7836914,-0.32226563 0.3222656,-0.32226562 0.3222656,-0.79833982 0,-0.4541016 -0.2966308,-0.7470703 -0.2966309,-0.2966309 -0.7543946,-0.2966309 -0.1867676,0 -0.4650879,0.073242 l 0.073242,-0.5786133 q 0.065918,0.00732 0.1062012,0.00732 0.4211426,0 0.7580566,-0.2197265 0.3369141,-0.2197266 0.3369141,-0.6774903 0,-0.3625488 -0.2453613,-0.6005859 -0.2453614,-0.2380371 -0.633545,-0.2380371 -0.3845214,0 -0.6408691,0.2416992 -0.2563477,0.2416992 -0.3295898,0.7250977 L 0.38085938,-3.9990234 q 0.1208496,-0.6628418 0.5493164,-1.0253907 0.42846682,-0.3662109 1.06567382,-0.3662109 0.4394531,0 0.8093262,0.1904297 0.369873,0.1867676 0.5639648,0.5126953 0.1977539,0.3259277 0.1977539,0.6921387 0,0.3479004 -0.1867675,0.6335449 -0.1867676,0.2856445 -0.5529786,0.4541016 0.4760743,0.1098632 0.7397461,0.4577636 0.2636719,0.3442383 0.2636719,0.8642578 0,0.70312504 -0.5126953,1.1938477 -0.5126953,0.48706054 -1.2963867,0.48706054 -0.7067871,0 -1.17553713,-0.42114257 Q 0.38085938,-0.74707031 0.31494141,-1.4172363 Z"
               id="path93" /></g></g><path
           d="m 1165,108.5 -3,-5 -129.5,74.5 v 7 z"
           style="fill:#000000;fill-opacity:1;fill-rule:nonzero;stroke:none"
           id="path48" /><path
           d="m 518.5,79 v 7 l 168.5,97.5 3,-2 V 178"
           style="fill:#000000;fill-opacity:1;fill-rule:nonzero;stroke:none"
           id="path50" /><path
           d="m 347,178 v 7 L 518.5,86 v -7 z"
           style="fill:#000000;fill-opacity:1;fill-rule:nonzero;stroke:none"
           id="path52" /><g
           id="g54"
           transform="scale(10)"><g
             aria-label="H"
             transform="matrix(1,0,0,-1,2.53555,4.35)"
             style="font-variant:normal;font-weight:normal;font-size:10px;font-family:Helvetica;-inkscape-font-specification:Helvetica;writing-mode:lr-tb;fill:#000000;fill-opacity:1;fill-rule:nonzero;stroke:none"
             id="text58"><path
               d="M 0.80078125,0 V -7.1582031 H 1.7480469 V -4.21875 H 5.46875 V -7.1582031 H 6.4160156 V 0 H 5.46875 V -3.3740234 H 1.7480469 V 0 Z"
               id="path96" /></g><g
             aria-label="3"
             transform="matrix(1,0,0,-1,9.75547,2.475)"
             style="font-variant:normal;font-weight:normal;font-size:7.5px;font-family:Helvetica;-inkscape-font-specification:Helvetica;writing-mode:lr-tb;fill:#000000;fill-opacity:1;fill-rule:nonzero;stroke:none"
             id="text62"><path
               d="m 0.31494141,-1.4172363 0.65917968,-0.087891 q 0.11352541,0.56030278 0.38452151,0.80932622 0.2746582,0.24536133 0.6665039,0.24536133 0.4650879,0 0.7836914,-0.32226563 0.3222656,-0.32226562 0.3222656,-0.79833982 0,-0.4541016 -0.2966308,-0.7470703 -0.2966309,-0.2966309 -0.7543946,-0.2966309 -0.1867676,0 -0.4650879,0.073242 l 0.073242,-0.5786133 q 0.065918,0.00732 0.1062012,0.00732 0.4211426,0 0.7580566,-0.2197265 0.3369141,-0.2197266 0.3369141,-0.6774903 0,-0.3625488 -0.2453613,-0.6005859 -0.2453614,-0.2380371 -0.633545,-0.2380371 -0.3845214,0 -0.6408691,0.2416992 -0.2563477,0.2416992 -0.3295898,0.7250977 L 0.38085938,-3.9990234 q 0.1208496,-0.6628418 0.5493164,-1.0253907 0.42846682,-0.3662109 1.06567382,-0.3662109 0.4394531,0 0.8093262,0.1904297 0.369873,0.1867676 0.5639648,0.5126953 0.1977539,0.3259277 0.1977539,0.6921387 0,0.3479004 -0.1867675,0.6335449 -0.1867676,0.2856445 -0.5529786,0.4541016 0.4760743,0.1098632 0.7397461,0.4577636 0.2636719,0.3442383 0.2636719,0.8642578 0,0.70312504 -0.5126953,1.1938477 -0.5126953,0.48706054 -1.2963867,0.48706054 -0.7067871,0 -1.17553713,-0.42114257 Q 0.38085938,-0.74707031 0.31494141,-1.4172363 Z"
               id="path99" /></g><g
             aria-label="C"
             transform="matrix(1,0,0,-1,13.92539,4.35)"
             style="font-variant:normal;font-weight:normal;font-size:10px;font-family:Helvetica;-inkscape-font-specification:Helvetica;writing-mode:lr-tb;fill:#000000;fill-opacity:1;fill-rule:nonzero;stroke:none"
             id="text66"><path
               d="m 5.8789062,-2.5097656 0.9472657,0.2392578 q -0.2978516,1.1669922 -1.0742188,1.78222655 -0.7714844,0.61035156 -1.8896484,0.61035156 -1.1572266,0 -1.8847656,-0.46875 Q 1.2548828,-0.8203125 0.87402344,-1.7138672 0.49804688,-2.6074219 0.49804688,-3.6328125 q 0,-1.1181641 0.42480468,-1.9482422 0.42968754,-0.8349609 1.21582034,-1.2646484 0.7910156,-0.4345703 1.7382812,-0.4345703 1.0742188,0 1.8066406,0.546875 0.7324219,0.546875 1.0205079,1.5380859 l -0.9326172,0.2197266 q -0.2490235,-0.78125 -0.7226563,-1.1376953 -0.4736328,-0.3564454 -1.1914062,-0.3564454 -0.8251953,0 -1.381836,0.3955079 -0.5517578,0.3955078 -0.7763672,1.0644531 -0.2246093,0.6640625 -0.2246093,1.3720703 0,0.9130859 0.2636718,1.5966797 0.2685547,0.6787109 0.8300782,1.015625 0.5615234,0.33691404 1.2158203,0.33691404 0.7958984,0 1.3476562,-0.45898434 0.5517578,-0.4589844 0.7470703,-1.3623047 z"
               id="path102" /></g></g><path
           d="m 219.5,105 -3,5 130.5,75 v -7 z"
           style="fill:#000000;fill-opacity:1;fill-rule:nonzero;stroke:none"
           id="path68" /><g
           id="g70"
           transform="matrix(10,0,0,10,0,-1.8896486)"><g
             aria-label="Na"
             transform="matrix(1,0,0,-1,108.3,44.2)"
             style="font-variant:normal;font-weight:normal;font-size:10px;font-family:Helvetica;-inkscape-font-specification:Helvetica;writing-mode:lr-tb;fill:#000000;fill-opacity:1;fill-rule:nonzero;stroke:none"
             id="text74"><path
               d="M 0.76171875,0 V -7.1582031 H 1.7333984 l 3.7597657,5.6201172 V -7.1582031 H 6.4013672 V 0 H 5.4296875 L 1.6699219,-5.625 V 0 Z"
               id="path105" /><path
               d="m 11.262969,-0.63964844 q -0.488282,0.41503906 -0.942383,0.5859375 -0.449219,0.17089844 -0.9667971,0.17089844 -0.8544922,0 -1.3134766,-0.41503906 -0.4589844,-0.41992188 -0.4589844,-1.06933594 0,-0.3808594 0.1708985,-0.6933594 0.1757812,-0.3173828 0.4541015,-0.5078125 0.2832031,-0.1904297 0.6347656,-0.2880859 0.2587891,-0.068359 0.78125,-0.131836 1.0644535,-0.1269531 1.5673825,-0.3027343 0.0049,-0.1806641 0.0049,-0.2294922 0,-0.5371094 -0.249023,-0.7568359 -0.336914,-0.2978516 -1.0009768,-0.2978516 -0.6201172,0 -0.9179688,0.2197266 -0.2929687,0.2148437 -0.4345703,0.7666015 l -0.859375,-0.1171875 q 0.1171875,-0.5517578 0.3857422,-0.8886719 0.2685547,-0.3417968 0.7763672,-0.5224609 0.5078125,-0.1855469 1.1767575,-0.1855469 0.664063,0 1.079102,0.15625 0.415039,0.15625 0.610351,0.3955078 0.195313,0.234375 0.273438,0.5957032 0.04395,0.2246093 0.04395,0.8105468 v 1.171875 q 0,1.22558597 0.05371,1.55273441 Q 12.190703,-0.29785156 12.356719,0 H 11.43875 q -0.136719,-0.2734375 -0.175781,-0.63964844 z m -0.07324,-1.96289066 q -0.478515,0.1953125 -1.4355465,0.3320313 -0.5419922,0.078125 -0.7666016,0.1757812 -0.2246094,0.097656 -0.3466797,0.288086 -0.1220703,0.1855469 -0.1220703,0.415039 0,0.3515625 0.2636719,0.58593754 0.2685547,0.234375 0.78125,0.234375 0.5078122,0 0.9033202,-0.21972656 0.395508,-0.22460938 0.581055,-0.61035158 0.141601,-0.2978515 0.141601,-0.8789062 z"
               id="path107" /></g></g><path
           d="m 899.5,523.5 h 33"
           style="fill:none;stroke:#000000;stroke-width:5;stroke-linecap:butt;stroke-linejoin:miter;stroke-miterlimit:4;stroke-dasharray:none;stroke-opacity:1"
           id="path76" /><g
           id="g112"
           transform="translate(0,-30.25)"><path
             id="path78"
             style="fill:none;stroke:#000000;stroke-width:5;stroke-linecap:butt;stroke-linejoin:miter;stroke-miterlimit:4;stroke-dasharray:none;stroke-opacity:1"
             d="m 1202.5,553.5 h 33" /><path
             id="path80"
             style="fill:none;stroke:#000000;stroke-width:5;stroke-linecap:butt;stroke-linejoin:miter;stroke-miterlimit:4;stroke-dasharray:none;stroke-opacity:1"
             d="M 1219,570.5 V 537" /></g></g></g></g></svg>