<?xml version="1.0" encoding="utf-8"?>
<!-- Generator: Adobe Illustrator 21.0.0, SVG Export Plug-In . SVG Version: 6.00 Build 0)  -->
<svg version="1.1" id="Слой_1" xmlns="http://www.w3.org/2000/svg" xmlns:xlink="http://www.w3.org/1999/xlink" x="0px" y="0px"
	 viewBox="0 0 391.9 172.2" style="enable-background:new 0 0 391.9 172.2;" xml:space="preserve" width="391.9" height="172.2">
<g>
	<rect x="186.2" y="63.8" width="2.4" height="45.6"/>
	<rect x="223.8" y="119.6" transform="matrix(0.8654 -0.501 0.501 0.8654 -27.326 139.8372)" width="45.6" height="2.4"/>
	<rect x="245.5" y="29.5" transform="matrix(0.5004 -0.8658 0.8658 0.5004 77.9091 239.7079)" width="2.4" height="45.6"/>
	<rect x="335.8" y="116.3" transform="matrix(0.8657 -0.5005 0.5005 0.8657 -11.537 192.013)" width="32.5" height="2.4"/>
	<rect x="350.9" y="39.4" transform="matrix(0.501 -0.8654 0.8654 0.501 127.5401 332.4688)" width="2.4" height="32.5"/>
	<path d="M310.8,39.5l-1.2-2.1l-32.8,18.9l-47.6-27.4l0,0l-1.7-1l0,0l0,0l-0.6-0.3l-0.6,0.3l0,0l-49.2,28.4l-42.8-34.2l0,0l-2-1.6
		l-2.5,0.6l0,0l-52.3,12l0,0L75,33.7l-0.2,0.5l0,0l-0.1,0.2L73.9,36l0,0L59.7,65.5l2.2,1l14.8-30.8l53.2-12.2l-27,60.2l0,0l-0.1,0.4
		l0,0h0l0,0h0l-0.9,2.4l0.9,2.4l0,0l0,0l0,0l0,0l0.1,0.4l0,0l27,60.2l-53.2-12.2l-15.3-31.8l-2.2,1l14.7,30.5l0,0l1.1,2.3l2.5,0.6
		l0,0l52.3,12l0,0l2.5,0.6l2-1.6l0,0l42.8-34.2l49.2,28.4l0,0l0.6,0.3l0.6-0.3l0,0l0.2-0.1l1.6-0.9l0,0l47.6-27.4l32.8,18.9l1.2-2.1
		L278,114.7V58.5L310.8,39.5z M226.9,142.8l-1.1-0.7l0,0l-47.6-27.5V58.5L225.8,31l0,0l1.1-0.6l48.7,28.1v56.2L226.9,142.8z
		 M175.8,114.8l-43.1,34.4l-15.1-62.6l15.1-62.6l43.1,34.4V114.8z M109.9,86.6L109.9,86.6L109.9,86.6L109.9,86.6L109.9,86.6z"/>
	<polygon points="61.8,71.8 58.2,71.8 58.2,94.1 58.1,94.1 43.8,71.8 39.9,71.8 39.9,100.4 43.5,100.4 43.5,78 43.5,78 57.9,100.4 
		61.8,100.4 	"/>
	<polygon points="32.1,83.5 18,83.5 18,71.8 14.2,71.8 14.2,100.4 18,100.4 18,86.9 32.1,86.9 32.1,100.4 35.9,100.4 35.9,71.8 
		32.1,71.8 	"/>
	<polygon points="334.1,151.7 334,151.7 319.6,129.4 315.7,129.4 315.7,158 319.3,158 319.3,135.6 319.4,135.6 333.8,158 337.7,158 
		337.7,129.4 334.1,129.4 	"/>
	<polygon points="377.2,56.7 377.2,56.7 343.8,37.4 342.6,39.5 374.2,57.8 374.2,57.8 375.4,58.5 375.4,59.8 375.4,113.4 
		375.4,114.7 374.2,115.3 374.2,115.3 342.6,133.6 343.8,135.7 377.2,116.4 377.2,116.4 377.8,116.1 377.8,115.4 377.8,113.4 
		377.8,59.8 377.8,57.8 377.8,57.1 	"/>
	<polygon points="319.3,20.4 319.4,20.4 333.8,42.8 337.7,42.8 337.7,14.2 334.1,14.2 334.1,36.5 334,36.5 319.6,14.2 315.7,14.2 
		315.7,42.8 319.3,42.8 	"/>
</g>
</svg>
