<?xml version="1.0" encoding="UTF-8" standalone="no"?>
<!-- Created with Inkscape (http://www.inkscape.org/) -->

<svg
   width="372.67853mm"
   height="230.02081mm"
   viewBox="0 0 372.67853 230.02081"
   version="1.1"
   id="svg1"
   inkscape:version="1.4 (86a8ad7, 2024-10-11)"
   sodipodi:docname="Venlafaxine_enantiomers_labelled.svg"
   xmlns:inkscape="http://www.inkscape.org/namespaces/inkscape"
   xmlns:sodipodi="http://sodipodi.sourceforge.net/DTD/sodipodi-0.dtd"
   xmlns="http://www.w3.org/2000/svg"
   xmlns:svg="http://www.w3.org/2000/svg">
  <sodipodi:namedview
     id="namedview1"
     pagecolor="#ffffff"
     bordercolor="#000000"
     borderopacity="0.25"
     inkscape:showpageshadow="2"
     inkscape:pageopacity="0.0"
     inkscape:pagecheckerboard="0"
     inkscape:deskcolor="#d1d1d1"
     inkscape:document-units="mm"
     inkscape:zoom="0.73851712"
     inkscape:cx="1097.4695"
     inkscape:cy="11.50955"
     inkscape:window-width="1920"
     inkscape:window-height="1009"
     inkscape:window-x="-8"
     inkscape:window-y="-8"
     inkscape:window-maximized="1"
     inkscape:current-layer="layer1" />
  <defs
     id="defs1" />
  <g
     inkscape:label="Layer 1"
     inkscape:groupmode="layer"
     id="layer1"
     transform="translate(143.89665)">
    <path
       fill="none"
       stroke-width="1.31961"
       stroke-linecap="butt"
       stroke-linejoin="miter"
       stroke="#000000"
       stroke-opacity="1"
       stroke-miterlimit="10"
       d="m -82.284519,229.44942 18.109514,-10.4562"
       id="path15" />
    <path
       fill="none"
       stroke-width="1.31961"
       stroke-linecap="butt"
       stroke-linejoin="miter"
       stroke="#000000"
       stroke-opacity="1"
       stroke-miterlimit="10"
       d="M -51.809878,199.90087 V 176.28472"
       id="path16" />
    <path
       fill="none"
       stroke-width="1.31961"
       stroke-linecap="butt"
       stroke-linejoin="miter"
       stroke="#000000"
       stroke-opacity="1"
       stroke-miterlimit="10"
       d="m -82.643129,158.87907 30.833251,17.78598"
       id="path17" />
    <path
       fill="none"
       stroke-width="1.31961"
       stroke-linecap="butt"
       stroke-linejoin="miter"
       stroke="#000000"
       stroke-opacity="1"
       stroke-miterlimit="10"
       d="m -77.716309,156.03378 25.903334,14.94171"
       id="path18" />
    <path
       fill="none"
       stroke-width="1.31961"
       stroke-linecap="butt"
       stroke-linejoin="miter"
       stroke="#000000"
       stroke-opacity="1"
       stroke-miterlimit="10"
       d="m -52.13957,176.85524 31.275622,-18.0847"
       id="path19" />
    <path
       fill="none"
       stroke-width="1.31961"
       stroke-linecap="butt"
       stroke-linejoin="miter"
       stroke="#000000"
       stroke-opacity="1"
       stroke-miterlimit="10"
       d="m -21.193639,159.34621 -0.231513,-35.95439"
       id="path20" />
    <path
       fill="none"
       stroke-width="1.31961"
       stroke-linecap="butt"
       stroke-linejoin="miter"
       stroke="#000000"
       stroke-opacity="1"
       stroke-miterlimit="10"
       d="m -26.138057,156.51436 -0.195338,-30.25864"
       id="path21" />
    <path
       fill="none"
       stroke-width="1.31961"
       stroke-linecap="butt"
       stroke-linejoin="miter"
       stroke="#000000"
       stroke-opacity="1"
       stroke-miterlimit="10"
       d="M -21.09444,123.96027 -52.143687,106.14121"
       id="path22" />
    <path
       fill="none"
       stroke-width="1.31961"
       stroke-linecap="butt"
       stroke-linejoin="miter"
       stroke="#000000"
       stroke-opacity="1"
       stroke-miterlimit="10"
       d="m -51.811955,106.33138 -30.821884,17.82215"
       id="path23" />
    <path
       fill="none"
       stroke-width="1.31961"
       stroke-linecap="butt"
       stroke-linejoin="miter"
       stroke="#000000"
       stroke-opacity="1"
       stroke-miterlimit="10"
       d="m -51.802629,112.01682 -25.90541,14.97894"
       id="path24" />
    <path
       fill="none"
       stroke-width="1.31961"
       stroke-linecap="butt"
       stroke-linejoin="miter"
       stroke="#000000"
       stroke-opacity="1"
       stroke-miterlimit="10"
       d="m -82.304149,123.58198 -0.009,35.86864"
       id="path25" />
    <path
       fill="none"
       stroke-width="1.31961"
       stroke-linecap="butt"
       stroke-linejoin="miter"
       stroke="#000000"
       stroke-opacity="1"
       stroke-miterlimit="10"
       d="M -21.66701,53.355783 -2.2046363,64.593365"
       id="path26" />
    <path
       fill="none"
       stroke-width="1.31961"
       stroke-linecap="butt"
       stroke-linejoin="miter"
       stroke="#000000"
       stroke-opacity="1"
       stroke-miterlimit="10"
       d="M 20.480293,64.593365 39.612975,53.547003"
       id="path27" />
    <path
       fill="none"
       stroke-width="1.31961"
       stroke-linecap="butt"
       stroke-linejoin="miter"
       stroke="#000000"
       stroke-opacity="1"
       stroke-miterlimit="10"
       d="M 9.1383387,82.864078 V 106.33138"
       id="path28" />
    <path
       fill="none"
       stroke-width="1.31961"
       stroke-linecap="butt"
       stroke-linejoin="miter"
       stroke="#000000"
       stroke-opacity="1"
       stroke-miterlimit="10"
       d="M -113.0919,71.332978 -82.287609,53.547003"
       id="path29" />
    <path
       fill="none"
       stroke-width="1.31961"
       stroke-linecap="butt"
       stroke-linejoin="miter"
       stroke="#000000"
       stroke-opacity="1"
       stroke-miterlimit="10"
       d="M -81.957889,18.546564 -113.0919,0.57140847"
       id="path30" />
    <path
       fill="none"
       stroke-width="1.31961"
       stroke-linecap="butt"
       stroke-linejoin="miter"
       stroke="#000000"
       stroke-opacity="1"
       stroke-miterlimit="10"
       d="M -112.43252,0.57140847 -143.56655,18.547584"
       id="path31" />
    <path
       fill="none"
       stroke-width="1.31961"
       stroke-linecap="butt"
       stroke-linejoin="miter"
       stroke="#000000"
       stroke-opacity="1"
       stroke-miterlimit="10"
       d="M -143.23685,17.976035 V 53.928352"
       id="path32" />
    <path
       fill="none"
       stroke-width="1.31961"
       stroke-linecap="butt"
       stroke-linejoin="miter"
       stroke="#000000"
       stroke-opacity="1"
       stroke-miterlimit="10"
       d="m -143.56655,53.356838 31.13505,17.97614"
       id="path33" />
    <path
       fill="none"
       stroke-width="1.31961"
       stroke-linecap="butt"
       stroke-linejoin="miter"
       stroke="#000000"
       stroke-opacity="1"
       stroke-miterlimit="10"
       d="M -82.287609,53.547003 V 17.976035"
       id="path34" />
    <path
       fill="none"
       stroke-width="1.31961"
       stroke-linecap="butt"
       stroke-linejoin="miter"
       stroke="#000000"
       stroke-opacity="1"
       stroke-miterlimit="10"
       d="m -82.287609,53.547003 14.034307,-14.03431"
       id="path35" />
    <path
       fill-rule="nonzero"
       fill="#000000"
       fill-opacity="1"
       d="m -52.14164,70.570238 -20.89278,7.74424 4.398698,7.61917 17.153474,-14.22032"
       id="path36"
       style="stroke-width:0.264583" />
    <path
       fill="none"
       stroke-width="1.31961"
       stroke-linecap="butt"
       stroke-linejoin="miter"
       stroke="#000000"
       stroke-opacity="1"
       stroke-miterlimit="10"
       d="M -51.811955,71.141798 -82.287609,53.547003"
       id="path37" />
    <path
       fill="none"
       stroke-width="1.31961"
       stroke-linecap="butt"
       stroke-linejoin="miter"
       stroke="#000000"
       stroke-opacity="1"
       stroke-miterlimit="10"
       d="M -51.811955,71.141798 -21.006571,53.355783"
       id="path38" />
    <path
       fill="none"
       stroke-width="1.31961"
       stroke-linecap="butt"
       stroke-linejoin="miter"
       stroke="#000000"
       stroke-opacity="1"
       stroke-miterlimit="10"
       d="M -51.811955,106.71273 V 71.141798"
       id="path39" />
    <path
       fill="none"
       stroke-width="1.31961"
       stroke-linecap="butt"
       stroke-linejoin="miter"
       stroke="#000000"
       stroke-opacity="1"
       stroke-miterlimit="10"
       d="m 167.16971,229.44942 -18.10948,-10.4562"
       id="path40" />
    <path
       fill="none"
       stroke-width="1.31961"
       stroke-linecap="butt"
       stroke-linejoin="miter"
       stroke="#000000"
       stroke-opacity="1"
       stroke-miterlimit="10"
       d="M 136.6951,199.90083 V 176.28366"
       id="path41" />
    <path
       fill="none"
       stroke-width="1.31961"
       stroke-linecap="butt"
       stroke-linejoin="miter"
       stroke="#000000"
       stroke-opacity="1"
       stroke-miterlimit="10"
       d="M 167.52836,158.87801 136.6951,176.66505"
       id="path42" />
    <path
       fill="none"
       stroke-width="1.31961"
       stroke-linecap="butt"
       stroke-linejoin="miter"
       stroke="#000000"
       stroke-opacity="1"
       stroke-miterlimit="10"
       d="M 162.60153,156.03375 136.6982,170.97549"
       id="path43" />
    <path
       fill="none"
       stroke-width="1.31961"
       stroke-linecap="butt"
       stroke-linejoin="miter"
       stroke="#000000"
       stroke-opacity="1"
       stroke-miterlimit="10"
       d="M 137.0248,176.85521 105.74917,158.77055"
       id="path44" />
    <path
       fill="none"
       stroke-width="1.31961"
       stroke-linecap="butt"
       stroke-linejoin="miter"
       stroke="#000000"
       stroke-opacity="1"
       stroke-miterlimit="10"
       d="m 106.07887,159.34621 0.23151,-35.95439"
       id="path45" />
    <path
       fill="none"
       stroke-width="1.31961"
       stroke-linecap="butt"
       stroke-linejoin="miter"
       stroke="#000000"
       stroke-opacity="1"
       stroke-miterlimit="10"
       d="m 111.02328,156.51433 0.19534,-30.25963"
       id="path46" />
    <path
       fill="none"
       stroke-width="1.31961"
       stroke-linecap="butt"
       stroke-linejoin="miter"
       stroke="#000000"
       stroke-opacity="1"
       stroke-miterlimit="10"
       d="m 105.97967,123.95922 31.04924,-17.81906"
       id="path47" />
    <path
       fill="none"
       stroke-width="1.31961"
       stroke-linecap="butt"
       stroke-linejoin="miter"
       stroke="#000000"
       stroke-opacity="1"
       stroke-miterlimit="10"
       d="m 136.69715,106.33033 30.82192,17.8232"
       id="path48" />
    <path
       fill="none"
       stroke-width="1.31961"
       stroke-linecap="butt"
       stroke-linejoin="miter"
       stroke="#000000"
       stroke-opacity="1"
       stroke-miterlimit="10"
       d="m 136.68786,112.01577 25.90541,14.97995"
       id="path49" />
    <path
       fill="none"
       stroke-width="1.31961"
       stroke-linecap="butt"
       stroke-linejoin="miter"
       stroke="#000000"
       stroke-opacity="1"
       stroke-miterlimit="10"
       d="m 167.18934,123.58198 0.009,35.8686"
       id="path50" />
    <path
       fill="none"
       stroke-width="1.31961"
       stroke-linecap="butt"
       stroke-linejoin="miter"
       stroke="#000000"
       stroke-opacity="1"
       stroke-miterlimit="10"
       d="M 106.55224,53.355789 87.089867,64.592315"
       id="path51" />
    <path
       fill="none"
       stroke-width="1.31961"
       stroke-linecap="butt"
       stroke-linejoin="miter"
       stroke="#000000"
       stroke-opacity="1"
       stroke-miterlimit="10"
       d="M 64.404937,64.592315 45.272255,53.545954"
       id="path52" />
    <path
       fill="none"
       stroke-width="1.31961"
       stroke-linecap="butt"
       stroke-linejoin="miter"
       stroke="#000000"
       stroke-opacity="1"
       stroke-miterlimit="10"
       d="M 75.746892,82.864053 V 106.33033"
       id="path53" />
    <path
       fill="none"
       stroke-width="1.31961"
       stroke-linecap="butt"
       stroke-linejoin="miter"
       stroke="#000000"
       stroke-opacity="1"
       stroke-miterlimit="10"
       d="M 197.97713,71.33193 167.1728,53.545954"
       id="path54" />
    <path
       fill="none"
       stroke-width="1.31961"
       stroke-linecap="butt"
       stroke-linejoin="miter"
       stroke="#000000"
       stroke-opacity="1"
       stroke-miterlimit="10"
       d="M 166.84311,18.546535 197.97713,0.57140876"
       id="path55" />
    <path
       fill="none"
       stroke-width="1.31961"
       stroke-linecap="butt"
       stroke-linejoin="miter"
       stroke="#000000"
       stroke-opacity="1"
       stroke-miterlimit="10"
       d="M 197.31775,0.57140876 228.45177,18.547556"
       id="path56" />
    <path
       fill="none"
       stroke-width="1.31961"
       stroke-linecap="butt"
       stroke-linejoin="miter"
       stroke="#000000"
       stroke-opacity="1"
       stroke-miterlimit="10"
       d="M 228.12208,17.976041 V 53.928359"
       id="path57" />
    <path
       fill="none"
       stroke-width="1.31961"
       stroke-linecap="butt"
       stroke-linejoin="miter"
       stroke="#000000"
       stroke-opacity="1"
       stroke-miterlimit="10"
       d="M 228.45177,53.356809 197.31673,71.33193"
       id="path58" />
    <path
       fill="none"
       stroke-width="1.31961"
       stroke-linecap="butt"
       stroke-linejoin="miter"
       stroke="#000000"
       stroke-opacity="1"
       stroke-miterlimit="10"
       d="M 167.1728,53.545954 V 17.974986"
       id="path59" />
    <path
       fill="none"
       stroke-width="1.31961"
       stroke-linecap="butt"
       stroke-linejoin="miter"
       stroke="#000000"
       stroke-opacity="1"
       stroke-miterlimit="10"
       d="M 167.1728,53.545954 153.13853,39.511679"
       id="path60" />
    <path
       fill-rule="nonzero"
       fill="#000000"
       fill-opacity="1"
       d="m 136.36747,71.712285 17.15346,14.221358 4.3987,-7.619179 -20.89277,-7.74423"
       id="path61"
       style="stroke-width:0.264583" />
    <path
       fill="none"
       stroke-width="1.31961"
       stroke-linecap="butt"
       stroke-linejoin="miter"
       stroke="#000000"
       stroke-opacity="1"
       stroke-miterlimit="10"
       d="M 136.69715,71.140745 167.1728,53.545954"
       id="path62" />
    <path
       fill="none"
       stroke-width="1.31961"
       stroke-linecap="butt"
       stroke-linejoin="miter"
       stroke="#000000"
       stroke-opacity="1"
       stroke-miterlimit="10"
       d="M 136.69715,71.140745 105.89285,53.355789"
       id="path63" />
    <path
       fill="none"
       stroke-width="1.31961"
       stroke-linecap="butt"
       stroke-linejoin="miter"
       stroke="#000000"
       stroke-opacity="1"
       stroke-miterlimit="10"
       d="M 136.69715,106.71273 V 71.140745"
       id="path64" />
    <g
       fill="#000000"
       fill-opacity="1"
       id="g64"
       transform="matrix(0.26458333,0,0,0.26458333,-144.48639,-46.371454)">
      <g
         id="use64"
         transform="translate(317.8125,1005.6875)">
        <path
           d="m 59.84375,-29.765625 c 0,6.15625 -1.042969,11.523437 -3.125,16.09375 -2.074219,4.574219 -5.132812,8.136719 -9.171875,10.6875 -4.042969,2.542969 -9.058594,3.8125 -15.046875,3.8125 -6.148438,0 -11.257812,-1.269531 -15.328125,-3.8125 C 13.097656,-5.535156 10.0625,-9.109375 8.0625,-13.703125 6.070312,-18.304688 5.078125,-23.6875 5.078125,-29.84375 c 0,-6.09375 0.992187,-11.410156 2.984375,-15.953125 2,-4.550781 5.035156,-8.097656 9.109375,-10.640625 4.070313,-2.550781 9.207031,-3.828125 15.40625,-3.828125 5.9375,0 10.925781,1.261719 14.96875,3.78125 4.039063,2.523437 7.097656,6.070313 9.171875,10.640625 2.082031,4.574219 3.125,9.933594 3.125,16.078125 z m -46.875,0 c 0,7.492187 1.578125,13.382813 4.734375,17.671875 3.15625,4.292969 8.085937,6.4375 14.796875,6.4375 6.757812,0 11.691406,-2.144531 14.796875,-6.4375 3.101563,-4.289062 4.65625,-10.179688 4.65625,-17.671875 0,-7.476563 -1.554687,-13.335937 -4.65625,-17.578125 -3.105469,-4.238281 -8.011719,-6.359375 -14.71875,-6.359375 -6.699219,0 -11.640625,2.121094 -14.828125,6.359375 -3.1875,4.242188 -4.78125,10.101562 -4.78125,17.578125 z m 0,0"
           id="path9" />
      </g>
    </g>
    <g
       fill="#000000"
       fill-opacity="1"
       id="g65"
       transform="matrix(0.26458333,0,0,0.26458333,-144.48639,-46.371454)">
      <g
         id="use65"
         transform="translate(549.03906,473.81641)">
        <path
           d="m 55.109375,0 h -8.71875 L 14.625,-49.296875 h -0.328125 c 0.113281,1.9375 0.253906,4.351563 0.421875,7.234375 0.164062,2.886719 0.25,5.851562 0.25,8.890625 V 0 H 8.0625 v -59.34375 h 8.640625 l 31.671875,49.125 h 0.34375 c -0.0625,-0.882812 -0.136719,-2.210938 -0.21875,-3.984375 -0.08594,-1.78125 -0.167969,-3.722656 -0.25,-5.828125 -0.08594,-2.101562 -0.125,-4.046875 -0.125,-5.828125 V -59.34375 h 6.984375 z m 0,0"
           id="path1" />
      </g>
    </g>
    <g
       fill="#000000"
       fill-opacity="1"
       id="g66"
       transform="matrix(0.26458333,0,0,0.26458333,-144.48639,-46.371454)">
      <g
         id="use66"
         transform="translate(296.66797,313.3125)">
        <path
           d="m 59.84375,-29.765625 c 0,6.15625 -1.042969,11.523437 -3.125,16.09375 -2.074219,4.574219 -5.132812,8.136719 -9.171875,10.6875 -4.042969,2.542969 -9.058594,3.8125 -15.046875,3.8125 -6.148438,0 -11.257812,-1.269531 -15.328125,-3.8125 C 13.097656,-5.535156 10.0625,-9.109375 8.0625,-13.703125 6.070312,-18.304688 5.078125,-23.6875 5.078125,-29.84375 c 0,-6.09375 0.992187,-11.410156 2.984375,-15.953125 2,-4.550781 5.035156,-8.097656 9.109375,-10.640625 4.070313,-2.550781 9.207031,-3.828125 15.40625,-3.828125 5.9375,0 10.925781,1.261719 14.96875,3.78125 4.039063,2.523437 7.097656,6.070313 9.171875,10.640625 2.082031,4.574219 3.125,9.933594 3.125,16.078125 z m -46.875,0 c 0,7.492187 1.578125,13.382813 4.734375,17.671875 3.15625,4.292969 8.085937,6.4375 14.796875,6.4375 6.757812,0 11.691406,-2.144531 14.796875,-6.4375 3.101563,-4.289062 4.65625,-10.179688 4.65625,-17.671875 0,-7.476563 -1.554687,-13.335937 -4.65625,-17.578125 -3.105469,-4.238281 -8.011719,-6.359375 -14.71875,-6.359375 -6.699219,0 -11.640625,2.121094 -14.828125,6.359375 -3.1875,4.242188 -4.78125,10.101562 -4.78125,17.578125 z m 0,0"
           id="path10" />
      </g>
    </g>
    <g
       fill="#000000"
       fill-opacity="1"
       id="g67"
       transform="matrix(0.26458333,0,0,0.26458333,-144.48639,-46.371454)">
      <g
         id="use67"
         transform="translate(352.88672,312.39844)">
        <path
           d="M 53.453125,0 H 45.96875 V -27.6875 H 15.546875 V 0 H 8.0625 v -59.34375 h 7.484375 V -34.25 H 45.96875 v -25.09375 h 7.484375 z m 0,0"
           id="path4" />
      </g>
    </g>
    <g
       fill="#000000"
       fill-opacity="1"
       id="g68"
       transform="matrix(0.26458333,0,0,0.26458333,-144.48639,-46.371454)">
      <g
         id="use68"
         transform="translate(204.32812,540.31641)">
        <path
           d="M 53.453125,0 H 45.96875 V -27.6875 H 15.546875 V 0 H 8.0625 v -59.34375 h 7.484375 V -34.25 H 45.96875 v -25.09375 h 7.484375 z m 0,0"
           id="path5" />
      </g>
    </g>
    <g
       fill="#000000"
       fill-opacity="1"
       id="g69"
       transform="matrix(0.26458333,0,0,0.26458333,-170.41381,-34.393899)">
      <g
         id="use69"
         transform="translate(1128.2656,960.41797)">
        <path
           d="m 59.84375,-29.765625 c 0,6.15625 -1.042969,11.523437 -3.125,16.09375 -2.074219,4.574219 -5.132812,8.136719 -9.171875,10.6875 -4.042969,2.542969 -9.058594,3.8125 -15.046875,3.8125 -6.148438,0 -11.257812,-1.269531 -15.328125,-3.8125 C 13.097656,-5.535156 10.0625,-9.109375 8.0625,-13.703125 6.070312,-18.304688 5.078125,-23.6875 5.078125,-29.84375 c 0,-6.09375 0.992187,-11.410156 2.984375,-15.953125 2,-4.550781 5.035156,-8.097656 9.109375,-10.640625 4.070313,-2.550781 9.207031,-3.828125 15.40625,-3.828125 5.9375,0 10.925781,1.261719 14.96875,3.78125 4.039063,2.523437 7.097656,6.070313 9.171875,10.640625 2.082031,4.574219 3.125,9.933594 3.125,16.078125 z m -46.875,0 c 0,7.492187 1.578125,13.382813 4.734375,17.671875 3.15625,4.292969 8.085937,6.4375 14.796875,6.4375 6.757812,0 11.691406,-2.144531 14.796875,-6.4375 3.101563,-4.289062 4.65625,-10.179688 4.65625,-17.671875 0,-7.476563 -1.554687,-13.335937 -4.65625,-17.578125 -3.105469,-4.238281 -8.011719,-6.359375 -14.71875,-6.359375 -6.699219,0 -11.640625,2.121094 -14.828125,6.359375 -3.1875,4.242188 -4.78125,10.101562 -4.78125,17.578125 z m 0,0"
           id="path11" />
      </g>
    </g>
    <g
       fill="#000000"
       fill-opacity="1"
       id="g70"
       transform="matrix(0.26458333,0,0,0.26458333,-170.41381,-34.393899)">
      <g
         id="use70"
         transform="translate(898.78516,428.54687)">
        <path
           d="m 55.109375,0 h -8.71875 L 14.625,-49.296875 h -0.328125 c 0.113281,1.9375 0.253906,4.351563 0.421875,7.234375 0.164062,2.886719 0.25,5.851562 0.25,8.890625 V 0 H 8.0625 v -59.34375 h 8.640625 l 31.671875,49.125 h 0.34375 c -0.0625,-0.882812 -0.136719,-2.210938 -0.21875,-3.984375 -0.08594,-1.78125 -0.167969,-3.722656 -0.25,-5.828125 -0.08594,-2.101562 -0.125,-4.046875 -0.125,-5.828125 V -59.34375 h 6.984375 z m 0,0"
           id="path3" />
      </g>
    </g>
    <g
       fill="#000000"
       fill-opacity="1"
       id="g71"
       transform="matrix(0.26458333,0,0,0.26458333,-170.41381,-34.393899)">
      <g
         id="use71"
         transform="translate(1149.4102,268.04297)">
        <path
           d="m 59.84375,-29.765625 c 0,6.15625 -1.042969,11.523437 -3.125,16.09375 -2.074219,4.574219 -5.132812,8.136719 -9.171875,10.6875 -4.042969,2.542969 -9.058594,3.8125 -15.046875,3.8125 -6.148438,0 -11.257812,-1.269531 -15.328125,-3.8125 C 13.097656,-5.535156 10.0625,-9.109375 8.0625,-13.703125 6.070312,-18.304688 5.078125,-23.6875 5.078125,-29.84375 c 0,-6.09375 0.992187,-11.410156 2.984375,-15.953125 2,-4.550781 5.035156,-8.097656 9.109375,-10.640625 4.070313,-2.550781 9.207031,-3.828125 15.40625,-3.828125 5.9375,0 10.925781,1.261719 14.96875,3.78125 4.039063,2.523437 7.097656,6.070313 9.171875,10.640625 2.082031,4.574219 3.125,9.933594 3.125,16.078125 z m -46.875,0 c 0,7.492187 1.578125,13.382813 4.734375,17.671875 3.15625,4.292969 8.085937,6.4375 14.796875,6.4375 6.757812,0 11.691406,-2.144531 14.796875,-6.4375 3.101563,-4.289062 4.65625,-10.179688 4.65625,-17.671875 0,-7.476563 -1.554687,-13.335937 -4.65625,-17.578125 -3.105469,-4.238281 -8.011719,-6.359375 -14.71875,-6.359375 -6.699219,0 -11.640625,2.121094 -14.828125,6.359375 -3.1875,4.242188 -4.78125,10.101562 -4.78125,17.578125 z m 0,0"
           id="path12" />
      </g>
    </g>
    <g
       fill="#000000"
       fill-opacity="1"
       id="g72"
       transform="matrix(0.26458333,0,0,0.26458333,-170.41381,-34.393899)">
      <g
         id="use72"
         transform="translate(1096.5977,267.12891)">
        <path
           d="M 53.453125,0 H 45.96875 V -27.6875 H 15.546875 V 0 H 8.0625 v -59.34375 h 7.484375 V -34.25 H 45.96875 v -25.09375 h 7.484375 z m 0,0"
           id="path6" />
      </g>
    </g>
    <g
       fill="#000000"
       fill-opacity="1"
       id="g73"
       transform="matrix(0.26458333,0,0,0.26458333,-170.41381,-34.393899)">
      <g
         id="use73"
         transform="translate(1245.1602,495.04687)">
        <path
           d="M 53.453125,0 H 45.96875 V -27.6875 H 15.546875 V 0 H 8.0625 v -59.34375 h 7.484375 V -34.25 H 45.96875 v -25.09375 h 7.484375 z m 0,0"
           id="path7" />
      </g>
    </g>
    <text
       xml:space="preserve"
       style="font-size:21.8722px;font-family:Arial;-inkscape-font-specification:Arial;text-align:start;writing-mode:lr-tb;direction:ltr;text-anchor:start;fill:#999999;stroke:#999999;stroke-width:0.2"
       x="-51.120945"
       y="87.02356"
       id="text12"><tspan
         sodipodi:role="line"
         id="tspan12"
         style="stroke-width:0.2"
         x="-51.120945"
         y="87.02356">(<tspan
   style="font-style:italic"
   id="tspan13">S</tspan>)</tspan></text>
    <text
       xml:space="preserve"
       style="font-size:21.8722px;font-family:Arial;-inkscape-font-specification:Arial;text-align:start;writing-mode:lr-tb;direction:ltr;text-anchor:start;fill:#999999;stroke:#999999;stroke-width:0.2"
       x="105.11005"
       y="85.220337"
       id="text12-1"><tspan
         sodipodi:role="line"
         id="tspan12-5"
         style="stroke-width:0.2"
         x="105.11005"
         y="85.220337">(<tspan
   style="font-style:italic"
   id="tspan14">R</tspan>)</tspan></text>
  </g>
</svg>
