<?xml version="1.0" encoding="utf-8"?>
<!-- Generator: Adobe Illustrator 27.0.0, SVG Export Plug-In . SVG Version: 6.00 Build 0)  -->
<svg version="1.1" id="Слой_1" xmlns="http://www.w3.org/2000/svg" xmlns:xlink="http://www.w3.org/1999/xlink" x="0px" y="0px"
	 viewBox="0 0 857.18 408.15" style="enable-background:new 0 0 857.18 408.15;" xml:space="preserve" width="857.18" height="408.15">
<style type="text/css">
	.st0{fill:none;}
</style>
<path class="st0" d="z"/>
<g>
	<rect x="588.2" y="225.78" width="2.4" height="45.63"/>
	<rect x="625.86" y="281.62" transform="matrix(0.8661 -0.4998 0.4998 0.8661 -54.5197 362.0757)" width="45.63" height="2.4"/>
	<rect x="647.47" y="191.56" transform="matrix(0.5 -0.866 0.866 0.5 138.6887 668.962)" width="2.4" height="45.63"/>
	<path d="M633.73,147.64c2.12,1.3,4.53,1.95,7.23,1.95c2.48,0,4.8-0.59,6.95-1.77s3.81-2.91,4.98-5.21s1.76-4.89,1.76-7.79
		c0-2.87-0.56-5.43-1.67-7.69c-1.11-2.26-2.73-4.02-4.85-5.28c-2.12-1.26-4.51-1.89-7.15-1.89c-4.04,0-7.33,1.34-9.88,4.03
		c-2.55,2.69-3.83,6.41-3.83,11.16c0,2.51,0.55,4.9,1.64,7.15S631.61,146.33,633.73,147.64z M634.07,125.99
		c1.93-1.84,4.24-2.76,6.93-2.76c1.89,0,3.59,0.48,5.11,1.44c1.52,0.96,2.67,2.3,3.46,4.04c0.79,1.74,1.18,3.77,1.18,6.1
		c0,3.69-0.92,6.53-2.77,8.54c-1.84,2.01-4.19,3.01-7.04,3.01c-2.8,0-5.13-0.99-6.98-2.98s-2.78-4.7-2.78-8.15
		C631.17,130.9,632.14,127.83,634.07,125.99z"/>
	<polygon points="692.87,139.24 690.67,140.22 707.97,179.08 710.17,178.1 	"/>
	<path d="M691.02,41.85c2.12,1.3,4.53,1.95,7.23,1.95c2.49,0,4.8-0.59,6.95-1.77s3.81-2.91,4.98-5.21s1.76-4.89,1.76-7.79
		c0-2.87-0.55-5.43-1.67-7.69s-2.73-4.02-4.86-5.28c-2.12-1.26-4.5-1.89-7.15-1.89c-4.04,0-7.33,1.34-9.88,4.03
		c-2.55,2.69-3.83,6.41-3.83,11.16c0,2.51,0.55,4.9,1.64,7.15S688.9,40.55,691.02,41.85z M691.36,20.2
		c1.93-1.84,4.24-2.76,6.92-2.76c1.89,0,3.59,0.48,5.11,1.44c1.52,0.96,2.67,2.3,3.46,4.04c0.79,1.74,1.18,3.77,1.18,6.1
		c0,3.69-0.92,6.53-2.76,8.54c-1.84,2.01-4.19,3.01-7.04,3.01c-2.8,0-5.12-0.99-6.98-2.98s-2.79-4.7-2.79-8.15
		C688.46,25.12,689.43,22.04,691.36,20.2z"/>
	<path d="M714.35,44.1l-2.08,1.2l18.62,32.25h-4.6l-2.3,3.98l-18.62-32.25l-2.08,1.2l19.31,33.45l-25.15,43.57l-36.82,3.87
		l0.25,2.39l36.55-3.84l22.72,51.03l-41.51,37.37l-48.37-27.93l7.36-34.65l-2.35-0.5l-7.44,34.98l-50.02,28.88v57.6l-29.19,16.85
		l1.2,2.08l29.19-16.85l49.88,28.8L680,278.09v-57.76l43.05-38.77l-23.52-52.86l28.14-48.75h39.06v-2.4h-33.07L714.35,44.1z
		 M628.92,304.81l-48.68-28.11v-56.22l48.68-28.11l48.68,28.11v56.22L628.92,304.81z"/>
	<polygon points="792.1,87.04 777.07,64.56 773.18,64.56 773.18,93.2 776.81,93.2 776.81,70.7 791.85,93.2 795.74,93.2 
		795.74,64.56 792.1,64.56 	"/>
	<polygon points="820.89,76.32 806.01,76.32 806.01,64.56 802.22,64.56 802.22,93.2 806.01,93.2 806.01,79.7 820.89,79.7 
		820.89,93.2 824.68,93.2 824.68,64.56 820.89,64.56 	"/>
	<path d="M832.48,98.44c0.29-0.48,0.66-0.95,1.11-1.43c0.45-0.47,1.46-1.37,3.05-2.7c1.89-1.6,3.25-2.86,4.07-3.78
		c0.82-0.92,1.4-1.79,1.75-2.62s0.53-1.67,0.53-2.54c0-1.69-0.6-3.11-1.8-4.25c-1.2-1.14-2.83-1.71-4.89-1.71
		c-2.04,0-3.67,0.53-4.88,1.59c-1.21,1.06-1.91,2.6-2.09,4.62l2.71,0.28c0.01-1.35,0.39-2.4,1.16-3.16s1.78-1.14,3.05-1.14
		c1.2,0,2.18,0.36,2.92,1.08c0.75,0.72,1.12,1.6,1.12,2.64c0,1-0.41,2.05-1.23,3.17c-0.82,1.12-2.4,2.63-4.73,4.55
		c-1.5,1.23-2.65,2.31-3.45,3.25s-1.38,1.89-1.74,2.86c-0.22,0.59-0.32,1.2-0.3,1.83h14.19v-2.54H832.48z"/>
	<polygon points="536.68,314.49 521.64,292.01 517.75,292.01 517.75,320.64 521.39,320.64 521.39,298.14 536.42,320.64 
		540.31,320.64 540.31,292.01 536.68,292.01 	"/>
	<polygon points="436.91,372.09 421.87,349.61 417.99,349.61 417.99,378.24 421.62,378.24 421.62,355.74 436.66,378.24 
		440.55,378.24 440.55,349.61 436.91,349.61 	"/>
	<polygon points="430.58,306.89 479.27,278.78 508.24,295.51 509.44,293.43 479.27,276.01 428.18,305.5 428.18,343.11 
		430.58,343.11 	"/>
	<polygon points="527.95,363.1 479.27,391.21 450.09,374.37 448.89,376.44 479.27,393.98 530.35,364.49 530.35,326.91 
		527.95,326.91 	"/>
	<path d="M379.5,391.21l-48.68-28.11v-57.6l-49.88-28.8v-56.3l46.81-34.01l-10.82-33.3l-2.28,0.74l10.28,31.64l-45.19,32.83
		l-45.19-32.83l17.26-53.12h38.88v-2.4h-39.22l-38.65-42.92l-57.7,12.26l-17.8,54.78l-55.66,11.83l-37.35,7.94l0.5,2.35l37.36-7.94
		l55.66-11.83l38.54,42.81l56.5-12.01l45.67,33.18v57.68l49.88,28.8v57.6l51.08,29.49l30.16-17.41l-1.2-2.08L379.5,391.21z
		 M177.22,196.6l-37.61-41.78l17.37-53.46l54.99-11.69l37.61,41.77l-17.37,53.46L177.22,196.6z"/>
	<polygon points="300.77,123.1 315.81,145.6 319.7,145.6 319.7,116.97 316.06,116.97 316.06,139.45 301.02,116.97 297.14,116.97 
		297.14,145.6 300.77,145.6 	"/>
	<polygon points="329.97,132.11 344.85,132.11 344.85,145.6 348.64,145.6 348.64,116.97 344.85,116.97 344.85,128.73 329.97,128.73 
		329.97,116.97 326.18,116.97 326.18,145.6 329.97,145.6 	"/>
	<rect x="275.67" y="193.28" transform="matrix(0.809 -0.5878 0.5878 0.809 -57.6017 211.6804)" width="42.54" height="2.4"/>
	<rect x="222.76" y="93.88" transform="matrix(0.7432 -0.6691 0.6691 0.7432 -20.5636 179.808)" width="2.4" height="45.63"/>
	<rect x="134.2" y="129.72" transform="matrix(0.3092 -0.951 0.951 0.3092 -16.0435 239.7611)" width="45.63" height="2.4"/>
	<rect x="180" y="180.59" transform="matrix(0.9781 -0.2083 0.2083 0.9781 -33.4125 46.2242)" width="45.63" height="2.4"/>
	<polygon points="33.1,187.35 18.06,164.87 14.17,164.87 14.17,193.51 17.81,193.51 17.81,171.01 32.84,193.51 36.73,193.51 
		36.73,164.87 33.1,164.87 	"/>
	<rect x="46.29" y="180" transform="matrix(0.9781 -0.2083 0.2083 0.9781 -36.3068 17.5937)" width="38.19" height="2.4"/>
	<rect x="41.98" y="159.71" transform="matrix(0.9781 -0.2079 0.2079 0.9781 -32.1215 16.2155)" width="38.19" height="2.4"/>
</g>
<path class="st0" d="z"/>
</svg>
