<?xml version="1.0" encoding="utf-8"?>
<!-- Generator: Adobe Illustrator 19.2.1, SVG Export Plug-In . SVG Version: 6.00 Build 0)  -->
<svg version="1.1" id="Слой_1" xmlns="http://www.w3.org/2000/svg" xmlns:xlink="http://www.w3.org/1999/xlink" x="0px" y="0px"
	 viewBox="0 0 415.4 288.9" style="enable-background:new 0 0 415.4 288.9;" xml:space="preserve" width="415.4" height="288.9">
<g>
	<rect x="24.5" y="193" width="2.4" height="45.6"/>
	<rect x="62.2" y="248.8" transform="matrix(0.8663 -0.4996 0.4996 0.8663 -113.5203 75.9016)" width="45.6" height="2.4"/>
	<rect x="83.8" y="158.7" transform="matrix(0.5 -0.866 0.866 0.5 -114.7219 164.4036)" width="2.4" height="45.6"/>
	<path d="M146.7,167.4l-31.6,18.2l-48.7-28.1v-35.9h-2.4v35.9l-49.3,28.5l-0.6,0.3v0.7v2v53.6v2l0,0.7l0.6,0.3l48.2,27.8v0l1.7,1
		l0.6,0.3l0.6-0.3l49.9-28.8l0.6-0.3v-0.7v-2v-54.9l31.6-18.2L146.7,167.4z M113.9,243.9l-1.1,0.7l0,0L65.3,272l-47.6-27.5l0,0
		l-1.1-0.7v-1.3V189v-1.3l1.1-0.7l0,0l47.6-27.5l48.7,28.1v54.9V243.9z"/>
	<polygon points="347.4,166.7 314.7,185.6 266,157.5 266,121.5 263.6,121.5 263.6,157.5 216,184.9 216,184.9 214.9,185.6 
		183.4,167.4 182.2,169.5 214.3,188 214.9,188.4 215.5,188 264.8,159.6 312.3,187 312.3,187 314.1,188 314.7,188.4 315.3,188 
		317,187 317,187 348.6,168.8 	"/>
	<polygon points="283.3,91.3 313.5,73.8 313.5,73.8 314.7,73.2 363.4,101.3 363.4,102.6 363.4,137 365.8,137 365.8,102.6 
		365.8,100.6 365.8,99.9 365.2,99.5 317,71.7 317,71.7 315.3,70.7 314.7,70.4 314.1,70.7 312.3,71.7 312.3,71.7 282.1,89.2 	"/>
	<polygon points="16.5,73.8 16.5,73.8 46.7,91.3 47.9,89.2 17.7,71.7 17.7,71.7 16.6,71.1 16.6,69.8 16.6,14.2 14.2,14.2 14.2,69.8 
		14.2,71.8 14.2,72.5 14.8,72.8 	"/>
	<path d="M58.2,113.3c2.1,1.2,4.4,1.9,7.1,1.9c2.6,0,4.9-0.6,7-1.8c2.1-1.2,3.7-2.9,4.9-5.2c1.2-2.2,1.8-4.8,1.8-7.8
		c0-3-0.6-5.6-1.8-7.8c-1.2-2.2-2.8-4-4.9-5.2c-2.1-1.2-4.4-1.8-7-1.8c-2.6,0-5,0.6-7,1.8c-2.1,1.2-3.7,3-4.9,5.2
		c-1.2,2.3-1.8,4.9-1.8,7.8c0,2.9,0.6,5.5,1.8,7.7C54.5,110.3,56.2,112,58.2,113.3z M56.7,94.2c0.8-1.8,2-3.1,3.4-4
		c1.5-0.9,3.2-1.4,5.1-1.4c1.9,0,3.6,0.5,5.1,1.4c1.5,0.9,2.6,2.3,3.4,4C74.6,96,75,98,75,100.4c0,2.4-0.4,4.4-1.2,6.2
		c-0.8,1.7-2,3.1-3.5,4c-1.5,0.9-3.2,1.4-5.1,1.4c-1.9,0-3.6-0.5-5-1.4c-1.5-0.9-2.6-2.2-3.5-4c-0.8-1.7-1.2-3.8-1.2-6.1
		C55.5,98,55.9,96,56.7,94.2z"/>
	<path d="M172.1,144.9c-2.1-1.2-4.4-1.8-7-1.8c-2.6,0-5,0.6-7,1.8c-2.1,1.2-3.7,3-4.9,5.2c-1.2,2.3-1.8,4.9-1.8,7.8
		c0,2.9,0.6,5.5,1.8,7.7c1.2,2.2,2.8,4,4.9,5.2c2.1,1.2,4.4,1.9,7.1,1.9c2.6,0,4.9-0.6,7-1.8c2.1-1.2,3.7-2.9,4.9-5.2
		c1.2-2.2,1.8-4.8,1.8-7.8c0-3-0.6-5.6-1.8-7.8C175.8,147.9,174.1,146.2,172.1,144.9z M173.6,164.2c-0.8,1.7-2,3.1-3.5,4
		c-1.5,0.9-3.2,1.4-5.1,1.4c-1.9,0-3.6-0.5-5-1.4c-1.5-0.9-2.6-2.2-3.5-4c-0.8-1.7-1.2-3.8-1.2-6.1c0-2.4,0.4-4.5,1.2-6.3
		c0.8-1.8,2-3.1,3.4-4c1.5-0.9,3.2-1.4,5.1-1.4c1.9,0,3.6,0.5,5.1,1.4c1.5,0.9,2.6,2.3,3.4,4c0.8,1.8,1.2,3.8,1.2,6.2
		C174.8,160.4,174.4,162.4,173.6,164.2z"/>
	<polygon points="371.9,165.7 371.9,165.7 357.5,143.4 353.6,143.4 353.6,172 357.2,172 357.2,149.6 357.3,149.6 371.6,172 
		375.5,172 375.5,143.4 371.9,143.4 	"/>
	<polygon points="397.4,143.4 397.4,155.1 383.3,155.1 383.3,143.4 379.5,143.4 379.5,172 383.3,172 383.3,158.5 397.4,158.5 
		397.4,172 401.2,172 401.2,143.4 	"/>
	<path d="M257.8,113.3c2.1,1.2,4.4,1.9,7.1,1.9c2.6,0,4.9-0.6,7-1.8c2.1-1.2,3.7-2.9,4.9-5.2c1.2-2.2,1.8-4.8,1.8-7.8
		c0-3-0.6-5.6-1.8-7.8c-1.2-2.2-2.8-4-4.9-5.2c-2.1-1.2-4.4-1.8-7-1.8s-5,0.6-7,1.8c-2.1,1.2-3.7,3-4.9,5.2
		c-1.2,2.3-1.8,4.9-1.8,7.8c0,2.9,0.6,5.5,1.8,7.7C254.1,110.3,255.7,112,257.8,113.3z M256.2,94.2c0.8-1.8,2-3.1,3.4-4
		c1.5-0.9,3.2-1.4,5.1-1.4c1.9,0,3.6,0.5,5.1,1.4s2.6,2.3,3.4,4c0.8,1.8,1.2,3.8,1.2,6.2c0,2.4-0.4,4.4-1.3,6.2s-2,3.1-3.5,4
		c-1.5,0.9-3.2,1.4-5.1,1.4c-1.9,0-3.6-0.5-5-1.4c-1.5-0.9-2.6-2.2-3.5-4c-0.8-1.7-1.2-3.8-1.2-6.1C255,98,255.4,96,256.2,94.2z"/>
</g>
</svg>
