<?xml version="1.0" encoding="utf-8"?>
<!-- Generator: Adobe Illustrator 16.0.0, SVG Export Plug-In . SVG Version: 6.00 Build 0)  -->
<!DOCTYPE svg PUBLIC "-//W3C//DTD SVG 1.1//EN" "http://www.w3.org/Graphics/SVG/1.1/DTD/svg11.dtd">
<svg version="1.1" id="Слой_1" xmlns="http://www.w3.org/2000/svg" xmlns:xlink="http://www.w3.org/1999/xlink" x="0px" y="0px"
	 width="356.655px" height="341.178px" viewBox="0 0 356.655 341.178" enable-background="new 0 0 356.655 341.178"
	 xml:space="preserve">
<g>
	<rect x="13.205" y="39.007" width="2.4" height="45.627"/>
	<rect x="72.478" y="73.228" transform="matrix(0.4995 0.8663 -0.8663 0.4995 120.0831 -15.7575)" width="2.401" height="45.627"/>
	<path d="M105.003,35.021v-2v-0.691l-0.6-0.348L56.251,4.181l0,0l-1.732-1l-0.6-0.346l-0.598,0.346l-1.732,1l0,0L3.437,31.981
		l-0.6,0.346v0.693v2v53.6v2l-0.002,0.693l0.602,0.348l49.283,28.452v35.507h2.4v-35.507l48.684-28.105l32.641,18.845l1.199-2.08
		l-32.641-18.845V35.021z M103.805,90.62L103.805,90.62L103.805,90.62L103.805,90.62z M5.238,35.021v-1.308l1.131-0.653l0,0
		l46.419-26.8l0,0.001l1.132-0.654l1.132,0.654l0-0.001l46.419,26.8l0,0l1.131,0.653v1.308v54.908L53.92,118.036L6.369,90.581l0,0
		l-1.131-0.653V88.62V35.021z"/>
	<rect x="50.864" y="26.4" transform="matrix(0.866 0.5 -0.5 0.866 23.6709 -33.1416)" width="45.629" height="2.398"/>
	<polygon points="36.917,185.452 3.437,204.78 2.837,205.124 2.837,205.819 2.837,207.819 2.837,261.421 2.837,263.421 
		2.835,264.116 3.437,264.46 36.917,283.788 38.117,281.71 6.369,263.382 6.369,263.382 5.238,262.729 5.238,261.421 5.238,207.819 
		5.238,206.511 6.369,205.858 6.369,205.858 38.117,187.53 	"/>
	<rect x="272.01" y="73.228" transform="matrix(-0.501 -0.8654 0.8654 -0.501 326.9815 380.606)" width="2.401" height="45.628"/>
	<polygon points="252.851,17.231 292.367,40.046 293.57,37.968 254.054,15.153 	"/>
	<rect x="212.734" y="39.007" width="2.406" height="45.627"/>
	<path d="M353.82,5.261l-1.203-2.08l-49.281,28.454L254.054,3.181l-0.602-0.346l-0.602,0.346l-49.883,28.801l-0.602,0.346v0.693v2
		v54.908l-32.637,18.844l1.199,2.08l32.641-18.844l48.68,28.104v56.91h2.406v-56.91l49.281-28.452l0.602-0.346V90.62v-2V33.712
		L353.82,5.261z M203.571,90.62L203.571,90.62h-0.002H203.571z M302.132,89.928l-48.68,28.106l-48.68-28.106V35.021v-1.308
		l48.68-28.104l48.68,28.104V88.62V89.928z"/>
	<path d="M156.187,117.341l-4-0.721c-0.986-0.186-1.814-0.406-2.48-0.66c-0.666-0.252-1.207-0.572-1.619-0.959
		c-0.414-0.387-0.707-0.84-0.881-1.359c-0.174-0.521-0.26-1.127-0.26-1.82c0-0.641,0.113-1.248,0.34-1.82
		c0.227-0.574,0.605-1.066,1.141-1.48c0.533-0.414,1.238-0.74,2.119-0.98s1.973-0.359,3.279-0.359c1.146,0,2.121,0.107,2.92,0.32
		c0.801,0.213,1.475,0.527,2.021,0.939c0.547,0.414,0.986,0.934,1.32,1.561c0.332,0.627,0.605,1.34,0.818,2.141l3.441-0.682
		c-0.215-0.932-0.527-1.846-0.941-2.738c-0.412-0.895-1.02-1.688-1.818-2.381c-0.801-0.693-1.834-1.246-3.102-1.66
		c-1.266-0.414-2.846-0.619-4.74-0.619c-1.492,0-2.879,0.16-4.158,0.479c-1.281,0.32-2.387,0.814-3.32,1.48
		c-0.934,0.668-1.674,1.494-2.221,2.48s-0.82,2.133-0.82,3.439c0,1.334,0.193,2.467,0.58,3.4s0.961,1.713,1.721,2.34
		s1.686,1.141,2.779,1.541c1.094,0.398,2.348,0.719,3.76,0.959l3.6,0.641c1.068,0.186,1.941,0.439,2.621,0.76s1.213,0.693,1.6,1.119
		c0.387,0.428,0.646,0.9,0.779,1.42c0.135,0.521,0.201,1.061,0.201,1.621c0,0.693-0.107,1.354-0.32,1.979
		c-0.213,0.627-0.572,1.174-1.08,1.641c-0.506,0.467-1.18,0.84-2.02,1.121c-0.84,0.279-1.887,0.42-3.141,0.42
		c-2.506,0-4.393-0.447-5.66-1.34c-1.266-0.895-2.059-2.342-2.379-4.34h-3.68c0.133,1.545,0.506,2.879,1.119,3.998
		c0.613,1.121,1.426,2.041,2.439,2.762c1.014,0.719,2.207,1.246,3.58,1.58c1.373,0.332,2.9,0.5,4.58,0.5
		c1.76,0,3.293-0.215,4.6-0.641c1.307-0.428,2.395-1.014,3.26-1.76c0.867-0.746,1.521-1.621,1.961-2.621s0.66-2.072,0.66-3.219
		c0-2.508-0.693-4.406-2.08-5.701C161.32,118.827,159.146,117.901,156.187,117.341z"/>
	<polygon points="61.259,190.577 64.781,190.577 64.781,162.021 61.22,162.021 61.22,184.702 46.701,162.021 43.06,162.021 
		43.06,190.577 46.621,190.577 46.621,168.021 	"/>
	<polygon points="102.671,203.78 102.671,203.781 70.923,185.452 69.724,187.53 101.472,205.858 101.472,205.858 102.603,206.511 
		102.603,207.819 102.603,261.421 102.603,262.729 101.472,263.382 101.472,263.382 69.724,281.71 70.923,283.788 102.671,265.459 
		102.671,265.46 104.402,264.46 105.003,264.116 105.003,263.421 105.003,261.421 105.003,207.819 105.003,205.819 105.003,205.132 
		104.402,204.78 	"/>
	<polygon points="43.06,305.78 46.621,305.78 46.621,283.218 61.259,305.78 64.781,305.78 64.781,277.218 61.22,277.218 
		61.22,299.897 46.701,277.218 43.06,277.218 	"/>
	<polygon points="61.14,321.858 46.701,321.858 46.701,309.78 43.021,309.78 43.021,338.343 46.701,338.343 46.701,325.304 
		61.14,325.304 61.14,338.343 64.82,338.343 64.82,309.78 61.14,309.78 	"/>
</g>
</svg>
