<?xml version="1.0" encoding="utf-8"?>
<!-- Generator: Adobe Illustrator 18.0.0, SVG Export Plug-In . SVG Version: 6.00 Build 0)  -->
<!DOCTYPE svg PUBLIC "-//W3C//DTD SVG 1.1//EN" "http://www.w3.org/Graphics/SVG/1.1/DTD/svg11.dtd">
<svg version="1.1" id="Слой_1" xmlns="http://www.w3.org/2000/svg" xmlns:xlink="http://www.w3.org/1999/xlink" x="0px" y="0px"
	 viewBox="0 0 271 521.7" enable-background="new 0 0 271 521.7" xml:space="preserve" width="271" height="521.7">
<g>
	<rect x="20.3" y="146.4" width="2.4" height="45.6"/>
	<rect x="79.6" y="180.6" transform="matrix(0.4996 0.8663 -0.8663 0.4996 216.6182 31.8306)" width="2.4" height="45.6"/>
	<rect x="57.9" y="133.8" transform="matrix(0.866 0.5 -0.5 0.866 78.3031 -22.297)" width="45.6" height="2.4"/>
	<rect x="40" y="285" transform="matrix(-0.4996 -0.8663 0.8663 -0.4996 -204.7645 497.2436)" width="2.4" height="45.6"/>
	<rect x="34.2" y="356.8" transform="matrix(0.4995 -0.8663 0.8663 0.4995 -305.2671 217.2248)" width="2.4" height="32.1"/>
	<polygon points="193.3,477.5 195.6,476.8 184.6,443 167,388.8 200.5,342.7 201,342 200.5,341.3 199.3,339.7 199.3,339.7 
		180.3,313.5 178.4,314.9 198,342 197.4,342.9 197.4,342.9 165.2,387.2 112.1,369.9 112.1,333.2 109.7,333.2 109.7,370.1 
		77.3,388.8 78.5,390.9 111,372.1 164.7,389.5 182.3,443.7 	"/>
	<rect x="118.7" y="368.6" transform="matrix(0.9511 0.309 -0.309 0.9511 121.2072 -25.6185)" width="45.6" height="2.4"/>
	<rect x="165.1" y="330.6" transform="matrix(0.5878 0.809 -0.809 0.5878 342.31 -8.2814)" width="28.4" height="2.4"/>
	<rect x="127.8" y="303.1" transform="matrix(0.9511 -0.309 0.309 0.9511 -87.2634 57.6228)" width="20.9" height="2.4"/>
	<rect x="161.3" y="462.3" transform="matrix(-0.309 -0.9511 0.9511 -0.309 -206.3445 776.9993)" width="35.5" height="2.4"/>
	<rect x="181.1" y="455.9" transform="matrix(-0.309 -0.9511 0.9511 -0.309 -174.4342 787.368)" width="35.5" height="2.4"/>
	<polygon points="178.3,120.3 177.1,122.4 208.3,140.4 210.1,141.4 210.6,141.8 211.2,141.4 261.1,112.6 259.9,110.5 210.6,139 	"/>
	<polygon points="159.6,90.3 162,90.3 162,56 162,54.7 211.2,26.2 210.1,24.1 166,49.6 131.9,29.9 130.7,32 163.6,51 160.2,52.9 
		159.6,53.3 159.6,54 159.6,56 159.6,57.9 126.7,38.9 125.5,41 159.6,60.7 	"/>
	<path d="M12.3,370.1v-1.3v-53.6v-1.3L61,285.8l32.4,18.7l1.2-2.1l-32.4-18.7v-56.2l49.3-28.5l0.6-0.3V198v-2v-54.9l32.4-18.7
		l-1.2-2.1L110.9,139l-47.6-27.5l0,0l-1.7-1l-0.6-0.3l-0.6,0.3l-1.7,1l0,0l-48.2,27.8l-0.6,0.3v0.7v2V196v2l0,0.7l0.6,0.3l49.3,28.5
		v56.2l-49.3,28.5l-0.6,0.3v0.7v2v53.6v2l0,0.7l0.6,0.3l33,19l1.2-2.1l-31.2-18L12.3,370.1z M61,284.4L61,284.4L61,284.4L61,284.4z
		 M13.4,197.9l-1.1-0.7V196v-53.6v-1.3l1.1-0.7L61,113l48.7,28.1V196v1.3l-1.1,0.7L61,225.4L13.4,197.9z"/>
	<polygon points="68.8,407.8 68.7,407.8 53.7,384.7 49.6,384.7 49.6,413.2 53.2,413.2 53.2,390.3 53.3,390.3 68.2,413.2 72.4,413.2 
		72.4,384.7 68.8,384.7 	"/>
	<polygon points="122.3,298.3 118.7,298.3 118.7,321.4 118.6,321.4 103.5,298.3 99.5,298.3 99.5,326.8 103.1,326.8 103.1,303.9 
		103.2,303.9 118.1,326.8 122.3,326.8 	"/>
	<polygon points="177,309 177,280.5 173.4,280.5 173.4,303.6 173.4,303.6 158.3,280.5 154.3,280.5 154.3,309 157.9,309 157.9,286.1 
		158,286.1 172.9,309 	"/>
	<polygon points="209,506.4 209,506.4 193.9,483.2 189.9,483.2 189.9,511.8 193.5,511.8 193.5,488.9 193.6,488.9 208.5,511.8 
		212.6,511.8 212.6,483.2 209,483.2 	"/>
	<polygon points="153.1,102.3 168,125.2 172.1,125.2 172.1,96.7 168.5,96.7 168.5,119.8 168.5,119.8 153.4,96.7 149.4,96.7 
		149.4,125.2 153,125.2 153,102.3 	"/>
	<path d="M100.6,35.3c1.1,1.4,2.6,2.5,4.3,3.3c1.7,0.8,3.7,1.2,6,1.2s4.3-0.4,6-1.2c1.7-0.8,3.1-1.9,4.3-3.3c1.1-1.4,2-3,2.6-4.8
		c0.6-1.8,0.9-3.7,0.9-5.6c0-1.9-0.3-3.8-0.9-5.6c-0.6-1.8-1.4-3.4-2.6-4.8c-1.1-1.4-2.6-2.5-4.3-3.3c-1.7-0.8-3.7-1.2-6-1.2
		s-4.3,0.4-6,1.2c-1.7,0.8-3.1,1.9-4.3,3.3c-1.1,1.4-2,3-2.6,4.8c-0.6,1.8-0.9,3.7-0.9,5.6c0,1.9,0.3,3.8,0.9,5.6
		C98.6,32.3,99.5,33.9,100.6,35.3z M101.6,20.6c0.4-1.4,1-2.7,1.8-3.8c0.8-1.1,1.8-2,3.1-2.7c1.3-0.7,2.7-1,4.5-1s3.2,0.3,4.5,1
		s2.3,1.6,3.1,2.7c0.8,1.1,1.4,2.4,1.8,3.8c0.4,1.4,0.6,2.8,0.6,4.3c0,1.4-0.2,2.9-0.6,4.3c-0.4,1.4-1,2.7-1.8,3.8
		c-0.8,1.1-1.8,2-3.1,2.7s-2.7,1-4.5,1s-3.2-0.3-4.5-1c-1.3-0.7-2.3-1.6-3.1-2.7c-0.8-1.1-1.4-2.4-1.8-3.8c-0.4-1.4-0.6-2.8-0.6-4.3
		C101,23.4,101.2,22,101.6,20.6z"/>
</g>
</svg>
