<?xml version="1.0" encoding="iso-8859-1"?>
<!-- Generator: Adobe Illustrator 19.1.0, SVG Export Plug-In . SVG Version: 6.00 Build 0)  -->
<svg version="1.1" id="&#x421;&#x43B;&#x43E;&#x439;_1"
	 xmlns="http://www.w3.org/2000/svg" xmlns:xlink="http://www.w3.org/1999/xlink" x="0px" y="0px" viewBox="0 0 757.361 355.408"
	 style="enable-background:new 0 0 757.361 355.408;" xml:space="preserve" width="757.361" height="355.408">
<g>
	<polygon points="333.349,220.713 333.349,222.02 284.666,250.127 283.533,249.473 283.533,249.473 252.175,231.369 
		250.976,233.448 284.066,252.552 284.666,252.898 285.265,252.552 335.148,223.752 335.749,223.407 335.749,222.713 
		335.749,220.713 335.749,185.136 333.349,185.136 	"/>
	<polygon points="235.983,167.113 235.983,165.806 283.533,138.352 283.533,138.352 284.666,137.699 285.798,138.352 
		285.798,138.352 317.157,156.457 318.356,154.378 285.265,135.273 284.666,134.928 284.066,135.273 282.334,136.273 
		282.334,136.273 235.915,163.073 235.915,163.073 234.183,164.073 233.583,164.419 233.583,165.113 233.583,167.113 
		233.583,201.752 235.983,201.752 	"/>
	<path d="M184.762,250.206l-1.394-0.453l0,0l-52.371-17.016l-0.596-1.339l0,0l-21.801-48.966l0,0l-0.813-1.827l-0.281-0.632
		l-0.688-0.073l-1.989-0.209v0l-53.307-5.603v0l-1.989-0.209l-0.689-0.074l-0.409,0.562l-32.681,44.982l0,0l-1.175,1.618
		l-0.408,0.559l0.282,0.635l22.614,50.793l0,0l0.814,1.827l0.281,0.632l0.688,0.073l1.989,0.209v0l54.766,5.756l22.517,30.992
		l1.941-1.412l-22.318-30.718l0.663-0.912l0,0l32.169-44.277l1.073,0.349l0,0l52.05,16.912v1.128v34.639h2.4v-34.639v-1.307
		l32.49-18.758l-1.199-2.079L184.762,250.206z M39.792,273.171l-0.531-1.194l0,0L17.46,223.011l0,0l-0.532-1.194l0.768-1.057l0,0
		l31.505-43.363l0,0l0.769-1.058l1.299,0.137v0l54.608,5.739l22.865,51.354l-33.042,45.478l-54.605-5.739v0L39.792,273.171z"/>
	<rect x="173.332" y="257.499" width="2.4" height="30.653"/>
	<rect x="155.822" y="307.088" transform="matrix(-0.3092 -0.951 0.951 -0.3092 -96.9939 565.8894)" width="2.4" height="22.166"/>
	<rect x="86.119" y="210.42" transform="matrix(0.4067 0.9135 -0.9135 0.4067 257.9507 26.031)" width="45.628" height="2.4"/>
	<polygon points="45.888,265.8 91.266,270.569 91.52,268.183 46.142,263.413 	"/>
	<rect x="18.052" y="203.266" transform="matrix(0.5878 -0.809 0.809 0.5878 -148.5714 117.3458)" width="45.628" height="2.4"/>
	<rect x="552.638" y="118.92" transform="matrix(0.4995 0.8663 -0.8663 0.4995 399.9556 -408.8527)" width="2.4" height="45.628"/>
	<rect x="531.024" y="72.092" transform="matrix(0.866 0.5 -0.5 0.866 110.8463 -267.1001)" width="45.628" height="2.4"/>
	<rect x="493.366" y="84.699" width="2.4" height="45.628"/>
	<path d="M653.375,79.008l-1.941,1.412l19.021,26.181l0,0l0.663,0.912l-0.663,0.912l0,0l-32.169,44.276l-1.073-0.349l0,0
		l-52.05-16.912V79.585l36.615-11.897l-0.742-2.282l-36.935,12.001l-1.27-0.733l0,0l-46.419-26.8v0l-1.732-1l-0.599-0.346
		l-0.599,0.346l-1.732,1l0,0l-47.551,27.454l-1.133-0.654l0,0l-26.759-15.449l-1.199,2.079l26.759,15.449l0,0l1.132,0.653v1.307
		v53.6v1.307l-47.55,27.453l0,0l-1.133,0.654l-1.133-0.654l0,0l-48.151-27.8l-0.599-0.346l-0.6,0.346l-33.09,19.105l1.199,2.079
		l32.491-18.759l49.284,28.454l0.599,0.346l0.599-0.346l1.732-1l0,0l46.419-26.8l0,0l1.133-0.654l47.551,27.454l0,0l1.732,1
		l0.599,0.346l0.599-0.346l1.732-1l0,0l47.689-27.533l54.272,17.634l0.828,0.271l0.514-0.706l29.731-40.921h43.221v-2.4H671.19
		l1.206-1.66l0,0l1.176-1.618l0.514-0.706l-0.514-0.706l-1.176-1.618l0,0l-1.206-1.66h41.477v-2.4h-43.221L653.375,79.008z
		 M485.398,80.713v-1.307l48.683-28.107l47.552,27.454l0,0l1.132,0.653v56.214l-48.683,28.107l-48.683-28.107v-1.307V80.713z"/>
	<polygon points="342.322,172.681 342.147,172.681 326.717,150.552 323.299,150.552 323.299,178.736 326.775,178.736 
		326.775,156.685 326.951,156.685 342.381,178.736 345.799,178.736 345.799,150.552 342.322,150.552 	"/>
	<polygon points="242.556,230.281 242.38,230.281 226.951,208.152 223.533,208.152 223.533,236.336 227.009,236.336 
		227.009,214.285 227.185,214.285 242.615,236.336 246.033,236.336 246.033,208.152 242.556,208.152 	"/>
	<polygon points="192.673,316.681 192.497,316.681 177.068,294.552 173.65,294.552 173.65,322.736 177.126,322.736 177.126,300.685 
		177.302,300.685 192.732,322.736 196.15,322.736 196.15,294.552 192.673,294.552 	"/>
	<path d="M132.414,325.106l-2.949-0.781c-3.828-0.996-5.391-2.266-5.391-4.395c0-2.754,2.539-4.648,6.191-4.648
		c3.672,0,6.113,1.855,6.426,4.883h3.516c-0.156-4.727-4.219-8.047-9.824-8.047c-5.859,0-9.961,3.281-9.961,7.969
		c0,3.828,2.305,6.113,7.5,7.441l3.613,0.938c3.789,0.977,5.449,2.441,5.449,4.824c0,2.773-2.773,4.785-6.582,4.785
		c-4.023,0-6.914-2.012-7.246-5.059h-3.535c0.332,4.98,4.473,8.223,10.449,8.223c6.484,0,10.547-3.223,10.547-8.379
		C140.617,328.817,138.254,326.571,132.414,325.106z"/>
	<path d="M431.161,64.62c6.23,0,10.41-3.105,11.699-8.672h-3.555c-1.016,3.438-3.984,5.43-8.125,5.43
		c-5.566,0-9.102-4.414-9.102-11.328c0-6.855,3.574-11.309,9.082-11.309c4.023,0,7.246,2.422,8.145,6.113h3.555
		c-0.898-5.625-5.566-9.356-11.699-9.356c-7.715,0-12.695,5.703-12.695,14.551C418.465,58.975,423.387,64.62,431.161,64.62z"/>
	<rect x="446.766" y="34.737" width="3.398" height="29.414"/>
	<polygon points="630.971,52.486 631.147,52.486 646.577,74.537 649.995,74.537 649.995,46.353 646.518,46.353 646.518,68.482 
		646.343,68.482 630.913,46.353 627.495,46.353 627.495,74.537 630.971,74.537 	"/>
	<polygon points="631.011,29.521 646.479,29.521 646.479,42.353 649.995,42.353 649.995,14.169 646.479,14.169 646.479,26.357 
		631.011,26.357 631.011,14.169 627.495,14.169 627.495,42.353 631.011,42.353 	"/>
	<path d="M730.201,92.718c-7.988,0-12.988,5.625-12.988,14.57s5,14.551,12.988,14.551c7.988,0,12.988-5.605,12.988-14.551
		S738.19,92.718,730.201,92.718z M730.201,118.597c-5.762,0-9.375-4.375-9.375-11.309c0-6.953,3.613-11.328,9.375-11.328
		c5.762,0,9.375,4.375,9.375,11.328C739.576,114.222,735.963,118.597,730.201,118.597z"/>
</g>
</svg>
