<?xml version="1.0" encoding="utf-8"?>
<!-- Generator: Adobe Illustrator 27.6.1, SVG Export Plug-In . SVG Version: 6.00 Build 0)  -->
<svg version="1.1" id="Слой_1" xmlns="http://www.w3.org/2000/svg" xmlns:xlink="http://www.w3.org/1999/xlink" x="0px" y="0px"
	 viewBox="0 0 385.02 214.16" style="enable-background:new 0 0 385.02 214.16;" xml:space="preserve" width="385.02" height="214.16">
<rect x="149.57" y="51.58" transform="matrix(0.951 -0.3091 0.3091 0.951 -13.3001 49.8813)" width="2.4" height="30.66"/>
<rect x="111.96" y="28.02" width="20.12" height="2.4"/>
<rect x="90.08" y="86.54" transform="matrix(0.5875 -0.8093 0.8093 0.5875 -50.8344 118.9803)" width="2.4" height="45.62"/>
<rect x="6.02" y="135.96" transform="matrix(0.1042 -0.9946 0.9946 0.1042 -110.6142 151.5137)" width="45.57" height="2.4"/>
<rect x="61.31" y="176.17" transform="matrix(0.9137 -0.4064 0.4064 0.9137 -64.8243 49.4825)" width="45.57" height="2.4"/>
<path d="M218.28,110.78L218.28,110.78l-1.12,0.65l-1.12-0.65v0.01l-47.76-27.58L157.1,48.77l-2.28,0.74l11.05,34.05l-45.19,32.82
	L75.49,83.56l10.93-33.73l-2.28-0.74L73.1,83.14l-52.15,23.19l0,0l-0.64,0.28l-0.07,0.7l0,0l-5.8,55.32h-0.01l-0.18,1.81l-0.01,0.14
	l0,0l-0.07,0.68l2.14,1.61l0.02-0.03l44.49,32.35l1.08,0.79l0.62-0.29l0,0l52.6-23.44l0,0l0.62-0.28l0.08-0.7l0,0v-0.02l0.24-1.96
	h-0.03l5.77-54.76l45.54-33.07l49.2,28.41l0,0l0.6,0.35l0.6-0.35l0,0l33.92-19.6l-1.2-2.08L218.28,110.78z M113.52,174.32
	l-0.27,0.12l-0.9,0.4l0,0l-49.01,21.84l-0.01-0.03l-1.16,0.54l-1.07-0.78v0.01l-44.4-32.28l5.72-54.6h0.01l0.13-1.3l1.2-0.52
	l-0.01-0.01L73.93,85.4l45.48,33.03L113.52,174.32z"/>
<polygon points="283.16,94.69 299.8,104.29 301.01,102.21 284.37,92.61 "/>
<rect x="278.29" y="60.33" transform="matrix(0.4986 -0.8668 0.8668 0.4986 90.0708 278.7834)" width="15.47" height="2.4"/>
<rect x="269.3" y="55.12" transform="matrix(0.4992 -0.8665 0.8665 0.4992 89.9353 268.2484)" width="15.46" height="2.4"/>
<rect x="246.81" y="53.84" transform="matrix(0.8653 -0.5013 0.5013 0.8653 2.6233 132.5994)" width="2.4" height="15.16"/>
<rect x="255.78" y="48.64" transform="matrix(0.8654 -0.501 0.501 0.8654 6.4142 136.3191)" width="2.4" height="15.16"/>
<polygon points="160.44,43.05 160.44,14.41 156.84,14.41 156.84,36.77 156.76,36.77 142.4,14.41 138.48,14.41 138.48,43.05 
	142.08,43.05 142.08,20.69 142.16,20.69 156.56,43.05 "/>
<path d="M98.92,15.97c-3.12-1.8-7-1.8-7-1.8c-3.92,0-7.04,1.84-7.04,1.84c-3.16,1.84-4.92,5.2-4.92,5.2c-1.8,3.4-1.8,7.8-1.8,7.8
	c0,4.32,1.8,7.68,1.8,7.68c1.76,3.36,4.88,5.24,4.88,5.24c3.12,1.84,7.08,1.84,7.08,1.84c3.88,0,7-1.84,7-1.84
	c3.08-1.8,4.88-5.16,4.88-5.16c1.76-3.36,1.76-7.8,1.76-7.8c0-4.48-1.76-7.84-1.76-7.84C102,17.81,98.92,15.97,98.92,15.97z
	 M100.4,35.21c-1.24,2.6-3.48,3.96-3.48,3.96c-2.2,1.36-5.04,1.36-5.04,1.36c-2.84,0-5.08-1.36-5.08-1.36
	c-2.2-1.36-3.44-3.96-3.44-3.96c-1.28-2.6-1.28-6.12-1.28-6.12c0-3.6,1.24-6.28,1.24-6.28c1.24-2.64,3.44-4,3.44-4
	c2.24-1.4,5.12-1.4,5.12-1.4c2.88,0,5.08,1.4,5.08,1.4c2.24,1.4,3.44,4.04,3.44,4.04c1.24,2.64,1.24,6.2,1.24,6.2
	C101.64,32.61,100.4,35.21,100.4,35.21z"/>
<path d="M273.88,83.25c-2.24-1.08-6.08-1.92-6.08-1.92c-2.8-0.6-4.28-1.16-4.28-1.16c-1.52-0.56-2.24-1.36-2.24-1.36
	c-0.72-0.84-0.72-2.2-0.72-2.2c0-1.32,0.8-2.32,0.8-2.32c0.8-1,2.24-1.56,2.24-1.56c1.4-0.56,3.28-0.56,3.28-0.56
	c2.84,0,4.48,1.36,4.48,1.36c1.64,1.36,2.28,4.48,2.28,4.48h0.08l3.64-0.84c-0.32-2.56-1.72-4.4-1.72-4.4
	c-1.36-1.88-3.64-2.84-3.64-2.84c-2.24-1-5.2-1-5.2-1c-2.8,0-5.04,1-5.04,1c-2.28,1-3.56,2.72-3.56,2.72
	c-1.28,1.76-1.28,3.88-1.28,3.88c0,2,0.68,3.44,0.68,3.44c0.64,1.4,2.32,2.56,2.32,2.56c1.64,1.12,4.64,1.92,4.64,1.92
	c0.68,0.2,2.32,0.56,2.32,0.56c2.76,0.64,4.2,1.16,4.2,1.16c1.72,0.6,2.6,1.6,2.6,1.6c0.88,1,0.88,2.8,0.88,2.8
	c0,1.36-0.92,2.44-0.92,2.44c-0.92,1.08-2.52,1.68-2.52,1.68c-1.56,0.64-3.44,0.64-3.44,0.64c-3.6,0-5.64-1.8-5.64-1.8
	c-2.04-1.76-2.44-5.28-2.44-5.28l-3.72,0.88c0.64,4.6,3.72,7.04,3.72,7.04c3.08,2.4,8.24,2.4,8.24,2.4c2.96,0,5.32-1.12,5.32-1.12
	c2.36-1.16,3.72-3.08,3.72-3.08c1.32-1.96,1.32-4.4,1.32-4.4c0-2.4-1.04-4-1.04-4C276.16,84.37,273.88,83.25,273.88,83.25z"/>
<polygon points="324.32,120.33 324.24,120.33 309.84,97.97 305.96,97.97 305.96,126.61 309.52,126.61 309.52,104.25 309.6,104.25 
	324,126.61 327.88,126.61 327.88,97.97 324.32,97.97 "/>
<polygon points="349.76,109.73 335.72,109.73 335.72,97.97 331.88,97.97 331.88,126.61 335.72,126.61 335.72,113.13 349.76,113.13 
	349.76,126.61 353.56,126.61 353.56,97.97 349.76,97.97 "/>
<path d="M362.12,129.17c0.68-0.64,1.72-1.56,1.72-1.56l1.88-1.56c2.52-2.08,3.8-3.92,3.8-3.92c1.28-1.8,1.28-3.72,1.28-3.72
	c0-1.52-0.76-2.76-0.76-2.76c-0.76-1.24-2.16-2-2.16-2c-1.44-0.72-3.32-0.72-3.32-0.72c-1.84,0-3.28,0.68-3.28,0.68
	c-1.4,0.68-2.24,1.96-2.24,1.96c-0.84,1.28-1,3.04-1,3.04l2.56,0.4c0.08-2,1.12-3.04,1.12-3.04c1.04-1,2.8-1,2.8-1
	c1.04,0,1.92,0.44,1.92,0.44c0.84,0.44,1.36,1.2,1.36,1.2c0.48,0.8,0.48,1.76,0.48,1.76c0,1.36-1.04,2.84-1.04,2.84
	c-1.08,1.52-3.36,3.4-3.36,3.4l-1.6,1.32c-2.4,2-3.56,3.64-3.56,3.64c-1.16,1.68-1.16,3.4-1.16,3.4h13.28v-2.36H361
	C361.44,129.85,362.12,129.17,362.12,129.17z"/>
<path d="M309.52,33.85c0-4.44-1.76-7.8-1.76-7.8c-1.76-3.36-4.88-5.16-4.88-5.16c-3.12-1.84-7-1.84-7-1.84
	c-3.92,0-7.04,1.84-7.04,1.84c-3.16,1.84-4.92,5.24-4.92,5.24c-1.8,3.36-1.8,7.76-1.8,7.76c0,4.36,1.8,7.72,1.8,7.72
	c1.76,3.36,4.88,5.2,4.88,5.2c3.16,1.88,7.08,1.88,7.08,1.88c3.88,0,7-1.84,7-1.84c3.12-1.84,4.88-5.2,4.88-5.2
	C309.52,38.29,309.52,33.85,309.52,33.85z M304.36,40.09c-1.24,2.6-3.48,3.96-3.48,3.96c-2.2,1.36-5.04,1.36-5.04,1.36
	c-2.84,0-5.08-1.36-5.08-1.36c-2.2-1.36-3.44-3.96-3.44-3.96c-1.24-2.56-1.24-6.12-1.24-6.12c0-3.6,1.2-6.24,1.2-6.24
	c1.24-2.64,3.48-4.04,3.48-4.04c2.2-1.4,5.08-1.4,5.08-1.4c2.88,0,5.08,1.44,5.08,1.44c2.24,1.4,3.48,4,3.48,4
	c1.2,2.64,1.2,6.2,1.2,6.2C305.6,37.49,304.36,40.09,304.36,40.09z"/>
<path d="M245.28,20.89c-3.12-1.84-7-1.84-7-1.84c-3.92,0-7.04,1.84-7.04,1.84c-3.16,1.84-4.92,5.24-4.92,5.24
	c-1.8,3.36-1.8,7.76-1.8,7.76c0,4.36,1.8,7.72,1.8,7.72c1.76,3.36,4.88,5.2,4.88,5.2c3.16,1.88,7.08,1.88,7.08,1.88
	c3.88,0,7-1.84,7-1.84c3.12-1.84,4.88-5.2,4.88-5.2c1.76-3.36,1.76-7.8,1.76-7.8c0-4.44-1.76-7.8-1.76-7.8
	C248.4,22.69,245.28,20.89,245.28,20.89z M246.76,40.09c-1.24,2.6-3.48,3.96-3.48,3.96c-2.2,1.36-5.04,1.36-5.04,1.36
	c-2.84,0-5.08-1.36-5.08-1.36c-2.2-1.36-3.44-3.96-3.44-3.96c-1.24-2.56-1.24-6.12-1.24-6.12c0-3.6,1.2-6.24,1.2-6.24
	c1.24-2.64,3.48-4.04,3.48-4.04c2.2-1.4,5.08-1.4,5.08-1.4c2.88,0,5.08,1.44,5.08,1.44c2.24,1.4,3.48,4,3.48,4
	c1.2,2.64,1.2,6.2,1.2,6.2C248,37.49,246.76,40.09,246.76,40.09z"/>
</svg>
