<?xml version="1.0" encoding="UTF-8" standalone="no"?>
<!-- Created with Inkscape (http://www.inkscape.org/) -->

<svg
   width="248.56966mm"
   height="146.43213mm"
   viewBox="0 0 248.56966 146.43213"
   version="1.1"
   id="svg1"
   inkscape:version="1.4 (86a8ad7, 2024-10-11)"
   sodipodi:docname="Zotepine.svg"
   xmlns:inkscape="http://www.inkscape.org/namespaces/inkscape"
   xmlns:sodipodi="http://sodipodi.sourceforge.net/DTD/sodipodi-0.dtd"
   xmlns="http://www.w3.org/2000/svg"
   xmlns:svg="http://www.w3.org/2000/svg">
  <sodipodi:namedview
     id="namedview1"
     pagecolor="#ffffff"
     bordercolor="#000000"
     borderopacity="0.25"
     inkscape:showpageshadow="2"
     inkscape:pageopacity="0.0"
     inkscape:pagecheckerboard="0"
     inkscape:deskcolor="#d1d1d1"
     inkscape:document-units="mm"
     inkscape:zoom="0.73851712"
     inkscape:cx="817.17808"
     inkscape:cy="280.96844"
     inkscape:window-width="1920"
     inkscape:window-height="1009"
     inkscape:window-x="-8"
     inkscape:window-y="-8"
     inkscape:window-maximized="1"
     inkscape:current-layer="layer1" />
  <defs
     id="defs1" />
  <g
     inkscape:label="Layer 1"
     inkscape:groupmode="layer"
     id="layer1"
     transform="translate(4.4979168,-93.662499)">
    <path
       fill="none"
       stroke-width="1.31961"
       stroke-linecap="butt"
       stroke-linejoin="miter"
       stroke="#000000"
       stroke-opacity="1"
       stroke-miterlimit="10"
       d="M 74.869402,123.48368 57.199164,137.40425"
       id="path7" />
    <path
       fill="none"
       stroke-width="1.31961"
       stroke-linecap="butt"
       stroke-linejoin="miter"
       stroke="#000000"
       stroke-opacity="1"
       stroke-miterlimit="10"
       d="m 57.547471,137.12935 0.194246,35.43556"
       id="path8" />
    <path
       fill="none"
       stroke-width="1.31961"
       stroke-linecap="butt"
       stroke-linejoin="miter"
       stroke="#000000"
       stroke-opacity="1"
       stroke-miterlimit="10"
       d="m 52.637152,140.00153 0.162224,29.74392"
       id="path9" />
    <path
       fill="none"
       stroke-width="1.31961"
       stroke-linecap="butt"
       stroke-linejoin="miter"
       stroke="#000000"
       stroke-opacity="1"
       stroke-miterlimit="10"
       d="m 57.388308,172.28174 27.988985,22.40792"
       id="path10" />
    <path
       fill="none"
       stroke-width="1.31961"
       stroke-linecap="butt"
       stroke-linejoin="miter"
       stroke="#000000"
       stroke-opacity="1"
       stroke-miterlimit="10"
       d="M 84.818131,194.5615 119.3876,186.66017"
       id="path11" />
    <path
       fill="none"
       stroke-width="1.31961"
       stroke-linecap="butt"
       stroke-linejoin="miter"
       stroke="#000000"
       stroke-opacity="1"
       stroke-miterlimit="10"
       d="m 86.039772,189.22848 29.928918,-6.84093"
       id="path12" />
    <path
       fill="none"
       stroke-width="1.31961"
       stroke-linecap="butt"
       stroke-linejoin="miter"
       stroke="#000000"
       stroke-opacity="1"
       stroke-miterlimit="10"
       d="m 119.12407,187.21106 15.70444,-32.8683"
       id="path13" />
    <path
       fill="none"
       stroke-width="1.31961"
       stroke-linecap="butt"
       stroke-linejoin="miter"
       stroke="#000000"
       stroke-opacity="1"
       stroke-miterlimit="10"
       d="M 134.63525,154.74895 119.36279,123.23147"
       id="path14" />
    <path
       fill="none"
       stroke-width="1.31961"
       stroke-linecap="butt"
       stroke-linejoin="miter"
       stroke="#000000"
       stroke-opacity="1"
       stroke-miterlimit="10"
       d="m 137.82782,150.03914 -12.7899,-26.39423"
       id="path15" />
    <path
       fill="none"
       stroke-width="1.31961"
       stroke-linecap="butt"
       stroke-linejoin="miter"
       stroke="#000000"
       stroke-opacity="1"
       stroke-miterlimit="10"
       d="M 119.80207,123.33173 94.596366,117.56672"
       id="path16" />
    <path
       fill="none"
       stroke-width="1.31961"
       stroke-linecap="butt"
       stroke-linejoin="miter"
       stroke="#000000"
       stroke-opacity="1"
       stroke-miterlimit="10"
       d="M 57.933993,137.3495 26.294582,119.32476"
       id="path17" />
    <path
       fill="none"
       stroke-width="1.31961"
       stroke-linecap="butt"
       stroke-linejoin="miter"
       stroke="#000000"
       stroke-opacity="1"
       stroke-miterlimit="10"
       d="M 26.957061,119.31853 -4.16144,137.76702"
       id="path18" />
    <path
       fill="none"
       stroke-width="1.31961"
       stroke-linecap="butt"
       stroke-linejoin="miter"
       stroke="#000000"
       stroke-opacity="1"
       stroke-miterlimit="10"
       d="M 27.006678,125.01639 0.78709579,140.56065"
       id="path19" />
    <path
       fill="none"
       stroke-width="1.31961"
       stroke-linecap="butt"
       stroke-linejoin="miter"
       stroke="#000000"
       stroke-opacity="1"
       stroke-miterlimit="10"
       d="m -3.8379454,137.19445 0.2769857,36.0164"
       id="path20" />
    <path
       fill="none"
       stroke-width="1.31961"
       stroke-linecap="butt"
       stroke-linejoin="miter"
       stroke="#000000"
       stroke-opacity="1"
       stroke-miterlimit="10"
       d="M -3.8947896,172.64243 27.563764,190.56382"
       id="path21" />
    <path
       fill="none"
       stroke-width="1.31961"
       stroke-linecap="butt"
       stroke-linejoin="miter"
       stroke="#000000"
       stroke-opacity="1"
       stroke-miterlimit="10"
       d="M 1.0103385,169.76716 27.533783,184.87732"
       id="path22" />
    <path
       fill="none"
       stroke-width="1.31961"
       stroke-linecap="butt"
       stroke-linejoin="miter"
       stroke="#000000"
       stroke-opacity="1"
       stroke-miterlimit="10"
       d="m 26.904347,190.56794 31.22808,-18.23145"
       id="path23" />
    <path
       fill="none"
       stroke-width="1.31961"
       stroke-linecap="butt"
       stroke-linejoin="miter"
       stroke="#000000"
       stroke-opacity="1"
       stroke-miterlimit="10"
       d="m 134.18567,154.71587 35.911,2.59312"
       id="path24" />
    <path
       fill="none"
       stroke-width="1.31961"
       stroke-linecap="butt"
       stroke-linejoin="miter"
       stroke="#000000"
       stroke-opacity="1"
       stroke-miterlimit="10"
       d="m 169.50133,157.60043 19.68252,-29.40388"
       id="path25" />
    <path
       fill="none"
       stroke-width="1.31961"
       stroke-linecap="butt"
       stroke-linejoin="miter"
       stroke="#000000"
       stroke-opacity="1"
       stroke-miterlimit="10"
       d="m 167.0002,152.48035 16.51475,-24.67138"
       id="path26" />
    <path
       fill="none"
       stroke-width="1.31961"
       stroke-linecap="butt"
       stroke-linejoin="miter"
       stroke="#000000"
       stroke-opacity="1"
       stroke-miterlimit="10"
       d="M 189.36473,128.56759 173.75224,96.52924"
       id="path27" />
    <path
       fill="none"
       stroke-width="1.31961"
       stroke-linecap="butt"
       stroke-linejoin="miter"
       stroke="#000000"
       stroke-opacity="1"
       stroke-miterlimit="10"
       d="M 174.29796,96.89821 138.59988,94.320591"
       id="path28" />
    <path
       fill="none"
       stroke-width="1.31961"
       stroke-linecap="butt"
       stroke-linejoin="miter"
       stroke="#000000"
       stroke-opacity="1"
       stroke-miterlimit="10"
       d="M 171.11263,101.608 141.07931,99.439654"
       id="path29" />
    <path
       fill="none"
       stroke-width="1.31961"
       stroke-linecap="butt"
       stroke-linejoin="miter"
       stroke="#000000"
       stroke-opacity="1"
       stroke-miterlimit="10"
       d="m 139.19311,94.03327 -20.08354,29.57132"
       id="path30" />
    <path
       fill="none"
       stroke-width="1.31961"
       stroke-linecap="butt"
       stroke-linejoin="miter"
       stroke="#000000"
       stroke-opacity="1"
       stroke-miterlimit="10"
       d="m 118.85846,186.35529 18.63348,10.75696"
       id="path31" />
    <path
       fill="none"
       stroke-width="1.31961"
       stroke-linecap="butt"
       stroke-linejoin="miter"
       stroke="#000000"
       stroke-opacity="1"
       stroke-miterlimit="10"
       d="m 149.85707,216.20464 v 23.88999"
       id="path32" />
    <path
       fill="none"
       stroke-width="1.31961"
       stroke-linecap="butt"
       stroke-linejoin="miter"
       stroke="#000000"
       stroke-opacity="1"
       stroke-miterlimit="10"
       d="m 149.19663,239.4342 h 36.11563"
       id="path33" />
    <path
       fill="none"
       stroke-width="1.31961"
       stroke-linecap="butt"
       stroke-linejoin="miter"
       stroke="#000000"
       stroke-opacity="1"
       stroke-miterlimit="10"
       d="M 184.84614,239.62749 199.6959,224.77774"
       id="path34" />
    <path
       fill="none"
       stroke-width="1.31961"
       stroke-linecap="butt"
       stroke-linejoin="miter"
       stroke="#000000"
       stroke-opacity="1"
       stroke-miterlimit="10"
       d="m 220.7406,217.45623 23.16035,6.20635"
       id="path35" />
    <path
       fill="none"
       stroke-width="1.31961"
       stroke-linecap="butt"
       stroke-linejoin="miter"
       stroke="#000000"
       stroke-opacity="1"
       stroke-miterlimit="10"
       d="m 206.58127,202.10523 -5.77022,-21.53254"
       id="path36" />
    <path
       fill="none"
       stroke-width="1.31961"
       stroke-linecap="butt"
       stroke-linejoin="miter"
       stroke="#000000"
       stroke-opacity="1"
       stroke-miterlimit="10"
       d="m 188.7715,128.19655 h 23.54275"
       id="path37" />
    <g
       fill="#000000"
       fill-opacity="1"
       id="g37"
       transform="matrix(0.26458333,0,0,0.26458333,-5.0967832,93.059686)">
      <g
         id="use37"
         transform="translate(318.02734,114.11719)">
        <path
           d="m 41.734375,-15.875 c 0,5.261719 -1.917969,9.359375 -5.75,12.296875 -3.824219,2.9375 -8.976563,4.40625 -15.453125,4.40625 -3.324219,0 -6.402344,-0.25 -9.234375,-0.75 C 8.472656,-0.421875 6.117188,-1.113281 4.234375,-2 v -7.140625 c 2,0.886719 4.476563,1.6875 7.4375,2.40625 2.96875,0.71875 6.03125,1.078125 9.1875,1.078125 4.4375,0 7.773437,-0.859375 10.015625,-2.578125 2.25,-1.71875 3.375,-4.046875 3.375,-6.984375 0,-1.9375 -0.417969,-3.566406 -1.25,-4.890625 -0.835938,-1.332031 -2.261719,-2.566406 -4.28125,-3.703125 -2.023438,-1.132812 -4.835938,-2.34375 -8.4375,-3.625 -5.042969,-1.820312 -8.855469,-4.0625 -11.4375,-6.71875 -2.574219,-2.664062 -3.859375,-6.296875 -3.859375,-10.890625 0,-3.164063 0.800781,-5.867187 2.40625,-8.109375 1.613281,-2.25 3.847656,-3.984375 6.703125,-5.203125 2.851562,-1.21875 6.132812,-1.828125 9.84375,-1.828125 3.269531,0 6.257812,0.308594 8.96875,0.921875 2.71875,0.605469 5.1875,1.40625 7.40625,2.40625 l -2.328125,6.40625 c -2.054687,-0.882813 -4.28125,-1.628906 -6.6875,-2.234375 -2.40625,-0.613281 -4.914063,-0.921875 -7.515625,-0.921875 -3.71875,0 -6.523438,0.792969 -8.40625,2.375 -1.886719,1.574219 -2.828125,3.664063 -2.828125,6.265625 0,1.992188 0.414063,3.652344 1.25,4.984375 0.832031,1.335937 2.191406,2.527344 4.078125,3.578125 1.882812,1.054688 4.429688,2.1875 7.640625,3.40625 3.488281,1.273438 6.4375,2.640625 8.84375,4.109375 2.414063,1.46875 4.25,3.230469 5.5,5.28125 1.25,2.054687 1.875,4.632813 1.875,7.734375 z m 0,0"
           id="path40" />
      </g>
    </g>
    <g
       fill="#000000"
       fill-opacity="1"
       id="g38"
       transform="matrix(0.26458333,0,0,0.26458333,-5.0967832,93.059686)">
      <g
         id="use38"
         transform="translate(553.1875,449.96875)">
        <path
           d="m 59.84375,-29.765625 c 0,6.15625 -1.042969,11.523437 -3.125,16.09375 -2.074219,4.574219 -5.132812,8.136719 -9.171875,10.6875 -4.042969,2.542969 -9.058594,3.8125 -15.046875,3.8125 -6.148438,0 -11.257812,-1.269531 -15.328125,-3.8125 C 13.097656,-5.535156 10.0625,-9.109375 8.0625,-13.703125 6.070312,-18.304688 5.078125,-23.6875 5.078125,-29.84375 c 0,-6.09375 0.992187,-11.410156 2.984375,-15.953125 2,-4.550781 5.035156,-8.097656 9.109375,-10.640625 4.070313,-2.550781 9.207031,-3.828125 15.40625,-3.828125 5.9375,0 10.925781,1.261719 14.96875,3.78125 4.039063,2.523437 7.097656,6.070313 9.171875,10.640625 2.082031,4.574219 3.125,9.933594 3.125,16.078125 z m -46.875,0 c 0,7.492187 1.578125,13.382813 4.734375,17.671875 3.15625,4.292969 8.085937,6.4375 14.796875,6.4375 6.757812,0 11.691406,-2.144531 14.796875,-6.4375 3.101563,-4.289062 4.65625,-10.179688 4.65625,-17.671875 0,-7.476563 -1.554687,-13.335937 -4.65625,-17.578125 -3.105469,-4.238281 -8.011719,-6.359375 -14.71875,-6.359375 -6.699219,0 -11.640625,2.121094 -14.828125,6.359375 -3.1875,4.242188 -4.78125,10.101562 -4.78125,17.578125 z m 0,0"
           id="path6" />
      </g>
    </g>
    <g
       fill="#000000"
       fill-opacity="1"
       id="g39"
       transform="matrix(0.26458333,0,0,0.26458333,-5.0967832,93.059686)">
      <g
         id="use39"
         transform="translate(781.0625,488.875)">
        <path
           d="m 55.109375,0 h -8.71875 L 14.625,-49.296875 h -0.328125 c 0.113281,1.9375 0.253906,4.351563 0.421875,7.234375 0.164062,2.886719 0.25,5.851562 0.25,8.890625 V 0 H 8.0625 v -59.34375 h 8.640625 l 31.671875,49.125 h 0.34375 c -0.0625,-0.882812 -0.136719,-2.210938 -0.21875,-3.984375 -0.08594,-1.78125 -0.167969,-3.722656 -0.25,-5.828125 -0.08594,-2.101562 -0.125,-4.046875 -0.125,-5.828125 V -59.34375 h 6.984375 z m 0,0"
           id="path38" />
      </g>
    </g>
    <g
       fill="#000000"
       fill-opacity="1"
       id="g41"
       transform="matrix(0.26458333,0,0,0.26458333,-5.0967832,93.059686)">
      <g
         id="use40"
         transform="translate(831.26953,163.97266)">
        <path
           d="m 33.5,-53.609375 c -6.375,0 -11.390625,2.136719 -15.046875,6.40625 -3.65625,4.261719 -5.484375,10.105469 -5.484375,17.53125 0,7.367187 1.703125,13.199219 5.109375,17.5 3.40625,4.292969 8.519531,6.4375 15.34375,6.4375 2.601563,0 5.066406,-0.21875 7.390625,-0.65625 2.332031,-0.445313 4.601562,-1.003906 6.8125,-1.671875 v 6.484375 c -2.210938,0.835937 -4.496094,1.445313 -6.859375,1.828125 -2.355469,0.382812 -5.167969,0.578125 -8.4375,0.578125 -6.03125,0 -11.074219,-1.242187 -15.125,-3.734375 -4.042969,-2.5 -7.074219,-6.046875 -9.09375,-10.640625 -2.023437,-4.601563 -3.03125,-10.007813 -3.03125,-16.21875 0,-5.976563 1.09375,-11.253906 3.28125,-15.828125 2.1875,-4.570312 5.410156,-8.144531 9.671875,-10.71875 4.269531,-2.582031 9.453125,-3.875 15.546875,-3.875 6.257813,0 11.71875,1.167969 16.375,3.5 l -2.984375,6.3125 c -1.835938,-0.832031 -3.875,-1.578125 -6.125,-2.234375 -2.242188,-0.664063 -4.6875,-1 -7.34375,-1 z m 0,0"
           id="path1" />
      </g>
      <g
         id="use41"
         transform="translate(883.80457,163.97266)">
        <path
           d="M 14.375,0 H 7.0625 v -63.171875 h 7.3125 z m 0,0"
           id="path5" />
      </g>
    </g>
  </g>
</svg>
