<?xml version="1.0" encoding="iso-8859-1"?>
<!-- Generator: Adobe Illustrator 19.1.0, SVG Export Plug-In . SVG Version: 6.00 Build 0)  -->
<svg version="1.1" id="&#x421;&#x43B;&#x43E;&#x439;_1"
	 xmlns="http://www.w3.org/2000/svg" xmlns:xlink="http://www.w3.org/1999/xlink" x="0px" y="0px" viewBox="0 0 567.865 431.858"
	 style="enable-background:new 0 0 567.865 431.858;" xml:space="preserve" width="567.865" height="431.858">
<g>
	<path style="fill:#808080;" d="M120.519,172.718c1.252-6.262,4.271-10.145,5.704-11.498h-1.996
		c-2.196,2.229-4.867,5.195-6.133,11.525c-1.263,6.316,0.148,10.062,1.296,11.977h2.092
		C120.658,182.548,119.267,178.979,120.519,172.718z"/>
	<polygon style="fill:#808080;" points="127.719,178.624 142.049,162.956 142.399,161.206 128.427,161.206 127.984,163.421 
		138.853,163.421 138.834,163.516 124.448,179.184 124.098,180.934 138.686,180.934 139.129,178.719 127.699,178.719 	"/>
	<path style="fill:#808080;" d="M146.443,161.219h-1.996c0.905,1.354,2.343,5.236,1.091,11.498s-4.072,9.83-5.764,12.004h2.092
		c1.914-1.914,4.837-5.66,6.1-11.977C149.233,166.415,147.748,163.448,146.443,161.219z"/>
</g>
<g>
	<rect x="303.104" y="63.75" width="2.4" height="45.628"/>
	<rect x="222.217" y="119.585" transform="matrix(0.866 0.5 -0.5 0.866 93.2208 -106.3339)" width="45.628" height="2.4"/>
	<rect x="243.831" y="29.529" transform="matrix(0.4996 0.8663 -0.8663 0.4996 167.9656 -186.0708)" width="2.4" height="45.628"/>
	<rect x="83.814" y="97.971" transform="matrix(-0.4996 -0.8663 0.8663 -0.4996 22.8543 254.7717)" width="2.4" height="45.628"/>
	<rect x="24.541" y="63.75" width="2.4" height="45.628"/>
	<rect x="62.2" y="51.143" transform="matrix(-0.866 -0.5 0.5 -0.866 132.467 140.1796)" width="45.628" height="2.4"/>
	<rect x="174.19" y="150.15" width="2.4" height="45.628"/>
	<polygon points="314.672,401.978 267.12,374.524 265.989,373.871 265.989,372.564 265.989,336.987 263.589,336.987 
		263.589,372.564 263.589,374.564 263.588,375.256 264.189,375.603 314.072,404.403 314.672,404.749 315.271,404.403 
		348.362,385.298 347.163,383.219 	"/>
	<polygon points="363.355,353.603 365.755,353.603 365.755,318.964 365.755,316.964 365.756,316.271 365.154,315.924 
		363.422,314.924 317.003,288.124 317.003,288.124 315.271,287.124 314.672,286.778 314.072,287.124 312.34,288.124 312.34,288.124 
		280.982,306.229 282.181,308.308 313.539,290.203 314.672,289.549 315.804,290.203 363.355,317.656 363.355,318.964 	"/>
	<path d="M165.306,40.126c-4.024,0-6.914-2.012-7.246-5.058h-3.535c0.332,4.98,4.473,8.223,10.449,8.223
		c6.484,0,10.547-3.223,10.547-8.379c0-4.043-2.363-6.289-8.203-7.754l-2.949-0.781c-3.828-0.996-5.391-2.266-5.391-4.395
		c0-2.754,2.539-4.649,6.191-4.649c3.672,0,6.113,1.856,6.426,4.883h3.516c-0.156-4.727-4.219-8.047-9.824-8.047
		c-5.859,0-9.961,3.281-9.961,7.969c0,3.828,2.305,6.113,7.5,7.441l3.613,0.938c3.789,0.977,5.449,2.442,5.449,4.824
		C171.888,38.114,169.114,40.126,165.306,40.126z"/>
	<path d="M217.237,288.124l-1.132-0.653v-1.307v-53.6v-2l0.001-0.693l-0.602-0.347l-48.151-27.8l0,0l-1.132-0.653v-1.307v-53.6
		v-1.307l48.683-28.107l47.551,27.454l1.732,1l0.599,0.346l0.599-0.346l1.732-1l47.551-27.454l31.334,18.091l1.199-2.079
		l-31.333-18.09v-1.307v-53.6v-2l0.001-0.693l-0.602-0.347l-49.883-28.8l-0.599-0.346l-0.599,0.346l-49.284,28.454l-34.387-19.853
		l-1.199,2.079l34.386,19.852v1.307v53.6v1.307l-48.683,28.107l-1.133-0.654v0l-46.419-26.8l-1.132-0.653V59.764v-1.307
		l33.246-19.195l-1.199-2.079L115.14,56.378L65.856,27.924l-0.6-0.346l-0.599,0.346l-49.883,28.8l-0.6,0.345v0.694v2v53.6v2
		l-0.001,0.693l0.601,0.347l49.883,28.8l0.599,0.346l0.6-0.346l49.284-28.454l48.683,28.107v1.307v53.6v2l-0.001,0.693l0.601,0.347
		l1.732,1l0,0l47.55,27.453v1.307v53.6v2l-0.001,0.693l0.602,0.347l33.091,19.105l1.199-2.079L217.237,288.124L217.237,288.124z
		 M216.106,113.364v-53.6v-1.307l48.683-28.107l48.683,28.107v1.307v53.6v1.307l-47.55,27.453l0,0l-1.133,0.654l-1.133-0.654l0,0
		l-47.55-27.453V113.364z M113.939,59.764v54.907l-1.132,0.653l0,0l-46.419,26.8l0,0l-1.133,0.654l-1.133-0.654l0,0l-46.419-26.8
		l0,0l-1.132-0.653v-1.307v-53.6v-1.307l1.132-0.653v0l47.552-27.454l47.551,27.454l0,0l1.132,0.653V59.764z"/>
	<polygon points="276.039,330.587 276.039,302.403 272.562,302.403 272.562,324.532 272.386,324.532 256.957,302.403 
		253.539,302.403 253.539,330.587 257.015,330.587 257.015,308.536 257.191,308.536 272.621,330.587 	"/>
	<path d="M361.4,158.871c6.23,0,10.41-3.105,11.699-8.672h-3.555c-1.016,3.438-3.984,5.43-8.125,5.43
		c-5.566,0-9.102-4.414-9.102-11.328c0-6.855,3.574-11.309,9.082-11.309c4.023,0,7.246,2.422,8.145,6.113h3.555
		c-0.898-5.625-5.566-9.355-11.699-9.355c-7.715,0-12.695,5.703-12.695,14.551C348.705,153.226,353.627,158.871,361.4,158.871z"/>
	<rect x="377.006" y="128.988" width="3.398" height="29.414"/>
	<polygon points="372.328,382.132 372.152,382.132 356.723,360.003 353.305,360.003 353.305,388.187 356.781,388.187 
		356.781,366.136 356.957,366.136 372.387,388.187 375.805,388.187 375.805,360.003 372.328,360.003 	"/>
	<polygon points="464.92,373.524 464.321,373.178 463.721,373.524 461.989,374.524 415.57,401.324 414.438,401.978 381.947,383.219 
		380.748,385.298 412.106,403.403 412.106,403.403 413.838,404.403 414.438,404.749 415.037,404.403 416.769,403.403 
		416.769,403.403 463.188,376.603 464.321,375.949 465.453,376.603 498.145,395.478 499.344,393.399 466.652,374.524 	"/>
	<path d="M514.204,388.569c-7.988,0-12.988,5.625-12.988,14.57c0,8.945,5,14.551,12.988,14.551s12.988-5.605,12.988-14.551
		C527.192,394.194,522.192,388.569,514.204,388.569z M514.204,414.448c-5.762,0-9.375-4.375-9.375-11.309
		c0-6.953,3.613-11.328,9.375-11.328s9.375,4.375,9.375,11.328C523.579,410.073,519.966,414.448,514.204,414.448z"/>
	<polygon points="550.177,389.037 550.177,401.225 534.708,401.225 534.708,389.037 531.192,389.037 531.192,417.221 
		534.708,417.221 534.708,404.389 550.177,404.389 550.177,417.221 553.692,417.221 553.692,389.037 	"/>
</g>
</svg>
